<svg width="204" height="208" viewBox="0 0 204 208" fill="none" xmlns="http://www.w3.org/2000/svg">
<g clip-path="url(#clip0_254_1270)">
<path d="M101.76 207.76C157.96 207.76 203.52 161.251 203.52 103.88C203.52 46.5087 157.96 0 101.76 0C45.5595 0 0 46.5087 0 103.88C0 161.251 45.5595 207.76 101.76 207.76Z" fill="#FBF3D5"/>
<path d="M176.05 40.14C192.24 57.02 183.5 84.68 161.43 90.83C168.85 108.35 178.42 129.26 168.9 147.89C161.58 162.23 142.14 170.48 126.95 172.17C107.4 174.33 86.5599 176.25 67.3599 170.86C52.0199 166.55 37.0799 156.56 31.5399 141.01C24.8199 122.17 33.9699 102.32 42.8999 85.88C23.5999 78.85 15.4199 50.32 32.2499 36.47C49.1899 22.53 72.3799 33.05 79.7299 51.83V51.88C80.7799 51.53 81.8299 51.25 82.8899 50.94C83.9099 50.64 84.9399 50.26 85.9999 50.14C85.8999 47.71 86.7299 45.2 88.9299 43.1C99.9999 32.51 115.99 48.01 125.85 53.2C130.87 30.53 160.53 23.97 176.06 40.14H176.05ZM160.67 89.27C181.96 85.25 190.3 57.54 174.85 41.34C158.87 24.59 132.39 33.13 126.72 53.98C126.2 55.9 114.06 47.41 108.11 44.19C103.13 41.5 96.9799 39.63 91.6699 42.66C89.0699 44.14 86.8099 47.38 86.8899 50.32C87.0699 57.1 94.4999 58.19 98.3499 58.19C99.3999 58.19 98.9599 58.78 98.8499 58.87C95.5399 61.14 92.1199 64.12 93.6499 68.72C95.1099 73.16 99.6699 73.79 103.62 73.19C104.03 73.14 104.25 73.61 103.91 73.86C100.02 76.55 94.0299 73.44 92.4799 69.42C91.2299 66.19 92.6499 61.19 95.7999 59.32C90.7199 59.67 86.6099 55.53 86.0599 50.84C85.1199 51.27 84.0999 51.48 83.1199 51.75C81.9299 52.08 80.7299 52.38 79.3999 52.7C79.0099 52.9 78.4099 52.8 78.1999 52.27C70.9999 34.68 49.4899 24.53 33.3399 37.71C25.1699 44.39 22.8099 55.2 25.8399 65.14C28.6799 74.41 35.2999 80.56 43.4799 85.16C43.9199 84.98 44.5299 85.47 44.2499 86.05C33.7799 107.63 22.1999 133.77 41.6499 154.24C56.8199 170.21 80.1099 173.33 101.07 172.48C122.15 171.63 145.04 170.08 161.31 154.84C180.22 137.15 167.2 110.38 159.59 90.71C159.41 90.25 159.42 89.51 160.69 89.27H160.67Z" fill="#222221"/>
<path d="M174.85 41.33C190.3 57.53 181.96 85.24 160.67 89.26C159.4 89.5 159.39 90.24 159.57 90.7C167.19 110.37 180.2 137.13 161.29 154.83C145.02 170.07 122.12 171.62 101.05 172.47C80.0898 173.32 56.7998 170.2 41.6298 154.23C22.1798 133.77 33.7598 107.62 44.2298 86.04C44.4998 85.46 43.8998 84.97 43.4598 85.15C35.2798 80.55 28.6498 74.39 25.8198 65.13C22.7898 55.19 25.1498 44.38 33.3198 37.7C49.4698 24.51 70.9798 34.67 78.1798 52.26C78.3898 52.8 78.9898 52.89 79.3798 52.69C80.7098 52.36 81.9198 52.06 83.0998 51.74C84.0798 51.47 85.0998 51.26 86.0398 50.83C86.5898 55.52 90.6898 59.66 95.7798 59.31C92.6298 61.18 91.2098 66.18 92.4598 69.41C94.0198 73.44 99.9998 76.55 103.89 73.85C104.23 73.6 104.01 73.13 103.6 73.18C99.6498 73.78 95.0898 73.15 93.6298 68.71C92.0998 64.11 95.5198 61.13 98.8298 58.86C98.9498 58.77 99.3798 58.18 98.3298 58.18C94.4698 58.18 87.0498 57.1 86.8698 50.31C86.7898 47.37 89.0498 44.13 91.6498 42.65C96.9598 39.62 103.11 41.49 108.09 44.18C114.04 47.39 126.18 55.89 126.7 53.97C132.37 33.13 158.85 24.58 174.83 41.33H174.85Z" fill="#B05449"/>
<g opacity="0.4" style="mix-blend-mode:multiply">
<path d="M27.2799 48.28C29.9899 44.59 33.8899 42 38.2599 40.7C42.8099 39.34 47.6999 39.33 52.3299 40.31C57.2699 41.36 61.9499 43.58 65.8899 46.74C69.8299 49.89 72.8799 54.01 74.8199 58.65C78.2899 56.22 82.3399 54.59 86.5699 54.27C85.8399 53.33 85.2799 52.32 84.8399 51.26C84.2599 51.43 83.6799 51.58 83.0999 51.74C81.9099 52.07 80.7099 52.37 79.3799 52.69C78.9899 52.89 78.3899 52.79 78.1799 52.26C70.9799 34.67 49.4699 24.52 33.3199 37.7C28.5399 41.61 25.7599 46.94 24.8799 52.67C25.4999 51.13 26.2799 49.64 27.2799 48.28Z" fill="#B05449"/>
</g>
<g opacity="0.4" style="mix-blend-mode:multiply">
<path d="M88.4 54.39C88.52 54.51 88.56 54.66 88.57 54.8C89.16 55.48 89.89 56.02 90.67 56.46C89.77 55.04 89.41 53.27 89.68 51.42C90.14 48.29 92.28 45.41 95.25 44.24C98.73 42.87 102.86 43.58 106.28 44.78C113.4 47.27 119.55 52.09 125.26 56.94C125.37 56.19 125.5 55.44 125.66 54.69C125.7 54.51 125.74 54.34 125.79 54.16C122.78 53.49 113.2 46.91 108.12 44.17C103.14 41.48 96.99 39.61 91.68 42.64C89.08 44.12 86.82 47.36 86.9 50.3C86.94 51.64 87.26 52.75 87.78 53.68C87.98 53.92 88.18 54.15 88.41 54.38L88.4 54.39Z" fill="#B05449"/>
</g>
<g opacity="0.4" style="mix-blend-mode:multiply">
<path d="M160.67 89.27C181.96 85.24 190.3 57.54 174.85 41.34C163.84 29.8 147.85 30.27 137.12 38.48C137.5 38.29 137.89 38.1 138.29 37.93C144.52 35.29 151.7 35.8 158 37.92C164.45 40.08 170.54 43.99 174.74 49.4C178.64 54.43 180.61 60.87 178.66 67.1C177.21 71.72 173.99 75.62 170.12 78.45C165.02 82.18 158.81 83.9 152.78 85.49C153.98 94.76 157.94 103.42 160.34 112.4C164.39 127.58 162.68 144.93 154.47 158.5C153.85 159.52 153.19 160.5 152.5 161.47C155.6 159.61 158.55 157.43 161.31 154.85C180.22 137.16 167.2 110.39 159.59 90.72C159.41 90.26 159.42 89.52 160.69 89.28L160.67 89.27Z" fill="#B05449"/>
</g>
<g opacity="0.4" style="mix-blend-mode:soft-light">
<path d="M45.76 152.39C43.44 150.23 41.61 147.75 40.13 144.95C38.63 142.09 38.16 139.17 37.27 136.14C37.02 135.29 35.72 135.44 35.71 136.35C35.67 142.89 40.41 149.12 45.42 152.82C45.67 153.01 45.98 152.6 45.75 152.39H45.76Z" fill="white"/>
</g>
<path d="M136.28 130.23C130.23 129.94 125.8 124.09 126.06 118.31C126.13 116.82 128.45 116.82 128.37 118.31C128.12 123.24 131.39 127.78 136.41 128.42C141.92 129.13 145.47 124.73 146.88 119.98C146.96 119.69 147.38 119.76 147.39 120.05C147.6 125.72 141.77 130.5 136.28 130.23Z" fill="#222221"/>
<path d="M65.3198 130.23C59.8398 130.5 53.9998 125.72 54.2098 120.05C54.2198 119.76 54.6398 119.7 54.7198 119.98C56.1398 124.74 59.6698 129.13 65.1898 128.42C70.2199 127.78 73.4899 123.23 73.2299 118.31C73.1499 116.82 75.4798 116.82 75.5398 118.31C75.7998 124.09 71.3698 129.94 65.3198 130.23Z" fill="#222221"/>
<path d="M73.6499 51.53C73.8699 51.88 74.4699 53.09 73.1799 53.54C67.1799 55.7 60.8699 60.92 56.3099 65.12C51.4399 69.6 47.6599 74.29 45.1399 80.62C44.7999 81.47 44.3799 80.93 44.2499 80.88C28.6999 73.99 20.2799 52.46 33.7799 39.27C48.2099 25.16 65.0299 38.34 73.6499 51.53ZM55.8999 63.45C60.2999 59.41 66.2199 53.66 72.2199 52.24C64.1799 40.07 48.4199 27.03 34.7799 40.28C21.3299 53.34 30.7199 72.1 44.3099 80.11C46.5199 73.6 50.8799 68.07 55.8999 63.45Z" fill="#222221"/>
<path d="M72.2299 52.24C66.2299 53.66 60.3099 59.41 55.9099 63.45C50.8899 68.08 46.5299 73.6 44.3199 80.11C30.7299 72.1 21.3499 53.33 34.7899 40.28C48.4299 27.03 64.1899 40.07 72.2299 52.24Z" fill="#DD87A8"/>
<g opacity="0.4" style="mix-blend-mode:multiply">
<path d="M33.4199 45.24C36.7199 41.61 41.1799 39.14 46.1499 38.95C50.9099 38.77 55.7499 40.39 59.2599 43.63C62.5199 46.64 64.5099 50.76 66.8199 54.57C68.5899 53.51 70.4099 52.67 72.2299 52.23C64.1899 40.06 48.4299 27.02 34.7899 40.27C30.7599 44.18 28.7999 48.6 28.3599 53.09C29.6499 50.23 31.3099 47.54 33.4199 45.23V45.24Z" fill="#DD87A8"/>
</g>
<g opacity="0.4" style="mix-blend-mode:soft-light">
<path d="M40.49 73.33C38.22 70.3 36.09 67.52 35.02 63.81C33.93 60.04 34.5 56.64 34.42 52.84C34.4 52.03 33.15 51.55 32.77 52.39C29.66 59.33 33.71 69.91 39.79 74.01C40.19 74.28 40.79 73.73 40.48 73.32L40.49 73.33Z" fill="white"/>
</g>
<path d="M169.33 41.46C176.1 46.96 178.94 55.27 176.69 63.75C174.21 73.19 166.46 79.72 158.03 83.9C156.74 84.54 156.66 83.36 156.28 82.65C149.89 70.59 139.37 62.13 128.35 54.08C127.32 53.32 127.96 53.34 128.04 53.14C134.01 36.06 155.25 30 169.34 41.46H169.33ZM174.76 64.29C177.41 55.53 174.24 46.99 166.91 41.68C153.15 31.71 135.35 38.64 128.84 53.31C128.87 53.32 128.89 53.32 128.92 53.34C135.17 56.84 140.92 61.87 146.08 66.79C150.22 70.72 155.72 76.38 157.59 82.2C164.99 78.21 172.21 72.7 174.76 64.3V64.29Z" fill="#222221"/>
<path d="M166.9 41.68C174.23 46.99 177.41 55.53 174.75 64.29C172.2 72.69 164.98 78.21 157.58 82.19C155.71 76.37 150.21 70.72 146.07 66.78C140.91 61.87 135.16 56.84 128.91 53.33C128.88 53.32 128.86 53.32 128.83 53.3C135.34 38.62 153.14 31.7 166.9 41.67V41.68Z" fill="#DD87A8"/>
<g opacity="0.4" style="mix-blend-mode:multiply">
<path d="M166.9 41.68C163.39 39.14 159.63 37.7 155.85 37.2C157.17 38.06 158.42 39.05 159.54 40.2C165.21 46.03 167.08 54.64 165.49 62.48C164.21 68.76 160.71 74.32 155.7 78.08C156.49 79.42 157.14 80.8 157.59 82.18C164.99 78.19 172.21 72.68 174.76 64.28C177.41 55.52 174.24 46.98 166.91 41.67L166.9 41.68Z" fill="#DD87A8"/>
</g>
<g opacity="0.4" style="mix-blend-mode:soft-light">
<path d="M150.77 39.2C144.56 39.54 139.15 43.27 136.33 48.75C136.17 49.07 136.61 49.33 136.81 49.03C139.99 44.17 145.04 41.34 150.77 40.79C151.77 40.69 151.8 39.15 150.77 39.2Z" fill="white"/>
</g>
<path d="M134.54 147.96C136.85 160.87 129.55 173.74 116.34 176.25C107.6 177.91 97.6499 177.94 88.8199 177.31C82.8999 176.89 75.9999 176.38 71.8699 171.57C63.2099 161.49 66.4199 143.81 73.3199 133.82C79.0399 125.51 88.1999 120.12 98.0299 118.79C123.77 117.39 132.27 135.26 134.54 147.96ZM119.93 173.38C128.5 170.22 133.25 161.25 133.17 152.43C133.05 136.92 120.21 121.64 104.29 119.72C90.0799 118.37 75.6299 128.18 70.5099 143.09C68.0099 150.33 67.7699 158.86 70.7199 166C74.7199 175.66 85.6599 175.72 94.6899 175.77C102.67 175.81 112.36 176.18 119.94 173.38H119.93Z" fill="#222221"/>
<path d="M133.17 152.43C133.25 161.25 128.5 170.22 119.93 173.38C112.35 176.18 102.67 175.81 94.6798 175.77C85.6498 175.72 74.7098 175.65 70.7098 166C67.7598 158.86 67.9998 150.33 70.4998 143.09C75.6198 128.18 90.0798 118.38 104.28 119.72C120.2 121.64 133.04 136.92 133.16 152.43H133.17Z" fill="#F9EAB9"/>
<g opacity="0.4" style="mix-blend-mode:multiply">
<path d="M104.29 119.72C95.45 118.88 86.51 122.37 79.79 128.71C80.26 128.65 80.73 128.59 81.2 128.55C88.84 127.83 97 128.36 104.24 131.01C110.92 133.46 116.76 138.04 119.07 144.97C120.09 148.03 120.32 151.29 120.27 154.5C120.21 157.91 119.82 161.34 119.05 164.66C118.24 168.1 116.82 172.04 114.38 174.84C116.31 174.49 118.19 174.03 119.94 173.38C128.51 170.22 133.26 161.25 133.18 152.43C133.06 136.92 120.22 121.64 104.3 119.72H104.29Z" fill="#F9EAB9"/>
</g>
<path d="M100.72 123.73C107.95 123.47 115.77 127.31 115.51 135.58C115.27 142.74 108.19 147.84 101.7 149.3C102.05 152.37 101.35 155.47 102.54 158.46C104.2 162.62 108.96 163.97 111.22 159.6C111.4 159.26 111.89 159.44 111.91 159.78C112.09 163.67 106.62 164.5 104.04 162.79C102.3 161.63 101.28 159.84 100.72 157.82C100.21 159.81 99.3599 161.61 98.1799 162.86C96.0999 165.07 91.8799 165.67 90.2099 162.69C90.0699 162.42 90.4099 162.17 90.6299 162.36C94.4499 165.85 97.9899 161.31 98.9699 157.76C99.7499 154.94 100.17 150.95 99.9099 148.68C93.3799 147.73 86.5899 141.75 86.1099 135.04C85.5099 126.45 93.7199 124 100.72 123.72V123.73ZM113.52 137.5C115.6 129.8 108.02 125.74 101.67 125.73C95.3799 125.72 86.4799 128.06 88.2999 136.41C89.6099 142.36 94.5899 146.85 101.38 148.08C106.49 146.43 112.06 142.94 113.52 137.51V137.5Z" fill="#222221"/>
<path d="M101.67 125.73C108.02 125.74 115.6 129.81 113.52 137.5C112.06 142.94 106.49 146.43 101.38 148.07C94.5799 146.84 89.6099 142.35 88.2999 136.4C86.4799 128.05 95.3799 125.71 101.67 125.72V125.73Z" fill="#884941"/>
<g opacity="0.4" style="mix-blend-mode:multiply">
<path d="M101.67 125.73C98.9499 125.73 95.7399 126.16 93.1199 127.33C95.3099 127.35 97.5099 127.64 99.5199 128.49C102.17 129.61 104.07 131.77 104.83 134.56C105.76 137.95 104.95 141.7 103.43 144.8C102.87 145.95 102.16 147.07 101.32 148.06C101.34 148.06 101.36 148.07 101.39 148.07C106.5 146.42 112.07 142.93 113.53 137.5C115.61 129.8 108.03 125.74 101.68 125.73H101.67Z" fill="#884941"/>
</g>
<g opacity="0.4" style="mix-blend-mode:soft-light">
<path d="M96.19 141.02C94.95 139.75 93.95 138.21 93.31 136.55C92.75 135.11 92.83 133.61 92.4 132.16C92.28 131.77 91.75 131.78 91.62 132.16C90.54 135.49 93.39 139.53 95.95 141.32C96.14 141.45 96.34 141.17 96.19 141.01V141.02Z" fill="white"/>
</g>
<path d="M100.13 106.8C99.96 106.28 99.11 106.19 98.99 106.8C98.71 108.2 99.04 109.61 99.22 111.01C99.43 112.55 99.64 114.07 99.9 115.6C99.93 115.77 100.18 115.72 100.19 115.56C100.27 114.01 100.31 112.47 100.34 110.92C100.37 109.54 100.55 108.12 100.12 106.79L100.13 106.8Z" fill="#222221"/>
<path d="M99.7199 93.62C99.6499 93.07 98.8399 92.85 98.6799 93.48C98.1399 95.62 98.6399 98.13 99.2799 100.2C99.3599 100.44 99.74 100.41 99.73 100.14C99.71 98.01 99.9799 95.73 99.7199 93.62Z" fill="#222221"/>
<path d="M98.6001 81.46C98.5101 83.48 98.8801 85.4 99.0701 87.39C99.0801 87.53 99.2701 87.53 99.2901 87.39C99.4801 85.4 99.8501 83.47 99.7601 81.46C99.7301 80.72 98.6401 80.72 98.6001 81.46Z" fill="#222221"/>
<path d="M93.5399 98.28C93.3799 97.89 92.7799 97.91 92.7599 98.39C92.6799 101.62 93.6799 104.9 93.7199 108.16C93.7199 108.29 93.8999 108.28 93.9099 108.16C94.2599 105.07 94.7599 101.24 93.5299 98.28H93.5399Z" fill="#222221"/>
<path d="M91.7399 84.56C91.4799 83.86 90.3499 84.16 90.6099 84.87C91.4899 87.34 92.0699 89.79 92.0699 92.43C92.0699 92.79 92.5799 92.77 92.6199 92.43C92.8799 89.77 92.6899 87.08 91.7499 84.56H91.7399Z" fill="#222221"/>
<path d="M105.23 96.45C104.65 99.61 104.9 102.91 105.26 106.08C105.28 106.28 105.57 106.29 105.58 106.08C105.7 102.91 106.17 99.76 106.27 96.59C106.29 96 105.34 95.85 105.23 96.45Z" fill="#222221"/>
<path d="M106.55 82.44C105.16 84.3 105.47 87.88 105.71 90.06C105.75 90.44 106.31 90.46 106.32 90.06C106.34 88.67 106.45 87.29 106.7 85.92C106.9 84.84 107.37 83.74 107.29 82.64C107.26 82.23 106.79 82.13 106.55 82.44Z" fill="#222221"/>
<path d="M109.21 71.28C108.71 73.28 108.26 75.24 108.07 77.29C108.05 77.53 108.43 77.58 108.49 77.35C108.96 75.4 109.42 73.42 110.09 71.52C110.28 70.97 109.35 70.7 109.21 71.28Z" fill="#222221"/>
<path d="M90.38 74.3C90.18 73 90.03 71.45 89.32 70.32C89.12 70 88.59 70.12 88.6 70.52C88.62 71.71 89.11 72.87 89.34 74.04C89.6 75.34 89.69 76.7 90.1 77.96C90.16 78.14 90.47 78.18 90.51 77.96C90.73 76.75 90.56 75.52 90.37 74.31L90.38 74.3Z" fill="#222221"/>
<path d="M86.5199 91.13C86.3399 90.64 85.5599 90.85 85.7299 91.35C86.5399 93.65 87.0399 95.92 87.0799 98.36C87.0799 98.69 87.5799 98.69 87.5899 98.36C87.6699 95.91 87.3699 93.44 86.5199 91.13Z" fill="#222221"/>
<path d="M112.18 89.07C111.24 91.64 111.17 94.89 111.68 97.54C111.74 97.87 112.25 97.78 112.25 97.46C112.3 94.62 112.66 91.98 113.01 89.18C113.07 88.67 112.33 88.65 112.17 89.07H112.18Z" fill="#222221"/>
<path d="M114.02 78.03C113.44 79.28 113.33 80.9 113.07 82.25C113 82.62 113.54 82.78 113.64 82.41C113.99 81.08 114.59 79.57 114.61 78.19C114.61 77.9 114.16 77.74 114.03 78.03H114.02Z" fill="#222221"/>
<path d="M84.34 78.03C84.17 77.7 83.68 77.94 83.76 78.27C84.23 80.34 84.78 82.28 84.97 84.42C85 84.8 85.57 84.81 85.57 84.42C85.59 82.3 85.3 79.94 84.34 78.03Z" fill="#222221"/>
</g>
<defs>
<clipPath id="clip0_254_1270">
<rect width="203.52" height="207.76" fill="white"/>
</clipPath>
</defs>
</svg>
