<svg width="189" height="189" viewBox="0 0 189 189" fill="none" xmlns="http://www.w3.org/2000/svg">
<g clip-path="url(#clip0_254_1294)">
<path d="M160.744 160.741C197.515 123.969 197.515 64.3506 160.744 27.5789C123.972 -9.19291 64.3529 -9.19291 27.5812 27.5789C-9.19059 64.3506 -9.19059 123.969 27.5812 160.741C64.3529 197.513 123.972 197.513 160.744 160.741Z" fill="#BCEDF4"/>
<path d="M94.1602 188.32C109.69 188.32 124.34 184.53 137.25 177.87C136.34 173.92 133.64 163.66 128.92 157.42C120.96 146.91 76.8302 143.78 66.6002 155.71C61.2902 161.91 57.3402 174.97 55.9102 180.2C67.6002 185.41 80.5402 188.32 94.1602 188.32Z" fill="#487C98"/>
<path d="M94.1601 188.32C98.2201 188.32 102.23 188.05 106.15 187.55C105.55 181.42 99.9301 162.42 99.9301 162.42C99.9301 162.42 94.7501 162.7 94.8801 162.5C94.8801 162.5 89.1701 183.52 88.6001 188.15C90.4401 188.26 92.2901 188.32 94.1601 188.32Z" fill="#CA2F16"/>
<path d="M101.51 155.59C102.11 156.36 101.94 162.86 101.08 163.21C100.22 163.55 93.8602 164.14 93.0002 163.28C92.1402 162.42 91.9602 155.77 91.9602 155.77C91.9602 155.77 100.91 154.82 101.51 155.6V155.59Z" fill="#CA2F16"/>
<path d="M97.3002 154.82C96.9402 154.7 91.8102 164 88.9602 162.22C86.1102 160.44 81.6002 150.7 83.6302 148.8C85.6502 146.9 110.3 147.08 110.73 149.66C111.06 151.67 108.92 163.76 105.83 163.17C102.74 162.58 97.3102 154.82 97.3102 154.82H97.3002Z" fill="#65B0D1"/>
<path d="M65.5301 157.07C65.2501 157.45 64.9801 157.85 64.7101 158.27C64.6701 158.34 64.6301 158.41 64.5801 158.47C64.3401 158.85 64.1001 159.24 63.8601 159.65C63.8101 159.74 63.7501 159.83 63.7001 159.92C63.4401 160.37 63.1901 160.83 62.9501 161.29C62.8901 161.4 62.8401 161.51 62.7801 161.61C62.5601 162.04 62.3401 162.47 62.1301 162.92C62.1001 162.99 62.0601 163.06 62.0301 163.13C61.8001 163.62 61.5701 164.12 61.3401 164.62C61.2801 164.75 61.2201 164.88 61.1701 165.01C60.9501 165.51 60.7301 166.01 60.5201 166.52C60.5001 166.57 60.4801 166.63 60.4501 166.68C60.2501 167.15 60.0601 167.63 59.8801 168.1C59.8301 168.23 59.7801 168.35 59.7301 168.48C59.5401 168.98 59.3501 169.48 59.1601 169.97C59.1201 170.07 59.0901 170.17 59.0501 170.28C58.8901 170.72 58.7301 171.16 58.5801 171.59C58.5501 171.69 58.5101 171.78 58.4801 171.88C58.3101 172.37 58.1501 172.85 57.9901 173.32C57.9501 173.43 57.9201 173.54 57.8801 173.65C57.7301 174.1 57.5901 174.55 57.4501 174.98C57.4501 175.01 57.4301 175.03 57.4201 175.06C57.2701 175.52 57.1301 175.97 57.0001 176.4C56.9701 176.49 56.9501 176.57 56.9201 176.66C56.7901 177.09 56.6701 177.5 56.5501 177.9C56.5501 177.9 56.5501 177.92 56.5501 177.93C56.4301 178.34 56.3201 178.73 56.2101 179.1C56.2101 179.12 56.2001 179.14 56.1901 179.17C56.0801 179.54 55.9901 179.89 55.9001 180.21C60.9001 182.44 66.1401 184.21 71.5501 185.55C71.6801 170.69 69.3201 159.6 67.4301 154.86C67.1301 155.14 66.8401 155.42 66.5901 155.72C66.2901 156.07 66.0001 156.44 65.7101 156.83C65.6501 156.92 65.5801 157 65.5201 157.09L65.5301 157.07Z" fill="#346C84"/>
<path d="M136.83 176.16C136.83 176.16 136.82 176.11 136.81 176.09C136.73 175.78 136.65 175.45 136.56 175.11C136.55 175.06 136.53 175.01 136.52 174.96C136.43 174.62 136.33 174.28 136.23 173.91C136.23 173.9 136.23 173.88 136.22 173.87C136.12 173.51 136.01 173.14 135.9 172.77C135.87 172.68 135.85 172.59 135.82 172.51C135.71 172.13 135.59 171.75 135.46 171.35C135.44 171.3 135.43 171.24 135.41 171.19C135.3 170.84 135.18 170.48 135.06 170.12C135.03 170.02 134.99 169.92 134.96 169.82C134.83 169.42 134.69 169.02 134.54 168.61C134.51 168.52 134.47 168.42 134.44 168.33C134.31 167.96 134.17 167.59 134.02 167.21C133.99 167.14 133.97 167.07 133.94 167C133.78 166.59 133.61 166.17 133.44 165.75C133.4 165.64 133.35 165.53 133.3 165.42C133.12 165 132.94 164.57 132.75 164.15C132.73 164.11 132.71 164.07 132.7 164.03C132.52 163.63 132.34 163.24 132.15 162.85C132.1 162.76 132.06 162.66 132.01 162.57C131.81 162.16 131.6 161.75 131.39 161.35C131.35 161.27 131.31 161.2 131.27 161.12C131.07 160.76 130.87 160.4 130.66 160.05C130.62 159.99 130.59 159.92 130.55 159.86C130.32 159.47 130.08 159.1 129.84 158.73C129.79 158.65 129.73 158.57 129.68 158.49C129.43 158.12 129.17 157.75 128.91 157.4C128.64 157.05 128.34 156.71 127.99 156.38C127.93 156.32 127.85 156.26 127.78 156.2C127.48 155.92 127.15 155.64 126.8 155.38C126.75 155.34 126.69 155.3 126.64 155.26C126.24 154.97 125.82 154.68 125.36 154.41C125.34 154.4 125.32 154.39 125.3 154.38C124.8 154.08 124.27 153.79 123.71 153.51C120.72 160.76 121.31 173.98 122.61 183.93C127.69 182.32 132.6 180.29 137.27 177.88C137.16 177.4 137.02 176.82 136.86 176.17L136.83 176.16Z" fill="#346C84"/>
<path d="M100.83 142.02L101.63 151.98L97.3802 154.99L93.4802 152.18L93.0002 141.93L100.83 142.02Z" fill="#CC691F"/>
<path d="M100.83 142.02L93.0002 141.93L93.3202 148.78L101.4 149.06L100.83 142.02Z" fill="#954714"/>
<path d="M162.23 105.8C161.9 115.35 154.53 122.85 145.77 122.54C137.01 122.23 130.19 114.24 130.52 104.69C130.85 95.1401 138.22 87.6401 146.98 87.9501C155.74 88.2601 162.56 96.2501 162.23 105.8Z" fill="#CC691F"/>
<path d="M158.98 105.47C158.78 111.1 154.44 115.52 149.27 115.34C144.11 115.16 140.08 110.45 140.28 104.81C140.48 99.1801 144.82 94.7601 149.99 94.9401C155.15 95.1201 159.18 99.8301 158.98 105.47Z" fill="#954714"/>
<path d="M57.0601 100.56C56.7301 110.11 49.3601 117.61 40.6001 117.3C31.8401 116.99 25.0201 109 25.3501 99.45C25.6901 89.9 33.0601 82.4 41.8101 82.71C50.5701 83.02 57.3901 91.01 57.0601 100.56Z" fill="#CC691F"/>
<path d="M50.2601 100.18C50.0601 105.81 45.7201 110.23 40.5501 110.05C35.3901 109.87 31.3601 105.16 31.5601 99.52C31.7601 93.89 36.1001 89.47 41.2701 89.65C46.4301 89.83 50.4601 94.54 50.2601 100.18Z" fill="#954714"/>
<path d="M106.69 45.3901L83.07 44.6301C40.68 47.5001 44.09 71.1401 43.27 94.4701L43.03 101.44C42.21 124.77 60.46 144.34 83.79 145.16L101.92 145.8C125.25 146.62 144.82 128.37 145.64 105.04L145.88 98.0701C146.7 74.7401 154.18 46.5501 106.69 45.4001V45.3901Z" fill="#CC691F"/>
<path d="M108.83 80.63C109.4 80.55 109.99 80.48 110.56 80.47C111.13 80.46 111.71 80.47 112.28 80.49C112.85 80.51 113.43 80.52 114 80.56C114.57 80.6 115.16 80.66 115.74 80.73L115.46 80.69C116.3 80.8 117.13 80.96 117.95 81.15C118.36 81.24 118.76 81.35 119.17 81.47C119.37 81.53 119.57 81.59 119.77 81.65C120.03 81.73 120.27 81.75 120.54 81.7C120.63 81.68 120.72 81.66 120.81 81.64C121.11 81.56 121.35 81.31 121.43 81.02C121.52 80.69 121.41 80.41 121.2 80.16C121.01 79.92 120.79 79.74 120.49 79.64C120.32 79.58 120.14 79.53 119.97 79.48C119.65 79.39 119.32 79.3 119 79.22C118.35 79.06 117.69 78.93 117.02 78.82C115.61 78.6 114.18 78.47 112.75 78.48C111.93 78.48 111.09 78.61 110.28 78.72L110.52 78.69C109.88 78.77 109.25 78.85 108.61 78.96C108.42 78.99 108.19 79.19 108.1 79.35C108.01 79.51 107.97 79.7 108 79.9C108.02 80.08 108.1 80.27 108.24 80.39C108.39 80.53 108.63 80.67 108.84 80.64L108.83 80.63Z" fill="#4F0200"/>
<path d="M77.7701 78.38C76.9801 78.32 76.1801 78.2901 75.3801 78.2801C74.5801 78.2701 73.8301 78.29 73.0501 78.38C71.4101 78.58 69.7901 78.9001 68.2101 79.4101C67.7901 79.5501 67.3701 79.69 66.9601 79.85C66.7601 79.93 66.5601 80.01 66.3701 80.09C66.1301 80.19 65.9001 80.2801 65.7201 80.4601C65.6101 80.5701 65.5001 80.74 65.4001 80.88C65.2501 81.11 65.2501 81.42 65.3601 81.67C65.4601 81.9 65.6701 82.1401 65.9301 82.1801C66.0901 82.2001 66.2501 82.23 66.4101 82.24C66.6801 82.26 66.9001 82.16 67.1401 82.06L66.8901 82.17C68.9801 81.29 71.1801 80.68 73.4301 80.38L73.1601 80.42C73.6501 80.35 74.1501 80.3001 74.6401 80.2301L74.3801 80.27C74.9401 80.19 75.5101 80.13 76.0801 80.1C76.6501 80.07 77.2101 80.08 77.7801 80.1C78.2301 80.12 78.6601 79.69 78.6401 79.24C78.6201 78.75 78.2601 78.42 77.7801 78.38H77.7701Z" fill="#4F0200"/>
<path d="M84.7002 114.38C92.9202 112.95 93.8102 119.07 97.1102 118.19C100.41 117.32 103.79 111.89 108.73 115.03C113.67 118.17 113.5 136.17 91.4902 133.94C76.0902 132.38 76.4702 115.8 84.7002 114.37V114.38Z" fill="#681900"/>
<path d="M111.35 121.04C109.03 120.58 106.57 120.44 104.02 120.73C95.7503 121.66 89.1303 126.61 86.7903 132.85C88.1603 133.38 89.7203 133.77 91.5003 133.95C106.82 135.5 111.56 127.25 111.35 121.04Z" fill="#FFAC9F"/>
<path d="M81.8501 115.7C83.9901 121.1 90.3701 124.59 97.4401 123.8C103.02 123.17 107.58 120.04 109.7 115.94C109.41 115.58 109.08 115.27 108.73 115.05C103.79 111.91 100.4 117.33 97.1101 118.21C93.8101 119.08 92.9301 112.97 84.7001 114.4C83.6001 114.59 82.6501 115.06 81.8501 115.72V115.7Z" fill="#F7FFFA"/>
<path d="M165.28 64.12C165.28 59.87 162.57 56.16 158.56 54.23C160.33 52.21 161.42 49.56 161.42 46.66C161.42 40.31 156.27 35.16 149.92 35.16C148.9 35.16 147.91 35.31 146.97 35.56C146.97 35.48 146.98 35.41 146.98 35.33C146.98 30.88 143.49 27.26 139.07 26.96C139.07 26.87 139.09 26.77 139.09 26.68C139.09 20.33 133.08 15.18 125.66 15.18C122.08 15.18 118.83 16.39 116.42 18.34C116.4 11.68 109.72 6.28005 101.48 6.28005C97.8702 6.28005 94.5602 7.31005 91.9802 9.04005C89.8302 6.64005 86.5302 5.11005 82.8402 5.11005C76.3502 5.11005 71.0902 9.85005 71.0902 15.69C71.0902 16.22 71.1502 16.74 71.2302 17.24C66.9102 17.56 63.2902 19.74 61.7102 22.73C59.7202 21.88 57.4602 21.4 55.0602 21.4C47.2402 21.4 40.8802 26.48 40.5702 32.84C40.3902 32.84 40.2202 32.82 40.0402 32.82C33.9202 32.82 28.9602 36.99 28.9602 42.14C28.9602 44.63 30.1302 46.88 32.0202 48.55C28.7402 49.96 26.4402 53.13 26.4402 56.83C26.4402 60.17 28.3202 63.08 31.1002 64.65C29.6002 65.78 28.6202 67.56 28.6202 69.59C28.6202 71.75 29.7202 73.65 31.3902 74.76C28.8002 76.66 27.1002 79.88 27.1002 83.53C27.1002 89.37 31.4602 94.11 36.8402 94.11C37.3302 94.11 37.8102 94.06 38.2802 93.98C38.2202 94.67 38.1802 95.37 38.1802 96.1C38.1802 101.78 40.2402 106.38 42.7802 106.38C45.3202 106.38 47.3802 101.78 47.3802 96.1C47.3802 94.97 47.3002 93.89 47.1502 92.87C49.1102 91.49 50.4402 88.92 50.4402 85.96C50.4402 83 49.2302 80.65 47.4002 79.23C48.7502 78.05 49.6002 76.39 49.6002 74.54C49.6002 72.69 48.6702 70.9 47.2302 69.72C50.6602 68.43 53.1202 64.96 53.1202 60.86C53.1202 60.34 53.0702 59.83 52.9902 59.33C53.1202 59.33 53.2402 59.35 53.3702 59.35C56.9402 59.35 59.9602 57.24 61.0602 54.31C62.5002 54.95 64.1402 55.32 65.8702 55.32C67.7002 55.32 69.4202 54.91 70.9102 54.2C72.1802 57.68 75.7202 60.18 79.8902 60.18C80.4802 60.18 81.0502 60.12 81.6102 60.03C83.2702 64.24 87.4002 67.23 92.2302 67.23C97.8402 67.23 102.5 63.21 103.46 57.91C104.23 58.07 105.02 58.16 105.83 58.16C109.93 58.16 113.51 56.01 115.47 52.81C116.98 53.55 118.69 53.97 120.52 53.97C122.35 53.97 124.1 53.54 125.62 52.79C126.35 55.03 127.87 56.85 129.82 57.9C128.26 59.7 127.32 61.95 127.32 64.38C127.32 68.61 130.12 72.26 134.17 74.01C133.44 75.49 133.03 77.18 133.03 78.98C133.03 82.86 134.95 86.24 137.8 88.03C138.22 89.51 139.19 90.84 140.54 91.89C140.45 93.12 140.61 94.35 141.1 95.5C141.3 95.98 141.59 96.42 141.9 96.84C142.07 102.17 144.06 106.37 146.49 106.37C148.74 106.37 150.61 102.77 151.01 98.01C152.12 96.8 152.69 95.07 152.47 93.49C155.59 92.36 157.84 90.09 158.29 87.38C162.03 84.8 163.28 79.39 161 74.65C160.74 74.11 160.44 73.61 160.11 73.13C163.24 71.06 165.27 67.8 165.27 64.13L165.28 64.12Z" fill="#4D2A22"/>
<path d="M149.7 42.02C155.7 42.43 157.97 51.9401 153.21 52.7701C148.45 53.6001 143.7 41.61 149.7 42.02Z" fill="#6C4B41"/>
<path d="M143.08 47.4001C146.18 47.6101 149.49 55.8801 145.15 56.0801C140.81 56.2901 139.98 47.1901 143.08 47.4001Z" fill="#6C4B41"/>
<path d="M137.7 51.12C139.77 50.5 143.08 57.32 139.97 57.74C136.87 58.15 135.63 51.74 137.7 51.12Z" fill="#6C4B41"/>
<path d="M53.3101 26.77C59.1101 28.7 58.3801 36.19 48.9601 36.68C39.5401 37.16 47.5101 24.84 53.3101 26.77Z" fill="#6C4B41"/>
<path d="M62.2502 32.81C64.4202 35.71 61.5302 40.78 56.9302 39.33C52.3402 37.88 60.0702 29.91 62.2502 32.81Z" fill="#6C4B41"/>
<path d="M67.42 37.24C70.24 38.05 68.83 42.89 65.81 42.48C62.79 42.08 64.6 36.43 67.42 37.24Z" fill="#6C4B41"/>
<path d="M113.53 112.65C119.4 112.65 124.15 107.88 124.15 102.01V96.38C124.14 90.51 119.37 85.76 113.5 85.77C107.63 85.77 102.88 90.54 102.88 96.41V102.04C102.89 107.91 107.66 112.66 113.53 112.65Z" fill="#F7FFFA"/>
<path d="M102.88 96.41C102.88 93.23 104.27 90.39 106.48 88.44C107.32 88.14 108.2 87.96 109.12 87.96C114.3 87.96 118.5 93.13 118.51 99.51C118.51 105.9 114.33 111.08 109.15 111.09C108.68 111.09 108.22 111.03 107.77 110.95C104.84 109.06 102.89 105.78 102.89 102.03V96.4L102.88 96.41Z" fill="#4D2A22"/>
<path d="M73.9101 112.65C68.0401 112.73 63.2201 108.04 63.1301 102.17L63.0501 96.54C62.9701 90.67 67.6601 85.85 73.5301 85.76C79.4001 85.68 84.2201 90.37 84.3101 96.24L84.3901 101.87C84.4701 107.74 79.7801 112.56 73.9101 112.65Z" fill="#F7FFFA"/>
<path d="M84.31 96.24C84.27 93.06 82.82 90.24 80.59 88.32C79.75 88.03 78.86 87.87 77.94 87.88C72.76 87.95 68.64 93.19 68.73 99.58C68.82 105.97 73.09 111.09 78.27 111.01C78.74 111.01 79.2 110.94 79.65 110.85C82.55 108.92 84.45 105.6 84.4 101.86L84.32 96.23L84.31 96.24Z" fill="#4D2A22"/>
<path d="M94.2902 102.29C93.9502 102.94 93.6102 103.58 93.2802 104.23C93.1802 104.41 93.0802 104.59 93.0002 104.78L93.7802 104.68C93.5002 104.32 93.2102 103.97 92.9102 103.63C92.6102 103.29 92.2902 102.97 91.9602 102.66C91.7802 102.48 91.5902 102.3 91.4302 102.1L91.4802 102.17C91.4602 102.11 91.4302 102.06 91.4002 102C91.3402 101.88 91.1902 101.8 91.0602 101.8C90.9302 101.8 90.7802 101.87 90.7202 102C90.6502 102.14 90.6402 102.32 90.6202 102.47C90.6002 102.62 90.5802 102.79 90.5602 102.95C90.5302 103.22 90.5002 103.48 90.4802 103.75C90.4502 104.28 90.4402 104.8 90.4402 105.33C90.4402 105.48 90.4402 105.63 90.4402 105.78C90.4402 105.85 90.4402 105.92 90.4502 106C90.4602 106.08 90.4502 106.15 90.4802 106.22C90.5002 106.28 90.5402 106.35 90.5702 106.41C90.6002 106.47 90.6602 106.53 90.7202 106.56C90.8002 106.61 90.8902 106.62 90.9902 106.61C91.0702 106.6 91.1302 106.57 91.1902 106.53C91.2702 106.47 91.3102 106.4 91.3402 106.31C91.3502 106.28 91.3602 106.25 91.3702 106.22C91.3902 106.16 91.3902 106.08 91.3902 106.02C91.3902 105.96 91.3902 105.89 91.3902 105.82C91.3902 105.69 91.3802 105.56 91.3702 105.42C91.3702 105.16 91.3602 104.89 91.3602 104.63C91.3602 104.1 91.3802 103.58 91.4102 103.05C91.4102 102.91 91.4202 102.76 91.4302 102.62C91.4302 102.55 91.4302 102.48 91.4402 102.4C91.4402 102.29 91.4602 102.19 91.4402 102.08L90.8602 102.53C90.9102 102.56 90.9702 102.58 91.0202 102.61L90.9502 102.56C91.1802 102.77 91.3702 103.02 91.5602 103.26L91.5002 103.19C91.5502 103.25 91.5902 103.31 91.6402 103.37L91.5802 103.3C91.6702 103.43 91.7702 103.55 91.8602 103.68C91.9502 103.81 92.0402 103.94 92.1302 104.06C92.3202 104.31 92.5002 104.57 92.6802 104.83C92.7802 104.98 92.8802 105.13 92.9802 105.28C93.0802 105.43 93.2302 105.53 93.4102 105.53C93.5902 105.53 93.7502 105.44 93.8402 105.28C94.0202 104.96 94.1802 104.63 94.3502 104.31C94.5202 103.99 94.6902 103.66 94.8602 103.34C94.9602 103.16 95.0502 102.98 95.1502 102.79C95.2102 102.67 95.2402 102.54 95.2002 102.4C95.1702 102.28 95.0802 102.16 94.9702 102.1C94.8502 102.04 94.7102 102.01 94.5802 102.05C94.4602 102.09 94.3402 102.16 94.2802 102.28L94.2902 102.29Z" fill="#4F0200"/>
<g opacity="0.61" style="mix-blend-mode:multiply">
<path d="M71.83 121.65C71.21 125.61 66.5 128.15 61.3 127.34C56.1 126.53 52.39 122.66 53.01 118.71C53.63 114.75 58.34 112.21 63.54 113.02C68.74 113.83 72.45 117.7 71.83 121.65Z" fill="#FCA691"/>
</g>
<g opacity="0.61" style="mix-blend-mode:multiply">
<path d="M135.52 116.72C136.33 120.64 132.82 124.68 127.67 125.75C122.52 126.82 117.68 124.51 116.87 120.59C116.06 116.67 119.57 112.63 124.72 111.56C129.87 110.49 134.71 112.8 135.52 116.72Z" fill="#FCA691"/>
</g>
</g>
<defs>
<clipPath id="clip0_254_1294">
<rect width="188.32" height="188.32" fill="white"/>
</clipPath>
</defs>
</svg>
