<svg width="189" height="189" viewBox="0 0 189 189" fill="none" xmlns="http://www.w3.org/2000/svg">
<g clip-path="url(#clip0_254_1292)">
<path d="M160.744 160.741C197.515 123.969 197.515 64.3506 160.744 27.5789C123.972 -9.19291 64.3529 -9.19291 27.5812 27.5789C-9.19059 64.3506 -9.19059 123.969 27.5812 160.741C64.3529 197.513 123.972 197.513 160.744 160.741Z" fill="#BCEDF4"/>
<path d="M94.1602 188.32C109.69 188.32 124.33 184.53 137.25 177.87C136.34 173.92 133.64 163.66 128.92 157.42C120.96 146.91 76.8302 143.78 66.6002 155.71C61.2902 161.91 57.3402 174.97 55.9102 180.2C67.6002 185.41 80.5402 188.32 94.1602 188.32Z" fill="#D2580F"/>
<path d="M75.2402 150.61C78.5602 159.87 86.0602 177.74 96.2002 183.23C96.2002 183.23 113.22 170.81 117.93 151.25C105.66 147.48 86.9702 146.78 75.2402 150.62V150.61Z" fill="#F9F1E4"/>
<path d="M99.6601 161.92C99.6601 161.92 94.4801 162.2 94.6101 162C94.6101 162 92.1701 170.97 90.3201 178.48C92.1601 180.46 94.1101 182.12 96.1901 183.24C96.1901 183.24 99.5201 180.81 103.65 176.4C101.86 169.34 99.6601 161.93 99.6601 161.93V161.92Z" fill="#4D2A22"/>
<path d="M101.25 155.09C101.85 155.86 101.68 162.36 100.82 162.71C99.9602 163.05 93.6002 163.64 92.7402 162.78C91.8802 161.92 91.7002 155.27 91.7002 155.27C91.7002 155.27 100.65 154.32 101.25 155.1V155.09Z" fill="#4D2A22"/>
<path d="M97.53 155.07C97.17 154.95 91.14 163.78 88.28 162C85.42 160.22 80.92 150.48 82.95 148.58C84.97 146.68 109.62 146.86 110.05 149.44C110.38 151.45 108.24 163.54 105.15 162.95C102.06 162.36 97.54 155.08 97.54 155.08L97.53 155.07Z" fill="#F7FFFA"/>
<path d="M65.5301 157.07C65.2501 157.45 64.9801 157.85 64.7101 158.27C64.6701 158.34 64.6301 158.41 64.5801 158.47C64.3401 158.85 64.1001 159.24 63.8601 159.65C63.8101 159.74 63.7501 159.83 63.7001 159.92C63.4401 160.37 63.1901 160.83 62.9501 161.29C62.8901 161.4 62.8401 161.51 62.7801 161.61C62.5601 162.04 62.3401 162.47 62.1301 162.92C62.1001 162.99 62.0601 163.06 62.0301 163.13C61.8001 163.62 61.5701 164.12 61.3401 164.62C61.2801 164.75 61.2201 164.88 61.1701 165.01C60.9501 165.51 60.7301 166.01 60.5201 166.52C60.5001 166.57 60.4801 166.63 60.4501 166.68C60.2501 167.15 60.0601 167.63 59.8801 168.1C59.8301 168.23 59.7801 168.35 59.7301 168.48C59.5401 168.98 59.3501 169.48 59.1601 169.97C59.1201 170.07 59.0901 170.17 59.0501 170.28C58.8901 170.72 58.7301 171.16 58.5801 171.59C58.5501 171.69 58.5101 171.78 58.4801 171.88C58.3101 172.37 58.1501 172.85 57.9901 173.32C57.9501 173.43 57.9201 173.54 57.8801 173.65C57.7301 174.1 57.5901 174.55 57.4501 174.98C57.4501 175.01 57.4301 175.03 57.4201 175.06C57.2701 175.52 57.1301 175.97 57.0001 176.4C56.9701 176.49 56.9501 176.57 56.9201 176.66C56.7901 177.09 56.6701 177.5 56.5501 177.9C56.5501 177.9 56.5501 177.92 56.5501 177.93C56.4301 178.34 56.3201 178.73 56.2101 179.1C56.2101 179.12 56.2001 179.14 56.1901 179.17C56.0801 179.54 55.9901 179.89 55.9001 180.21C60.9001 182.44 66.1401 184.21 71.5501 185.55C71.6801 170.69 69.3201 159.6 67.4301 154.86C67.1301 155.14 66.8401 155.42 66.5901 155.72C66.2901 156.07 66.0001 156.44 65.7101 156.83C65.6501 156.92 65.5801 157 65.5201 157.09L65.5301 157.07Z" fill="#F58345"/>
<path d="M136.83 176.16C136.83 176.16 136.82 176.11 136.81 176.09C136.73 175.78 136.65 175.45 136.56 175.11C136.55 175.06 136.53 175.01 136.52 174.96C136.43 174.62 136.33 174.28 136.23 173.91C136.23 173.9 136.23 173.88 136.22 173.87C136.12 173.51 136.01 173.14 135.9 172.77C135.87 172.68 135.85 172.59 135.82 172.51C135.71 172.13 135.59 171.75 135.46 171.35C135.44 171.3 135.43 171.24 135.41 171.19C135.3 170.84 135.18 170.48 135.06 170.12C135.03 170.02 134.99 169.92 134.96 169.82C134.83 169.42 134.68 169.02 134.54 168.61C134.51 168.52 134.47 168.42 134.44 168.33C134.31 167.96 134.17 167.59 134.02 167.21C133.99 167.14 133.97 167.07 133.94 167C133.78 166.59 133.61 166.17 133.44 165.75C133.4 165.64 133.35 165.53 133.3 165.42C133.12 165 132.94 164.57 132.75 164.15C132.73 164.11 132.71 164.07 132.7 164.03C132.52 163.63 132.34 163.24 132.15 162.85C132.1 162.76 132.06 162.66 132.01 162.57C131.81 162.16 131.6 161.75 131.39 161.35C131.35 161.27 131.31 161.2 131.27 161.12C131.07 160.76 130.87 160.4 130.66 160.05C130.62 159.99 130.59 159.92 130.55 159.86C130.32 159.47 130.08 159.1 129.84 158.73C129.79 158.65 129.73 158.57 129.68 158.49C129.43 158.12 129.17 157.75 128.91 157.4C128.64 157.05 128.34 156.71 127.99 156.38C127.93 156.32 127.85 156.26 127.78 156.2C127.48 155.92 127.15 155.64 126.8 155.38C126.75 155.34 126.69 155.3 126.64 155.26C126.24 154.97 125.82 154.68 125.36 154.41C125.34 154.4 125.32 154.39 125.3 154.38C124.8 154.08 124.27 153.79 123.71 153.51C120.72 160.76 121.31 173.98 122.61 183.93C127.69 182.32 132.6 180.29 137.27 177.88C137.16 177.4 137.02 176.82 136.86 176.17L136.83 176.16Z" fill="#F58345"/>
<path d="M100.83 142.02L101.63 151.98L97.5102 156.03L93.4802 152.18L93.0002 141.93L100.83 142.02Z" fill="#FDC59D"/>
<path d="M100.83 142.02L93.0002 141.93L93.3202 148.78L101.4 149.06L100.83 142.02Z" fill="#EEA47D"/>
<path d="M162.23 105.8C161.9 115.35 154.52 122.85 145.77 122.54C137.01 122.23 130.19 114.24 130.52 104.69C130.85 95.1401 138.22 87.6401 146.98 87.9501C155.74 88.2601 162.56 96.2501 162.23 105.8Z" fill="#FDC59D"/>
<path d="M158.98 105.47C158.78 111.1 154.44 115.52 149.27 115.34C144.11 115.16 140.08 110.45 140.28 104.81C140.48 99.1801 144.82 94.7601 149.99 94.9401C155.15 95.1201 159.18 99.8301 158.98 105.47Z" fill="#EEA47D"/>
<path d="M57.0601 100.56C56.7301 110.11 49.3601 117.61 40.6001 117.3C31.8401 116.99 25.0201 109 25.3501 99.4501C25.6901 89.9001 33.0601 82.4001 41.8101 82.7101C50.5701 83.0201 57.3901 91.0101 57.0601 100.56Z" fill="#FDC59D"/>
<path d="M50.2601 100.18C50.0601 105.81 45.7201 110.23 40.5501 110.05C35.3901 109.87 31.3601 105.16 31.5601 99.5201C31.7601 93.8901 36.1001 89.4701 41.2701 89.6501C46.4301 89.8301 50.4601 94.5401 50.2601 100.18Z" fill="#EEA47D"/>
<path d="M105.12 50.3901L86.99 49.7501C37.27 50.7101 44.09 71.1201 43.27 94.4501L43.03 101.42C42.21 124.75 60.46 144.32 83.79 145.14L101.92 145.78C125.25 146.6 144.82 128.35 145.64 105.02L145.88 98.0501C146.7 74.7201 157.82 45.0401 105.12 50.3901Z" fill="#FDC59D"/>
<path d="M109.98 74.5C110.55 74.42 111.14 74.35 111.71 74.34C112.28 74.33 112.86 74.34 113.43 74.36C114 74.38 114.58 74.39 115.15 74.43C115.72 74.47 116.31 74.53 116.89 74.6L116.61 74.56C117.45 74.67 118.28 74.83 119.1 75.02C119.51 75.11 119.91 75.22 120.32 75.34C120.52 75.4 120.72 75.46 120.92 75.52C121.18 75.6 121.42 75.62 121.69 75.57C121.78 75.55 121.87 75.53 121.96 75.51C122.26 75.43 122.5 75.18 122.58 74.89C122.67 74.56 122.56 74.28 122.35 74.03C122.16 73.79 121.94 73.61 121.64 73.51C121.47 73.45 121.29 73.4 121.12 73.35C120.8 73.26 120.47 73.17 120.15 73.09C119.5 72.93 118.84 72.8 118.17 72.69C116.76 72.47 115.33 72.34 113.9 72.35C113.08 72.35 112.24 72.48 111.43 72.59L111.67 72.56C111.03 72.64 110.4 72.72 109.76 72.83C109.57 72.86 109.34 73.06 109.25 73.22C109.16 73.38 109.12 73.57 109.15 73.77C109.17 73.95 109.25 74.14 109.39 74.26C109.54 74.4 109.78 74.54 109.99 74.51L109.98 74.5Z" fill="#4F0200"/>
<path d="M79.21 72.8201C78.58 72.7101 77.94 72.6301 77.3 72.5501L77.54 72.5801C76.8 72.4801 76.06 72.3901 75.31 72.3501C74.64 72.3101 73.96 72.3501 73.29 72.4001C71.87 72.5001 70.44 72.7001 69.05 73.0301C68.68 73.1201 68.31 73.2201 67.94 73.3201C67.77 73.3701 67.59 73.4201 67.42 73.4801C67.19 73.5501 66.98 73.6501 66.8 73.8101C66.73 73.8801 66.67 73.9601 66.61 74.0301C66.41 74.2801 66.29 74.5601 66.38 74.8901C66.46 75.1801 66.7 75.4301 67 75.5101C67.09 75.5301 67.18 75.5501 67.27 75.5701C67.54 75.6201 67.78 75.6001 68.04 75.5201C68.23 75.4601 68.42 75.4001 68.61 75.3501C69.02 75.2301 69.43 75.1201 69.85 75.0301C70.67 74.8401 71.5 74.6801 72.34 74.5701L72.06 74.6101C72.64 74.5301 73.22 74.4701 73.8 74.4401C74.38 74.4101 74.95 74.4001 75.52 74.3701C76.09 74.3401 76.67 74.3401 77.24 74.3501C77.81 74.3601 78.4 74.4401 78.97 74.5101C79.16 74.5401 79.45 74.4001 79.57 74.2601C79.69 74.1201 79.78 73.9601 79.81 73.7701C79.86 73.3801 79.62 72.9001 79.2 72.8301L79.21 72.8201Z" fill="#4F0200"/>
<path d="M155.82 37.0801C141.01 15.0501 112.68 18.0501 106.66 18.9701C105.44 12.9401 102.2 6.60006 93.99 6.37006C78.21 5.94006 55.61 27.2701 44.52 31.1001C34.84 34.4501 26.02 46.9001 25.33 60.9501C24.48 78.4301 39.19 109.11 44.09 104.87C46.15 103.09 45.73 94.4601 46.29 83.7801C48.41 72.4801 49.73 60.5601 56.03 57.1101C57.31 56.4101 58.64 55.8501 60.02 55.4101C71.38 66.9101 86.31 58.3901 86.31 58.3901L71.38 70.3301C92.7 72.0401 98.67 60.5201 98.67 60.5201C96.96 65.6401 84.6 74.5901 84.6 74.5901C103.7 70.9401 110.03 59.8901 112.13 52.7701C118.77 51.6001 123.69 51.2201 130.66 54.1201C146.01 60.5201 142.95 104.61 145.38 104.61C147.81 104.61 146.1 88.7801 155.66 90.6501C155.66 90.6501 156.82 84.0701 156.78 75.0601C161.68 66.0501 165.78 51.8601 155.82 37.0601V37.0801Z" fill="#6C4B41"/>
<path d="M72.9001 38.2201C76.1101 40.4901 69.6901 45.2101 66.4801 44.0801C63.2701 42.9501 69.6901 35.9601 72.9001 38.2201Z" fill="#7C5850"/>
<path d="M69.78 29.4301C73.1 33.5001 63.65 40.8501 58.64 38.0601C53.63 35.2701 66.36 25.2301 69.78 29.4301Z" fill="#7C5850"/>
<path d="M83.8 115.2C89.23 114.92 94.66 114.72 100.09 114.63C100.85 114.62 101.61 114.61 102.37 114.6C102.75 114.6 103.13 114.59 103.51 114.58C103.89 114.57 104.29 114.58 104.68 114.51C104.97 114.45 104.98 113.97 104.68 113.92C104.02 113.8 103.3 113.88 102.63 113.89C101.96 113.9 101.28 113.92 100.61 113.94C99.25 113.98 97.88 114.02 96.52 114.07C93.81 114.17 91.1 114.27 88.4 114.4C86.87 114.47 85.33 114.55 83.8 114.64C83.44 114.66 83.44 115.22 83.8 115.2Z" fill="#4F0200"/>
<path d="M91.2299 118.59H96.6099C96.8599 118.6 97.1099 118.6 97.3599 118.6H97.7399C97.8899 118.6 98.0299 118.6 98.1699 118.58C98.4399 118.52 98.4399 118.09 98.1699 118.03C97.9399 117.98 97.6799 118 97.4399 118.01H96.7699C96.3199 118.01 95.8699 118.01 95.4199 118.01H92.7399C92.2299 118.01 91.7299 118.01 91.2199 118.01C91.0699 118.01 90.9299 118.14 90.9299 118.3C90.9299 118.46 91.0599 118.58 91.2199 118.59H91.2299Z" fill="#4F0200"/>
<path d="M113.53 112.65C119.4 112.65 124.15 107.88 124.15 102.01V96.38C124.14 90.51 119.37 85.76 113.5 85.77C107.63 85.77 102.88 90.54 102.88 96.41V102.04C102.89 107.91 107.66 112.66 113.53 112.65Z" fill="#F7FFFA"/>
<path d="M102.88 96.41C102.88 93.23 104.27 90.39 106.48 88.44C107.32 88.14 108.2 87.96 109.12 87.96C114.3 87.96 118.5 93.13 118.51 99.51C118.51 105.9 114.33 111.08 109.15 111.09C108.68 111.09 108.22 111.03 107.77 110.95C104.84 109.06 102.89 105.78 102.89 102.03V96.4L102.88 96.41Z" fill="#6C4B41"/>
<path d="M73.9101 112.65C68.0401 112.73 63.2201 108.04 63.1301 102.17L63.0501 96.54C62.9701 90.67 67.6601 85.85 73.5301 85.76C79.4001 85.68 84.2201 90.37 84.3101 96.24L84.3901 101.87C84.4701 107.74 79.7801 112.56 73.9101 112.65Z" fill="#F7FFFA"/>
<path d="M84.31 96.24C84.27 93.06 82.82 90.24 80.59 88.33C79.75 88.04 78.86 87.88 77.94 87.89C72.76 87.96 68.64 93.2 68.73 99.59C68.82 105.98 73.09 111.1 78.27 111.02C78.74 111.02 79.2 110.95 79.65 110.86C82.55 108.93 84.45 105.61 84.4 101.87L84.32 96.24H84.31Z" fill="#6C4B41"/>
<path d="M152.6 82.3101C147.67 80.3401 114.42 70.8801 97.8001 89.2001C97.8001 89.2001 97.6701 89.9201 97.5501 91.1401C95.2801 90.7701 93.2201 90.8001 91.7701 90.9301C91.7101 90.4101 91.6601 90.1201 91.6601 90.1201C77.7901 69.5801 41.3301 80.3401 36.4001 82.3101C31.4701 84.2801 31.2301 88.9601 33.2001 92.9001C35.1701 96.8401 40.5901 94.6201 40.5901 94.6201C39.6001 116.55 47.5201 123.52 68.1801 122.46C88.8001 121.4 91.9301 105.3 92.0401 96.2201C94.2101 95.7201 96.0201 95.8101 97.3301 96.0501C97.4301 105.48 100.6 121.42 120.82 122.46C141.49 123.52 149.4 116.55 148.41 94.6201C148.41 94.6201 153.83 96.8401 155.8 92.9001C157.77 88.9601 157.52 84.2801 152.6 82.3101ZM58.0801 117.29C41.5701 113.35 44.4601 86.8501 44.4601 86.8501C74.5801 77.3401 87.4901 90.1501 87.4901 90.1501C88.9701 111.09 74.5901 121.23 58.0901 117.28L58.0801 117.29ZM130.92 117.29C114.41 121.23 100.04 111.1 101.52 90.1601C101.52 90.1601 114.43 77.3501 144.55 86.8601C144.55 86.8601 147.44 113.35 130.93 117.3L130.92 117.29Z" fill="#4D2A22"/>
<path d="M95.59 100.99C95.25 101.64 94.91 102.28 94.58 102.93C94.48 103.11 94.38 103.29 94.3 103.48L95.08 103.38C94.8 103.02 94.51 102.67 94.21 102.33C93.91 101.99 93.59 101.67 93.26 101.36C93.08 101.18 92.89 101 92.73 100.8L92.78 100.87C92.76 100.81 92.73 100.76 92.7 100.7C92.64 100.58 92.49 100.5 92.36 100.5C92.23 100.5 92.08 100.57 92.02 100.7C91.95 100.84 91.94 101.02 91.92 101.17C91.9 101.32 91.88 101.49 91.86 101.65C91.83 101.92 91.8 102.18 91.78 102.45C91.75 102.98 91.74 103.5 91.74 104.03C91.74 104.18 91.74 104.33 91.74 104.48C91.74 104.55 91.74 104.62 91.75 104.7C91.76 104.78 91.75 104.85 91.78 104.92C91.8 104.98 91.84 105.05 91.87 105.11C91.9 105.17 91.96 105.23 92.02 105.26C92.1 105.31 92.19 105.32 92.29 105.31C92.37 105.3 92.43 105.27 92.49 105.23C92.57 105.17 92.61 105.1 92.64 105.01C92.65 104.98 92.66 104.95 92.67 104.92C92.69 104.86 92.69 104.78 92.69 104.72C92.69 104.66 92.69 104.59 92.69 104.52C92.69 104.39 92.68 104.26 92.67 104.12C92.67 103.86 92.66 103.59 92.66 103.33C92.66 102.8 92.68 102.28 92.71 101.75C92.71 101.61 92.72 101.46 92.73 101.32C92.73 101.25 92.73 101.18 92.74 101.1C92.74 100.99 92.76 100.89 92.74 100.78L92.16 101.23C92.21 101.26 92.27 101.28 92.32 101.31L92.25 101.26C92.48 101.47 92.67 101.72 92.86 101.96L92.8 101.89C92.85 101.95 92.89 102.01 92.94 102.07L92.88 102C92.97 102.13 93.07 102.25 93.16 102.38C93.25 102.51 93.34 102.64 93.43 102.76C93.62 103.01 93.8 103.27 93.98 103.53C94.08 103.68 94.18 103.83 94.28 103.98C94.38 104.13 94.53 104.23 94.71 104.23C94.89 104.23 95.05 104.14 95.14 103.98C95.32 103.66 95.48 103.33 95.65 103.01C95.82 102.69 95.99 102.36 96.16 102.04C96.26 101.86 96.35 101.68 96.45 101.49C96.51 101.37 96.54 101.24 96.5 101.1C96.47 100.98 96.38 100.86 96.27 100.8C96.15 100.74 96.01 100.71 95.88 100.75C95.76 100.79 95.64 100.86 95.58 100.98L95.59 100.99Z" fill="#4F0200"/>
<g opacity="0.61" style="mix-blend-mode:multiply">
<path d="M73.6701 122.44C73.0501 126.4 68.3401 128.94 63.1401 128.13C57.9401 127.32 54.2301 123.45 54.8501 119.5C55.4701 115.54 60.1801 113 65.3801 113.81C70.5801 114.62 74.2901 118.49 73.6701 122.44Z" fill="#FCA691"/>
</g>
<g opacity="0.61" style="mix-blend-mode:multiply">
<path d="M135.25 117.51C136.06 121.43 132.55 125.47 127.4 126.54C122.25 127.61 117.41 125.3 116.6 121.38C115.79 117.46 119.3 113.42 124.45 112.35C129.6 111.28 134.44 113.59 135.25 117.51Z" fill="#FCA691"/>
</g>
</g>
<defs>
<clipPath id="clip0_254_1292">
<rect width="188.32" height="188.32" fill="white"/>
</clipPath>
</defs>
</svg>
