<svg width="189" height="189" viewBox="0 0 189 189" fill="none" xmlns="http://www.w3.org/2000/svg">
<g clip-path="url(#clip0_254_1288)">
<path d="M188.007 101.811C192.232 49.9796 153.64 4.53719 101.808 0.312316C49.9771 -3.91256 4.5346 34.68 0.309725 86.5112C-3.91515 138.342 34.6774 183.785 86.5087 188.01C138.34 192.235 183.782 153.642 188.007 101.811Z" fill="#BCEDF4"/>
<path d="M94.1599 188.32C109.69 188.32 124.33 184.53 137.25 177.87C136.34 173.92 133.64 163.66 128.92 157.42C120.96 146.91 76.8299 143.78 66.5999 155.71C61.2899 161.91 57.3399 174.97 55.9099 180.2C67.5999 185.41 80.5399 188.32 94.1599 188.32Z" fill="#CA2F16"/>
<path d="M94.1599 188.32C98.2199 188.32 102.23 188.05 106.15 187.55C105.55 181.42 99.9299 162.42 99.9299 162.42C99.9299 162.42 94.7499 162.7 94.8799 162.5C94.8799 162.5 89.1699 183.52 88.5999 188.15C90.4399 188.26 92.2899 188.32 94.1599 188.32Z" fill="#2C2C2C"/>
<path d="M101.51 155.59C102.11 156.36 101.94 162.86 101.08 163.2C100.22 163.54 93.86 164.13 93 163.27C92.14 162.41 91.96 155.76 91.96 155.76C91.96 155.76 100.91 154.81 101.51 155.59Z" fill="#2C2C2C"/>
<path d="M97.3 154.82C96.94 154.7 91.81 164 88.96 162.22C86.1 160.44 81.6 150.7 83.63 148.8C85.65 146.9 110.3 147.08 110.73 149.66C111.06 151.67 108.92 163.76 105.83 163.17C102.74 162.57 97.31 154.82 97.31 154.82H97.3Z" fill="#E55041"/>
<path d="M65.5299 157.07C65.2499 157.45 64.9799 157.85 64.7099 158.27C64.6699 158.34 64.6299 158.41 64.5799 158.47C64.3399 158.85 64.0999 159.24 63.8599 159.65C63.8099 159.74 63.7499 159.83 63.6999 159.92C63.4399 160.37 63.1899 160.83 62.9499 161.29C62.8899 161.4 62.8399 161.51 62.7799 161.61C62.5599 162.04 62.3399 162.47 62.1299 162.92C62.0999 162.99 62.0599 163.06 62.0299 163.13C61.7999 163.62 61.5699 164.12 61.3399 164.62C61.2799 164.75 61.2199 164.88 61.1699 165.01C60.9499 165.51 60.7299 166.01 60.5199 166.52C60.4999 166.57 60.4799 166.63 60.4499 166.68C60.2499 167.15 60.0699 167.63 59.8799 168.1C59.8299 168.23 59.7799 168.35 59.7299 168.48C59.5399 168.98 59.3499 169.48 59.1599 169.97C59.1199 170.07 59.0899 170.17 59.0499 170.28C58.8899 170.72 58.7299 171.16 58.5799 171.59C58.5499 171.69 58.5099 171.78 58.4799 171.88C58.3099 172.37 58.1499 172.85 57.9899 173.32C57.9499 173.43 57.9199 173.54 57.8799 173.65C57.7299 174.1 57.5899 174.55 57.4499 174.98C57.4499 175.01 57.4299 175.03 57.4199 175.06C57.2699 175.52 57.1299 175.97 56.9999 176.4C56.9699 176.49 56.9499 176.57 56.9199 176.66C56.7899 177.09 56.6699 177.5 56.5499 177.9C56.5499 177.9 56.5499 177.92 56.5499 177.93C56.4299 178.34 56.3199 178.73 56.2099 179.1C56.2099 179.12 56.1999 179.14 56.1899 179.17C56.0799 179.54 55.9899 179.89 55.8999 180.21C60.8999 182.44 66.1399 184.21 71.5499 185.55C71.6799 170.69 69.3199 159.6 67.4299 154.86C67.1299 155.14 66.8399 155.42 66.5899 155.72C66.2899 156.07 65.9999 156.44 65.7099 156.83C65.6499 156.92 65.5799 157 65.5199 157.09L65.5299 157.07Z" fill="#A90D00"/>
<path d="M136.83 176.16C136.83 176.16 136.82 176.11 136.81 176.09C136.73 175.78 136.65 175.45 136.56 175.11C136.55 175.06 136.53 175.01 136.52 174.96C136.43 174.62 136.33 174.28 136.23 173.91C136.23 173.9 136.23 173.88 136.22 173.87C136.12 173.51 136.01 173.14 135.9 172.77C135.87 172.68 135.85 172.59 135.82 172.51C135.71 172.13 135.59 171.75 135.46 171.35C135.44 171.3 135.43 171.24 135.41 171.19C135.3 170.84 135.18 170.48 135.06 170.12C135.03 170.02 134.99 169.92 134.96 169.82C134.83 169.42 134.69 169.02 134.54 168.61C134.51 168.52 134.47 168.42 134.44 168.33C134.31 167.96 134.17 167.59 134.02 167.21C133.99 167.14 133.97 167.07 133.94 167C133.78 166.59 133.61 166.17 133.44 165.75C133.4 165.64 133.35 165.53 133.3 165.42C133.12 165 132.94 164.57 132.75 164.15C132.73 164.11 132.71 164.07 132.7 164.03C132.52 163.63 132.34 163.24 132.15 162.85C132.1 162.76 132.06 162.66 132.01 162.57C131.81 162.16 131.6 161.75 131.39 161.35C131.35 161.27 131.31 161.2 131.27 161.12C131.07 160.76 130.87 160.4 130.66 160.05C130.62 159.99 130.59 159.92 130.55 159.86C130.32 159.47 130.08 159.1 129.84 158.73C129.79 158.65 129.73 158.57 129.68 158.49C129.43 158.12 129.17 157.75 128.91 157.4C128.64 157.05 128.34 156.71 127.99 156.38C127.93 156.32 127.85 156.26 127.78 156.2C127.48 155.92 127.15 155.64 126.8 155.38C126.75 155.34 126.69 155.3 126.64 155.26C126.24 154.97 125.82 154.68 125.36 154.41C125.34 154.4 125.32 154.39 125.3 154.38C124.8 154.08 124.27 153.79 123.71 153.51C120.72 160.76 121.31 173.98 122.61 183.93C127.69 182.32 132.6 180.29 137.27 177.88C137.16 177.4 137.02 176.82 136.86 176.17L136.83 176.16Z" fill="#A90D00"/>
<path d="M100.83 142.02L101.63 151.98L97.38 154.99L93.48 152.18L93 141.93L100.83 142.02Z" fill="#CC691F"/>
<path d="M100.83 142.02L93 141.93L93.32 148.78L101.4 149.06L100.83 142.02Z" fill="#954714"/>
<path d="M162.23 105.8C161.9 115.35 154.52 122.85 145.77 122.54C137.01 122.23 130.19 114.24 130.52 104.69C130.85 95.14 138.22 87.64 146.98 87.95C155.74 88.26 162.56 96.25 162.23 105.8Z" fill="#CC691F"/>
<path d="M158.98 105.47C158.78 111.1 154.44 115.52 149.27 115.34C144.11 115.16 140.08 110.45 140.28 104.81C140.48 99.18 144.82 94.76 149.99 94.94C155.15 95.12 159.18 99.83 158.98 105.47Z" fill="#954714"/>
<path d="M57.0599 100.56C56.7299 110.11 49.3599 117.61 40.5999 117.3C31.8399 116.99 25.0199 109 25.3499 99.45C25.6899 89.9 33.0599 82.4 41.8099 82.71C50.5699 83.02 57.3899 91.01 57.0599 100.56Z" fill="#CC691F"/>
<path d="M50.2599 100.18C50.0599 105.81 45.7199 110.23 40.5499 110.05C35.3899 109.87 31.3599 105.16 31.5599 99.52C31.7599 93.89 36.0999 89.47 41.2699 89.65C46.4299 89.83 50.4599 94.54 50.2599 100.18Z" fill="#954714"/>
<path d="M106.69 45.39L86.9898 49.76C44.5998 52.63 44.0898 71.13 43.2698 94.46L43.0298 101.43C42.2098 124.76 60.4598 144.33 83.7898 145.15L101.92 145.79C125.25 146.61 144.82 128.36 145.64 105.03L145.88 98.06C146.7 74.73 154.18 46.54 106.69 45.39Z" fill="#CC691F"/>
<path d="M108.25 76.01C108.82 75.93 109.41 75.86 109.98 75.85C110.55 75.84 111.13 75.85 111.7 75.87C112.27 75.89 112.85 75.9 113.42 75.94C113.99 75.98 114.58 76.04 115.16 76.11L114.88 76.07C115.72 76.18 116.55 76.34 117.37 76.53C117.78 76.62 118.18 76.73 118.59 76.85C118.79 76.91 118.99 76.97 119.19 77.03C119.45 77.11 119.69 77.13 119.96 77.08C120.05 77.06 120.14 77.04 120.23 77.02C120.53 76.94 120.77 76.69 120.85 76.4C120.94 76.07 120.83 75.79 120.62 75.54C120.43 75.3 120.21 75.12 119.91 75.02C119.74 74.96 119.56 74.91 119.39 74.86C119.07 74.77 118.74 74.68 118.42 74.6C117.77 74.44 117.11 74.31 116.44 74.2C115.03 73.98 113.6 73.85 112.17 73.86C111.35 73.86 110.51 73.99 109.7 74.1L109.94 74.07C109.3 74.15 108.67 74.23 108.03 74.34C107.84 74.37 107.61 74.57 107.52 74.73C107.43 74.89 107.39 75.08 107.42 75.28C107.44 75.46 107.52 75.65 107.66 75.77C107.81 75.91 108.05 76.05 108.26 76.02L108.25 76.01Z" fill="#4F0200"/>
<path d="M77.19 73.7601C76.4 73.7001 75.6 73.6701 74.8 73.6601C74 73.6501 73.25 73.6701 72.47 73.7601C70.83 73.9601 69.21 74.2801 67.63 74.7901C67.21 74.9301 66.79 75.0701 66.38 75.2301C66.18 75.3101 65.98 75.3901 65.79 75.4701C65.55 75.5701 65.32 75.66 65.14 75.84C65.03 75.95 64.92 76.1201 64.82 76.2601C64.67 76.4901 64.67 76.8001 64.78 77.0501C64.88 77.2801 65.09 77.52 65.35 77.56C65.51 77.58 65.67 77.6101 65.83 77.6201C66.1 77.6401 66.32 77.5401 66.56 77.4401L66.31 77.5501C68.4 76.6701 70.6 76.0601 72.85 75.7601L72.58 75.8001C73.07 75.7301 73.57 75.6801 74.06 75.6101L73.8 75.6501C74.36 75.5701 74.93 75.5101 75.5 75.4801C76.07 75.4501 76.63 75.4601 77.2 75.4801C77.65 75.5001 78.08 75.0701 78.06 74.6201C78.04 74.1301 77.68 73.8001 77.2 73.7601H77.19Z" fill="#4F0200"/>
<path d="M158.65 48.01C154.43 32.2 136.78 29.3 136.78 29.3C136.78 29.3 130.72 14.54 112.01 11.38C91.2099 7.86003 79.5999 17.7 73.5399 20.87C67.4799 24.03 42.1899 17.61 36.9099 31.67C33.4599 40.86 36.3899 46.27 40.3199 49.42C36.2299 58.32 34.2099 69.73 35.0199 84.23C35.0199 84.23 39.4999 86.84 40.3499 92.81C41.5599 101.29 44.9099 102.96 44.9499 92.18C44.9899 80.89 49.5699 65.59 55.6399 59.01C67.2599 65.28 86.0699 56.93 90.1299 54.98C90.2099 54.98 90.2899 54.98 90.3699 54.98L78.5399 63.28C95.1399 65.65 111.48 52.74 111.48 52.74C107.26 57.75 100.15 64.07 100.15 64.07C113.21 64.07 121.5 56.44 124.94 52.46C126.41 52.78 127.89 53.21 129.4 53.8C144.42 59.6 142.96 104.62 145.38 104.62C147.8 104.62 146.1 88.79 155.66 90.66C155.66 90.66 163.51 66.21 158.65 48V48.01Z" fill="#4D2A22"/>
<path d="M72.8998 38.22C76.1098 40.49 69.6898 45.21 66.4798 44.08C63.2698 42.95 69.6898 35.96 72.8998 38.22Z" fill="#6C4B41"/>
<path d="M69.7798 29.43C73.0998 33.5 63.6498 40.85 58.6398 38.06C53.6298 35.28 66.3598 25.23 69.7798 29.43Z" fill="#6C4B41"/>
<path d="M72.8998 38.22C76.1098 40.49 69.6898 45.21 66.4798 44.08C63.2698 42.95 69.6898 35.96 72.8998 38.22Z" fill="#6C4B41"/>
<path d="M69.7798 29.43C73.0998 33.5 63.6498 40.85 58.6398 38.06C53.6298 35.28 66.3598 25.23 69.7798 29.43Z" fill="#6C4B41"/>
<path d="M81.3798 115.83C84.1998 117.46 87.3798 118.37 90.6298 118.62C93.8798 118.87 97.1698 118.45 100.24 117.38C101.11 117.08 101.96 116.73 102.79 116.34C103.19 116.15 103.59 115.95 103.98 115.73C104.39 115.5 104.83 115.28 105.17 114.95C105.4 114.72 105.17 114.25 104.84 114.38C104.46 114.53 104.14 114.75 103.8 114.96C103.46 115.17 103.11 115.36 102.76 115.55C102.07 115.91 101.36 116.24 100.63 116.52C99.1498 117.08 97.6198 117.48 96.0598 117.72C92.9398 118.2 89.7198 118.04 86.6598 117.25C84.9398 116.81 83.2598 116.16 81.6898 115.34C81.3598 115.17 81.0698 115.65 81.3998 115.84L81.3798 115.83Z" fill="#4F0200"/>
<path d="M103.97 114.07C103.97 114.07 104.06 114.07 104.1 114.08H104.02C104.13 114.08 104.24 114.12 104.35 114.16L104.28 114.13C104.4 114.18 104.5 114.24 104.6 114.32L104.54 114.27C104.65 114.35 104.74 114.45 104.83 114.56L104.78 114.5C104.87 114.62 104.94 114.74 105 114.88L104.97 114.81C105.02 114.93 105.05 115.05 105.07 115.18V115.1C105.07 115.21 105.07 115.33 105.07 115.44V115.36C105.07 115.36 105.07 115.4 105.07 115.42C105.07 115.45 105.06 115.48 105.06 115.51C105.06 115.56 105.06 115.59 105.09 115.63C105.11 115.67 105.12 115.69 105.15 115.73L105.21 115.77C105.21 115.77 105.28 115.8 105.31 115.8C105.33 115.8 105.36 115.8 105.38 115.8C105.42 115.8 105.45 115.79 105.48 115.77C105.56 115.73 105.62 115.65 105.64 115.56C105.64 115.51 105.65 115.47 105.66 115.42C105.66 115.38 105.66 115.34 105.67 115.3C105.67 115.19 105.67 115.08 105.65 114.98C105.62 114.79 105.55 114.61 105.46 114.44C105.42 114.37 105.37 114.3 105.32 114.23C105.25 114.14 105.19 114.06 105.11 113.98C104.97 113.85 104.81 113.73 104.64 113.66C104.53 113.61 104.42 113.57 104.31 113.54C104.2 113.51 104.08 113.5 103.96 113.5C103.89 113.5 103.81 113.53 103.76 113.58C103.71 113.63 103.67 113.71 103.68 113.78C103.69 113.85 103.71 113.93 103.76 113.98C103.81 114.03 103.88 114.06 103.96 114.06L103.97 114.07Z" fill="#4F0200"/>
<path d="M81.1699 116.83C81.1599 116.78 81.1499 116.72 81.1399 116.66V116.72C81.1399 116.72 81.1399 116.63 81.1399 116.59C81.1399 116.55 81.1399 116.5 81.1399 116.46V116.53C81.1399 116.39 81.1899 116.25 81.2399 116.12L81.2099 116.2C81.2099 116.2 81.2299 116.14 81.2499 116.12C81.2799 116.07 81.2999 116.01 81.3199 115.96L81.2899 116.04C81.3499 115.9 81.4299 115.77 81.5199 115.65L81.4699 115.72C81.5499 115.62 81.6399 115.52 81.7499 115.44L81.6799 115.5C81.7299 115.46 81.7899 115.43 81.8499 115.41C81.9099 115.39 81.9699 115.35 82.0299 115.33L81.9299 115.37C82.0199 115.33 82.1099 115.31 82.1999 115.29C82.2499 115.28 82.2999 115.25 82.3399 115.21C82.3899 115.18 82.4199 115.14 82.4499 115.09C82.4799 115.04 82.4999 114.99 82.4999 114.93C82.5099 114.87 82.5099 114.82 82.4999 114.76C82.4699 114.66 82.3999 114.56 82.3099 114.51C82.2199 114.46 82.0899 114.43 81.9799 114.47C81.7799 114.54 81.5799 114.63 81.4199 114.77C81.3599 114.82 81.3099 114.87 81.2599 114.92C81.2099 114.97 81.1499 115.02 81.0999 115.08C80.9899 115.21 80.8799 115.36 80.7999 115.52C80.7599 115.61 80.7199 115.7 80.6799 115.8C80.6399 115.9 80.6399 116 80.6299 116.09C80.6299 116.17 80.6199 116.25 80.6299 116.34C80.6299 116.44 80.6499 116.55 80.6699 116.65V116.58C80.6699 116.71 80.6999 116.84 80.7499 116.96C80.7699 117.02 80.7999 117.07 80.8599 117.1C80.9099 117.13 80.9799 117.14 81.0399 117.12C81.1599 117.08 81.2299 116.96 81.1999 116.84L81.1699 116.83Z" fill="#4F0200"/>
<path d="M89.4198 122.39C89.9698 122.59 90.5398 122.77 91.1098 122.86C91.6798 122.95 92.2998 123.02 92.8998 123.04C94.0798 123.08 95.2598 122.94 96.4098 122.65C96.7298 122.57 97.0398 122.48 97.3498 122.37C97.5098 122.32 97.6598 122.26 97.8198 122.2C97.9998 122.13 98.1698 122.06 98.3098 121.93C98.4698 121.79 98.3498 121.51 98.1398 121.51C97.8398 121.51 97.5498 121.66 97.2698 121.74C96.9898 121.82 96.7298 121.9 96.4598 121.97C96.1898 122.04 95.9098 122.09 95.6298 122.14C95.4898 122.16 95.3498 122.19 95.2098 122.21C95.1698 122.21 95.1398 122.21 95.0698 122.23C94.9898 122.24 94.9098 122.25 94.8198 122.26C94.2598 122.32 93.6898 122.34 93.1198 122.34C92.8398 122.34 92.5598 122.33 92.2798 122.31C92.1398 122.3 91.9998 122.29 91.8598 122.27C91.6998 122.25 91.5798 122.24 91.4598 122.22C90.8298 122.13 90.1898 122.02 89.5798 121.86C89.4398 121.82 89.2798 121.91 89.2398 122.05C89.1998 122.2 89.2898 122.34 89.4298 122.39H89.4198Z" fill="#4F0200"/>
<path d="M113.53 112.65C119.4 112.65 124.15 107.88 124.15 102.01V96.38C124.14 90.51 119.37 85.76 113.5 85.77C107.63 85.77 102.88 90.54 102.88 96.41V102.04C102.89 107.91 107.66 112.66 113.53 112.65Z" fill="#F7FFFA"/>
<path d="M102.88 96.41C102.88 93.23 104.27 90.39 106.48 88.44C107.32 88.14 108.2 87.96 109.12 87.96C114.3 87.96 118.5 93.13 118.51 99.51C118.51 105.9 114.33 111.08 109.15 111.09C108.68 111.09 108.22 111.03 107.77 110.95C104.84 109.06 102.89 105.78 102.89 102.03V96.4L102.88 96.41Z" fill="#4D2A22"/>
<path d="M73.9098 112.65C68.0398 112.73 63.2198 108.04 63.1298 102.17L63.0498 96.54C62.9698 90.67 67.6598 85.85 73.5298 85.76C79.3998 85.68 84.2198 90.37 84.3098 96.24L84.3898 101.87C84.4698 107.74 79.7798 112.56 73.9098 112.65Z" fill="#F7FFFA"/>
<path d="M84.3097 96.24C84.2597 93.06 82.8197 90.24 80.5897 88.33C79.7497 88.04 78.8597 87.88 77.9397 87.89C72.7597 87.96 68.6397 93.2 68.7297 99.59C68.8197 105.98 73.0897 111.1 78.2697 111.02C78.7397 111.02 79.1997 110.95 79.6497 110.86C82.5497 108.93 84.4497 105.61 84.3997 101.87L84.3197 96.24H84.3097Z" fill="#4D2A22"/>
<path d="M94.2899 102.29C93.9499 102.94 93.6099 103.58 93.2799 104.23C93.1799 104.41 93.0799 104.59 92.9999 104.78L93.7799 104.68C93.4999 104.32 93.2099 103.97 92.9099 103.63C92.6099 103.29 92.2899 102.97 91.9599 102.66C91.7799 102.48 91.5899 102.3 91.4299 102.1L91.4799 102.17C91.4599 102.11 91.4299 102.06 91.3999 102C91.3399 101.88 91.1899 101.8 91.0599 101.8C90.9299 101.8 90.7799 101.87 90.7199 102C90.6499 102.14 90.6399 102.32 90.6199 102.47C90.5999 102.62 90.5799 102.79 90.5599 102.95C90.5299 103.22 90.4999 103.48 90.4799 103.75C90.4499 104.28 90.4399 104.8 90.4399 105.33C90.4399 105.48 90.4399 105.63 90.4399 105.78C90.4399 105.85 90.4399 105.92 90.4499 106C90.4599 106.08 90.4499 106.15 90.4799 106.22C90.4999 106.28 90.5399 106.35 90.5699 106.41C90.5999 106.47 90.6599 106.53 90.7199 106.56C90.7999 106.61 90.8899 106.62 90.9899 106.61C91.0699 106.6 91.1299 106.57 91.1899 106.53C91.2699 106.47 91.3099 106.4 91.3399 106.31C91.3499 106.28 91.3599 106.25 91.3699 106.22C91.3899 106.16 91.3899 106.08 91.3899 106.02C91.3899 105.96 91.3899 105.89 91.3899 105.82C91.3899 105.69 91.3799 105.56 91.3699 105.42C91.3699 105.16 91.3599 104.89 91.3599 104.63C91.3599 104.1 91.3799 103.58 91.4099 103.05C91.4099 102.91 91.4199 102.76 91.4299 102.62C91.4299 102.55 91.4299 102.48 91.4399 102.4C91.4399 102.29 91.4599 102.19 91.4399 102.08L90.8599 102.53C90.9099 102.56 90.9699 102.58 91.0199 102.61L90.9499 102.56C91.1799 102.77 91.3699 103.02 91.5599 103.26L91.4999 103.19C91.5499 103.25 91.5899 103.31 91.6399 103.37L91.5799 103.3C91.6699 103.43 91.7699 103.55 91.8599 103.68C91.9499 103.81 92.0399 103.94 92.1299 104.06C92.3199 104.31 92.4999 104.57 92.6799 104.83C92.7799 104.98 92.8799 105.13 92.9799 105.28C93.0799 105.43 93.2299 105.53 93.4099 105.53C93.5899 105.53 93.7499 105.44 93.8399 105.28C94.0199 104.96 94.1799 104.63 94.3499 104.31C94.5199 103.99 94.6899 103.66 94.8599 103.34C94.9599 103.16 95.0499 102.98 95.1499 102.79C95.2099 102.67 95.2399 102.54 95.1999 102.4C95.1699 102.28 95.0799 102.16 94.9699 102.1C94.8499 102.04 94.7099 102.01 94.5799 102.05C94.4599 102.09 94.3399 102.16 94.2799 102.28L94.2899 102.29Z" fill="#4F0200"/>
<g opacity="0.61" style="mix-blend-mode:multiply">
<path d="M71.8198 121.65C71.1998 125.61 66.4898 128.15 61.2898 127.34C56.0898 126.53 52.3798 122.66 52.9998 118.71C53.6198 114.75 58.3298 112.21 63.5298 113.02C68.7298 113.83 72.4398 117.7 71.8198 121.65Z" fill="#FCA691"/>
</g>
<g opacity="0.61" style="mix-blend-mode:multiply">
<path d="M135.52 116.72C136.33 120.64 132.82 124.68 127.67 125.75C122.52 126.82 117.68 124.51 116.87 120.59C116.06 116.67 119.57 112.63 124.72 111.56C129.87 110.49 134.71 112.8 135.52 116.72Z" fill="#FCA691"/>
</g>
</g>
<defs>
<clipPath id="clip0_254_1288">
<rect width="188.32" height="188.32" fill="white"/>
</clipPath>
</defs>
</svg>
