<svg width="204" height="208" viewBox="0 0 204 208" fill="none" xmlns="http://www.w3.org/2000/svg">
<g clip-path="url(#clip0_254_1419)">
<path d="M101.76 207.76C157.96 207.76 203.52 161.251 203.52 103.88C203.52 46.5087 157.96 0 101.76 0C45.5595 0 0 46.5087 0 103.88C0 161.251 45.5595 207.76 101.76 207.76Z" fill="#BEDCD9"/>
<path d="M180.89 37.48C181.53 37.54 182.04 38.09 181.86 38.75C179.41 47.2 180.17 56.44 176.54 64.56C173.47 71.38 168.12 76.58 161.45 79.8H161.7C163.91 84.52 165.78 89.31 167.36 93.99C172.1 108.05 176.35 126.03 171.02 140.46C166.54 152.63 156.13 161.58 144.51 166.71C129.51 173.32 112.47 174.12 96.3 173.93C80.27 173.74 63.86 171.58 49.54 163.92C37.26 157.35 27.12 146.73 23.15 133.16C18.86 118.49 24.39 104.99 30.71 91.85C33.13 86.82 35.77 81.52 38.73 76.35C25.76 70.58 28.72 52.09 24.18 41.06C23.9 40.4 24.66 39.95 25.2 40.04C38.75 42.03 57.23 34.48 67.24 46.98C76.51 42.65 87.5 40.66 99.14 40.73C112.24 40.58 124.54 42.18 135.08 48.07C137.36 41.92 142.53 37.16 148.8 35.04C159.3 31.5 170.37 36.71 180.87 37.49L180.89 37.48ZM176.4 58.65C177.05 56.15 179.59 41.89 179.4 39.26C175.27 38.47 159.17 35.54 154.38 35.95C145.53 36.72 139.61 42.35 135.75 50C135.71 50.08 135.67 50.12 135.63 50.18V50.69C135.17 50.4 134.73 50.11 134.26 49.85C132.57 48.88 130.98 48.05 129.42 47.35C122.84 60.87 117.84 75.01 114.47 89.68C114.33 90.27 113.27 90.34 113.18 89.68C111.11 74.62 110.68 58.27 114.72 43.46C112.66 43.21 110.42 43 107.93 42.82C102.26 62.64 101.57 83.02 101.15 103.5C101.14 104.3 99.99 104.45 99.77 103.69C94.07 84.37 90.45 62.91 90.34 42.69C89 42.83 87.64 43.01 86.3 43.24C85.47 56.92 87.85 69.47 91.4 82.69C91.55 83.27 90.78 83.8 90.35 83.3C81.36 72.94 72.52 62.03 68.87 48.59C68.66 48.69 68.44 48.78 68.22 48.89C67.99 49.6 66.82 49.95 66.26 49.14C61.39 42.1 52.85 40.97 44.89 41.38C41.54 41.56 29.76 42.8 26.14 41.34C26.71 43.41 29.09 56.95 29.49 59.21C30.75 66.21 33.65 72.5 40.29 75.64H41.44C40.65 76.94 39.88 78.25 39.13 79.57C42.59 80.95 45.53 83.3 48.12 85.96C48.44 86.28 48.34 87.01 47.82 87.08C43.21 87.73 38.62 88.3 34.06 89.2C32.03 93.33 30.16 97.5 28.43 101.6C32.7 103.2 36.7 105.49 40.64 107.74C41.17 108.03 40.88 108.71 40.36 108.76C34.97 109.42 29.79 110.67 24.82 112.87C23.82 117.56 23.51 122.2 24 126.81C28.04 125.98 32.15 126.06 36.21 126.66C36.68 126.73 36.85 127.45 36.49 127.75C33.1 130.59 29.84 133.49 26.93 136.82C26.82 136.94 26.69 137.01 26.57 137.06C27.57 139.55 28.82 142.01 30.4 144.44C38.17 156.43 51.12 164.08 64.61 167.99C78.88 172.11 94.05 172.5 108.79 171.86C123.53 171.24 139.26 169.08 151.76 160.6C161.87 153.74 168.71 144.21 170.62 132.71C170.61 132.7 170.58 132.7 170.56 132.68C167.48 128.99 163.95 126.21 159.34 124.63C158.68 124.41 158.66 123.47 159.34 123.26C162.84 122.17 167.67 121.66 171.08 123.54C170.9 120 170.53 116.47 169.97 112.95C165.24 110.31 160.77 107.5 155.73 105.43C155.05 105.15 154.98 104.23 155.73 103.96C159.59 102.67 163.92 102.08 167.9 103.07C167.22 100.43 166.45 97.83 165.59 95.24C160.13 92.38 154.4 90.47 148.32 89.49C147.77 89.41 147.75 88.6 148.17 88.36C152 86.06 156.92 84.1 161.52 84.72C161.09 83.74 160.65 82.76 160.19 81.8C159.87 81.12 159.54 80.44 159.21 79.77H159.74C159.23 79.3 159.09 78.41 159.91 78.04C168.17 74.13 174.1 67.54 176.39 58.62L176.4 58.65ZM170.89 130.87C171.13 128.84 171.22 126.75 171.15 124.59C169.53 124.34 167.96 123.88 166.31 123.79C164.82 123.69 163.34 123.83 161.88 124.12C165.36 125.64 168.5 127.9 170.88 130.87H170.89ZM169.7 111.21C169.29 108.9 168.8 106.59 168.23 104.3C164.81 104.22 161.58 104.23 158.26 104.94C162.22 106.72 166.17 108.72 169.7 111.22V111.21ZM165.06 93.66C164.12 90.98 163.08 88.34 161.96 85.74C157.83 86.38 154.12 86.79 150.36 88.64C155.49 89.62 160.39 91.31 165.06 93.66ZM120.64 63.91C122.81 58.06 125.29 52.35 127.96 46.72C124.09 45.12 120.28 44.2 115.57 43.58C114.63 51.03 113.39 58.41 113.15 65.94C113.03 69.88 113.08 73.82 113.3 77.75C113.4 79.49 113.62 81.24 113.7 82.98C113.77 84.29 112.9 88.06 114.05 85.64C115.56 82.45 115.97 78.1 117.01 74.67C118.12 71.05 119.33 67.47 120.65 63.91H120.64ZM106.48 42.72C104.82 42.61 103.05 42.5 101.16 42.39C97.94 42.2 94.6 42.29 91.24 42.61C94.43 61.35 95.11 80.1 99.83 98.56C100.19 79.75 101.06 60.83 106.48 42.72ZM89.28 79.97C89.24 79.79 89.2 79.58 89.2 79.29C89.09 73.16 85.91 66.29 85.12 60.08C84.41 54.52 84.26 48.95 85.23 43.44C80.15 44.37 75.11 45.86 70.38 47.92C72.23 54.82 75.29 61.15 79.26 67.09C81.38 70.24 83.71 73.24 86.09 76.2C86.95 77.25 87.93 79.01 89.04 79.77C89.15 79.84 89.21 79.91 89.29 79.96L89.28 79.97ZM46.13 85.76C44 83.48 41.51 81.76 38.81 80.15C37.52 82.42 36.29 84.74 35.12 87.06C38.73 86.3 42.44 85.77 46.13 85.76ZM38.4 107.75C35.04 105.81 31.57 104.11 28.19 102.22C27.03 105.04 26.06 107.88 25.34 110.68C29.53 109.03 33.9 108 38.39 107.75H38.4ZM34.32 127.73C30.9 127.27 27.56 127.32 24.1 127.61C24.45 130.2 25.04 132.77 25.93 135.31C28.47 132.5 31.24 129.92 34.32 127.73Z" fill="#222221"/>
<path d="M179.41 39.27C179.6 41.9 177.06 56.16 176.41 58.66C174.11 67.58 168.18 74.16 159.93 78.08C159.11 78.45 159.25 79.34 159.76 79.81H159.23C159.56 80.49 159.89 81.17 160.21 81.84C160.67 82.79 161.11 83.78 161.54 84.76C156.95 84.14 152.03 86.1 148.19 88.4C147.78 88.65 147.79 89.45 148.34 89.53C154.42 90.51 160.15 92.42 165.61 95.28C166.47 97.87 167.24 100.47 167.92 103.11C163.94 102.11 159.61 102.71 155.75 104C155 104.26 155.07 105.19 155.75 105.47C160.8 107.54 165.26 110.35 169.99 112.99C170.54 116.52 170.92 120.04 171.1 123.58C167.68 121.7 162.86 122.21 159.36 123.3C158.68 123.51 158.7 124.45 159.36 124.67C163.97 126.25 167.49 129.03 170.58 132.72C170.59 132.73 170.62 132.73 170.64 132.75C168.73 144.26 161.89 153.78 151.78 160.64C139.28 169.12 123.55 171.27 108.81 171.9C94.0699 172.54 78.8999 172.15 64.6299 168.03C51.1299 164.12 38.1899 156.47 30.4199 144.48C28.8399 142.05 27.5899 139.58 26.5899 137.1C26.7099 137.06 26.8399 136.99 26.9499 136.86C29.8499 133.53 33.1199 130.62 36.5099 127.79C36.8699 127.49 36.6999 126.77 36.2299 126.7C32.1599 126.11 28.0599 126.02 24.0199 126.85C23.5199 122.24 23.8399 117.6 24.8399 112.91C29.8199 110.71 34.9899 109.47 40.3799 108.8C40.8899 108.74 41.1799 108.07 40.6599 107.78C36.7199 105.53 32.7199 103.24 28.4499 101.64C30.1799 97.53 32.0499 93.37 34.0799 89.24C38.6399 88.34 43.2299 87.77 47.8399 87.12C48.3699 87.05 48.4599 86.32 48.1399 86C45.5499 83.34 42.6099 80.99 39.1499 79.61C39.8999 78.3 40.6699 76.98 41.4599 75.68H40.3099C33.6699 72.54 30.7699 66.25 29.5099 59.25C29.1099 57 26.7299 43.46 26.1599 41.38C29.7799 42.85 41.5699 41.6 44.9099 41.42C52.8599 41.01 61.4099 42.14 66.2799 49.18C66.8499 50 68.0099 49.64 68.2399 48.93C68.4599 48.82 68.6799 48.72 68.8899 48.63C72.5399 62.07 81.3799 72.98 90.3699 83.34C90.7999 83.84 91.5699 83.31 91.4199 82.73C87.8699 69.51 85.4899 56.95 86.3199 43.28C87.6599 43.04 89.0199 42.87 90.3599 42.73C90.4699 62.95 94.0899 84.41 99.7899 103.73C100.01 104.49 101.16 104.34 101.17 103.54C101.58 83.06 102.28 62.67 107.95 42.86C110.44 43.04 112.68 43.25 114.74 43.5C110.7 58.31 111.13 74.66 113.2 89.72C113.28 90.38 114.35 90.31 114.49 89.72C117.86 75.05 122.86 60.91 129.44 47.39C131 48.1 132.59 48.92 134.28 49.89C134.75 50.15 135.19 50.44 135.65 50.73V50.22C135.69 50.16 135.73 50.12 135.77 50.04C139.63 42.39 145.55 36.76 154.4 35.99C159.18 35.58 175.28 38.51 179.42 39.3L179.41 39.27Z" fill="#F0C95D"/>
<path d="M171.15 124.59C171.22 126.75 171.12 128.84 170.89 130.87C168.51 127.9 165.37 125.64 161.89 124.12C163.34 123.83 164.82 123.69 166.32 123.79C167.97 123.89 169.54 124.34 171.16 124.59H171.15Z" fill="#E17E45"/>
<path d="M168.23 104.29C168.8 106.59 169.28 108.9 169.7 111.2C166.17 108.7 162.22 106.71 158.26 104.92C161.58 104.21 164.82 104.2 168.23 104.28V104.29Z" fill="#E17E45"/>
<path d="M161.97 85.73C163.09 88.33 164.13 90.97 165.07 93.65C160.4 91.3 155.5 89.61 150.37 88.63C154.13 86.78 157.84 86.36 161.97 85.73Z" fill="#E17E45"/>
<path d="M127.96 46.72C125.29 52.35 122.82 58.06 120.64 63.91C119.33 67.46 118.11 71.05 117 74.67C115.96 78.1 115.55 82.44 114.04 85.64C112.89 88.06 113.76 84.3 113.69 82.98C113.61 81.24 113.39 79.5 113.29 77.75C113.07 73.82 113.01 69.88 113.14 65.94C113.38 58.4 114.62 51.03 115.56 43.58C120.28 44.2 124.08 45.11 127.95 46.72H127.96Z" fill="#E17E45"/>
<path d="M101.16 42.39C103.05 42.5 104.82 42.61 106.48 42.72C101.06 60.84 100.19 79.75 99.83 98.56C95.11 80.1 94.44 61.35 91.24 42.61C94.6 42.29 97.93 42.2 101.16 42.39Z" fill="#E17E45"/>
<path d="M89.1999 79.29C89.1999 79.58 89.2399 79.79 89.2799 79.97C89.1999 79.91 89.1399 79.85 89.0299 79.78C87.9199 79.02 86.9399 77.26 86.0799 76.21C83.6999 73.25 81.3599 70.25 79.2499 67.1C75.2799 61.17 72.2199 54.83 70.3699 47.93C75.0999 45.87 80.1499 44.38 85.2199 43.45C84.2499 48.95 84.3999 54.53 85.1099 60.09C85.8999 66.3 89.0799 73.17 89.1899 79.3L89.1999 79.29Z" fill="#E17E45"/>
<path d="M38.8199 80.14C41.5199 81.76 44.0099 83.47 46.1399 85.75C42.4499 85.76 38.7399 86.29 35.1299 87.05C36.3099 84.73 37.5399 82.4 38.8199 80.14Z" fill="#E17E45"/>
<path d="M28.1999 102.22C31.5699 104.11 35.0499 105.82 38.4099 107.75C33.9199 108 29.5499 109.04 25.3599 110.68C26.0799 107.87 27.0499 105.04 28.2099 102.22H28.1999Z" fill="#E17E45"/>
<path d="M24.1001 127.61C27.5601 127.32 30.9001 127.28 34.3201 127.73C31.2401 129.92 28.4701 132.5 25.9301 135.31C25.0501 132.77 24.4501 130.19 24.1001 127.61Z" fill="#E17E45"/>
<g opacity="0.4" style="mix-blend-mode:multiply">
<path d="M108.12 49.85C109.78 50.27 111.4 50.81 113 51.41C113.45 48.73 114.01 46.07 114.72 43.47C112.66 43.22 110.42 43.01 107.93 42.83C107.3 45.03 106.74 47.23 106.23 49.44C106.86 49.56 107.49 49.69 108.11 49.85H108.12Z" fill="#F0C95D"/>
</g>
<g opacity="0.4" style="mix-blend-mode:multiply">
<path d="M90.51 49.34C90.42 47.12 90.36 44.91 90.34 42.71C89 42.85 87.64 43.03 86.3 43.26C86.16 45.57 86.14 47.84 86.17 50.09C87.6 49.78 89.05 49.52 90.5 49.33L90.51 49.34Z" fill="#F0C95D"/>
</g>
<g opacity="0.4" style="mix-blend-mode:multiply">
<path d="M35.3599 45.58C38.8799 45.05 42.3799 44.55 45.9499 44.88C48.9899 45.16 51.9399 45.94 54.7399 47.16C60.1799 49.54 64.7299 53.54 68.3099 58.22C69.3499 57.44 70.4099 56.71 71.5099 56.01C70.4699 53.62 69.5899 51.15 68.8899 48.59C68.6799 48.69 68.4599 48.78 68.2399 48.89C68.0099 49.6 66.8399 49.95 66.2799 49.14C61.4099 42.1 52.8699 40.97 44.9099 41.38C41.5599 41.56 29.7799 42.8 26.1599 41.34C26.3399 42 26.7099 43.85 27.1399 46.11C29.8699 46.29 32.6199 45.97 35.3699 45.55L35.3599 45.58Z" fill="#F0C95D"/>
</g>
<g opacity="0.4" style="mix-blend-mode:multiply">
<path d="M179.41 39.27C175.27 38.48 159.18 35.55 154.39 35.96C145.54 36.73 139.62 42.36 135.76 50.01C135.72 50.09 135.68 50.13 135.64 50.19V50.7C135.18 50.41 134.74 50.12 134.27 49.86C132.58 48.89 130.99 48.06 129.43 47.36C127.97 50.35 126.61 53.38 125.31 56.43C127.65 57.28 130.03 57.99 132.51 58.4C133.52 55.16 134.87 52 136.79 49.2C140.25 44.15 145.97 39.98 152.31 40.03C159.16 40.08 165.34 44.98 172.29 43.32C172.7 43.22 173.2 43.52 173.17 43.99C172.91 47.55 172.45 51.1 171.69 54.59C170.43 60.36 168.39 66.68 163.74 70.61C159.79 73.95 154.71 75.46 150.62 78.58C150.97 79.11 151.33 79.64 151.66 80.19C152.68 81.91 153.55 83.72 154.31 85.57C156.68 84.81 159.16 84.42 161.55 84.75C161.12 83.77 160.68 82.79 160.22 81.83C159.9 81.15 159.57 80.47 159.24 79.8H159.77C159.26 79.33 159.12 78.44 159.94 78.07C168.2 74.16 174.13 67.57 176.42 58.65C177.07 56.15 179.61 41.89 179.42 39.26L179.41 39.27Z" fill="#F0C95D"/>
</g>
<g opacity="0.4" style="mix-blend-mode:multiply">
<path d="M159.37 123.29C162.87 122.2 167.7 121.69 171.11 123.57C170.93 120.03 170.56 116.5 170 112.98C166.1 110.8 162.36 108.53 158.34 106.63C158.5 112.63 157.97 118.66 156.91 124.56C155.49 132.46 153.09 140.21 149.64 147.46C146.56 153.92 142.58 160.13 137.31 165.02C135.78 166.44 134.13 167.73 132.4 168.89C139.28 167.2 145.88 164.62 151.77 160.63C161.88 153.77 168.72 144.24 170.63 132.74C170.62 132.73 170.59 132.73 170.57 132.71C167.49 129.02 163.96 126.24 159.35 124.66C158.69 124.44 158.67 123.5 159.35 123.29H159.37Z" fill="#F0C95D"/>
</g>
<g opacity="0.4" style="mix-blend-mode:multiply">
<path d="M167.93 103.1C167.25 100.46 166.48 97.86 165.62 95.27C162.58 93.68 159.46 92.39 156.24 91.38C157.06 94.46 157.62 97.61 157.96 100.76C158.05 101.6 158.12 102.45 158.18 103.29C161.38 102.52 164.76 102.3 167.93 103.09V103.1Z" fill="#F0C95D"/>
</g>
<g opacity="0.4" style="mix-blend-mode:multiply">
<path d="M171.15 124.59C171.22 126.75 171.12 128.84 170.89 130.87C168.51 127.9 165.37 125.64 161.89 124.12C163.34 123.83 164.82 123.69 166.32 123.79C167.97 123.89 169.54 124.34 171.16 124.59H171.15Z" fill="#E17E45"/>
</g>
<g opacity="0.4" style="mix-blend-mode:multiply">
<path d="M158.27 104.93C162.22 106.71 166.17 108.7 169.7 111.2C169.29 108.89 168.8 106.58 168.23 104.29C164.82 104.21 161.58 104.22 158.27 104.92V104.93Z" fill="#E17E45"/>
</g>
<g opacity="0.4" style="mix-blend-mode:multiply">
<path d="M154.86 87.01C155.23 88 155.57 89.01 155.87 90.02C159.02 90.97 162.1 92.16 165.07 93.66C164.13 90.98 163.09 88.34 161.97 85.74C159.48 86.12 157.15 86.43 154.86 87.02V87.01Z" fill="#E17E45"/>
</g>
<g opacity="0.4" style="mix-blend-mode:multiply">
<path d="M123.85 55.88C125.16 52.8 126.53 49.75 127.96 46.72C124.09 45.12 120.28 44.2 115.57 43.58C115.22 46.38 114.82 49.18 114.45 51.97C117.6 53.22 120.69 54.65 123.85 55.88Z" fill="#E17E45"/>
</g>
<g opacity="0.4" style="mix-blend-mode:multiply">
<path d="M94.65 48.92C98.02 48.71 101.41 48.71 104.75 49.19C105.27 47.02 105.84 44.87 106.49 42.72C104.83 42.61 103.06 42.5 101.17 42.39C97.95 42.2 94.61 42.29 91.25 42.61C91.62 44.78 91.95 46.96 92.27 49.13C93.07 49.05 93.86 48.96 94.66 48.92H94.65Z" fill="#E17E45"/>
</g>
<g opacity="0.4" style="mix-blend-mode:multiply">
<path d="M81.1899 51.42C82.2999 51.05 83.4299 50.73 84.5599 50.44C84.6099 48.1 84.8099 45.76 85.2199 43.44C80.1399 44.37 75.0999 45.86 70.3699 47.92C71.0399 50.43 71.8799 52.86 72.8599 55.23C75.4999 53.69 78.2699 52.39 81.1899 51.42Z" fill="#E17E45"/>
</g>
<g opacity="0.4" style="mix-blend-mode:soft-light">
<path d="M42.4301 150.38C37.2101 144.28 33.6001 137.41 32.3901 129.42C31.3301 122.46 33.2501 116.5 33.8201 109.7C33.9301 108.37 32.1001 108.1 31.4601 109.06C23.1501 121.77 31.3601 142.2 41.8101 151C42.2401 151.36 42.8001 150.81 42.4301 150.38Z" fill="white"/>
</g>
<path d="M141.71 146.77C141.81 146.83 141.74 146.98 141.64 146.94C132.78 144.34 123.66 143.63 114.53 145.21C113.15 145.45 112.57 143.33 113.95 143.09C123.59 141.46 132.85 142.54 141.71 146.77Z" fill="#222221"/>
<path d="M131.23 154.96C131.4 155.08 131.26 155.32 131.06 155.24C125.51 152.63 120.05 151.09 113.87 151.09C112.61 151.09 112.63 149.07 113.87 149.14C120.07 149.53 126.15 151.33 131.23 154.96Z" fill="#222221"/>
<path d="M83.8499 149.14C85.0899 149.07 85.1099 151.09 83.8499 151.09C77.6699 151.09 72.2199 152.62 66.6599 155.24C66.4699 155.32 66.3299 155.09 66.4899 154.96C71.5699 151.32 77.6499 149.53 83.8499 149.14Z" fill="#222221"/>
<path d="M83.77 143.1C85.15 143.34 84.57 145.45 83.19 145.22C74.06 143.64 64.96 144.35 56.08 146.95C55.98 146.99 55.91 146.84 56.01 146.78C64.86 142.55 74.13 141.47 83.77 143.1Z" fill="#222221"/>
<path d="M110.86 156.35C111.19 156.14 111.68 156.57 111.43 156.92C109.15 160 104.6 158.91 102.32 156.38C101.02 154.94 100.07 152.89 99.4801 150.71C98.9701 152.94 98.0601 154.98 96.2601 156.49C93.9801 158.41 89.68 158.9 87.96 155.98C87.74 155.58 88.2201 155.03 88.64 155.32C92.18 157.82 95.79 156.3 97.52 152.42C98.47 150.26 98.68 147.91 98.88 145.56C98.89 145.03 98.94 144.51 99.02 144C99.03 143.81 99.0501 143.6 99.0801 143.39C96.3701 142.66 87.5301 137.55 89.9001 133.89C91.1901 131.91 94.8201 132 96.8601 131.84C101.16 131.54 105.38 132.13 109.5 133.33C110.15 133.52 110.47 134.27 110.12 134.87C107.89 138.66 104.57 142.17 100.32 143.61C100.53 146.85 100.53 150.11 101.95 153.14C103.64 156.76 107.3 158.57 110.88 156.36L110.86 156.35ZM99.7 142.37C99.81 142.22 109.91 136.27 108.48 134.17C106.6 132.55 93.7 132.8 91.95 133.71C88.24 135.65 97.6301 140.71 99.6901 142.37H99.7Z" fill="#222221"/>
<path d="M108.48 134.17C109.9 136.27 99.8101 142.22 99.7001 142.37C97.6401 140.71 88.2501 135.65 91.9601 133.71C93.7001 132.8 106.61 132.55 108.49 134.17H108.48Z" fill="#884941"/>
<g opacity="0.4" style="mix-blend-mode:multiply">
<path d="M108.48 134.17C107.61 133.42 104.39 133.08 101 133.01C101.33 134.32 101.38 135.71 101.07 137.16C100.72 138.84 100 140.44 99.0801 141.92C99.3201 142.09 99.5301 142.24 99.6901 142.37C99.8001 142.22 109.9 136.27 108.47 134.17H108.48Z" fill="#884941"/>
</g>
<g opacity="0.4" style="mix-blend-mode:soft-light">
<path d="M95.9701 136.64C95.4001 136.4 94.9301 135.98 94.6301 135.44C94.3601 134.96 94.3301 134.43 93.9801 133.99C93.8301 133.8 93.4701 133.86 93.3701 134.07C92.7301 135.49 94.6201 136.93 95.8101 137.22C96.2001 137.32 96.3201 136.78 95.9701 136.63V136.64Z" fill="white"/>
</g>
<path d="M48.0799 56.39C50.1399 57.61 52.4199 58.27 54.8799 58.17C55.4699 58.14 55.6699 58.97 55.1799 59.26C52.1799 60.99 48.9599 61.97 45.5799 62.3C46.3999 62.51 47.2399 62.66 48.2199 62.73C48.6899 62.77 49.0399 63.26 48.7699 63.71C47.4399 66.02 46.2399 68.37 45.1599 70.82C45.0399 71.12 44.8599 71.43 44.2999 71.26C40.2299 70 37.1399 66.6 35.2399 62.82C32.3899 57.11 33.5899 50.48 30.9499 44.7C30.7599 44.27 30.9799 43.68 31.5299 43.7C42.2199 44.17 54.6199 43.01 61.4799 52.85C62.5299 54.36 52.2999 56.56 48.0499 56.36L48.0799 56.39ZM59.8399 53.35C55.7599 47.87 49.4799 46.06 42.9499 45.49C40.7099 45.3 35.3699 44.41 32.3599 44.67C32.4399 44.67 33.8699 49.75 33.8699 49.75C34.3499 52.53 34.2699 55.39 34.9299 58.14C36.2699 63.82 39.4699 66.96 43.8599 70.31C43.8699 70.24 45.9899 65.9 47.1799 63.88C45.3799 63.6 43.7099 63.13 41.9899 62.34C41.3799 62.06 41.6999 61.12 42.3199 61.12C46.0999 61.15 49.4399 60.41 52.8199 59.02C50.2899 58.54 48.0599 57.71 45.8099 56.14C45.4099 55.86 45.5199 55.12 46.0899 55.14C50.9399 55.43 55.2599 54.64 59.8399 53.33V53.35Z" fill="#222221"/>
<path d="M42.9599 45.49C49.4899 46.06 55.7699 47.87 59.8499 53.35C55.2699 54.66 50.9599 55.45 46.0999 55.16C45.5299 55.13 45.4199 55.88 45.8199 56.16C48.0699 57.72 50.2999 58.55 52.8299 59.04C49.4599 60.44 46.1099 61.17 42.3299 61.14C41.7099 61.14 41.3899 62.08 41.9999 62.36C43.7099 63.15 45.3899 63.62 47.1899 63.9C45.9999 65.92 43.8799 70.26 43.8699 70.33C39.4699 66.98 36.2799 63.84 34.9399 58.16C34.2799 55.41 34.3599 52.55 33.8799 49.77C33.8799 49.77 32.4599 44.69 32.3699 44.69C35.3799 44.43 40.7199 45.31 42.9599 45.51V45.49Z" fill="#EDBA97"/>
<g opacity="0.4" style="mix-blend-mode:multiply">
<path d="M40.5399 46.85C45.3199 47.08 49.5199 49.22 53.3899 51.89C54.4799 52.64 55.5499 53.41 56.6199 54.18C57.6899 53.93 58.7599 53.65 59.8499 53.34C55.7699 47.86 49.4899 46.05 42.9599 45.48C40.7199 45.29 35.3799 44.4 32.3699 44.66C32.4199 44.66 32.8999 46.31 33.3099 47.73C35.6599 47.09 38.0999 46.72 40.5399 46.83V46.85Z" fill="#EDBA97"/>
</g>
<g opacity="0.4" style="mix-blend-mode:soft-light">
<path d="M42.5099 65.88C41.3299 64.1 40.2499 62.18 39.5099 60.16C38.8799 58.43 38.7599 56.56 38.0299 54.86C37.7699 54.25 36.7999 54.45 36.6499 55.04C35.6599 59.1 38.7599 63.98 41.7399 66.46C42.1299 66.79 42.8299 66.36 42.4999 65.87L42.5099 65.88Z" fill="white"/>
</g>
<path d="M176.2 45.12C176.74 45.26 176.95 45.88 176.7 46.35C171.38 56.21 170.96 70.03 159.39 75.13C158.96 75.32 158.2 75.66 157.68 74.51C156.31 71.5 154.36 68.94 152.23 66.42C151.86 65.99 152.08 65.29 152.69 65.29C153.8 65.29 154.89 65.26 155.98 65.23C153.19 63.99 150.71 62.27 148.48 60C148.09 59.6 148.37 58.87 148.94 58.88C150.71 58.94 152.38 58.74 154.04 58.34C149.91 57.58 140.69 54.44 140.96 54.05C149.34 41.48 162.95 41.78 176.21 45.12H176.2ZM169.75 59.62C170.8 56.76 174.83 49.41 174.87 46.48C168.77 44.14 163.47 44 159.38 44.18C152.04 44.53 147.38 48.22 142.61 53.33C147.49 54.44 151.85 56.77 156.91 57.55C157.59 57.66 157.41 58.57 156.91 58.77C154.77 59.61 152.73 60.04 150.53 60.14C153.13 62.46 155.98 64.05 159.41 65.09C160.14 65.31 159.98 66.33 159.24 66.38C157.51 66.49 155.78 66.55 154.05 66.57C155.82 68.77 157.38 71.06 158.77 73.54C164.72 70.8 167.57 65.52 169.75 59.61V59.62Z" fill="#222221"/>
<path d="M174.86 46.49C174.82 49.42 170.79 56.77 169.74 59.63C167.55 65.54 164.71 70.82 158.76 73.56C157.38 71.08 155.81 68.79 154.04 66.59C155.77 66.56 157.5 66.51 159.23 66.4C159.96 66.36 160.13 65.34 159.4 65.11C155.97 64.07 153.12 62.48 150.52 60.16C152.72 60.06 154.75 59.63 156.9 58.79C157.4 58.6 157.58 57.68 156.9 57.57C151.84 56.8 147.48 54.46 142.6 53.35C147.37 48.23 152.03 44.54 159.37 44.2C163.46 44.02 168.76 44.16 174.86 46.5V46.49Z" fill="#EDBA97"/>
<g opacity="0.4" style="mix-blend-mode:multiply">
<path d="M158.78 66.41C157.2 66.5 155.63 66.56 154.05 66.58C154.71 67.41 155.32 68.26 155.93 69.12C157.01 68.37 157.96 67.44 158.78 66.41Z" fill="#EDBA97"/>
</g>
<g opacity="0.4" style="mix-blend-mode:multiply">
<path d="M169.2 44.86C168.08 49.05 166.84 53.2 165.26 57.23C164.09 60.21 162.75 63.16 160.94 65.81C159.79 67.49 158.42 69.09 156.74 70.26C157.45 71.33 158.14 72.42 158.77 73.56C164.72 70.82 167.57 65.54 169.75 59.63C170.8 56.77 174.83 49.42 174.87 46.49C172.89 45.73 171 45.22 169.2 44.86Z" fill="#EDBA97"/>
</g>
<g opacity="0.4" style="mix-blend-mode:soft-light">
<path d="M160.43 46.53C156.36 46.72 152.33 47.82 149.5 50.9C149.28 51.13 149.56 51.49 149.84 51.34C153.18 49.54 156.6 48.3 160.43 48.8C161.84 48.98 161.92 46.47 160.43 46.54V46.53Z" fill="white"/>
</g>
<path d="M137.3 118.56C137.3 118.64 137.19 118.68 137.13 118.63C135.17 116.51 132.95 114.92 129.91 115.66C128.55 115.98 128 113.81 129.34 113.59C132.53 113.05 137.04 114.88 137.29 118.57L137.3 118.56Z" fill="#222221"/>
<path d="M126.18 123.44C132.58 123.74 137.27 129.94 136.99 136.05C136.92 137.63 134.46 137.63 134.54 136.05C134.8 130.84 131.35 126.02 126.03 125.35C120.19 124.6 116.45 129.25 114.95 134.28C114.87 134.58 114.42 134.52 114.41 134.21C114.19 128.21 120.36 123.15 126.16 123.44H126.18Z" fill="#222221"/>
<path d="M71.18 123.44C76.97 123.15 83.16 128.21 82.93 134.21C82.92 134.51 82.47 134.58 82.39 134.28C80.88 129.25 77.15 124.6 71.31 125.35C65.99 126.03 62.53 130.84 62.8 136.05C62.88 137.63 60.42 137.63 60.35 136.05C60.07 129.94 64.76 123.74 71.16 123.44H71.18Z" fill="#222221"/>
<path d="M70.8201 99.6C72.6301 99.9 71.8901 102.84 70.0301 102.41C65.9301 101.42 62.9401 103.57 60.2801 106.43C60.2101 106.5 60.0601 106.45 60.0601 106.34C60.4001 101.34 66.5001 98.88 70.8201 99.6Z" fill="#222221"/>
</g>
<defs>
<clipPath id="clip0_254_1419">
<rect width="203.52" height="207.76" fill="white"/>
</clipPath>
</defs>
</svg>
