<svg width="204" height="208" viewBox="0 0 204 208" fill="none" xmlns="http://www.w3.org/2000/svg">
<g clip-path="url(#clip0_254_1276)">
<path d="M101.76 207.76C157.96 207.76 203.52 161.251 203.52 103.88C203.52 46.5087 157.96 0 101.76 0C45.5595 0 0 46.5087 0 103.88C0 161.251 45.5595 207.76 101.76 207.76Z" fill="#FBF3D5"/>
<path d="M171.3 114.66C171.89 129.13 164.78 140.97 152.99 148.96C141.18 156.97 126.32 159.01 112.39 159.61C98.46 160.2 84.12 159.85 70.64 155.94C57.89 152.25 45.65 145.03 38.31 133.7C29.93 120.76 30.61 107.12 36.38 93.38C42.21 79.5 49.68 64.76 59.93 53.56C70.7 41.81 89.4 36.3 105.17 37.22C120.75 38.15 127.03 38.85 136.46 44.28C147.95 50.91 155.43 62.77 160.98 74.49C166.86 86.94 170.75 100.85 171.32 114.65L171.3 114.66Z" fill="#F0C95D"/>
<path d="M167.71 86C172.19 99.28 176.2 116.27 171.17 129.91C166.94 141.41 157.1 149.87 146.12 154.7C131.94 160.95 115.84 161.72 100.56 161.53C85.4101 161.33 69.9001 159.3 56.3801 152.06C44.7801 145.85 35.2001 135.83 31.4501 123.01C27.4001 109.14 32.6301 96.39 38.6001 83.96C44.8301 71.04 52.4901 56.2 63.9901 47.13C74.1401 39.13 88.1301 35.56 103.27 35.64C117.96 35.48 131.61 37.6 142.64 46.15C154.96 55.66 162.83 71.53 167.7 85.99L167.71 86ZM152.99 148.96C164.78 140.96 171.89 129.12 171.3 114.66C170.74 100.86 166.84 86.96 160.96 74.5C155.42 62.78 147.93 50.91 136.44 44.29C127.02 38.87 120.73 38.16 105.15 37.23C89.3801 36.3 70.6801 41.82 59.9101 53.57C49.6601 64.77 42.1901 79.51 36.3601 93.39C30.6001 107.12 29.9201 120.77 38.2901 133.71C45.6301 145.04 57.8701 152.27 70.6201 155.95C84.1101 159.86 98.4401 160.21 112.37 159.62C126.3 159.02 141.16 156.98 152.97 148.97L152.99 148.96Z" fill="#222221"/>
<g opacity="0.6" style="mix-blend-mode:multiply">
<path d="M171.3 114.66C170.74 100.86 166.84 86.96 160.96 74.5C155.42 62.78 147.93 50.91 136.44 44.29C127.02 38.87 120.73 38.16 105.15 37.23C98.8902 36.86 92.1702 37.53 85.6602 39.18C95.7202 38.23 105.86 38.39 115.65 40.83C123.02 42.67 129.86 45.93 135.83 50.62C141.06 54.73 145.56 59.71 149.38 65.14C157.37 76.53 162.39 90.1 163.82 103.93C165.21 117.35 163.08 132.18 155.09 143.38C152.22 147.4 148.64 150.57 144.8 153.42C147.65 152.19 150.39 150.73 152.99 148.97C164.78 140.97 171.89 129.13 171.3 114.67V114.66Z" fill="#F0C95D"/>
</g>
<path d="M59.1499 59.28C48.9099 69.03 42.5499 85.53 38.5799 98.86C38.4899 99.18 38.9499 99.29 39.0699 98.99C44.2599 85.62 51.4399 71.8 60.7299 60.85C61.6499 59.77 60.2099 58.27 59.1499 59.27V59.28Z" fill="white"/>
<path d="M129.26 118.29C129.26 118.29 129.19 118.34 129.15 118.39C121.76 127.12 114.55 138.66 101.44 138.13C95.1001 137.87 90.5401 133.99 86.4401 129.51C82.1501 124.82 78.1801 119.75 73.6401 115.29C90.9801 121.89 111.32 122.19 129.26 118.29Z" fill="#E17E45"/>
<path d="M122.88 113.55C123.73 114.31 127.92 117.4 127.92 117.48C118.96 119.29 109.88 120.09 100.73 119.65C91.4901 119.2 82.7201 117.26 73.8301 114.96C83.0301 114.91 89.5001 104.96 98.2301 102.99C105.18 101.42 111.56 103.82 116.9 108.21C118.97 109.9 120.87 111.78 122.87 113.55H122.88Z" fill="#E17E45"/>
<path d="M129.26 118.29C111.31 122.19 90.9801 121.89 73.6401 115.29C78.1801 119.75 82.1501 124.81 86.4401 129.51C90.5301 133.98 95.0901 137.87 101.44 138.13C114.56 138.66 121.76 127.12 129.15 118.39C129.19 118.35 129.22 118.32 129.26 118.29ZM128.97 116.86C130.77 118.06 130.19 118.67 129.97 119.01C123.94 128.79 113.94 139.74 101.44 139.33C95.7001 139.14 91.0901 136.02 87.2001 132.02C82.0401 126.71 76.8301 120.94 72.4401 114.99C72.4001 114.93 72.0701 114.51 72.8301 114.41C78.7801 113.59 82.9801 110.38 87.8201 107.04C91.9401 104.2 96.1501 101.81 101.27 101.44C113.44 100.56 119.88 110.85 128.97 116.86ZM127.93 117.48C127.93 117.4 123.74 114.31 122.89 113.55C120.89 111.77 118.98 109.9 116.92 108.21C111.57 103.82 105.2 101.41 98.2501 102.99C89.5201 104.97 83.0401 114.91 73.8501 114.96C82.7401 117.26 91.5101 119.2 100.75 119.65C109.89 120.1 118.98 119.29 127.94 117.48H127.93Z" fill="#222221" stroke="#222221" stroke-width="0.31" stroke-miterlimit="10"/>
<g opacity="0.6" style="mix-blend-mode:multiply">
<path d="M121.62 119.66C121.59 120.51 121.41 121.37 121.06 122.21C119.94 124.96 117.77 127.24 115.59 129.2C113.45 131.11 111.12 132.79 108.73 134.37C106.61 135.78 104.4 137 102.15 138.13C114.82 138.22 121.9 126.95 129.15 118.38C129.19 118.34 129.22 118.31 129.26 118.28C126.76 118.82 124.2 119.28 121.62 119.65V119.66Z" fill="#E17E45"/>
</g>
<g opacity="0.6" style="mix-blend-mode:multiply">
<path d="M97.5301 107.81C103.17 106.57 108.72 107.94 113.8 110.49C116.18 111.69 118.62 113.2 120.26 115.35C121.01 116.34 121.44 117.44 121.59 118.58C123.71 118.27 125.83 117.9 127.94 117.48C127.94 117.4 123.75 114.31 122.9 113.55C120.9 111.77 118.99 109.9 116.93 108.21C111.58 103.82 105.21 101.41 98.2601 102.99C92.3601 104.33 87.4901 109.3 82.1101 112.4C87.3601 111.84 92.3501 108.96 97.5501 107.81H97.5301Z" fill="#E17E45"/>
</g>
<path d="M95.7401 134.83C91.2001 131.33 87.5201 127.6 84.2201 122.91C83.7501 122.24 82.6701 122.84 83.1001 123.56C86.0001 128.37 90.5401 132.62 95.6201 135.04C95.7701 135.11 95.8701 134.92 95.7501 134.83H95.7401Z" fill="white"/>
<path d="M96.0702 106.79C97.0902 107.44 97.1502 109.46 95.6502 109.46C94.6802 109.46 93.9802 108.32 94.4202 107.6C93.7402 108.1 93.2502 109.32 93.0502 109.87C92.9202 110.23 92.4002 110.09 92.4802 109.71C92.6702 108.71 92.9002 107.7 93.7502 107.04C94.4002 106.54 95.3402 106.31 96.0702 106.78V106.79Z" fill="#222221"/>
<path d="M107.95 106.79C106.93 107.44 106.87 109.46 108.37 109.46C109.34 109.46 110.04 108.32 109.6 107.6C110.28 108.1 110.77 109.32 110.97 109.87C111.1 110.23 111.62 110.09 111.54 109.71C111.35 108.71 111.12 107.7 110.27 107.04C109.62 106.54 108.68 106.31 107.95 106.78V106.79Z" fill="#222221"/>
<path d="M116.4 44.29C117.76 48.16 114.92 51.52 111.45 52.46C116.06 57.07 116.19 66.68 109.28 69.2C105.58 70.55 101.23 68.68 98.8901 65.71C95.4801 61.38 95.9601 55.06 97.7901 50.22C98.1201 49.36 99.2501 49.71 99.1401 50.59C98.3001 56.68 97.4701 66.08 105.7 67.29C114.16 68.54 114.46 54.67 107.4 52.38C106.11 51.92 106.64 49.88 107.97 50.3C109.51 51.03 111.01 50.89 112.49 49.88C114.96 48.44 116.38 45.82 114.78 43.87C112.35 40.56 109.15 40.68 106.09 43.28C105.57 43.72 104.93 43.06 105.35 42.52C108.21 38.85 114.81 39.78 116.41 44.28L116.4 44.29Z" fill="#222221"/>
<path d="M137.53 81.41C137.53 81.49 137.43 81.53 137.37 81.48C135.51 79.48 133.42 77.98 130.55 78.66C129.27 78.97 128.75 76.92 130.01 76.71C133.03 76.2 137.29 77.93 137.52 81.41H137.53Z" fill="#222221"/>
<path d="M128.85 109.21C131.368 109.21 133.41 106.286 133.41 102.68C133.41 99.0736 131.368 96.15 128.85 96.15C126.332 96.15 124.29 99.0736 124.29 102.68C124.29 106.286 126.332 109.21 128.85 109.21Z" fill="#222221"/>
<path d="M72.1999 96.27C74.7199 96.27 76.7599 99.2 76.7599 102.8C76.7599 106.4 74.7199 109.33 72.1999 109.33C69.6799 109.33 67.6499 106.4 67.6499 102.8C67.6499 99.2 69.6899 96.27 72.1999 96.27Z" fill="#222221"/>
<path d="M72.39 84.95C73.66 85.16 73.13 87.21 71.84 86.9C68.98 86.22 66.89 87.72 65.03 89.72C64.98 89.77 64.86 89.73 64.87 89.65C65.11 86.16 69.37 84.44 72.38 84.95H72.39Z" fill="#222221"/>
<path d="M71.7099 97.02C68.8499 98.11 68.5299 102.48 69.4599 104.9C69.5199 105.05 69.7799 105.05 69.7699 104.86C69.6599 103.56 69.8799 102.18 70.3899 100.98C70.8899 99.81 71.8799 99.04 72.4199 97.95C72.6399 97.51 72.2599 96.81 71.7099 97.02Z" fill="white"/>
<path d="M128.91 96.89C126.05 97.98 125.73 102.35 126.66 104.77C126.72 104.92 126.98 104.92 126.97 104.73C126.86 103.43 127.08 102.05 127.59 100.85C128.09 99.68 129.08 98.91 129.62 97.82C129.84 97.38 129.46 96.68 128.91 96.89Z" fill="white"/>
</g>
<defs>
<clipPath id="clip0_254_1276">
<rect width="203.52" height="207.76" fill="white"/>
</clipPath>
</defs>
</svg>
