<svg width="204" height="208" viewBox="0 0 204 208" fill="none" xmlns="http://www.w3.org/2000/svg">
<g clip-path="url(#clip0_254_1280)">
<path d="M101.76 207.76C157.96 207.76 203.52 161.251 203.52 103.88C203.52 46.5087 157.96 0 101.76 0C45.5595 0 0 46.5087 0 103.88C0 161.251 45.5595 207.76 101.76 207.76Z" fill="#BEDCD9"/>
<path d="M170.82 98.71C175.69 113.13 180.03 131.57 174.58 146.39C169.98 158.88 159.3 168.06 147.36 173.31C131.96 180.09 114.5 180.93 97.91 180.73C81.45 180.53 64.62 178.3 49.92 170.46C37.32 163.71 26.92 152.82 22.85 138.9C18.45 123.84 24.13 110 30.63 96.52C37.38 82.47 45.71 66.37 58.2 56.52C69.23 47.84 84.41 43.98 100.84 44.06C116.79 43.88 131.62 46.19 143.61 55.45C156.98 65.79 165.53 83.02 170.83 98.71H170.82ZM154.83 167.09C167.64 158.39 175.35 145.55 174.71 129.84C174.11 114.84 169.89 99.76 163.5 86.24C157.48 73.5 149.34 60.63 136.88 53.43C126.64 47.53 119.81 46.76 102.9 45.77C85.79 44.75 65.48 50.74 53.79 63.51C42.65 75.66 34.53 91.66 28.21 106.73C21.95 121.64 21.21 136.46 30.32 150.5C38.28 162.8 51.58 170.65 65.41 174.66C80.05 178.89 95.62 179.27 110.76 178.63C125.89 177.99 142.02 175.76 154.83 167.08V167.09Z" fill="#222221"/>
<path d="M174.71 129.85C175.35 145.56 167.64 158.4 154.83 167.1C142.02 175.78 125.88 178.01 110.76 178.65C95.62 179.29 80.05 178.91 65.41 174.68C51.58 170.66 38.28 162.82 30.32 150.52C21.21 136.47 21.95 121.66 28.21 106.75C34.54 91.68 42.65 75.67 53.79 63.53C65.48 50.76 85.79 44.77 102.9 45.79C119.81 46.78 126.64 47.55 136.88 53.45C149.34 60.64 157.48 73.51 163.5 86.26C169.89 99.78 174.11 114.87 174.71 129.86V129.85Z" fill="#F0C95D"/>
<g opacity="0.6" style="mix-blend-mode:multiply">
<path d="M174.71 129.85C174.11 114.85 169.89 99.77 163.5 86.25C157.48 73.51 149.34 60.64 136.88 53.44C126.71 47.58 119.9 46.78 103.25 45.8C108.6 47.12 113.81 49 118.79 51.55C135.22 59.96 148.03 75.28 154.06 92.67C159.56 108.52 159.16 126.34 152.11 141.64C148.66 149.12 143.55 155.87 137.24 161.16C129.75 167.44 121.02 171.08 111.86 174.22C106.71 175.98 101.41 177.59 96.04 178.85C100.96 178.95 105.89 178.85 110.77 178.65C125.9 178.01 142.03 175.78 154.84 167.1C167.65 158.4 175.36 145.56 174.72 129.85H174.71Z" fill="#F0C95D"/>
</g>
<path d="M107.49 69.6C107.52 78.28 100.75 96.32 88.75 88.68C79.94 83.1 86.74 71.72 93.5 66.73C87.81 65.42 82.79 59.76 87.67 54.16C92.04 49.14 101.19 50.77 102.04 57.64C102.11 58.16 101.25 58.39 101.05 57.91C97.13 51.72 93.47 51.24 88.92 56.93C85.73 61.61 92.4 65.77 96.85 64.89C98.11 64.86 98.13 66.51 97.13 66.92C93.11 68.55 89.82 71.3 87.92 75.25C85.41 80.44 86.81 88.8 94.08 88.89C104.25 89 105.56 76.49 106.68 69.49C106.75 69.02 107.49 69.15 107.49 69.6Z" fill="#222221"/>
<path d="M79.7201 46.55C79.8501 46.85 79.4101 48.08 78.9101 48.2C75.0401 49.15 71.8901 50.8 68.6101 52.97C70.1601 61.06 74.9101 68.58 77.4401 76.68C78.9701 81.58 80.5501 88.81 76.0901 92.79C70.3201 97.95 59.4901 91.85 53.8001 89.27C45.0901 85.33 36.4701 80.09 29.4501 73.53C15.2001 60.25 30.2901 41.5 42.2901 32.2C57.6901 20.27 73.0701 30.97 79.7201 46.56V46.55ZM76.9401 83.54C77.0201 79.96 75.2401 76.08 73.9201 72.84C69.5801 62.24 63.6201 51.95 67.2701 40.25C67.4301 39.75 67.8201 39.54 68.2201 39.54C68.8301 39.54 69.4501 40.04 69.2101 40.79C68.0901 44.35 67.9201 47.73 68.3201 51.01C71.0601 48.73 74.5801 47.18 78.0301 46.4C76.1901 43.05 74.0701 39.7 71.5001 36.86C68.2101 33.21 64.1801 30.42 59.0001 29.57C50.1601 28.09 43.2101 33.94 37.5601 40.04C31.8101 46.26 23.7801 55.46 25.6601 64.67C27.0201 71.42 36.7101 77.2 41.9201 80.6C48.3201 84.77 55.2301 88.21 62.4701 90.75C63.8201 91.22 65.6201 91.83 67.0101 92.18C77.0001 94.79 76.8901 86.65 76.9601 83.54H76.9401Z" fill="#222221"/>
<path d="M73.91 72.84C75.23 76.08 77.02 79.96 76.93 83.54C76.86 86.65 76.97 94.79 66.98 92.18C65.59 91.83 63.79 91.22 62.44 90.75C55.2 88.21 48.29 84.78 41.89 80.6C36.68 77.19 26.99 71.42 25.63 64.67C23.76 55.46 31.79 46.25 37.53 40.04C43.18 33.94 50.13 28.09 58.97 29.57C64.15 30.42 68.18 33.22 71.47 36.86L68.19 39.54C67.79 39.54 67.4 39.75 67.24 40.25C63.59 51.96 69.55 62.24 73.89 72.84H73.91Z" fill="#E17E45"/>
<path d="M71.49 36.86C74.06 39.7 76.17 43.05 78.02 46.4C74.57 47.18 71.05 48.73 68.31 51.01C67.91 47.73 68.08 44.36 69.2 40.79C69.44 40.04 68.82 39.54 68.21 39.54L71.49 36.86Z" fill="#E17E45"/>
<g opacity="0.6" style="mix-blend-mode:multiply">
<path d="M73.9101 72.84C69.5701 62.24 63.6101 51.95 67.2601 40.25C67.4201 39.75 67.8101 39.54 68.2101 39.54L71.4901 36.86C68.2001 33.21 64.1701 30.42 58.9901 29.57C55.2101 28.94 51.7801 29.65 48.6401 31.15C50.8901 31.32 53.0601 32.04 54.9601 33.48C58.6401 36.26 60.8201 40.6 61.5301 45.08C62.3101 49.94 61.8201 55 62.9201 59.81C64.1301 65.13 67.3601 69.83 69.8301 74.62C72.4801 79.74 74.7001 86.11 73.8601 91.88C76.9201 90.05 76.8901 85.66 76.9401 83.56C77.0201 79.98 75.2401 76.1 73.9201 72.86L73.9101 72.84Z" fill="#E17E45"/>
</g>
<g opacity="0.6" style="mix-blend-mode:multiply">
<path d="M71.49 36.86C74.06 39.7 76.17 43.05 78.02 46.4C74.57 47.18 71.05 48.73 68.31 51.01C67.91 47.73 68.08 44.36 69.2 40.79C69.44 40.04 68.82 39.54 68.21 39.54L71.49 36.86Z" fill="#E17E45"/>
</g>
<g opacity="0.6" style="mix-blend-mode:soft-light">
<path d="M35.4001 72.64C33.7401 70.16 32.6401 66.85 32.3901 63.87C32.1401 60.82 33.1001 58.29 33.7601 55.39C34.0201 54.24 32.4601 53.04 31.5901 54.13C26.9401 59.97 29.3201 68.81 34.2501 73.54C34.8301 74.1 35.8901 73.37 35.4101 72.65L35.4001 72.64Z" fill="white"/>
</g>
<path d="M129.47 156.09C132.14 165.24 121.84 174.25 113.61 168.07C113.38 167.9 113.58 167.57 113.84 167.69C121.6 171.01 130.27 165.26 127.92 156.52C127.65 155.53 129.18 155.1 129.48 156.09H129.47Z" fill="#222221"/>
<path d="M68.55 128.78C73.19 129.32 72.82 137.76 69.88 139.96C68.72 140.83 67.58 140.64 66.69 139.93C66.48 139.83 66.26 139.69 66.05 139.49C63.44 137.06 63.51 128.2 68.55 128.78Z" fill="#222221"/>
<path d="M66.6599 123.62C67.0399 123.62 67.2599 124.22 66.8699 124.39C66.0599 124.74 65.2799 125.04 64.6599 125.7C64.0199 126.37 63.6199 127.22 63.4999 128.13C63.4399 128.53 62.7799 128.43 62.7899 128.03C62.8799 126.03 64.4599 123.66 66.6599 123.63V123.62Z" fill="#222221"/>
<path d="M67.3298 130.37C65.9398 131.72 65.4998 133.68 65.7898 135.56C65.8098 135.68 65.9998 135.65 65.9998 135.53C65.9998 133.74 66.8598 132.35 68.1498 131.19C68.6998 130.69 67.8698 129.85 67.3298 130.37Z" fill="white"/>
<path d="M126.75 128.78C122.11 129.32 122.48 137.76 125.42 139.96C126.58 140.83 127.72 140.64 128.61 139.93C128.82 139.83 129.04 139.69 129.25 139.49C131.86 137.06 131.79 128.2 126.75 128.78Z" fill="#222221"/>
<path d="M128.63 123.62C128.25 123.62 128.03 124.22 128.42 124.39C129.23 124.74 130.01 125.04 130.63 125.7C131.27 126.37 131.67 127.22 131.79 128.13C131.85 128.53 132.51 128.43 132.5 128.03C132.41 126.03 130.83 123.66 128.63 123.63V123.62Z" fill="#222221"/>
<path d="M125.91 130.52C124.72 131.86 124.24 133.67 124.63 135.42C124.67 135.61 124.98 135.57 124.98 135.37C124.94 133.76 125.53 132.38 126.68 131.28C127.19 130.8 126.38 129.99 125.91 130.51V130.52Z" fill="white"/>
<path d="M111.45 132.52C117.62 133.54 120.11 142.62 111.9 143.64C109.73 144.01 77.3801 148.89 79.7201 137.72C81.6201 128.54 103.46 130.57 111.45 132.51V132.52Z" fill="#884941"/>
<path d="M119.32 138.68C119.33 148.16 110.68 148.3 97.16 148.29C83.96 148.43 79.39 146.67 77.42 139.73C75.05 131.46 87.71 129.23 93.09 128.86C100.13 128.38 119.33 126.99 119.33 138.68H119.32ZM111.9 143.65C120.1 142.63 117.62 133.55 111.45 132.53C103.46 130.59 81.62 128.56 79.72 137.74C77.38 148.91 109.73 144.03 111.9 143.66V143.65Z" fill="#222221"/>
<g opacity="0.6" style="mix-blend-mode:multiply">
<path d="M111.45 132.52C103.69 130.63 82.8599 128.66 79.9399 136.98C81.5599 136.89 83.1699 136.79 84.7899 136.71C91.4399 136.39 98.7199 136.09 105.04 138.54C107.99 139.68 110.3 141.43 111.93 143.64C120.1 142.6 117.62 133.54 111.45 132.52Z" fill="#884941"/>
</g>
<g opacity="0.6" style="mix-blend-mode:soft-light">
<path d="M92.7399 141.59C90.7399 141.45 88.7599 141.09 86.8999 140.33C85.1999 139.63 83.7699 138.48 82.0599 137.82C81.3299 137.54 80.7699 138.47 81.0999 139.07C83.1999 142.9 89.0499 143.82 92.9399 143.06C93.8099 142.89 93.5399 141.64 92.7399 141.59Z" fill="white"/>
</g>
<path d="M163.6 32.11C175.6 41.42 190.69 60.16 176.44 73.44C169.42 80 160.8 85.23 152.09 89.18C146.4 91.76 135.57 97.86 129.8 92.7C125.34 88.73 126.92 81.49 128.45 76.59C130.98 68.49 135.73 60.97 137.28 52.88C134 50.71 130.85 49.06 126.98 48.11C126.48 48 126.04 46.76 126.17 46.46C132.82 30.87 148.21 20.17 163.6 32.1V32.11ZM138.89 92.11C140.28 91.76 142.08 91.15 143.43 90.68C150.67 88.14 157.58 84.71 163.98 80.53C169.19 77.12 178.88 71.35 180.24 64.6C182.11 55.39 174.08 46.18 168.34 39.97C162.69 33.87 155.74 28.02 146.9 29.5C141.72 30.35 137.69 33.15 134.4 36.79C131.83 39.63 129.72 42.98 127.87 46.33C131.32 47.11 134.84 48.66 137.58 50.94C137.98 47.66 137.81 44.29 136.69 40.72C136.45 39.97 137.07 39.47 137.68 39.47C138.08 39.47 138.47 39.68 138.63 40.18C142.28 51.89 136.32 62.17 131.98 72.77C130.66 76.01 128.87 79.89 128.96 83.47C129.03 86.58 128.92 94.72 138.91 92.11H138.89Z" fill="#222221"/>
<path d="M131.97 72.77C130.65 76.01 128.86 79.89 128.95 83.47C129.02 86.58 128.91 94.72 138.9 92.11C140.29 91.76 142.09 91.15 143.44 90.68C150.68 88.14 157.59 84.71 163.99 80.53C169.2 77.12 178.89 71.35 180.25 64.6C182.12 55.39 174.09 46.18 168.35 39.97C162.7 33.87 155.75 28.02 146.91 29.5C141.73 30.35 137.7 33.15 134.41 36.79L137.69 39.47C138.09 39.47 138.48 39.68 138.64 40.18C142.29 51.89 136.33 62.17 131.99 72.77H131.97Z" fill="#E17E45"/>
<path d="M134.39 36.78C131.82 39.62 129.71 42.97 127.86 46.32C131.31 47.1 134.83 48.65 137.57 50.93C137.97 47.65 137.8 44.28 136.68 40.71C136.44 39.96 137.06 39.46 137.67 39.46L134.39 36.78Z" fill="#E17E45"/>
<g opacity="0.6" style="mix-blend-mode:multiply">
<path d="M168.34 39.96C162.69 33.86 155.74 28.01 146.9 29.49C146.61 29.54 146.34 29.61 146.06 29.67C149.71 30.72 153.2 32.25 156.33 34.4C163.11 39.06 167.89 46.74 167.98 55.1C168.08 63.69 163.47 71.57 158.22 78.04C154.9 82.14 151.1 85.9 147.04 89.32C152.97 86.96 158.66 84.01 163.98 80.53C169.19 77.12 178.88 71.35 180.24 64.6C182.11 55.39 174.08 46.18 168.34 39.97V39.96Z" fill="#E17E45"/>
</g>
<g opacity="0.6" style="mix-blend-mode:multiply">
<path d="M134.39 36.78C131.82 39.62 129.71 42.97 127.86 46.32C131.31 47.1 134.83 48.65 137.57 50.93C137.97 47.65 137.8 44.28 136.68 40.71C136.44 39.96 137.06 39.46 137.67 39.46L134.39 36.78Z" fill="#E17E45"/>
</g>
<g opacity="0.6" style="mix-blend-mode:soft-light">
<path d="M146.48 56.29C142.97 59.32 140.61 64.11 138.38 68.12C136.06 72.31 134.12 76.63 132.4 81.1C132.14 81.77 133.26 82.24 133.56 81.59C135.54 77.34 137.73 73.18 140.16 69.17C142.56 65.22 145.96 61.57 147.92 57.42C148.37 56.47 147.28 55.6 146.47 56.3L146.48 56.29Z" fill="white"/>
</g>
</g>
<defs>
<clipPath id="clip0_254_1280">
<rect width="203.52" height="207.76" fill="white"/>
</clipPath>
</defs>
</svg>
