<svg width="204" height="208" viewBox="0 0 204 208" fill="none" xmlns="http://www.w3.org/2000/svg">
<g clip-path="url(#clip0_254_1268)">
<path d="M101.76 207.76C157.96 207.76 203.52 161.251 203.52 103.88C203.52 46.5087 157.96 0 101.76 0C45.5595 0 0 46.5087 0 103.88C0 161.251 45.5595 207.76 101.76 207.76Z" fill="#BEDCD9"/>
<path d="M171.69 121.29C172.28 135.76 165.18 147.58 153.38 155.59C141.58 163.6 126.72 165.64 112.79 166.23C98.8499 166.83 84.5099 166.47 71.0199 162.57C58.2799 158.88 46.0299 151.64 38.6999 140.31C30.3099 127.37 30.9899 113.73 36.7499 100.01C40.8099 90.31 52.3099 70.12 52.3399 70.06C46.8599 67.25 39.3099 60.85 43.6599 53.95C48.5499 46.2 59.7099 50.06 64.4599 55.57C68.0499 51.17 87.6399 43.09 105.53 43.86C121.12 44.53 127.41 45.48 136.83 50.92C138.53 51.9 141.82 53.65 143.36 54.84C145.79 51.89 154.51 47.06 160.13 52.61C165.42 57.85 162.72 67.56 155.03 69.99C156.99 73.26 159.75 77.77 161.34 81.14C167.22 93.59 171.11 107.49 171.66 121.3L171.69 121.29Z" fill="#A1BF38"/>
<path d="M168.11 92.61C172.59 105.9 176.59 122.89 171.57 136.53C167.34 148.02 157.5 156.49 146.51 161.32C132.33 167.57 116.24 168.32 100.97 168.14C85.8101 167.96 70.3101 165.92 56.7701 158.68C45.1701 152.47 35.5901 142.44 31.8401 129.63C27.7901 115.75 33.0201 103.01 39.0001 90.58C42.1201 84.1 45.6401 77.15 49.7901 70.66C43.2801 67.56 37.2301 58.74 42.2101 52.12C47.8601 44.63 59.6201 46.97 65.2801 53.09C75.3601 45.56 88.9601 42.19 103.66 42.27C118.31 42.1 131.91 44.22 142.93 52.69C148.34 46.99 157.59 45.31 162.94 52.26C167.89 58.69 164.81 67.08 158.18 70.59C162.37 77.63 165.64 85.29 168.11 92.61ZM153.38 155.59C165.18 147.58 172.28 135.75 171.69 121.29C171.14 107.48 167.25 93.59 161.37 81.13C159.78 77.76 157.02 73.25 155.06 69.98C162.74 67.55 165.45 57.84 160.16 52.6C154.54 47.06 145.82 51.88 143.39 54.83C141.85 53.64 138.55 51.89 136.86 50.91C127.44 45.47 121.15 44.52 105.56 43.85C87.6701 43.08 68.0801 51.16 64.4901 55.56C59.7301 50.05 48.5701 46.19 43.6901 53.94C39.3401 60.84 46.8901 67.24 52.3701 70.05C52.3401 70.12 40.8401 90.31 36.7801 100C31.0201 113.72 30.3401 127.36 38.7301 140.3C46.0601 151.63 58.3101 158.87 71.0501 162.56C84.5401 166.45 98.8701 166.82 112.82 166.22C126.75 165.63 141.61 163.59 153.41 155.58L153.38 155.59Z" fill="#222221"/>
<g opacity="0.4" style="mix-blend-mode:multiply">
<path d="M54.97 56.38C58.78 58.12 62.35 60.67 65.28 63.69C69.25 59.65 74.06 56.49 79.12 54C89.56 48.87 101.36 46.21 112.99 46.14C120.86 46.09 129.04 47.29 136.26 50.58C127.17 45.45 120.81 44.51 105.56 43.85C87.67 43.08 68.08 51.16 64.49 55.56C59.73 50.05 48.57 46.19 43.69 53.94C43.4 54.41 43.17 54.87 42.98 55.33C46.84 53.55 51.31 54.69 54.99 56.38H54.97Z" fill="#A1BF38"/>
</g>
<g opacity="0.4" style="mix-blend-mode:multiply">
<path d="M171.69 121.29C171.14 107.48 167.25 93.59 161.37 81.13C159.78 77.76 157.02 73.25 155.06 69.98C162.74 67.55 165.45 57.84 160.16 52.6C157.06 49.54 153.02 49.65 149.62 50.84C151.65 50.72 153.65 51.44 155.06 52.94C156.78 54.76 157.87 57.62 157.69 60.12C157.32 65.2 153.05 69.15 149.24 72.17C149.68 72.42 150.11 72.7 150.52 73C153.66 75.31 155.93 78.65 157.76 82.04C159.78 85.79 161.33 89.8 162.62 93.86C163.82 97.65 164.85 101.53 165.41 105.47C166.17 110.84 166.27 116.29 165.68 121.68C164.51 132.3 160.73 142.87 154.24 151.42C151.98 154.4 149.37 157.05 146.53 159.46C148.91 158.36 151.2 157.08 153.39 155.59C165.19 147.58 172.29 135.75 171.7 121.29H171.69Z" fill="#A1BF38"/>
</g>
<g opacity="0.4" style="mix-blend-mode:soft-light">
<path d="M47.81 138.5C44.08 133.43 41.52 127.65 40.5 121.42C39.34 114.36 41.23 108.38 42.5 101.56C42.77 100.09 40.9 99.2 40.04 100.52C32.46 112.33 37.8 129.94 46.54 139.47C47.15 140.13 48.35 139.24 47.8 138.5H47.81Z" fill="white"/>
</g>
<path d="M123.88 75.01C124.27 74.54 124.95 75.14 124.69 75.62C116.6 90.47 91.81 93.38 82.48 78.26C82.41 78.14 82.55 77.99 82.66 78.08C89.1 82.89 95.75 86.9 104.13 86.39C112.44 85.89 118.69 81.08 123.88 75.01Z" fill="#222221"/>
<path d="M119.53 58.49C120.59 60.1 120.01 62.36 118.63 63.57C117.7 64.39 116.58 64.56 115.56 64.33C115.64 64.43 115.69 64.54 115.77 64.63C116.11 65.06 115.81 65.79 115.19 65.62C113.24 65.06 112.52 63.08 112.75 61.18C112.75 60.83 112.82 60.47 112.97 60.11C113.36 58.87 114.16 57.78 115.31 57.33C116.77 56.75 118.63 57.12 119.53 58.49Z" fill="#222221"/>
<path d="M94.45 61.18C94.67 63.09 93.95 65.06 92.01 65.62C91.4 65.79 91.1 65.06 91.43 64.63C91.51 64.54 91.56 64.43 91.64 64.33C90.62 64.57 89.5 64.4 88.57 63.57C87.18 62.35 86.61 60.09 87.67 58.49C88.57 57.12 90.43 56.75 91.9 57.33C93.04 57.79 93.83 58.87 94.23 60.11C94.39 60.48 94.45 60.83 94.45 61.18Z" fill="#222221"/>
<path d="M155.31 58.99C155.75 61.73 153.06 64.86 150.19 63.93C149.73 63.77 149.55 63.07 150.05 62.82C150.76 62.48 151.67 62.01 152.32 61.38C150.46 61.46 148.62 59.43 149.92 57.46C151.48 55.08 154.93 56.52 155.32 58.99H155.31Z" fill="#222221"/>
<path d="M54.39 57.46C55.68 59.43 53.84 61.46 51.99 61.38C52.64 62.01 53.56 62.48 54.26 62.82C54.76 63.07 54.57 63.77 54.12 63.93C51.25 64.86 48.55 61.73 49 58.99C49.39 56.52 52.84 55.08 54.4 57.46H54.39Z" fill="#222221"/>
</g>
<defs>
<clipPath id="clip0_254_1268">
<rect width="203.52" height="207.76" fill="white"/>
</clipPath>
</defs>
</svg>
