<svg width="189" height="189" viewBox="0 0 189 189" fill="none" xmlns="http://www.w3.org/2000/svg">
<g clip-path="url(#clip0_254_1290)">
<path d="M160.744 160.741C197.515 123.969 197.515 64.3506 160.744 27.5789C123.972 -9.19291 64.3529 -9.19291 27.5812 27.5789C-9.19059 64.3506 -9.19059 123.969 27.5812 160.741C64.3529 197.513 123.972 197.513 160.744 160.741Z" fill="#BCEDF4"/>
<path d="M81.9399 17.66C81.9399 17.66 17.9499 10.87 26.0099 88.02C26.0099 88.02 -1.01008 128.29 20.3199 143.33C20.3199 143.33 19.8499 156.43 33.5899 159.34C33.5899 159.34 29.7999 155.46 31.2199 147.69C31.2199 147.69 31.6899 158.36 39.7499 159.82C39.7499 159.82 37.8499 156.42 37.3799 152.06C37.3799 152.06 46.3899 175.35 88.5699 174.38C130.76 173.41 145.56 156.05 145.56 156.05C145.56 156.05 157.41 153.62 162.15 141.01C162.15 141.01 160.73 154.11 157.41 153.63C157.41 153.63 175.9 148.29 174 134.22C172.1 120.15 165.94 117.24 165.94 117.24C165.94 117.24 177.21 55.99 149.71 28.33C117.17 -4.40999 81.9299 17.66 81.9299 17.66H81.9399Z" fill="#6C4B41"/>
<path d="M157.42 153.64C157.75 153.69 158.05 153.6 158.34 153.41C158.35 153.38 158.36 153.35 158.37 153.32C157.77 153.53 157.41 153.64 157.41 153.64H157.42Z" fill="#4D2A22"/>
<path d="M161.56 142.41C163.67 131.74 162.91 119.88 155.15 109.13C134.25 80.17 32.4501 97.49 32.4501 97.49C32.4501 97.49 16.5801 138.26 31.6101 158.83C32.2401 159.03 32.8901 159.21 33.5901 159.36C33.5901 159.36 29.8001 155.48 31.2201 147.71C31.2201 147.71 31.6901 158.38 39.7501 159.84C39.7501 159.84 37.8501 156.44 37.3801 152.08C37.3801 152.08 46.3901 175.37 88.5701 174.4C130.75 173.43 145.56 156.07 145.56 156.07C145.56 156.07 156.5 153.8 161.55 142.41H161.56Z" fill="#4D2A22"/>
<path d="M94.1602 188.32C109.69 188.32 124.34 184.53 137.25 177.87C136.34 173.92 133.64 163.66 128.92 157.42C120.96 146.91 76.8302 143.78 66.6002 155.71C61.2902 161.91 57.3402 174.97 55.9102 180.2C67.6002 185.41 80.5402 188.32 94.1602 188.32Z" fill="#F9F1E4"/>
<path d="M99.6101 188.16V152.99H95.8101V188.3C97.0801 188.28 98.3501 188.24 99.6101 188.16Z" fill="#E3D5BD"/>
<path d="M97.7302 155.95C97.3702 155.83 91.3402 164.66 88.4802 162.88C85.6202 161.1 81.1202 151.36 83.1502 149.46C85.1702 147.56 109.82 147.74 110.25 150.32C110.58 152.33 108.44 164.42 105.35 163.83C102.26 163.24 97.7402 155.96 97.7402 155.96L97.7302 155.95Z" fill="#F7FFFA"/>
<path d="M65.5301 157.07C65.2501 157.45 64.9801 157.85 64.7101 158.27C64.6701 158.34 64.6301 158.41 64.5801 158.47C64.3401 158.85 64.1001 159.24 63.8601 159.65C63.8101 159.74 63.7501 159.83 63.7001 159.92C63.4401 160.37 63.1901 160.83 62.9501 161.29C62.8901 161.4 62.8401 161.51 62.7801 161.61C62.5601 162.04 62.3401 162.47 62.1301 162.92C62.1001 162.99 62.0601 163.06 62.0301 163.13C61.8001 163.62 61.5701 164.12 61.3401 164.62C61.2801 164.75 61.2201 164.88 61.1701 165.01C60.9501 165.51 60.7301 166.01 60.5201 166.52C60.5001 166.57 60.4801 166.63 60.4501 166.68C60.2501 167.15 60.0601 167.63 59.8801 168.1C59.8301 168.23 59.7801 168.35 59.7301 168.48C59.5401 168.98 59.3501 169.48 59.1601 169.97C59.1201 170.07 59.0901 170.17 59.0501 170.28C58.8901 170.72 58.7301 171.16 58.5801 171.59C58.5501 171.69 58.5101 171.78 58.4801 171.88C58.3101 172.37 58.1501 172.85 57.9901 173.32C57.9501 173.43 57.9201 173.54 57.8801 173.65C57.7301 174.1 57.5901 174.55 57.4501 174.98C57.4501 175.01 57.4301 175.03 57.4201 175.06C57.2701 175.52 57.1301 175.97 57.0001 176.4C56.9701 176.49 56.9501 176.57 56.9201 176.66C56.7901 177.09 56.6701 177.5 56.5501 177.9C56.5501 177.9 56.5501 177.92 56.5501 177.93C56.4301 178.34 56.3201 178.73 56.2101 179.1C56.2101 179.12 56.2001 179.14 56.1901 179.17C56.0801 179.54 55.9901 179.89 55.9001 180.21C60.9001 182.44 66.1401 184.21 71.5501 185.55C71.6801 170.69 69.3201 159.6 67.4301 154.86C67.1301 155.14 66.8401 155.42 66.5901 155.72C66.2901 156.07 66.0001 156.44 65.7101 156.83C65.6501 156.92 65.5801 157 65.5201 157.09L65.5301 157.07Z" fill="#FDC59D"/>
<path d="M136.83 176.16C136.83 176.16 136.82 176.11 136.81 176.09C136.73 175.78 136.65 175.45 136.56 175.11C136.55 175.06 136.53 175.01 136.52 174.96C136.43 174.62 136.33 174.28 136.23 173.91C136.23 173.9 136.23 173.88 136.22 173.87C136.12 173.51 136.01 173.14 135.9 172.77C135.87 172.68 135.85 172.59 135.82 172.51C135.71 172.13 135.59 171.75 135.46 171.35C135.44 171.3 135.43 171.24 135.41 171.19C135.3 170.84 135.18 170.48 135.06 170.12C135.03 170.02 134.99 169.92 134.96 169.82C134.83 169.42 134.69 169.02 134.54 168.61C134.51 168.52 134.47 168.42 134.44 168.33C134.31 167.96 134.17 167.59 134.02 167.21C133.99 167.14 133.97 167.07 133.94 167C133.78 166.59 133.61 166.17 133.44 165.75C133.4 165.64 133.35 165.53 133.3 165.42C133.12 165 132.94 164.57 132.75 164.15C132.73 164.11 132.71 164.07 132.7 164.03C132.52 163.63 132.34 163.24 132.15 162.85C132.1 162.76 132.06 162.66 132.01 162.57C131.81 162.16 131.6 161.75 131.39 161.35C131.35 161.27 131.31 161.2 131.27 161.12C131.07 160.76 130.87 160.4 130.66 160.05C130.62 159.99 130.59 159.92 130.55 159.86C130.32 159.47 130.08 159.1 129.84 158.73C129.79 158.65 129.73 158.57 129.68 158.49C129.43 158.12 129.17 157.75 128.91 157.4C128.64 157.05 128.34 156.71 127.99 156.38C127.93 156.32 127.85 156.26 127.78 156.2C127.48 155.92 127.15 155.64 126.8 155.38C126.75 155.34 126.69 155.3 126.64 155.26C126.24 154.97 125.82 154.68 125.36 154.41C125.34 154.4 125.32 154.39 125.3 154.38C124.8 154.08 124.27 153.79 123.71 153.51C120.72 160.76 121.31 173.98 122.61 183.93C127.69 182.32 132.6 180.29 137.27 177.88C137.16 177.4 137.02 176.82 136.86 176.17L136.83 176.16Z" fill="#FDC59D"/>
<path d="M100.83 142.02L101.63 151.98L97.5302 155.88L93.4802 152.18L93.0002 141.93L100.83 142.02Z" fill="#FDC59D"/>
<path d="M100.83 142.02L93.0002 141.93L93.3202 148.78L101.4 149.06L100.83 142.02Z" fill="#EEA47D"/>
<path d="M162.23 105.8C161.9 115.35 154.53 122.85 145.77 122.54C137.01 122.23 130.19 114.24 130.52 104.69C130.85 95.1401 138.22 87.6401 146.98 87.9501C155.74 88.2601 162.56 96.2501 162.23 105.8Z" fill="#FDC59D"/>
<path d="M158.98 105.47C158.78 111.1 154.44 115.52 149.27 115.34C144.11 115.16 140.08 110.45 140.28 104.81C140.48 99.1801 144.82 94.7601 149.99 94.9401C155.15 95.1201 159.18 99.8301 158.98 105.47Z" fill="#EEA47D"/>
<path d="M57.0601 100.56C56.7301 110.11 49.3601 117.61 40.6001 117.3C31.8401 116.99 25.0201 109 25.3501 99.45C25.6901 89.9 33.0601 82.4 41.8101 82.71C50.5701 83.02 57.3901 91.01 57.0601 100.56Z" fill="#FDC59D"/>
<path d="M50.2601 100.18C50.0601 105.81 45.7201 110.23 40.5501 110.05C35.3901 109.87 31.3601 105.16 31.5601 99.5201C31.7601 93.8901 36.1001 89.4701 41.2701 89.6501C46.4301 89.8301 50.4601 94.5401 50.2601 100.18Z" fill="#EEA47D"/>
<path d="M105.12 50.3901L86.99 49.7501C44.6 52.6201 44.09 71.1201 43.27 94.4501L43.03 101.42C42.21 124.75 60.46 144.32 83.79 145.14L101.92 145.78C125.25 146.6 144.82 128.35 145.64 105.02L145.88 98.0501C146.7 74.7201 152.61 51.5301 105.12 50.3901Z" fill="#FDC59D"/>
<path d="M85.9001 112.28C85.9001 112.28 97.1801 117.01 101.47 108.53L85.9001 112.28Z" fill="#4F0200"/>
<path d="M125.7 25.21C83.7101 16.09 31.4101 19.6901 35.0101 84.2301C35.0101 84.2301 37.8701 87.31 40.3401 92.81C41.3401 95.04 44.6101 94.61 44.9401 92.18C45.6701 86.76 46.7801 80.3601 48.4201 74.4401C75.3001 73.6401 84.6401 53.14 84.6401 53.14C82.7001 60.41 61.3601 78.84 61.3601 78.84C84.1501 76.9 108.4 54.59 108.4 54.59L99.6701 69.6201C117.83 66.0901 124.17 60.07 126.09 55.1C128.18 55.6 129.89 56.15 131.05 56.75C141.14 62 142.96 104.6 145.38 104.6C147.8 104.6 146.1 88.77 155.66 90.64C155.66 90.64 165.7 33.8701 125.7 25.19V25.21Z" fill="#6C4B41"/>
<path d="M72.9001 38.2201C76.1101 40.4901 69.6901 45.2101 66.4801 44.0801C63.2701 42.9501 69.6901 35.9601 72.9001 38.2201Z" fill="#7C5850"/>
<path d="M69.78 29.4301C73.1 33.5001 63.65 40.8501 58.64 38.0601C53.63 35.2801 66.36 25.2301 69.78 29.4301Z" fill="#7C5850"/>
<path d="M113.53 112.65C119.4 112.65 124.15 107.88 124.15 102.01V96.38C124.14 90.51 119.37 85.76 113.5 85.77C107.63 85.77 102.88 90.54 102.88 96.41V102.04C102.89 107.91 107.66 112.66 113.53 112.65Z" fill="#F7FFFA"/>
<path d="M102.88 96.41C102.88 93.23 104.27 90.39 106.48 88.44C107.32 88.14 108.2 87.96 109.12 87.96C114.3 87.96 118.5 93.13 118.51 99.51C118.51 105.9 114.33 111.08 109.15 111.09C108.68 111.09 108.22 111.03 107.77 110.95C104.84 109.06 102.89 105.78 102.89 102.03V96.4L102.88 96.41Z" fill="#4D2A22"/>
<path d="M73.9101 112.65C68.0401 112.73 63.2201 108.04 63.1301 102.17L63.0501 96.54C62.9701 90.67 67.6601 85.85 73.5301 85.76C79.4001 85.68 84.2201 90.37 84.3101 96.24L84.3901 101.87C84.4701 107.74 79.7801 112.56 73.9101 112.65Z" fill="#F7FFFA"/>
<path d="M84.31 96.24C84.27 93.06 82.82 90.24 80.59 88.33C79.75 88.04 78.86 87.88 77.94 87.89C72.76 87.96 68.64 93.2 68.73 99.59C68.82 105.98 73.09 111.1 78.27 111.02C78.74 111.02 79.2 110.95 79.65 110.86C82.55 108.93 84.45 105.61 84.4 101.87L84.32 96.24H84.31Z" fill="#4D2A22"/>
<path d="M94.2902 102.29C93.9502 102.94 93.6102 103.58 93.2802 104.23C93.1802 104.41 93.0802 104.59 93.0002 104.78L93.7802 104.68C93.5002 104.32 93.2102 103.97 92.9102 103.63C92.6102 103.29 92.2902 102.97 91.9602 102.66C91.7802 102.48 91.5902 102.3 91.4302 102.1L91.4802 102.17C91.4602 102.11 91.4302 102.06 91.4002 102C91.3402 101.88 91.1902 101.8 91.0602 101.8C90.9302 101.8 90.7802 101.87 90.7202 102C90.6502 102.14 90.6402 102.32 90.6202 102.47C90.6002 102.62 90.5802 102.79 90.5602 102.95C90.5302 103.22 90.5002 103.48 90.4802 103.75C90.4502 104.28 90.4402 104.8 90.4402 105.33C90.4402 105.48 90.4402 105.63 90.4402 105.78C90.4402 105.85 90.4402 105.92 90.4502 106C90.4602 106.08 90.4502 106.15 90.4802 106.22C90.5002 106.28 90.5402 106.35 90.5702 106.41C90.6002 106.47 90.6602 106.53 90.7202 106.56C90.8002 106.61 90.8902 106.62 90.9902 106.61C91.0702 106.6 91.1302 106.57 91.1902 106.53C91.2702 106.47 91.3102 106.4 91.3402 106.31C91.3502 106.28 91.3602 106.25 91.3702 106.22C91.3902 106.16 91.3902 106.08 91.3902 106.02C91.3902 105.96 91.3902 105.89 91.3902 105.82C91.3902 105.69 91.3802 105.56 91.3702 105.42C91.3702 105.16 91.3602 104.89 91.3602 104.63C91.3602 104.1 91.3802 103.58 91.4102 103.05C91.4102 102.91 91.4202 102.76 91.4302 102.62C91.4302 102.55 91.4302 102.48 91.4402 102.4C91.4402 102.29 91.4602 102.19 91.4402 102.08L90.8602 102.53C90.9102 102.56 90.9702 102.58 91.0202 102.61L90.9502 102.56C91.1802 102.78 91.3702 103.02 91.5602 103.26L91.5002 103.19C91.5502 103.25 91.5902 103.31 91.6402 103.37L91.5802 103.3C91.6702 103.43 91.7702 103.55 91.8602 103.68C91.9502 103.81 92.0402 103.94 92.1302 104.06C92.3202 104.31 92.5002 104.57 92.6802 104.83C92.7802 104.98 92.8802 105.13 92.9802 105.28C93.0802 105.43 93.2302 105.53 93.4102 105.53C93.5902 105.53 93.7502 105.44 93.8402 105.28C94.0202 104.96 94.1802 104.63 94.3502 104.31C94.5202 103.99 94.6902 103.66 94.8602 103.34C94.9602 103.16 95.0502 102.98 95.1502 102.79C95.2102 102.67 95.2402 102.54 95.2002 102.4C95.1702 102.28 95.0802 102.16 94.9702 102.1C94.8502 102.04 94.7102 102.01 94.5802 102.05C94.4602 102.09 94.3402 102.16 94.2802 102.28L94.2902 102.29Z" fill="#4F0200"/>
<g opacity="0.61" style="mix-blend-mode:multiply">
<path d="M73.4001 121.35C72.7801 125.31 68.0701 127.85 62.8701 127.04C57.6701 126.23 53.9601 122.36 54.5801 118.41C55.2001 114.45 59.9101 111.91 65.1101 112.72C70.3101 113.53 74.0201 117.4 73.4001 121.35Z" fill="#FCA691"/>
</g>
<g opacity="0.61" style="mix-blend-mode:multiply">
<path d="M134.98 116.43C135.79 120.35 132.28 124.39 127.13 125.46C121.98 126.53 117.14 124.22 116.33 120.3C115.52 116.38 119.03 112.34 124.18 111.27C129.33 110.2 134.17 112.51 134.98 116.43Z" fill="#FCA691"/>
</g>
<path d="M107.3 77.82C107.85 77.8 108.39 77.79 108.94 77.82C109.49 77.85 110.04 77.91 110.58 77.99L110.32 77.95C110.81 78.02 111.3 78.08 111.79 78.14L111.52 78.1C113.76 78.4 115.95 79.01 118.03 79.88L117.78 79.77C118.04 79.88 118.29 80.03 118.59 80.02C118.77 80.02 118.96 79.98 119.14 79.96C119.4 79.92 119.62 79.68 119.71 79.45C119.81 79.2 119.82 78.9 119.67 78.66C119.5 78.39 119.31 78.12 119.01 78C118.75 77.89 118.48 77.78 118.22 77.67C117.86 77.53 117.5 77.39 117.13 77.27C116.39 77.02 115.63 76.8 114.87 76.62C114.11 76.44 113.33 76.3 112.55 76.19C112.09 76.13 111.64 76.07 111.18 76.03C110.78 76 110.37 76 109.97 76C109.09 76 108.2 76.03 107.33 76.09C107.1 76.11 106.89 76.17 106.73 76.34C106.58 76.49 106.47 76.73 106.48 76.94C106.5 77.39 106.86 77.81 107.34 77.8L107.3 77.82Z" fill="#4F0200"/>
<path d="M78.2399 77.2C77.4599 77.25 76.6799 77.35 75.8999 77.44C75.0499 77.55 74.2099 77.68 73.3799 77.91C71.7899 78.34 70.2399 78.93 68.7599 79.66C68.3599 79.86 67.9699 80.06 67.5899 80.28C67.3999 80.38 67.2199 80.49 67.0399 80.6C66.8099 80.74 66.5899 80.88 66.4499 81.11C66.3999 81.2 66.3499 81.29 66.3099 81.38C66.1699 81.67 66.1399 81.98 66.3099 82.27C66.4699 82.54 66.7599 82.71 67.0699 82.71C67.1499 82.71 67.2399 82.71 67.3199 82.71C67.5699 82.7 67.7899 82.63 67.9999 82.5C68.1499 82.41 68.3099 82.31 68.4599 82.22C68.7799 82.03 69.0999 81.86 69.4299 81.69C70.0799 81.35 70.7499 81.03 71.4299 80.74L71.1799 80.85C72.0199 80.5 72.8799 80.19 73.7499 79.93C74.1799 79.8 74.6199 79.69 75.0499 79.56C75.4799 79.43 75.9199 79.32 76.3499 79.21C76.8499 79.09 77.3599 79.01 77.8699 78.94L77.6399 78.97C77.8399 78.94 78.0299 78.92 78.2299 78.9C78.4599 78.87 78.6599 78.82 78.8299 78.65C78.9799 78.5 79.0899 78.26 79.0799 78.05C79.0599 77.61 78.6999 77.16 78.2199 77.19L78.2399 77.2Z" fill="#4F0200"/>
</g>
<defs>
<clipPath id="clip0_254_1290">
<rect width="188.32" height="188.32" fill="white"/>
</clipPath>
</defs>
</svg>
