<svg width="189" height="189" viewBox="0 0 189 189" fill="none" xmlns="http://www.w3.org/2000/svg">
<g clip-path="url(#clip0_254_1286)">
<path d="M160.744 160.741C197.515 123.969 197.515 64.3506 160.744 27.5789C123.972 -9.19291 64.3529 -9.19291 27.5812 27.5789C-9.19059 64.3506 -9.19059 123.969 27.5812 160.741C64.3529 197.513 123.972 197.513 160.744 160.741Z" fill="#BCEDF4"/>
<path d="M94.5 181.2C118.403 181.2 137.78 166.573 137.78 148.53C137.78 130.487 118.403 115.86 94.5 115.86C70.5971 115.86 51.22 130.487 51.22 148.53C51.22 166.573 70.5971 181.2 94.5 181.2Z" fill="#4D2A22"/>
<path d="M94.1599 188.32C109.69 188.32 124.33 184.53 137.25 177.87C136.34 173.92 133.64 163.66 128.92 157.42C120.96 146.91 76.8299 143.78 66.5999 155.71C61.2899 161.91 57.3399 174.97 55.9099 180.2C67.5999 185.41 80.5399 188.32 94.1599 188.32Z" fill="#F4B306"/>
<path d="M97.73 155.95C97.37 155.83 91.34 164.66 88.48 162.88C85.62 161.1 81.12 151.36 83.15 149.46C85.17 147.56 109.82 147.74 110.25 150.32C110.58 152.33 108.44 164.42 105.35 163.83C102.26 163.24 97.74 155.96 97.74 155.96L97.73 155.95Z" fill="#F7FFFA"/>
<path d="M65.5299 157.07C65.2499 157.45 64.9799 157.85 64.7099 158.27C64.6699 158.34 64.6299 158.41 64.5799 158.47C64.3399 158.85 64.0999 159.24 63.8599 159.65C63.8099 159.74 63.7499 159.83 63.6999 159.92C63.4399 160.37 63.1899 160.83 62.9499 161.29C62.8899 161.4 62.8399 161.51 62.7799 161.61C62.5599 162.04 62.3399 162.47 62.1299 162.92C62.0999 162.99 62.0599 163.06 62.0299 163.13C61.7999 163.62 61.5699 164.12 61.3399 164.62C61.2799 164.75 61.2199 164.88 61.1699 165.01C60.9499 165.51 60.7299 166.01 60.5199 166.52C60.4999 166.57 60.4799 166.63 60.4499 166.68C60.2499 167.15 60.0599 167.63 59.8799 168.1C59.8299 168.23 59.7799 168.35 59.7299 168.48C59.5399 168.98 59.3499 169.48 59.1599 169.97C59.1199 170.07 59.0899 170.17 59.0499 170.28C58.8899 170.72 58.7299 171.16 58.5799 171.59C58.5499 171.69 58.5099 171.78 58.4799 171.88C58.3099 172.37 58.1499 172.85 57.9899 173.32C57.9499 173.43 57.9199 173.54 57.8799 173.65C57.7299 174.1 57.5899 174.55 57.4499 174.98C57.4499 175.01 57.4299 175.03 57.4199 175.06C57.2699 175.52 57.1299 175.97 56.9999 176.4C56.9699 176.49 56.9499 176.57 56.9199 176.66C56.7899 177.09 56.6699 177.5 56.5499 177.9C56.5499 177.9 56.5499 177.92 56.5499 177.93C56.4299 178.34 56.3199 178.73 56.2099 179.1C56.2099 179.12 56.1999 179.14 56.1899 179.17C56.0799 179.54 55.9899 179.89 55.8999 180.21C60.8999 182.44 66.1399 184.21 71.5499 185.55C71.6799 170.69 69.3199 159.6 67.4299 154.86C67.1299 155.14 66.8399 155.42 66.5899 155.72C66.2899 156.07 65.9999 156.44 65.7099 156.83C65.6499 156.92 65.5799 157 65.5199 157.09L65.5299 157.07Z" fill="#FDC59D"/>
<path d="M136.83 176.16C136.83 176.16 136.82 176.11 136.81 176.09C136.73 175.78 136.65 175.45 136.56 175.11C136.55 175.06 136.53 175.01 136.52 174.96C136.43 174.62 136.33 174.28 136.23 173.91C136.23 173.9 136.23 173.88 136.22 173.87C136.12 173.51 136.01 173.14 135.9 172.77C135.87 172.68 135.85 172.59 135.82 172.51C135.71 172.13 135.59 171.75 135.46 171.35C135.44 171.3 135.43 171.24 135.41 171.19C135.3 170.84 135.18 170.48 135.06 170.12C135.03 170.02 134.99 169.92 134.96 169.82C134.83 169.42 134.68 169.02 134.54 168.61C134.51 168.52 134.47 168.42 134.44 168.33C134.31 167.96 134.17 167.59 134.02 167.21C133.99 167.14 133.97 167.07 133.94 167C133.78 166.59 133.61 166.17 133.44 165.75C133.4 165.64 133.35 165.53 133.3 165.42C133.12 165 132.94 164.57 132.75 164.15C132.73 164.11 132.71 164.07 132.7 164.03C132.52 163.63 132.34 163.24 132.15 162.85C132.1 162.76 132.06 162.66 132.01 162.57C131.81 162.16 131.6 161.75 131.39 161.35C131.35 161.27 131.31 161.2 131.27 161.12C131.07 160.76 130.87 160.4 130.66 160.05C130.62 159.99 130.59 159.92 130.55 159.86C130.32 159.47 130.08 159.1 129.84 158.73C129.79 158.65 129.73 158.57 129.68 158.49C129.43 158.12 129.17 157.75 128.91 157.4C128.64 157.05 128.34 156.71 127.99 156.38C127.93 156.32 127.85 156.26 127.78 156.2C127.48 155.92 127.15 155.64 126.8 155.38C126.75 155.34 126.69 155.3 126.64 155.26C126.24 154.97 125.82 154.68 125.36 154.41C125.34 154.4 125.32 154.39 125.3 154.38C124.8 154.08 124.27 153.79 123.71 153.51C120.72 160.76 121.31 173.98 122.61 183.93C127.69 182.32 132.6 180.29 137.27 177.88C137.16 177.4 137.02 176.82 136.86 176.17L136.83 176.16Z" fill="#FDC59D"/>
<path d="M100.83 142.02L101.63 151.98L97.53 155.88L93.48 152.18L93 141.93L100.83 142.02Z" fill="#FDC59D"/>
<path d="M100.83 142.02L93 141.93L93.32 148.78L101.4 149.06L100.83 142.02Z" fill="#EEA47D"/>
<path d="M162.23 105.8C161.9 115.35 154.52 122.85 145.77 122.54C137.01 122.23 130.19 114.24 130.52 104.69C130.85 95.1401 138.22 87.6401 146.98 87.9501C155.74 88.2601 162.56 96.2501 162.23 105.8Z" fill="#FDC59D"/>
<path d="M158.98 105.47C158.78 111.1 154.44 115.52 149.27 115.34C144.11 115.16 140.08 110.45 140.28 104.81C140.48 99.1801 144.82 94.7601 149.99 94.9401C155.15 95.1201 159.18 99.8301 158.98 105.47Z" fill="#EEA47D"/>
<path d="M57.0601 100.56C56.7301 110.11 49.3601 117.61 40.6001 117.3C31.8401 116.99 25.0201 109 25.3501 99.45C25.6901 89.9 33.0601 82.4 41.8101 82.71C50.5701 83.02 57.3901 91.01 57.0601 100.56Z" fill="#FDC59D"/>
<path d="M50.2601 100.18C50.0601 105.81 45.7201 110.23 40.5501 110.05C35.3901 109.87 31.3601 105.16 31.5601 99.5201C31.7601 93.8901 36.1001 89.4701 41.2701 89.6501C46.4301 89.8301 50.4601 94.5401 50.2601 100.18Z" fill="#EEA47D"/>
<path d="M105.12 50.3901L86.99 49.7501C44.6 52.6201 44.09 71.1201 43.27 94.4501L43.03 101.42C42.21 124.75 60.46 144.32 83.79 145.14L101.92 145.78C125.25 146.6 144.82 128.35 145.64 105.02L145.88 98.0501C146.7 74.7201 152.61 51.5301 105.12 50.3901Z" fill="#FDC59D"/>
<path d="M109.26 81.59C109.81 81.57 110.35 81.56 110.9 81.59C111.45 81.62 112 81.68 112.54 81.76L112.28 81.72C112.77 81.79 113.26 81.85 113.75 81.91L113.48 81.87C115.72 82.17 117.91 82.78 119.99 83.65L119.74 83.54C120 83.65 120.25 83.8 120.55 83.79C120.73 83.79 120.92 83.75 121.1 83.73C121.36 83.69 121.58 83.45 121.67 83.22C121.77 82.97 121.78 82.67 121.63 82.43C121.46 82.16 121.27 81.89 120.97 81.77C120.71 81.66 120.44 81.55 120.18 81.44C119.82 81.3 119.46 81.16 119.09 81.04C118.35 80.79 117.59 80.57 116.83 80.39C116.07 80.21 115.29 80.07 114.51 79.96C114.05 79.9 113.6 79.84 113.14 79.8C112.74 79.77 112.33 79.77 111.93 79.77C111.05 79.77 110.16 79.8 109.29 79.86C109.06 79.88 108.85 79.94 108.69 80.11C108.54 80.26 108.43 80.5 108.44 80.71C108.46 81.16 108.82 81.58 109.3 81.57L109.26 81.59Z" fill="#4F0200"/>
<path d="M77.16 80.3801C76.38 80.4301 75.6 80.5301 74.82 80.6201C73.97 80.7301 73.13 80.8601 72.3 81.0901C70.71 81.5201 69.16 82.1101 67.68 82.8401C67.28 83.0401 66.89 83.2401 66.51 83.4601C66.32 83.5601 66.14 83.6701 65.96 83.7801C65.73 83.9201 65.51 84.0601 65.37 84.2901C65.32 84.3801 65.27 84.4701 65.23 84.5601C65.09 84.8501 65.06 85.1601 65.23 85.4501C65.39 85.7201 65.68 85.8901 65.99 85.8901C66.07 85.8901 66.16 85.8901 66.24 85.8901C66.49 85.8801 66.71 85.8101 66.92 85.6801C67.07 85.5901 67.23 85.4901 67.38 85.4001C67.7 85.2101 68.02 85.0401 68.35 84.8701C69 84.5301 69.67 84.2101 70.35 83.9201L70.1 84.0301C70.94 83.6801 71.8 83.3701 72.67 83.1101C73.1 82.9801 73.54 82.8701 73.97 82.7401C74.4 82.6101 74.84 82.5001 75.27 82.3901C75.77 82.2701 76.28 82.1901 76.79 82.1201L76.56 82.1501C76.76 82.1201 76.95 82.1001 77.15 82.0801C77.38 82.0501 77.58 82.0001 77.75 81.8301C77.9 81.6801 78.01 81.4401 78 81.2301C77.98 80.7901 77.62 80.3401 77.14 80.3701L77.16 80.3801Z" fill="#4F0200"/>
<path d="M82.58 103.94C80.17 106.92 59.27 101.08 60.97 98.7501C62.66 96.4101 84.25 101.88 82.58 103.94Z" fill="#4D2A22"/>
<path d="M104.58 103.94C106.99 106.92 127.89 101.08 126.19 98.7501C124.5 96.4101 102.91 101.88 104.58 103.94Z" fill="#4D2A22"/>
<path d="M85.2002 109.8C85.2002 109.8 95.5702 116.29 101.17 108.61L85.2002 109.8Z" fill="#4F0200"/>
<path d="M125.7 25.21C83.7101 16.09 31.4101 19.6901 35.0101 84.2301C35.0101 84.2301 37.8701 87.31 40.3401 92.81C41.3401 95.04 44.5001 113.04 44.9401 92.18C45.0501 86.71 46.7801 80.3601 48.4201 74.4401C74.4801 79.5201 115.57 63.5701 124.43 56.8601C118.98 62.7001 105.98 73.61 83.7601 75.17C83.7601 75.17 119.11 76.7001 133.78 59.3101C141.5 69.9501 143.2 104.62 145.38 104.62C147.8 104.62 146.1 88.79 155.66 90.66C155.66 90.66 165.7 33.89 125.7 25.21Z" fill="#6C4B41"/>
<path d="M72.9001 38.2201C76.1101 40.4901 69.6901 45.2101 66.4801 44.0801C63.2701 42.9501 69.6901 35.9601 72.9001 38.2201Z" fill="#7C5850"/>
<path d="M69.78 29.4301C73.1 33.5001 63.65 40.8501 58.64 38.0601C53.63 35.2701 66.36 25.2301 69.78 29.4301Z" fill="#7C5850"/>
<path d="M94.2902 102.29C93.9502 102.94 93.6102 103.58 93.2802 104.23C93.1802 104.41 93.0802 104.59 93.0002 104.78L93.7802 104.68C93.5002 104.32 93.2102 103.97 92.9102 103.63C92.6102 103.29 92.2902 102.97 91.9602 102.66C91.7802 102.48 91.5902 102.3 91.4302 102.1L91.4802 102.17C91.4602 102.11 91.4302 102.06 91.4002 102C91.3402 101.88 91.1902 101.8 91.0602 101.8C90.9302 101.8 90.7802 101.87 90.7202 102C90.6502 102.14 90.6402 102.32 90.6202 102.47C90.6002 102.62 90.5802 102.79 90.5602 102.95C90.5302 103.22 90.5002 103.48 90.4802 103.75C90.4502 104.28 90.4402 104.8 90.4402 105.33C90.4402 105.48 90.4402 105.63 90.4402 105.78C90.4402 105.85 90.4402 105.92 90.4502 106C90.4602 106.08 90.4502 106.15 90.4802 106.22C90.5002 106.28 90.5402 106.35 90.5702 106.41C90.6002 106.47 90.6602 106.53 90.7202 106.56C90.8002 106.61 90.8902 106.62 90.9902 106.61C91.0702 106.6 91.1302 106.57 91.1902 106.53C91.2702 106.47 91.3102 106.4 91.3402 106.31C91.3502 106.28 91.3602 106.25 91.3702 106.22C91.3902 106.16 91.3902 106.08 91.3902 106.02C91.3902 105.96 91.3902 105.89 91.3902 105.82C91.3902 105.69 91.3802 105.56 91.3702 105.42C91.3702 105.16 91.3602 104.89 91.3602 104.63C91.3602 104.1 91.3802 103.58 91.4102 103.05C91.4102 102.91 91.4202 102.76 91.4302 102.62C91.4302 102.55 91.4302 102.48 91.4402 102.4C91.4402 102.29 91.4602 102.19 91.4402 102.08L90.8602 102.53C90.9102 102.56 90.9702 102.58 91.0202 102.61L90.9502 102.56C91.1802 102.77 91.3702 103.02 91.5602 103.26L91.5002 103.19C91.5502 103.25 91.5902 103.31 91.6402 103.37L91.5802 103.3C91.6702 103.43 91.7702 103.55 91.8602 103.68C91.9502 103.81 92.0402 103.94 92.1302 104.06C92.3202 104.31 92.5002 104.57 92.6802 104.83C92.7802 104.98 92.8802 105.13 92.9802 105.28C93.0802 105.43 93.2302 105.53 93.4102 105.53C93.5902 105.53 93.7502 105.44 93.8402 105.28C94.0202 104.96 94.1802 104.63 94.3502 104.31C94.5202 103.99 94.6902 103.66 94.8602 103.34C94.9602 103.16 95.0502 102.98 95.1502 102.79C95.2102 102.67 95.2402 102.54 95.2002 102.4C95.1702 102.28 95.0802 102.16 94.9702 102.1C94.8502 102.04 94.7102 102.01 94.5802 102.05C94.4602 102.09 94.3402 102.16 94.2802 102.28L94.2902 102.29Z" fill="#4F0200"/>
<g opacity="0.61" style="mix-blend-mode:multiply">
<path d="M73.4001 121.35C72.7801 125.31 68.0701 127.85 62.8701 127.04C57.6701 126.23 53.9601 122.36 54.5801 118.41C55.2001 114.45 59.9101 111.91 65.1101 112.72C70.3101 113.53 74.0201 117.4 73.4001 121.35Z" fill="#FCA691"/>
</g>
<g opacity="0.61" style="mix-blend-mode:multiply">
<path d="M134.98 116.43C135.79 120.35 132.28 124.39 127.13 125.46C121.98 126.53 117.14 124.22 116.33 120.3C115.52 116.38 119.03 112.34 124.18 111.27C129.33 110.2 134.17 112.51 134.98 116.43Z" fill="#FCA691"/>
</g>
</g>
<defs>
<clipPath id="clip0_254_1286">
<rect width="188.32" height="188.32" fill="white"/>
</clipPath>
</defs>
</svg>
