<svg width="189" height="189" viewBox="0 0 189 189" fill="none" xmlns="http://www.w3.org/2000/svg">
<g clip-path="url(#clip0_254_1296)">
<path d="M105.409 187.645C157.04 181.434 193.86 134.543 187.649 82.9122C181.437 31.2814 134.547 -5.53829 82.9158 0.67316C31.285 6.88461 -5.53469 53.7751 0.676754 105.406C6.8882 157.037 53.7786 193.856 105.409 187.645Z" fill="#BCEDF4"/>
<path d="M28.0901 61.2C24.5601 69.26 21.6201 78.82 20.1001 89.96C20.1001 89.96 3.22005 101.94 10.4401 117.42C16.3701 130.13 33.7401 129.71 33.7401 129.71C33.7401 129.71 41.7901 150.47 61.7001 152.59C61.7001 152.59 100.39 154.37 122.44 153.04C143.89 151.74 152.79 128.02 152.79 128.02C152.79 128.02 172.94 132.1 174.04 105.72C174.74 88.97 160.76 76.85 160.76 76.85C160.76 76.85 159.53 34.31 128.99 21.67C116.66 16.57 88.9101 15.58 72.0501 18.58C49.6801 22.55 37.2001 40.4 28.0901 61.22V61.2Z" fill="#4D2A22"/>
<path d="M94.1602 188.32C109.69 188.32 124.33 184.53 137.25 177.87C136.34 173.92 133.64 163.66 128.92 157.42C120.96 146.91 76.8302 143.78 66.6002 155.71C61.2902 161.91 57.3402 174.97 55.9102 180.2C67.6002 185.41 80.5402 188.32 94.1602 188.32Z" fill="#38AA6F"/>
<path d="M78.5002 149.71C73.2702 150.95 69.0002 152.91 66.6002 155.71C61.2902 161.91 57.3402 174.97 55.9102 180.2C62.4202 183.1 69.3302 185.26 76.5102 186.63C73.5602 173.27 76.6502 157.26 78.5002 149.71Z" fill="#E55041"/>
<path d="M114.69 186.05C122.63 184.28 130.2 181.5 137.25 177.87C136.34 173.92 133.64 163.66 128.92 157.42C126.39 154.08 120.21 151.49 112.62 149.89C114.45 157.39 117.41 172.91 114.69 186.06V186.05Z" fill="#E55041"/>
<path d="M97.7302 155.95C97.3702 155.83 91.3402 164.66 88.4802 162.88C85.6202 161.1 81.1202 151.36 83.1502 149.46C85.1702 147.56 109.82 147.74 110.25 150.32C110.58 152.33 108.44 164.42 105.35 163.83C102.26 163.24 97.7402 155.96 97.7402 155.96L97.7302 155.95Z" fill="#F9F1E4"/>
<path d="M65.5301 157.07C65.2501 157.45 64.9801 157.85 64.7101 158.27C64.6701 158.34 64.6301 158.41 64.5801 158.47C64.3401 158.85 64.1001 159.24 63.8601 159.65C63.8101 159.74 63.7501 159.83 63.7001 159.92C63.4401 160.37 63.1901 160.83 62.9501 161.29C62.8901 161.4 62.8401 161.51 62.7801 161.61C62.5601 162.04 62.3401 162.47 62.1301 162.92C62.1001 162.99 62.0601 163.06 62.0301 163.13C61.8001 163.62 61.5701 164.12 61.3401 164.62C61.2801 164.75 61.2201 164.88 61.1701 165.01C60.9501 165.51 60.7301 166.01 60.5201 166.52C60.5001 166.57 60.4801 166.63 60.4501 166.68C60.2501 167.15 60.0701 167.63 59.8801 168.1C59.8301 168.23 59.7801 168.35 59.7301 168.48C59.5401 168.98 59.3501 169.48 59.1601 169.97C59.1201 170.07 59.0901 170.17 59.0501 170.28C58.8901 170.72 58.7301 171.16 58.5801 171.59C58.5501 171.69 58.5101 171.78 58.4801 171.88C58.3101 172.37 58.1501 172.85 57.9901 173.32C57.9501 173.43 57.9201 173.54 57.8801 173.65C57.7301 174.1 57.5901 174.55 57.4501 174.98C57.4501 175.01 57.4301 175.03 57.4201 175.06C57.2701 175.52 57.1301 175.97 57.0001 176.4C56.9701 176.49 56.9501 176.57 56.9201 176.66C56.7901 177.09 56.6701 177.5 56.5501 177.9C56.5501 177.9 56.5501 177.92 56.5501 177.93C56.4301 178.34 56.3201 178.73 56.2101 179.1C56.2101 179.12 56.2001 179.14 56.1901 179.17C56.0801 179.54 55.9901 179.89 55.9001 180.21C60.9001 182.44 66.1401 184.21 71.5501 185.55C71.6801 170.69 69.3201 159.6 67.4301 154.86C67.1301 155.14 66.8401 155.42 66.5901 155.72C66.2901 156.07 66.0001 156.44 65.7101 156.83C65.6501 156.92 65.5801 157 65.5201 157.09L65.5301 157.07Z" fill="#CA2F16"/>
<path d="M136.83 176.16C136.83 176.16 136.82 176.11 136.81 176.09C136.73 175.78 136.65 175.45 136.56 175.11C136.55 175.06 136.53 175.01 136.52 174.96C136.43 174.62 136.33 174.28 136.23 173.91C136.23 173.9 136.23 173.88 136.22 173.87C136.12 173.51 136.01 173.14 135.9 172.77C135.87 172.68 135.85 172.59 135.82 172.51C135.71 172.13 135.59 171.75 135.46 171.35C135.44 171.3 135.43 171.24 135.41 171.19C135.3 170.84 135.18 170.48 135.06 170.12C135.03 170.02 134.99 169.92 134.96 169.82C134.83 169.42 134.69 169.02 134.54 168.61C134.51 168.52 134.47 168.42 134.44 168.33C134.31 167.96 134.17 167.59 134.02 167.21C133.99 167.14 133.97 167.07 133.94 167C133.78 166.59 133.61 166.17 133.44 165.75C133.4 165.64 133.35 165.53 133.3 165.42C133.12 165 132.94 164.57 132.75 164.15C132.73 164.11 132.71 164.07 132.7 164.03C132.52 163.63 132.34 163.24 132.15 162.85C132.1 162.76 132.06 162.66 132.01 162.57C131.81 162.16 131.6 161.75 131.39 161.35C131.35 161.27 131.31 161.2 131.27 161.12C131.07 160.76 130.87 160.4 130.66 160.05C130.62 159.99 130.59 159.92 130.55 159.86C130.32 159.47 130.08 159.1 129.84 158.73C129.79 158.65 129.73 158.57 129.68 158.49C129.43 158.12 129.17 157.75 128.91 157.4C128.64 157.05 128.34 156.71 127.99 156.38C127.93 156.32 127.85 156.26 127.78 156.2C127.48 155.92 127.15 155.64 126.8 155.38C126.75 155.34 126.69 155.3 126.64 155.26C126.24 154.97 125.82 154.68 125.36 154.41C125.34 154.4 125.32 154.39 125.3 154.38C124.8 154.08 124.27 153.79 123.71 153.51C120.72 160.76 121.31 173.98 122.61 183.93C127.69 182.32 132.6 180.29 137.27 177.88C137.16 177.4 137.02 176.82 136.86 176.17L136.83 176.16Z" fill="#CA2F16"/>
<path d="M100.83 142.02L101.63 151.98L97.5302 155.88L93.4802 152.18L93.0002 141.93L100.83 142.02Z" fill="#FDC59D"/>
<path d="M100.83 142.02L93.0002 141.93L93.3202 148.78L101.4 149.06L100.83 142.02Z" fill="#EEA47D"/>
<path d="M162.23 105.8C161.9 115.35 154.52 122.85 145.77 122.54C137.01 122.23 130.19 114.24 130.52 104.69C130.85 95.14 138.22 87.6399 146.98 87.9499C155.74 88.2599 162.56 96.25 162.23 105.8Z" fill="#FDC59D"/>
<path d="M158.98 105.47C158.78 111.1 154.44 115.52 149.27 115.34C144.11 115.16 140.08 110.45 140.28 104.81C140.48 99.18 144.82 94.76 149.99 94.94C155.15 95.12 159.18 99.83 158.98 105.47Z" fill="#EEA47D"/>
<path d="M57.0601 100.56C56.7301 110.11 49.3601 117.61 40.6001 117.3C31.8401 116.99 25.0201 109 25.3501 99.45C25.6901 89.9 33.0601 82.4 41.8101 82.71C50.5701 83.02 57.3901 91.01 57.0601 100.56Z" fill="#FDC59D"/>
<path d="M50.2601 100.18C50.0601 105.81 45.7201 110.23 40.5501 110.05C35.3901 109.87 31.3601 105.16 31.5601 99.52C31.7601 93.89 36.1001 89.47 41.2701 89.65C46.4301 89.83 50.4601 94.54 50.2601 100.18Z" fill="#EEA47D"/>
<path d="M105.12 50.39L86.99 49.75C44.6 52.62 44.09 71.12 43.27 94.45L43.03 101.42C42.21 124.75 60.46 144.32 83.79 145.14L101.92 145.78C125.25 146.6 144.82 128.35 145.64 105.02L145.88 98.05C146.7 74.72 152.61 51.53 105.12 50.39Z" fill="#FDC59D"/>
<path d="M42.4902 88.3L49.1002 90.76" stroke="#4D2A22" stroke-width="2" stroke-miterlimit="10"/>
<path d="M137.41 89.59L145.7 84.93" stroke="#4D2A22" stroke-width="2" stroke-miterlimit="10"/>
<path d="M109.37 78.23C109.92 78.21 110.46 78.2 111.01 78.23C111.56 78.26 112.11 78.32 112.65 78.4L112.39 78.36C112.88 78.43 113.37 78.49 113.86 78.55L113.59 78.51C115.83 78.81 118.02 79.42 120.1 80.29L119.85 80.18C120.11 80.29 120.36 80.44 120.66 80.43C120.84 80.43 121.03 80.39 121.21 80.37C121.47 80.33 121.69 80.09 121.78 79.86C121.88 79.61 121.89 79.31 121.74 79.07C121.57 78.8 121.38 78.53 121.08 78.41C120.82 78.3 120.55 78.19 120.29 78.08C119.93 77.94 119.57 77.8 119.2 77.68C118.46 77.43 117.7 77.21 116.94 77.03C116.18 76.85 115.4 76.71 114.62 76.6C114.16 76.54 113.71 76.48 113.25 76.44C112.85 76.41 112.44 76.41 112.04 76.41C111.16 76.41 110.27 76.44 109.4 76.5C109.17 76.52 108.96 76.58 108.8 76.75C108.65 76.9 108.54 77.14 108.55 77.35C108.57 77.8 108.93 78.22 109.41 78.21L109.37 78.23Z" fill="#4F0200"/>
<path d="M78.9401 77.89C78.1601 77.8 77.3701 77.76 76.5801 77.71C75.7901 77.66 75.0101 77.67 74.2301 77.74C72.5901 77.89 70.9601 78.17 69.3801 78.63C68.9501 78.75 68.5301 78.89 68.1001 79.04C67.9001 79.11 67.7001 79.18 67.5001 79.26C67.2601 79.35 67.0201 79.43 66.8401 79.62C66.7201 79.75 66.6201 79.89 66.5201 80.03C66.2101 80.47 66.5201 81.23 67.0501 81.33C67.2101 81.36 67.3701 81.38 67.5301 81.4L67.2601 81.36C67.4901 81.39 67.6801 81.43 67.9201 81.36C67.9901 81.34 68.0501 81.31 68.1201 81.28C68.2401 81.24 68.3501 81.19 68.4701 81.15C68.7201 81.06 68.9801 80.97 69.2301 80.89C69.7301 80.73 70.2401 80.58 70.7501 80.44C71.7801 80.17 72.8201 79.96 73.8701 79.82L73.6001 79.86C74.0401 79.8 74.4901 79.75 74.9301 79.72C75.3701 79.69 75.8201 79.63 76.2701 79.59C77.1601 79.52 78.0501 79.53 78.9501 79.59C79.4001 79.62 79.8301 79.17 79.8101 78.73C79.8101 78.51 79.7301 78.28 79.5601 78.13C79.3801 77.97 79.1901 77.91 78.9601 77.88L78.9401 77.89Z" fill="#4F0200"/>
<path d="M85.9501 107.66C86.2901 108.12 86.6301 108.55 87.0601 108.93C87.4901 109.31 87.9401 109.64 88.4301 109.92C89.4101 110.49 90.4801 110.89 91.6001 111.1C93.8501 111.51 96.1701 111.08 98.1401 109.94C99.2501 109.3 100.21 108.44 100.99 107.43C101.12 107.26 101.02 106.97 100.84 106.87C100.63 106.75 100.42 106.84 100.28 107.02C99.0301 108.65 97.1901 109.79 95.2001 110.25C93.2101 110.71 91.0001 110.44 89.1401 109.49C88.6201 109.22 88.1101 108.9 87.6301 108.55C87.1501 108.2 86.6801 107.82 86.2801 107.39C86.1101 107.21 85.7901 107.45 85.9401 107.66H85.9501Z" fill="#4F0200"/>
<path d="M90.4301 113.86C91.2401 114.23 92.1101 114.44 93.0001 114.49C93.4501 114.52 93.9001 114.48 94.3501 114.41C94.7701 114.35 95.1801 114.24 95.5801 114.1C95.8001 114.02 96.0101 113.93 96.2201 113.83C96.3201 113.78 96.4101 113.74 96.5101 113.69C96.6201 113.63 96.7401 113.58 96.8301 113.5C96.9801 113.37 97.0201 113.14 96.8701 112.99C96.7001 112.82 96.4801 112.91 96.3101 113.01C96.2101 113.06 96.1201 113.11 96.0201 113.15C95.9701 113.17 95.9301 113.19 95.8801 113.21C95.8701 113.21 95.7901 113.25 95.8401 113.23C95.8901 113.21 95.8001 113.24 95.7901 113.25C95.4001 113.41 94.9901 113.53 94.5701 113.62C94.4701 113.64 94.3701 113.66 94.2601 113.68C94.2101 113.68 94.1601 113.7 94.1101 113.7C94.1001 113.7 94.0901 113.7 94.0701 113.7C94.0701 113.7 94.1501 113.69 94.1101 113.7C94.0801 113.7 94.0501 113.7 94.0201 113.71C93.8101 113.73 93.6001 113.75 93.3801 113.75C92.9501 113.76 92.5301 113.75 92.1101 113.7C92.0701 113.7 92.1401 113.7 92.1401 113.7C92.1301 113.7 92.1101 113.7 92.1001 113.7C92.0801 113.7 92.0501 113.7 92.0301 113.69C91.9801 113.69 91.9201 113.67 91.8701 113.66C91.7601 113.64 91.6601 113.62 91.5501 113.59C91.3401 113.54 91.1401 113.48 90.9401 113.41C90.8401 113.38 90.7401 113.34 90.6501 113.3C90.5101 113.24 90.3401 113.35 90.2901 113.48C90.2401 113.61 90.2801 113.8 90.4101 113.86H90.4301Z" fill="#4F0200"/>
<path d="M99.99 107.41C99.99 107.41 100.05 107.38 100.08 107.37L100.01 107.4C100.08 107.37 100.15 107.35 100.22 107.34H100.14C100.2 107.34 100.27 107.34 100.34 107.34H100.25C100.33 107.34 100.42 107.36 100.49 107.4L100.41 107.37C100.48 107.4 100.55 107.44 100.62 107.49L100.55 107.43C100.61 107.47 100.66 107.52 100.7 107.58L100.64 107.5C100.64 107.5 100.67 107.55 100.69 107.57C100.69 107.58 100.7 107.59 100.71 107.61C100.73 107.65 100.76 107.69 100.79 107.72L100.87 107.78C100.87 107.78 100.96 107.82 101.02 107.83C101.05 107.83 101.09 107.83 101.12 107.83C101.17 107.83 101.22 107.81 101.27 107.78L101.35 107.72L101.41 107.64C101.41 107.64 101.45 107.55 101.46 107.49C101.47 107.44 101.46 107.39 101.46 107.33C101.46 107.29 101.44 107.25 101.42 107.22C101.41 107.2 101.39 107.18 101.38 107.17C101.36 107.15 101.35 107.12 101.33 107.1C101.32 107.08 101.3 107.07 101.28 107.05C101.23 107 101.16 106.95 101.1 106.91C101.06 106.88 101.02 106.86 100.98 106.84C100.91 106.81 100.84 106.78 100.77 106.75C100.73 106.74 100.68 106.72 100.64 106.72C100.57 106.71 100.49 106.7 100.42 106.69C100.37 106.69 100.33 106.69 100.28 106.69C100.21 106.69 100.13 106.7 100.06 106.72C99.98 106.74 99.92 106.77 99.84 106.8C99.79 106.82 99.75 106.85 99.7 106.88C99.66 106.9 99.64 106.92 99.62 106.96C99.59 106.99 99.58 107.02 99.57 107.06C99.56 107.1 99.56 107.14 99.57 107.18C99.57 107.22 99.58 107.26 99.61 107.29C99.65 107.35 99.71 107.41 99.79 107.43H99.87C99.92 107.44 99.97 107.43 100.02 107.4L99.99 107.41Z" fill="#4F0200"/>
<path d="M104.79 122.91C105.43 122.91 105.43 121.92 104.79 121.92C104.15 121.92 104.15 122.91 104.79 122.91Z" fill="#4F0200"/>
<path d="M149.81 121.41C152.295 121.41 154.31 119.395 154.31 116.91C154.31 114.425 152.295 112.41 149.81 112.41C147.325 112.41 145.31 114.425 145.31 116.91C145.31 119.395 147.325 121.41 149.81 121.41Z" fill="#CA2F16"/>
<path d="M148.15 117.77C148.15 117.77 148.77 115.97 150.35 115.18C150.35 115.18 151.48 116.53 151.82 118.22C151.82 118.22 150.19 119.12 148.16 117.77H148.15Z" fill="#A90D00"/>
<path d="M149.19 116.72C149.19 116.72 149.69 116.22 150.68 116.4C150.68 116.4 150.68 117.57 150.14 117.84C150.14 117.84 149.28 117.61 149.19 116.71V116.72Z" fill="#7C0E09"/>
<path d="M147.92 114.77C147.92 114.77 150.49 112.62 152.62 115.4C152.62 115.4 150.77 114.28 147.92 114.77Z" fill="#A90D00"/>
<path d="M153.26 117.49C153.26 117.49 154.03 121.15 149.15 119.97C149.15 119.97 151.63 119.74 153.26 117.49Z" fill="#A90D00"/>
<path d="M147.12 115.46C147.12 115.46 145.36 117.76 148.43 119.48C148.43 119.48 147.21 116.59 147.12 115.46Z" fill="#A90D00"/>
<path d="M42.4202 112.87C42.4202 115.35 40.4102 117.37 37.9202 117.37C35.4302 117.37 33.4202 115.36 33.4202 112.87C33.4202 110.38 35.4302 108.37 37.9202 108.37C40.4102 108.37 42.4202 110.38 42.4202 112.87Z" fill="#CA2F16"/>
<path d="M36.2603 113.73C36.2603 113.73 36.8803 111.93 38.4603 111.14C38.4603 111.14 39.5903 112.49 39.9303 114.18C39.9303 114.18 38.3003 115.08 36.2703 113.73H36.2603Z" fill="#A90D00"/>
<path d="M37.3101 112.68C37.3101 112.68 37.8101 112.18 38.8001 112.36C38.8001 112.36 38.8001 113.53 38.2601 113.8C38.2601 113.8 37.4001 113.57 37.3101 112.67V112.68Z" fill="#7C0E09"/>
<path d="M36.0303 110.73C36.0303 110.73 38.6003 108.58 40.7303 111.36C40.7303 111.36 38.8803 110.24 36.0303 110.73Z" fill="#A90D00"/>
<path d="M41.3703 113.45C41.3703 113.45 42.1403 117.11 37.2603 115.93C37.2603 115.93 39.7403 115.7 41.3703 113.45Z" fill="#A90D00"/>
<path d="M35.2302 111.42C35.2302 111.42 33.4702 113.72 36.5402 115.44C36.5402 115.44 35.3202 112.55 35.2302 111.42Z" fill="#A90D00"/>
<path d="M125.7 25.21C83.7101 16.09 31.4101 19.69 35.0101 84.23C35.0101 84.23 37.8701 87.31 40.3401 92.81C41.3401 95.04 44.6101 94.61 44.9401 92.18C45.6701 86.76 53.5101 66.68 55.1501 60.77C60.4701 61.55 65.8001 62.07 71.0301 62.41C66.7501 64.91 62.0101 66.91 57.3501 67.36C57.3501 67.36 86.2501 77.51 99.2701 63.09C99.2701 63.09 90.5001 76.58 69.5701 75.65C69.5701 75.65 101.63 91.87 129.69 60.04C129.76 60.04 129.82 60.03 129.89 60.02C129.94 61.83 130.71 76.31 142.08 84.95C143.57 95.2 144.18 104.62 145.36 104.62C147.78 104.62 146.08 88.79 155.64 90.66C155.64 90.66 165.68 33.89 125.68 25.21H125.7Z" fill="#4D2A22"/>
<path d="M72.9001 38.22C76.1101 40.49 69.6901 45.21 66.4801 44.08C63.2701 42.95 69.6901 35.96 72.9001 38.22Z" fill="#7C5850"/>
<path d="M69.78 29.43C73.1 33.5 63.65 40.85 58.64 38.06C53.63 35.28 66.36 25.23 69.78 29.43Z" fill="#7C5850"/>
<path d="M113.53 112.65C119.4 112.65 124.15 107.88 124.15 102.01V96.38C124.14 90.51 119.37 85.76 113.5 85.77C107.63 85.77 102.88 90.54 102.88 96.41V102.04C102.89 107.91 107.66 112.66 113.53 112.65Z" fill="#F7FFFA"/>
<path d="M102.88 96.41C102.88 93.23 104.27 90.39 106.48 88.44C107.32 88.14 108.2 87.96 109.12 87.96C114.3 87.96 118.5 93.13 118.51 99.51C118.51 105.9 114.33 111.08 109.15 111.09C108.68 111.09 108.22 111.03 107.77 110.95C104.84 109.06 102.89 105.78 102.89 102.03V96.4L102.88 96.41Z" fill="#4D2A22"/>
<path d="M73.9101 112.65C68.0401 112.73 63.2201 108.04 63.1301 102.17L63.0501 96.54C62.9701 90.67 67.6601 85.85 73.5301 85.76C79.4001 85.68 84.2201 90.37 84.3101 96.24L84.3901 101.87C84.4701 107.74 79.7801 112.56 73.9101 112.65Z" fill="#F7FFFA"/>
<path d="M84.31 96.24C84.26 93.06 82.82 90.24 80.59 88.32C79.75 88.03 78.86 87.87 77.94 87.88C72.76 87.95 68.64 93.19 68.73 99.58C68.82 105.97 73.09 111.09 78.27 111.01C78.74 111.01 79.2 110.94 79.65 110.85C82.55 108.92 84.45 105.6 84.4 101.86L84.32 96.23L84.31 96.24Z" fill="#4D2A22"/>
<path d="M89.2402 97.27C89.2402 108.67 80.0002 117.91 68.6002 117.91C57.2002 117.91 47.9602 108.67 47.9602 97.27C47.9602 85.87 56.6302 81.44 68.0302 81.44C79.4302 81.44 89.2302 85.87 89.2302 97.27H89.2402Z" stroke="#4D2A22" stroke-width="2" stroke-miterlimit="10"/>
<path d="M97.4802 97.27C97.4802 108.67 106.72 117.91 118.12 117.91C129.52 117.91 138.76 108.67 138.76 97.27C138.76 85.87 130.09 81.44 118.69 81.44C107.29 81.44 97.4902 85.87 97.4902 97.27H97.4802Z" stroke="#4D2A22" stroke-width="2" stroke-miterlimit="10"/>
<path d="M88.7202 101.25C88.7202 101.25 92.4802 98.53 98.1702 101.38" stroke="#4D2A22" stroke-width="1.5" stroke-miterlimit="10"/>
<path d="M94.2902 100.99C93.9502 101.64 93.6102 102.28 93.2802 102.93C93.1802 103.11 93.0802 103.29 93.0002 103.48L93.7802 103.38C93.5002 103.02 93.2102 102.67 92.9102 102.33C92.6102 101.99 92.2902 101.67 91.9602 101.36C91.7802 101.18 91.5902 101 91.4302 100.8L91.4802 100.87C91.4602 100.81 91.4302 100.76 91.4002 100.7C91.3402 100.58 91.1902 100.5 91.0602 100.5C90.9302 100.5 90.7802 100.57 90.7202 100.7C90.6502 100.84 90.6402 101.02 90.6202 101.17C90.6002 101.32 90.5802 101.49 90.5602 101.65C90.5302 101.92 90.5002 102.18 90.4802 102.45C90.4502 102.98 90.4402 103.5 90.4402 104.03C90.4402 104.18 90.4402 104.33 90.4402 104.48C90.4402 104.55 90.4402 104.62 90.4502 104.7C90.4602 104.78 90.4502 104.85 90.4802 104.92C90.5002 104.98 90.5402 105.05 90.5702 105.11C90.6002 105.17 90.6602 105.23 90.7202 105.26C90.8002 105.31 90.8902 105.32 90.9902 105.31C91.0702 105.3 91.1302 105.27 91.1902 105.23C91.2702 105.17 91.3102 105.1 91.3402 105.01C91.3502 104.98 91.3602 104.95 91.3702 104.92C91.3902 104.86 91.3902 104.78 91.3902 104.72C91.3902 104.66 91.3902 104.59 91.3902 104.52C91.3902 104.39 91.3802 104.26 91.3702 104.12C91.3702 103.86 91.3602 103.59 91.3602 103.33C91.3602 102.8 91.3802 102.28 91.4102 101.75C91.4102 101.61 91.4202 101.46 91.4302 101.32C91.4302 101.25 91.4302 101.18 91.4402 101.1C91.4402 100.99 91.4602 100.89 91.4402 100.78L90.8602 101.23C90.9102 101.26 90.9702 101.28 91.0202 101.31L90.9502 101.26C91.1802 101.47 91.3702 101.72 91.5602 101.96L91.5002 101.89C91.5502 101.95 91.5902 102.01 91.6402 102.07L91.5802 102C91.6702 102.13 91.7702 102.25 91.8602 102.38C91.9502 102.51 92.0402 102.64 92.1302 102.76C92.3202 103.01 92.5002 103.27 92.6802 103.53C92.7802 103.68 92.8802 103.83 92.9802 103.98C93.0802 104.13 93.2302 104.23 93.4102 104.23C93.5902 104.23 93.7502 104.14 93.8402 103.98C94.0202 103.66 94.1802 103.33 94.3502 103.01C94.5202 102.69 94.6902 102.36 94.8602 102.04C94.9602 101.86 95.0502 101.68 95.1502 101.49C95.2102 101.37 95.2402 101.24 95.2002 101.1C95.1702 100.98 95.0802 100.86 94.9702 100.8C94.8502 100.74 94.7102 100.71 94.5802 100.75C94.4602 100.79 94.3402 100.86 94.2802 100.98L94.2902 100.99Z" fill="#4F0200"/>
<g opacity="0.61" style="mix-blend-mode:multiply">
<path d="M73.4001 121.35C72.7801 125.31 68.0701 127.85 62.8701 127.04C57.6701 126.23 53.9601 122.36 54.5801 118.41C55.2001 114.45 59.9101 111.91 65.1101 112.72C70.3101 113.53 74.0201 117.4 73.4001 121.35Z" fill="#FCA691"/>
</g>
<g opacity="0.61" style="mix-blend-mode:multiply">
<path d="M134.98 116.43C135.79 120.35 132.28 124.39 127.13 125.46C121.98 126.53 117.14 124.22 116.33 120.3C115.52 116.38 119.03 112.34 124.18 111.27C129.33 110.2 134.17 112.51 134.98 116.43Z" fill="#FCA691"/>
</g>
</g>
<defs>
<clipPath id="clip0_254_1296">
<rect width="188.32" height="188.32" fill="white"/>
</clipPath>
</defs>
</svg>
