<svg width="204" height="208" viewBox="0 0 204 208" fill="none" xmlns="http://www.w3.org/2000/svg">
<g clip-path="url(#clip0_254_1284)">
<path d="M101.76 207.76C157.96 207.76 203.52 161.251 203.52 103.88C203.52 46.5087 157.96 0 101.76 0C45.5595 0 0 46.5087 0 103.88C0 161.251 45.5595 207.76 101.76 207.76Z" fill="#FBF3D5"/>
<path d="M105.46 45.22C107.28 45.32 109.05 45.42 110.75 45.5C107.63 57.28 105.85 70.37 106.59 83.14L103 83.37C102.06 68.97 96.4901 55.32 83.8901 47.43C91.0801 45.56 98.5301 44.81 105.46 45.22Z" fill="#ECE9F4"/>
<path d="M117.53 118.84C129.55 136.96 154.44 147.11 175.68 142.58C172.84 152.31 166.37 160.46 157.39 166.55C144.58 175.25 128.44 177.46 113.32 178.1C98.1801 178.75 82.6101 178.36 67.9701 174.13C54.1201 170.11 40.8401 162.27 32.8701 149.97C32.5901 149.52 32.3301 149.06 32.0601 148.61C45.7401 149.87 60.0801 149.93 72.8801 144.28C85.3701 138.77 92.7601 128.84 97.7001 116.38C101.57 106.59 103.74 94.77 103.01 83.39L106.6 83.16C107.34 95.93 110.6 108.37 117.54 118.85L117.53 118.84Z" fill="#ECE9F4"/>
<path d="M177.27 129.3C177.43 133.22 177.07 136.96 176.23 140.5C176.05 140.41 175.82 140.39 175.56 140.44C153.06 145.45 127.36 133.56 116.5 113.31C104.89 91.67 109.43 68.67 111.7 45.56C116.18 45.8 120.2 46.01 123.53 46.44C127.21 37.25 134.85 27.68 146.12 30.07C152.6 31.45 157.77 36.3 158.12 43C158.63 52.66 150.43 60.82 150 61.25C156.81 68.23 161.92 77 166.02 85.71C172.42 99.23 176.63 114.32 177.24 129.31L177.27 129.3Z" fill="#E17E45"/>
<path d="M82.7402 47.75C102.55 64.14 104.48 91.68 95.7102 114.58C90.8102 127.36 82.9502 137.69 69.8902 142.77C57.6202 147.55 44.3502 147.07 31.4602 146.06C31.1502 146.03 19.7502 131.08 30.7602 106.19C35.5602 95.34 40.8902 83.83 47.8302 73.75C48.2802 73.18 48.1602 72.69 47.6302 72.44C36.2102 67.16 27.3202 53.45 38.2702 42.66C48.9102 32.15 64.8302 39.37 69.1202 52.17C69.5502 53.46 78.8502 48.84 82.7402 47.74V47.75Z" fill="#E17E45"/>
<path d="M173.38 98.16C178.23 112.59 182.59 131.04 177.13 145.85C172.55 158.32 161.85 167.52 149.93 172.77C134.53 179.55 117.05 180.38 100.47 180.18C84.02 179.98 67.18 177.77 52.5 169.91C39.9 163.17 29.5 152.27 25.43 138.35C21.03 123.3 26.71 109.45 33.21 95.97C36.77 88.55 40.7901 80.57 45.6301 73.22C32.2801 67.98 25.6201 51.24 37.4901 40.47C49.0501 29.97 65.36 36.88 70.82 49.89C80.31 45.49 91.52 43.43 103.43 43.5C110.1 43.43 116.57 43.8 122.73 44.92C124.94 33.06 138.76 23.98 150.34 28.93C155.96 31.33 159.9 36.56 160.73 42.62C161.71 49.96 157.65 55.72 153.27 61.15C153.21 61.21 153.16 61.24 153.1 61.29C162.61 71.55 169.09 85.36 173.42 98.15L173.38 98.16ZM176.23 140.49C177.07 136.96 177.42 133.21 177.27 129.29C176.66 114.29 172.45 99.21 166.05 85.69C161.95 76.98 156.84 68.21 150.03 61.23C150.46 60.8 158.66 52.65 158.15 42.98C157.8 36.28 152.63 31.43 146.15 30.05C134.88 27.67 127.24 37.23 123.56 46.42C120.23 45.99 116.21 45.78 111.73 45.54C111.77 45.03 111.83 44.53 111.87 44.02C111.9 43.62 111.27 43.57 111.17 43.93C111.03 44.45 110.89 44.97 110.76 45.49C109.06 45.41 107.28 45.31 105.47 45.21C98.55 44.8 91.1001 45.55 83.9001 47.42C96.5001 55.31 102.08 68.96 103.01 83.36C103.75 94.74 101.58 106.56 97.7 116.35C92.76 128.81 85.37 138.74 72.88 144.25C60.08 149.9 45.7401 149.84 32.0601 148.58C32.3301 149.03 32.58 149.49 32.87 149.94C40.84 162.24 54.1301 170.09 67.9701 174.1C82.6101 178.33 98.18 178.73 113.32 178.07C128.45 177.43 144.58 175.22 157.39 166.52C166.37 160.43 172.84 152.29 175.68 142.55C175.84 142.54 175.98 142.49 176.13 142.46C177.22 142.22 177.05 140.81 176.23 140.46V140.49ZM95.71 114.58C104.48 91.68 102.55 64.14 82.74 47.75C78.85 48.84 69.5401 53.47 69.1201 52.18C64.8301 39.38 48.9101 32.16 38.2701 42.67C27.3301 53.47 36.2101 67.18 47.6301 72.45C48.1501 72.69 48.2801 73.19 47.8301 73.76C40.8901 83.83 35.56 95.34 30.76 106.2C19.75 131.09 31.14 146.04 31.46 146.07C44.34 147.08 57.61 147.56 69.89 142.78C82.96 137.7 90.82 127.37 95.71 114.59V114.58Z" fill="#222221"/>
<path d="M176.23 140.49C177.05 140.84 177.22 142.25 176.13 142.49C175.97 142.52 175.83 142.56 175.68 142.58C175.89 141.9 176.08 141.2 176.23 140.49Z" fill="#222221"/>
<path d="M175.57 140.44C175.83 140.38 176.05 140.41 176.24 140.5C176.08 141.21 175.9 141.9 175.69 142.59C154.45 147.12 129.56 136.97 117.54 118.85C110.6 108.38 107.34 95.93 106.6 83.16C105.86 70.39 107.64 57.29 110.76 45.52C111.09 45.53 111.4 45.55 111.72 45.56C109.45 68.67 104.91 91.68 116.52 113.31C127.37 133.56 153.07 145.45 175.58 140.44H175.57Z" fill="#222221"/>
<g opacity="0.6" style="mix-blend-mode:multiply">
<path d="M156.83 142.99C154.2 148.28 151.13 153.34 147.63 158.06C142.04 165.59 135.26 171.69 127.76 176.86C138.27 175.41 148.6 172.5 157.38 166.54C166.36 160.45 172.83 152.31 175.67 142.57C169.56 143.87 163.15 143.95 156.82 142.99H156.83Z" fill="#DFDCEE"/>
</g>
<g opacity="0.6" style="mix-blend-mode:multiply">
<path d="M137.36 30.69C143.02 31.47 149.93 33.67 152.74 39.14C155.96 45.4 152.1 51.95 147.89 56.8C149.09 57.75 150.24 58.75 151.34 59.79C153.74 56.99 158.54 50.44 158.14 42.98C157.79 36.28 152.62 31.43 146.14 30.05C142.91 29.37 139.98 29.69 137.35 30.68C137.35 30.68 137.35 30.68 137.36 30.68V30.69Z" fill="#E17E45"/>
</g>
<g opacity="0.6" style="mix-blend-mode:multiply">
<path d="M177.27 129.3C176.66 114.3 172.45 99.22 166.05 85.7C166.01 85.61 165.96 85.51 165.91 85.42C166.17 86.52 166.4 87.63 166.59 88.76C168.65 100.95 167.22 113.55 163.75 125.36C162.17 130.73 160.15 135.99 157.75 141.08C163.69 141.9 169.73 141.75 175.56 140.45C175.82 140.39 176.04 140.42 176.23 140.51C177.07 136.98 177.42 133.23 177.27 129.31V129.3Z" fill="#E17E45"/>
</g>
<g opacity="0.6" style="mix-blend-mode:multiply">
<path d="M63.48 57.13C69.9 53.69 76.57 50.71 83.48 48.39C83.23 48.18 83 47.96 82.74 47.75C78.85 48.84 69.54 53.47 69.12 52.18C64.89 39.55 49.35 32.37 38.71 42.27C47.8 41.53 57.49 50.24 63.48 57.13Z" fill="#E17E45"/>
</g>
<g opacity="0.6" style="mix-blend-mode:soft-light">
<path d="M44.0301 91.32C36.8501 98.87 33.7601 110.67 32.8001 120.75C32.7501 121.22 33.5601 121.34 33.6301 120.86C35.2301 109.87 40.0201 101.72 45.1001 92.14C45.4501 91.47 44.5801 90.72 44.0201 91.31L44.0301 91.32Z" fill="white"/>
</g>
<path d="M80.26 72.34C79.86 73.21 79.61 74.12 79.41 75.04C78.5 73.15 77.81 71.2 77.36 69.14C77.29 68.81 76.79 68.75 76.63 69.04C76.31 69.65 75.94 70.2 75.51 70.71C75.73 69.59 75.82 68.47 75.68 67.31C75.66 67.16 75.42 67.09 75.39 67.27C75.14 68.87 74.85 70.44 74.35 71.99C74.22 72.4 74.75 72.64 75.03 72.39C75.75 71.76 76.34 71.08 76.83 70.3C77.39 72.45 78.17 74.51 79.21 76.49C79.41 76.88 79.93 76.65 79.96 76.29C80.08 75 80.42 73.78 80.66 72.52C80.71 72.28 80.35 72.09 80.24 72.34H80.26Z" fill="#222221"/>
<path d="M124.32 65.97C124.31 65.66 123.85 65.58 123.77 65.9C123.37 67.34 123.98 68.7 124.27 70.11C123.45 69.27 122.74 68.36 122.18 67.3C122 66.97 121.56 67.16 121.52 67.48C121.34 69.23 121.07 70.95 120.69 72.65C120.29 71.05 119.68 69.53 118.8 68.1C118.64 67.85 118.28 68.07 118.41 68.33C119.35 70.36 119.99 72.4 120.21 74.63C120.26 75.1 120.91 75.24 121.06 74.74C121.68 72.74 122.05 70.69 122.17 68.61C122.85 69.63 123.61 70.57 124.52 71.44C124.76 71.67 125.19 71.51 125.19 71.16C125.19 69.38 124.39 67.75 124.32 65.97Z" fill="#222221"/>
<path d="M111.16 43.95C111.26 43.58 111.88 43.64 111.86 44.04C111.82 44.55 111.76 45.05 111.72 45.56C111.39 45.55 111.08 45.53 110.76 45.52C110.89 45 111.03 44.48 111.17 43.96L111.16 43.95Z" fill="#222221"/>
<path d="M79.7 128.58C79.23 130.96 77.49 133.89 74.63 132.69C70.44 130.96 70.08 119.31 74.56 119.95C79.74 119.92 80.24 125.88 79.7 128.58Z" fill="#222221"/>
<path d="M76.4901 105.08C77.0601 105.69 76.6601 106.73 75.7901 106.74C73.9001 106.77 72.4001 106.03 70.5401 106.94C68.5401 107.92 67.8301 109.75 67.0201 111.67C66.8801 112.01 66.4101 112.05 66.2801 111.67C65.4701 109.24 67.0201 106.49 69.0301 105.14C70.9901 103.82 74.6901 103.17 76.4801 105.08H76.4901Z" fill="#222221"/>
<path d="M74.6101 121.68C73.2201 123.03 72.7801 124.99 73.0701 126.87C73.0901 126.99 73.2801 126.96 73.2801 126.84C73.2801 125.05 74.1401 123.66 75.4301 122.5C75.9801 122 75.1501 121.16 74.6101 121.68Z" fill="white"/>
<path d="M108.7 152.23C108.7 153.27 108.62 153.76 107.49 154.13C106.87 154.33 106.05 154.27 105.41 154.34C104.58 154.41 103.26 154.78 102.62 153.98C102.27 153.55 102.25 152.28 102.18 151.74C102.02 150.51 102.07 149.28 102 148.04C102.14 147.99 102.3 147.94 102.45 147.88C103.34 147.49 103.99 146.88 104.47 146.15C104.55 148.37 104.61 150.58 104.88 152.79C104.9 152.98 105.2 152.93 105.21 152.75C105.41 150.54 105.39 148.34 105.41 146.13C105.95 146.87 106.72 147.46 107.75 147.79C108.09 147.89 108.41 147.94 108.75 147.97C108.56 149.38 108.69 150.84 108.7 152.24V152.23Z" fill="#ECE9F4"/>
<path d="M114.5 141.89C114.7 144.69 112.34 147.59 109.57 147.93C109.74 148.99 109.73 150.08 109.76 151.15C109.77 152.05 109.99 153.22 109.61 154.07C108.89 155.68 106.19 155.37 104.75 155.54C103.21 155.7 102.03 155.94 101.46 154.23C100.9 152.47 100.66 150.17 101.04 148.26C98.3002 148.59 95.8702 146.36 96.0102 143.4C96.0102 143.23 96.3002 143.2 96.3202 143.37C96.5402 145.63 98.4302 147.6 100.85 147.07C102.62 146.68 103.47 144.99 103.7 143.34C103.83 142.27 103.78 141.18 103.78 140.09C101.43 139.05 96.4802 135.92 97.2002 132.75C97.9302 129.56 104.08 129.64 106.51 129.75C108.75 129.85 113.34 130.39 112.96 133.65C112.8 135.05 111.42 135.96 110.44 136.77C109.12 137.87 107.78 139.33 106.15 139.97C106.05 140.02 105.96 140.05 105.86 140.07C105.84 141.26 105.76 142.48 105.51 143.62C105.8 144.84 106.43 145.9 107.73 146.49C111.27 148.08 112.76 144.05 114 141.73C114.14 141.47 114.49 141.66 114.5 141.9V141.89ZM107.49 154.13C108.62 153.76 108.7 153.27 108.7 152.23C108.69 150.82 108.56 149.37 108.75 147.96C108.41 147.93 108.09 147.88 107.75 147.78C106.72 147.46 105.95 146.86 105.41 146.12C105.4 148.34 105.41 150.54 105.21 152.74C105.21 152.92 104.9 152.97 104.88 152.78C104.61 150.56 104.55 148.36 104.47 146.14C103.99 146.87 103.34 147.47 102.45 147.87C102.3 147.93 102.15 147.98 102 148.03C102.06 149.27 102.01 150.5 102.18 151.73C102.25 152.27 102.27 153.54 102.62 153.97C103.26 154.77 104.59 154.4 105.41 154.33C106.05 154.26 106.87 154.33 107.49 154.12V154.13Z" fill="#222221"/>
<g opacity="0.6" style="mix-blend-mode:multiply">
<path d="M104.11 153.21C104.13 153.12 104.16 152.95 104.16 152.9C104.2 152.59 104.23 152.27 104.25 151.95C104.27 151.6 104.27 151.25 104.25 150.9C104.25 150.76 104.24 150.62 104.23 150.47C104.23 150.44 104.23 150.43 104.23 150.41C104.23 150.4 104.23 150.39 104.23 150.37C104.13 149.67 104.03 148.99 103.87 148.3C103.79 147.97 103.7 147.65 103.6 147.33C103.58 147.28 103.56 147.22 103.55 147.17C103.23 147.44 102.87 147.67 102.45 147.86C102.3 147.92 102.15 147.97 102 148.02C102.06 149.26 102.01 150.49 102.18 151.72C102.25 152.26 102.27 153.53 102.62 153.96C102.89 154.3 103.29 154.42 103.71 154.45C103.74 154.37 103.78 154.28 103.81 154.2C103.91 153.93 104 153.65 104.07 153.37C104.07 153.34 104.09 153.27 104.11 153.19V153.21Z" fill="#DFDCEE"/>
</g>
<g opacity="0.6" style="mix-blend-mode:multiply">
<path d="M108.7 152.23C108.69 150.82 108.56 149.37 108.75 147.96C108.48 147.93 108.22 147.89 107.95 147.83C108.4 149.78 108.53 151.88 108.15 153.83C108.66 153.49 108.7 153.01 108.7 152.23Z" fill="#DFDCEE"/>
</g>
<g opacity="0.6" style="mix-blend-mode:multiply">
<path d="M90.6201 46.26C91.4201 46.05 92.2301 45.87 93.0301 45.68C89.9701 46.07 86.9101 46.65 83.8801 47.43C84.1601 47.61 84.4301 47.8 84.7001 47.99C86.6501 47.36 88.6201 46.77 90.6101 46.26H90.6201Z" fill="#DFDCEE"/>
</g>
<path d="M65.3 57.52C59.57 60.07 54.53 63.95 50.86 69.08C50.82 69.15 35.19 56.1 42.02 47.44C50.26 36.98 60.96 50.52 65.3 57.51V57.52Z" fill="#DD87A8"/>
<path d="M53.6999 43.17C60.1999 45.28 67.1199 58.64 66.7299 58.79C60.7999 61.22 55.0799 65.73 50.9099 70.54C45.1099 65.13 34.0399 55.23 40.8599 46.43C43.9199 42.46 49.1199 41.66 53.6999 43.17ZM50.8499 69.08C54.5299 63.94 59.5599 60.07 65.2899 57.52C60.9499 50.52 50.2499 36.99 42.0099 47.45C35.1799 56.11 50.8099 69.16 50.8499 69.09V69.08Z" fill="#222221"/>
<g opacity="0.6" style="mix-blend-mode:multiply">
<path d="M45.9099 44.23C47.7099 44.67 49.4699 45.3 51.1399 46.08C55.5599 48.13 59.7999 51.57 61.7699 56.14C62.1799 57.1 62.0999 58.39 61.0399 58.93C57.7899 60.59 54.7999 63 51.9499 65.25C50.9999 66 50.0599 66.77 49.1399 67.56C50.1599 68.53 50.8499 69.09 50.8599 69.08C54.5299 63.94 59.5699 60.07 65.2999 57.52C61.6199 51.59 53.3699 40.96 45.9199 44.24L45.9099 44.23Z" fill="#DD87A8"/>
</g>
<g opacity="0.6" style="mix-blend-mode:soft-light">
<path d="M51.5698 62.24C48.3298 59.53 46.3098 56.29 44.8698 52.35C44.5798 51.55 43.2698 51.61 43.2998 52.56C43.4398 57.2 46.5098 61.47 50.6698 63.42C51.3798 63.75 52.2798 62.83 51.5798 62.24H51.5698Z" fill="white"/>
</g>
<path d="M144.66 36.84C149.46 38.03 151.97 42.52 150.95 47.34C150.14 51.13 147.49 54.21 145.13 57.12C145.1 57.15 145.1 57.18 145.09 57.21C140.73 53.1 135.71 49.76 130.08 47.73C132.73 41.78 136.88 34.92 144.67 36.85L144.66 36.84Z" fill="#DD87A8"/>
<path d="M147.2 36.22C157.74 41.27 150.26 55.49 145.1 58.4C140.7 54 129.31 47.9 129.22 47.86C129.02 47.75 135.99 30.86 147.2 36.22ZM150.94 47.34C151.96 42.52 149.45 38.03 144.65 36.84C136.86 34.91 132.72 41.78 130.06 47.72C135.69 49.75 140.72 53.08 145.07 57.2C145.08 57.17 145.08 57.14 145.11 57.11C147.47 54.2 150.12 51.12 150.93 47.33L150.94 47.34Z" fill="#222221"/>
<g opacity="0.6" style="mix-blend-mode:multiply">
<path d="M148.24 38.67C149.51 42.91 149.15 47.57 146.93 51.65C146.59 52.28 145.87 52.66 145.17 52.66C144.21 52.66 143.48 52.51 142.8 51.75C142.3 51.19 141.75 50.67 141.18 50.19C139.95 49.13 138.54 48.19 137.11 47.3C135.38 46.22 133.59 45.23 131.78 44.28C131.15 45.42 130.58 46.59 130.07 47.74C135.7 49.77 140.73 53.1 145.08 57.22C145.09 57.19 145.09 57.16 145.12 57.13C147.48 54.22 150.13 51.14 150.94 47.35C151.66 43.94 150.61 40.7 148.24 38.67Z" fill="#DD87A8"/>
</g>
<g opacity="0.6" style="mix-blend-mode:soft-light">
<path d="M143.45 37.87C142.36 37.04 140.33 38.03 139.3 38.63C137.96 39.43 136.9 40.65 136.2 42.04C135.83 42.76 136.83 43.33 137.28 42.67C138.06 41.52 139.11 40.67 140.36 40.07C141.36 39.59 142.8 39.69 143.59 38.91C143.92 38.58 143.79 38.12 143.46 37.87H143.45Z" fill="white"/>
</g>
<path d="M131.01 126.36C131.48 128.74 133.22 131.67 136.08 130.47C140.27 128.74 140.63 117.09 136.15 117.73C130.97 117.7 130.47 123.66 131.01 126.36Z" fill="#222221"/>
<path d="M134.22 102.86C133.65 103.47 134.05 104.51 134.92 104.52C136.81 104.55 138.31 103.81 140.17 104.72C142.17 105.7 142.88 107.53 143.69 109.45C143.83 109.79 144.3 109.83 144.43 109.45C145.24 107.02 143.69 104.27 141.68 102.92C139.72 101.6 136.02 100.95 134.23 102.86H134.22Z" fill="#222221"/>
<path d="M134.1 118.96C132.71 120.31 132.27 122.27 132.56 124.15C132.58 124.27 132.77 124.24 132.77 124.12C132.77 122.33 133.63 120.94 134.92 119.78C135.47 119.28 134.64 118.44 134.1 118.96Z" fill="white"/>
</g>
<defs>
<clipPath id="clip0_254_1284">
<rect width="203.52" height="207.76" fill="white"/>
</clipPath>
</defs>
</svg>
