<svg width="212" height="223" viewBox="0 0 212 223" fill="none" xmlns="http://www.w3.org/2000/svg">
<g clip-path="url(#clip0_254_1272)">
<path d="M105.97 222.75C162.17 222.75 207.73 176.241 207.73 118.87C207.73 61.4987 162.17 14.99 105.97 14.99C49.7695 14.99 4.20996 61.4987 4.20996 118.87C4.20996 176.241 49.7695 222.75 105.97 222.75Z" fill="#EBB7CB"/>
<path d="M208.88 106.72C211.28 111.5 208.58 107.53 206.8 106.16C203.19 103.39 199.25 101.34 195.05 99.61C194.36 99.34 193.99 100.29 194.38 100.75C197.06 103.85 199.18 107.07 200.59 110.93C201.06 112.22 201.44 113.54 201.74 114.89C202.6 116.84 202.56 117.16 201.61 115.87C199.83 115.03 197.98 112.25 196.3 111.02C194.58 109.74 192.77 108.73 190.86 107.75C190.52 107.58 190.21 107.68 190 107.89C189.66 107.29 188.6 107.62 188.85 108.35C193.01 120.79 194.91 133.78 194.16 146.89C193.77 153.75 192.66 160.59 190.85 167.22C189.79 171.11 190.18 172.9 187.24 169.38C185.15 166.86 183.59 163.51 181.87 160.73C181.48 160.1 180.65 160.53 180.75 161.2C181.04 163.06 184.98 180.72 183.82 181.53C184.39 181.12 171.03 171.62 170.1 171.1C169.63 170.84 169 171.28 169.17 171.82C171.64 179.84 173.73 187.95 175.47 196.15C157.38 179.89 131.26 177.31 107.93 175.88C94.01 175.03 79.06 174.08 65.22 176.15C59.78 176.96 55.21 179.39 50.96 182.8C49.71 183.81 45.38 189.11 43.76 188.28C42.17 187.47 41.73 179.79 41.5 178.13C41.42 177.58 40.48 177.46 40.27 177.97C39.29 180.23 38.43 182.69 37.29 184.87C35.73 187.9 36.15 188.14 34.55 185.2C32.22 180.94 30.75 175.7 29.27 171.07C26.3 161.79 24.27 152.29 23.01 142.63C22.93 142.08 22.33 141.74 21.89 142.16C21.34 142.67 14.02 150.82 14.02 150.82C11.45 149.91 11.86 139.59 11.76 136.54C11.42 126.2 13.13 116.05 16.43 106.27C16.59 105.8 16.05 105.19 15.55 105.39C12.69 106.59 9.83001 107.79 6.96001 109C5.54001 109.6 4.10001 110.19 2.67001 110.79C1.52001 110.72 1.53001 110.03 2.71001 108.71C3.61001 103.29 7.71001 96.96 10.54 92.28C16.84 81.84 25.18 72.77 34.91 65.46C35.37 65.12 35.3 64.48 34.75 64.28C33.89 63.95 28.86 62.27 28.84 62.48C28.88 61.91 35.37 60.65 35.82 60.56C42.07 59.19 48.43 58.72 54.82 58.8C54.9 58.8 54.96 58.79 55.03 58.76C55.45 59.03 56.15 58.72 55.98 58.11C54.82 54.01 53.17 50.14 50.95 46.51C50.32 45.46 43.55 36.55 42.95 36.71C43.9 35.86 55.13 38.94 56.34 39.22C62.18 40.5 68.22 41.87 71.93 47.02C72.31 47.56 73.11 47.36 73.16 46.69C73.87 36.68 74.28 26.28 69.5 17.34C80.49 23.61 87.99 32.38 94.98 43.07C94.98 43.36 94.95 43.64 94.97 43.93C94.97 44.07 95.22 44.13 95.24 43.97C95.27 43.76 95.31 43.55 95.33 43.34C95.64 43.39 96.01 43.16 95.85 42.8C95.76 42.55 95.64 42.3 95.54 42.07C97.72 28.87 102.24 16.85 111.86 7.05C112.79 6.11 113.74 5.05 114.8 4.25C117.02 2.6 116.73 2.17 116.6 5.31C116.48 8.18 115.62 11.24 115.29 14.12C114.41 21.96 114.38 29.84 115.04 37.71C115.11 38.43 116.03 38.76 116.44 38.09C119.03 33.79 122.03 29.9 125.68 26.46C126.12 26.05 136.53 16.87 137.83 17.93C139.32 19.13 136.25 28.49 135.92 30.48C135.11 35.29 134.46 40.12 133.87 44.97C133.82 45.41 134.35 45.75 134.75 45.64C140.04 43.91 144.43 40.52 146.96 35.47C147.13 35.14 148.12 32.29 148.27 32.05C148.27 32.4 150.23 37.04 150.54 38.09C152.34 43.87 152.75 49.55 149.65 55.01C149.13 55.91 150.54 56.73 151.04 55.82C151.11 55.69 151.16 55.56 151.22 55.44C167.19 50.64 181.04 59.11 193.48 68.35C189.61 68.17 185.74 68.17 181.85 68.35C181.16 68.38 180.82 69.36 181.48 69.71C192.5 75.73 199.49 85.86 204.69 97.02C206.17 100.2 207.26 103.59 208.83 106.7L208.88 106.72Z" fill="#884941"/>
<path d="M42.98 36.73C43.58 36.57 50.35 45.49 50.98 46.53C53.2 50.16 54.85 54.03 56.01 58.13C56.18 58.74 55.47 59.06 55.06 58.78C54.99 58.81 54.93 58.82 54.85 58.82C48.46 58.74 42.1 59.21 35.85 60.58C35.41 60.67 28.91 61.93 28.87 62.5C28.88 62.29 33.91 63.98 34.78 64.3C35.33 64.5 35.39 65.14 34.94 65.48C25.2 72.79 16.87 81.85 10.57 92.3C7.75 96.98 3.64 103.3 2.74 108.73C1.56 110.05 1.55 110.74 2.7 110.81C4.12 110.21 5.56 109.62 6.99 109.02C9.85 107.82 12.71 106.62 15.58 105.41C16.08 105.2 16.61 105.82 16.46 106.29C13.17 116.07 11.45 126.22 11.79 136.56C11.89 139.62 11.48 149.93 14.05 150.84C14.05 150.84 21.37 142.69 21.92 142.18C22.36 141.76 22.97 142.1 23.04 142.65C24.29 152.31 26.33 161.81 29.3 171.09C30.78 175.72 32.25 180.96 34.58 185.22C36.19 188.16 35.77 187.93 37.32 184.89C38.46 182.71 39.32 180.25 40.3 177.99C40.51 177.48 41.45 177.6 41.53 178.15C41.77 179.81 42.2 187.49 43.79 188.3C45.41 189.14 49.74 183.83 50.99 182.82C55.24 179.41 59.81 176.98 65.25 176.17C79.09 174.09 94.04 175.05 107.96 175.9C131.29 177.32 157.41 179.91 175.5 196.17C173.76 187.96 171.67 179.86 169.2 171.84C169.03 171.3 169.66 170.86 170.13 171.12C171.06 171.64 184.43 181.14 183.85 181.55C185.01 180.74 181.07 163.07 180.78 161.22C180.69 160.55 181.51 160.12 181.9 160.75C183.62 163.53 185.18 166.88 187.27 169.4C190.21 172.93 189.82 171.14 190.88 167.24C192.68 160.6 193.79 153.77 194.19 146.91C194.95 133.8 193.04 120.81 188.88 108.37C188.63 107.64 189.69 107.31 190.03 107.91C190.24 107.7 190.55 107.6 190.89 107.77C192.8 108.75 194.6 109.76 196.33 111.04C198 112.27 199.86 115.05 201.64 115.89C202.59 117.18 202.63 116.86 201.77 114.91C201.47 113.56 201.09 112.24 200.62 110.95C199.21 107.09 197.09 103.87 194.41 100.77C194.02 100.31 194.38 99.36 195.08 99.63C199.27 101.35 203.22 103.41 206.83 106.18C208.61 107.55 211.31 111.52 208.91 106.74C207.34 103.63 206.24 100.23 204.77 97.06C199.57 85.9 192.58 75.77 181.56 69.75C180.89 69.4 181.23 68.42 181.93 68.39C185.82 68.21 189.69 68.21 193.56 68.39C181.12 59.15 167.27 50.68 151.3 55.48C151.23 55.6 151.18 55.73 151.12 55.86C150.62 56.77 149.21 55.95 149.73 55.05C152.83 49.59 152.42 43.9 150.62 38.13C150.31 37.08 148.35 32.45 148.35 32.09C148.21 32.34 147.21 35.19 147.04 35.51C144.52 40.55 140.13 43.95 134.83 45.68C134.44 45.8 133.9 45.46 133.95 45.01C134.54 40.16 135.19 35.33 136 30.52C136.33 28.53 139.4 19.18 137.91 17.97C136.6 16.91 126.2 26.1 125.76 26.5C122.11 29.94 119.11 33.83 116.52 38.13C116.11 38.8 115.19 38.47 115.12 37.75C114.45 29.88 114.49 22 115.37 14.16C115.7 11.28 116.56 8.23 116.68 5.35C116.81 2.21 117.1 2.64 114.88 4.29C113.82 5.09 112.87 6.15 111.94 7.09C102.32 16.89 97.8 28.91 95.62 42.11C95.72 42.35 95.84 42.59 95.93 42.84C96.09 43.19 95.72 43.43 95.41 43.38C95.38 43.59 95.34 43.8 95.32 44.01C95.29 44.17 95.05 44.11 95.05 43.97C95.04 43.68 95.06 43.4 95.06 43.11C88.07 32.42 80.57 23.65 69.58 17.38C74.36 26.32 73.94 36.72 73.24 46.73C73.19 47.4 72.39 47.59 72.01 47.06C68.3 41.91 62.26 40.54 56.42 39.26C55.2 38.99 43.98 35.9 43.03 36.75L42.98 36.73ZM211.9 110.81C212.15 111.45 211.25 111.87 210.82 111.45C207.7 108.37 204.27 105.82 200.52 103.58C197.27 101.65 195.99 99.96 198.64 103.97C201.61 108.45 203.15 113.44 203.76 118.76C203.83 119.35 202.9 119.74 202.53 119.27C199.17 114.93 195.32 111.72 190.46 109.18C197.27 130.43 197.15 152.97 190.02 174.17C189.85 174.68 189.17 174.78 188.88 174.31C187.1 171.43 185.23 168.59 183.52 165.66C181.81 162.75 182.13 162.54 182.74 165.87C183.77 171.69 184.56 177.57 185.46 183.41C185.55 184.01 184.83 184.61 184.32 184.06C181.45 180.95 178.39 178.05 174.92 175.59C172.11 173.6 170.79 172.05 171.88 176.27C173.75 183.56 175.84 190.75 177.43 198.12C177.59 198.84 176.74 199.37 176.19 198.85C159.61 182.97 136.07 179.55 114.12 177.73C102.2 176.75 90.23 176.4 78.27 176.68C72.38 176.84 66.04 176.61 60.42 178.65C53.98 181 49.01 186.12 44.31 190.88C43.94 191.26 43.36 191.05 43.2 190.59C42.9 189.77 40.52 180.78 40.52 180.54C40.08 180.54 36.81 189.43 36.51 190.15C36.31 190.59 35.54 190.58 35.35 190.15C31.25 181.19 27.86 171.95 25.42 162.39C24.17 157.45 23.58 152.38 22.39 147.44C21.87 145.28 22.73 145.11 21.16 144.66C19.79 144.27 14.51 152.49 13.88 153.39C13.57 153.83 12.78 153.83 12.64 153.22C10.34 143.03 9.71 132.65 11.14 122.26C11.32 120.94 14.49 108.28 14.33 108.15C12.53 106.71 3.21 112.14 0.95 113.09C0.43 113.31 -0.1 112.68 0.0499996 112.2C3.42 101.68 8.41 91.81 15.14 83.03C18.68 78.4 22.63 74.08 26.99 70.22C27.75 69.55 32.58 66.4 32.6 65.62C32.6 63.99 27.71 63.58 26.24 63.28C25.51 63.12 25.64 62.14 26.24 61.93C35.47 58.65 44.82 57.24 54.6 57.81C51.72 49.33 47.23 42.23 40.45 36.3C39.86 35.79 40.52 35.07 41.12 35.16C50.19 36.38 62.62 37 70.08 42.97C72.82 45.17 71.64 45.52 72.17 42.5C72.65 39.85 72.39 36.74 72.27 34.06C71.93 27.19 70.35 20.93 66.19 15.35C65.59 14.54 66.73 13.7 67.47 14.08C78.85 19.79 89.63 29.07 95.07 40.84C95.85 24.71 105.51 9.96 117.9 0.129999C118.44 -0.300001 119.21 0.0899993 119.06 0.799999C116.72 12.33 115.9 23.72 116.5 35.39C122.18 26.91 129.73 20.3 139.03 15.85C139.58 15.59 140.17 16.02 140.04 16.62C138.51 23.69 137.23 30.8 136.22 37.95C135.66 41.97 134.81 43.54 138.34 42.67C139.74 42.33 141.4 40.59 142.38 39.6C145.05 36.91 146.61 33.59 147.41 29.93C147.53 29.38 148.39 29.26 148.64 29.77C152.34 37.49 155.34 46.01 151.91 54.12C168.18 48.55 183.7 59.11 196.33 68.56C196.85 68.95 196.76 70 195.95 69.95C192.11 69.69 188.29 69.61 184.45 69.71C199.1 78.86 205.97 95.1 211.93 110.77L211.9 110.81Z" fill="#222221"/>
<g opacity="0.4" style="mix-blend-mode:multiply">
<path d="M47.34 41.66C48.37 41.55 49.4 41.49 50.43 41.5C55.46 41.55 60.49 42.78 65.14 44.66C69.05 46.24 72.86 48.32 76.05 51.11C75.66 47.06 74.86 43.03 73.59 39.16C73.53 41.68 73.37 44.21 73.19 46.72C73.14 47.39 72.34 47.58 71.96 47.05C68.25 41.9 62.21 40.53 56.37 39.25C55.15 38.98 43.93 35.89 42.98 36.74C43.3 36.66 45.38 39.16 47.34 41.67V41.66Z" fill="#884941"/>
</g>
<g opacity="0.4" style="mix-blend-mode:multiply">
<path d="M83.87 40.29C87.23 44.09 90.34 48.12 94.13 51.5C94.54 49.38 94.93 47.25 95.35 45.13C95.47 44.52 95.6 43.91 95.73 43.29C95.62 43.35 95.5 43.39 95.37 43.37C95.34 43.58 95.3 43.79 95.28 44C95.25 44.16 95.01 44.1 95.01 43.96C95 43.67 95.02 43.38 95.02 43.1C88.03 32.41 80.53 23.64 69.54 17.37C71.89 21.77 72.99 26.53 73.4 31.42C77.42 33.68 80.8 36.82 83.87 40.3V40.29Z" fill="#884941"/>
</g>
<g opacity="0.4" style="mix-blend-mode:multiply">
<path d="M208.88 106.72C207.31 103.61 206.21 100.21 204.74 97.04C199.54 85.88 192.55 75.75 181.53 69.73C180.86 69.38 181.2 68.4 181.9 68.37C185.79 68.19 189.66 68.19 193.53 68.37C181.09 59.13 167.24 50.66 151.27 55.46C151.2 55.58 151.15 55.71 151.09 55.84C150.59 56.75 149.18 55.93 149.7 55.03C152.8 49.57 152.39 43.88 150.59 38.11C150.28 37.06 148.32 32.43 148.32 32.07C148.18 32.32 147.18 35.17 147.01 35.49C144.49 40.53 140.1 43.93 134.8 45.66C134.41 45.78 133.87 45.44 133.92 44.99C134.51 40.14 135.16 35.31 135.97 30.5C136.3 28.51 139.37 19.16 137.88 17.95C136.57 16.89 126.17 26.08 125.73 26.48C122.08 29.92 119.08 33.81 116.49 38.11C116.08 38.78 115.16 38.45 115.09 37.73C114.42 29.86 114.46 21.98 115.34 14.14C115.67 11.27 116.53 8.21 116.65 5.33C116.78 2.19 117.07 2.62 114.85 4.27C113.79 5.07 112.84 6.13 111.91 7.07C102.29 16.87 97.7701 28.89 95.5901 42.09C95.6801 42.29 95.7801 42.51 95.8601 42.72C96.7601 38.41 97.8301 34.12 99.4301 30.01C101.1 25.73 103.38 21.44 107.15 18.67C107.59 18.34 108.09 18.8 108.13 19.23C109.06 27.64 109.97 36.06 111.72 44.34C118.78 38.34 124.17 30.1 133.14 26.73C133.52 26.59 133.99 26.96 133.97 27.36C133.48 34.55 132.25 41.69 130.76 48.74C136.54 48.81 142.38 45.48 145.19 40.43C145.51 39.86 146.41 40.12 146.41 40.76C146.41 47.08 145.77 53.26 143.78 59.26C149.95 59.39 156.11 58.74 162.28 58.77C168.77 58.8 175.15 59.79 181.02 62.69C181.55 62.95 181.36 63.72 180.86 63.88C177.27 65.07 173.6 65.95 169.92 66.78C171.8 67.66 173.57 68.78 175.23 70.03C184.08 76.7 190.54 86.14 197.04 94.97C197.37 95.42 196.81 96.12 196.3 95.93C192.79 94.63 189.12 93.83 185.46 93.03C188.6 96.6 191.02 100.76 192.8 105.17C192.99 105.63 192.44 106.12 192 105.97C188.01 104.61 184.4 102.13 180.22 101.38C181.42 104.74 182.5 108.14 183.45 111.57C185.59 119.33 187.21 127.29 187.78 135.33C188.29 142.52 188.06 150.19 185.08 156.87C184.9 157.26 184.33 157.27 184.05 157C180.91 153.89 177.18 151.53 173.73 148.79C175.15 154.27 175.74 159.93 177 165.46C177.13 166.03 176.55 166.45 176.04 166.2C170.06 163.21 163.98 160.44 157.45 158.92C158.57 161.27 159.5 163.7 160.22 166.2C162.12 172.84 162.7 179.98 161.74 186.88C166.66 189.33 171.28 192.36 175.47 196.12C173.73 187.91 171.64 179.81 169.17 171.79C169 171.25 169.63 170.81 170.1 171.07C171.03 171.59 184.4 181.09 183.82 181.5C184.98 180.69 181.04 163.02 180.75 161.17C180.66 160.5 181.48 160.07 181.87 160.7C183.59 163.48 185.15 166.83 187.24 169.35C190.18 172.88 189.79 171.09 190.85 167.19C192.65 160.55 193.76 153.72 194.16 146.86C194.92 133.75 193.01 120.76 188.85 108.32C188.6 107.59 189.66 107.26 190 107.86C190.21 107.65 190.52 107.55 190.86 107.72C192.77 108.7 194.57 109.71 196.3 110.99C197.97 112.22 199.83 115 201.61 115.84C202.56 117.13 202.6 116.81 201.74 114.86C201.44 113.51 201.06 112.19 200.59 110.9C199.18 107.04 197.06 103.82 194.38 100.72C193.99 100.26 194.35 99.31 195.05 99.58C199.24 101.3 203.19 103.36 206.8 106.13C208.58 107.5 211.28 111.47 208.88 106.69V106.72Z" fill="#884941"/>
</g>
<g opacity="0.4" style="mix-blend-mode:soft-light">
<path d="M16.5101 125.81C16.9401 121.2 18.5901 116.93 19.2801 112.41C19.4301 111.45 18.1601 110.73 17.6001 111.7C13.0601 119.64 13.7201 131.31 16.0801 139.86C16.2701 140.55 17.2201 140.24 17.1201 139.57C16.4701 134.98 16.0801 130.44 16.5101 125.81Z" fill="white"/>
</g>
<g opacity="0.4" style="mix-blend-mode:soft-light">
<path d="M22.7599 79.56C16.1199 85.47 11.8999 93.85 9.60993 102.33C9.46993 102.85 10.2399 103.05 10.4099 102.55C13.3099 94.06 17.9599 87.26 23.5399 80.33C23.9799 79.78 23.2999 79.07 22.7599 79.55V79.56Z" fill="white"/>
</g>
<g opacity="0.4" style="mix-blend-mode:soft-light">
<path d="M34.8099 170.66C30.7899 161.78 30.3399 153.31 31.1499 143.76C31.2299 142.8 29.7599 142.65 29.4999 143.54C26.8099 152.78 29.0699 163.08 33.8399 171.23C34.2099 171.87 35.0999 171.31 34.8099 170.66Z" fill="white"/>
</g>
<path d="M174.56 102.22C176 104.96 174.08 107.96 171.88 109.5C169.67 111.06 166.99 111.47 164.44 112.13C164.23 112.2 164.09 112.31 164 112.44C163.5 111.45 163.01 110.47 162.48 109.49C163.11 107.12 164.52 104.67 166.1 102.88C168.11 100.59 172.61 98.5 174.55 102.23L174.56 102.22Z" fill="#DD87A8"/>
<path d="M48.3402 111.54C47.6102 112.83 46.8902 114.14 46.2002 115.43C44.0202 115.64 41.8402 115.98 39.7102 115.21C36.6302 114.1 34.0102 110.35 36.3602 107.3C40.4802 101.99 46.4502 107.13 48.3402 111.53V111.54Z" fill="#DD87A8"/>
<path d="M50.3201 108.15C49.9301 108.8 49.5501 109.46 49.1601 110.11C47.9101 107.42 45.8901 104.97 42.9401 104.1C40.0701 103.24 36.5601 104.1 34.8401 106.67C32.9701 109.44 34.0401 112.99 36.4201 115.09C38.8201 117.23 42.3801 117.68 45.4601 116.87C45.0701 117.63 44.6801 118.37 44.3001 119.12C40.4201 119.84 36.4701 120.01 33.5701 116.81C30.9701 113.93 30.3701 109.65 32.3201 106.25C36.7201 98.55 47.1701 100.76 50.3301 108.16L50.3201 108.15Z" fill="#EDBA97"/>
<path d="M179.33 100.59C181.79 104.69 181.71 111.99 173.11 115.76C169.74 117.24 167.44 117.18 166.09 116.94C165.61 115.84 165.11 114.76 164.6 113.67C164.68 113.68 164.77 113.7 164.87 113.67C168.58 113.04 172.84 111.85 175.12 108.59C176.78 106.21 176.94 102.84 174.88 100.61C169.97 95.32 163.01 103.04 161.97 108.53C161.63 107.92 161.28 107.3 160.91 106.67C162.06 103.42 163.04 99.78 165.68 97.43C170.19 93.43 176.5 95.89 179.32 100.59H179.33Z" fill="#EDBA97"/>
<path d="M173.8 156.31C174.37 170.78 167.28 182.62 155.49 190.61C143.68 198.62 128.82 200.66 114.89 201.26C100.96 201.85 86.62 201.5 73.14 197.59C60.39 193.9 48.15 186.68 40.81 175.35C32.43 162.41 33.11 148.77 38.88 135.03C44.71 121.14 52.18 106.4 62.43 95.21C73.2 83.45 91.9 77.93 107.67 78.87C123.25 79.8 129.53 80.49 138.96 85.93C150.45 92.56 157.93 104.42 163.48 116.14C169.36 128.59 173.25 142.5 173.82 156.3L173.8 156.31Z" fill="#EDBA97"/>
<path d="M180.42 99.23C182.99 103.1 183.32 108.02 180.51 111.83C177.43 116.02 172.59 118.81 166.51 117.95C167.9 121.2 169.12 124.46 170.2 127.66C174.68 140.94 178.69 157.93 173.66 171.57C169.43 183.06 159.59 191.53 148.61 196.36C134.43 202.61 118.33 203.38 103.05 203.18C87.9001 203 72.3901 200.96 58.8701 193.72C47.2701 187.51 37.6901 177.49 33.9401 164.67C29.8901 150.8 35.1201 138.05 41.0901 125.62C41.8901 123.96 42.7101 122.27 43.5601 120.58C35.0801 123.13 26.1401 114.69 30.6601 105.96C35.2901 97.03 47.0101 98.79 51.2301 106.69C55.4901 99.88 60.4601 93.54 66.4801 88.8C76.6301 80.8 90.6201 77.23 105.76 77.31C120.45 77.15 134.1 79.27 145.13 87.8C151.18 92.49 156.16 98.7 160.24 105.53C161.12 100.76 163.27 95.66 168.22 94.11C172.85 92.67 177.88 95.39 180.41 99.23H180.42ZM173.11 115.76C181.71 111.98 181.79 104.69 179.33 100.59C176.51 95.89 170.2 93.43 165.69 97.43C163.05 99.78 162.07 103.42 160.92 106.67C161.29 107.3 161.64 107.91 161.98 108.53C163.03 103.04 169.98 95.32 174.89 100.61C176.94 102.84 176.78 106.22 175.13 108.59C172.86 111.86 168.6 113.05 164.88 113.67C164.78 113.7 164.68 113.68 164.61 113.67C165.12 114.75 165.62 115.84 166.1 116.94C167.45 117.19 169.75 117.24 173.12 115.76H173.11ZM171.88 109.5C174.08 107.96 176 104.97 174.56 102.22C172.61 98.5 168.12 100.59 166.11 102.87C164.53 104.66 163.12 107.12 162.49 109.48C163.01 110.46 163.51 111.44 164.01 112.43C164.1 112.3 164.25 112.18 164.45 112.12C167 111.47 169.68 111.05 171.89 109.49L171.88 109.5ZM155.49 190.61C167.28 182.61 174.37 170.77 173.8 156.31C173.24 142.51 169.34 128.61 163.46 116.15C157.92 104.43 150.43 92.56 138.94 85.94C129.52 80.5 123.23 79.81 107.65 78.88C91.8801 77.94 73.1801 83.45 62.4101 95.22C52.1601 106.41 44.6901 121.15 38.8601 135.04C33.1001 148.77 32.4201 162.42 40.7901 175.36C48.1301 186.69 60.3701 193.92 73.1201 197.6C86.6101 201.51 100.94 201.86 114.87 201.27C128.8 200.67 143.66 198.63 155.47 190.62L155.49 190.61ZM49.1601 110.11C49.5501 109.46 49.9301 108.8 50.3201 108.15C47.1601 100.75 36.7201 98.54 32.3101 106.24C30.3601 109.64 30.9601 113.92 33.5601 116.8C36.4601 120 40.4101 119.83 44.2901 119.11C44.6701 118.37 45.0601 117.62 45.4501 116.86C42.3701 117.67 38.8101 117.23 36.4101 115.08C34.0301 112.99 32.9601 109.43 34.8301 106.66C36.5601 104.09 40.0601 103.22 42.9301 104.09C45.8801 104.97 47.9001 107.41 49.1501 110.1L49.1601 110.11ZM46.2001 115.43C46.8901 114.14 47.6101 112.83 48.3401 111.54C46.4501 107.14 40.4701 102 36.3601 107.31C34.0101 110.36 36.6201 114.11 39.7101 115.22C41.8401 115.99 44.0201 115.65 46.2001 115.44V115.43Z" fill="#222221"/>
<g opacity="0.4" style="mix-blend-mode:multiply">
<path d="M174.56 102.22C176 104.96 174.08 107.96 171.88 109.5C169.67 111.06 166.99 111.47 164.44 112.13C164.23 112.2 164.09 112.31 164 112.44C163.5 111.45 163.01 110.47 162.48 109.49C163.11 107.12 164.52 104.67 166.1 102.88C168.11 100.59 172.61 98.5 174.55 102.23L174.56 102.22Z" fill="#DD87A8"/>
</g>
<g opacity="0.4" style="mix-blend-mode:multiply">
<path d="M47.94 110.71C45.71 106.54 40.22 102.34 36.36 107.31C35.18 108.84 35.25 110.54 36 112C39.32 109.07 44.45 108.07 47.94 110.71Z" fill="#DD87A8"/>
</g>
<g opacity="0.4" style="mix-blend-mode:multiply">
<path d="M34.5602 113.55C34.6502 113.43 34.7602 113.32 34.8602 113.2C33.6902 111.2 33.4502 108.73 34.8402 106.68C36.5702 104.11 40.0702 103.24 42.9402 104.11C45.8902 104.99 47.9102 107.43 49.1602 110.12C49.5502 109.47 49.9302 108.81 50.3202 108.16C47.1602 100.76 36.7202 98.55 32.3102 106.25C30.4702 109.46 30.9302 113.44 33.1702 116.29C33.4802 115.31 33.9302 114.38 34.5602 113.55Z" fill="#EDBA97"/>
</g>
<g opacity="0.4" style="mix-blend-mode:multiply">
<path d="M179.33 100.59C181.79 104.69 181.71 111.99 173.11 115.76C169.74 117.24 167.44 117.18 166.09 116.94C165.61 115.84 165.11 114.76 164.6 113.67C164.68 113.68 164.77 113.7 164.87 113.67C168.58 113.04 172.84 111.85 175.12 108.59C176.78 106.21 176.94 102.84 174.88 100.61C169.97 95.32 163.01 103.04 161.97 108.53C161.63 107.92 161.28 107.3 160.91 106.67C162.06 103.42 163.04 99.78 165.68 97.43C170.19 93.43 176.5 95.89 179.32 100.59H179.33Z" fill="#EDBA97"/>
</g>
<g opacity="0.4" style="mix-blend-mode:multiply">
<path d="M173.8 156.31C173.24 142.51 169.34 128.61 163.46 116.15C157.92 104.43 150.43 92.56 138.94 85.94C129.52 80.5 123.23 79.81 107.65 78.88C91.8801 77.94 73.1801 83.45 62.4101 95.22C59.3301 98.59 56.5001 102.28 53.8801 106.18C59.4101 100.32 66.1701 95.64 73.3801 92.09C81.5101 88.09 90.3001 85.39 99.2701 84.14C107.88 82.93 116.79 82.97 125.27 85.04C133.19 86.98 140.58 90.79 146.57 96.35C152.31 101.67 156.6 108.38 159.6 115.57C162.76 123.15 164.51 131.26 165.26 139.42C166.16 149.15 165.69 159.06 163.59 168.62C161.91 176.29 159.14 183.86 155.27 190.76C155.33 190.72 155.4 190.68 155.47 190.64C167.26 182.64 174.35 170.8 173.78 156.34L173.8 156.31Z" fill="#EDBA97"/>
</g>
<g opacity="0.4" style="mix-blend-mode:soft-light">
<path d="M44.87 114.31C44.16 113.45 43.08 113.06 42.19 112.41C41.63 112 40.46 111.13 40.1 112.28C39.79 113.28 41.22 114.01 41.96 114.33C42.93 114.75 43.9 115.02 44.86 114.46C44.91 114.43 44.92 114.36 44.88 114.32L44.87 114.31Z" fill="white"/>
</g>
<path d="M134.96 149.5C136.97 166.31 125 178.13 104.6 178.13C92.2798 176.57 80.2898 170.21 77.3498 157C73.6498 140.4 85.8398 127.92 101.64 126C117.09 124.12 132.99 133.07 134.95 149.5H134.96Z" fill="#F9EAB9"/>
<path d="M103.69 123.9C120.93 122.62 137.38 135.03 137.14 153.17C136.9 169.79 125.44 180.12 105.23 180.55C90.4099 179.69 76.9999 170.25 74.8499 155.6C72.1399 137.17 86.5299 125.19 103.69 123.9ZM104.6 178.13C125 178.13 136.97 166.3 134.96 149.5C133 133.07 117.1 124.12 101.65 126C85.8499 127.92 73.6599 140.4 77.3599 157C80.2999 170.21 92.2799 176.58 104.61 178.13H104.6Z" fill="#222221"/>
<g opacity="0.4" style="mix-blend-mode:multiply">
<path d="M93.1398 131.5C104.91 130.35 117 135.87 124.16 145.21C127.9 150.09 130.16 155.98 130.61 162.12C130.76 164.16 130.58 166.1 130.16 167.97C134.08 163.12 135.83 156.78 134.96 149.51C133 133.08 117.1 124.13 101.65 126.01C94.8998 126.83 88.8198 129.58 84.3398 133.75C87.1198 132.58 90.0798 131.8 93.1398 131.5Z" fill="#F9EAB9"/>
</g>
<g opacity="0.4" style="mix-blend-mode:soft-light">
<path d="M88.8898 166.03C85.3598 163.1 83.5098 159.13 82.8698 154.64C82.7998 154.11 81.9198 154.24 81.9398 154.77C82.1298 159.55 84.6798 163.74 88.4398 166.61C88.7698 166.86 89.2098 166.3 88.8898 166.03Z" fill="white"/>
</g>
<path d="M117.93 124.04C120.64 128.21 116.44 132.77 113 133.88C108.94 135.19 90.6898 136.99 93.9098 125.96C95.5998 122.42 100.61 121.27 100.67 121.22C104.17 120.63 114.13 118.18 117.93 124.04Z" fill="#884941"/>
<path d="M121.82 148.74C121.95 148.22 122.79 148.32 122.76 148.87C122.59 154.67 114.92 158.92 109.89 155.63C108.05 154.41 107.16 152.43 106.66 150.35C106.18 152.44 105.18 154.32 103.22 155.6C97.9299 159.05 91.6499 154.79 91.6799 148.87C91.6799 148.46 92.3199 148.36 92.4099 148.78C93.8899 156.42 102.92 156.59 104.77 149.56C105.28 147.65 105.13 139.42 105.36 137.1C99.5799 137.23 92.8699 136 91.0399 130.83C89.3699 126.13 93.7999 121.96 99.2999 120.3C105.66 118.04 115.43 118.04 119.69 123.24C124.24 128.78 118 134.75 112.7 136.13C110.96 136.57 108.86 136.93 106.64 137.06C106.95 141.16 107.49 147.9 108.08 149.57C108.73 151.44 109.85 155.02 113.61 155.05C117.96 155.08 121.07 151.81 121.83 148.75L121.82 148.74ZM113 133.88C116.44 132.77 120.63 128.21 117.93 124.04C114.13 118.17 104.17 120.63 100.67 121.22C100.62 121.27 95.5999 122.42 93.9099 125.96C90.6999 136.99 108.94 135.19 113 133.88Z" fill="#222221"/>
<g opacity="0.4" style="mix-blend-mode:multiply">
<path d="M117.93 124.04C114.13 118.17 104.17 120.63 100.67 121.22C100.62 121.27 95.5999 122.42 93.9099 125.96C93.8799 126.05 93.8699 126.13 93.8499 126.21C96.0099 125.1 98.3199 124.28 100.75 124.02C104.89 123.58 108.96 125.13 111.6 128.38C112.81 129.86 113.67 131.54 114.28 133.33C117.36 131.67 120.31 127.7 117.93 124.04Z" fill="#884941"/>
</g>
<g opacity="0.4" style="mix-blend-mode:soft-light">
<path d="M97.07 130.66C96.43 129.74 96.16 128.69 95.96 127.61C95.84 126.92 94.72 127.08 94.74 127.77C94.79 129.12 95.45 130.25 96.43 131.15C96.75 131.44 97.33 131.06 97.06 130.66H97.07Z" fill="white"/>
</g>
<path d="M156.57 123.52C156.57 123.58 156.47 123.62 156.41 123.57C154.55 121.92 152.46 120.67 149.59 121.24C148.31 121.49 147.79 119.79 149.05 119.62C152.07 119.2 156.33 120.63 156.56 123.51L156.57 123.52Z" fill="#222221"/>
<path d="M146.06 127.34C152.11 127.58 156.54 132.42 156.28 137.21C156.21 138.44 153.89 138.44 153.97 137.21C154.22 133.13 150.95 129.37 145.93 128.84C140.42 128.26 136.87 131.89 135.46 135.83C135.38 136.07 134.96 136.01 134.95 135.78C134.74 131.09 140.57 127.13 146.06 127.35V127.34Z" fill="#222221"/>
<path d="M65.8 127.34C71.28 127.11 77.12 131.07 76.91 135.77C76.9 136.01 76.48 136.06 76.4 135.82C74.98 131.88 71.45 128.25 65.93 128.83C60.9 129.36 57.63 133.12 57.89 137.2C57.97 138.43 55.64 138.43 55.58 137.2C55.32 132.42 59.75 127.57 65.8 127.33V127.34Z" fill="#222221"/>
<path d="M62.8 119.62C64.07 119.79 63.54 121.49 62.25 121.24C59.39 120.67 57.3 121.91 55.44 123.57C55.39 123.61 55.28 123.58 55.28 123.52C55.52 120.63 59.78 119.2 62.79 119.63L62.8 119.62Z" fill="#222221"/>
<path d="M105.23 109.26C105.08 108.67 104.31 108.76 104.12 109.26C103.75 110.26 103.94 111.41 104.09 112.44C104.24 113.54 104.41 114.71 104.96 115.68C105.05 115.83 105.24 115.74 105.26 115.6C105.4 114.51 105.25 113.38 105.26 112.28C105.28 111.27 105.48 110.23 105.22 109.26H105.23Z" fill="#222221"/>
<path d="M104.91 96.09C105.06 95.01 103.48 94.8 103.43 95.89C103.32 98.37 103.47 100.86 104.17 103.25C104.25 103.51 104.66 103.47 104.66 103.18C104.62 100.8 104.59 98.45 104.91 96.08V96.09Z" fill="#222221"/>
<path d="M104.05 83.31C103.71 85.82 103.65 88.35 104.09 90.85C104.14 91.11 104.5 91.02 104.53 90.79C104.77 88.41 105.01 86.04 105.42 83.69C105.58 82.79 104.17 82.43 104.05 83.31Z" fill="#222221"/>
<path d="M98.6 105.63C98.28 104.85 97.22 105.14 97.34 105.98C97.57 107.55 98.18 109.08 98.53 110.63C98.88 112.18 99.19 113.73 99.53 115.28C99.55 115.38 99.69 115.35 99.69 115.26C99.9 112.27 99.77 108.44 98.6 105.63Z" fill="#222221"/>
<path d="M96.29 91.13C95.99 90.75 95.34 91.08 95.35 91.52C95.39 92.73 95.93 93.9 96.21 95.08C96.55 96.55 96.82 98.05 97.02 99.55C97.08 100.02 97.72 100.03 97.76 99.55C97.99 96.97 97.96 93.27 96.29 91.13Z" fill="#222221"/>
<path d="M94.0899 82.37C93.6499 81.84 92.8399 82.52 93.1599 83.09C93.9399 84.46 94.6499 85.64 94.9099 87.22C94.9699 87.59 95.5599 87.5 95.5599 87.13C95.5599 85.48 95.1699 83.66 94.0899 82.37Z" fill="#222221"/>
<path d="M111.35 103.08C111.2 102.62 110.57 102.62 110.41 103.08C109.9 104.59 110.18 106.35 110.25 107.93C110.33 109.77 110.49 111.6 110.62 113.44C110.64 113.77 111.11 113.77 111.13 113.44C111.26 111.6 111.42 109.77 111.5 107.93C111.57 106.34 111.85 104.6 111.34 103.08H111.35Z" fill="#222221"/>
<path d="M112.68 91.65C111.54 93.42 111.48 96.43 111.69 98.45C111.72 98.73 112.14 98.83 112.21 98.52C112.48 97.37 112.65 96.2 112.92 95.05C113.17 94 113.56 92.97 113.54 91.88C113.54 91.41 112.92 91.26 112.67 91.65H112.68Z" fill="#222221"/>
<path d="M113.33 82.48C112.42 84.23 112.13 86.28 112.28 88.24C112.32 88.76 113.06 88.77 113.1 88.24C113.23 86.35 113.74 84.69 114.37 82.92C114.59 82.31 113.63 81.91 113.33 82.48Z" fill="#222221"/>
<path d="M93.45 102.31C93.2 100.69 93.1501 98.95 92.4301 97.46C92.2001 96.99 91.56 97.27 91.52 97.71C91.4 99.23 91.9301 100.78 92.2501 102.25C92.6201 103.94 93.03 105.62 93.45 107.3C93.54 107.65 94.14 107.59 94.09 107.21C93.89 105.57 93.6901 103.94 93.4401 102.3L93.45 102.31Z" fill="#222221"/>
<path d="M88.4199 84.91C88.0299 84.64 87.4299 85.09 87.5999 85.54C87.9799 86.55 88.7599 87.39 89.2499 88.37C89.8199 89.52 90.1999 90.73 90.4399 91.99C90.5299 92.44 91.2799 92.34 91.2499 91.88C91.0999 89.63 90.3999 86.29 88.4199 84.91Z" fill="#222221"/>
<path d="M116.33 97.84C114.98 100.68 115.27 104.62 115.78 107.65C115.83 107.93 116.26 107.85 116.27 107.58C116.32 105.99 116.4 104.39 116.6 102.81C116.79 101.24 117.3 99.67 117.32 98.1C117.32 97.6 116.57 97.35 116.34 97.83L116.33 97.84Z" fill="#222221"/>
<path d="M119.2 87.24C118.02 88.86 117.56 91.02 117.39 92.98C117.35 93.42 118.08 93.52 118.16 93.08C118.51 91.14 119.31 89.54 120.12 87.78C120.41 87.15 119.6 86.68 119.2 87.24Z" fill="#222221"/>
<path d="M66.9801 52C66.4301 51.59 65.6301 52.27 65.8301 52.88C66.8301 55.93 67.8501 58.97 68.8701 62.02C61.9901 60.22 54.6201 63.21 48.3301 65.85C47.4301 66.23 47.3901 67.85 48.5901 67.74C53.5801 67.3 58.1401 68.44 62.7901 69.97C57.5201 70.96 53.3601 76.37 50.2701 80.23C49.7201 80.92 50.3901 81.92 51.2401 81.49C55.0401 79.54 58.7401 79.04 62.8001 78.05C63.3801 77.91 63.1901 77.13 62.6701 77.08C59.6601 76.77 56.4601 77.58 53.5401 78.73C54.6601 77.4 55.8201 76.11 57.1001 74.93C59.4001 72.82 61.8801 71.63 64.6501 70.3C64.9001 70.18 64.7701 69.81 64.5301 69.79C64.5001 69.71 64.4501 69.63 64.3601 69.58C60.8301 67.49 56.9701 66.55 53.0001 66.11C58.3501 64.19 63.5601 62.99 69.5001 63.29C70.0401 63.62 70.9301 63.22 70.6701 62.46C69.8201 59.91 68.9801 57.36 68.1201 54.82C72.5301 58.46 75.9101 63.1 78.1101 68.44C78.2301 68.74 78.7101 68.63 78.6101 68.3C76.5701 61.64 72.5601 56.11 66.9701 51.99L66.9801 52Z" fill="#222221"/>
<path d="M159.27 78.1C155.75 73.95 151.79 69.45 146.29 68.22C150.2 67.05 154.07 65.88 158.07 65.02C158.82 64.86 158.67 63.87 158.07 63.64C152.16 61.36 145.84 60.18 139.52 60.79C141.84 57.65 142.69 53.34 142.41 49.53C142.36 48.82 141.47 48.74 141.22 49.37C139.65 53.27 135.68 56.17 132.14 58.13C132.02 58.2 132.1 58.4 132.23 58.35C136.19 57.02 138.71 54.47 141.12 51.41C140.82 54.81 139.57 57.57 137.85 60.71C137.53 61.28 138.17 61.94 138.7 61.73C138.77 61.78 138.86 61.82 138.98 61.82C144.65 61.8 150.02 62.41 155.32 64.16C151.83 64.94 148.37 65.87 145.05 67.17C144.48 67.39 144.48 68.1 144.84 68.39C144.81 68.56 144.89 68.74 145.12 68.8C149.9 70.21 153.39 73.46 156.57 77.07C153.48 76.03 150.17 75.16 147.01 75.25C146.38 75.27 146.23 76.19 146.86 76.36C150.8 77.39 154.74 77.86 158.61 79.26C159.32 79.52 159.69 78.58 159.29 78.1H159.27Z" fill="#222221"/>
<path d="M30.89 125.49C29.64 126.66 28.77 128.29 28.1 129.94C27.6 127.63 27.43 125.33 27.28 122.93C27.26 122.63 26.89 122.48 26.69 122.62C26.47 122.48 26.17 122.45 25.93 122.69C23.85 124.76 21.96 127 20.25 129.38C20.25 126.88 20.64 124.46 21.09 121.96C21.13 121.71 20.79 121.52 20.65 121.78C19.13 124.69 18.82 128.06 19.05 131.29C19.1 131.93 19.88 132.15 20.24 131.61C22.05 128.88 24.11 126.37 26.4 124.03C26.16 126.76 26.63 129.57 27.39 132.17C27.57 132.79 28.38 132.73 28.59 132.17C29.39 129.97 30.7 128.17 31.68 126.08C31.91 125.58 31.33 125.08 30.9 125.48L30.89 125.49Z" fill="#222221"/>
<path d="M186.18 125.61C185.98 125.29 185.43 125.49 185.55 125.87C186.9 130.24 188.07 134.37 187.54 138.87C186.1 136.69 184.39 134.78 182.37 133.03C181.84 132.57 181.12 133.02 181.24 133.69C181.8 136.83 181.93 139.91 181.75 143.03C180.95 140.75 179.91 138.63 178.55 136.53C178.44 136.36 178.18 136.51 178.27 136.69C179.79 139.68 180.86 142.74 181.53 146.03C181.64 146.55 182.49 146.56 182.58 146.03C183.24 142.44 183.28 138.91 182.83 135.34C184.55 137.07 186.01 138.96 187.34 141.07C187.71 141.67 188.52 141.37 188.59 140.73C189.12 135.57 188.98 130.16 186.17 125.61H186.18Z" fill="#222221"/>
</g>
<defs>
<clipPath id="clip0_254_1272">
<rect width="211.94" height="222.75" fill="white"/>
</clipPath>
</defs>
</svg>
