<svg width="204" height="208" viewBox="0 0 204 208" fill="none" xmlns="http://www.w3.org/2000/svg">
<g clip-path="url(#clip0_254_1278)">
<path d="M101.76 207.76C157.96 207.76 203.52 161.251 203.52 103.88C203.52 46.5087 157.96 0 101.76 0C45.5595 0 0 46.5087 0 103.88C0 161.251 45.5595 207.76 101.76 207.76Z" fill="#EBB7CB"/>
<path d="M170.42 41.58C170.88 49.56 166.34 58.33 163.95 65.83C160.28 77.38 149.88 85.82 149.55 86.05C153.1 90.98 156.07 96.37 158.61 101.76C164.5 114.21 168.38 128.11 168.95 141.92C169.54 156.39 162.44 168.21 150.64 176.22C138.84 184.23 123.98 186.27 110.05 186.86C96.1101 187.46 81.7701 187.1 68.2801 183.2C55.5301 179.51 43.2901 172.28 35.9501 160.94C27.5701 148 28.2501 134.36 34.0201 120.64C39.8501 106.75 52.0301 84.21 61.8301 77.42C56.3301 71.08 49.8601 64.55 46.2501 56.85C42.8101 49.52 39.7701 38.8 43.6501 31.12C47.4801 23.53 55.9501 24.44 60.5901 30.68C63.4801 34.56 64.3001 39.49 65.2001 44.14C66.9101 52.95 68.4101 61.82 70.3101 70.59C74.7901 68.02 92.9401 63.9 102.81 64.49C118.39 65.42 134.25 71.26 141.28 75.51C142.4 67 143.85 58.46 146.82 50.37C148.39 46.11 150.39 41.98 152.96 38.22C154.14 36.51 155.44 34.12 157.31 32.99C166.12 27.67 170.05 35.22 170.42 41.59V41.58Z" fill="#B05449"/>
<path d="M165.37 113.25C169.84 126.54 173.85 143.53 168.82 157.17C164.6 168.66 154.75 177.13 143.77 181.96C129.59 188.21 113.49 188.96 98.2101 188.78C83.0601 188.6 67.5501 186.56 54.0301 179.32C42.4301 173.11 32.8501 163.09 29.1001 150.27C25.0501 136.4 30.2801 123.65 36.2601 111.22C41.9601 99.38 48.8701 85.95 58.8401 76.8C50.7801 69.97 44.4301 59.97 41.6401 49.85C39.6301 42.49 38.5001 31.44 45.0401 25.83C51.7201 20.11 60.4301 25.54 63.8401 32.14C66.4101 37.13 67.1501 42.92 68.2401 48.36C69.5701 54.97 70.9501 61.58 72.1501 68.22C80.6001 64.56 90.4701 62.85 100.91 62.9C115.23 62.74 128.56 64.77 139.45 72.78C141.06 61.37 143.44 49.85 149.34 39.81C152.93 33.69 160.53 24.02 168.09 30.73C176.83 38.49 170.99 52.91 167.74 61.79C164.37 71.03 160.13 80.14 152.11 86.11C157.95 94.42 162.26 104.09 165.36 113.24L165.37 113.25ZM163.95 65.84C166.34 58.34 170.88 49.57 170.42 41.59C170.05 35.23 166.12 27.67 157.31 32.99C155.44 34.11 154.13 36.51 152.96 38.22C150.39 41.98 148.39 46.11 146.82 50.37C143.85 58.46 142.4 67.01 141.28 75.51C134.25 71.26 118.38 65.42 102.81 64.49C92.9401 63.9 74.7901 68.02 70.3101 70.59C68.4201 61.82 66.9101 52.95 65.2001 44.14C64.3001 39.49 63.4801 34.56 60.5901 30.68C55.9501 24.45 47.4801 23.53 43.6501 31.12C39.7701 38.8 42.8101 49.52 46.2501 56.85C49.8601 64.55 56.3301 71.08 61.8301 77.42C52.0301 84.2 39.8501 106.75 34.0201 120.64C28.2601 134.36 27.5801 148 35.9501 160.94C43.2901 172.27 55.5301 179.51 68.2801 183.2C81.7701 187.09 96.1001 187.46 110.05 186.86C123.98 186.27 138.84 184.23 150.64 176.22C162.44 168.21 169.54 156.38 168.95 141.92C168.39 128.11 164.51 114.22 158.61 101.76C156.07 96.38 153.11 90.98 149.55 86.05C149.88 85.83 160.28 77.39 163.95 65.83V65.84Z" fill="#222221"/>
<g opacity="0.6" style="mix-blend-mode:multiply">
<path d="M48.3202 29.02C51.8402 30.24 54.2302 33.85 56.0302 36.9C58.6102 41.29 60.5302 46.06 62.2602 50.84C63.9402 55.46 65.4002 60.16 66.7502 64.89C67.3902 67.13 67.9402 69.41 68.6202 71.64C70.9002 70.47 73.2502 69.45 75.6502 68.54C73.2802 69.25 71.4002 69.97 70.3202 70.59C68.4302 61.82 66.9202 52.95 65.2102 44.14C64.3102 39.49 63.4802 34.56 60.6002 30.68C56.5002 25.17 49.4102 23.83 45.1802 28.83C46.1702 28.61 47.2202 28.63 48.3402 29.02H48.3202Z" fill="#B05449"/>
</g>
<g opacity="0.6" style="mix-blend-mode:multiply">
<path d="M158.61 101.76C156.07 96.38 153.11 90.98 149.55 86.05C149.88 85.83 160.28 77.39 163.95 65.83C166.34 58.33 170.88 49.56 170.42 41.58C170.11 36.2 167.25 29.98 161.06 31.38C163.25 32.8 165.01 34.78 165.96 37.44C167.46 41.63 166.75 46.39 165.58 50.57C164.12 55.75 161.73 60.68 159.05 65.33C156.35 70 153.28 74.46 149.91 78.67C147.78 81.33 145.5 84.02 142.87 86.23C150 92.45 154.44 101.26 156.99 110.25C161.97 127.82 161.13 147.6 151.95 163.65C149.42 168.08 146.33 172.19 142.86 175.93C141 177.93 139.04 179.85 136.96 181.61C136.15 182.3 135.25 182.91 134.33 183.49C140.11 181.9 145.64 179.59 150.63 176.2C162.43 168.19 169.53 156.36 168.94 141.9C168.38 128.09 164.5 114.2 158.6 101.74L158.61 101.76Z" fill="#B05449"/>
</g>
<path d="M44.7501 166.2C39.7301 160.9 36.9401 154.39 35.3101 147.35C35.0501 146.22 33.3401 146.7 33.5801 147.83C35.1501 155.13 39.1801 161.32 44.3601 166.6C44.6101 166.85 44.9901 166.47 44.7501 166.21V166.2Z" fill="white"/>
<path d="M69.74 147.16C70.16 149.76 69.86 152.94 67.52 154.57C66.07 155.58 64.37 155.52 63.01 154.66C63.65 155.8 64.57 156.75 65.87 157.26C66.46 157.5 66.24 158.44 65.61 158.23C60.72 156.67 59 149.8 60.64 145.33C61.4 143.27 63.37 141.5 65.7 141.91C68.18 142.34 69.39 144.92 69.74 147.16Z" fill="#222221"/>
<path d="M63.87 135.7C64.01 135.91 63.95 136.21 63.79 136.38C63.4 136.77 63.07 136.69 62.56 136.76C61.96 136.84 61.4 137.05 60.89 137.36C59.81 138.04 59.24 139.02 58.81 140.2C58.61 140.75 57.84 140.64 57.8 140.06C57.7 138.53 58.68 137.07 59.88 136.2C60.82 135.52 63.02 134.51 63.87 135.7Z" fill="#222221"/>
<path d="M64.9199 142.73C62.0599 143.82 61.7399 148.19 62.6699 150.61C62.7299 150.76 62.9899 150.76 62.9799 150.57C62.8699 149.27 63.0899 147.89 63.5999 146.69C64.0999 145.52 65.0899 144.75 65.6299 143.66C65.8499 143.22 65.4699 142.52 64.9199 142.73Z" fill="white"/>
<path d="M134.17 147.16C133.75 149.76 134.05 152.94 136.39 154.57C137.84 155.58 139.54 155.52 140.9 154.66C140.26 155.8 139.34 156.75 138.04 157.26C137.45 157.5 137.67 158.44 138.3 158.23C143.19 156.67 144.91 149.8 143.27 145.33C142.51 143.27 140.54 141.5 138.21 141.91C135.73 142.34 134.52 144.92 134.17 147.16Z" fill="#222221"/>
<path d="M140.04 135.7C139.9 135.91 139.96 136.21 140.12 136.38C140.51 136.77 140.84 136.69 141.35 136.76C141.95 136.84 142.51 137.05 143.02 137.36C144.1 138.04 144.67 139.02 145.1 140.2C145.3 140.75 146.07 140.64 146.11 140.06C146.21 138.53 145.23 137.07 144.03 136.2C143.09 135.52 140.89 134.51 140.04 135.7Z" fill="#222221"/>
<path d="M138.17 142.73C135.31 143.82 134.99 148.19 135.92 150.61C135.98 150.76 136.24 150.76 136.23 150.57C136.12 149.27 136.34 147.89 136.85 146.69C137.35 145.52 138.34 144.75 138.88 143.66C139.1 143.22 138.72 142.52 138.17 142.73Z" fill="white"/>
<path d="M62.4702 49.58C63.9602 56.24 67.1102 69.87 67.2102 69.97C65.7702 70.66 64.3702 71.51 63.2202 72.62C59.0102 68.31 55.0402 63.97 52.1602 58.6C50.5702 55.62 49.2502 52.46 48.2902 49.22C47.9002 47.91 47.5602 46.57 47.2702 45.22C46.0902 39.44 45.6602 34.18 49.7902 31.89C53.9702 29.59 56.8202 31.92 58.9902 36.74C59.6402 38.18 60.0602 39.68 60.4802 41.21C61.2402 43.98 61.8402 46.79 62.4502 49.59L62.4702 49.58Z" fill="#EDBA97"/>
<path d="M68.5702 70.46C68.6402 70.75 63.2602 73.71 63.0902 73.6C55.8802 68.15 50.6402 60.01 47.6802 51.53C45.6902 45.81 42.8702 36.2 48.2902 31.42C61.8202 19.48 67.3402 65.12 68.5602 70.47L68.5702 70.46ZM67.2202 69.96C67.1202 69.87 63.9702 56.24 62.4802 49.57C61.8702 46.77 61.2602 43.96 60.5102 41.19C60.0902 39.66 59.6702 38.16 59.0202 36.72C56.8502 31.9 54.0002 29.57 49.8202 31.87C45.6902 34.16 46.1202 39.42 47.3002 45.2C47.5902 46.55 47.9302 47.89 48.3202 49.2C49.2702 52.44 50.5902 55.6 52.1902 58.58C55.0602 63.95 59.0402 68.29 63.2502 72.6C64.4002 71.49 65.8002 70.64 67.2402 69.95L67.2202 69.96Z" fill="#222221"/>
<g opacity="0.6" style="mix-blend-mode:multiply">
<path d="M62.4701 49.58C61.8601 46.78 61.2501 43.97 60.5001 41.2C60.0801 39.67 59.6601 38.17 59.0101 36.73C56.8401 31.91 53.9901 29.58 49.8101 31.88C49.6601 31.97 49.5201 32.06 49.3801 32.16C50.0901 32.23 50.8001 32.42 51.5101 32.78C54.6401 34.36 56.2701 38.1 57.3701 41.23C58.9601 45.79 59.7301 50.63 60.2701 55.41C60.8201 60.29 61.0501 65.22 60.9901 70.14C60.9901 70.19 60.9901 70.23 60.9901 70.28C61.7301 71.06 62.4701 71.84 63.2301 72.62C64.3801 71.51 65.7801 70.66 67.2201 69.97C67.1201 69.88 63.9701 56.25 62.4801 49.58H62.4701Z" fill="#EDBA97"/>
</g>
<path d="M49.6301 42.38C49.5701 41.67 48.5901 41.67 48.5301 42.38C48.0301 47.76 50.1801 52.96 52.9501 57.45C52.9901 57.51 53.0801 57.45 53.0501 57.39C50.6201 52.59 50.1101 47.64 49.6301 42.38Z" fill="white"/>
<path d="M163.51 37.45C169.8 40.64 166.76 51.89 165.2 56.92C162.18 66.68 149.19 84.42 149 84.14C147.46 82.06 144.64 79.64 142.61 78.05C142.22 77.75 148.11 55.3 152.53 45.55C154.31 41.64 158.14 34.7 163.52 37.45H163.51ZM158.99 65.87C161.94 60.29 165.96 51.93 165.3 45.3C164.66 38.77 158.23 38.75 155.69 42.79C154.66 44.41 153.86 46.23 153.15 48C151.96 51.02 151.1 54.19 150.16 57.3C148.12 64.06 146.37 70.97 143.84 77.56C143.81 77.64 143.77 77.69 143.74 77.73C145.6 78.96 147.19 80.46 148.59 82.2C152.28 76.89 155.96 71.56 158.99 65.86V65.87Z" fill="#222221"/>
<path d="M165.3 45.3C165.95 51.93 161.94 60.29 158.99 65.87C155.96 71.57 152.27 76.9 148.59 82.21C147.19 80.47 145.6 78.97 143.74 77.74C143.78 77.7 143.82 77.65 143.84 77.57C146.38 70.98 148.13 64.07 150.16 57.31C151.1 54.2 151.96 51.02 153.15 48.01C153.86 46.23 154.65 44.42 155.69 42.8C158.23 38.76 164.65 38.78 165.3 45.31V45.3Z" fill="#EDBA97"/>
<g opacity="0.6" style="mix-blend-mode:multiply">
<path d="M165.3 45.3C164.81 40.35 161.01 39.15 158.09 40.61C160.01 42.85 160.98 45.67 160.98 48.77C160.98 52.78 159.69 56.71 158.13 60.35C156.32 64.59 154 68.6 151.49 72.46C149.86 74.97 148.12 77.39 146.34 79.78C147.15 80.53 147.89 81.34 148.59 82.21C152.28 76.9 155.96 71.57 158.99 65.87C161.94 60.29 165.96 51.93 165.3 45.3Z" fill="#EDBA97"/>
</g>
<path d="M154 48.27C152.4 50.48 151.71 53.38 150.95 55.97C150.19 58.57 149.38 61.27 149.39 64C149.39 64.11 149.55 64.16 149.6 64.06C150.68 61.78 151.25 59.27 152.07 56.89C153 54.19 154.5 51.51 155.01 48.71C155.13 48.07 154.36 47.75 153.98 48.28L154 48.27Z" fill="white"/>
<path d="M115.42 159.45C118.57 154.67 115.59 149.66 113.43 145.22C113.22 144.78 113.8 144.24 114.15 144.66C118.2 149.52 121.05 159.34 113.76 162.96C112.51 163.57 111.15 163.71 109.79 163.5C109.83 165.62 109.88 167.73 109.91 169.85C109.92 170.74 110.2 172.2 109.67 173.03C109.08 173.94 107.83 173.97 106.89 174.09C105.03 174.31 103.18 174.42 101.32 174.4C99.45 174.39 96.26 174.74 95.92 172.23C95.7 170.54 96.12 168.56 96.33 166.89C96.49 165.5 96.67 164.11 96.94 162.73C95.61 163.29 94.09 163.49 92.47 163.17C86.07 161.93 85.5 155.24 87.01 149.98C87.1 149.65 87.66 149.71 87.62 150.07C87.21 154.54 86.72 160.16 92.52 161.05C97.36 161.79 100.53 157.65 101.67 153.44C101.74 153.22 101.97 153.26 102.06 153.4C102.22 153.15 102.69 153.2 102.65 153.54C101.87 160 111.26 165.75 115.42 159.45ZM108.5 166.96C108.53 165.71 108.54 164.45 108.55 163.2C105.88 162.35 103.45 160.21 102.39 157.67C102.68 161.37 102.63 165.28 102.6 168.92C102.6 169.21 102.14 169.29 102.09 168.99C101.48 165.7 101.12 161.84 101.36 158.33C100.67 159.86 99.57 161.17 98.2 162.07C98.13 164.29 97.86 166.54 97.7 168.76C97.62 169.81 97.05 171.9 98.13 172.63C98.78 173.07 100.97 172.83 101.79 172.84C102.87 172.84 103.95 172.81 105.03 172.74C105.64 172.7 106.27 172.65 106.89 172.57C108.21 172.48 108.73 171.88 108.46 170.81C108.75 169.71 108.49 168.13 108.5 166.98V166.96Z" fill="#222221"/>
<path d="M108.55 163.2C108.54 164.45 108.52 165.71 108.5 166.96C108.49 168.11 108.75 169.69 108.46 170.79C108.73 171.86 108.21 172.46 106.89 172.55C106.28 172.63 105.65 172.68 105.03 172.72C103.95 172.8 102.87 172.82 101.79 172.82C100.97 172.81 98.78 173.06 98.13 172.61C97.05 171.88 97.62 169.79 97.7 168.74C97.86 166.52 98.13 164.27 98.2 162.05C99.57 161.15 100.67 159.84 101.36 158.31C101.12 161.83 101.48 165.68 102.09 168.97C102.14 169.27 102.6 169.19 102.6 168.9C102.63 165.25 102.68 161.35 102.39 157.65C103.45 160.19 105.88 162.33 108.55 163.18V163.2Z" fill="#ECE9F4"/>
<g opacity="0.6" style="mix-blend-mode:multiply">
<path d="M108.5 166.96C108.53 165.71 108.54 164.45 108.55 163.2C107.65 162.91 106.78 162.47 105.98 161.92C105.23 163.69 104.26 165.35 102.99 166.75C102.87 166.88 102.74 166.99 102.62 167.11C102.62 167.72 102.62 168.32 102.61 168.92C102.61 169.21 102.15 169.29 102.1 168.99C102.03 168.6 101.97 168.19 101.91 167.78C100.92 168.6 99.78 169.25 98.52 169.53C98.21 169.6 97.9 169.64 97.59 169.67C97.45 170.74 97.32 172.06 98.14 172.61C98.79 173.05 100.98 172.81 101.8 172.82C102.88 172.82 103.96 172.79 105.04 172.72C105.65 172.68 106.28 172.63 106.9 172.55C108.22 172.46 108.74 171.86 108.47 170.79C108.76 169.69 108.5 168.11 108.51 166.96H108.5Z" fill="#E0E0DE"/>
</g>
<path d="M94.16 149.15C92.89 150.3 100.35 155.89 102.29 155.75C104.23 155.61 108.36 152.01 108.59 150.14C108.82 148.27 97.47 146.14 94.16 149.15Z" fill="#222221"/>
<path d="M100.57 129.02C100.65 128.06 99.0002 128.06 99.0802 129.02C99.3402 131.91 99.6102 134.65 100.45 137.45C100.48 137.55 100.64 137.54 100.64 137.42C100.51 134.64 100.33 131.79 100.57 129.02Z" fill="#222221"/>
<path d="M99.3601 112.77C99.2801 111.72 97.6201 111.73 97.7301 112.77C98.0301 115.84 98.5701 118.99 99.5301 121.93C99.5601 122.01 99.6701 122 99.6801 121.91C99.7501 118.88 99.5801 115.79 99.3701 112.77H99.3601Z" fill="#222221"/>
<path d="M98.7501 96.9C98.6201 96.34 97.7401 96.33 97.6101 96.9C96.9701 99.76 97.9401 103.07 98.6401 105.84C98.6401 105.87 98.6901 105.86 98.6901 105.84C98.7701 102.97 99.3901 99.74 98.7501 96.91V96.9Z" fill="#222221"/>
<path d="M97.9602 84.46C97.8902 82.92 97.9901 81.23 97.5201 79.76C97.3801 79.32 96.6701 79.25 96.5601 79.76C96.2201 81.27 96.5002 82.93 96.6702 84.46C96.8402 86.01 97.0401 87.59 97.6301 89.04C97.6701 89.13 97.8302 89.16 97.8502 89.04C98.1202 87.53 98.0302 85.98 97.9702 84.46H97.9602Z" fill="#222221"/>
<path d="M97.1801 66.93C97.1801 66.04 95.7401 66.05 95.8101 66.93C96.0001 69.63 96.0101 72.35 96.6101 75C96.6401 75.13 96.8601 75.14 96.8901 75C97.3201 72.32 97.1601 69.63 97.1901 66.93H97.1801Z" fill="#222221"/>
<path d="M94.7802 117.36C94.6002 116.79 93.7702 116.9 93.7402 117.5C93.5902 120.84 94.7402 124.46 95.2302 127.76C95.2502 127.87 95.4302 127.84 95.4302 127.73C95.4302 124.43 95.8102 120.53 94.7902 117.35L94.7802 117.36Z" fill="#222221"/>
<path d="M93.8902 102.59C93.6902 102.04 92.8602 102.11 92.8502 102.73C92.7802 105.3 93.7702 108.04 94.1502 110.59C94.1602 110.67 94.2702 110.64 94.2802 110.57C94.4102 108.05 94.7802 105.01 93.9002 102.59H93.8902Z" fill="#222221"/>
<path d="M92.0901 87.07C91.9201 86.65 91.2102 86.65 91.2302 87.19C91.2802 88.58 91.6701 89.98 91.9301 91.35C92.2201 92.9 92.3901 94.48 92.7801 96C92.8301 96.18 93.0601 96.12 93.0801 95.96C93.3601 93.3 93.1101 89.56 92.0901 87.07Z" fill="#222221"/>
<path d="M90.5602 74.12C90.3102 73.56 89.5402 73.9 89.5102 74.41C89.4202 75.66 89.7902 76.98 90.0102 78.2C90.2602 79.58 90.5002 80.98 90.8802 82.34C90.9602 82.61 91.3202 82.53 91.3502 82.28C91.6102 79.83 91.5902 76.42 90.5702 74.13L90.5602 74.12Z" fill="#222221"/>
<path d="M103.94 117.69C103.74 120.67 103.89 123.58 104.49 126.5C104.53 126.69 104.82 126.64 104.82 126.45C104.89 123.53 104.94 120.61 105.07 117.69C105.1 116.95 103.98 116.96 103.93 117.69H103.94Z" fill="#222221"/>
<path d="M104.21 103.34C104.1 102.91 103.5 102.94 103.37 103.34C102.97 104.63 103.16 106.13 103.17 107.47C103.18 108.84 103.18 110.2 103.37 111.55C103.4 111.8 103.81 111.79 103.86 111.55C104.11 110.2 104.17 108.83 104.24 107.47C104.31 106.12 104.56 104.65 104.22 103.34H104.21Z" fill="#222221"/>
<path d="M105.26 88.3C105.2 87.65 104.26 87.44 104.07 88.14C103.73 89.37 103.86 90.73 103.83 92C103.79 93.44 103.74 94.88 103.79 96.32C103.79 96.53 104.13 96.6 104.17 96.37C104.45 94.97 104.64 93.55 104.84 92.13C105.01 90.87 105.38 89.56 105.26 88.29V88.3Z" fill="#222221"/>
<path d="M104.12 73.51C103.87 75.94 103.78 78.37 103.75 80.81C103.75 81.09 104.19 81.16 104.25 80.88C104.74 78.44 105.18 75.99 105.46 73.52C105.56 72.67 104.22 72.67 104.13 73.52L104.12 73.51Z" fill="#222221"/>
<path d="M90.4602 122.82C90.2702 122.29 89.3702 122.32 89.4102 122.96C89.6202 126.3 90.8402 129.73 91.4102 133.04C91.4102 133.08 91.4802 133.07 91.4802 133.04C91.4202 129.79 91.5602 125.93 90.4602 122.82Z" fill="#222221"/>
<path d="M88.3202 107.87C88.1602 107.18 87.0902 107.47 87.2602 108.16C87.8902 110.85 88.3302 113.58 88.9702 116.27C89.0102 116.44 89.2602 116.4 89.2702 116.23C89.4002 113.43 88.9402 110.59 88.3202 107.87Z" fill="#222221"/>
<path d="M86.8301 94.91C86.6101 94.37 85.7301 94.38 85.7401 95.06C85.7601 96.32 86.1601 97.57 86.4201 98.81C86.7101 100.19 86.9301 101.59 87.2501 102.96C87.3101 103.23 87.7101 103.16 87.7201 102.9C87.8101 100.45 87.7801 97.2 86.8401 94.91H86.8301Z" fill="#222221"/>
<path d="M85.5901 80.47C85.4701 79.71 84.2901 80.03 84.4201 80.79C84.9201 83.55 85.3401 86.31 85.7201 89.09C85.7601 89.38 86.2201 89.3 86.2201 89.02C86.2601 86.17 86.0301 83.29 85.5801 80.47H85.5901Z" fill="#222221"/>
<path d="M109.85 122.81C109.8 122.15 108.86 122.14 108.82 122.81C108.61 125.7 109.02 128.69 109.21 131.57C109.22 131.73 109.45 131.73 109.46 131.57C109.65 128.69 110.06 125.69 109.85 122.81Z" fill="#222221"/>
<path d="M109.23 109.17C109.14 108.72 108.38 108.7 108.3 109.17C107.88 111.69 108.46 114.56 108.84 117.06C108.9 117.48 109.6 117.38 109.58 116.96C109.45 114.42 109.72 111.66 109.23 109.17Z" fill="#222221"/>
<path d="M109.21 95.23C108.92 97.51 109.07 99.88 109.09 102.17C109.09 102.47 109.51 102.45 109.54 102.17C109.78 99.88 110.16 97.53 110.09 95.23C110.07 94.64 109.27 94.68 109.2 95.23H109.21Z" fill="#222221"/>
<path d="M110.54 79.29C109.55 81.32 109.51 84.43 109.52 86.65C109.52 86.98 110.03 87.06 110.1 86.73C110.38 85.47 110.6 84.21 110.85 82.95C111.07 81.83 111.47 80.68 111.43 79.53C111.41 79.09 110.76 78.84 110.54 79.29Z" fill="#222221"/>
</g>
<defs>
<clipPath id="clip0_254_1278">
<rect width="203.52" height="207.76" fill="white"/>
</clipPath>
</defs>
</svg>
