<svg width="204" height="208" viewBox="0 0 204 208" fill="none" xmlns="http://www.w3.org/2000/svg">
<g clip-path="url(#clip0_254_1282)">
<path d="M101.76 207.76C157.96 207.76 203.52 161.251 203.52 103.88C203.52 46.5087 157.96 0 101.76 0C45.5595 0 0 46.5087 0 103.88C0 161.251 45.5595 207.76 101.76 207.76Z" fill="#FBF3D5"/>
<path d="M177.27 138.16C177.89 153.87 170.19 166.71 157.38 175.41C144.57 184.11 128.43 186.32 113.31 186.96C98.1799 187.61 82.5999 187.22 67.9699 182.99C54.1199 178.97 40.8299 171.13 32.8699 158.83C23.7699 144.78 24.5099 129.97 30.7699 115.06C37.0799 99.99 45.2099 83.99 56.3399 71.84C64.2599 63.2 76.1199 57.68 88.2799 55.31C90.4799 60.06 90.6199 65.3 89.2299 71.83C89.1299 72.3 89.7799 72.47 89.9399 72.03C92.3199 65.73 93.4299 59.15 89.9699 53C86.1399 46.19 78.7299 42.51 73.8899 36.57C69.2499 30.85 67.3599 22.58 74.6599 17.8C80.3599 14.07 87.0899 15.76 92.1999 19.49C101.11 26 104.63 37.41 103.85 48.05C103.75 49.26 105.75 49.55 105.98 48.35C106.6 44.99 109.22 33 115.86 35C123.27 37.23 121.24 45.94 121.14 47.6C120.64 55.9 118 63.49 113.55 70.49C112.67 71.87 114.87 73.14 115.75 71.77C118.94 66.76 121.28 61.41 122.58 55.68C128.78 56.7 133.56 58.39 139.45 61.78C151.92 68.97 160.05 81.84 166.07 94.59C172.46 108.11 176.68 123.2 177.29 138.19L177.27 138.16Z" fill="#A1BF38"/>
<path d="M173.37 107.03C178.24 121.46 182.59 139.91 177.13 154.71C172.53 167.2 161.85 176.38 149.93 181.64C134.53 188.42 117.05 189.25 100.47 189.05C84.0199 188.85 67.1799 186.64 52.4999 178.78C39.8899 172.04 29.4999 161.14 25.4299 147.22C21.0199 132.16 26.7099 118.32 33.1899 104.84C39.9399 90.81 48.2699 74.69 60.7599 64.84C68.0999 59.06 77.2899 55.45 87.4499 53.69C86.0499 51.26 84.0899 48.96 81.4599 46.65C77.6899 43.33 73.5999 40.34 70.7199 36.15C66.2599 29.67 65.9499 21.35 72.7899 16.47C80.3399 11.06 89.8499 13.87 96.0999 19.88C101.78 25.33 104.94 32.68 105.85 40.34C107.03 37.49 108.86 34.91 111.87 33.59C114.95 32.23 118.82 32.5 121.19 35.11C124.67 38.97 123.91 46.72 123.33 51.33C123.23 52.2 123.09 53.03 122.95 53.87C131.41 55.44 139.27 58.45 146.16 63.79C159.54 74.13 168.08 91.36 173.38 107.05L173.37 107.03ZM157.38 175.4C170.19 166.7 177.9 153.86 177.27 138.15C176.66 123.15 172.43 108.07 166.05 94.55C160.03 81.81 151.9 68.94 139.43 61.74C133.54 58.35 128.76 56.66 122.56 55.64C121.27 61.37 118.93 66.72 115.73 71.73C114.85 73.11 112.65 71.83 113.53 70.45C117.99 63.45 120.62 55.86 121.12 47.56C121.22 45.9 123.25 37.19 115.84 34.96C109.2 32.96 106.59 44.95 105.96 48.31C105.73 49.52 103.73 49.22 103.83 48.01C104.61 37.37 101.09 25.96 92.1799 19.45C87.0699 15.72 80.3499 14.03 74.6399 17.76C67.3499 22.54 69.2299 30.81 73.8699 36.53C78.7099 42.48 86.1199 46.15 89.9499 52.96C93.4099 59.1 92.3099 65.69 89.9199 71.99C89.7599 72.43 89.1099 72.26 89.2099 71.79C90.5999 65.26 90.4599 60.03 88.2599 55.27C76.0999 57.64 64.2399 63.16 56.3199 71.8C45.1999 83.95 37.0599 99.95 30.7499 115.02C24.4899 129.93 23.7499 144.75 32.8499 158.79C40.8099 171.09 54.1099 178.94 67.9499 182.95C82.5799 187.18 98.1599 187.58 113.29 186.92C128.42 186.28 144.55 184.07 157.36 175.37L157.38 175.4Z" fill="#222221"/>
<g opacity="0.6" style="mix-blend-mode:multiply">
<path d="M87.6298 63.07C87.8698 60.51 87.0398 58.1 85.7198 55.84C80.7398 57 75.8698 58.69 71.3298 60.91C76.7798 60.48 82.5898 60.91 87.6298 63.07Z" fill="#A1BF38"/>
</g>
<g opacity="0.6" style="mix-blend-mode:multiply">
<path d="M83.92 18.8C90.27 19.97 93.99 27.31 96.26 32.64C98.11 37.01 99.78 41.85 100.52 46.7C101.57 45.59 102.7 44.54 103.92 43.64C103.56 34.36 99.9 25.08 92.2 19.46C87.09 15.73 80.37 14.04 74.66 17.77C69.99 20.83 69.09 25.33 70.27 29.67C71.61 23.83 77.75 17.66 83.92 18.79V18.8Z" fill="#A1BF38"/>
</g>
<g opacity="0.6" style="mix-blend-mode:multiply">
<path d="M108.09 41.46C114.23 39.6 117.16 45.85 118.13 50.8C118.64 53.45 118.9 56.15 119.02 58.87C120.18 55.25 120.9 51.5 121.14 47.58C121.24 45.92 123.27 37.21 115.86 34.98C111.89 33.78 109.36 37.59 107.83 41.57C107.92 41.54 108.01 41.5 108.1 41.47L108.09 41.46Z" fill="#A1BF38"/>
</g>
<g opacity="0.6" style="mix-blend-mode:multiply">
<path d="M177.27 138.16C176.66 123.16 172.43 108.08 166.05 94.56C160.03 81.82 151.9 68.95 139.43 61.75C133.54 58.36 128.76 56.67 122.56 55.65C122.13 57.56 121.57 59.43 120.91 61.26C121.38 60.63 121.85 60 122.34 59.38C122.89 58.69 124.12 58.64 124.82 59.06C137.35 66.61 148.82 75.97 156.39 88.68C169.76 111.12 171.76 142.32 157.84 165.02C152.73 173.36 145.93 179.32 138.16 183.72C144.99 181.99 151.54 179.38 157.39 175.4C170.2 166.7 177.91 153.86 177.28 138.15L177.27 138.16Z" fill="#A1BF38"/>
</g>
<g opacity="0.6" style="mix-blend-mode:soft-light">
<path d="M53.0599 83.61C41.6999 101.96 29.8599 121.85 32.6699 144.29C32.7599 145.02 33.8399 145.07 33.8399 144.29C33.8899 122.2 44.9899 103.67 56.4799 85.61C57.8499 83.45 54.3999 81.44 53.0599 83.61Z" fill="white"/>
</g>
<g opacity="0.6" style="mix-blend-mode:soft-light">
<path d="M89.9599 43.58C88.7499 40.89 87.1899 38.46 85.1199 36.35C83.5399 34.74 80.9899 32.09 78.6299 32.01C77.8999 31.98 77.4099 32.86 77.7899 33.47C78.3799 34.44 79.1299 34.77 80.0699 35.4C81.2599 36.19 82.3499 37.09 83.4099 38.05C85.4299 39.9 87.2499 41.99 88.7999 44.25C89.2999 44.97 90.3199 44.36 89.9599 43.57V43.58Z" fill="white"/>
</g>
<path d="M83.4899 86.37C81.8399 88.23 80.9599 91.08 78.9999 92.67C79.4799 90.27 80.7099 88.15 81.9499 86.03C82.1899 85.62 81.6799 85.03 81.2599 85.34C80.3999 85.96 79.5299 86.57 78.6399 87.13C77.8199 87.65 76.7899 88.51 77.2199 86.88C77.6699 85.19 79.6099 83.74 80.8699 82.64C80.9799 82.54 80.8399 82.38 80.7199 82.44C79.4699 83.09 78.4099 84 77.5299 85.11C76.9699 85.81 75.6599 87.27 75.9399 88.29C76.3199 89.69 78.2599 88.7 79.8199 87.65C78.7499 89.57 77.9299 91.57 77.7099 93.83C77.6599 94.3 78.2199 94.48 78.5699 94.32C81.2399 93.08 83.1599 89.37 84.1799 86.76C84.3299 86.38 83.7599 86.08 83.4999 86.37H83.4899Z" fill="#222221"/>
<path d="M139.72 97.99C139.41 96.49 138.69 94.79 137.81 93.55C137.52 93.14 136.76 93.37 136.94 93.92C137.13 94.49 138.76 98.22 138.38 98.34C137.71 98.54 135.45 94.73 135.03 94.09C134.69 93.58 133.76 93.89 133.98 94.53C134.29 95.41 134.6 96.29 134.91 97.17C135.15 97.84 136.07 99.45 135.81 100.12C135.84 100.5 135.77 100.54 135.59 100.24C135.42 100.05 135.25 99.86 135.08 99.66C134.8 99.34 134.53 99.01 134.26 98.68C133.57 97.84 132.92 96.99 132.28 96.11C132.06 95.8 131.55 96.08 131.76 96.42C132.67 97.86 133.63 99.27 134.67 100.63C135.09 101.18 135.58 101.91 136.38 101.58C137.26 101.22 137.15 100.23 136.94 99.5C136.8 99.01 136.64 98.53 136.47 98.05C136.66 98.29 136.83 98.54 137.03 98.77C137.54 99.38 138.29 100.26 139.19 99.79C139.88 99.43 139.84 98.64 139.71 97.99H139.72Z" fill="#222221"/>
<path d="M117.63 173.98C117.87 179.98 113.57 185.35 108.12 180.2C108.12 180.2 108.11 180.19 108.09 180.17C108.77 174.96 111.21 169.9 113.07 164.26C113.91 161.71 114.49 159.04 114.52 156.41C115.24 158.51 115.91 160.64 116.41 162.81C117.08 165.72 117.69 168.77 117.62 171.76C117.62 172.5 117.63 173.24 117.63 173.97V173.98Z" fill="#E17E45"/>
<path d="M112.01 152.66C113.77 158.75 110.63 164.83 108.43 170.33C105.24 178.36 104.5 185.37 108.74 193.02C98.2801 189.13 87.5601 183.16 81.5401 173.44C74.0101 161.21 77.8101 145.02 93.6401 142.96C100.98 142.01 109.7 144.75 112 152.67L112.01 152.66Z" fill="#E17E45"/>
<path d="M113.82 151.59C118.36 159.04 121.94 170.72 118.74 178.69C116.97 183.13 110.94 186.17 107.91 181.85C107.73 185.28 108.36 188.83 110.58 192.63C111.47 194.16 110.32 194.23 110.01 194.16C97.2801 191.49 84.1401 183.55 78.2101 171.57C73.7801 162.62 74.6101 150.5 83.3901 144.45C91.9601 138.55 106.41 138.97 112.36 148.45C113 149.46 113.47 150.51 113.81 151.57L113.82 151.59ZM108.12 180.19C113.57 185.34 117.87 179.98 117.63 173.97C117.63 173.23 117.62 172.49 117.62 171.76C117.69 168.77 117.08 165.72 116.41 162.81C115.91 160.64 115.25 158.51 114.52 156.41C114.49 159.04 113.91 161.7 113.07 164.26C111.21 169.89 108.77 174.96 108.09 180.17C108.09 180.17 108.1 180.18 108.12 180.2V180.19ZM108.43 170.33C110.63 164.84 113.77 158.75 112.01 152.66C109.71 144.74 100.98 142 93.6501 142.95C77.8101 145.01 74.0101 161.2 81.5501 173.43C87.5701 183.15 98.2901 189.12 108.75 193.01C104.51 185.36 105.25 178.35 108.44 170.32L108.43 170.33Z" fill="#222221"/>
<g opacity="0.6" style="mix-blend-mode:multiply">
<path d="M117.63 173.98C117.87 179.98 113.57 185.35 108.12 180.2C108.12 180.2 108.11 180.19 108.09 180.17C108.77 174.96 111.21 169.9 113.07 164.26C113.91 161.71 114.49 159.04 114.52 156.41C115.24 158.51 115.91 160.64 116.41 162.81C117.08 165.72 117.69 168.77 117.62 171.76C117.62 172.5 117.63 173.24 117.63 173.97V173.98Z" fill="#E17E45"/>
</g>
<g opacity="0.6" style="mix-blend-mode:multiply">
<path d="M108.43 170.33C110.63 164.84 113.77 158.75 112.01 152.66C110.26 146.64 104.79 143.62 99.05 142.93C102.63 145.45 105.22 149.19 106.2 153.56C107.66 160.07 106.23 167.19 104.55 173.52C103.15 178.79 101.16 184.05 100.6 189.51C103.28 190.84 106.03 192 108.76 193.02C104.52 185.37 105.26 178.36 108.45 170.33H108.43Z" fill="#E17E45"/>
</g>
<g opacity="0.6" style="mix-blend-mode:soft-light">
<path d="M97.7401 179.58C95.1701 177.14 92.7001 174.46 90.7401 171.49C88.8901 168.69 87.8701 165.45 86.0301 162.68C85.4801 161.84 84.0701 162.12 84.0801 163.21C84.1601 170.43 90.7401 177.61 96.6001 181.05C97.5101 181.58 98.5101 180.32 97.7301 179.58H97.7401Z" fill="white"/>
</g>
<path d="M98.3 155.31C100.88 153.44 104.59 156.46 102.57 159.21C101.56 160.61 99.85 160.59 98.65 159.88V160.02C98.71 161.52 99.02 163.07 99.42 164.52C99.55 164.93 98.95 165.34 98.65 164.97C96.69 162.54 95.2 157.55 98.3 155.31Z" fill="#222221"/>
<path d="M60.04 140.56C66.74 141.48 69.93 148.15 68.23 154.28C68.2 154.39 68.02 154.38 68.02 154.25C68.3 148.77 65.05 142.64 58.84 142.87C52.85 143.1 51.45 149.03 50.51 153.82C50.2 155.41 47.86 154.71 48.1 153.15C49.09 146.76 52.33 139.49 60.05 140.55L60.04 140.56Z" fill="#222221"/>
<path d="M56.54 133.25C57.69 133.41 57.21 135.19 56.06 135.01C52.57 134.47 50.23 136.76 48.17 139.2C48.04 139.34 47.8 139.21 47.82 139.04C47.83 134.78 52.98 132.75 56.55 133.25H56.54Z" fill="#222221"/>
<path d="M133.54 140.56C126.84 141.48 123.65 148.15 125.35 154.28C125.38 154.39 125.56 154.38 125.56 154.25C125.28 148.77 128.53 142.64 134.74 142.87C140.73 143.1 142.13 149.03 143.07 153.82C143.38 155.41 145.72 154.71 145.48 153.15C144.49 146.76 141.25 139.49 133.53 140.55L133.54 140.56Z" fill="#222221"/>
<path d="M139.4 112.06C138.25 112.22 138.73 114 139.88 113.82C143.37 113.28 145.71 115.57 147.77 118.01C147.9 118.15 148.14 118.02 148.12 117.85C148.11 113.59 142.96 111.56 139.39 112.06H139.4Z" fill="#222221"/>
</g>
<defs>
<clipPath id="clip0_254_1282">
<rect width="203.52" height="207.76" fill="white"/>
</clipPath>
</defs>
</svg>
