<?xml version="1.0" encoding="UTF-8"?>
<svg id="Ebene_1" data-name="Ebene 1" xmlns="http://www.w3.org/2000/svg" viewBox="0 0 810.94 661.01">
  <defs>
    <style>
      .cls-1 {
        stroke: #61033b;
        stroke-width: 8px;
      }

      .cls-1, .cls-2 {
        fill: none;
        stroke-miterlimit: 10;
      }

      .cls-2 {
        stroke: #f6bec9;
        stroke-width: 7px;
      }

      .cls-3 {
        fill: #dc638e;
      }

      .cls-4 {
        fill: #f091ac;
      }

      .cls-5 {
        fill: #fdfcf8;
      }

      .cls-6 {
        fill: #61033b;
      }
    </style>
  </defs>
  <path class="cls-3" d="M627.73,312.96c-7.42-3.37-24.81-2.48-24.81-2.48,13.32-17.8,9.74-26.39,9.74-26.39-33.38-27.8-95.42-8.7-122.26,1.59,25.01-91.33-45.5-119.14-54.16-114.59-8.79,4.61-21.5,26.75-21.5,26.75-10.96-20.6-25.66-28.55-25.66-28.55-62.93,16.67-53.12,101.54-50.56,118.18-26.56-12.82-80.11-33.05-111.81-6.65,0,0-5.26,9.12,8.06,26.93,0,0-16.22-3.06-23.64.3s-11.12,79.03,79.8,103.7c0,0,16.06,3.78,30.73,5.13-3.6,2.63-7.45,5.14-11.59,7.48-12.87,7.28-34.4,33.83-37.97,47.88-5.26,20.67-7.1,29.85,14.71,55.86,0,0,8.32.45,26.6-12.49,0,0,.75,26.33,4.36,28.19,7.12,3.67,75.26,16.02,102.99-61.62,26.27,83.75,93.88,75.06,101.15,71.31,3.6-1.86,4.36-28.19,4.36-28.19,18.28,12.94,26.6,12.49,26.6,12.49,21.81-26.01,17.67-55.16,12.41-75.84-3.58-14.05-12.39-27.4-25.27-34.68-4.96-2.8-9.58-5.79-13.99-8.85,11.13-1.65,20.73-3.91,20.73-3.91,90.92-24.66,88.38-98.16,80.97-101.52Z"/>
  <path class="cls-1" d="M631.1,312.16c-7.54-3.42-25.21-2.52-25.21-2.52,13.54-18.09,9.89-26.81,9.89-26.81-33.92-28.25-96.97-8.84-124.23,1.61,25.41-92.8-46.24-121.06-55.03-116.45-8.93,4.69-21.85,27.18-21.85,27.18-11.14-20.94-26.07-29.01-26.07-29.01-63.94,16.94-53.98,103.18-51.38,120.09-26.99-13.02-81.4-33.58-113.61-6.76,0,0-5.35,9.27,8.19,27.36,0,0-16.48-3.11-24.02.31-7.54,3.42-11.3,80.31,81.09,105.37,0,0,16.32,3.84,31.23,5.21-3.66,2.67-7.57,5.22-11.78,7.6-13.08,7.39-34.95,34.37-38.59,48.65-5.35,21.01-7.22,30.33,14.95,56.76,0,0,8.46.46,27.03-12.69,0,0,.77,26.76,4.43,28.64,7.23,3.73,76.48,16.28,104.65-62.62,26.69,85.1,95.4,76.27,102.79,72.46,3.66-1.89,4.43-28.64,4.43-28.64,18.57,13.14,27.03,12.69,27.03,12.69,22.16-26.43,17.96-56.05,12.61-77.06-3.63-14.28-12.59-27.85-25.67-35.24-5.04-2.85-9.74-5.88-14.22-8.99,11.31-1.68,21.07-3.98,21.07-3.98,92.38-25.06,89.81-99.74,82.28-103.17Z"/>
  <path class="cls-4" d="M603.35,322.95c-6.45-2.93-24.27-2-24.27-2,11.59-15.49,10.97-23.14,10.97-23.14-29.05-24.19-85.53-7.39-108.88,1.56,21.76-79.47-38.56-106.06-46.09-102.1-7.65,4.01-19.74,25.67-19.74,25.67-9.54-17.93-23.26-27.33-23.26-27.33-54.75,14.51-45.29,90.84-43.06,105.32-23.11-11.15-72.28-29.4-99.86-6.43,0,0-2.01,8.58,9.59,24.07,0,0-17.26-2.28-23.71.65-6.45,2.93-6.53,68.39,72.58,89.85,0,0,13.98,3.29,26.74,4.46-3.13,2.29-6.77,4.03-10.08,6.51-12.18,9.13-29.93,29.43-33.04,41.66-4.58,17.99-9.74,27.25,9.24,49.88,0,0,10.8-.89,26.71-12.15,0,0,.7,25.69,3.83,27.31,6.19,3.19,65.44,11.16,89.57-56.4,22.85,72.87,81.3,67.77,87.63,64.5,3.13-1.62,4.18-26.99,4.18-26.99,15.9,11.26,25.53,12.24,25.53,12.24,18.98-22.63,13-49.37,8.42-67.36-3.11-12.23-10.78-23.84-21.98-30.18-4.31-2.44-8.34-5.04-12.17-7.7,9.69-1.44,18.04-3.41,18.04-3.41,79.11-21.46,79.59-85.57,73.14-88.5Z"/>
  <path class="cls-2" d="M605.09,322.06c-6.61-3-22.11-2.21-22.11-2.21,11.88-15.87,8.68-23.52,8.68-23.52-29.76-24.78-85.06-7.75-108.98,1.41,22.29-81.41-40.56-106.2-48.28-102.15-7.84,4.11-19.17,23.84-19.17,23.84-9.77-18.36-22.87-25.45-22.87-25.45-56.09,14.86-47.35,90.51-45.07,105.34-23.67-11.42-71.41-29.46-99.66-5.93,0,0-4.69,8.13,7.19,24,0,0-14.46-2.73-21.07.27s-9.91,70.45,71.13,92.44c0,0,14.32,3.37,27.39,4.57-3.21,2.34-7.06,3.97-10.33,6.67-11.62,9.56-30.66,30.15-33.85,42.68-4.69,18.43-6.33,26.61,13.11,49.79,0,0,7.42.4,23.71-11.13,0,0,.67,23.47,3.88,25.13,6.34,3.27,67.09,14.28,91.8-54.93,23.41,74.65,83.68,66.91,90.17,63.56,3.21-1.66,3.88-25.13,3.88-25.13,16.29,11.53,23.71,11.13,23.71,11.13,19.44-23.18,15.75-49.17,11.07-67.6-3.19-12.52-11.05-24.43-22.52-30.91-4.42-2.5-8.54-5.16-12.47-7.89,9.92-1.47,18.48-3.49,18.48-3.49,81.04-21.99,78.79-87.5,72.17-90.5Z"/>
  <ellipse class="cls-3" cx="481.54" cy="390.21" rx="20.89" ry="14.61"/>
  <ellipse class="cls-3" cx="360.29" cy="390.21" rx="20.89" ry="14.61"/>
  <path class="cls-6" d="M402.48,380.33s6.91,8.39,16.18,7.86c9.27-.53,16.64-6.18,18.46-7.52,1.82-1.34,3.54-2.11,5.48-.34s2.19,2.94,1.2,5.38c-.99,2.44-4.44,6.6-11.21,9.21-6.77,2.61-15.49,3.59-21.62,1.71-6.12-1.88-12.58-5.64-15.24-8.53-.7-.76-3.26-5.55-.76-7.97,2.5-2.42,5.72-1.48,7.51.21Z"/>
  <g>
    <circle class="cls-6" cx="504.19" cy="371.41" r="3.14"/>
    <circle class="cls-6" cx="514.21" cy="363.49" r="3.14"/>
    <circle class="cls-6" cx="516.53" cy="374.11" r="3.14"/>
  </g>
  <g>
    <circle class="cls-6" cx="334.5" cy="371.41" r="3.14"/>
    <circle class="cls-6" cx="324.49" cy="363.49" r="3.14"/>
    <circle class="cls-6" cx="322.16" cy="374.11" r="3.14"/>
  </g>
  <g>
    <path class="cls-6" d="M472.7,312.1c30.76-4.89,34.72,66.62,0,61.78-25.19-3.51-23.87-57.99,0-61.78ZM474.75,326.51c-8.24,1.36-9.69,25.99,4.12,21.62,7.3-2.31,5.85-23.27-4.12-21.62Z"/>
    <path class="cls-5" d="M474.75,326.51c9.97-1.65,11.42,19.31,4.12,21.62-13.81,4.37-12.36-20.26-4.12-21.62Z"/>
  </g>
  <g>
    <path class="cls-6" d="M359.39,312.1c30.76-4.89,34.72,66.62,0,61.78-25.19-3.51-23.87-57.99,0-61.78ZM361.45,326.51c-8.24,1.36-9.69,25.99,4.12,21.62,7.3-2.31,5.85-23.27-4.12-21.62Z"/>
    <path class="cls-5" d="M361.45,326.51c9.97-1.65,11.42,19.31,4.12,21.62-13.81,4.37-12.36-20.26-4.12-21.62Z"/>
  </g>
</svg>