<svg xmlns="http://www.w3.org/2000/svg" viewBox="0 0 24 24" id="lock">
  <rect width="15.5" height="13.5" x="4.25" y="8.25" fill="#ffd15b" rx="2.75" ry="2.75"></rect>
  <path fill="#494249" d="m17,8.25h-.25v-1.25c0-2.619-2.131-4.75-4.75-4.75s-4.75,2.131-4.75,4.75v1.25h-.25c-1.517,0-2.75,1.233-2.75,2.75v8c0,1.517,1.233,2.75,2.75,2.75h10c1.517,0,2.75-1.233,2.75-2.75v-8c0-1.517-1.233-2.75-2.75-2.75Zm-8.25-1.25c0-1.792,1.458-3.25,3.25-3.25s3.25,1.458,3.25,3.25v1.25h-6.5v-1.25Zm9.5,12c0,.689-.561,1.25-1.25,1.25H7c-.689,0-1.25-.561-1.25-1.25v-8c0-.689.561-1.25,1.25-1.25h10c.689,0,1.25.561,1.25,1.25v8Zm-5.5-5v2c0,.414-.336.75-.75.75s-.75-.336-.75-.75v-2c0-.414.336-.75.75-.75s.75.336.75.75Z"></path>
</svg>
