<svg xmlns="http://www.w3.org/2000/svg" viewBox="0 0 32 32" id="play-button">
  <path fill="#24c4d8" d="M6.418 27.157V4.843a1 1 0 0 1 1.544-.839l17.166 11.158a1 1 0 0 1 0 1.676L7.962 27.996a1 1 0 0 1-1.544-.839Z"></path>
  <path fill="#02abbf" d="M25.582 16a.992.992 0 0 1-.455.838L7.963 27.996a1 1 0 0 1-1.545-.839V16Z"></path>
  <path d="M7.418 29.157a2 2 0 0 1-2-2V4.843a2 2 0 0 1 3.09-1.677l17.164 11.157a2 2 0 0 1 0 3.354L8.507 28.834a1.998 1.998 0 0 1-1.09.323Zm0-24.315v22.32L24.582 16Z"></path>
</svg>
