<svg width="137" height="133" viewBox="0 0 137 133" fill="none" xmlns="http://www.w3.org/2000/svg">
<g clip-path="url(#clip0_255_1421)">
<path fill-rule="evenodd" clip-rule="evenodd" d="M32.2801 59.27C33.0201 59.48 33.7701 59.64 34.5001 59.89C30.4001 53.07 29.6501 45.08 29.5001 37.29C29.1001 32.88 29.3501 28.46 29.2801 24.05C28.2501 26.66 25.6901 26.56 24.3201 24.3C23.5901 23.03 23.5601 21.29 23.8401 19.88C22.8201 18.36 21.2601 17.16 19.3301 17.5C17.0401 17.57 14.7601 18.33 13.2301 20.12C9.83008 24.36 9.79008 30.34 10.6201 35.48C12.6701 44.52 21.5701 56.18 30.6801 58.78C31.2101 58.95 31.7401 59.12 32.2801 59.28V59.27ZM94.0801 71.35C93.8401 71.33 93.6001 71.32 93.3601 71.25C93.3001 71.23 93.2501 71.21 93.1901 71.19C92.6701 71.3 92.1601 71.22 91.7301 70.99C90.8201 71.69 89.8701 72.34 88.8901 72.93C85.6101 74.95 81.7801 75.65 78.1601 76.81C77.2501 77.09 76.3101 77.29 75.3901 77.54C75.2501 83.65 75.3401 89.77 75.3401 95.88C75.4601 97.38 75.5801 98.87 75.5001 100.38C75.4301 101.7 75.9301 103.16 75.5401 104.43C76.6701 104.87 77.6501 105.75 78.7701 106.24C80.8301 107.33 82.8301 108.53 84.6101 110.06C86.2301 110.24 87.8801 112 89.2901 113.49C90.0501 113.83 90.8101 114.17 91.5801 114.5C93.2801 115.24 96.3601 116.11 95.4701 118.55C94.3901 120.56 91.9801 121.24 90.0401 122.15C86.8301 123.73 83.2801 124.21 79.7701 124.6C74.9401 124.96 70.0801 125.23 65.2401 125.26C61.4501 125.23 59.4001 124.46 58.4501 123.53C55.8601 123.46 53.2801 123.3 50.7301 122.86C48.9301 122.38 45.0301 121.87 43.4701 120.29C43.2201 120.24 42.9501 120.12 42.6801 119.91C39.9401 117.14 45.6801 114.75 47.5301 113.45C50.1701 112.01 52.8401 110.63 55.3001 108.89C57.7201 107.35 59.8901 105.51 61.7801 103.36C62.5301 99.98 61.9201 96.24 61.8901 92.82C61.5401 90.67 62.0301 89.36 62.7701 88.72C62.7501 88.12 62.7301 87.53 62.6301 86.98C62.4301 83.53 62.3201 80.06 61.7401 76.64C56.5301 75.69 50.7301 75.76 46.3301 72.4C45.6601 71.71 44.8101 71.11 44.0401 70.47C43.5201 70.65 42.9201 70.59 42.3401 70.15C41.3301 69.39 40.3701 68.56 39.4901 67.65C37.8401 70.62 34.6301 66.93 32.4301 66.47C28.7801 65.92 25.1901 64.19 22.1301 62.08C19.5401 60.31 16.8101 58.71 14.4501 56.63C13.1301 57.22 12.0201 56.09 11.1001 55.29C9.48008 53.69 7.59008 52.22 6.49008 50.19C5.32008 47.75 4.79008 45.07 3.87008 42.54C3.09008 39.69 1.58008 36.67 2.07008 33.68C0.800076 28.21 2.61008 21.04 6.12008 16.67C7.24008 13.62 12.5001 8.84003 15.9101 10.12C17.6001 9.91003 19.2901 10.26 20.9201 10.67C23.5101 10.85 26.1201 12.05 27.7801 14.05C27.8301 14.06 27.8801 14.08 27.9401 14.1C28.2001 13.94 28.4801 13.83 28.7801 13.77C28.8901 13.75 28.9901 13.74 29.1001 13.74C29.6101 11.79 31.6101 6.58003 33.9201 7.00003C33.9501 6.98003 33.9901 6.97003 34.0201 6.95003C34.6901 4.19003 52.0301 0.140027 53.8801 1.90003C59.9501 1.05003 66.0601 1.29003 72.1601 1.39003C74.7001 1.28003 77.2301 1.39003 79.7601 1.59003C84.6701 1.88003 89.6901 1.79003 94.4201 3.32003C98.3701 4.77003 103.67 6.56003 104.79 11.11C104.95 11.91 104.97 12.95 104.67 13.76C104.69 13.81 104.7 13.86 104.72 13.91C105.3 13.58 106.04 13.56 106.62 13.89C106.64 13.86 106.67 13.83 106.69 13.8C106.51 10.52 118.17 7.28003 119.79 10.04C120.99 10 122.2 10.34 123.3 10.77C124.67 10.73 126 11.22 127.08 12.06C128.28 13.08 129.54 15.13 130.51 17.38C130.96 17.71 131.35 18.18 131.65 18.83C133.3 21.35 133.88 24.48 134.16 27.48C134.56 34.39 132.13 42.24 128.67 48.18C126.93 51.12 124.6 53.67 122.04 55.91C119.29 58.77 116.3 61.44 112.82 63.38C110.77 64.59 108.57 65.49 106.32 66.2C102.4 68.13 98.5301 70.76 94.1401 71.35H94.0801ZM100.47 60.66C103.73 59.43 107.21 58.39 108.4 57.34C111.37 55.23 114.43 53.15 117.14 50.71C118.67 49.28 119.4 46.88 121.33 45.96C123.1 43.05 124.71 39.9 125.58 36.59C126.47 33.23 125.89 29.76 125.93 26.36C125.11 25.9 124.93 24.94 124.59 24.14C123.97 22.53 123.28 20.93 122.71 19.3C121.32 19.15 120.26 17.8 119.08 17.13C116.36 16.82 113.5 17.34 111.01 18.4C109.99 20.04 110.98 21.95 110.71 23.75C110.52 25.4 110.03 28.16 107.75 27.56C106.34 27.5 105.47 26.8 104.94 25.81C104.94 25.96 104.95 26.11 104.96 26.27C105.21 32.29 105.33 38.36 104.61 44.36C104.28 47.9 104.17 51.51 103.06 54.93C102.37 56.91 101.44 58.79 100.47 60.64V60.66ZM45.8901 120.47C45.7201 120.6 45.5401 120.7 45.3301 120.77C45.5301 120.71 45.7201 120.6 45.8901 120.47Z" fill="#FEB904"/>
<path fill-rule="evenodd" clip-rule="evenodd" d="M7.52996 48.75C7.52996 48.75 7.50996 48.7 7.50996 48.68C7.46996 48.6 7.42996 48.52 7.35996 48.45C7.42996 48.54 7.48996 48.64 7.52996 48.75ZM32.95 9.59998C32.95 9.59998 32.98 9.52998 33 9.49998C32.98 9.52998 32.96 9.56998 32.95 9.59998ZM97.84 11.79C99.72 13.28 97.41 14.76 95.83 14.9C90.53 15.62 85.21 16.28 79.87 16.73C79.66 16.7 79.44 16.72 79.23 16.78C75.26 17.1 71.27 17.29 67.28 17.29C66.34 17.29 65.41 17.28 64.47 17.26C58.54 16.93 52.62 16.36 46.71 15.77C45.11 15.25 41.9 15.9 40.91 14.7C40.88 14.71 40.85 14.72 40.82 14.73C40.44 14.84 40 14.76 39.68 14.51C39 14.74 38.46 14.42 38.19 13.93C37.74 13.99 37.27 14.01 36.79 13.98C25.88 10.21 33.26 5.96998 40.01 3.70998C45.84 2.02998 52.07 0.949976 58.13 1.38998C58.83 0.909976 60.12 0.0499763 60.67 1.14998C61.08 2.19998 59.83 2.36998 59.21 2.81998C56.45 4.43998 56.82 6.49998 55.6 8.26998C56.6 8.10998 57.6 7.95998 58.6 7.81998C68.12 6.97998 77.87 6.89998 87.29 8.61998C90.89 9.35998 94.35 10.67 97.84 11.78V11.79ZM127.23 49.51C126.75 49.44 126.44 49.78 126.11 50.05C125.36 50.67 124.53 51.17 123.66 51.61C121.64 52.68 119.2 52.9 117.03 52.19C116.41 52.03 115.86 51.43 115.19 51.63C115.22 51.63 115.26 51.62 115.29 51.61C115.31 51.61 115.34 51.61 115.36 51.61C114.9 51.65 114.51 52.01 114.51 52.5C114.51 52.8 114.68 53.09 114.93 53.26C111.79 55.41 108.67 57.58 105.23 59.24C103.16 60.22 101.77 61.03 100.57 62.06C101.45 60.46 102.14 58.75 102.62 56.94C105.32 48.34 105.55 39.23 105.38 30.28C105.37 29.17 105.37 28.06 105.38 26.96C105.72 27.4 106.17 27.75 106.75 28C109.69 28.29 112.12 25 111.37 22.23C109.74 18.37 112.66 18.9 115.18 17.88C116.4 16.49 112.89 15.68 112.8 13.66C112.3 12.18 113.5 11.12 113.12 10.28C112.6 9.41998 111.47 9.96998 111.25 10.78C108.74 11.33 106.74 12.68 105.51 14.56C105.51 14.25 105.49 13.94 105.48 13.63C105.35 11.3 102.89 12.47 101.69 13.24C100.46 13.83 99.2 14.37 97.92 14.84C92.88 16.18 87.64 16.48 82.49 17.16C82.03 16.84 81.52 17.04 81.22 17.41C81.37 17.55 81.48 17.71 81.57 17.89C81.73 18.21 81.74 18.59 81.77 18.94C81.82 19.58 81.81 20.22 81.83 20.86C81.83 21.19 81.84 21.52 81.85 21.84C82.59 27.48 82.35 33.21 82.53 38.89C82.92 50.44 82.24 63.06 74.41 72.27C72.73 74.34 70.32 75.52 67.83 76.3C67.29 76.52 66.45 76.61 65.84 76.86C65.71 76.93 65.61 77.03 65.54 77.14C63.4 76.83 61.67 76.93 61.54 79.32C61.53 80.69 61.22 85.34 62.83 85.63C70.32 87.44 69.82 97.4 69.8 103.56C69.87 105.45 68.71 107.5 69.62 109.29C71.52 112.43 73.88 115.29 75.4 118.65C76.56 120.42 76.73 122.86 78.13 124.4C80.44 124.89 82.68 123.04 84.87 122.45C87.1 121.75 89.57 120.94 91.81 120.1C93.03 119.49 94.63 119.41 95.61 118.44C96.5 115.18 88.8 112.51 86.54 110.97C83.26 109.15 80.28 106.87 76.92 105.21C74.43 102.7 76.02 97.45 75.59 94.13C75.59 88.92 74.15 83.75 74.88 78.54C75.02 77.93 74.93 77.5 74.72 77.23C77.03 76.91 79.39 76.94 81.65 76.31C86.42 74.94 91.09 72.51 94.86 69.17C94.49 69.91 94.47 70.62 95.28 71.15C97.34 71.28 99.33 69.7 101.27 69.04C107.16 66.7 112.67 63.56 117.84 59.9C119.07 58.99 130.89 50.49 127.24 49.53L127.23 49.51ZM29.85 14.2C29.77 12.84 28.62 12.29 27.5 11.87C26.31 11.47 24.95 9.71998 23.69 10.64C23.35 10.97 23.38 11.45 23.46 11.87C23.23 13.4 21.7 14.5 20.45 15.26C19.75 15.73 18.4 15.41 18.35 16.54C18.42 17.85 20.06 17.39 20.85 17.04C21.72 17.89 22.9 18.29 23.87 18.97C23.2 21.33 23.68 24.46 26.03 25.71C28.69 27.05 29.48 23.55 29.57 21.59C29.84 19.14 30.05 16.65 29.85 14.2ZM38.69 67.13C38.73 68.66 36.66 68.11 35.68 68.16C33.06 67.96 30.63 66.79 28.14 66.03C25.49 65.17 23.36 63.31 20.99 62.01C17.22 60.55 13.96 58.11 11.44 54.94C10.85 53.98 8.87996 53.24 9.46996 51.95C8.43996 51.38 4.16996 49.33 6.43996 48.16C7.12996 47.97 7.49996 48.66 8.01996 48.96C9.19996 49.92 10.58 50.61 12.08 50.88C13.52 51.13 15.08 51.18 16.4 50.48C17.07 50.19 17.59 49.4 18.4 49.63C20.55 51.21 22.13 53.64 24.46 55.09C26.41 56.32 28.36 57.61 30.51 58.46C31.46 58.85 32.69 58.46 33.41 59.37C34.84 61.22 35.52 63.57 37.12 65.32C37.59 65.99 38.47 66.33 38.69 67.13Z" fill="#E88913"/>
<path fill-rule="evenodd" clip-rule="evenodd" d="M4.13994 31.86C1.83994 27.1 3.96994 21.44 6.20994 17.07C8.38994 15.43 10.4299 12.6 13.4099 12.61C16.2499 13.86 12.6699 16.67 11.1499 17.44C10.3499 18.29 9.65994 19.24 9.06994 20.25C7.75994 22.49 6.89994 25.01 6.69994 27.6C6.50994 29.03 6.97994 30.61 6.36994 31.94C5.86994 32.78 4.61994 32.7 4.14994 31.86H4.13994ZM11.2199 15.28C11.3499 15.19 11.4699 15.1 11.5999 15C11.4599 15.09 11.3099 15.18 11.1699 15.27C11.1899 15.27 11.1999 15.27 11.2199 15.27V15.28Z" fill="#FFD976"/>
<path fill-rule="evenodd" clip-rule="evenodd" d="M93.06 8.90998C90.64 8.54998 88.33 7.61998 85.95 7.02998C82.9 6.89998 79.83 6.76998 76.8 6.36998C73.47 6.10998 73.43 3.45998 76.84 3.23998C80.91 2.55998 85.27 2.56998 89.2 3.91998C91.05 4.78998 94.18 5.42998 94.52 7.77998C94.48 8.50998 93.72 8.91998 93.06 8.89998V8.90998Z" fill="#FFD976"/>
<path fill-rule="evenodd" clip-rule="evenodd" d="M45.8899 21.07C48.9299 22.5 49.2999 24.45 47.7299 27.29C46.1999 31.25 45.0699 35.35 43.8799 39.42C42.7999 41.64 42.3399 52.74 38.7699 50.93C34.4699 46.81 31.4499 23.89 36.8299 20.28C39.6299 18.74 43.1299 19.96 45.8899 21.07Z" fill="#FFD976"/>
<path fill-rule="evenodd" clip-rule="evenodd" d="M73.8399 36.35C73.7999 36.16 73.7199 35.98 73.6199 35.82C73.7199 35.99 73.7999 36.17 73.8399 36.35ZM85.0299 37.13C85.6499 39.16 76.8799 44.76 75.3199 46.7C75.4899 50.34 76.7399 53.88 77.6499 57.37C78.1699 58.54 77.3899 60.02 76.0799 60.14C73.4299 60.13 68.1599 55.77 65.9299 54.09C62.8099 55.36 59.8199 57.02 56.9399 58.77C55.5199 59.61 54.1299 61.7 52.2899 60.73C50.7999 59.89 51.1999 58 51.4799 56.61C51.9499 54.37 52.3399 52.12 52.6599 49.85C53.2699 47.79 52.6499 47.16 51.4799 45.55C50.3299 43.53 48.8399 41.79 46.8499 40.56C45.7199 39.57 46.2699 37.52 47.7299 37.2C48.7799 36.99 49.8599 37.11 50.9199 37.06C52.8699 37.01 54.8299 36.92 56.7799 36.83C57.6299 36.86 58.5599 36.62 59.4499 36.57C59.5899 34.93 60.5299 33.41 61.0099 31.85C61.1499 31.28 61.4099 30.72 61.8999 30.39C62.8599 28.49 63.2799 24.3 66.2899 25.28C68.2999 26.45 70.2299 32.08 71.3699 34.37C71.4399 34.57 71.5199 34.78 71.5899 34.98C73.7799 34.29 77.8099 35.01 79.3199 35.17C80.3699 35.31 81.4099 35.57 82.4799 35.51C83.6299 35.24 84.8699 35.89 85.0299 37.12V37.13Z" fill="#F96944"/>
<path fill-rule="evenodd" clip-rule="evenodd" d="M77.0901 34.63C83.8601 35.21 90.0801 33.49 81.5801 40.92C80.5701 41.86 79.6001 42.84 78.5601 43.75C77.8001 44.53 76.6601 45.08 76.1701 46.07C75.9501 48.21 79.1401 59.14 77.0801 59.77C75.5601 60.32 74.1801 58.85 72.7501 58.5C70.6201 58.05 69.0301 56.65 67.3601 55.35C64.2101 53.01 60.8101 56.8 57.9401 58.02C56.4801 58.74 54.9901 59.36 53.5301 60.08C53.1301 60.27 52.6901 60.49 52.2401 60.35C50.6901 59.66 51.9001 57.62 52.1101 56.43C52.4501 55.18 52.8001 53.94 53.1201 52.69C52.7001 52.62 52.3701 52.25 52.3701 51.81C52.3901 50.85 53.4801 50.84 54.2001 50.82C55.4101 50.79 56.6301 50.75 57.8201 50.49C60.3301 49.88 62.7701 48.89 64.9201 47.45C68.7901 44.63 72.1501 41.37 74.8601 37.47C75.6301 36.57 75.8701 35.03 77.0701 34.62L77.0901 34.63Z" fill="#D64E2B"/>
<path fill-rule="evenodd" clip-rule="evenodd" d="M69.68 78.68C43.35 77.79 28.99 65.6099 28.32 38.6199C28.07 30.6699 28.3 22.73 28.46 14.78C28.64 13.64 27.77 11.48 29.37 11.25C29.9 11.25 30.31 11.68 30.32 12.2C30.86 28.12 27.42 45.58 35.35 60.18C41.97 72.39 54.81 75.71 67.71 76.67C79.15 77.6 91.65 73.5599 98.34 63.7999C102.71 56.5799 103.29 47.88 103.53 39.66C103.87 32.05 104.03 24.45 104.3 16.84C104.68 15.42 103.28 10.7 105.12 10.7C105.63 10.7 106.08 11.14 106.07 11.65C106.35 23.36 105.61 35.12 105.06 46.82C104.28 67.5 89.81 79.06 69.66 78.68H69.68Z" fill="#623425"/>
<path fill-rule="evenodd" clip-rule="evenodd" d="M64.33 17.91C56.43 17.27 48.48 16.9 40.65 15.84C35.52 15.24 24.54 11.7 32.5 6.00997C41.42 0.379972 52.64 0.469972 62.86 0.249972C72.91 -0.110028 83.17 -0.450028 93.02 1.91997C97.57 3.43997 105.88 4.71997 105.43 10.95C103.8 17.28 70.68 18.51 64.34 17.91H64.33ZM67.56 16.09C75.74 16.28 83.85 15.77 91.86 14.26C94.87 13.4 102.54 13.27 103.62 10.07C100.56 1.88997 76.49 1.71997 68.72 1.95997C59.36 2.51997 36.89 1.18997 31.58 10.04C35.92 14.98 46.23 14.28 52.4 15.05C57.45 15.47 62.49 16.08 67.57 16.1L67.56 16.09Z" fill="#623425"/>
<path fill-rule="evenodd" clip-rule="evenodd" d="M28.6502 14.4799C28.8502 12.8499 27.8902 9.91994 29.3602 8.86994C30.3002 8.49994 31.0002 9.56994 30.5202 10.3599C30.4702 11.7299 30.5102 13.1099 30.5502 14.4799C30.5702 15.7099 28.6402 15.7199 28.6402 14.4799H28.6502Z" fill="#623425"/>
<path fill-rule="evenodd" clip-rule="evenodd" d="M40.8001 119.45C38.8501 117.18 49.5901 110.93 51.4701 109.73C54.2801 107.64 58.2301 106.62 60.1601 103.58C62.3501 96.57 60.7301 88.9099 60.9001 81.6699C61.0201 80.1699 60.3901 78.4199 61.1001 77.0599C62.8101 76.0099 62.7701 78.0599 62.7301 79.2099C62.5801 87.4299 64.3201 96.0599 62.0401 104.06C60.3001 108.07 52.0301 110.96 48.3601 113.94C46.6701 115.08 45.0101 116.28 43.5801 117.74C42.7101 118.33 42.0501 120.22 40.8101 119.45H40.8001Z" fill="#623425"/>
<path fill-rule="evenodd" clip-rule="evenodd" d="M95.16 118.38C91.55 115.36 87.69 112.55 83.6 110.21C80.59 108.41 75.84 107.61 74.8 103.79C74.1 95.89 74.7 87.89 74.26 79.96C73.73 77.55 76.79 77.38 76.16 79.56C76.39 85.29 76.35 91.02 76.43 96.76C76.64 101.57 75.19 104.57 80.64 106.66C85.36 108.67 89.56 111.6 93.63 114.68C94.61 115.44 95.6 116.19 96.51 117.03C97.39 117.88 96.04 119.26 95.16 118.38Z" fill="#623425"/>
<path fill-rule="evenodd" clip-rule="evenodd" d="M67.42 125.93C58.84 125.42 47.93 125.56 40.87 120.13C40.9 120.16 40.93 120.18 40.96 120.21C39.89 119.08 41.29 117.56 43.01 119.42C45.3 120.91 47.96 121.71 50.62 122.29C63.87 124.62 79.22 125.6 91.77 120.04C93.09 119.71 95.13 117.05 96.24 118.27C96.55 118.67 96.49 119.3 96.07 119.61C87.85 125.42 77.19 126.06 67.43 125.94L67.42 125.93Z" fill="#623425"/>
<path fill-rule="evenodd" clip-rule="evenodd" d="M33.3501 60.02C18.5101 55.75 5.21008 39.7299 10.0801 23.8099C11.3801 17.2999 20.4901 12.8899 24.8701 18.9899C24.9501 21.3599 23.0801 23.4999 26.1201 25.0799C26.8401 25.4499 27.9301 25.64 28.1201 24.62C28.6801 23.58 30.3301 24.4599 29.8101 25.4999C27.5101 30.2799 20.1701 24.8299 23.0301 19.5499C16.2301 14.4199 10.9901 22.8899 10.9801 29.2299C10.7801 34.9299 12.6401 40.63 15.8401 45.31C19.4601 50.34 24.6901 54.11 30.1601 56.91C31.4001 57.73 33.0401 57.75 34.2401 58.5C34.7601 59.12 34.1701 60.1899 33.3601 60.0299L33.3501 60.02Z" fill="#623425"/>
<path fill-rule="evenodd" clip-rule="evenodd" d="M40.0401 69.79C17.0201 66.62 -5.57987 48 1.59013 22.81C2.97013 16.95 6.88013 11.33 12.7301 9.29999C18.6101 7.45999 25.9501 8.46999 29.8501 13.61C30.7001 14.42 29.5401 15.77 28.6101 15.05C27.1801 13.33 25.4501 11.83 23.2601 11.18C4.41013 5.25999 -1.77987 30.57 4.64013 43.92C8.92013 53.98 18.4901 60.91 28.3901 64.9C32.2901 66.15 36.2701 67.17 40.3001 67.92C41.5101 68.06 41.2701 70.01 40.0401 69.81V69.79Z" fill="#623425"/>
<path fill-rule="evenodd" clip-rule="evenodd" d="M99.8901 61.46C99.6301 61.01 99.7801 60.42 100.23 60.16C102.62 58.8 105.07 57.56 107.44 56.16C113.24 52.98 118.92 48.93 121.97 42.89C125.16 36.92 126.25 29.66 123.43 23.33C121.7 18.89 114.82 16.67 111.32 20.28C114.11 24.48 111.07 30.66 105.73 28.38C104.65 28.1 104.73 26.44 105.9 26.43C108.23 27.56 110.6 26.63 110.46 23.79C110.62 22.17 108.67 20.77 109.71 19.26C113.83 14.25 122.87 16.77 125.12 22.45C130.69 34.95 123.03 49.62 111.65 55.87C109.11 57.45 106.5 58.9 103.86 60.32C102.68 60.65 100.89 62.78 99.8801 61.45L99.8901 61.46Z" fill="#623425"/>
<path fill-rule="evenodd" clip-rule="evenodd" d="M89.3101 73.24C89.1701 72.74 89.4801 72.21 89.9801 72.07C92.1401 71.55 94.2601 70.89 96.3401 70.12C101.67 68.07 106.95 65.85 111.9 63.01C125.82 55.71 136.51 39.86 132.9 23.79C131.26 13.69 120.85 7.88998 111.29 11.14C109.58 11.71 108.05 12.69 106.66 13.81C106.09 14.59 104.72 14.54 104.68 13.41C107.51 9.29998 113.53 8.22998 118.3 8.43998C125.56 8.59998 132.22 14.21 134.18 21.12C140.18 41.44 125.32 59.8 107.37 67.57C105.03 68.45 89.9001 75.8 89.3101 73.25V73.24Z" fill="#623425"/>
<path fill-rule="evenodd" clip-rule="evenodd" d="M51.5101 61.9C51.1301 61.7 50.8701 61.37 50.7401 60.96C50.6301 60.62 50.5901 60.28 50.5701 59.93C50.5201 58.96 50.6201 57.98 50.7201 57.02C50.8101 56.16 50.9301 55.31 51.0901 54.46C51.1801 53.96 51.2801 53.47 51.3801 52.98C51.3801 52.96 51.3801 52.94 51.3901 52.92C51.4001 52.87 51.4101 52.82 51.4201 52.77C51.4201 52.73 51.4301 52.69 51.4401 52.66C51.4401 52.64 51.4401 52.61 51.4501 52.59C51.4901 52.4 51.5301 52.2 51.5701 52.01C51.7801 50.98 51.9801 49.94 52.1901 48.91C52.2301 48.7 52.2701 48.49 52.2901 48.28C52.2901 48.25 52.2901 48.22 52.2901 48.19C52.2901 48.17 52.2901 48.15 52.2901 48.13C52.2901 48.13 52.2901 48.12 52.2901 48.11C52.2901 48.09 52.2701 48.07 52.2701 48.05C52.2401 47.99 52.2001 47.93 52.1601 47.87C51.7801 47.33 51.3501 46.83 50.9401 46.35C49.9601 45.25 48.9401 44.2 47.9301 43.13C46.9001 42.04 45.8401 40.96 44.7701 39.91C44.4001 39.55 44.4101 38.93 44.7701 38.56C45.1401 38.19 45.7501 38.2 46.1201 38.56C47.4601 39.87 48.7501 41.23 50.0401 42.59C50.6701 43.25 51.3001 43.9 51.9101 44.58C52.2401 44.95 52.5801 45.33 52.9001 45.71C53.2201 46.09 53.5401 46.48 53.8101 46.9C54.0001 47.2 54.1401 47.51 54.2001 47.87C54.2401 48.14 54.2301 48.41 54.2001 48.68C54.1301 49.23 53.9901 49.78 53.9001 50.2C53.7101 51.15 53.5301 52.09 53.3301 53.04C53.3301 53.07 53.3201 53.1 53.3101 53.13C53.3101 53.15 53.3101 53.18 53.3001 53.2C53.3001 53.23 53.2901 53.26 53.2801 53.29C53.1101 54.14 52.9401 54.98 52.8101 55.84C52.6801 56.72 52.5801 57.61 52.5101 58.5C52.4801 58.98 52.4601 59.45 52.4801 59.93C52.4801 59.99 52.4901 60.04 52.5001 60.1C52.7101 60.01 52.9101 59.91 53.1201 59.81C53.7501 59.49 54.3701 59.13 54.9901 58.78C55.6601 58.4 56.3401 58.05 57.0101 57.68C57.6901 57.3 58.3501 56.91 59.0301 56.53C59.3701 56.34 59.7101 56.15 60.0501 55.96C60.3601 55.79 60.6501 55.59 60.9501 55.4C61.4501 55.06 61.9401 54.72 62.4401 54.4C63.0301 54.02 63.6401 53.64 64.3201 53.43C64.8501 53.27 65.4001 53.33 65.8901 53.57C66.2001 53.72 66.4801 53.92 66.7401 54.13C67.2101 54.51 67.6501 54.93 68.0101 55.24C68.4701 55.63 68.9401 56 69.4301 56.35C70.1001 56.8 70.8001 57.21 71.5101 57.58C72.3001 57.97 73.1001 58.32 73.9201 58.62C74.5101 58.82 75.1101 58.98 75.7201 59.12C76.0301 59.18 76.3501 59.23 76.6701 59.27C76.7801 59.27 76.8801 59.27 76.9801 59.27C77.0301 59.27 77.0801 59.26 77.1301 59.25C77.1301 59.25 77.1501 59.25 77.1601 59.25C77.1201 58.88 77.0301 58.52 76.9801 58.28C76.8001 57.39 76.5801 56.52 76.3901 55.63C76.1901 54.69 75.9901 53.75 75.8001 52.8C75.6201 51.88 75.4501 50.96 75.3201 50.03C75.2501 49.5 75.1801 48.96 75.1501 48.43C75.1201 47.94 75.1101 47.46 75.2001 46.97C75.2501 46.66 75.3301 46.35 75.4601 46.06C75.6201 45.7 75.8401 45.39 76.1101 45.1C76.5201 44.67 77.0101 44.31 77.4701 43.93C78.4301 43.15 79.4001 42.38 80.3301 41.57C81.2301 40.78 82.1101 39.96 82.9101 39.07C83.1901 38.74 83.4501 38.41 83.6901 38.06C83.8701 37.79 84.0501 37.51 84.2001 37.22C84.2901 37.03 84.3801 36.83 84.4501 36.63C84.4701 36.58 84.4801 36.52 84.4901 36.47C84.4901 36.44 84.5001 36.4 84.5001 36.37C84.5001 36.35 84.5001 36.33 84.5001 36.32C84.5001 36.31 84.4901 36.29 84.4801 36.28C84.4801 36.28 84.4801 36.28 84.4801 36.27C84.4801 36.27 84.4301 36.23 84.4001 36.21C84.3501 36.18 84.3001 36.15 84.2501 36.12C84.1601 36.08 84.0601 36.04 83.9601 36C83.7501 35.93 83.5301 35.88 83.3101 35.82C82.7001 35.7 82.0901 35.63 81.4701 35.59C79.6101 35.47 77.7401 35.53 75.8801 35.55C74.8601 35.56 73.8601 35.55 72.8401 35.45C72.3601 35.41 71.8701 35.35 71.4201 35.15C70.9301 34.94 70.6201 34.56 70.3701 34.11C69.9501 33.36 69.6601 32.53 69.3301 31.73C68.9801 30.88 68.6301 30.04 68.2301 29.21C67.8401 28.46 67.4101 27.73 66.9501 27.02C66.7101 26.67 66.4601 26.34 66.1901 26.02C66.0701 25.89 65.9501 25.76 65.8201 25.64C65.7701 25.6 65.7201 25.56 65.6701 25.52C65.6601 25.52 65.6401 25.5 65.6301 25.5C65.6301 25.5 65.6101 25.5 65.6001 25.49C65.5201 25.47 65.4401 25.44 65.3601 25.43C65.3501 25.43 65.3401 25.43 65.3201 25.43C65.3001 25.45 65.2801 25.46 65.2501 25.48C65.1701 25.56 65.0901 25.63 65.0101 25.71C64.8101 25.94 64.6301 26.19 64.4501 26.44C63.9401 27.21 63.4901 28.02 63.0801 28.85C62.5801 29.86 62.1401 30.89 61.7601 31.95C61.3301 33.21 60.9201 34.49 60.6301 35.79C60.5901 36 60.5501 36.2 60.5301 36.41C60.5301 36.47 60.5301 36.53 60.5301 36.59V36.61C60.5301 36.8 60.4801 36.99 60.3901 37.14C60.2501 37.17 60.1101 37.21 59.9801 37.25C59.7701 37.32 59.5901 37.44 59.4401 37.58C59.0401 37.52 58.6801 37.2 58.6501 36.82C58.6001 36.54 58.6301 36.25 58.6601 35.97C58.7301 35.48 58.8501 35 58.9701 34.52C59.2201 33.56 59.5301 32.61 59.8301 31.67C60.1401 30.71 60.5301 29.78 60.9401 28.87C61.3301 28.01 61.7701 27.16 62.2501 26.34C62.7101 25.56 63.2001 24.77 63.8501 24.14C64.1301 23.87 64.4501 23.68 64.8201 23.55C65.2101 23.42 65.6401 23.52 66.0201 23.62C66.6901 23.8 67.1901 24.3 67.6301 24.81C68.2701 25.54 68.7801 26.37 69.2701 27.19C69.7601 28.01 70.1701 28.89 70.5401 29.77C70.7801 30.35 71.0201 30.92 71.2601 31.5C71.4701 32.01 71.6701 32.53 71.9101 33.02C71.9701 33.13 72.0201 33.23 72.0901 33.34C72.1001 33.35 72.1101 33.37 72.1301 33.39C72.1501 33.39 72.1701 33.4 72.1801 33.41C72.2401 33.43 72.3001 33.45 72.3701 33.46C72.7801 33.53 73.2001 33.56 73.6101 33.59C74.8101 33.66 76.0101 33.63 77.2101 33.61C77.9401 33.6 78.6601 33.58 79.3901 33.59C80.3501 33.59 81.3101 33.63 82.2701 33.73C82.7201 33.77 83.1601 33.84 83.6101 33.93C84.0701 34.02 84.5401 34.14 84.9701 34.34C85.2001 34.45 85.4101 34.57 85.6101 34.73C85.9001 34.97 86.1101 35.26 86.2501 35.61C86.5601 36.39 86.2501 37.23 85.9201 37.95C85.7101 38.39 85.4501 38.81 85.1601 39.21C84.8801 39.61 84.5801 39.99 84.2601 40.36C83.6201 41.09 82.9201 41.75 82.2001 42.4C81.5301 43.02 80.8301 43.6 80.1301 44.18C79.3101 44.84 78.4801 45.49 77.6801 46.18C77.5701 46.28 77.4701 46.38 77.3601 46.49C77.3401 46.52 77.3201 46.54 77.2901 46.57C77.2501 46.63 77.2201 46.69 77.1801 46.75C77.1501 46.81 77.1301 46.87 77.1101 46.92C77.0901 46.98 77.0701 47.04 77.0601 47.11C77.0401 47.24 77.0201 47.38 77.0001 47.51C76.9901 47.78 77.0001 48.06 77.0001 48.33C77.1401 50.04 77.4801 51.74 77.8001 53.3C77.9901 54.2 78.1801 55.11 78.3801 56.01C78.5801 56.91 78.7901 57.8 78.9601 58.71C79.0701 59.28 79.0601 59.88 78.7101 60.37C78.4801 60.69 78.1401 60.92 77.7601 61.03C77.4801 61.11 77.2101 61.15 76.9201 61.17C76.4701 61.2 75.9901 61.12 75.5501 61.03C75.0401 60.93 74.5401 60.81 74.0401 60.67C72.5001 60.21 71.0101 59.55 69.6201 58.75C68.9701 58.38 68.3401 57.97 67.7401 57.52C67.1001 57.04 66.5101 56.49 65.9001 55.96C65.6801 55.77 65.4601 55.59 65.2301 55.42C65.1601 55.38 65.0901 55.33 65.0201 55.29C64.9901 55.28 64.9701 55.27 64.9401 55.26C64.9201 55.26 64.9001 55.25 64.8801 55.24C64.8601 55.24 64.8401 55.24 64.8201 55.24C64.7901 55.24 64.7601 55.26 64.7301 55.27C64.6101 55.32 64.4901 55.37 64.3701 55.43C63.8501 55.71 63.3501 56.03 62.8601 56.36C62.1101 56.87 61.3701 57.38 60.5801 57.82C59.7501 58.28 58.9201 58.76 58.1001 59.23C57.3001 59.68 56.4901 60.1 55.6901 60.55C54.9001 61 54.1101 61.44 53.2901 61.82C53.0901 61.91 52.8901 61.99 52.6801 62.05C52.5201 62.1 52.3601 62.12 52.2001 62.12C51.9501 62.12 51.7001 62.06 51.4701 61.94L51.5101 61.9Z" fill="#623425"/>
<path fill-rule="evenodd" clip-rule="evenodd" d="M44.5201 39.56C43.5401 35.86 50.3901 35.75 52.7701 35.46C55.0601 35.33 57.3601 35.31 59.6501 35.32C60.1701 35.32 60.6001 35.75 60.6001 36.27C60.6001 36.79 60.1701 37.23 59.6501 37.22C57.2701 37.2 54.8901 37.22 52.5101 37.37C50.4601 37.63 48.0801 37.62 46.3301 38.83C46.7001 39.96 45.0401 40.55 44.5101 39.54L44.5201 39.56Z" fill="#623425"/>
<path fill-rule="evenodd" clip-rule="evenodd" d="M35.6501 14.23C35.7601 9.73999 48.1801 8.01999 51.8701 7.47999C59.8201 6.24999 67.8601 5.91999 75.8801 6.60999C83.6401 7.09999 91.7601 7.48999 98.7801 11.18C99.8301 11.71 101.73 13.54 99.6001 13.99C98.2101 13.39 97.0901 12.09 95.5101 11.73C89.6101 9.53999 83.3901 8.88999 77.1601 8.59999C67.1201 7.63999 57.0501 8.30999 47.1601 10.17C44.1401 10.76 41.1001 11.57 38.4901 13.25C37.5701 13.71 36.6601 15.62 35.6601 14.23H35.6501Z" fill="#623425"/>
<path fill-rule="evenodd" clip-rule="evenodd" d="M64.01 120.77C58.26 119.91 52.32 118.96 47.03 116.45C44.77 115.73 45.62 113.46 47.38 114.48C52.4 117.08 58.15 117.87 63.66 118.83C70.73 119.48 77.85 118.9 84.51 116.4C86.62 115.73 88.62 114.76 90.53 113.65C90.98 113.39 91.58 113.6 91.82 114.05C92.6 115.67 87.94 116.94 86.84 117.59C79.6 120.51 71.75 121.46 64 120.77H64.01Z" fill="#623425"/>
<path fill-rule="evenodd" clip-rule="evenodd" d="M90.8801 28.9299C90.0101 28.8099 90.0101 27.8899 90.1201 27.2099C90.2301 25.3899 90.1901 23.5699 90.1201 21.7499C90.3901 20.3099 88.9001 15.5099 90.8201 15.3799C91.3301 15.3799 91.7801 15.8099 91.7701 16.3299C91.5001 18.1999 93.3301 29.3299 90.8801 28.9299Z" fill="#623425"/>
<path fill-rule="evenodd" clip-rule="evenodd" d="M96.27 23C94.68 22.54 95.91 20.4 95.66 19.22C95.8 17.77 95.2 16.33 95.25 14.94C97.23 12.71 97.54 17.24 97.55 18.49C97.35 19.77 98.12 22.91 96.27 23Z" fill="#623425"/>
<path fill-rule="evenodd" clip-rule="evenodd" d="M71.4601 85.83C70.6001 85.69 69.2101 85.99 68.8601 84.95C68.7301 84.45 69.0201 83.92 69.5301 83.78C70.9601 83.81 72.4401 84.13 73.8801 83.84C74.3901 83.75 74.8901 84.16 74.9501 84.65C74.9501 86.32 72.5601 85.76 71.4501 85.83H71.4601Z" fill="#623425"/>
<path fill-rule="evenodd" clip-rule="evenodd" d="M72.0201 91.2799C69.6701 91.5899 68.6201 89.4299 70.7001 89.1199C72.1601 90.0799 75.0701 88.1899 75.6001 89.7499C75.7901 91.4899 73.1701 91.1699 72.0201 91.2799Z" fill="#623425"/>
<path fill-rule="evenodd" clip-rule="evenodd" d="M72.0202 96.1099C71.0402 95.7499 71.3002 94.2299 72.3402 94.2499C73.2302 94.5899 74.4502 93.4799 74.9902 94.6499C75.4602 96.1899 73.0302 96.4199 72.0202 96.1099Z" fill="#623425"/>
</g>
<defs>
<clipPath id="clip0_255_1421">
<rect width="136.72" height="132.26" fill="white"/>
</clipPath>
</defs>
</svg>
