<svg width="112" height="124" viewBox="0 0 112 124" fill="none" xmlns="http://www.w3.org/2000/svg">
<g clip-path="url(#clip0_255_1492)">
<path fill-rule="evenodd" clip-rule="evenodd" d="M100.22 36.93C105.06 35.68 102.02 43.64 101.92 46.03C100.56 53.43 99.19 60.85 97.56 68.2C95.37 77.29 94.23 86.58 92.29 95.71C91.15 100.19 91.14 106.3 86.87 109.01C86.22 109.6 85.5 110.11 84.76 110.56C78.83 114.36 71.57 115.75 64.62 116.04C60.01 116.53 55.33 117.16 50.71 116.54C47.26 116.08 43.78 115.95 40.33 115.47C37 114.94 33.91 113.52 30.72 112.5C27.84 111.63 24.84 110.67 22.73 108.41C20.51 106.07 20.31 102.4 20.06 99.16C19.08 98.49 19.26 97.07 19.02 96.03C18.71 93.33 17.99 90.7 17.52 88.02C17.07 84.43 16.31 80.88 15.57 77.34C15.47 76.42 14.83 75.46 15.23 74.56C14.92 73.03 14.61 71.5 14.33 69.97C14.24 69.48 14.15 68.99 14.07 68.51C12.99 66.71 12.9 64.08 12.91 62C11.46 54.69 10.34 47.32 8.96001 40C8.92001 39.58 9.02001 39.2 9.19001 38.87C9.04001 38.71 8.89001 38.49 8.74001 38.21C8.70001 38.01 8.73001 37.82 8.77001 37.64C5.18001 38.06 1.24001 35.12 1.34001 31.36C1.21001 28.39 3.88001 25.44 6.93001 25.73C10.49 26.27 14.94 29.48 13.53 33.53C13.24 34.26 12.47 36.37 11.54 37.8C11.69 37.83 11.83 37.86 11.98 37.92C14.95 39.02 16.34 42.16 18.41 44.34C23.88 50.63 27.86 58.05 33.45 64.26C35.04 62.71 35.62 60.56 36.37 58.54C37.72 54.99 39.25 51.51 40.88 48.08C43.16 43.16 45.8 38.4 47.99 33.44C48.91 31.06 49.72 28.64 50.97 26.41C52.68 23.59 53.74 20.43 55.25 17.53C57.95 15.64 58.43 21.79 59.44 23.3C60.31 25.64 61.29 27.95 62.12 30.31C62.19 30.52 62.26 30.73 62.33 30.93C62.96 30.95 63.72 31.49 64.12 32.8C64.73 34.07 65.28 35.37 65.81 36.68C65.81 36.69 65.82 36.71 65.82 36.72C69.18 44.82 73.67 52.41 76.76 60.61C76.87 61.24 77.42 62.34 77.91 63.47C78.32 62.87 78.93 62.34 79.3 61.76C80.86 59.77 82.57 57.9 84.19 55.95C85.55 53.91 87.14 52.01 88.59 50.03C89.32 49.2 89.93 47.97 91.07 47.68C94.02 44.05 96.72 40.06 100.22 36.96V36.93ZM109.68 28.42C108.44 25.37 104.23 24.14 101.51 25.95C98.85 22.82 94.05 36.94 103.44 36.78C107.75 37.16 111.21 32.41 109.69 28.42H109.68ZM60.06 2.30003C49.02 -2.70998 45.86 13.17 54.84 14.77C55 15.75 56.42 16.04 56.96 15.23C57.67 14.75 58.42 14.34 59.1 13.82C63.01 11.27 64.99 4.90003 60.06 2.31003V2.30003Z" fill="#FEB904"/>
<path fill-rule="evenodd" clip-rule="evenodd" d="M102.37 36.69C102.02 36.55 101.79 36.21 101.76 35.83C101.11 35.58 100.34 35.17 99.94 34.58C98.91 33.91 96.54 31.59 98.43 30.71C97.1 29.13 99.12 27.58 99.76 29.42C100.96 32.45 105.49 32.31 107.09 29.73C107.74 28.89 107.95 27.72 108.74 27.01C111.01 26.34 110.35 30.08 109.84 31.3C109.89 31.41 109.92 31.54 109.92 31.67C109.92 31.79 109.92 31.9 109.89 32.02C110.7 33.27 108.93 34.1 108.02 34.54C107.89 35.4 106.92 35.59 106.2 35.67C105.05 36.26 103.7 37.03 102.38 36.68L102.37 36.69ZM100.89 37.29C99.45 37.83 98.55 39.21 97.53 40.29C96.05 41.9 94.5 43.64 93.05 45.34C90.95 47.74 88.79 50.07 86.68 52.46C86.1 53.46 83.85 54.57 84.92 55.81C83.03 57.94 80.75 59.62 79.05 61.94C78.74 62.27 78.37 62.67 78.54 63.15C78.35 63.42 78.02 63.68 77.74 63.96C77.18 62.5 76.6 61.05 76.07 59.58C72.73 50.85 68.23 42.58 64.53 34C64.51 33.48 64.14 33.21 63.74 33.18C63.69 32.59 63.62 32.01 63.55 31.43C63.42 30.26 61.6 30.56 61.78 31.67C63.26 48.26 58.51 65.59 49.31 79.48C43.17 88.06 31.96 97.84 20.76 96.86C17.51 96.74 20.12 101.79 20.18 103.55C20.49 108.47 24.38 109.82 28.41 111.27C28.54 111.32 28.66 111.35 28.77 111.35C29.5 112.93 33.58 113.24 36.86 113.47C37.04 116.04 48.56 115.49 50.29 115.83C52.94 116.01 55.56 116.53 58.22 116.56C62.26 116.61 66.27 115.93 70.22 115.12C78.15 114.47 90.94 112.07 91.12 102.03C91.61 98.9 92.04 95.76 92.42 92.61C92.6 92.51 92.74 92.34 92.82 92.15C93.78 90.62 93.66 88.27 94.18 86.49C94.36 84.6 95.32 82.57 94.98 80.73C97.49 67.57 99.2 54.26 102.87 41.35C103.32 39.62 103.59 36.7 100.91 37.28L100.89 37.29ZM8.66997 37.56C8.45997 37.52 8.26997 37.42 8.13997 37.27C5.04997 37.78 0.419968 34.52 1.48997 31.17C0.939968 30.14 0.869968 27.64 2.51997 28.48C2.52997 29.06 2.62997 29.63 2.85997 30.17C3.12997 30.8 3.55997 31.4 4.09997 31.83C4.64997 32.92 6.08997 33.16 7.33997 33.21C7.51997 33.23 7.70997 33.24 7.89997 33.24C7.95997 33.24 8.02997 33.24 8.08997 33.24C8.15997 33.24 8.22997 33.24 8.28997 33.22C9.49997 33.26 10.47 32.66 11.28 32.06C12.5 31.16 13.31 30.25 13.93 31.55C14.1 32.87 12.99 33.98 12.57 35.17C12.1 36.63 10.87 37.62 9.38997 37.62C9.15997 37.62 8.91997 37.6 8.67997 37.55L8.66997 37.56ZM55.44 14.35C54.12 14.35 52.96 13.7 51.67 13.65C50.65 13.79 50.06 12.42 51.03 11.92C47.33 11 49.34 7.83 50.62 9.78C53.95 11.74 57.94 9.08 59.1 5.79C59.55 4.86 58.93 3.56 59.75 2.82C60.65 2.17 61.46 3.24 61.88 3.94C63.05 5.73 63.12 8.18 61.92 9.98C61.24 12.56 58.08 14.57 55.43 14.34L55.44 14.35ZM60.84 6.24C60.84 6.24 60.86 6.21 60.87 6.19C60.88 6.17 60.9 6.15 60.91 6.12C60.91 6.1 60.9 6.08 60.89 6.05C60.87 6.11 60.86 6.17 60.84 6.23V6.24ZM102.2 33.41C102.2 33.41 102.21 33.41 102.22 33.41C102.12 33.4 102.03 33.38 101.93 33.36C102.01 33.39 102.11 33.39 102.19 33.41H102.2Z" fill="#E88913"/>
<path fill-rule="evenodd" clip-rule="evenodd" d="M15.6601 77.53C14.8201 77.18 15.2201 76.23 15.2501 75.55C14.2901 74.95 14.6401 72.96 14.2701 71.93C13.6101 68.01 13.0601 64.07 12.5501 60.14C11.0501 59.49 12.4301 56.39 15.5101 60.55C17.0601 60.15 17.4801 62.38 17.8901 63.45C19.8301 63.62 18.7301 67.8 18.7701 69.15C18.6401 70.47 19.4801 73.57 18.1501 74.24C18.1201 74.48 18.0901 74.71 18.0601 74.95C18.0001 75.43 17.5401 75.78 17.0601 75.72C16.9801 76.54 16.8201 77.96 15.6401 77.54L15.6601 77.53Z" fill="#F96944"/>
<path fill-rule="evenodd" clip-rule="evenodd" d="M17.53 70.26C16.87 69.74 17.32 69.11 17.57 68.55C18.02 67.03 17.75 65.41 17.53 63.87C17.39 63.11 18.37 62.55 18.96 63.04C19.93 64.01 20.06 71.64 17.53 70.26Z" fill="#F96944"/>
<path fill-rule="evenodd" clip-rule="evenodd" d="M59.53 52.4C62.01 55.24 61.86 59.17 60.78 62.57C59.87 65.24 58.35 71.85 54.79 71.6C52.85 70.4 52.01 67.93 50.89 66.03C49.68 64.04 48.69 61.86 48.61 59.5C48.2 56.09 53.01 47.84 56.98 49.62C58.1 50.25 58.73 51.44 59.53 52.4Z" fill="#F96944"/>
<path fill-rule="evenodd" clip-rule="evenodd" d="M95.2699 74.7099C94.7999 74.4399 94.7499 73.8899 94.7199 73.3999C94.7199 73.2899 94.7099 73.1699 94.7099 73.0599C93.1499 70.6599 92.3099 67.5899 92.2999 64.6899C92.1499 62.1499 93.6899 60.0699 95.6699 58.6599C96.5699 58.0499 97.3099 57.0999 98.3299 56.7099C98.8699 56.6399 99.3699 57.0499 99.3699 57.5999C99.3799 58.2599 98.6999 58.4499 98.3099 58.8299C100.01 60.3799 97.2999 69.2199 97.1499 71.8699C96.9699 72.9699 96.9999 75.3499 95.2799 74.7099H95.2699Z" fill="#F96944"/>
<path fill-rule="evenodd" clip-rule="evenodd" d="M54.8799 71.9C53.4799 71.67 54.4199 69.32 54.3399 68.32C54.6399 66.02 54.7999 63.65 55.4099 61.42C56.7799 59.53 58.3599 57.75 59.8999 55.98C60.6899 55.31 61.7599 56.21 61.3099 57.12C62.6899 57.28 62.0199 58.74 61.6499 59.54C61.1499 60.74 60.6499 61.93 60.1499 63.12C60.7199 63.81 58.9299 66.18 58.6299 67.07C58.1899 67.9 57.8899 68.63 57.5699 69.48C57.2399 70.13 57.2499 70.81 56.6599 71.19C56.4799 71.56 56.0299 71.76 55.6399 71.65C55.4399 71.83 55.1599 71.93 54.8899 71.9H54.8799Z" fill="#C94D2B"/>
<path fill-rule="evenodd" clip-rule="evenodd" d="M95.01 74.72C93.81 74.55 94.29 72.58 94.41 71.74C93.78 72.25 92.75 71.57 93.01 70.79C93.31 69.89 93.71 69.01 94.09 68.14C94.86 66.4 95.61 64.66 96.26 62.87C96.8 61.33 97.46 59.82 97.9 58.25C98.11 57.27 98.69 55.54 99.91 56.67C100.45 57.56 99.66 58.6 99.43 59.49C98.73 61.77 98.17 64.09 97.52 66.39C97.76 66.61 97.86 66.96 97.78 67.29C97.47 68.46 97.1 69.61 96.81 70.78C96.6 71.58 96.4 72.38 96.2 73.18C96.07 73.85 95.91 74.86 95 74.74L95.01 74.72Z" fill="#C94D2B"/>
<path fill-rule="evenodd" clip-rule="evenodd" d="M16.3601 76.46C16.3601 76.46 16.3501 76.45 16.3401 76.44C15.3501 76.36 15.5101 75.66 15.4101 74.96C15.1301 74.01 14.8901 73.0599 14.6501 72.0999C14.5301 71.5299 14.1601 70.8799 14.4301 70.3099C14.1901 68.9199 12.2701 64.1799 12.8801 63.3499C12.4601 61.6299 11.7701 59.9399 11.3401 58.2599C11.4101 57.7699 11.8601 57.44 12.3501 57.5C13.2401 57.67 13.3001 58.8 13.6101 59.49C14.5701 62.72 15.5001 65.95 16.7701 69.08C17.0801 69.9 17.3801 70.7299 17.6801 71.5599C17.9201 72.1399 18.2201 72.93 17.5801 73.36C17.4901 74.18 17.6501 74.94 17.8701 75.72C18.0201 76.53 16.9101 77.09 16.3501 76.47L16.3601 76.46Z" fill="#C94D2B"/>
<path fill-rule="evenodd" clip-rule="evenodd" d="M53.8399 58.74C53.8699 58.8 53.8999 58.85 53.9299 58.91C53.9099 58.86 53.8799 58.82 53.8599 58.77C53.7999 58.66 53.7499 58.54 53.6899 58.43C53.7099 58.47 53.7299 58.51 53.7499 58.55C53.5699 58.19 53.3999 57.84 53.2199 57.48C53.2499 57.54 53.2799 57.6 53.3099 57.65C53.2499 57.52 53.1899 57.4 53.1199 57.27C53.1499 57.33 53.1799 57.39 53.2099 57.44C52.5099 56.04 51.7799 54.65 50.9799 53.3C50.7999 53 50.6099 52.7 50.4199 52.4C50.7799 52.43 50.9999 52.88 51.1999 53.21C51.8699 52.25 52.5999 51.33 53.3799 50.45C53.8399 49.94 54.2799 49.38 54.8999 49.07C55.8099 48.56 56.5299 49.28 57.0899 49.93C57.9399 50.82 58.6699 51.81 59.3999 52.8C59.7799 53.29 60.1799 53.77 60.5099 54.29C60.6199 54.46 60.6999 54.66 60.7099 54.86C60.5899 55.01 60.4599 55.16 60.3399 55.31C60.0899 55.62 59.8299 55.93 59.5899 56.25C58.7799 57.17 57.9899 58.1 57.2199 59.04C56.5399 59.87 55.9099 60.74 55.2899 61.62C54.8199 60.66 54.3399 59.69 53.8599 58.73L53.8399 58.74Z" fill="#FFAE99"/>
<path fill-rule="evenodd" clip-rule="evenodd" d="M18.33 65.61C17.71 65.32 17.32 64.71 16.81 64.28C15.55 63.08 14.43 61.73 13.3 60.43C13.15 60.26 13.01 60.09 12.85 59.94C12.42 59.54 12.85 58.79 13.41 58.94C14.12 58.59 15.02 59.9 15.54 60.31C15.74 60.34 15.94 60.46 16.01 60.67C16.46 61.42 17.22 61.97 17.79 62.64C18.18 63.17 19.4 63.94 18.95 64.66C19.34 65.07 18.88 65.8 18.34 65.62L18.33 65.61Z" fill="#FFAE99"/>
<path fill-rule="evenodd" clip-rule="evenodd" d="M92.37 64.73C92.08 64.72 91.81 64.51 91.78 64.22C91.78 64.16 91.78 64.1 91.78 64.04C91.34 63.99 91.11 63.43 91.39 63.09C91.88 62.61 92.45 62.19 92.96 61.73C93.02 61.48 93.24 61.33 93.4 61.14C93.71 60.8 94.01 60.46 94.32 60.11C94.3 60.13 94.29 60.14 94.27 60.16C94.93 59.45 95.5 58.66 96.12 57.92C96.45 57.59 96.78 56.96 97.34 57.12C98 56.53 98.62 55.82 99.41 55.41C99.85 55.21 100.35 55.65 100.22 56.12C100.11 56.52 99.76 56.8 99.5 57.11C99.56 57.2 99.59 57.31 99.59 57.43C99.59 57.45 99.59 57.46 99.59 57.48C99.87 57.69 99.9 58.13 99.65 58.37C98.74 59.24 97.81 60.1 96.89 60.96C95.95 61.84 95.01 62.72 94.04 63.58C93.53 63.95 93.03 64.66 92.38 64.73H92.37Z" fill="#FFAE99"/>
<path fill-rule="evenodd" clip-rule="evenodd" d="M20.2199 108.14C14.8699 86.15 12.7099 63.2 7.49994 41.08C7.31994 40.1 6.50994 38.35 8.05994 38.19C8.59994 38.19 9.00994 38.65 9.01994 39.17C10.4099 44.99 11.6899 50.83 12.6099 56.75C14.8799 69.76 17.1699 82.76 19.5099 95.76C19.9299 98.49 20.5199 101.19 21.0799 103.89C21.1799 105.17 22.8799 109.12 20.2199 108.13V108.14Z" fill="#663625"/>
<path fill-rule="evenodd" clip-rule="evenodd" d="M32.8899 64.68C25.6399 56.01 19.2099 46.39 10.7999 38.81C7.40992 40.98 6.24992 37.14 8.81992 37.55C11.4899 35.89 13.1899 38.18 14.9399 40.01C17.7199 43.01 20.4199 46.08 22.9699 49.27C26.5799 53.79 30.2799 58.23 33.8199 62.8C35.1699 63.78 34.4599 65.91 32.8899 64.69V64.68Z" fill="#663625"/>
<path fill-rule="evenodd" clip-rule="evenodd" d="M33.0901 63.87C35.1501 56.56 39.2701 49.99 42.2901 43.05C46.3101 33.89 50.4401 24.78 54.5601 15.66C55.0201 14.53 56.8101 15.26 56.3201 16.4C50.5001 28.95 45.2501 41.77 39.0501 54.14C37.6001 57.13 36.3101 60.19 35.1801 63.31C35.0101 63.96 35.0101 64.86 34.1001 64.85C33.5501 64.85 33.1001 64.4 33.0901 63.85V63.87Z" fill="#663625"/>
<path fill-rule="evenodd" clip-rule="evenodd" d="M6.97003 38.78C-1.97997 38.9 -2.42997 25.36 6.31003 24.81C10.87 24.46 15.54 28.29 14.92 33.07C14.65 34.81 12.69 39.22 10.49 37.74C10.08 39.07 8.08003 38.66 6.97003 38.78ZM10.27 36.97C10.28 36.87 10.31 36.77 10.35 36.68C10.51 36.31 10.89 36.08 11.28 36.1C16.23 31.49 9.83003 24.7 4.39003 27.2C1.25003 29.02 0.840033 34.46 4.29003 36.18C5.77003 36.94 7.49003 37.02 9.11003 36.72C9.51003 36.59 9.99003 36.64 10.27 36.98V36.97Z" fill="#663625"/>
<path fill-rule="evenodd" clip-rule="evenodd" d="M91.27 107.06C96.62 85.07 98.78 62.12 103.99 40C104.17 39.02 104.98 37.27 103.43 37.11C102.89 37.11 102.48 37.57 102.47 38.09C101.08 43.91 99.8 49.75 98.88 55.67C96.61 68.68 94.32 81.68 91.98 94.68C91.56 97.41 90.97 100.11 90.41 102.81C90.31 104.09 88.61 108.04 91.27 107.05V107.06Z" fill="#663625"/>
<path fill-rule="evenodd" clip-rule="evenodd" d="M78.6001 63.59C85.8501 54.92 92.2801 45.3 100.69 37.72C104.08 39.89 105.24 36.05 102.67 36.46C100 34.8 98.3101 37.09 96.5501 38.92C93.7701 41.92 91.0701 44.99 88.5201 48.18C84.9101 52.7 81.2101 57.14 77.6701 61.71C76.3101 62.69 77.0301 64.82 78.6001 63.6V63.59Z" fill="#663625"/>
<path fill-rule="evenodd" clip-rule="evenodd" d="M78.4001 62.78C76.3401 55.47 72.2201 48.9 69.2001 41.96C65.1801 32.8 61.0501 23.69 56.9301 14.57C56.4701 13.44 54.6801 14.17 55.1701 15.31C60.9901 27.86 66.2401 40.68 72.4401 53.05C73.8901 56.04 75.1801 59.1 76.3101 62.22C76.4801 62.87 76.4801 63.77 77.3901 63.76C77.9401 63.76 78.3901 63.31 78.4001 62.76V62.78Z" fill="#663625"/>
<path fill-rule="evenodd" clip-rule="evenodd" d="M104.53 37.69C113.48 37.81 113.93 24.27 105.19 23.72C100.63 23.37 95.9601 27.2 96.5801 31.98C96.8501 33.72 98.8101 38.13 101.01 36.65C101.42 37.98 103.42 37.57 104.53 37.69ZM101.23 35.88C101.22 35.78 101.19 35.68 101.15 35.59C100.99 35.22 100.61 34.99 100.22 35.01C95.2701 30.4 101.67 23.61 107.11 26.11C110.25 27.93 110.66 33.37 107.21 35.09C105.73 35.85 104.01 35.93 102.39 35.63C101.99 35.5 101.51 35.55 101.23 35.89V35.88Z" fill="#663625"/>
<path fill-rule="evenodd" clip-rule="evenodd" d="M55.4 15.94C49.32 15.56 44.82 8.13001 49.62 3.37001C51.41 1.59001 53.7 -0.179988 56.36 0.0200116C68.06 1.48001 65.52 14.83 55.4 15.95V15.94ZM55.83 14.07C63.38 12.26 65.05 3.01001 56.19 1.91001C48 2.96001 46.91 12.94 55.83 14.07Z" fill="#663625"/>
<path fill-rule="evenodd" clip-rule="evenodd" d="M56.49 117.72C46.68 117.37 26.39 115.57 20.31 107.42C20.26 106.34 21.83 106.04 22.17 107.06C23.22 107.92 24.36 108.64 25.52 109.35C39.64 117.14 74.15 119.2 87.03 108.43C88.09 107.72 89.63 104.5 90.92 105.34C91.34 105.63 91.47 106.25 91.16 106.67C83.24 116.82 68.39 117.62 56.46 117.72H56.49Z" fill="#663625"/>
<path fill-rule="evenodd" clip-rule="evenodd" d="M56.5199 108.48C49.1299 108.49 22.7699 105.14 18.9099 99.3901C19.1299 97.7401 20.8799 98.6801 21.6599 99.3701C22.8999 100.2 24.2299 100.89 25.6399 101.37C46.7999 107.73 69.2599 109.45 89.5199 99.2101C90.7299 98.9101 91.9899 96.8701 93.1799 97.9801C93.4899 98.3801 93.4299 99.0101 93.0099 99.3201C89.9699 101.46 86.4099 102.69 82.9699 104.02C74.5499 107.11 65.4799 108.8 56.5299 108.49L56.5199 108.48Z" fill="#663625"/>
<path fill-rule="evenodd" clip-rule="evenodd" d="M15.14 79.32C14.53 78.85 14.79 78.1 15.23 77.62C16.22 76.19 16.9 74.59 17.46 72.95C19.82 65.08 19.07 62.81 12.14 58.42C11.12 58.04 11.07 56.41 12.3 56.36C16.36 58.66 21.6 62.26 20.46 67.68C20.57 69.59 17.74 80.81 15.14 79.32Z" fill="#663625"/>
<path fill-rule="evenodd" clip-rule="evenodd" d="M54.6701 72.99C50.1501 70.48 47.1501 64.59 47.0801 59.49C47.6001 55.79 50.1201 51.23 52.9801 48.92C57.0701 44.63 62.4201 54.22 62.7501 57.73C62.5201 61.16 59.2101 74.02 54.6701 72.99ZM55.3201 71.19C57.8301 69.91 61.6401 59.14 60.5701 56.55C59.5301 53.94 58.0001 51.12 55.4701 49.72C54.4101 49.54 53.9601 51.08 53.0801 51.4C50.9501 54.29 48.3601 57.77 49.1301 61.56C50.1401 65.23 51.9501 69.16 55.3201 71.18V71.19Z" fill="#663625"/>
<path fill-rule="evenodd" clip-rule="evenodd" d="M94.9102 76.88C92.1602 71.77 87.8002 64.4 92.7802 59.34C94.6902 57.39 96.7402 55.02 99.4002 54.19C100.55 54.18 100.67 55.94 99.5402 56.09C96.6102 58.13 92.7102 60.69 92.4302 64.56C92.3202 68.03 94.1502 71.16 95.6002 74.2C95.9002 74.78 96.2202 75.35 96.5602 75.92C97.1902 76.97 95.5302 77.96 94.9102 76.88Z" fill="#663625"/>
<path fill-rule="evenodd" clip-rule="evenodd" d="M5.51006 34.77C4.85006 34.74 4.07006 34.39 4.19006 33.6C4.56006 32.09 6.41005 33.27 7.47005 32.8C9.10005 32.78 9.92005 30.25 11.2301 30.86C13.2501 33.01 7.25006 35.39 5.51006 34.77Z" fill="#663625"/>
<path fill-rule="evenodd" clip-rule="evenodd" d="M54 10.39C51.45 9.73004 52.96 6.48004 54.44 8.51004C56.27 9.27004 57.77 7.71004 59.14 6.85004C63 7.92004 55.82 11.67 54 10.39Z" fill="#663625"/>
<path fill-rule="evenodd" clip-rule="evenodd" d="M103.46 33.11C102.23 32.75 100.76 31.85 100.42 30.56C100.4 29.79 101.38 29.32 101.97 29.81C102.51 30.41 103.09 31.07 103.91 31.26C104.56 31.38 105.28 31.42 105.87 31.09C108.44 30.57 107.56 34.09 103.46 33.11Z" fill="#663625"/>
<path fill-rule="evenodd" clip-rule="evenodd" d="M79.0099 104.62C78.4699 104.32 78.4299 103.62 78.7599 103.14C79.4899 101.65 80.0399 100.08 80.4999 98.49C81.3399 97.03 81.0399 90.54 83.0299 91.09C83.8299 91.31 83.7899 92.16 83.5699 92.8C83.1899 94.66 81.6099 105.7 79.0099 104.62Z" fill="#663625"/>
<path fill-rule="evenodd" clip-rule="evenodd" d="M72.5901 106.76C71.2101 105.99 72.7901 104.39 72.9701 103.31C73.6101 102.22 73.3201 99.58 75.0401 99.73C76.5701 100.4 75.0601 102.37 74.9101 103.52C74.3401 104.56 74.2501 107.16 72.6001 106.76H72.5901Z" fill="#663625"/>
<path fill-rule="evenodd" clip-rule="evenodd" d="M26.4001 102.82C25.1901 101.73 22.0301 89.5901 25.8601 91.9701C26.2601 94.4001 25.9301 97.0901 26.9501 99.4701C27.2501 100.29 27.5901 101.1 28.0501 101.85C28.6801 102.91 27.0201 103.89 26.4001 102.81V102.82Z" fill="#663625"/>
<path fill-rule="evenodd" clip-rule="evenodd" d="M33.6801 104.14C33.3301 102.87 31.5201 99.56 33.5901 99.14C35.0901 99.27 34.5701 102.28 35.4401 103.4C35.9301 104.53 34.1601 105.29 33.6801 104.14Z" fill="#663625"/>
</g>
<defs>
<clipPath id="clip0_255_1492">
<rect width="111.49" height="123.6" fill="white"/>
</clipPath>
</defs>
</svg>
