<svg xmlns="http://www.w3.org/2000/svg" id="star" viewBox="0 0 32 32">
  <path d="m21.046,10.33l-3.229-6.542c-.343-.695-1.036-1.126-1.811-1.126s-1.469.432-1.812,1.126l-3.244,6.554-7.221,1.049c-.767.111-1.391.638-1.63,1.375-.239.737-.044,1.531.511,2.071l5.23,5.11-1.233,7.191c-.131.764.178,1.521.804,1.976.354.257.768.388,1.185.388.321,0,.644-.078.941-.234l6.478-3.395,6.457,3.395c.688.361,1.501.302,2.127-.153.627-.455.936-1.212.805-1.976l-1.228-7.208,5.225-5.093c.555-.541.75-1.334.511-2.071-.239-.737-.864-1.264-1.631-1.375l-7.22-1.049-.016-.011Z" style="fill:#ffd15c"></path>
  <path d="m29.912,12.764c-.239-.737-.864-1.264-1.631-1.375l-7.22-1.049-.016-.011-3.229-6.542c-.343-.695-1.036-1.126-1.811-1.126s-1.469.432-1.812,1.126l-3.244,6.554-7.221,1.049c-.767.111-1.391.638-1.63,1.375-.239.737-.044,1.531.511,2.071l5.23,5.11-1.233,7.191c-.131.764.178,1.521.804,1.976.354.257.768.388,1.185.388.321,0,.644-.078.941-.234l6.478-3.395,6.457,3.395c.688.361,1.501.302,2.127-.153.627-.455.936-1.212.805-1.976l-1.228-7.208,5.225-5.093c.555-.541.75-1.334.511-2.071Zm-7.132,5.731c-.476.464-.692,1.132-.58,1.788l1.203,7.212-6.457-3.395c-.294-.155-.617-.232-.939-.232s-.646.078-.94.232l-6.487,3.374,1.233-7.191c.112-.656-.105-1.325-.581-1.788l-5.214-5.127,7.222-1.049c.658-.096,1.227-.509,1.52-1.105l3.266-6.542,3.228,6.542c.294.597.863,1.01,1.521,1.106h0l7.23,1.083-5.225,5.093Z" style="fill:#1b1234"></path>
</svg>
