<svg xmlns="http://www.w3.org/2000/svg" viewBox="0 0 512 512" id="online-video">
  <path fill="#9ea6bf" d="M445.77,436H66.23a40,40,0,0,1-38.8-30.3L15,356H497l-12.43,49.7A40,40,0,0,1,445.77,436Z"></path>
  <path d="M445.77,451H66.23a54.92,54.92,0,0,1-53.36-41.66L.45,359.64A15,15,0,0,1,15,341H497a15,15,0,0,1,14.55,18.64l-12.42,49.7A54.92,54.92,0,0,1,445.77,451ZM34.21,371,42,402.06A25,25,0,0,0,66.23,421H445.77A25,25,0,0,0,470,402.06L477.79,371Z"></path>
  <path fill="#faf7f5" d="M86,76H426a40,40,0,0,1,40,40V356a0,0,0,0,1,0,0H46a0,0,0,0,1,0,0V116A40,40,0,0,1,86,76Z"></path>
  <path d="M466,371H46a15,15,0,0,1-15-15V116A55.06,55.06,0,0,1,86,61H426a55.06,55.06,0,0,1,55,55V356A15,15,0,0,1,466,371ZM61,341H451V116a25,25,0,0,0-25-25H86a25,25,0,0,0-25,25Z"></path>
  <polygon fill="#ff7b79" points="206 296 346 216 206 136 206 296"></polygon>
  <path d="M206,311a15,15,0,0,1-15-15V136a15,15,0,0,1,22.44-13l140,80a15,15,0,0,1,0,26l-140,80A14.94,14.94,0,0,1,206,311Zm15-149.15v108.3L315.77,216Z"></path>
</svg>
