<svg width="164" height="149" viewBox="0 0 164 149" fill="none" xmlns="http://www.w3.org/2000/svg">
<path d="M161.907 55.6739C159.091 54.3929 151.312 54.7995 151.312 54.7995C156.372 48.0271 156.101 44.6825 156.101 44.6825C143.418 34.1065 118.761 41.4516 108.566 45.3646C118.071 10.6241 91.7365 -1.0012 88.4491 0.725763C85.1093 2.47896 79.8311 11.9489 79.8311 11.9489C75.6661 4.10974 69.6763 0 69.6763 0C45.7738 6.34387 49.9038 39.7158 50.8773 46.0466C40.7881 41.1717 19.3216 33.1927 7.28086 43.2354C7.28086 43.2354 6.40334 46.9866 11.4676 53.7589C11.4676 53.7589 3.93232 52.7621 1.11641 54.0431C-1.69951 55.3241 -1.73443 83.9437 32.8031 93.3261C32.8031 93.3261 38.9064 94.7645 44.4771 95.2761C43.1107 96.2773 41.5215 97.038 40.0765 98.1223C34.759 102.114 27.0097 110.989 25.652 116.336C23.6525 124.202 21.3997 128.25 29.6859 138.144C29.6859 138.144 34.401 137.755 41.3469 132.832C41.3469 132.832 41.6525 144.064 43.019 144.772C45.7214 146.167 71.5885 149.651 82.1231 120.114C92.0988 151.973 117.617 149.743 120.38 148.314C121.747 147.605 122.205 136.513 122.205 136.513C129.147 141.436 133.351 141.865 133.351 141.865C141.637 131.971 139.026 120.28 137.027 112.415C135.669 107.068 132.321 101.992 127.431 99.2197C125.549 98.1529 123.79 97.0161 122.118 95.8532C126.348 95.2236 129.994 94.3623 129.994 94.3623C164.531 84.9799 164.741 56.9505 161.925 55.6695L161.907 55.6739Z" fill="#F091AC"/>
</svg>
