<?xml version="1.0" encoding="UTF-8"?>
<svg id="Ebene_1" data-name="Ebene 1" xmlns="http://www.w3.org/2000/svg" viewBox="0 0 810.94 661.01">
  <defs>
    <style>
      .cls-1 {
        stroke: #61033b;
        stroke-width: 8px;
      }

      .cls-1, .cls-2 {
        fill: none;
        stroke-miterlimit: 10;
      }

      .cls-2 {
        stroke: #f6bec9;
        stroke-width: 7px;
      }

      .cls-3 {
        fill: #dc638e;
      }

      .cls-4 {
        fill: #f091ac;
      }

      .cls-5 {
        fill: #fdfcf8;
      }

      .cls-6 {
        fill: #61033b;
      }
    </style>
  </defs>
  <g>
    <path class="cls-4" d="M26.91,178.75c-.76,2.23-1.18,4.43-1.24,6.6-.06,2.18.27,4.05,1,5.61.73,1.57,1.93,2.72,3.59,3.47,1.66.75,3.88.85,6.63.29,2.47-.42,4.93-1,7.37-1.74,2.44-.74,4.89-1.55,7.34-2.43,2.45-.88,4.9-1.72,7.34-2.53,2.45-.81,4.91-1.42,7.38-1.85,4.38-.72,8.95-1.08,13.73-1.09,4.78,0,9.24.63,13.38,1.9,4.14,1.28,7.79,3.33,10.94,6.16,3.15,2.83,5.29,6.65,6.42,11.46,1.01,4.25,1.18,8.55.53,12.92-.65,4.37-1.96,8.59-3.94,12.64-1.98,4.05-4.53,7.87-7.65,11.43-3.12,3.57-6.62,6.63-10.48,9.19-4.65,2.89-9.44,5.06-14.36,6.5-4.92,1.44-9.91,1.81-14.94,1.11-2.24-.2-4.37-.65-6.39-1.34-2.02-.69-3.82-1.72-5.39-3.1-.76-.51-1.46-1.18-2.1-2.01-.64-.83-1.13-1.7-1.45-2.62-.06-.49,0-1.19.16-2.1.17-.91.25-1.57.27-1.99.07.07.13.25.2.53.06.28.09.57.08.85.02-.56.12-1.17.31-1.83.19-.66.44-1.23.73-1.72.29-.48.53-.74.71-.77.18-.03.29.34.34,1.12-.08.35.08.99.47,1.91.4.93.66,1.39.8,1.39.43-.13.65-.47.66-1.04.02-.56,0-1.16-.06-1.79-.05-.63-.11-1.23-.16-1.8-.05-.56.03-.95.24-1.15.14-.14.37-.04.68.28.31.32.61.69.92,1.08.3.4.66.95,1.06,1.66.07-.07.06-.37-.03-.9-.09-.53-.18-1.06-.27-1.59-.09-.53-.1-.93-.02-1.21.08-.28.39-.27.95.03.21.08.56.16,1.05.24.49.08.8.27.93.55l.23-.84c.21.08.48.29.82.66.07-.07.01-.42-.18-1.06s-.15-.95.13-.94c.27.29.48.44.62.44,2.12,1.96,4.32,3.13,6.59,3.5,2.27.38,4.78-.58,7.51-2.9,2.51-1.97,4.49-4.58,5.91-7.84,1.43-3.26,2.46-6.36,3.11-9.29.65-3.07.6-5.69-.15-7.85-.75-2.16-1.96-3.85-3.65-5.06-1.69-1.21-3.74-1.9-6.16-2.07-2.42-.17-5.01.16-7.77.99-3.12.9-6.25,1.88-9.41,2.95-3.16,1.07-6.33,2.02-9.51,2.84-3.18.83-6.36,1.44-9.54,1.84-3.17.4-6.37.35-9.58-.16-3.15-.44-6.07-1.33-8.78-2.67-2.7-1.34-5.13-3.04-7.29-5.1-2.15-2.06-3.88-4.43-5.17-7.1-1.29-2.67-2.07-5.59-2.34-8.76-.38-6.47.9-12.78,3.85-18.91,2.95-6.13,7.08-11.37,12.4-15.72,5.11-4.14,10.87-6.79,17.29-7.94,6.42-1.15,12.5-1.02,18.22.41,2.93.65,5.5,1.91,7.69,3.8,2.2,1.89,3.39,4.38,3.58,7.48.1,1.27-.07,2.53-.53,3.78-.46,1.25-1.12,2.43-2,3.53-.87,1.1-1.88,2.06-3.03,2.87-1.15.81-2.36,1.41-3.63,1.79-2.55.77-5.15.73-7.79-.11-2.65-.85-5.17-1.57-7.58-2.16-2.41-.59-4.62-.52-6.65.23-2.02.75-3.69,3.11-4.99,7.08ZM5.59,194.8c.22-.34.08-.49-.41-.43-.16.56-.02.7.41.43ZM5.84,185.74c.07.07.25-.17.55-.72.3-.55.61-1.23.95-2.03.34-.8.68-1.56,1.01-2.29.34-.73.54-1.19.62-1.4.15-.28.43-.85.84-1.72.41-.87.88-1.78,1.39-2.75.52-.97.95-1.85,1.29-2.65.34-.8.41-1.31.2-1.52-.2-.35-.56-.22-1.06.39-.51.62-1.02,1.38-1.54,2.28-.52.9-1.22,2.18-2.11,3.84-.22.2-.46.74-.73,1.61-.27.87-.52,1.8-.76,2.77-.24.98-.44,1.89-.6,2.72-.16.84-.18,1.33-.04,1.47ZM7.73,193.59c-.28-.15-.48-.29-.62-.44-.07.07.05.23.35.48.31.26.4.24.26-.05ZM11.9,169.16c-.15.28-.08.28.21,0l.54-.51c-.28-.15-.53.02-.75.51ZM12.52,188.25c.08-.49.28-1.19.59-2.09.31-.9.6-1.86.87-2.87.28-1.01.48-1.95.61-2.83.13-.87.06-1.52-.21-1.96-.31.84-.57,1.64-.81,2.4-.23.63-.42,1.22-.58,1.78-.16.56-.27.94-.35,1.15-.02.7-.06,1.46-.12,2.26-.06.81-.06,1.53,0,2.16ZM14.29,177.55c.41.29.52.19.32-.31-.42-.15-.53-.05-.32.31ZM17.72,183.13c.29-.27.42-.64.4-1.1-.02-.46,0-.79.08-1-.15.28-.25.64-.29,1.1-.05.46-.11.79-.19,1ZM18.62,188.63c-.07-.07-.06-.39.03-.95.09-.56.21-1.19.37-1.89.16-.7.32-1.32.47-1.88.16-.56.24-.91.24-1.05,0-.14.12-.63.36-1.47.23-.84.47-1.67.7-2.51s.41-1.59.54-2.25c.12-.66.12-1-.02-1-.21-.08-.44.18-.71.77-.26.59-.51,1.3-.75,2.14-.23.84-.51,2.02-.84,3.56-.16.84-.24,1.8-.24,2.89,0,1.09-.21,1.98-.65,2.67-.22.49-.2.87.07,1.16.13.29.3.47.51.54l-.08-.74ZM18.71,192.85c.44-.83.28-1.08-.51-.75.13.43.23.71.29.85.06.14.12.23.15.27.04.04.06-.08.06-.37ZM23.26,180.96c-.06-.35.08-.93.42-1.73.34-.8.71-1.63,1.12-2.5.41-.87.77-1.65,1.07-2.34.3-.69.35-1.15.14-1.37-.06-.21-.34.15-.82,1.08-.48.94-.99,2.03-1.52,3.28-.53,1.25-1.02,2.43-1.47,3.54-.45,1.11-.75,1.81-.9,2.08,0,.28-.08.82-.2,1.63-.13.81-.19,1.65-.18,2.52.01.88.09,1.65.25,2.33.16.67.38,1.01.66,1.02.19-1.82.39-3.31.6-4.46.21-1.15.4-2.22.56-3.2.17-.98.26-1.61.26-1.89ZM21.64,174.91c.21.08.35.05.42-.09.07-.14.08-.31.01-.53-.21-.08-.37-.06-.48.04-.11.1-.1.3.04.58ZM84.26,230.31l-.11.1-.22.21c.07.07.26.2.57.38.31.19.37.1.17-.26l-.41-.43ZM86.89,219c-.77.05-1.13.25-1.07.6.06.35.12.64.19.85.08-.21.28-.5.6-.88.33-.38.45-.25.36.38,0,.14-.21.58-.62,1.3-.41.73-.65,1.2-.72,1.4-.15.28-.17.51-.07.68.1.18.07.55-.08,1.1-.08.21-.16.59-.24,1.15-.08.56-.17,1.12-.26,1.68-.08.56-.15,1.07-.2,1.52-.05.46-.04.65.04.58.42-.13.86-.47,1.29-1.02.44-.55.84-1.17,1.21-1.86.37-.69.71-1.38,1.01-2.08.3-.69.49-1.21.57-1.56.15-.28.46-.64.93-1.08.47-.44.75-.84.82-1.19,0-.28-.18-.48-.56-.6-.38-.11-.4-.34-.03-.69.14-.14.42-.02.83.34.41.36.73.3.95-.18,0-.28-.27-.46-.83-.55-.56-.08-.69-.4-.39-.96.65-.61,1.15-1.02,1.51-1.22-.35-.08-.8-.27-1.35-.57,0-.28.12-.59.34-.94.22-.34.37-.62.44-.83-.06-.35-.11-.62-.14-.79-.03-.18-.06-.35-.09-.53-.03-.18-.05-.19-.05-.05l-.84-.23c-.06-.35,0-.72.19-1.1.19-.38.3-.69.34-.94.04-.24-.04-.4-.25-.48-.21-.07-.67.02-1.38.28-.42.13-.68-.04-.78-.5-.09-.46,0-.75.29-.89.35.08.7.09,1.05.03-.21-.07-.55-.3-1.04-.66-.48-.36-.94-.2-1.38.49-.15.14-.18.72-.1,1.74.08,1.02.15,1.57.22,1.64l.94.13c.06.21-.01.39-.23.52-.21.14-.43.3-.65.51-.22.2-.4.48-.55.83-.15.35-.13.77.07,1.27.2.22.34.43.4.64.13.43.13.57-.01.42-.27-.29-.41-.5-.4-.64-.28.13-.41.36-.39.67.03.32.09.63.18.95s.18.62.24.9c.06.28-.05.42-.33.41ZM95.68,209.87c.34.22.46.63.33,1.22-.12.6-.31,1.19-.58,1.78-.26.59-.54,1.16-.84,1.72-.3.55-.45.9-.45,1.04.13.57.21,1.2.26,1.9.05.7-.18,1.3-.68,1.77-.29.27-.4.55-.34.83.06.28.14.58.24.9.1.32.18.62.24.9.06.28-.05.49-.33.62.13.43.11.99-.05,1.68l-1.59.27,1.04.66c.69.44,1.08.49,1.16.14.08-.49.15-1.07.21-1.73.05-.67.3-1.27.74-1.82-.02.7-.02,1.25,0,1.63.02.39.07.72.13,1,.06.28.2.32.42.12-.14-.14-.22-.27-.25-.38-.03-.1-.08-.26-.14-.48l1.16-.07c.07-.07.15-.38.24-.94.09-.56.15-1.17.21-1.84.05-.67.07-1.3.05-1.9-.02-.6-.03-.97-.02-1.11l1.17-.49-.42-3.7c0-.14.02-.53.03-1.16s.05-1.28.11-1.95c.05-.67.09-1.24.1-1.74.01-.49-.05-.74-.19-.74-.21.07-.42.46-.61,1.19-.2.73-.41,1.55-.65,2.46.18-1.54.03-2.35-.46-2.44-.35.06-.43.27-.23.63ZM92.1,217.57c.21.08.35.08.42.01.07-.07.04-.17-.1-.32-.49-.08-.6.02-.32.31ZM92.11,220.84c-.07.07-.11.24-.12.52.34.22.66.27.94.13.07-.07.03-.3-.14-.69-.16-.39-.32-.59-.46-.59l-.23.63ZM92.36,223.27c.49.23.67-.02.55-.72-.42.13-.61.37-.55.72ZM94.01,228.06c-.06-.35-.27-.5-.62-.44-.22.35-.01.49.62.44ZM95.53,215.35c-.1,1.05-.2,2-.29,2.84-.09.84-.11,1.37-.04,1.58-.13-.28-.15-.85-.06-1.69.09-.84.22-1.75.39-2.73ZM96.26,212c-.01.42-.08.86-.19,1.31-.12.45-.22.93-.3,1.41l.5-2.73ZM96.4,206.94c-.22.2-.33.45-.34.73.07.07.14.04.21-.1.07-.14.13-.29.17-.47.04-.17.08-.31.12-.42.04-.1-.02-.02-.17.26ZM96.37,211.68c-.07.07-.09.12-.06.16.04.04.01.09-.06.16l.11-.31ZM97.72,223.73c-.35.06-.41.29-.18.68.23.39.46.49.68.28.14-.14.08-.35-.19-.64-.27-.29-.37-.4-.31-.32ZM97.92,227.64c-.37.76-.23.84.42.22.08-.49-.05-.56-.42-.22ZM104.17,219.07c.25-1.47.42-2.99.5-4.57.08-1.58-.14-3.15-.66-4.71.06.35.02,1.07-.11,2.16-.14,1.09-.33,2.22-.57,3.41-.25,1.33-.57,2.79-.97,4.4-.35.06-.43-.13-.25-.59.19-.45.21-.68.07-.68-.57.41-1.04.71-1.4.91-.36.2-.64.33-.85.4-.21.07-.21-.14.02-.63.15-.28.02-.63-.39-1.06-.2-.22-.45-.4-.72-.55-.36.34-.44.76-.25,1.26.2.5.52,1.02.96,1.56.44.54.85,1.01,1.22,1.4.38.4.53.63.45.7-.43.27-.82.43-1.17.49-.35.06-.74.23-1.17.49.29-.13.65-.14,1.11-.02.45.12.71.29.78.5.06.21-.05.42-.33.62-.29.2-.57.41-.86.61-.29.2-.56.42-.81.66-.25.24-.28.47-.07.68.21-.06.46-.16.75-.29l.85-.4-.13.94c.22-.21.65-.61,1.3-1.23.65-.61.97-.78.96-.5.08-.21.03-.33-.15-.37-.17-.04-.37-.03-.58.04.14-.14.36-.45.66-.93.29-.48.56-1.04.78-1.66.23-.63.46-1.22.68-1.77.23-.55.34-.97.35-1.25ZM99.13,222.19c.48.51.58.47.32-.1-.27-.57-.36-.82-.3-.75-.36.2-.36.48-.02.84ZM100.97,228.04c.5-.2.52-.28.06-.26-.46.02-.72.07-.79.14l-.37,1.99c-.27-.29-.52-.4-.73-.34.14,0,.26.09.36.27.1.18.2.32.3.43.1.11.19.16.26.17.07,0,.18-.21.33-.62.08-.21.12-.52.13-.94.01-.42.16-.7.44-.83ZM100.97,220.66c-.42-.15-.5-.28-.25-.38.25-.1.4.03.46.38.06.21.06.28,0,.21l-.2-.22ZM101.74,226.9c-.13-.43-.23-.6-.3-.54-.07.07-.11.21-.12.42,0,.21.04.4.14.58.1.18.22.2.37.06l-.09-.53ZM102.44,213.12c-.36.34-.66,1.11-.91,2.29-.24,1.19-.23,2,.04,2.42.14.15.28.04.43-.3.15-.35.27-.73.35-1.15.08-.42.21-1.05.37-1.89.09-.63,0-1.09-.28-1.38ZM105.06,198.76c-.01.42.19.57.62.44.01-.42-.19-.57-.62-.44ZM106.66,209.34c-.29.42-.45.97-.47,1.67-.02.7-.02,1.46-.01,2.27.01.81.04,1.57.09,2.27.05.7.07,1.27.06,1.69-.08.21-.18.75-.31,1.62-.13.88-.28,1.84-.45,2.89-.17,1.05-.27,1.99-.29,2.84-.02.84.07,1.3.28,1.38.35.08.68-.54,1-1.87.32-1.32.59-2.81.81-4.46.22-1.64.41-3.18.55-4.62.15-1.44.22-2.29.23-2.58.04-1.54.03-3.04-.03-4.48-.06-1.44-.25-2.9-.56-4.39-.07-.07-.2-.32-.4-.75-.2-.43-.4-.89-.59-1.39-.2-.5-.38-.94-.54-1.33-.16-.39-.28-.55-.35-.48-.22.35-.15,1,.21,1.96.36.96.5,1.61.42,1.96.11.99.35,1.96.71,2.92.36.96.24,1.92-.34,2.89Z"/>
    <path class="cls-4" d="M154.33,182.61c-1.01,3.16-2.57,5.94-4.67,8.34-2.11,2.4-4.55,4.33-7.32,5.81-2.78,1.47-5.76,2.49-8.96,3.05-3.2.56-6.35.56-9.46-.01-3.16-.65-6.24-1.89-9.23-3.73-2.99-1.83-5.42-3.98-7.28-6.44-1.04-1.22-1.93-2.56-2.66-4.04-.74-1.48-1.49-2.97-2.25-4.5l-1.59-4.31c-.16-.61-.11-1.11.15-1.53.26-.41.34-.88.23-1.4-.05-.08-.24-.14-.56-.17-.32-.03-.53-.13-.64-.29l-.53-1.61c-.4-1.87-.71-3.52-.92-4.92-.07-1.74-.13-3.48-.16-5.25-.03-1.76.07-3.55.3-5.37.29-3.52.86-6.96,1.69-10.3.83-3.34,2.18-6.58,4.04-9.71,1.83-2.99,4.05-5.85,6.66-8.58,2.6-2.72,5.78-4.31,9.53-4.76,1.24-.1,2.52-.23,3.84-.39,1.32-.16,2.66-.2,4.01-.14.49.03.86-.18,1.1-.63.24-.45.43-.97.59-1.55.16-.58.33-1.08.52-1.5.19-.42.5-.6.91-.51.41.08.6.38.57.87-.03.5-.07,1.03-.11,1.59-.05.56-.04,1.07.01,1.51.05.44.41.62,1.07.54.08-.05.12-.31.11-.78-.01-.47-.04-1.01-.09-1.63-.05-.62-.11-1.2-.18-1.76-.07-.55-.04-.92.07-1.12.17-.47.44-.46.81,0,.37.47.74,1.09,1.13,1.84.38.76.73,1.57,1.06,2.42.32.86.6,1.45.82,1.78l-1.46-5.46c-.16-.61-.12-.99.13-1.16.25-.16.59-.27,1.03-.32.44-.05.92,0,1.42.13.51.14.97.25,1.38.34.77.09,1.43.37,1.98.84.55.47,1.08,1.01,1.6,1.62,3.39,4.07,6.48,8.4,9.27,12.98,2.78,4.59,5.69,9.09,8.73,13.52,1.69,2.57,3.41,5.13,5.14,7.67,1.73,2.54,3.52,5.12,5.35,7.71.85,1.11,1.79,2.36,2.83,3.75,1.04,1.4,1.61,2.9,1.71,4.49.21,2.48-.42,4.65-1.87,6.5-1.46,1.85-3.3,3.3-5.52,4.35-2.23,1.05-4.6,1.63-7.14,1.76-2.54.12-4.8-.34-6.81-1.4-.06.28-.13.57-.23.87-.1.3-.15.63-.15.99ZM103.02,158.61c-.06.28-.01.93.13,1.96.15,1.03.3,2.12.46,3.27.16,1.15.3,2.63.43,4.44.08-.05.11-.69.07-1.92-.04-1.23-.1-2.58-.18-4.07-.09-1.49-.18-2.85-.29-4.09-.1-1.24-.18-1.9-.24-1.98-.08.06-.18.5-.28,1.34-.1.84-.14,1.19-.11,1.05ZM106.43,170.28c-.67-3-.96-6.2-.88-9.59.09-3.39.46-6.66,1.11-9.83.03-.14.22-.89.57-2.25.35-1.36.72-2.79,1.1-4.29.38-1.5.87-3.51,1.46-6.04-.22.03-.48.31-.77.86-.29.55-.62,1.18-.98,1.9-.36.72-.68,1.4-.96,2.06-.28.66-.43,1.06-.46,1.2-.62,1.6-1.08,3.27-1.41,5.03-.33,1.76-.56,3.52-.71,5.28-.29,3.17-.27,6.45.07,9.85.34,3.41,1.18,6.57,2.51,9.5l-.64-3.68ZM111.95,149.69c-.42,1.71-.62,3.39-.61,5.04.25-.88.39-1.75.43-2.6.03-.85.09-1.67.18-2.44ZM114.94,169.67c-.54-1.9-.93-3.85-1.17-5.83-.24-1.98-.36-3.98-.38-5.99,0-.36,0-1-.03-1.94-.02-.94-.05-1.93-.09-2.98-.04-1.05-.05-2.02-.05-2.91,0-.89.08-1.51.22-1.84-.36.36-.64,1.02-.84,1.98-.2.96-.3,1.98-.31,3.06s0,2.12,0,3.12c0,1.01.01,1.69,0,2.05.11.88.17,1.94.21,3.16.03,1.23.17,2.47.41,3.74.24,1.27.52,2.46.83,3.56.31,1.11.79,1.97,1.45,2.61l-.24-.91c-.03-.22-.05-.44-.08-.66-.03-.22-.01-.29.04-.21ZM115.59,172.27c.14-.33.08-.41-.16-.25-.5.33-.44.41.16.25ZM125.24,175.55c-2.51-5.25-3.92-10.64-4.25-16.2-.33-5.55-.05-11.18.84-16.87-1.56,2.69-2.35,5.83-2.36,9.41-.02,3.58.25,6.79.81,9.63,0,.36.23,1.34.69,2.94.46,1.6.99,3.31,1.58,5.11.6,1.81,1.17,3.4,1.71,4.76.54,1.37.9,2,1.06,1.89.11-.19.08-.41-.08-.66ZM127,170.1c.06-.27-.02-.52-.22-.75-.21-.22-.29-.4-.27-.54-.19-.47-.19-.83,0-1.07.19-.25.18-.54-.04-.87,0-.36-.22-.78-.65-1.26-.44-.48-.75-.96-.94-1.43-.33-1.21-.47-2.43-.44-3.64.03-1.21.01-2.33-.06-3.35-.11-.17-.26-.12-.46.12-.16-.25-.27-.72-.3-1.41-.04-.69-.01-1.42.07-2.19.09-.77.19-1.52.3-2.25.11-.73.17-1.27.17-1.63l1.48-6.69c.22-.74.6-1.67,1.11-2.78.52-1.11.72-2.11.62-2.99,0,.36-.27.95-.79,1.77-.53.82-.86,1.4-1,1.73-.75,1.57-1.34,3.38-1.77,5.44-.65,2.09-.99,4.19-1.03,6.29-.04,2.11.07,4.26.34,6.47.34,2.51.88,5.04,1.61,7.59.73,2.55,1.61,4.98,2.65,7.27.43,1.02.95,2.02,1.53,3,.59.98,1.25,1.94,1.99,2.88.11.17.42.55.94,1.16.52.61.85.93.99.96.14.03.13-.11-.02-.43-.15-.32-.36-.68-.63-1.1-.27-.41-.56-.85-.86-1.31-.3-.46-.58-.78-.82-.98-.3-.28-.66-.82-1.07-1.62-.41-.8-.81-1.63-1.21-2.51-.39-.87-.72-1.67-.96-2.4-.24-.73-.34-1.23-.28-1.51ZM140.36,183.6c1.16-.05,2.11-.41,2.86-1.08.75-.67,1.4-1.48,1.96-2.45.56-.96,1-2,1.34-3.11.34-1.11.63-2.11.88-2.99.48-2.34.45-4.19-.09-5.56-.54-1.37-1.38-2.99-2.49-4.87-1.56-2.54-3.1-5.12-4.65-7.73-1.54-2.61-2.94-5.23-4.19-7.85-.6-1.27-1.16-2.48-1.67-3.62-.52-1.15-1.05-2.31-1.59-3.5-.11-.17-.24-.5-.39-.99-.15-.5-.32-1.03-.53-1.61-.2-.58-.42-1.09-.65-1.53-.23-.44-.44-.72-.64-.83-.55-.11-1.1.55-1.64,1.97-.55,1.43-1.04,3.07-1.49,4.91-.45,1.84-.83,3.61-1.14,5.3-.31,1.69-.47,2.72-.47,3.08,0,.72-.02,1.59-.06,2.62-.03,1.03-.03,2.07,0,3.12.04,1.05.12,2.03.25,2.96.13.92.39,1.68.77,2.26.49.75.81,1.73.96,2.94.15,1.21.35,2.21.62,2.98.35,1.08.74,2.07,1.16,2.98.42.91.85,1.88,1.29,2.9.52.97,1.06,2.01,1.61,3.13.56,1.12,1.22,2.17,1.99,3.15.77.98,1.64,1.81,2.61,2.47.98.67,2.11.99,3.4.97ZM130.51,178.14c-.05-.08-.1-.11-.14-.08-.04.03-.09,0-.14-.08.14.03.23.08.29.17ZM134.16,131.14c-.39.5-.46,1.38-.22,2.64.24,1.27.59,2.17,1.06,2.69-.19-.47-.31-1.1-.36-1.9-.05-.8-.05-1.33,0-1.61l.25.37c-.11-.52-.27-.95-.49-1.28-.22-.33-.3-.63-.24-.91ZM135.36,137.84c-.25.52-.09.77.49.75.11-.55-.05-.8-.49-.75ZM141.91,149.4c.11.17.32.44.64.83.31.39.44.72.39.99-.25.16-.4.21-.46.12-.19.25.05.44.74.58.69.14.82.35.41.62-.42.27-.43.52-.05.74.38.22.69.32.91.29-.03.14-.15.22-.37.25.05.44.26.57.62.4.36-.18.59-.18.7-.02.27.42.47.85.59,1.3s.29.85.51,1.18c.52.61.7.97.53,1.08-.17.11-.14.33.08.66.19.47.43.31.72-.48.29-.79.4-1.33.32-1.64-.16-.61-.45-1.19-.87-1.75-.42-.55-.87-1.09-1.34-1.61-1.13-1.52-2.18-3.02-3.16-4.52-.98-1.49-1.88-3.04-2.69-4.65-.27-.41-.83-1.44-1.67-3.09-.84-1.65-1.63-3.23-2.39-4.76.36.95.64,1.93.84,2.92.2,1,.42,1.78.66,2.33,1.14,2.82,2.59,5.55,4.33,8.2ZM137.44,142.89c-.14-.03-.11.1.08.39.19.29.31.48.37.56.08-.41-.06-.73-.45-.95ZM138.17,145.09c.03.58.48,1.26,1.35,2.05.88.79,1.37,1.45,1.48,1.97.06-.63-.39-1.35-1.33-2.16-.95-.8-1.45-1.42-1.5-1.87ZM143.28,139.58c1.06,2.15,2.22,4.19,3.48,6.09.05.08.29.4.72.95.42.55.65.94.68,1.16.08-.41-.15-1.03-.69-1.86-.55-.83-.89-1.44-1.02-1.82-.52-.97-1.09-2.02-1.72-3.15-.63-1.13-1.19-2.25-1.68-3.36-.52-.97-1.07-2.3-1.65-4-.58-1.7-1.27-2.88-2.07-3.54.11.17.29.7.53,1.61.24.91.4,1.52.49,1.82l2.94,6.09ZM140.92,149.52c.03.22.15.5.37.83.22.33.46.53.74.58.28.06.21-.14-.2-.58-.41-.44-.71-.72-.9-.83ZM147.39,136.34c1.5,2.82,3.16,5.56,4.98,8.23,1.82,2.67,3.75,5.29,5.8,7.86.74.94,1.48,1.94,2.24,2.99.75,1.05,1.59,2.1,2.52,3.15.36.36.69.73,1.01,1.12.31.39.57.82.76,1.29.16.25.22.57.18.95-.04.39,0,.66.1.83.77.45,1.39.84,1.85,1.19.47.35.86.68,1.19,1,.33.32.45.51.37.56.28.06.64.47,1.09,1.25.45.77.61,1.15.47,1.12.19.11.72.42,1.59.92.86.5,1.28.82,1.25.96.19-.25-.03-.81-.67-1.7-.64-.88-1.4-1.81-2.28-2.78-.88-.97-1.73-1.9-2.55-2.78-.82-.89-1.37-1.53-1.64-1.95-1.97-2.27-3.92-4.55-5.85-6.85-1.93-2.3-3.76-4.66-5.48-7.09-1.34-1.85-2.6-3.82-3.79-5.89s-2.35-4.16-3.5-6.26c-.46-.88-.96-1.77-1.49-2.67-.53-.9-.96-1.77-1.29-2.63-.25-.55-.55-1.33-.92-2.34-.37-1.01-.77-1.66-1.21-1.97.27.77.5,1.4.69,1.86.19.47.37.92.53,1.35.16.43.27.68.33.77.6,1.27,1.22,2.53,1.86,3.77.64,1.24,1.26,2.5,1.86,3.77ZM144.78,153.22c.05.08.04.15-.04.21l.04-.21ZM160.5,172.48c.49.39.85.57,1.07.54-.11-.17-.42-.59-.92-1.27-.51-.68-1.03-1.38-1.56-2.09-.53-.72-1.05-1.33-1.56-1.83-.51-.5-.8-.72-.88-.67-.42.27-.47.69-.15,1.26.31.57.74,1.12,1.27,1.66s1.07,1.05,1.62,1.52c.55.47.92.76,1.11.87ZM159.06,163.25c.08-.41-.13-.56-.66-.46.14.39.36.54.66.46ZM158.78,161.48c.05.44.34.61.87.5-.08-.3-.37-.47-.87-.5ZM166.1,168.79c-.19-.11-.62-.54-1.29-1.29-.67-.75-1.35-1.52-2.05-2.3-.7-.79-1.36-1.48-1.99-2.08-.63-.59-.99-.87-1.07-.81-.25.16,0,.68.76,1.55.75.87,1.67,1.82,2.75,2.82,1.08,1.01,2.12,1.96,3.12,2.85,1,.89,1.62,1.43,1.87,1.62-.19-.11-.49-.48-.9-1.1-.41-.62-.81-1.04-1.19-1.27ZM161.98,166.86c.06.08.15.14.29.17-.25-.19-.62-.57-1.11-1.14-.49-.57-.71-.81-.66-.73,0,.36.2.7.59,1.04.4.33.69.56.88.67ZM163.54,160.84c.03.22.07.34.14.35.07.02.13-.11.19-.39-.38-.58-.49-.57-.33.04ZM169,167.23c.11.17.21.28.31.33.1.06.13-.02.1-.25l-.41-.08ZM169.59,171.66c-.17.11-.28.3-.33.58.11.17.23.18.37.02.14-.15.23-.33.27-.54s.05-.33.02-.37c-.03-.04-.14.06-.33.31Z"/>
    <path class="cls-4" d="M235.94,133.01c.75.2,1.37.82,1.84,1.85.48,1.04.68,2.23.59,3.58-.09,1.35-.45,2.75-1.09,4.2-.64,1.45-1.68,2.75-3.11,3.91-1.43,1.16-3.28,2.01-5.54,2.57-2.26.56-5,.54-8.23-.04-6.06-1.02-11.81-2.98-17.26-5.87-5.45-2.89-10.38-6.38-14.79-10.47l3.63,7.84c.96,2.07,1.82,4.05,2.59,5.94.77,1.89,1.23,3.12,1.39,3.71.36,1.48.56,2.97.6,4.48.04,1.51,0,3.07-.14,4.66.04.09.02.4-.06.93-.08.53-.2,1.1-.35,1.72-.15.62-.3,1.12-.44,1.52s-.31.52-.48.39c-.85-1.36-1.35-3.15-1.51-5.37-.16-2.23-.48-4.1-.96-5.63-.36-1.48-.82-2.96-1.4-4.44-.58-1.48-1.14-2.92-1.67-4.31-.21-.45-.6-1.53-1.17-3.23-.57-1.71-1.2-3.47-1.88-5.29-.68-1.82-1.37-3.42-2.06-4.79-.69-1.37-1.22-1.98-1.58-1.81-.09.04.14.84.7,2.39.55,1.55,1.19,3.28,1.91,5.19.72,1.91,1.4,3.68,2.04,5.29.64,1.62,1.02,2.56,1.15,2.83.74,2.07,1.53,4.08,2.39,6.04.85,1.96,1.54,3.97,2.06,6.03,0,.22.1.75.32,1.58.22.83.41,1.72.59,2.68.17.96.35,1.81.52,2.55s.22,1.13.13,1.17c.09-.04-.28-1.13-1.1-3.27-.83-2.13-1.75-4.53-2.75-7.18-1.01-2.65-1.95-5.09-2.82-7.31-.87-2.23-1.36-3.47-1.49-3.74-.5-1.3-1.01-2.65-1.55-4.04-.54-1.39-1.1-2.72-1.68-3.98-.2-.67-.58-1.67-1.14-3-.56-1.33-1.17-2.11-1.83-2.35.3.19.68.75,1.12,1.7.44.95.85,1.96,1.24,3.04.39,1.08.74,2.12,1.04,3.13.3,1.01.54,1.69.71,2.05.08.18.16.53.23,1.04.07.52.15,1,.25,1.45.1.45.18.82.26,1.11.08.29.21.39.4.31.28-.13.61.29,1.01,1.26.39.97.79,2.07,1.19,3.31.4,1.24.78,2.43,1.15,3.57.36,1.15.56,1.77.61,1.85.08.18.22.17.41-.03.19-.2.34.06.45.78l.9,3.03c.15.81.38,1.55.69,2.22.31.68.52,1.37.63,2.09.23.99.24,1.67.02,2.04-.22.37-.52.59-.88.66-.37.06-.73-.05-1.08-.32-.35-.27-.55-.57-.58-.88.07.62.31,1.33.74,2.12.42.79.45,1.38.08,1.77-.19.3-.4.38-.64.21-.24-.16-.49-.4-.75-.72-.26-.32-.53-.79-.82-1.42-.53-.19-.76.02-.69.65.07.62.06.96-.03,1-.29.57-.99.46-2.12-.33-1.13-.79-2.34-1.79-3.61-3.01-1.28-1.21-2.45-2.39-3.53-3.54-1.08-1.14-1.68-1.85-1.8-2.12-1.28-1.81-2.44-3.66-3.47-5.53-1.03-1.87-2.08-3.72-3.14-5.52-2.74-4.97-5.32-9.93-7.73-14.89-2.41-4.96-4.65-10.02-6.72-15.19-.83-2.02-1.75-4.3-2.76-6.85-1.01-2.54-2.03-5.08-3.04-7.62-1.01-2.54-2-5.07-2.94-7.58-.95-2.52-1.81-4.85-2.59-7.01-.2-.67-.55-1.96-1.05-3.86-.5-1.9-.94-3.86-1.33-5.87-.39-2.01-.6-3.77-.64-5.28-.04-1.51.29-2.21,1-2.1.26.1.44.37.54.82.1.45.2.97.32,1.58.12.6.2,1.2.25,1.77.05.58.16.94.33,1.08.08.18.32.1.71-.25.39-.34.61-.58.65-.71.05-.13.02-.5-.1-1.1s-.19-.95-.24-1.04c-.04-.09-.14-.35-.28-.77-.14-.43-.22-.83-.23-1.21-.01-.38.04-.68.16-.9.12-.22.35-.19.7.09-.04-.09.12.14.48.68.36.55.63.77.81.69.18-.08.26-.26.25-.53-.02-.26-.03-.53-.04-.8-.02-.27.05-.43.18-.49s.46.11.98.53c.13.05.33.23.58.55.26.32.5.48.72.49.97.21,1.72.52,2.24.93.52.42,1.15,1.06,1.88,1.92.73.87,1.4,1.79,2.02,2.76.62.97,1.24,1.92,1.88,2.82.08.18.27.48.57.88.3.41.62.86.96,1.36.34.5.77,1.18,1.27,2.04.15-.4,0-1.01-.45-1.85-.44-.83-.95-1.69-1.52-2.58-.57-.88-1.16-1.73-1.76-2.55-.6-.82-1.03-1.38-1.28-1.7-.22-.23-.64-.66-1.26-1.3-.62-.64-1.18-1.31-1.67-2.02-.49-.7-.77-1.25-.85-1.66-.08-.4.32-.48,1.21-.23,1.54.49,3.04,1.3,4.49,2.43,1.45,1.13,2.78,2.4,3.99,3.82,1.2,1.41,2.3,2.9,3.3,4.46,1,1.56,1.92,3.02,2.77,4.38,1.02,1.72,1.99,3.65,2.93,5.78.94,2.14,1.88,4.36,2.84,6.65.95,2.3,1.9,4.51,2.84,6.65.94,2.14,1.85,4.04,2.73,5.71.42.68.72.96.88.83.16-.13.43-.5.8-1.11.84-1.26,1.63-2.56,2.38-3.9.75-1.33,1.52-2.68,2.32-4.03,1.22-2.1,2.3-4.24,3.26-6.44.95-2.19,1.91-4.39,2.86-6.58.8-1.57,1.54-3.18,2.21-4.8.67-1.62,1.62-3.11,2.86-4.45.37-.39.82-.76,1.37-1.13.54-.36,1.03-.61,1.46-.76.43-.14.71-.11.86.09.15.21-.08.72-.68,1.55-.66,1.18-1.26,2.66-1.8,4.45-.54,1.79-1.1,3.36-1.67,4.72-.68,1.85-1.4,3.66-2.16,5.44-.76,1.78-1.62,3.54-2.56,5.29-.19.53-.7,1.61-1.53,3.25-.83,1.64-1.69,3.33-2.58,5.06-.9,1.73-1.74,3.27-2.54,4.62-.8,1.35-1.26,2.01-1.39,1.96.48.1,1.06-.25,1.73-1.05.67-.8,1.33-1.74,1.98-2.81.65-1.07,1.24-2.11,1.76-3.11.52-1,.89-1.73,1.13-2.17,1.31-2.14,2.39-4.47,3.24-7,.85-2.53,1.73-4.94,2.65-7.22.68-1.85,1.45-3.49,2.31-4.93.86-1.44,1.74-2.97,2.63-4.59.05-.13.2-.45.46-.95.26-.5.53-.98.81-1.44.28-.46.6-.77.96-.94.36-.17.67.02.92.56.08.18.1.56.03,1.13-.06.58-.16,1.2-.29,1.86-.13.66-.25,1.24-.35,1.72-.1.49-.11.71-.02.67.4.15.69-.16.89-.91.2-.75.44-1.46.73-2.14.29-.68.7-1.09,1.24-1.23.54-.14,1.32.43,2.35,1.7.99,1.19,1.36,2.71,1.13,4.57-.23,1.86-.59,3.45-1.07,4.77-.74,2.42-1.55,4.74-2.44,6.96-.89,2.22-1.79,4.47-2.7,6.75l-2.86,6.58c-.19.31-.49,1.02-.9,2.14-.41,1.12-.76,1.86-1.03,2.2.36-.17.73-.5,1.1-1,.37-.5.69-1.06.95-1.67.26-.61.52-1.23.79-1.84.26-.61.49-1.07.67-1.38,1.23-2.54,2.42-5.17,3.56-7.89.72-1.75,1.54-3.7,2.47-5.83.93-2.13,1.49-4.05,1.67-5.78-.04-.09-.24-.27-.58-.55.14-.17.3-.41.49-.72.14-.17.25-.34.35-.49.09-.15.18-.25.27-.29.09-.04.1.28.04.97-.07.69-.18,1.45-.33,2.29-.16.84-.33,1.66-.51,2.45-.18.8-.29,1.26-.34,1.39-.54,1.67-1.12,3.31-1.74,4.91-.63,1.6-1.27,3.22-1.94,4.84-1.09,2.37-1.99,4.51-2.69,6.42-.7,1.91-1.71,4.05-3.02,6.41,2.44,1.49,5.21,3.03,8.3,4.61,3.09,1.58,6.25,3.09,9.5,4.55,3.24,1.45,6.51,2.76,9.78,3.92,3.28,1.17,6.32,2.08,9.15,2.74ZM144.63,76.34c-.4-.14-.49,0-.28.46.08.18.21.34.39.48.22,0,.33-.12.31-.39-.02-.27-.15-.45-.42-.55ZM145.23,78.69c-.24.66-.23.93.04.8.27-.13.5-.34.69-.65-.22,0-.35-.05-.4-.15-.04-.09-.15-.09-.33,0ZM146.29,80.98c.06-.58-.09-.78-.45-.61-.04-.09.02.05.19.41.17.36.25.43.26.21ZM146.04,78.31c.04.09.05.17.03.23-.02.07-.01.15.03.23.14-.17.21-.31.21-.43,0-.11-.09-.12-.27-.04ZM146.69,71.93c-.15.4-.02.56.39.48.1-.26-.03-.42-.39-.48ZM148.1,85.24c-.37.39-.31.53.19.41.23-.44.17-.57-.19-.41ZM149.68,72.35c.45-.21.45-.32,0-.33-.31.04-.48.14-.51.32-.03.18.14.18.5.02ZM154.87,90.63c.58.06.98-.01,1.21-.23-.17-.14-.54-.21-1.09-.23-.56-.01-.59.14-.11.46ZM158.44,109.67c-.33.48-.2.75.38.81.23-.44.11-.71-.38-.81ZM160.08,112.85c.06-.57-.15-.91-.64-1.02.09-.04.23.2.41.71.18.52.26.62.22.31ZM160.32,113.72c-.09.04-.12.16-.08.36.04.2.13.41.28.61.15.21.32.34.52.42.2.07.39-.04.58-.35-.09.04-.32-.1-.69-.42-.37-.32-.57-.53-.61-.62ZM161.86,86.57c-.31-.19-.46-.17-.47.05,0,.22.08.48.28.77.19.3.4.58.64.85.24.28.38.35.43.21.14-.17.09-.51-.14-1-.23-.49-.48-.79-.74-.89ZM161.74,117.83c.03.31.21.45.52.42.1-.26-.08-.4-.52-.42ZM162.61,119.72c-.27-.1-.33,0-.21.26.12.27.25.43.39.48.22,0,.22-.24-.01-.73-.23-.49-.29-.5-.17,0ZM162.76,105.86c-.13-.05-.14.06-.01.33.13.27.23.38.32.34.1-.26,0-.49-.31-.68ZM163.12,88.94c-.42.52-.38.83.11.94.18-.08.24-.3.19-.66-.06-.36-.15-.45-.29-.27ZM163.71,121.02c.26.1.42-.03.48-.39-.4-.15-.56-.01-.48.39ZM164.23,121.44c-.28.35-.22.59.18.74.23-.21.17-.46-.18-.74ZM164.08,124.3c.03.54.36,1.01.99,1.43.63.42,1.13.44,1.5.04.41-.3.53-.63.36-.99-.17-.36-.32-.45-.46-.28l-.15.73c-.18.08-.4.02-.66-.19-.26-.21-.52-.42-.78-.62s-.47-.36-.62-.45c-.15-.09-.21.02-.18.33ZM164.48,92.58c.17.14.3.19.4.15.09-.04.09-.15.01-.33-.44-.23-.57-.17-.41.19ZM165.89,121.48c-.21-.45-.34-.39-.41.19-.06.58-.14.89-.23.93,0,.22-.14.23-.4.02-.26-.21-.4-.09-.41.35,0,.22.16.53.51.91.34.39.6.54.79.46l.04-1.33c.05-.35.1-.67.13-.96.03-.29.03-.48-.02-.57ZM166.22,94.57c-.08-.4-.34-.5-.79-.29.03.54.29.63.79.29ZM176.16,116.72c.23-.21-.08-1.17-.92-2.86-.84-1.69-1.79-3.5-2.84-5.42-1.05-1.92-2.05-3.65-2.98-5.19-.93-1.54-1.44-2.29-1.53-2.24-.18.08.16.94,1.02,2.56.86,1.63,1.84,3.39,2.94,5.29,1.1,1.9,2.11,3.67,3.04,5.32.93,1.65,1.35,2.5,1.26,2.54ZM168.21,128.95c-.13-.05-.11.11.05.47.17.36.23.38.2.07l-.25-.54ZM168.33,117.89c-.15.4,0,.6.45.61.15-.4,0-.6-.45-.61ZM170.16,123.61c.1-.26.35-.08.75.56.4.63.63.89.68.75,0-.22-.1-.69-.32-1.41-.23-.72-.49-1.47-.8-2.26-.31-.79-.65-1.81-1.01-3.06-.45.21-.64.57-.56,1.08.07.51.22,1.07.45,1.68.23.61.46,1.16.68,1.65.23.5.28.83.14,1ZM171.01,137.83c-.18.08-.09.4.27.94.36.55.63.77.81.69.09-.04-.02-.34-.34-.91-.32-.56-.57-.8-.75-.72ZM172.27,124.6c.01-.44-.18-.74-.57-.88.03.54.22.83.57.88ZM173.79,143.11c.09-.04-.09-.48-.53-1.31-.44-.83-.69-1.18-.74-1.05-.1.27.04.75.42,1.45.38.7.66,1.01.84.92ZM173.6,129.24c-.13-.05-.14.06,0,.33.13.27.23.39.32.34.05-.13-.06-.36-.31-.68ZM175.07,131.35c-.25-.54-.6-.71-1.05-.5-.14.17-.04.46.31.84.34.39.6.54.79.46.01-.44,0-.71-.04-.8ZM175.03,132.68c-.36.17-.22.41.41.71.64.31,1,.44,1.09.4-.08-.18-.31-.43-.68-.75-.37-.32-.64-.44-.82-.36ZM176.24,148.05c.21.45.32.57.32.34-.03-.53-.26-1.03-.69-1.49.04.09.05.17.03.23-.02.07-.01.15.03.23l.31.68ZM177.2,149.41c.15-.4,0-.6-.45-.61-.1.49.05.69.45.61ZM178.81,140.13c-.18.08-.21.37-.09.86.12.49.31.79.57.88.4.15.55.02.48-.39-.08-.4-.25-.84-.53-1.31-.28-.47-.53-.85-.77-1.12-.24-.27-.32-.21-.24.19.04.09.19.24.45.45.26.21.3.35.12.44ZM180.1,143.63c0,.22.17.36.52.42.1-.26.02-.55-.24-.87-.26-.32-.43-.46-.52-.42.08.18.12.33.12.44,0,.11.04.26.12.44ZM183.94,162.87c-.04-.31-.09-.56-.18-.74l-.44-.95c-.34-.5-.27-.81.23-.93.49-.12.66-.36.49-.72-.04-.09-.34-.25-.89-.49-.55-.24-.86-.45-.95-.63-.17-.14-.41-.58-.69-1.32-.29-.74-.57-1.16-.83-1.26l1.57,3.38,1.69,3.65ZM183.77,150.47c.04.09-.03-.18-.21-.81-.18-.63-.44-1.3-.77-2.02-.33-.72-.67-1.39-1.01-2-.34-.61-.6-.87-.78-.79.41,1.12.77,2.02,1.09,2.7.31.68.63,1.3.94,1.86.32.57.56.92.74,1.05ZM181.81,117.22c.01-.44-.07-.51-.26-.21-.19.31-.28.57-.29.79.3.19.49,0,.55-.58ZM183.28,157.92c-.26-.1-.42-.19-.46-.28-.06.58.15,1.03.63,1.35.28-.35.22-.7-.17-1.07ZM184.74,151.5c-.48-.32-.7-.22-.68.31.4.15.62.04.68-.31ZM184.98,152.37c-.54.25-.63.7-.27,1.36.36.66.67.92.94.79.18-.08.2-.5.07-1.26-.13-.76-.38-1.05-.74-.89ZM185.34,144.65c-.17-.14-.2-.07-.07.2.13.27.21.45.25.54.22,0,.22-.24-.01-.73-.23-.49-.29-.5-.17,0ZM186.72,156.49c.18-.08.09-.4-.27-.94-.36-.54-.63-.77-.81-.69-.18.08-.09.4.27.94.36.55.63.77.81.69ZM186.95,164.76c.05-.35-.18-.33-.7.08-.52.41-.65.66-.39.75.17.14.4.09.67-.15.27-.24.41-.47.42-.69ZM188.88,160.09c.09-.04.03-.23-.18-.57-.21-.34-.47-.71-.77-1.12-.3-.41-.66-.95-1.08-1.63-.18.08-.19.36-.02.83.16.47.36.96.59,1.45.23.5.48.93.76,1.29.28.36.51.5.69.42-.08-.18-.08-.4.02-.67ZM192.45,93.41c-.14.18-.4.68-.78,1.51-.38.83-.53,1.34-.44,1.52l1.65-3.88-.43.85ZM194.02,116.98c-.22,0-.25.17-.08.53.17.36.28.36.33,0l-.25-.54ZM193.87,90.45c.43-.96.97-2.04,1.63-3.22.66-1.18,1.02-2.28,1.1-3.3-.15.62-.5,1.41-1.04,2.37-.54.96-.86,1.69-.96,2.17l-.72,1.98ZM200.73,90.72c-.13-.05-.41.41-.84,1.38-.43.97-.91,2.06-1.43,3.29-.53,1.23-1.04,2.43-1.54,3.59-.5,1.16-.82,1.94-.97,2.34-.05.13-.19.53-.44,1.19-.24.66-.23.93.04.8.18-.08.57-.78,1.16-2.1.59-1.31,1.21-2.75,1.86-4.31.65-1.56,1.2-2.96,1.66-4.22.46-1.25.62-1.9.49-1.95ZM196.77,116.53c.12.27.33.23.6-.12.14-.17.26-.39.35-.66-.18.08-.42.17-.71.25-.29.08-.37.26-.25.53ZM196.95,87.54c-.22,0-.27.12-.15.4.12.27.3.41.52.42.23-.44.11-.71-.38-.81ZM197.79,108.83c.03.31.21.45.52.42.1-.26-.08-.4-.52-.42ZM198.47,108.51c1.69-2.97,3-5.44,3.95-7.42.95-1.97,1.79-3.92,2.54-5.86.75-1.93,1.04-3.3.89-4.11.02.76-.42,2.06-1.31,3.89-.9,1.84-1.86,3.73-2.87,5.68-1.01,1.95-1.88,3.69-2.59,5.22-.71,1.54-.92,2.4-.61,2.58ZM200.96,89.46c-.19.31-.24.55-.15.73.27-.13.43-.42.49-.89.06-.46.13-.72.22-.76-.28.35-.46.65-.56.92ZM209.68,85.25c.05-.13.1-.13.17,0,.06.14.11.3.15.5.04.2.05.41.05.63,0,.22-.03.29-.07.2-.22,0-.34-.2-.35-.58-.01-.38,0-.63.06-.77Z"/>
    <path class="cls-4" d="M299.98,120c-.03,1.57-.49,2.86-1.37,3.86-.88,1-2.01,1.8-3.39,2.39-1.38.59-2.94.92-4.68,1-1.75.08-3.4-.06-4.96-.4-.88-.14-1.95-.56-3.2-1.26-1.26-.7-2.22-.79-2.89-.27-1.74,2.1-3.85,4.09-6.33,5.96-2.49,1.87-5.29,3.14-8.41,3.8-6.12,1.39-11.47,1.42-16.04.1-4.58-1.33-8.49-3.51-11.73-6.56-3.24-3.04-5.88-6.67-7.92-10.87-2.04-4.2-3.48-8.46-4.31-12.78-.49-2.24-.98-4.48-1.48-6.72-.49-2.24-.7-4.57-.62-6.98,0-3.33.19-6.69.59-10.1.39-3.4,1.53-6.59,3.41-9.57.23-.28.59-.68,1.11-1.2.51-.52,1.02-.97,1.53-1.34.51-.37.9-.54,1.16-.52.27.02.17.47-.28,1.34-.13.25-.3.8-.5,1.64s-.43,1.72-.66,2.63c-.24.91-.48,1.71-.73,2.41-.25.7-.47,1.08-.66,1.14-.1.03-.19-.1-.28-.38-.03-.09-.03-.25,0-.47-.13.25-.24.49-.32.72-.08.24-.14.46-.18.68l.71-.22c0,.31.02.57.08.76.12.38.21.51.28.38.09-.03.21-.32.35-.89.14-.56.29-1.16.46-1.78.17-.62.34-1.17.5-1.64.17-.47.37-.64.62-.51-.12-.06-.11-.28.04-.64.15-.36.31-.77.47-1.24.17-.47.35-.89.54-1.26.2-.37.34-.57.44-.6-.03-.09.05-.33.25-.7.2-.37.42-.73.68-1.07.26-.34.53-.56.81-.64s.49.06.6.44c.21.66.23,1.23.06,1.7.36-.53.94-1,1.75-1.4.81-.41,1.33-.23,1.57.52.03.1-.07.36-.3.8-.23.44-.01.55.65.34l.2-.84c.44.07.79.53,1.06,1.39.27.85.51,1.82.75,2.89.23,1.07.42,2.11.58,3.1.15.99.29,1.68.41,2.06.23-.28.4-.54.53-.79.13-.25.23-.41.32-.49.08-.08.15-.18.22-.3.08.91.2,1.81.37,2.69.17.88.33,1.72.47,2.51.23,1.07.61,2.38,1.15,3.93.54,1.55.67,2.89.4,4.01-.1.34.09,1.04.57,2.08.48,1.05.73,1.93.75,2.65.06.19-.02.45-.23.77-.21.33-.37.66-.47,1-.1.34-.12.61-.06.8.06.19.34.26.84.2.09-.03.07-.18-.06-.45-.14-.27-.05-.4.27-.4.44.07.87.61,1.29,1.63.42,1.02.83,2.16,1.23,3.44.4,1.28.79,2.51,1.16,3.7.37,1.19.63,2.02.78,2.49l1.54,3.42.41.81c-.25-.13-.43-.2-.54-.22-.11-.02-.12.12-.03.4.12.38.31.5.58.36.27-.14.43-.11.49.08.06.19-.03.32-.27.4-.24.07-.5.13-.8.17-.3.04-.55.07-.76.08-.21.01-.24.05-.12.12-.12-.06.14.11.79.53.65.42.79.69.41.81.18.26.41.5.69.72.43.39.67.47.7.25-.03-.09-.09-.36-.17-.8-.09-.44-.11-.61-.08-.52-.31,0-.56-.14-.75-.39-.05-.5.21-.48.8.06.31.32.57.66.78,1,.27.54.59,1.06.96,1.57.37.51.73,1.02,1.1,1.53.86,1.09,1.8,2.01,2.82,2.79,1.02.77,2.36,1.16,4.03,1.16.75.08,1.9-.07,3.45-.45,1.54-.38,3.02-.89,4.43-1.54,1.41-.65,2.55-1.42,3.41-2.32.86-.89,1.07-1.9.62-3-1.38-3.42-2.82-6.95-4.32-10.59-1.5-3.64-2.91-7.31-4.22-11.01-1.31-3.7-2.4-7.44-3.28-11.23s-1.29-7.61-1.25-11.47c-.01-1.04.08-2.24.28-3.6.2-1.36.57-2.68,1.11-3.94.54-1.26,1.27-2.35,2.18-3.26.91-.91,2.08-1.43,3.49-1.56.38-.12.63.19.76.93.13.74.18,1.58.16,2.52s-.04,1.88-.05,2.83c-.02.94-.03,1.57-.04,1.88.21,3.68.74,7.36,1.58,11.05.59,3.56,1.45,7.3,2.57,11.21,1.12,3.92,2.39,7.63,3.8,11.14.12.38.4,1.36.84,2.94.44,1.58,1.01,3.15,1.7,4.7-.52-.67-1.06-1.39-1.61-2.15-.55-.76-.79-1.36-.72-1.8-.14.56.09,1.3.69,2.2.6.91,1.18,1.79,1.76,2.65.03.1.11.18.23.24l.09.28c.06.19.14.27.23.24l.31,1c-.03-.09-.02-.15.03-.16.05-.01.06-.07.03-.16.57,1.17,1.07,1.75,1.48,1.72-.78-2.15-1.4-3.88-1.86-5.19-.46-1.31-.88-2.56-1.25-3.75-.37-1.18-.6-1.92-.69-2.2-1.02-2.59-1.95-5.14-2.78-7.64-.83-2.5-1.62-5.09-2.35-7.77-.82-2.97-1.67-6.24-2.52-9.82-.86-3.58-1.18-7.02-.96-10.31,0-.31,0-.81,0-1.48,0-.67.03-1.39.11-2.14.08-.75.2-1.44.37-2.07.17-.62.38-1.03.64-1.21.32-.31.57-.41.76-.32.19.1.38.3.58.6.2.3.36.64.48,1.02.12.38.19.62.22.71.04-.53.07-1.19.08-1.98.01-.78.5-.81,1.46-.07.5.26.92.36,1.27.31.35-.05.81.19,1.4.73.25.13.66.71,1.24,1.72.58,1.02,1.2,2.1,1.87,3.24l2.65,4.48c.28-.09.36-.27.22-.54-.14-.27-.28-.56-.43-.88-.15-.32-.3-.61-.43-.88-.14-.27-.06-.45.22-.54.38-.12.97.69,1.77,2.41.8,1.73,1.59,3.67,2.36,5.82.78,2.15,1.47,4.2,2.08,6.14.61,1.94.92,3.12.95,3.53.05.51,0,.7-.13.59-.14-.11-.31-.32-.51-.62-.2-.3-.44-.72-.71-1.26-.24-.76-.48-1.54-.73-2.35-.25-.8-.61-1.61-1.06-2.4-.03-.09-.19-.51-.47-1.26-.29-.74-.55-1.52-.8-2.32-.25-.8-.49-1.56-.71-2.27-.22-.71-.32-1.17-.28-1.4-.1.03-.21.09-.33.18-.13.09-.24.15-.33.18.14,1.1.51,2.63,1.12,4.57.61,1.94,1.22,3.91,1.84,5.9.62,1.99,1.19,3.79,1.69,5.4.5,1.61.75,2.57.75,2.89-.05.85.3,2.04,1.04,3.58.74,1.54,1.24,2.73,1.51,3.59.06.19.3.79.72,1.8.42,1.01.86,2.1,1.33,3.25.46,1.16.85,2.23,1.16,3.23.31,1,.42,1.51.32,1.54.29-.4.22-1.37-.2-2.9-.43-1.53-.93-3.14-1.51-4.83-.58-1.69-1.04-3.24-1.37-4.64-.34-1.4-.22-2.19.35-2.37.09-.03.36.64.79,2.02.43,1.38.91,2.92,1.44,4.62.53,1.71,1.04,3.34,1.53,4.91s.82,2.47,1.01,2.73c1,1.87,1.69,4.08,2.07,6.61.38,2.54.62,4.83.74,6.87ZM227.13,95.17c-.04.54.02.65.18.33.16-.31.17-.54.01-.71-.06-.19-.12-.06-.2.37ZM231.13,110.93c.23-.28.21-.48-.04-.61-.42.34-.4.54.04.61ZM233.23,76.72c.13-.25.1-.5-.08-.76-.18-.25-.34-.26-.47,0-.04.22-.02.42.04.61.12.38.29.43.52.15ZM233.09,84.26c.13-.25.17-.47.11-.66,0-.31-.09-.21-.29.32-.2.53-.14.64.18.33ZM233.1,73.8c.28-.09.47-.41.56-.96.09-.55.2-.94.33-1.2-.39.43-.64.8-.75,1.09-.12.3-.21.56-.3.8-.08.24-.03.32.16.26ZM233.29,80.91c.35-.21.35-.37,0-.47-.48.46-.48.62,0,.47ZM234.16,92.19c.32-.31.23-.59-.27-.85-.39.43-.3.72.27.85ZM234.91,100.07c.16-.15.31-.43.44-.84.13-.4.09-.63-.13-.66-.47-.17-.61-.02-.41.44.2.46.33.63.39.5-.07.13-.22.3-.46.53-.24.23-.19.24.16.03ZM237.51,107.38c.25.13.42.18.52.15.22.04.27.02.14-.04-.12-.06-.28-.15-.47-.24-.19-.1-.34-.15-.44-.17-.11-.02-.03.09.25.31ZM238.58,92.84c.13-.25.32-.54.58-.88.26-.34.31-.59.16-.75-.35.21-.51.53-.49.93l-.25.7ZM239.27,93.56c.15.48.35.46.61-.04-.15-.47-.35-.46-.61.04ZM240.85,82.61c-.26.5-.43.97-.5,1.4.06.19.21.01.46-.53.24-.54.42-1.15.53-1.8.11-.66.13-1.26.06-1.81-.07-.55-.39-.74-.96-.56-.38.12-.54.27-.48.46.06.19.17.39.34.6.17.21.35.38.56.53.2.15.29.17.26.08-.1.34-.17.63-.2.84-.07.13-.07.28,0,.47.03.1.01.21-.05.33ZM240.46,75.4c.47-.15.57,0,.3.45-.28.45-.35.71-.23.77l-.18-.57c-.12-.38-.08-.6.11-.66ZM243.21,89.68c-.43-.38-.72-.56-.86-.51-.14.04-.19.14-.15.28.04.14.14.29.3.45.15.16.32.21.52.15l.2-.37ZM242.34,88.39c.18.25.32.21.43-.13-.4-.29-.54-.24-.43.13ZM242.42,91.64c-.07.44.08.76.45.95.22.04.25-.21.08-.73-.16-.52-.34-.6-.54-.22ZM243.05,95.66c-.07.13,0,.18.21.17.2-.01.43-.03.68-.06.25-.02.44-.08.57-.18.13-.09.13-.17,0-.24-.43-.38-.8-.4-1.11-.04-.31.36-.43.47-.36.35ZM243.42,93.35c.15.16.13.4-.08.73-.21.33-.14.54.2.64.44.07.65-.25.63-.98-.02-.72-.31-1-.88-.82-.19.06-.15.2.13.43ZM244.59,99.08c-.07.44.08.6.46.48.29-.4.14-.56-.46-.48ZM245.11,101.26c.06.19.22.04.48-.46.16-.15.3-.35.44-.6-.25-.13-.53-.04-.85.27-.32.31-.34.58-.06.8ZM246.59,102.98c-.22-.03-.39.18-.51.63-.12.45,0,.42.36-.11l.15-.52ZM246.37,104.76c.09.28.35.46.79.53.44.07.74.03.9-.12-.09-.28-.42-.49-.98-.63-.56-.14-.8-.06-.71.22ZM247.83,106.96c.29-.4.24-.54-.13-.43-.39.43-.34.58.13.43ZM249.12,111.08c.43.39.58.34.43-.13-.31-.32-.45-.27-.43.13ZM274.55,96.58c.09.28.28.75.59,1.38.3.64.61,1.29.93,1.97.32.68.6,1.35.86,2,.25.65.36,1.08.33,1.3.13-.25.09-.7-.12-1.37-.21-.66-.46-1.39-.76-2.18-.3-.79-.61-1.53-.92-2.21-.32-.68-.52-1.16-.61-1.45-.47-1.52-.92-3.02-1.33-4.5-.41-1.48-.85-2.98-1.33-4.5-.31-1.67-.7-3.5-1.17-5.49-.46-1.99-.86-3.81-1.17-5.49-.06-.19-.19-.59-.38-1.21-.19-.62-.37-1.26-.53-1.94-.16-.68-.31-1.33-.46-1.96-.15-.63-.22-1.1-.21-1.42-.27.81-.16,2.08.33,3.8.48,1.72.74,2.94.76,3.67.25,1.48.65,3.15,1.18,5.02.53,1.86.94,3.58,1.22,5.16.38,1.55.81,3.1,1.3,4.67.49,1.56.99,3.15,1.49,4.76ZM268.46,67.58c-.1.03-.11.14-.05.33l.09.28c.16-.15.15-.36-.04-.61ZM287.05,108.59c.6,1.27,1.11,2.46,1.51,3.59.4,1.12.83,2.24,1.28,3.35.06.19.27.62.64,1.28.36.67.75,1.4,1.16,2.21.41.81.79,1.52,1.14,2.14.35.62.49.99.43,1.12.13-.25.03-.81-.3-1.7-.33-.88-.74-1.88-1.24-2.97-.5-1.09-.97-2.11-1.43-3.07-.45-.95-.74-1.62-.86-2l-4.53-12.01c-.6-1.58-1.17-3.17-1.72-4.77-.55-1.6-1.08-3.2-1.58-4.81l-2.4-7.68c-.06-.19-.16-.6-.31-1.23-.15-.63-.33-1.3-.55-2.01s-.42-1.35-.6-1.92-.39-.92-.64-1.05c-.12-.06-.13.17-.01.71.11.54.29,1.18.53,1.94.17.88.42,1.85.75,2.89.41,1.64.83,3.25,1.28,4.83.44,1.58.91,3.17,1.42,4.79l6.05,16.37ZM278.71,88.41c.46.48.62.48.47,0-.15-.16-.29-.25-.4-.27-.11-.02-.13.07-.08.26ZM279.75,108.22c.64,1.05.99,1.83,1.04,2.33-.12-.06-.2-.14-.23-.24l-.13-.43c-.1.03-.17-.05-.23-.24l-.09-.28c-.12-.06-.2-.14-.23-.24-.06-.19-.08-.34-.06-.45.02-.11,0-.26-.06-.45ZM280.46,93.01c.2-.37.2-.69.02-.94-.19.06-.3.3-.32.72-.02.42.08.5.3.22ZM281.18,94.82c.11-.66,0-.99-.31-1-.03-.09,0,.1.11.59.1.49.17.62.2.4ZM281.05,111.87c-.15-.16-.15.02.01.54.16.52.25.63.25.31l-.27-.85ZM282.2,65.63c-.22.28-.45.14-.68-.41-.23-.55-.42-.91-.57-1.07.25.13.51.31.79.53.56.45.71.77.45.95ZM281.99,96.91c-.25-.13-.31,0-.2.37.12.38.23.4.33.05l-.13-.43ZM282.48,76c.03.1,0,.1-.07.02-.08-.08-.13-.17-.16-.26l-.09-.28c-.16.16-.17.55-.02,1.18.14.63.33,1.3.55,2.01s.48,1.39.79,2.02c.3.64.47,1,.5,1.09l3.24,10.38,4.28,12.71c.09.28.27.96.55,2.01.28,1.06.58,2.19.9,3.39.32,1.2.66,2.29,1.02,3.27.36.98.72,1.57,1.1,1.76-.1.03-.25-.39-.47-1.26-.22-.87-.45-1.86-.7-2.98-.25-1.12-.49-2.14-.72-3.05-.23-.91-.38-1.47-.44-1.66-.59-1.9-1.18-3.69-1.76-5.38-.58-1.69-1.17-3.48-1.76-5.38-.85-3.06-1.88-6.36-3.09-9.88-1.21-3.52-2.42-6.76-3.66-9.7ZM282.89,99.28c-.22-.03-.28.11-.17.44.1.33.22.38.35.12l-.18-.57ZM283.91,90.06c-.16.16-.37.48-.63.98.38-.12.78-.32,1.21-.61.43-.29.43-.63,0-1.01-.38.12-.57.33-.58.65ZM283.73,69.52c-.28.09-.34.58-.17,1.46l.11-.66c-.03-.09-.03-.17,0-.24.03-.06.03-.14,0-.24-.03-.09-.01-.2.05-.33ZM284.14,85.31c-.12-.06-.14.04-.05.33.06.19.07.4.04.61.32-.31.33-.62.02-.94ZM285.04,87.68c-.1.03-.11.14-.05.33.03.1.01.21-.05.33.23-.28.26-.5.11-.66ZM285.34,89.15c-.12-.06-.16,0-.1.19.06.19.1.33.13.43.16-.15.15-.36-.04-.61ZM287.41,94.28c-.03-.09-.13-.5-.31-1.23-.18-.73-.45-1.03-.83-.91-.19.06-.21.33-.06.8.15.48.34,1.01.58,1.61.24.6.6,1.35,1.09,2.23.09-.03.03-.48-.19-1.35-.22-.87-.31-1.25-.28-1.16ZM289.32,85.41c.47-.15.77-.03.89.35-.45.24-.74.13-.89-.35ZM291.32,91.8c-.12-.38-.05-.66.2-.84.28-.09.44.07.46.48.02.41-.04.69-.2.84-.28.09-.44-.07-.46-.48Z"/>
    <path class="cls-4" d="M335.45,80.57c-.79-1.07-1.21-2.56-1.24-4.47-.04-1.91-.14-3.66-.32-5.24-.18-1.58-.66-2.71-1.43-3.38-.78-.67-2.24-.26-4.4,1.23-1.09.7-1.83,1.79-2.22,3.27-.39,1.48-.59,3.05-.6,4.72s.08,3.34.28,5.02c.2,1.68.35,3.12.46,4.31.16,1.48.22,2.94.17,4.36-.05,1.42-.05,2.88.02,4.38-.06.21-.12.58-.19,1.09-.06.52-.14,1.08-.23,1.7-.09.62-.14,1.19-.15,1.69-.01.51.04.8.16.88.17.38.19,1.1.08,2.18-.11,1.08-.27,2.19-.47,3.34-.2,1.15-.37,2.21-.49,3.19-.13.98-.13,1.56,0,1.74-.27-.35-.43-1.26-.48-2.71-.06-1.45-.06-3.02,0-4.69.06-1.67.13-3.25.22-4.73.09-1.48.11-2.36.06-2.66-.02-1.81-.07-3.97-.16-6.48-.09-2.5-.54-4.59-1.34-6.27.12.69.16,1.76.12,3.23-.04,1.47-.07,2.46-.08,2.96.08,1.6.18,3.15.29,4.64.11,1.49.22,3.09.32,4.79l-.17,2.45c-.09.62-.16,1.22-.21,1.78-.05.56-.17.91-.34,1.04.39-.07.71-.28.95-.62.15,1.99.23,3.84.23,5.56.05,1.41.05,2.71.01,3.93-.04,1.22-.1,1.88-.18,2-.16.23-.33,0-.5-.67-.17-.67-.35-1.25-.53-1.72.22.67.24,1.62.05,2.86-.18,1.24-.28,2.12-.29,2.62-.04-.2-.12-.53-.26-1.01-.14-.48-.3-.95-.48-1.43-.19-.47-.33-.87-.44-1.21-.11-.33-.21-.44-.29-.33.08-.11.07.14-.02.76-.09.62-.15.88-.16.79.18.47.24.64.16.5-.08-.14-.06.09.04.67l.44-.08c.17.37.1.99-.2,1.85-.3.86-.59,1.36-.87,1.51-.18.13-.47-.4-.89-1.58-.41-1.19-.83-2.55-1.25-4.09-.42-1.54-.79-3.01-1.08-4.42-.3-1.41-.48-2.26-.53-2.55-.44-1.33-.79-2.74-1.05-4.2-.26-1.47-.56-2.87-.9-4.23-.02-.1-.12-.51-.29-1.23-.18-.72-.36-1.47-.55-2.25-.19-.77-.4-1.84-.64-3.21-.18.13-.25.45-.21.95.04.5.11,1.04.21,1.63.1.59.22,1.12.36,1.6.13.48.21.77.23.87l1.43,8.07,1.28,5.52c.07.39.11.89.11,1.49,0,.6,0,.81-.04.61.07.39.28.86.63,1.4.35.54.61,1,.77,1.38.22.67.41,1.32.57,1.94.16.63.29,1.23.4,1.82.18.47.31,1.05.38,1.75.07.69-.31.96-1.14.81-.31-.05-.6-.25-.86-.6-.27-.36-.51-.72-.72-1.08-.22-.37-.38-.72-.49-1.05-.11-.33-.21-.49-.31-.47-.39.07-.47.64-.23,1.7.24,1.07.53,1.72.88,1.96-3.55-.68-6.42-2.19-8.59-4.53-2.18-2.34-3.92-5.08-5.24-8.23-1.31-3.15-2.31-6.48-2.98-9.99-.67-3.51-1.28-6.78-1.81-9.81-.89-4.48-1.76-8.97-2.61-13.46-.84-4.49-1.36-8.99-1.56-13.49-.31-2.87.04-5.78,1.03-8.73.99-2.95,3.03-4.8,6.13-5.55-.06.21-.17.48-.31.81-.15.33-.2.59-.16.79.06-.21.23-.29.49-.24.26.06.32.5.16,1.33-.06.21-.13.55-.2,1.02-.07.47-.16.96-.27,1.48-.19.64-.31,1.37-.37,2.18.88-.16,1.53-.75,1.95-1.78.42-1.03.71-1.96.87-2.8.11-.52.24-1.08.39-1.66.15-.58.53-.87,1.13-.88.82.06,1.26.31,1.34.75.08.44.34.77.78,1,.21.06.42-.07.61-.41.19-.34.45-.43.78-.29l1.8.74,3.23,2c.79.47,1.43.98,1.94,1.55.5.57,1.05,1.1,1.64,1.6.97-1.38,1.85-2.65,2.66-3.8.8-1.15,1.66-2.16,2.57-3.03.91-.86,1.96-1.61,3.16-2.22,1.2-.61,2.63-1.07,4.3-1.37,3.42-.61,6.83-.32,10.21.84,3.38,1.17,6.16,3.07,8.35,5.71,2.3,2.72,3.49,6.04,3.58,9.96.09,3.92-.56,7.41-1.93,10.48-.43.98-1.18,2.3-2.25,3.95-1.07,1.65-2.3,3.11-3.69,4.36-1.39,1.26-2.82,1.99-4.3,2.2-1.48.21-2.88-.57-4.2-2.36ZM300.26,50.94c.02.1-.06.26-.22.49.04.2.09.24.17.12.08-.11.16-.25.23-.42.07-.16.1-.27.09-.32,0-.05-.1,0-.28.12ZM303.18,88.85c-.06.21.05.29.35.24.29-.05.43-.13.41-.22-.23-.16-.48-.17-.76-.02ZM304.45,90.89c.08-.11-.06-.32-.41-.61-.35-.29-.39-.21-.11.25l.52.36ZM304.84,93.09c-.24.35-.15.58.28.71.21-.54.11-.78-.28-.71ZM305.49,94.19c-.53-.11-.68,0-.47.31.21.32.37.52.48.6.24-.35.24-.65,0-.91ZM305.43,95.56c.02.7.07,1.25.14,1.64.19,1.08.43,1.59.73,1.54.19-.03.17-.58-.07-1.65-.24-1.07-.51-1.57-.8-1.52ZM306.57,99.44c-.55.3-.59.66-.11,1.08.48.42.76.57.84.46.06-.21.07-.44.03-.69-.04-.24-.08-.46-.12-.66.26.36.66.59,1.18.7.52.11.67-.17.46-.84-.22-.67-.56-.91-1.04-.72-.47.19-.89.41-1.24.67ZM308.1,105.53c.23.16.36.06.4-.3.04-.36-.01-.78-.15-1.26-.14-.48-.32-.95-.55-1.41-.23-.46-.46-.73-.67-.79.1-.02.18.17.25.56.07.39.14.81.22,1.25.08.44.15.86.22,1.25.07.39.16.63.28.71ZM309.51,106.64c-.09-.49-.24-.76-.45-.83-.33-.14-.43.13-.31.81.12.69.31.9.57.66-.03-.19-.03-.3.02-.31.05,0,.1-.12.17-.33ZM309.85,101.74c-.75.34-.71.53.1.59.16-.23.13-.42-.1-.59ZM310.25,109.99c.4.53.7.96.91,1.28.21.32.4.56.58.73.18.17.25.11.19-.19-.03-.19-.3-.7-.8-1.52-.5-.82-.85-1.26-1.07-1.32-.03.41.03.75.18,1.03ZM312.41,115.35c.55-.3.52-.49-.1-.59-.55.3-.52.5.1.59ZM312.42,113.69c.16-.23.08-.42-.25-.56-.05.31.04.5.25.56ZM313.01,87.11c-.07-.39-.18-.42-.32-.09.05.29.16.33.32.09ZM312.93,96.05c-.3.56-.15.88.48.98l-.13-.73c-.07-.39-.19-.47-.35-.24ZM313.19,89.8c.05.29.1.28.15-.03l-.15.03ZM314.93,104.77c-.23-.16-.39-.18-.47-.07-.08.12-.06.26.08.44.04.2.17.38.4.53.45-.28.45-.58,0-.91ZM315.48,108.76c.17.38.43.43.79.16-.25-.26-.51-.31-.79-.16ZM321.07,94.16c.03-.41.04-1.07.03-1.97,0-.91-.05-1.83-.11-2.78-.07-.95-.19-1.8-.38-2.58-.19-.77-.45-1.28-.8-1.52l-.03,1.52c-.05.31-.03.66.03,1.05l.08.44.86,9.98c0,.6.07,1.27.2,2.01s.23,1.47.32,2.21c.08.74.07,1.42-.02,2.05-.09.62-.31,1.11-.65,1.48.19-.03.34.09.44.38.1.28.19.62.25,1.01.07.39.14.78.21,1.17.07.39.11.64.13.73.06-.21.21-.54.43-.98.22-.44.37-.77.43-.98.08-.11-.02-.53-.29-1.23s-.34-1.23-.2-1.55c.23-1.55.18-3.28-.16-5.19s-.6-3.65-.77-5.23ZM321.32,111.81c.55-.3.52-.49-.1-.59-.55.3-.52.5.1.59ZM321.6,113.43c.49-.09.55-.32.18-.71s-.6-.52-.68-.41c-.08.12-.07.34.04.67.11.34.26.48.46.45ZM322.53,110.99c-.12-.08-.32.06-.61.41-.29.35-.21.39.25.11l.36-.52ZM322.49,79.99c-.13.43-.08.72.16.88.06-.21.14-.48.24-.8s-.04-.35-.39-.08ZM337.23,76.92c-.21-.06-.28.3-.19,1.09.09.79.24,1.22.45,1.28.13.18.23.03.3-.43.07-.47.13-.98.18-1.54.05-.56.04-1.34-.04-2.34-.06.21-.15.61-.25,1.18-.1.57-.26.83-.47.76ZM341.71,74.01c.05.29,0,.56-.16.79.04.2.1,0,.2-.57.1-.57.09-.64-.04-.22ZM341.96,72.91c.02.1.08.01.18-.26.1-.27.2-.59.28-.96.09-.37.15-.71.2-1.02.04-.31.02-.46-.08-.44-.41-.03-.61.39-.61,1.24,0,.86,0,1.34.03,1.43ZM347.06,68.38c.08-.11-.02.18-.3.88-.28.71-.32,1.04-.12,1.01.39-.07.68-.55.88-1.44.19-.89.18-1.42-.05-1.58-.24.35-.38.72-.4,1.13Z"/>
    <path class="cls-4" d="M399.19,106.07c-2.46,2.24-5.19,3.87-8.21,4.89-3.02,1.02-6.1,1.48-9.25,1.37-3.14-.11-6.24-.72-9.29-1.83s-5.78-2.69-8.19-4.73c-2.42-2.14-4.46-4.76-6.14-7.84-1.68-3.08-2.71-6.16-3.09-9.22-.29-1.57-.39-3.19-.29-4.83.1-1.65.2-3.32.3-5.02l.77-4.52c.16-.61.46-1.02.9-1.25.43-.22.73-.59.9-1.1,0-.1-.14-.24-.4-.42-.26-.18-.4-.37-.41-.57l.35-1.66c.59-1.83,1.14-3.4,1.66-4.73.8-1.54,1.63-3.08,2.48-4.62.85-1.54,1.83-3.04,2.94-4.5,2.01-2.9,4.22-5.6,6.61-8.08,2.39-2.48,5.17-4.61,8.35-6.39,3.08-1.68,6.43-3.04,10.05-4.11,3.62-1.06,7.16-.85,10.63.63,1.13.53,2.3,1.06,3.53,1.58s2.4,1.15,3.54,1.88c.41.27.84.27,1.27,0,.43-.27.86-.62,1.28-1.05.42-.42.82-.77,1.21-1.04.38-.27.73-.27,1.05.01.31.28.34.63.06,1.04-.27.42-.57.85-.89,1.32-.32.47-.57.91-.74,1.31-.18.41.04.74.66,1.01.1,0,.26-.21.48-.63.22-.41.47-.9.73-1.46.27-.56.51-1.1.72-1.61.22-.51.42-.82.62-.93.38-.32.61-.19.7.41.08.59.1,1.31.05,2.16-.05.85-.15,1.73-.29,2.63-.15.9-.21,1.56-.18,1.95l1.47-5.46c.16-.61.39-.92.69-.94.3-.02.65.06,1.06.24.41.18.8.45,1.17.83.37.38.71.7,1.03.98.62.46,1.06,1.03,1.3,1.71.24.68.43,1.42.58,2.2.91,5.22,1.42,10.51,1.54,15.88.12,5.37.39,10.72.81,16.07.18,3.07.39,6.15.62,9.21.23,3.07.49,6.19.78,9.35.18,1.38.37,2.94.58,4.67.2,1.73-.05,3.31-.76,4.75-1.06,2.25-2.68,3.82-4.87,4.69-2.19.88-4.5,1.21-6.95,1.01-2.45-.2-4.8-.88-7.06-2.04-2.26-1.16-3.99-2.7-5.2-4.61-.19.21-.4.42-.63.63-.24.21-.45.47-.62.78ZM363.84,71.46c.92-2.94,2.26-5.85,4.03-8.75,1.77-2.89,3.72-5.54,5.87-7.96.09-.1.63-.66,1.62-1.66.98-1,2.02-2.06,3.09-3.17,1.08-1.11,2.5-2.61,4.28-4.51-.21-.09-.57.03-1.1.36-.53.33-1.13.72-1.8,1.15-.67.44-1.29.87-1.86,1.3-.57.43-.9.7-1,.81-1.33,1.07-2.57,2.29-3.74,3.66-1.16,1.36-2.25,2.77-3.26,4.22-1.84,2.6-3.46,5.46-4.86,8.57-1.41,3.12-2.26,6.28-2.57,9.48l1.28-3.51ZM366.72,59.65c-.19.21-.47.8-.86,1.77-.39.97-.8,1.99-1.24,3.06-.44,1.07-1.05,2.43-1.85,4.06.1,0,.44-.55,1.02-1.63.58-1.08,1.21-2.28,1.87-3.62.67-1.33,1.26-2.56,1.79-3.69.53-1.12.79-1.74.79-1.84-.1,0-.4.35-.91,1.02-.51.68-.71.96-.62.86ZM370.78,77.77c.29-.22.28-.32-.02-.3-.59.04-.59.14.02.3ZM371.53,75.18c.48-1.92,1.12-3.8,1.9-5.63.79-1.84,1.67-3.63,2.66-5.38.18-.31.49-.87.94-1.7.45-.82.92-1.7,1.41-2.62.49-.92.96-1.77,1.42-2.55.45-.77.82-1.27,1.11-1.48-.49.13-1.06.56-1.71,1.3-.65.74-1.25,1.57-1.79,2.49-.54.93-1.06,1.83-1.55,2.7-.5.88-.83,1.47-1.01,1.78-.35.82-.82,1.77-1.4,2.84-.58,1.08-1.09,2.23-1.51,3.45-.43,1.22-.78,2.39-1.06,3.5-.28,1.11-.3,2.11-.05,2.99l.24-.91c.09-.2.17-.41.26-.61.09-.2.13-.25.14-.16ZM378.91,56.39c-1.22,1.27-2.23,2.62-3.04,4.06.66-.64,1.21-1.31,1.67-2.04.45-.72.91-1.4,1.37-2.02ZM377.51,85.42c.45-5.8,1.92-11.18,4.41-16.16,2.49-4.97,5.54-9.71,9.15-14.2-2.69,1.56-4.94,3.88-6.75,6.97-1.81,3.09-3.17,6.01-4.1,8.75-.18.31-.47,1.27-.87,2.89-.4,1.62-.8,3.36-1.18,5.22-.39,1.87-.69,3.52-.9,4.98-.21,1.46-.22,2.18-.02,2.17.19-.11.28-.32.26-.61ZM381.76,81.59c.19-.21.25-.46.18-.76-.07-.29-.06-.49.04-.6.07-.5.25-.81.54-.93.29-.12.43-.37.4-.77.18-.31.2-.78.06-1.42-.14-.64-.17-1.21-.1-1.71.32-1.21.81-2.34,1.44-3.37.63-1.03,1.17-2.01,1.62-2.93-.01-.2-.16-.24-.46-.12-.02-.3.13-.75.44-1.37.31-.62.7-1.24,1.16-1.86.46-.62.92-1.22,1.39-1.8.46-.57.78-1.02.97-1.33l4.62-5.05c.57-.53,1.35-1.15,2.35-1.86,1-.71,1.68-1.47,2.03-2.28-.18.31-.71.69-1.57,1.14-.87.45-1.45.78-1.73,1-1.43.98-2.85,2.26-4.25,3.83-1.6,1.49-2.95,3.14-4.03,4.94-1.09,1.81-2.07,3.73-2.94,5.77-.96,2.35-1.75,4.81-2.4,7.38-.64,2.58-1.09,5.12-1.34,7.62-.13,1.1-.19,2.23-.17,3.37.02,1.14.11,2.31.28,3.49.01.2.09.69.24,1.48.15.79.27,1.23.38,1.32.1.09.17-.03.2-.39.03-.35.03-.77,0-1.27-.03-.5-.06-1.02-.09-1.56-.03-.54-.11-.96-.22-1.26-.12-.39-.16-1.03-.12-1.93.04-.9.12-1.82.21-2.77.09-.95.21-1.8.37-2.56.15-.76.32-1.24.51-1.45ZM380.78,90.3c0-.1-.03-.15-.08-.14-.05,0-.08-.04-.08-.14.1.09.16.19.17.29ZM386.58,99.95c1.03.54,2.03.7,3.01.49.98-.21,1.95-.59,2.92-1.14.96-.55,1.87-1.23,2.71-2.03.85-.8,1.6-1.51,2.26-2.15,1.58-1.79,2.48-3.41,2.69-4.86.21-1.45.3-3.28.27-5.46-.08-2.98-.13-5.98-.16-9.02-.03-3.03.06-6,.29-8.9.11-1.4.23-2.72.36-3.98.12-1.25.25-2.53.37-3.83-.01-.2.04-.55.16-1.05.12-.5.24-1.06.35-1.66.11-.6.18-1.15.2-1.65.02-.5-.03-.84-.14-1.04-.42-.37-1.22-.08-2.41.89-1.19.97-2.44,2.14-3.75,3.51-1.31,1.37-2.52,2.71-3.64,4.02-1.12,1.31-1.76,2.12-1.94,2.43-.36.62-.81,1.37-1.36,2.24-.54.88-1.06,1.78-1.55,2.7-.49.92-.91,1.82-1.26,2.69-.35.87-.5,1.65-.46,2.34.05.89-.16,1.9-.64,3.02-.48,1.12-.8,2.09-.95,2.89-.23,1.11-.39,2.16-.48,3.16-.09,1-.2,2.05-.33,3.15-.04,1.1-.09,2.27-.16,3.52-.07,1.25-.03,2.49.15,3.72.17,1.23.52,2.38,1.03,3.45.51,1.07,1.33,1.91,2.46,2.54ZM403.93,65.49c-.27.51-.22,1.33.15,2.45.37,1.12.46,1.94.29,2.44.37-.52.34-1.36-.08-2.53-.42-1.17-.54-1.96-.37-2.37ZM404.09,70.71c-.09.21-.12.51-.1.9.02.4.14.69.35.87.21.19.25-.01.11-.6-.14-.59-.26-.98-.37-1.17ZM404.39,63.23c-.11-.09-.15.03-.13.38.02.35.03.57.04.67.28-.32.31-.66.09-1.05ZM405.01,71.1c.01.2.06.54.14,1.04.08.49.02.85-.16,1.05-.3.02-.45-.02-.46-.12-.29.12-.18.41.35.87.52.47.54.71.04.74-.5.03-.63.24-.41.62.22.39.43.62.64.71-.09.11-.24.11-.45.03-.18.41-.06.63.34.65.4.03.61.14.62.34.03.5-.02.97-.14,1.43s-.17.88-.15,1.28c.15.79.12,1.19-.08,1.2-.2.01-.29.22-.26.61-.07.5.22.49.86-.05.64-.54,1.01-.96,1.1-1.26.17-.61.21-1.26.12-1.95-.09-.69-.21-1.38-.36-2.07-.22-1.88-.38-3.71-.49-5.49-.11-1.78-.11-3.58,0-5.37-.03-.49,0-1.67.1-3.51.1-1.85.2-3.62.31-5.32-.16,1.01-.4,1.99-.73,2.95-.32.97-.53,1.75-.6,2.35-.42,3.01-.53,6.1-.34,9.27ZM405.11,57.81c-.48.33-.46.62.05.89.37-.42.35-.72-.05-.89ZM407.42,51.4c-.58.24-1.09.96-1.51,2.18-.43,1.22-.57,2.17-.43,2.86.07-.5.28-1.11.64-1.83.35-.72.62-1.18.81-1.39l.03.45c.17-.51.24-.96.22-1.36-.02-.4.06-.7.24-.91ZM405.59,75.84c0,.1-.04.15-.14.16l.14-.16ZM409.59,100.37c.23.58.45.92.66,1.01-.01-.2-.07-.72-.17-1.56-.1-.84-.2-1.7-.3-2.59-.1-.89-.25-1.68-.44-2.36-.19-.68-.34-1.02-.43-1.02-.5.03-.75.37-.76,1.02-.01.65.08,1.34.27,2.07.19.73.41,1.44.65,2.13.24.68.41,1.12.53,1.31ZM411.11,63.27c-.16,2.4-.17,4.74-.03,7.02,0,.1.05.5.15,1.19.09.69.09,1.14,0,1.34.28-.31.39-.97.33-1.96-.06-.99-.05-1.69.02-2.09.03-1.1.06-2.29.08-3.59.02-1.29.1-2.54.22-3.74.03-1.1.22-2.52.56-4.29.34-1.76.34-3.13-.02-4.1.01.2-.1.75-.35,1.66-.24.91-.41,1.52-.49,1.82l-.49,6.74ZM412.95,91.67c.28-.32.17-.56-.34-.73-.08.4.04.65.34.73ZM413.67,96.25c0,.1.06.2.17.29-.12-.29-.25-.81-.39-1.54-.14-.74-.21-1.06-.21-.96-.18.31-.18.71,0,1.19.18.49.32.83.43,1.02ZM413.6,89.99c-.18.41,0,.7.5.87.08-.3-.09-.59-.5-.87ZM416.28,99.97c-.11-.19-.27-.78-.48-1.76-.21-.98-.42-1.99-.63-3.02-.21-1.03-.44-1.96-.69-2.79-.25-.83-.42-1.24-.52-1.24-.3.02-.34.59-.12,1.72.22,1.13.54,2.41.97,3.82.43,1.42.86,2.76,1.28,4.03.42,1.27.69,2.05.81,2.34-.11-.19-.19-.66-.23-1.4-.04-.74-.18-1.31-.4-1.69ZM416.29,62.52c-.11,3.19-.04,6.4.2,9.61.24,3.22.61,6.46,1.1,9.71.17,1.18.32,2.42.44,3.7.13,1.29.33,2.62.61,3.99.13.49.23.98.31,1.47.08.49.08.99.01,1.49.02.3-.09.6-.32.91-.23.31-.34.57-.33.77.44.77.78,1.42,1.01,1.95.23.53.41,1.02.53,1.46.12.44.14.66.04.67.21.19.32.73.32,1.62,0,.9-.05,1.3-.15,1.2.11.19.42.72.92,1.59.5.87.7,1.35.61,1.46.29-.12.38-.72.27-1.81-.12-1.09-.31-2.27-.58-3.55-.28-1.28-.55-2.5-.82-3.68-.27-1.18-.42-2.01-.45-2.51-.57-2.95-1.12-5.9-1.65-8.86-.53-2.95-.93-5.91-1.2-8.88-.24-2.27-.35-4.61-.34-6.99s.04-4.78.09-7.17c.04-1,.05-2.02.04-3.06-.01-1.04.05-2.02.2-2.92.06-.6.19-1.43.37-2.48.18-1.06.16-1.82-.06-2.31-.15.81-.26,1.46-.33,1.96-.07.5-.14.98-.21,1.43-.07.45-.11.73-.1.83-.12,1.4-.21,2.8-.27,4.19-.07,1.4-.16,2.8-.27,4.19ZM417.88,104.21c-.2.01-.39.12-.58.33.01.2.11.27.31.21.19-.06.36-.17.5-.33.14-.16.21-.26.21-.31,0-.05-.15-.01-.44.1ZM418.03,91.81c-.09.21-.11.33-.05.38.05.05.17-.03.36-.25-.04-.69-.14-.74-.31-.13ZM419.57,100.08c.01.2.04.35.1.44.05.1.13.04.21-.16l-.32-.28Z"/>
    <path class="cls-4" d="M431.1,101.86c-.55-1.55-.89-3.23-1.02-5.03-.13-1.81-.13-3.63,0-5.46.12-1.83.3-3.66.52-5.49.22-1.82.42-3.58.58-5.26.06-1.69.22-4.69.48-9.01.26-4.31.63-9.22,1.1-14.71.47-5.49,1.07-11.22,1.79-17.19.72-5.97,1.57-11.55,2.57-16.74.99-5.19,2.16-9.62,3.51-13.28,1.34-3.66,2.86-5.91,4.53-6.75,2.2-1.09,5.04-1.84,8.52-2.26,3.48-.42,7.14-.64,10.99-.67,3.84-.03,7.57.15,11.17.54,3.6.39,6.68.86,9.22,1.4,3.7.95,7.4,2.45,11.09,4.5,3.7,2.05,6.97,4.61,9.82,7.67,2.85,3.07,5.08,6.57,6.71,10.51,1.62,3.95,2.2,8.29,1.75,13.04-.07.69-.16,1.11-.27,1.25-.11.14-.24.2-.39.19s-.29-.05-.44-.12c-.14-.06-.28.05-.41.34-.12.19-.09.37.1.53.18.17.34.36.47.57.13.21.16.44.08.68-.08.24-.32.44-.73.6-.52.25-.8.55-.83.89-.03.35-.17.76-.42,1.23,0,.1-.16.34-.44.71-.29.37-.57.77-.86,1.19-.29.42-.58.79-.85,1.12-.28.32-.47.48-.57.47-.5-.05-1.08.12-1.77.51-.69.38-1.4.79-2.14,1.22-.22.18-.67.46-1.35.84-.69.38-1.4.79-2.14,1.22-.74.43-1.64.99-2.71,1.69.38.24,1.08.15,2.12-.25,1.03-.4,2.11-.92,3.22-1.56,1.11-.64,2.12-1.29,3.03-1.96.91-.66,1.43-1.14,1.56-1.42-.02.2,0,.35.03.45.04.1.05.26.03.45.11-.09.26-.17.47-.25.33-.27.48-.3.46-.11.07.31-.35.79-1.26,1.45-.91.66-1.9,1.32-2.96,1.96-1.06.65-2.49,1.48-4.28,2.51,1.84,1.57,3.71,3.17,5.6,4.8,1.89,1.63,3.63,3.49,5.23,5.59s3.01,4.53,4.24,7.29c1.23,2.76,2.07,6.01,2.51,9.74.39,3.23.49,6.43.28,9.6-.2,3.17-.9,6.35-2.1,9.53-1.41,3.26-3.65,5.86-6.73,7.81-3.08,1.95-6.22,3.47-9.41,4.57-5.9,2.23-11.78,3.49-17.64,3.78-5.86.29-11.9.04-18.11-.75-3.34-.52-6.65-1.13-9.92-1.84-3.28-.71-6.57-1.52-9.87-2.44-1.36-.43-2.76-.86-4.22-1.3-1.46-.44-2.82-1.02-4.1-1.74s-2.44-1.63-3.48-2.73c-1.04-1.1-1.84-2.47-2.38-4.12ZM433.69,90.43c.2.02.34-.39.42-1.23.08-.84.02-1.27-.18-1.29-.1,0-.21.41-.34,1.24-.13.84-.1,1.26.1,1.28ZM433.9,86.56c-.1,0-.14-.06-.13-.16l.04-.44c-.08.79-.05.99.09.61ZM434.23,80.01c-.08-.21-.15.01-.21.65-.06.64-.03.82.1.53l.11-1.19ZM434.46,79.13c.17-.78.06-1.14-.35-1.08-.04.4-.02.75.05,1.05-.02.2,0,.32.04.38.04.06.13-.06.26-.35ZM434.53,76.89c.05.51.11,1.23.17,2.19.06.96.06,1.93.02,2.92-.04.99-.08,1.89-.11,2.68-.03.8-.04,1.24-.05,1.34-.02.2,0,.6.04,1.2.04.6.11,1.21.2,1.81.09.61.15,1.06.17,1.36.02.3.06.21.1-.29.26-4.86.59-9.6.98-14.2.39-4.6.91-9.27,1.56-13.99.88-8.2,1.67-16.5,2.37-24.91.7-8.41,2.17-16.55,4.42-24.42.28-.87.36-1.66.23-2.37-.13-.71-.36-.43-.68.83-.56,1.64-.95,3.4-1.17,5.27-.23,1.87-.53,3.74-.91,5.6-.5,3.15-.97,6.22-1.4,9.22-.44,3-.9,6.08-1.4,9.22l-2.73,23.98c-.23,1.38-.41,2.73-.54,4.06-.13,1.33-.26,2.69-.39,4.08-.02.2-.05.57-.11,1.11-.05.54-.1,1.09-.16,1.63-.05.54-.15,1.01-.28,1.4-.14.39-.25.48-.32.27ZM439.88,28.47c0,.1-.05.57-.13,1.41-.08.84-.17,1.83-.28,2.97-.11,1.14-.24,2.27-.4,3.4-.16,1.13-.32,1.99-.47,2.57.16-.68.35-1.56.55-2.64.2-1.08.38-2.16.53-3.24.15-1.08.24-2.05.28-2.89.03-.84,0-1.37-.07-1.58ZM442.63,57.76c.03-.3.1-.76.21-1.4.11-.64.2-1.33.27-2.07.07-.74.13-1.41.19-2s0-1.05-.17-1.36c.08.21.07.58-.03,1.12-.1.54-.21,1.13-.32,1.77-.11.64-.22,1.23-.32,1.77-.1.54-.16.86-.17.96-.32,2.27-.56,4.51-.72,6.74-.16,2.23-.41,4.52-.73,6.89-.03.3-.15,1.61-.37,3.93-.22,2.32-.46,4.8-.71,7.42-.25,2.62-.4,5.03-.46,7.21-.06,2.19.06,3.3.36,3.33.38-3.95.63-7.17.77-9.65.14-2.48.28-4.81.44-6.99.16-2.18.25-3.47.29-3.86.22-2.27.43-4.57.66-6.9.22-2.32.49-4.62.8-6.88ZM440,72.78c-.07-.31-.15-.01-.23.88.02-.2.06-.34.12-.44.06-.09.1-.24.12-.44ZM440.66,23.46c-.07-.31-.12-.26-.16.13-.04.4-.07.69-.08.89.02-.2.08-.37.2-.5.11-.14.13-.31.05-.52ZM441.75,18.32c.03-.3,0-.25-.09.14-.09.39-.15.79-.19,1.18.12-.19.19-.41.21-.65.02-.25.04-.47.06-.67ZM442.63,13.77c-.09-.11-.16.13-.22.73l-.08.89c.33-.37.43-.91.3-1.62ZM445.61,35.9c.03-.3.1-.84.23-1.62.12-.79.26-1.67.4-2.66.14-.98.25-1.9.33-2.74.08-.84.04-1.52-.11-2.03.06.41.03,1.03-.1,1.86-.13.84-.29,1.69-.47,2.57-.18.88-.36,1.69-.53,2.42-.17.73-.27,1.25-.3,1.54-.03.3-.17.98-.42,2.06-.25,1.07-.46,2.23-.63,3.46-.17,1.23-.3,2.37-.4,3.4s0,1.67.27,1.9c-.09-.11-.06-.68.09-1.71.15-1.03.35-2.14.61-3.31.26-1.17.49-2.27.69-3.3.2-1.03.31-1.64.33-1.84ZM446.93,61.31c.09-.99.29-2.22.58-3.69.29-1.47.28-2.72-.02-3.74.14.61.04,1.63-.29,3.04-.34,1.42-.53,2.42-.59,3.01-.38,1.86-.66,3.75-.84,5.68-.18,1.93-.37,3.88-.56,5.86-.07.69-.19,2.23-.36,4.6-.18,2.38-.34,4.86-.48,7.44-.15,2.58-.24,4.89-.29,6.93-.04,2.04.04,3.02.24,2.94.2.02.35-.79.46-2.43.1-1.64.2-3.45.29-5.43.09-1.99.17-3.9.25-5.74.07-1.84.14-3,.18-3.5l1.43-14.98ZM447.22,22.14c-.08-.21-.18-.24-.29-.1-.11.14-.18.36-.21.65-.03.3-.03.57,0,.82.02.25.14.39.33.41.46-.65.52-1.25.17-1.78ZM447.64,17.69c-.17.78-.28,1.39-.32,1.84-.04.45-.08.84-.11,1.19-.03.35,0,.52.1.53.1,0,.21-.68.35-2.06.13-1.38.3-2.61.5-3.69-.15.49-.26.92-.35,1.31-.09.39-.14.69-.16.88ZM451.06,25.79c-.02.2-.12.99-.3,2.37-.18,1.38-.37,2.86-.57,4.44-.2,1.58-.36,2.98-.48,4.22-.12,1.24-.13,1.86-.03,1.87-.1,0-.04-.58.16-1.71.21-1.13.47-2.57.79-4.34.32-1.77.65-3.7,1-5.82.35-2.11.66-4.1.94-5.97.28-1.87.46-3.52.55-4.96.08-1.44.05-2.36-.11-2.78.07.31.02,1.1-.15,2.38-.17,1.28-.4,2.66-.69,4.12-.29,1.47-.54,2.82-.76,4.04-.22,1.23-.33,1.94-.35,2.14ZM491.36,92.93c3.79-2.03,6.28-4.36,7.47-7,1.2-2.63,1.66-5.18,1.4-7.65-.27-2.47-1.05-4.71-2.35-6.73-1.3-2.02-2.57-3.44-3.79-4.25-2.63-1.75-5.46-3.14-8.51-4.18s-6.16-1.88-9.34-2.53c-3.18-.65-6.4-1.18-9.65-1.59-3.25-.41-6.35-.85-9.3-1.33-.57,6.03-1.3,12.12-2.19,18.27-.88,6.15-1.34,12.52-1.37,19.1,3.35.42,7.07.6,11.17.54,4.09-.06,7.97-.21,11.64-.46,3.67-.25,6.89-.59,9.67-1.02,2.78-.43,4.49-.82,5.12-1.16ZM466.91,16.53c-.5-.05-1.06-.12-1.7-.24-.64-.11-1.25-.19-1.85-.25-.59-.06-1.12.02-1.59.22-.47.21-.74.65-.8,1.35-.32,3.36-.69,6.69-1.1,10-.42,3.3-.69,6.69-.82,10.17-.08.79-.07,1.27.01,1.42.08.16.53.23,1.33.2,2.88.08,5.76-.02,8.63-.3,2.87-.27,5.76-.52,8.67-.75,2.13-.4,4.29-.79,6.47-1.18,2.18-.39,4.31-1.03,6.39-1.94.74-.43,1.64-1.04,2.72-1.84,1.07-.8,1.98-1.68,2.72-2.66.74-.98,1.21-2,1.42-3.08.2-1.08-.15-2.11-1.05-3.09-1.71-1.96-3.79-3.43-6.24-4.41-2.45-.98-5.05-1.7-7.8-2.16-2.75-.46-5.46-.77-8.14-.92-2.68-.15-5.11-.34-7.28-.54ZM491,40.07c-.52.25-1.08.4-1.69.44-.6.04-1.17.19-1.69.44-.4-.04-.72.18-.96.66.57.26,1.42.28,2.54.09,1.12-.19,1.99-.46,2.62-.8.52-.25,1.28-.85,2.27-1.8.99-.95,1.74-1.55,2.27-1.8-.82.22-1.7.61-2.66,1.17-.95.56-1.85,1.1-2.7,1.61ZM492.8,99.8c1.33-.37,2.66-.97,3.99-1.79,1.32-.82,2.59-1.77,3.79-2.86-2.19.99-4.34,1.83-6.45,2.53-2.11.7-4.21,1.54-6.3,2.54.88.18,1.67.21,2.39.08.71-.13,1.57-.3,2.59-.5ZM495.79,36.93c.41-.16.84-.42,1.27-.78,0-.1-.17-.07-.53.1-.37.17-.73.33-1.09.49-.37.17-.81.42-1.34.77-.02.2.29.13.92-.21.31-.07.57-.19.78-.37ZM509.61,107.08c.32-.27.8-.57,1.43-.91.63-.34,1.27-.73,1.91-1.17.64-.44,1.24-.95,1.79-1.55.55-.59.91-1.19,1.07-1.77-.27.77-1.07,1.5-2.38,2.17-1.31.67-2.4,1.37-3.27,2.08-.96.71-2.02,1.33-3.17,1.87-1.15.54-2.3,1.15-3.47,1.84-.21.08-.7.26-1.47.53-.77.28-1.58.6-2.41.97-.83.37-1.62.74-2.35,1.12-.74.38-1.11.62-1.12.72,0,.1.29.08.9-.06.61-.14,1.28-.33,2-.56.72-.23,1.41-.44,2.08-.63.67-.18,1.05-.32,1.16-.41,2.69-1.04,5.12-2.45,7.29-4.24ZM496.92,95.85c.11-.09.39-.21.86-.37.46-.15.93-.33,1.4-.54.47-.2.91-.39,1.32-.55.41-.16.57-.29.49-.4-.09-.11-.34-.08-.75.08-.42.16-.86.34-1.32.55-.47.21-.92.44-1.34.7-.42.26-.64.44-.65.54ZM499.88,42.71c-.51.15-.98.33-1.4.54-.42.21-.9.49-1.43.84-.22.18-.17.23.13.16.31-.07.67-.21,1.09-.42.42-.21.81-.45,1.19-.71.37-.26.51-.4.41-.41ZM504.91,46.48c-.73.33-1.31.6-1.72.81-.42.21-.76.38-1.02.5-.26.12-.29.15-.08.07-.43.36-1.18.66-2.26.91-1.07.25-1.73.61-1.97,1.08,1.43-.36,2.71-.74,3.85-1.13.94-.41,1.75-.81,2.43-1.19.68-.38.94-.73.77-1.05ZM501.58,101.83c.82-.22,1.44-.51,1.88-.87-.5-.05-1.12.24-1.88.87-.76.63-1.39,1.02-1.91,1.17.3.03.63-.11,1.01-.43.38-.31.67-.56.89-.74ZM500.49,108.61c1.21-.08,2.28-.4,3.23-.96.95-.56,1.86-1.19,2.73-1.91.11-.09-.1,0-.62.24-.52.25-1.18.56-1.96.94-.78.37-1.52.75-2.2,1.14-.69.38-1.08.57-1.18.56ZM501.12,42.23c-.42.16-.53.35-.35.56.71-.13.99-.45.84-.97l-.49.4Z"/>
    <path class="cls-4" d="M528.83,121.95c-1.88-1.63-3.09-3.86-3.64-6.67-.55-2.81-.78-5.82-.69-9,.09-3.18.39-6.29.91-9.33.52-3.04.94-5.54,1.27-7.5.7-5.03,1.44-10.03,2.23-14.99.79-4.96,1.82-9.9,3.1-14.8.54-2.02,1.21-4.46,2-7.34.79-2.88,1.66-5.81,2.62-8.8.96-2.99,1.93-5.9,2.92-8.74.98-2.83,1.92-5.17,2.84-7,1.02-2.32,2.24-4.52,3.66-6.59,1.42-2.08,3.08-3.92,4.96-5.54.38-.32,1.14-.82,2.31-1.48,1.16-.66,1.98-.68,2.46-.07.23.35.21.76-.04,1.21-.25.45-.58.92-.99,1.38-.41.47-.79.92-1.14,1.35-.35.43-.41.82-.18,1.18.05.22.32.15.81-.2.48-.35.96-.78,1.43-1.29.47-.51.93-.99,1.39-1.45.46-.46.74-.73.86-.8.45-.21.78-.21.99-.01.21.2.35.48.42.86.07.37.08.91.03,1.61.7.05,1.16-.05,1.37-.31.21-.26.71.11,1.51,1.1.8.99,1.5,2.08,2.1,3.28.6,1.2,1.17,2.42,1.71,3.66,1.01,2.36,1.63,4.71,1.88,7.05.25,2.34.25,4.76,0,7.25-.09,1.81-.42,4.08-.96,6.8-.55,2.73-1.16,5.52-1.84,8.37-.68,2.85-1.38,5.59-2.12,8.23-.73,2.64-1.35,4.86-1.85,6.69-1.16,4.32-2.34,8.56-3.56,12.72-1.22,4.15-2.55,8.36-4,12.62-.47,1.22-.9,2.6-1.29,4.14-.39,1.54-.82,3.13-1.28,4.75-.46,1.63-.96,3.22-1.51,4.78-.55,1.56-1.1,2.94-1.67,4.13-.18.37-.6,1.01-1.26,1.93-.66.92-1.4,1.85-2.22,2.79-.82.94-1.63,1.75-2.44,2.44-.81.68-1.52,1.01-2.12.98.12-.08.09-.29-.09-.63-.18-.34-.39-.65-.64-.9-.25-.26-.48-.46-.7-.61-.22-.15-.28,0-.17.42.01.41-.36.71-1.11.9-.75.19-1.17.48-1.26.87-.09-.53-.14-1-.15-1.41-.01-.41-.13-.79-.36-1.15-.04.19-.07.44-.09.74-.02.3-.09.54-.23.71-.12.99-.18,1.28-.19.87-.01-.41-.12-.64-.31-.68-.01.51-.06.95-.14,1.34-.21.97-.67,1.43-1.37,1.38-.82.02-1.29-.36-1.42-1.15s-.28-1.51-.44-2.16c.04-.2.15-.78.31-1.76.16-.98.15-1.49-.04-1.54-.1-.02-.14-.31-.11-.86.02-.55.04-1.13.08-1.74.03-.6.08-1.18.15-1.72.07-.54.12-.91.17-1.11.32-3.29.74-6.6,1.27-9.94.53-3.34,1.1-6.62,1.71-9.84.35-2.06.73-4.13,1.14-6.23.41-2.1.89-4.15,1.43-6.17.27-.75.61-1.62,1.03-2.6.42-.98.71-1.85.88-2.63.06-.29-.04-.52-.31-.68-.27-.16-.3-.47-.1-.94l.76-1.36c.15-.68.19-1.33.12-1.96-.07-.62-.01-1.32.16-2.1.04-.19.19-.87.45-2.04.26-1.16.5-2.41.74-3.73.24-1.32.54-3.06.92-5.21-.2-.04-.48.68-.86,2.18-.38,1.49-.8,3.16-1.25,4.99-.46,1.83-.9,3.49-1.32,4.97-.43,1.48-.69,2.21-.79,2.19-.29-.06-.28-.7.04-1.9.31-1.2.69-2.54,1.12-4.03.43-1.48.83-2.87,1.22-4.15.38-1.29.45-2.06.21-2.32.07.12-.02.53-.27,1.24-.26.71-.54,1.51-.83,2.41-.3.9-.59,1.75-.87,2.55-.28.8-.43,1.25-.45,1.35-.33,1.05-.66,2.17-.97,3.37-.32,1.2-.4,2.38-.24,3.53.12-.07.31-.36.57-.87.26-.5.32-.87.17-1.11.29.06.37.41.23,1.04-.14.63-.39,1.31-.76,2.05-.41.93-.87,1.89-1.4,2.9l.58.13c.25.26.2,1.06-.15,2.41-.35,1.35-.67,2.24-.97,2.68-.26,1.16-.54,2.35-.86,3.55-.32,1.2-.56,2.45-.74,3.73-.22,1.48-.5,2.97-.83,4.47-.33,1.5-.57,3.05-.72,4.65-.08.8-.08,1.97,0,3.51.07,1.54-.18,2.66-.74,3.35l-.73-.16c.07.62.19,1.11.37,1.45.18.34.23.92.16,1.71-.01.51-.09.64-.24.4-.15-.24-.35-.28-.58-.13-.12.08-.22.51-.29,1.31-.08.8-.12,1.7-.14,2.71-.02,1.01-.03,1.95-.01,2.82.01.87.06,1.36.13,1.48.02-.1.08-.46.17-1.11.09-.64.18-1.28.27-1.92.09-.64.25-1.49.49-2.56.05,2.55.06,4.59.03,6.11-.03,1.52-.06,2.91-.08,4.18-.03,1.26-.09,1.89-.18,1.87-.49-.11-.99-.37-1.5-.79ZM530.24,106.55c.19.04.28-.01.27-.17-.02-.16-.08-.32-.2-.5-.11-.18-.22-.28-.32-.3-.1-.02-.13.12-.1.44l.34.53ZM530.33,109.62c-.02.1,0,.21.08.32-.41.01-.39-.29.05-.9l-.13.58ZM536.51,72.55c-.08-.12-.16.02-.24.4l-.13.58c.24-.15.36-.48.37-.99ZM539.13,92.49c-.06-.21-.06-.42-.02-.61-.12.08-.21.26-.27.55-.06.29.03.31.29.06ZM539.74,88.36c.15.24.28.34.39.31.11-.03.08-.16-.07-.4-.13-.33-.23-.48-.28-.44-.06.04-.07.21-.04.52ZM540.91,110.73c.16-.27.11-.48-.16-.65-.16.27-.11.49.16.65ZM541,83.3c.19.04.36-.12.49-.5.13-.38.1-.59-.09-.63-.2-.04-.36.13-.49.5-.14.38-.11.59.09.63ZM542.07,106.87c.21-.05.37-.27.45-.66.08-.39.09-.64.01-.76.07.12-.17.55-.74,1.29-.57.74-.66,1.15-.27,1.24l.55-1.1ZM541.55,80.82c.19.04.43-.44.7-1.45.27-1.01.32-1.58.15-1.72-.34.64-.58,1.14-.72,1.52-.14.38-.24.74-.31,1.07-.07.34-.02.53.18.57ZM542.04,82.76c-.53.09-.56.23-.1.44.41-.01.44-.16.1-.44ZM543.47,102.6c.15.24.35.23.61-.02.06-.29-.15-.46-.65-.52-.5-.06-.86-.01-1.1.14.19.04.22.4.07,1.08-.15.68-.31.95-.48.81.05.22.13.23.22.05.09-.18.22-.41.38-.68.16-.27.31-.49.45-.66.14-.17.3-.24.5-.19ZM542.91,81.58c-.18-.55-.35-.61-.49-.19-.15.43-.14.76,0,.99.33-.13.49-.4.48-.81ZM548.34,58.98c-.1-.02-.31.49-.64,1.54-.33,1.05-.73,2.38-1.19,4.01-.46,1.63-.95,3.38-1.46,5.25-.51,1.87-.95,3.63-1.31,5.28-.36,1.65-.67,3.03-.91,4.15-.25,1.12-.27,1.69-.08,1.74.59-2.21,1.11-4.1,1.56-5.68.45-1.58.96-3.32,1.53-5.23.57-1.91,1.06-3.66,1.46-5.25.4-1.59.7-2.95.9-4.07.2-1.12.25-1.7.15-1.72ZM543.06,100.99c-.4.42-.4.67-.01.76.33-.13.55-.44.66-.92.11-.48.08-.84-.07-1.08-.26.25-.45.66-.58,1.25ZM544.51,42.43c.02-.1-.06.14-.23.71-.18.57-.34,1.22-.5,1.95s-.38,1.72-.66,2.98c.12-.07.26-.4.44-.97.18-.57.33-1.17.47-1.8.14-.63.25-1.24.33-1.83.08-.59.13-.94.15-1.03ZM545.12,97.17c.04-.19.01-.63-.09-1.32-.11-.68-.17-1.18-.21-1.49-.14.17-.32.29-.53.34-.22.05-.34.18-.39.37l.29,1.44c.05.22,0,.48-.18.8-.17.32-.28.58-.32.77-.14,1.09.01,1.43.46,1.02.45-.41.64-.72.59-.94l-.16-.65.53-.34ZM544.19,69.51c-.55.18-.61.47-.19.87.45-.21.51-.5.19-.87ZM547.4,95.84c-.04.2-.21.72-.5,1.57-.29.85-.6,1.78-.92,2.77-.32,1-.57,1.91-.75,2.73-.18.83-.22,1.25-.13,1.27.19.04.51-.52.97-1.69.45-1.17.97-2.68,1.57-4.54.6-1.85,1.21-3.88,1.83-6.08.63-2.2,1.23-4.3,1.82-6.31s1.08-3.75,1.51-5.24c.42-1.48.67-2.42.76-2.81.79-2.67,1.51-5.36,2.16-8.07.65-2.7,1.44-5.27,2.38-7.71.08-.39.22-.66.41-.83.19-.16.22-.41.09-.74-.36-.69-.37-1.23-.03-1.61.34-.38.49-.73.46-1.04.14-.17.1-.56-.12-1.17-.22-.61-.28-1.15-.17-1.64-.37.63-.68,1.43-.93,2.39-.25.96-.49,1.95-.71,2.97-.22,1.02-.44,2.01-.66,2.98-.21.97-.38,1.75-.51,2.33-.75,2.48-1.46,4.92-2.14,7.31-.68,2.39-1.39,4.83-2.14,7.31-.82,2.77-1.5,5.42-2.05,7.94-.56,2.52-1.29,5.16-2.2,7.91ZM545.88,92.3c.36-.23.43-.57.22-1.02-.24.15-.43.31-.56.49-.28.35-.29.65-.05.91l.39-.37ZM546.59,87.73c-.14.17-.31.62-.52,1.33-.21.72-.29,1.18-.23,1.4-.11.49.05.45.48-.12.43-.57.63-.8.61-.7.2-.46.19-.75-.04-.85-.23-.1-.34-.2-.32-.3.14-.17.33-.33.56-.49l.45-.66c-.49-.11-.82.02-1,.39ZM547.23,84.82c-.37.73-.37,1.19,0,1.37.37.18.66-.21.87-1.18.02-.1.1-.36.25-.78.14-.43.27-.88.38-1.37.11-.48.22-.89.34-1.22.12-.33.23-.48.33-.46.09.02.18-.14.26-.48.08-.34.16-.73.26-1.16.1-.44.16-.85.2-1.25.04-.4.07-.65.09-.74.08-.39.42-1.58,1.02-3.59s1.22-4.15,1.88-6.45c.66-2.3,1.24-4.35,1.74-6.18.5-1.82.66-2.75.46-2.8-.29-.06-.81,1.14-1.56,3.62-.75,2.48-1.55,5.3-2.4,8.47-.85,3.17-1.66,6.17-2.44,9-.78,2.83-1.34,4.56-1.68,5.2ZM547.59,82.46c-.21-.45-.37-.39-.5.2.18.55.35.48.5-.2ZM552.43,19.61c-.47.3-.55.64-.22,1.02.19.04.37-.2.54-.72.17-.52.06-.62-.32-.3ZM560.15,52.43c.08-.39.04-.55-.12-.48-.17.07-.35.23-.56.49-.21.26-.37.51-.47.74-.1.23,0,.33.32.3.41-.01.69-.36.84-1.04ZM563.72,35.52c.15-.68.23-1.27.24-1.78.04-1.11.01-1.68-.08-1.7-.33.13-.53.42-.57.87-.05.45-.06.95-.03,1.52.03.57.06,1.13.08,1.7.03.57.02.95-.02,1.14.3-.44.43-1.02.38-1.75ZM564.31,30.77c-.1-.02-.17.07-.21.26-.02.1-.1.23-.24.4.43-.11.58-.33.45-.66Z"/>
    <path class="cls-4" d="M584.85,137.82c-3.8-1.18-7.27-3-10.42-5.48-3.15-2.48-5.79-5.38-7.91-8.72-2.13-3.33-3.68-7.03-4.67-11.09-.99-4.05-1.24-8.2-.76-12.44.94-8.07,3.59-15.4,7.96-22,4.37-6.6,10.25-11.53,17.64-14.8,1.76-.87,3.66-1.52,5.68-1.94,2.03-.42,3.97-.57,5.82-.47.82.07,1.62.18,2.4.34.78.16,1.58.27,2.4.34,1,.13,1.99.15,2.97.06.97-.09,2.01-.06,3.11.1,2.6.35,5.33,1.35,8.19,3,2.85,1.64,5.15,3.44,6.91,5.39,1.78,1.86,3.21,3.78,4.27,5.76,1.06,1.98,2.17,4.22,3.32,6.7.22.6.42,1.48.6,2.64.18,1.16.34,2.4.48,3.7.14,1.3.25,2.6.34,3.89.09,1.29.13,2.25.13,2.87l.57-.28v1.88s-.01,1.88-.01,1.88c-.07.5-.12.9-.17,1.2-.05.3-.1.54-.17.73-.06.19-.11.17-.14-.05.12.57.23.79.33.66.09-.13.11.22.04,1.04l.23,1.65c-.22.03-.58.17-1.08.42l.27,2.92c-.04.72-.07,1.37-.1,1.93-.03.57-.15.82-.33.75,0-.63-.16-.78-.47-.47.03.54.21.83.56.9.34.06.39.47.14,1.23-.03.09-.22.35-.57.75-.35.41-.63.47-.85.19-.22-.28-.16-.55.19-.8.34-.25.58-.41.71-.47-.09-.03-.24-.21-.45-.54-.2-.33-.26-.48-.16-.45-.22.03-.53.48-.92,1.34-.4.86-.42,1.41-.08,1.62.38-.19.74-.33,1.08-.42.47-.16.55.08.23.71-.44.69-.82,1.35-1.14,1.97-.32.63-.7,1.29-1.14,1.97-.73,1.22-1.55,2.41-2.46,3.57-.92,1.16-1.74,2.35-2.46,3.57-.79,1.41-2.02,2.96-3.69,4.65-1.67,1.69-3.2,2.88-4.58,3.56-.75.37-1.53.88-2.31,1.5-.79.63-1.62,1.16-2.5,1.59-1.26.62-2.52,1.11-3.8,1.47-1.27.36-2.63.66-4.08.9-3.24.58-6.48.8-9.73.65-3.25-.15-6.4-.69-9.44-1.61ZM574.5,78.52c.41-.28.47-.63.19-1.04-.09-.03-.21.16-.35.59-.14.42-.09.57.16.45ZM585.89,69.47c.03-.09.27-.27.73-.54.46-.26.95-.57,1.49-.91.53-.34,1.23-.84,2.08-1.5-.22-.28-.72-.27-1.51.04-.79.31-1.67.75-2.64,1.31-.98.56-1.84,1.11-2.6,1.64-.76.53-1.21.88-1.37,1.03-.82.56-1.6,1.17-2.34,1.81-.74.64-1.46,1.37-2.15,2.18-.13.06-.45.48-.97,1.25-.52.77-.73,1.17-.64,1.2.56-.12,1.23-.63,2.01-1.52.77-.89,1.38-1.52,1.82-1.9,1.01-.81,2.01-1.55,3.02-2.2,1.01-.66,2.03-1.28,3.07-1.87ZM579.98,101.44c.22-.03.42-.17.61-.42.35-.41.39-.86.15-1.37.12.25-.12.43-.73.54-.61.11-.97.15-1.06.11-.25.44-.13.69.37.75.5.07.72.19.66.38ZM579.71,98.99c-.03-.22-.02-.42.05-.61-.13.06-.21.24-.26.54-.05.3.02.32.21.07ZM582.67,114.45c.3,2.83,1.11,4.8,2.41,5.92,1.3,1.12,2.81,1.68,4.54,1.69,1.73,0,3.53-.46,5.42-1.4,1.89-.94,3.54-2.11,4.96-3.52,3.62-3.6,6.79-7.77,9.49-12.52s4.5-9.7,5.4-14.84c.51-2.45.67-4.96.5-7.54-.18-2.58-1.18-4.74-2.99-6.51-1.41-1.42-3.06-2.03-4.96-1.83-1.9.2-3.72.53-5.44.99-1.64.5-3.21,1.2-4.72,2.1-1.51.91-2.96,2.02-4.34,3.33-.91.85-1.8,1.78-2.67,2.79-.87,1.02-1.62,2.15-2.25,3.41-.66,1.03-1.19,2.12-1.57,3.25-.13.38-.4.63-.8.75-.41.12-.69.27-.85.42.03-.09.12.12.26.64s.18.87.11,1.06c-.06.19-.14.5-.24.94-.1.44-.22.9-.38,1.37-.16.47-.33.89-.5,1.25-.18.36-.37.56-.59.59-.09-.03-.08-.31.05-.85.13-.53-.08-.63-.61-.28.03-.09-.12.04-.45.4-.33.36-.62.6-.87.73.16.16.37.36.66.61.28.25.3.44.04.57-.28-.1-.54-.13-.75-.1.31.32.42.61.33.9-.25.13-.42.01-.52-.33-.09-.35-.23-.55-.42-.61-.28-.09-.36-.04-.21.16.14.2.33.48.59.83.25.35.45.68.61.99.15.31.15.55,0,.71-.28-.09-.49-.11-.61-.05.06.13.1.24.12.35.01.11.1.24.26.4l-.85.66c.03-.09.19.22.47.94.28.72.09.97-.57.75-.28-.1-.38-.26-.3-.5.08-.23-.07-.1-.45.4-.25.44-.35.88-.29,1.32.09.03.28-.06.57-.28.28-.22.49-.2.61.05-.29.22-.52.45-.71.7-.35.41-.47.63-.38.66l1.13-.56c.03.85.09,1.52.18,2.03.09.5.17.98.23,1.41.06.44.08.71.04.8.03.22.19.61.47,1.18.28.57.47.86.56.9-.63.31-.77.58-.43.8.34.22.59.88.75,1.98ZM587.19,74c.47-.47.47-.55,0-.24-.47.31-.69.42-.66.33-.79.47-1.61,1.19-2.46,2.16-.13.06-.42.33-.9.8-.47.47-.99.98-1.54,1.53-.55.55-1.01,1.05-1.37,1.5-.36.45-.51.75-.45.87,1.48-1.28,2.65-2.35,3.52-3.21.87-.86,1.68-1.66,2.46-2.39.77-.73,1.24-1.18,1.39-1.34ZM580.14,97.25c-.13.06-.22.19-.28.38.6.1.88-.12.85-.66l-.57.28ZM580.01,107.42c.25-.12.27-.33.05-.61-.25.13-.27.33-.05.61ZM582.33,102.86c.5.38.44.57-.19.56-.31-.31-.25-.5.19-.56ZM582.68,99.04c-.03-.22.06-.48.26-.78.2-.3.37-.32.5-.07.06.13-.04.35-.31.68-.27.33-.42.38-.45.16ZM583.58,94.95c.53-.03.71-.41.55-1.15-.17-.74-.27-1.06-.3-.97-.25.44-.41.81-.45,1.11-.05.3-.08.55-.1.75-.02.21.08.29.31.26ZM584.68,92.64c.22-.03.22-.26,0-.71-.22-.44-.41-.58-.56-.43-.22.03-.24.23-.05.61.19.38.39.55.61.52ZM585.35,88.31c.41.03.45-.11.14-.42-.38.19-.42.33-.14.42ZM596.65,76.24c.25-.12.63-.31,1.13-.56.5-.25.8-.52.9-.8-.72.28-1.34.55-1.84.79-.5.25-.97.46-1.39.63-.43.17-.65.31-.68.4-1.04.59-2.03,1.28-2.97,2.06-.95.78-1.83,1.61-2.65,2.49-1.26,1.57-2.32,3.31-3.17,5.22-.16.47-.16.79,0,.94.16.16.41.03.75-.37.25-.12.41-.52.48-1.18.06-.66.25-1.15.57-1.46.35-.41.66-.8.95-1.17.28-.38.6-.77.95-1.17,2.21-2.19,4.54-4.13,6.99-5.82ZM589.48,77.92c-.25.13-.54.42-.85.89-.32.47-.66.96-1.04,1.46l1.94-1.55c.57-.44,1.48-1.12,2.74-2.06,1.26-.94,2.11-1.75,2.55-2.44-.19.25-.55.55-1.09.89-.54.35-1.08.71-1.63,1.1-.55.39-1.1.76-1.63,1.1-.54.34-.87.55-.99.61ZM610.61,114.12c.06.13-.22.5-.85,1.13-.63.63-1.36,1.32-2.2,2.09-.84.77-1.61,1.5-2.32,2.21-.71.7-1.1,1.15-1.16,1.34-.41.28-.91.61-1.51.98-.6.38-1.2.75-1.79,1.12-.6.38-1.16.79-1.68,1.24-.52.45-.84.87-.97,1.25-.09.28.07.34.49.17.42-.17.95-.41,1.58-.73.63-.31,1.42-.78,2.36-1.41l3.36-2.96c.16-.16.52-.53,1.09-1.13.57-.6,1.13-1.24,1.68-1.95.55-.7,1.02-1.39,1.4-2.04.38-.66.55-1.1.52-1.32ZM609.1,113.93c-.6.53-1.03.96-1.3,1.29-.27.33-.59.74-.97,1.24.09.03.32-.1.68-.4.36-.3.69-.63.97-1.01.28-.38.5-.7.64-.96.14-.27.13-.32-.02-.16ZM615.87,118.56c-.09-.03-.33.12-.71.47-.38.34-.74.72-1.09,1.13-.35.41-.7.84-1.06,1.29-.36.45-.56.73-.59.82-.03.09.14-.03.52-.38.38-.34.8-.75,1.28-1.22.47-.47.89-.93,1.25-1.39.36-.45.5-.7.4-.73ZM617.68,125.31c-.16.16-.69.66-1.61,1.5-.91.85-1.4,1.52-1.47,2.02.16-.16.46-.44.92-.87.46-.42.94-.86,1.46-1.31.52-.45,1-.87,1.44-1.24.44-.37.74-.64.9-.8.63-.63,1.22-1.29,1.77-2,.55-.7,1.03-1.51,1.45-2.42l-4.87,5.12ZM625.14,120.9c-.98,1.35-2.01,2.7-3.1,4.06-1.09,1.36-2.25,2.62-3.48,3.78.88-.75,1.9-1.66,3.05-2.75,1.15-1.08,2.24-2.15,3.29-3.22,1.04-1.06,1.84-2.05,2.41-2.96.57-.91.65-1.54.24-1.88-.09-.03-.26.07-.5.3-.24.23-.5.54-.78.92-.28.38-.54.74-.76,1.08-.22.35-.35.57-.38.66ZM628.22,116.91c-.38.19-.4.39-.05.61.25-.12.27-.33.05-.61ZM632.47,98.69c-.38.19-.43.33-.14.42.41.03.45-.11.14-.42ZM632.78,91.25c-.06-.44-.14-.44-.24,0-.1.44-.16.71-.19.8-.03.09.06.05.28-.14.22-.19.27-.41.14-.66Z"/>
    <path class="cls-4" d="M653.1,166.29c-3.57-1.75-6.72-4.08-9.45-7.01-2.73-2.93-4.89-6.21-6.47-9.83-1.59-3.62-2.56-7.51-2.91-11.67-.36-4.16.03-8.29,1.17-12.41,2.17-7.83,5.92-14.66,11.26-20.51,5.33-5.84,11.91-9.81,19.71-11.91,1.87-.59,3.85-.94,5.91-1.04s4.01.04,5.82.43c.79.19,1.57.42,2.32.7.75.28,1.52.51,2.32.7.97.28,1.95.45,2.92.51.98.06,1.99.25,3.06.58,2.52.75,5.06,2.16,7.63,4.22,2.56,2.06,4.56,4.19,5.99,6.39,1.48,2.11,2.58,4.23,3.33,6.35.74,2.12,1.49,4.5,2.25,7.13.12.62.19,1.52.19,2.7,0,1.18-.03,2.42-.09,3.73-.07,1.31-.15,2.61-.26,3.89-.11,1.29-.22,2.24-.31,2.86l.6-.19-.3,1.86-.3,1.86c-.14.49-.26.87-.35,1.16-.09.29-.19.52-.28.7-.09.18-.14.15-.13-.07.03.58.11.81.22.7.11-.11.07.23-.12,1.03l-.03,1.67c-.22,0-.6.08-1.14.25l-.18,2.93c-.15.71-.28,1.34-.4,1.89-.12.55-.27.78-.44.69.1-.62-.03-.8-.39-.54-.05.53.08.86.42.97.33.12.31.53-.05,1.23-.05.09-.27.31-.68.66-.41.35-.7.37-.87.05-.17-.31-.07-.57.31-.76.38-.19.64-.31.77-.35-.09-.05-.21-.25-.36-.61-.15-.36-.18-.51-.09-.47-.22,0-.6.39-1.12,1.18-.52.79-.63,1.32-.33,1.59.4-.13.78-.21,1.14-.25.49-.08.53.16.12.73-.54.61-1.02,1.21-1.43,1.78-.41.57-.89,1.16-1.43,1.78-.91,1.1-1.9,2.15-2.98,3.15-1.08,1-2.08,2.05-2.98,3.15-1,1.27-2.45,2.62-4.36,4.03-1.91,1.41-3.6,2.35-5.08,2.82-.8.25-1.64.63-2.52,1.13-.88.5-1.78.89-2.72,1.19-1.34.42-2.67.71-3.98.87-1.31.16-2.7.25-4.17.27-3.29.08-6.53-.2-9.71-.86-3.19-.65-6.21-1.67-9.08-3.04ZM652.01,106.1c.45-.21.56-.55.35-.99-.09-.05-.24.13-.44.53s-.18.55.09.47ZM653.89,129.59c.22,0,.45-.1.67-.32.41-.35.52-.79.35-1.33.08.27-.19.41-.81.42-.62.01-.98,0-1.07-.05-.32.4-.23.66.25.8.48.14.68.3.59.48ZM653,135.5c.27-.08.31-.28.14-.6-.27.08-.32.28-.14.6ZM654.55,142.86c-.13,2.84.35,4.91,1.47,6.22,1.11,1.31,2.52,2.1,4.23,2.37,1.71.27,3.56.09,5.57-.54,2.01-.63,3.82-1.54,5.44-2.71,4.13-3,7.9-6.64,11.3-10.91,3.4-4.28,5.94-8.89,7.62-13.84.88-2.34,1.43-4.8,1.65-7.37.22-2.57-.43-4.87-1.95-6.89-1.17-1.62-2.72-2.48-4.62-2.57-1.91-.1-3.75-.05-5.53.14-1.69.24-3.36.69-4.99,1.35-1.63.66-3.23,1.54-4.81,2.62-1.03.7-2.06,1.48-3.07,2.35-1.02.87-1.93,1.88-2.75,3.02-.81.92-1.5,1.91-2.05,2.97-.18.35-.49.56-.91.62-.42.06-.73.15-.9.29.05-.09.1.13.16.67.06.53.04.89-.05,1.07-.09.18-.22.47-.38.89-.16.42-.36.85-.59,1.29-.23.44-.46.83-.68,1.15-.23.33-.45.49-.67.49-.09-.05-.03-.32.18-.83.21-.51.02-.63-.56-.38.04-.09-.12.02-.5.33-.38.3-.71.5-.98.58.13.18.31.42.55.71.24.29.22.48-.04.57-.26-.14-.51-.21-.73-.21.26.36.32.67.18.94-.27.09-.42-.05-.46-.41-.04-.36-.15-.58-.32-.67-.26-.14-.34-.1-.24.13.11.22.26.53.45.91.19.38.34.74.45,1.07.1.33.07.57-.11.7-.26-.14-.47-.18-.6-.14.04.13.06.26.06.37,0,.11.06.26.19.44l-.94.52c.05-.09.15.25.32,1,.17.76-.06.98-.68.66-.26-.14-.34-.32-.22-.54.11-.22-.05-.11-.5.33-.32.4-.48.81-.49,1.26.09.05.29-.02.6-.19.31-.17.51-.12.6.14-.32.17-.58.37-.81.59-.41.35-.56.55-.48.59l1.21-.38c-.1.84-.15,1.52-.13,2.03.01.51.02.99.01,1.43,0,.44-.03.71-.08.8,0,.22.09.63.28,1.24.19.6.33.93.42.97-.67.21-.85.45-.54.72.3.27.45.96.43,2.07ZM664.65,98.91c.04-.09.31-.23.81-.42.49-.19,1.03-.42,1.61-.67.58-.26,1.34-.65,2.28-1.16-.17-.31-.67-.38-1.5-.19-.83.19-1.76.48-2.81.89-1.05.41-1.99.81-2.82,1.22-.83.41-1.33.68-1.51.81-.9.43-1.76.91-2.59,1.42-.83.52-1.65,1.13-2.46,1.83-.13.04-.52.4-1.15,1.08-.63.68-.91,1.04-.82,1.09.58-.04,1.32-.43,2.22-1.2.9-.76,1.6-1.29,2.09-1.6,1.12-.65,2.23-1.22,3.33-1.71,1.1-.49,2.2-.95,3.32-1.38ZM654,127.12c0-.22.05-.42.14-.6-.13.04-.25.21-.34.49-.09.29-.03.32.2.1ZM654.69,125.47c-.13.04-.25.15-.34.33.57.19.89.02.94-.52l-.6.19ZM656,131.35c.44.45.34.63-.27.53-.26-.36-.17-.53.27-.53ZM665.24,103.58c.54-.39.55-.47.04-.23-.52.24-.75.31-.7.22-.85.34-1.77.93-2.76,1.75-.13.04-.47.26-1.01.65-.54.39-1.12.82-1.75,1.27-.63.46-1.16.88-1.59,1.27-.43.39-.62.66-.58.79,1.66-1.04,2.98-1.92,3.97-2.63.99-.72,1.92-1.38,2.8-1.99.87-.61,1.4-.98,1.58-1.11ZM656.92,127.64c0-.22.13-.46.38-.73.25-.26.41-.26.5,0,.04.13-.09.34-.41.63-.32.28-.47.31-.47.09ZM658.45,123.73c.53.05.77-.3.72-1.05-.06-.76-.11-1.09-.15-1-.32.4-.52.73-.62,1.02-.09.29-.17.53-.21.73-.05.2.04.3.26.3ZM659.88,121.62c.22,0,.26-.23.11-.7-.15-.47-.31-.64-.49-.51-.22,0-.27.2-.14.6s.3.6.52.61ZM661.22,117.45c.4.1.46-.04.21-.4-.4.13-.47.26-.21.4ZM674.24,107.26c.27-.08.67-.21,1.21-.38.53-.17.87-.39,1.01-.65-.76.17-1.41.33-1.94.5-.54.17-1.03.31-1.47.41-.45.1-.69.2-.74.29-1.12.43-2.2.95-3.26,1.58-1.05.63-2.05,1.31-3,2.05-1.49,1.35-2.8,2.91-3.94,4.67-.23.44-.28.75-.15.93.13.18.4.1.8-.25.27-.08.48-.45.65-1.09.17-.64.43-1.09.79-1.35.4-.35.78-.69,1.12-1.01.34-.33.71-.67,1.12-1.01,2.52-1.82,5.12-3.38,7.8-4.67ZM666.9,107.81c-.27.08-.59.34-.98.75-.38.42-.8.84-1.25,1.28l2.15-1.23c.63-.35,1.64-.88,3.02-1.62,1.39-.73,2.35-1.41,2.9-2.02-.23.22-.63.46-1.21.71-.58.26-1.18.54-1.78.84-.61.3-1.2.58-1.78.84-.58.26-.94.41-1.07.45ZM682.2,146.83c.04.13-.3.46-1.02.98-.72.52-1.55,1.1-2.49,1.73-.94.63-1.82,1.24-2.63,1.82-.81.59-1.26.97-1.35,1.14-.45.22-1,.46-1.64.74-.65.28-1.3.56-1.95.83-.65.28-1.27.6-1.85.97-.58.37-.97.73-1.15,1.08-.14.26.02.34.46.24.45-.1,1-.26,1.67-.47.67-.21,1.52-.55,2.55-1.03l3.77-2.4c.18-.13.59-.45,1.25-.95.65-.5,1.3-1.06,1.96-1.67.65-.61,1.22-1.21,1.69-1.81.48-.59.71-1,.72-1.22ZM680.74,146.41c-.67.43-1.17.79-1.48,1.08-.32.28-.7.64-1.15,1.08.09.04.33-.05.74-.29.4-.24.77-.52,1.11-.85.34-.33.6-.61.78-.85.18-.24.18-.3,0-.17ZM686.71,152.04c-.09-.05-.35.07-.77.35-.43.28-.84.6-1.25.95-.41.35-.82.72-1.25,1.11-.43.39-.67.63-.71.72-.05.09.14,0,.57-.29.42-.28.91-.62,1.45-1.01s1.02-.78,1.45-1.18c.43-.39.6-.61.51-.66ZM687.47,158.98c-.18.13-.79.54-1.82,1.24-1.03.7-1.62,1.28-1.76,1.77.18-.13.53-.37,1.04-.72.52-.35,1.07-.71,1.65-1.07.58-.37,1.12-.7,1.62-1.01.49-.3.83-.52,1.01-.65.72-.52,1.41-1.09,2.06-1.7.65-.61,1.25-1.33,1.8-2.17l-5.6,4.31ZM695.52,155.78c-1.18,1.18-2.4,2.36-3.69,3.54-1.29,1.18-2.62,2.24-4.02,3.2.99-.6,2.13-1.35,3.43-2.24,1.3-.89,2.55-1.78,3.74-2.67,1.19-.89,2.14-1.74,2.84-2.55.7-.81.88-1.42.53-1.82-.09-.05-.27.03-.54.22-.27.2-.57.46-.91.78-.34.33-.65.65-.92.95-.27.31-.43.51-.48.59ZM699.17,152.3c-.4.13-.45.33-.14.6.27-.08.31-.28.14-.6ZM706.18,134.96c-.4.13-.47.26-.21.4.4.1.46-.04.21-.4ZM707.63,127.65c0-.44-.07-.46-.23-.04-.16.42-.27.67-.31.76-.05.09.05.06.3-.1.25-.15.33-.36.24-.63Z"/>
    <path class="cls-4" d="M791.8,185.84c-1.19-2-3.02-3.21-5.5-3.64-2.48-.42-4.73-.57-6.77-.44-1.41,0-2.82.07-4.21.21-1.4.14-2.54.75-3.42,1.82-2.2,2.69-4.42,5.31-6.63,7.86-2.22,2.55-4.5,5.11-6.86,7.67-2.42,2.64-4.87,5.32-7.35,8.04-2.48,2.72-5.33,4.94-8.55,6.67-.27.17-.84.47-1.71.91-.87.44-1.79.81-2.75,1.12-.96.31-1.84.48-2.65.53-.81.04-1.24-.21-1.29-.77-.09-.2.21-.69.91-1.47.7-.78,1.48-1.58,2.35-2.4.87-.83,1.7-1.53,2.49-2.1.79-.57,1.25-.87,1.39-.88-.51-.16-1.19.15-2.02.94-.84.79-1.69,1.6-2.56,2.42-.87.83-1.72,1.48-2.56,1.95-.84.47-1.5.31-2.01-.49.07-.71.16-1.22.27-1.51-.09-.2-.54-.09-1.34.35-.8.43-1.37.38-1.71-.15-.26-.47-.27-.89-.02-1.27.24-.38.21-.76-.11-1.15-.14.01-.3.14-.49.37-.84.08-1.17-.61-1-2.07.17-1.46.54-3.09,1.1-4.87.56-1.78,1.14-3.47,1.72-5.04.58-1.57.94-2.44,1.07-2.59,1.36-2.6,2.83-5.1,4.39-7.48,1.56-2.38,3.18-4.74,4.85-7.1,1.86-2.58,3.7-5.15,5.53-7.7,1.83-2.55,3.79-5.02,5.88-7.41.38-.46.95-1.08,1.72-1.86.77-.78,1.44-1.61,2.03-2.48.58-.87.95-1.75,1.11-2.66.15-.9-.16-1.67-.93-2.3-1.07-.75-2.38-1.05-3.93-.91-1.55.15-2.88.27-4,.38-1.26.12-2.65.23-4.17.34-1.51.11-2.85.39-4.01.86-.67.35-1.29.94-1.84,1.77-.55.83-1.05,1.52-1.49,2.05-.79,1.28-1.64,2.48-2.55,3.59-.91,1.11-1.8,2.28-2.67,3.49-1.81,2.37-3.68,4.69-5.61,6.96-1.93,2.27-3.91,4.5-5.95,6.68-.38.46-1.06,1.22-2.05,2.27-.99,1.05-2.07,2.09-3.24,3.13-1.17,1.03-2.32,1.89-3.45,2.57-1.13.68-2.06.91-2.79.7-.16-.13-.13-.27.06-.43.19-.16.42-.39.67-.7.25-.31.46-.56.61-.75.16-.19.16-.35,0-.48-.31-.25-.76-.05-1.37.61-.61.66-.99.86-1.16.59-.32-.39-.41-.79-.28-1.19.13-.4.26-.71.38-.94.12-.22.08-.29-.13-.2-.2.09-.81.43-1.8,1.03-.2.09-.67.22-1.39.4-.72.18-1.16.2-1.32.08-.23-.19.08-1.12.94-2.79.86-1.67,1.87-3.5,3.05-5.49,1.18-1.99,2.32-3.85,3.42-5.58,1.1-1.73,1.74-2.71,1.93-2.94,1.29-1.89,2.57-3.8,3.82-5.73,1.25-1.92,2.57-3.8,3.94-5.63l4.66-6.39c.31-.38.9-1.02,1.77-1.92.86-.9,1.3-1.66,1.31-2.3-.05.22-.29.59-.73,1.13-.44.54-.93,1.1-1.47,1.68-.54.58-1.05,1.13-1.53,1.63-.48.51-.78.84-.91.99-1.18,1.6-2.33,3.16-3.45,4.68-1.12,1.52-2.23,3.11-3.34,4.78-1.61,2.28-3.15,4.55-4.62,6.81-1.47,2.26-2.86,4.59-4.18,6.98-.98,1.51-1.89,3.2-2.72,5.09-.84,1.88-1.89,3.52-3.16,4.92-.06.08-.13-.11-.21-.56-.08-.45-.05-.69.09-.7-.28.03-.48.15-.6.38-.12.22-.26.43-.41.62-.16.19-.32.31-.49.37-.17.05-.45-.08-.83-.39-.39-.32-.59-.58-.61-.79-.02-.21-.05-.52-.09-.94.1-1.33.52-2.72,1.27-4.16.75-1.44,1.49-2.76,2.22-3.96,1.72-3.47,3.64-6.71,5.74-9.74.41-.69,1.51-2.26,3.3-4.71,1.78-2.45,3.63-5.02,5.52-7.7,2.3-3.12,4.82-6.51,7.56-10.17-.15-.13-.91.6-2.27,2.18-1.36,1.58-2.82,3.37-4.39,5.36-1.57,1.99-3.04,3.86-4.42,5.63-1.38,1.76-2.19,2.79-2.44,3.1-1.31,1.75-2.56,3.52-3.76,5.3-1.2,1.78-2.27,3.63-3.21,5.56-.19.23-.62,1.03-1.3,2.4-.68,1.37-1.42,2.82-2.21,4.35-.8,1.53-1.55,2.91-2.24,4.14-.69,1.23-1.11,1.79-1.26,1.66-1.23-1.01-1.64-2.57-1.25-4.68.4-2.11,1.14-4.33,2.23-6.65,1.09-2.32,2.25-4.51,3.5-6.57,1.25-2.06,2.15-3.5,2.71-4.33,2.02-3.23,4.21-6.4,6.58-9.53,2.37-3.13,4.75-6.22,7.13-9.28,2.2-2.69,4.47-5.42,6.81-8.19,2.33-2.77,4.94-5.22,7.83-7.35,1.06-.67,2.23-1.38,3.53-2.11,1.3-.73,2.5-1.16,3.61-1.28.97-.1,1.59-.05,1.86.17.26.22.3.48.12.77-.18.3-.52.67-1,1.11-.49.44-.89.78-1.22,1.02.12-.15.59-.41,1.4-.78.4-.18.77-.4,1.1-.64.01.14-.18.37-.57.69-.39.32-.83.67-1.32,1.03s-.92.69-1.27.98c-.36.28-.5.46-.42.52.3.25.72.24,1.26-.03.53-.27,1.08-.62,1.64-1.07.55-.44,1.1-.84,1.62-1.17.53-.34.98-.42,1.34-.25.59.36.61.92.05,1.68-.56.76-.97,1.3-1.22,1.6.47-.26,1.01-.61,1.64-1.06.63-.45,1.11-.34,1.46.33.26.47.48,1.1.67,1.9.19.8.2,1.45.04,1.96-.05.22-.33.79-.83,1.72-.51.93-1.04,1.94-1.6,3.02s-1.32,2.51-2.27,4.3c.31.25.75-.06,1.34-.93.58-.87,1.15-1.88,1.71-3.03.56-1.15,1.06-2.24,1.53-3.28.46-1.03.83-1.56,1.11-1.59.56-.05.9.39,1.04,1.33.13.94.15,2.02.06,3.23-.09,1.21-.27,2.38-.55,3.5-.28,1.12-.51,1.8-.7,2.03-.32.39-.33.63-.03.75.29.11.68.15,1.18.1.49-.05.98-.13,1.46-.25.48-.12.76-.15.84-.08.9-.16,1.83-.27,2.78-.33.95-.06,1.91-.13,2.89-.23,1.83-.04,3.75.18,5.74.66s3.69,1.35,5.09,2.63c1.08.88,2.11,1.86,3.1,2.93.99,1.07,1.87,2.24,2.63,3.51.23.19.44.56.64,1.1.2.55.42,1.14.66,1.79.24.65.46,1.21.65,1.69.19.48.36.78.51.9.82.42,1.1,1.25.84,2.52-.26,1.26-.33,2.21-.19,2.83.1.34.24.81.41,1.39.16.59-.02,1.04-.55,1.38-.39.32-.35.58.13.78.48.2.56.49.25.88.12-.15-.12,0-.75.44-.63.45-.76.69-.4.73.93.12,1.94-.02,3.03-.41,1.09-.39,2.08-.67,2.99-.83,1.87-.4,3.97-.54,6.31-.42,4.48.33,8.62,1.86,12.42,4.59,3.34,2.35,5.95,5.35,7.83,9.01,1.88,3.66,2.99,7.55,3.33,11.68.19,4-.12,7.99-.93,11.95-.81,3.96-2.31,7.67-4.5,11.14-2.07,3.31-4.62,6.42-7.65,9.33-3.03,2.91-5.97,5.64-8.82,8.18-1.36,1.19-2.89,2.48-4.59,3.84-1.7,1.37-3.51,2.52-5.43,3.45-1.92.93-3.88,1.44-5.88,1.54s-3.94-.44-5.82-1.59c-2.11-1.34-3.13-2.95-3.07-4.83.06-1.88.63-3.79,1.71-5.73,1.08-1.94,2.39-3.82,3.94-5.63,1.55-1.81,2.72-3.29,3.53-4.43,2.42-3.28,4.86-6.52,7.29-9.72s4.63-6.63,6.6-10.29c.6-1.05,1.29-2.25,2.08-3.59.78-1.35,1.47-2.74,2.07-4.18.6-1.44.98-2.88,1.16-4.35.17-1.46-.09-2.8-.77-4ZM702.32,173.77l-.09.12-.26.56c.15.12.27-.1.36-.67ZM702.56,173.01c.28-.03.48-.28.61-.75.13-.47.25-.86.36-1.15-.25.31-.43.68-.52,1.11-.1.43-.25.69-.45.79ZM705.52,168.69c.05-.22-.05-.14-.29.24-.25.38-.44.57-.58.59.37.18.66-.1.87-.83ZM711.76,182.47c.8-1.14,1.77-2.56,2.91-4.26,1.13-1.7,2.38-3.57,3.73-5.61,1.35-2.04,2.57-3.93,3.67-5.66,1.1-1.73,2.3-3.79,3.62-6.18-.22-.05-.73.5-1.53,1.63-.81,1.14-1.78,2.56-2.91,4.26-1.14,1.7-2.34,3.57-3.62,5.6-1.28,2.03-2.45,3.93-3.51,5.69-1.06,1.76-2.32,3.78-3.79,6.04.15.13.63-.38,1.44-1.52ZM711.54,186.72c.33-.24.99-1.02,1.99-2.31,1-1.3,2.17-2.85,3.51-4.64,1.34-1.79,2.73-3.73,4.19-5.81,1.45-2.09,2.72-4.03,3.81-5.83,1.09-1.8,1.94-3.35,2.55-4.65.61-1.3.8-2.04.57-2.23-.08-.06-.56.6-1.44,2-.89,1.39-1.91,2.96-3.08,4.7-1.17,1.74-2.22,3.38-3.16,4.92-.94,1.54-1.5,2.43-1.69,2.66-.13.15-.62.84-1.49,2.05-.87,1.21-1.76,2.5-2.69,3.87-.92,1.36-1.79,2.61-2.59,3.75-.81,1.14-1.17,1.74-1.09,1.8l.3-.14c.06-.08.16-.12.3-.14ZM712.92,168.59c-.01-.14-.1-.11-.26.08-.16.19-.23.36-.21.5-.06.08-.01.05.15-.07.16-.12.29-.24.39-.36s.15-.23.18-.34c.02-.11-.06-.05-.25.18ZM714.32,156.07c-.32.39-.3.52.04.42l-.04-.42ZM716.89,153.16c.69-.84,1.35-1.75,1.96-2.73.62-.97,1.28-1.81,1.99-2.51-.77.78-1.58,1.69-2.43,2.73s-1.52,2-2,2.89c.13-.02.29-.15.48-.38ZM724.01,144.94c-.03-.28-.21-.17-.55.32-.34.49-.35.62-.02.37l.57-.69ZM729.42,155.73c-.14.01-.38.23-.73.65-.35.42-.44.7-.29.82.15.13.46-.13.93-.78.46-.65.49-.88.09-.7ZM745.4,208.87c.31-.38.53-.72.64-1.02-.11.29-.6.73-1.46,1.31-.86.58-1.87,1.23-3.04,1.94-1.16.72-2.31,1.41-3.44,2.09-1.13.68-2,1.22-2.59,1.63l3.76-1.54c1.2-.68,2.3-1.32,3.3-1.92,1-.59,1.94-1.43,2.82-2.5ZM738.82,148.02c.39-.32.57-.69.52-1.11-.04-.42.04-.67.24-.77-.27.17-.69.56-1.26,1.18-.58.62-.81,1.1-.7,1.45.49.02.89-.23,1.2-.75ZM740.77,144.23c-.47.26-.51.54-.13.86.31.25.49.15.55-.32.06-.46-.08-.65-.42-.54ZM741.93,154.8c-.32.39-.3.52.04.42l-.04-.42ZM750.13,204.27c.05-.22.17-.44.36-.67-.08-.06-.31.07-.7.39-.39.32-.81.72-1.26,1.18-.45.47-.88.92-1.3,1.35-.42.43-.62.71-.6.85.06-.08.24-.25.53-.53.29-.28.63-.61,1.01-1,.38-.39.76-.73,1.12-1.01.36-.28.64-.47.84-.56ZM747.17,147.93c.03.28.08.45.16.51.15.13.24.13.27.03.02-.11,0-.25-.04-.42-.05-.17-.14-.3-.25-.4-.12-.09-.16,0-.13.28ZM753.17,200.79c.12-.15.4-.41.82-.77.42-.36.84-.76,1.26-1.18.42-.43.8-.85,1.14-1.28.35-.42.47-.73.38-.94.08.06-.18.37-.75.92-.58.55-1.21,1.13-1.89,1.72-.68.6-1.3,1.15-1.85,1.67-.55.51-.75.83-.59.96.61-.27,1.1-.64,1.48-1.1ZM756.39,198.04c.05-.22.14-.4.26-.56-.14.01-.29.15-.44.41-.15.26-.09.31.17.14ZM756.91,146.86c.28-.03.37-.21.26-.56-.42.04-.51.23-.26.56ZM757.23,195.84c-.14.01-.11.1.08.26.19.16.33.27.4.33.11-.29-.05-.49-.48-.59ZM758.73,194.95c-.12-.48-.34-.6-.67-.36.18.41.4.52.67.36ZM760.81,191.46c-.14.01-.4.22-.79.61-.39.39-.46.68-.23.87.39-.32.68-.6.87-.83s.31-.42.37-.57c.05-.15-.02-.18-.22-.08ZM763.82,188.72c-.02-.14.2-.48.64-1.02-.52.48-1.11.96-1.76,1.45-.66.49-1.07.99-1.23,1.5.24-.45.65-.75,1.23-.92.58-.16.95-.5,1.12-1.01ZM766.96,185.13c.46.38.72.3.77-.24.05-.53-.03-.83-.25-.88-.15-.13-.34-.02-.55.32-.21.34-.2.6.03.79ZM780.32,220.53c-3.18,3.56-6.2,7.25-9.06,11.06-.06.08-.27.36-.6.85-.34.49-.66,1-.96,1.52-.3.52-.55.99-.76,1.4-.21.41-.21.57,0,.48,1.59-1.01,3.05-2.51,4.37-4.51,1.32-2,2.5-3.73,3.56-5.17.31-.38.84-.95,1.58-1.69.74-.75,1.47-1.52,2.2-2.34.73-.81,1.37-1.64,1.92-2.47.55-.83.83-1.56.84-2.2-.06.08-.22.27-.47.58-.25.31-.58.62-.96.94-.39.32-.75.64-1.07.95-.32.31-.51.51-.58.59ZM780.46,218.72c-.19.23-.65.75-1.38,1.57-.73.81-1.04,1.39-.94,1.73.69-.84,1.24-1.55,1.64-2.12.4-.57.79-1.12,1.16-1.65.37-.53.62-.87.75-1.03l-1.23,1.5ZM787.74,233.35c-.39.32-1,.98-1.81,1.98-.82,1-1.4,1.55-1.74,1.65.76-.15,1.55-.68,2.38-1.61.82-.93,1.56-1.64,2.22-2.13,1.1-1.03,2.19-2.05,3.29-3.08,1.1-1.03,2.19-2.05,3.29-3.08,1.41-1.41,2.75-2.85,4.02-4.32,1.27-1.47,2.45-3.03,3.56-4.69-2.73,2.39-5.28,4.92-7.66,7.59s-4.9,5.23-7.55,7.68ZM789.76,219.59c-.1.43-.65,1.1-1.65,2.02-1,.91-1.66,1.56-1.98,1.94.78-.64,1.58-1.27,2.41-1.88.82-.61,1.23-1.3,1.22-2.08ZM790.98,226.57c-.32.39-.58.71-.8.98-.22.27-.53.56-.92.89.33-.24.98-.8,1.95-1.68.97-.87,1.96-1.8,2.95-2.78,1-.98,1.87-1.9,2.64-2.75.76-.85,1.07-1.34.91-1.47-.16-.13-.53.14-1.14.8-.61.66-1.31,1.4-2.11,2.22-.8.82-1.55,1.62-2.25,2.39-.7.77-1.11,1.24-1.24,1.39ZM805.21,215.31c.05-.22.13-.4.26-.56-.14.01-.29.15-.43.41-.15.26-.09.31.17.14ZM806.62,212.41c-.13.15-.32.51-.58,1.06-.26.56-.32.9-.16,1.02.15.13.33-.21.54-1.01.2-.8.27-1.15.21-1.08Z"/>
  </g>
  <g>
    <path class="cls-3" d="M627.73,312.96c-7.42-3.37-24.81-2.48-24.81-2.48,13.32-17.8,9.74-26.39,9.74-26.39-33.38-27.8-95.42-8.7-122.26,1.59,25.01-91.33-45.5-119.14-54.16-114.59-8.79,4.61-21.5,26.75-21.5,26.75-10.96-20.6-25.66-28.55-25.66-28.55-62.93,16.67-53.12,101.54-50.56,118.18-26.56-12.82-80.11-33.05-111.81-6.65,0,0-5.26,9.12,8.06,26.93,0,0-16.22-3.06-23.64.3s-11.12,79.03,79.8,103.7c0,0,16.06,3.78,30.73,5.13-3.6,2.63-7.45,5.14-11.59,7.48-12.87,7.28-34.4,33.83-37.97,47.88-5.26,20.67-7.1,29.85,14.71,55.86,0,0,8.32.45,26.6-12.49,0,0,.75,26.33,4.36,28.19,7.12,3.67,75.26,16.02,102.99-61.62,26.27,83.75,93.88,75.06,101.15,71.31,3.6-1.86,4.36-28.19,4.36-28.19,18.28,12.94,26.6,12.49,26.6,12.49,21.81-26.01,17.67-55.16,12.41-75.84-3.58-14.05-12.39-27.4-25.27-34.68-4.96-2.8-9.58-5.79-13.99-8.85,11.13-1.65,20.73-3.91,20.73-3.91,90.92-24.66,88.38-98.16,80.97-101.52Z"/>
    <path class="cls-1" d="M631.1,312.16c-7.54-3.42-25.21-2.52-25.21-2.52,13.54-18.09,9.89-26.81,9.89-26.81-33.92-28.25-96.97-8.84-124.23,1.61,25.41-92.8-46.24-121.06-55.03-116.45-8.93,4.69-21.85,27.18-21.85,27.18-11.14-20.94-26.07-29.01-26.07-29.01-63.94,16.94-53.98,103.18-51.38,120.09-26.99-13.02-81.4-33.58-113.61-6.76,0,0-5.35,9.27,8.19,27.36,0,0-16.48-3.11-24.02.31-7.54,3.42-11.3,80.31,81.09,105.37,0,0,16.32,3.84,31.23,5.21-3.66,2.67-7.57,5.22-11.78,7.6-13.08,7.39-34.95,34.37-38.59,48.65-5.35,21.01-7.22,30.33,14.95,56.76,0,0,8.46.46,27.03-12.69,0,0,.77,26.76,4.43,28.64,7.23,3.73,76.48,16.28,104.65-62.62,26.69,85.1,95.4,76.27,102.79,72.46,3.66-1.89,4.43-28.64,4.43-28.64,18.57,13.14,27.03,12.69,27.03,12.69,22.16-26.43,17.96-56.05,12.61-77.06-3.63-14.28-12.59-27.85-25.67-35.24-5.04-2.85-9.74-5.88-14.22-8.99,11.31-1.68,21.07-3.98,21.07-3.98,92.38-25.06,89.81-99.74,82.28-103.17Z"/>
    <path class="cls-4" d="M603.35,322.95c-6.45-2.93-24.27-2-24.27-2,11.59-15.49,10.97-23.14,10.97-23.14-29.05-24.19-85.53-7.39-108.88,1.56,21.76-79.47-38.56-106.06-46.09-102.1-7.65,4.01-19.74,25.67-19.74,25.67-9.54-17.93-23.26-27.33-23.26-27.33-54.75,14.51-45.29,90.84-43.06,105.32-23.11-11.15-72.28-29.4-99.86-6.43,0,0-2.01,8.58,9.59,24.07,0,0-17.26-2.28-23.71.65-6.45,2.93-6.53,68.39,72.58,89.85,0,0,13.98,3.29,26.74,4.46-3.13,2.29-6.77,4.03-10.08,6.51-12.18,9.13-29.93,29.43-33.04,41.66-4.58,17.99-9.74,27.25,9.24,49.88,0,0,10.8-.89,26.71-12.15,0,0,.7,25.69,3.83,27.31,6.19,3.19,65.44,11.16,89.57-56.4,22.85,72.87,81.3,67.77,87.63,64.5,3.13-1.62,4.18-26.99,4.18-26.99,15.9,11.26,25.53,12.24,25.53,12.24,18.98-22.63,13-49.37,8.42-67.36-3.11-12.23-10.78-23.84-21.98-30.18-4.31-2.44-8.34-5.04-12.17-7.7,9.69-1.44,18.04-3.41,18.04-3.41,79.11-21.46,79.59-85.57,73.14-88.5Z"/>
    <path class="cls-2" d="M605.09,322.06c-6.61-3-22.11-2.21-22.11-2.21,11.88-15.87,8.68-23.52,8.68-23.52-29.76-24.78-85.06-7.75-108.98,1.41,22.29-81.41-40.56-106.2-48.28-102.15-7.84,4.11-19.17,23.84-19.17,23.84-9.77-18.36-22.87-25.45-22.87-25.45-56.09,14.86-47.35,90.51-45.07,105.34-23.67-11.42-71.41-29.46-99.66-5.93,0,0-4.69,8.13,7.19,24,0,0-14.46-2.73-21.07.27s-9.91,70.45,71.13,92.44c0,0,14.32,3.37,27.39,4.57-3.21,2.34-7.06,3.97-10.33,6.67-11.62,9.56-30.66,30.15-33.85,42.68-4.69,18.43-6.33,26.61,13.11,49.79,0,0,7.42.4,23.71-11.13,0,0,.67,23.47,3.88,25.13,6.34,3.27,67.09,14.28,91.8-54.93,23.41,74.65,83.68,66.91,90.17,63.56,3.21-1.66,3.88-25.13,3.88-25.13,16.29,11.53,23.71,11.13,23.71,11.13,19.44-23.18,15.75-49.17,11.07-67.6-3.19-12.52-11.05-24.43-22.52-30.91-4.42-2.5-8.54-5.16-12.47-7.89,9.92-1.47,18.48-3.49,18.48-3.49,81.04-21.99,78.79-87.5,72.17-90.5Z"/>
    <ellipse class="cls-3" cx="481.54" cy="390.21" rx="20.89" ry="14.61"/>
    <ellipse class="cls-3" cx="360.29" cy="390.21" rx="20.89" ry="14.61"/>
    <path class="cls-6" d="M402.48,380.33s6.91,8.39,16.18,7.86c9.27-.53,16.64-6.18,18.46-7.52,1.82-1.34,3.54-2.11,5.48-.34s2.19,2.94,1.2,5.38c-.99,2.44-4.44,6.6-11.21,9.21-6.77,2.61-15.49,3.59-21.62,1.71-6.12-1.88-12.58-5.64-15.24-8.53-.7-.76-3.26-5.55-.76-7.97,2.5-2.42,5.72-1.48,7.51.21Z"/>
    <g>
      <circle class="cls-6" cx="504.19" cy="371.41" r="3.14"/>
      <circle class="cls-6" cx="514.21" cy="363.49" r="3.14"/>
      <circle class="cls-6" cx="516.53" cy="374.11" r="3.14"/>
    </g>
    <g>
      <circle class="cls-6" cx="334.5" cy="371.41" r="3.14"/>
      <circle class="cls-6" cx="324.49" cy="363.49" r="3.14"/>
      <circle class="cls-6" cx="322.16" cy="374.11" r="3.14"/>
    </g>
    <g>
      <path class="cls-6" d="M472.7,312.1c30.76-4.89,34.72,66.62,0,61.78-25.19-3.51-23.87-57.99,0-61.78ZM474.75,326.51c-8.24,1.36-9.69,25.99,4.12,21.62,7.3-2.31,5.85-23.27-4.12-21.62Z"/>
      <path class="cls-5" d="M474.75,326.51c9.97-1.65,11.42,19.31,4.12,21.62-13.81,4.37-12.36-20.26-4.12-21.62Z"/>
    </g>
    <g>
      <path class="cls-6" d="M359.39,312.1c30.76-4.89,34.72,66.62,0,61.78-25.19-3.51-23.87-57.99,0-61.78ZM361.45,326.51c-8.24,1.36-9.69,25.99,4.12,21.62,7.3-2.31,5.85-23.27-4.12-21.62Z"/>
      <path class="cls-5" d="M361.45,326.51c9.97-1.65,11.42,19.31,4.12,21.62-13.81,4.37-12.36-20.26-4.12-21.62Z"/>
    </g>
  </g>
</svg>