<svg xmlns="http://www.w3.org/2000/svg" xml:space="preserve" id="animal" x="0" y="0" style="enable-background:new 0 0 512 512" version="1.1" viewBox="0 0 512 512">
  <g>
    <g id="color_00000133524374143417487430000010400738427205601465_">
      <g>
        <path d="M288.64,116.61c0.11-0.16,11.48-16.13,28.79-15.22c8.19,0.42,14.68,3.99,17.8,9.77
				c2.82,5.22,2.53,11.46-0.78,17.11c-4.74,8.09-16.74,11.1-24.19,12.2c-0.28-0.02-0.55,0.02-0.8,0.11
				c-3.21,0.44-5.41,0.51-5.48,0.52c-0.26,0.01-0.51,0.07-0.74,0.17c-0.7-1.69-1.43-3.39-2.21-5.1c-0.97-2.14-2.02-4.18-3.12-6.16
				c1,0.19,2.04,0.29,3.11,0.29c4.89,0,10.33-1.86,14.37-4.43c3.81-2.43,5.84-5.13,5.71-7.61c-0.06-1.23-0.71-2.98-3.44-4.34
				c-10.23-5.12-19.27,8.81-21.63,12.87c-2.26-3.66-4.76-7.03-7.48-10.08C288.58,116.69,288.61,116.65,288.64,116.61z" style="fill:#ffcb27"></path>
      </g>
      <g>
        <path d="M297.69,127.94c2.06-3.52,10.42-16.55,19.08-12.22c1.5,0.75,2.29,1.64,2.34,2.66
				c0.09,1.68-1.7,3.85-4.79,5.82C309.67,127.16,302.73,129.19,297.69,127.94z" style="fill:#f6edcc"></path>
      </g>
      <g>
        <path d="M270.79,102.81c-3.49-1.82-7.19-3.3-11.06-4.46l1.65-11.79c2.25,1.25,4.84,1.98,7.62,1.98
				c1.19,0,2.34-0.14,3.45-0.39L270.79,102.81z" style="fill:#ffcb27"></path>
      </g>
      <g>
        <path d="M269,62.83c6.25,0,11.34,4.87,11.34,10.86c0,5.99-5.09,10.86-11.34,10.86s-11.34-4.87-11.34-10.86
				C257.66,67.7,262.75,62.83,269,62.83z" style="fill:#9d6826"></path>
      </g>
      <g>
        <path d="M194.61,107.44c0.07,0.12,0.15,0.22,0.23,0.31c-2.96,1.73-5.82,3.63-8.54,5.69l-7.56-14.31
				c3.57-0.05,6.86-1.28,9.44-3.32L194.61,107.44z" style="fill:#ffcb27"></path>
      </g>
      <g>
        <path d="M167.18,84.29c0-5.99,5.09-10.86,11.34-10.86s11.34,4.87,11.34,10.86c0,5.99-5.09,10.86-11.34,10.86
				S167.18,90.28,167.18,84.29z" style="fill:#9d6826"></path>
      </g>
      <g>
        <path d="M169.3,137.15c-1.05-1.01-10.23-9.64-17.75-9.64c-0.05,0-0.11,0-0.16,0c-2.23,0.04-4.11,0.84-5.58,2.38
				c-2.44,2.55-2.47,5.68-0.09,8.37c2.46,2.77,7.28,4.8,12.68,4.8c3.19,0,6.58-0.71,9.81-2.39c-0.65,2.34-1.15,4.7-1.53,7.03
				c-0.41,0.31-1.12,0.84-2.09,1.45c-0.01,0-0.01,0.01-0.02,0.01c-0.17,0.1-0.34,0.21-0.52,0.32c-0.01,0.01-0.02,0.01-0.03,0.02
				c-0.18,0.11-0.37,0.22-0.56,0.33c-0.01,0.01-0.02,0.01-0.03,0.02c-1.23,0.7-2.74,1.45-4.45,2.09c-0.01,0-0.01,0-0.02,0.01
				c-0.27,0.1-0.55,0.2-0.83,0.3c-0.03,0.01-0.06,0.02-0.09,0.03c-0.26,0.09-0.53,0.17-0.79,0.25c-0.04,0.01-0.08,0.03-0.12,0.04
				c-0.26,0.08-0.53,0.15-0.8,0.23c-0.05,0.01-0.09,0.02-0.14,0.04c-0.28,0.07-0.56,0.14-0.85,0.21c-0.04,0.01-0.07,0.02-0.11,0.03
				c-0.32,0.07-0.64,0.14-0.97,0.2c0,0-0.01,0-0.01,0c-1,0.18-2.05,0.31-3.12,0.36c-0.06,0-0.13,0-0.19,0.01
				c-0.28,0.01-0.57,0.02-0.86,0.02c-0.1,0-0.2,0-0.29,0c-0.26,0-0.51-0.01-0.77-0.02c-0.12-0.01-0.23-0.01-0.35-0.02
				c-0.25-0.02-0.49-0.03-0.74-0.06c-0.13-0.01-0.25-0.03-0.38-0.04c-0.24-0.03-0.49-0.06-0.73-0.1c-0.13-0.02-0.26-0.04-0.39-0.06
				c-0.25-0.04-0.49-0.09-0.74-0.14c-0.13-0.03-0.26-0.05-0.39-0.08c-0.27-0.06-0.54-0.13-0.8-0.2c-0.11-0.03-0.22-0.05-0.33-0.09
				c-0.38-0.11-0.76-0.22-1.15-0.35c-0.57-0.2-1.15-0.42-1.73-0.66c-0.05-0.02-0.09-0.04-0.14-0.06c-0.54-0.23-1.08-0.47-1.61-0.74
				c-6.72-3.31-11.79-8.99-12.79-14.66c-0.9-5.13,1.49-10.14,6.91-14.51c13.99-11.24,36.49,4.27,39.6,6.51
				C171.63,131.21,170.34,134.16,169.3,137.15z" style="fill:#ffcb27"></path>
      </g>
      <g>
        <path d="M167.89,138.57c-7.91,4.43-17.22,2.25-20.67-1.64c-1.18-1.33-2.13-3.39,0.04-5.66
				c1.11-1.16,2.47-1.73,4.17-1.76c0.04,0,0.09,0,0.13,0C158.12,129.51,166.77,137.5,167.89,138.57z" style="fill:#f6edcc"></path>
      </g>
      <g>
        <path d="M122.8,137.05c0.97,5.53,4.52,10.23,8.95,13.74h-29.21v-64.6c16.51,3.46,30.87,13.52,39.86,27.8
				c-3.93,0.51-7.77,1.94-11.26,4.74C122.76,125.47,121.98,132.41,122.8,137.05z" style="fill:#0d4960"></path>
      </g>
      <g>
        <path d="M167.96,222.7v9.44c0,7.8-6.34,14.14-14.14,14.14H29.96c-7.8,0-14.14-6.34-14.14-14.14v-89.36
				c0-40.76,33.16-73.93,73.93-73.93c0.95,0,1.9,0.04,2.85,0.07l0.09,0c0.04,0,0.07,0,0.1,0c0.01,0,0.03,0,0.03,0
				c1.04,0.04,2.13,0.11,3.35,0.21l0.52,0.04c1.02,0.09,2.04,0.21,3.05,0.34l0.83,0.11c0.9,0.13,1.8,0.27,2.76,0.44
				c0.38,0.07,0.76,0.13,1.14,0.2c0.77,0.15,1.53,0.31,2.29,0.48c0.54,0.12,1.08,0.24,1.62,0.37c0.61,0.15,1.22,0.31,1.83,0.47
				c0.69,0.19,1.39,0.38,2.07,0.59c0.44,0.13,0.88,0.27,1.33,0.41c0.85,0.27,1.7,0.56,2.54,0.86c0.27,0.1,0.54,0.2,0.82,0.3
				c0.99,0.37,1.99,0.76,3,1.19l0.32,0.13c9.72,4.12,18.38,10.08,25.74,17.7c6.98,7.24,12.4,15.54,16.14,24.74
				c-4.59-1.96-9.88-3.55-15.22-3.74c-9.47-16.22-25.3-27.67-43.61-31.51c-0.32-0.07-0.64-0.12-0.96-0.18l-0.28-0.05
				c-0.41-0.08-0.82-0.15-1.23-0.22c-0.58-0.1-1.18,0.06-1.62,0.44c-0.45,0.38-0.71,0.94-0.71,1.53v69c0,1.1,0.9,2,2,2h37.6
				c0.08,0.04,0.16,0.07,0.24,0.1c0.36,0.17,0.72,0.32,1.08,0.48c0.19,0.08,0.39,0.17,0.58,0.25c0.56,0.23,1.12,0.44,1.68,0.63
				c0.7,0.24,1.38,0.44,2.07,0.61c0.22,0.06,0.43,0.09,0.65,0.14c0.47,0.1,0.93,0.21,1.39,0.28c0.25,0.04,0.49,0.07,0.73,0.11
				c0.42,0.06,0.85,0.11,1.26,0.15c0.25,0.02,0.49,0.04,0.74,0.05c0.41,0.03,0.82,0.04,1.22,0.05c0.13,0,0.26,0.02,0.39,0.02
				c0.1,0,0.2-0.01,0.31-0.01c0.45-0.01,0.88-0.02,1.32-0.05c0.19-0.01,0.39-0.02,0.58-0.03c0.53-0.04,1.05-0.1,1.56-0.18
				c0.09-0.01,0.17-0.02,0.26-0.03c0.61-0.09,1.21-0.2,1.79-0.33c0.1-0.02,0.2-0.05,0.29-0.07c0.47-0.11,0.93-0.22,1.38-0.34
				c0.17-0.05,0.34-0.1,0.5-0.15c0.37-0.11,0.74-0.22,1.1-0.34c0.18-0.06,0.35-0.12,0.53-0.18c0.34-0.12,0.67-0.24,1-0.37
				c0.16-0.06,0.33-0.13,0.49-0.19c0.34-0.14,0.67-0.28,0.99-0.42c0.13-0.06,0.26-0.11,0.39-0.17c0.43-0.2,0.84-0.4,1.23-0.6
				c0.01-0.01,0.02-0.01,0.03-0.02c0.41-0.21,0.79-0.42,1.17-0.63c0.11-0.06,0.21-0.12,0.32-0.19c0.18-0.1,0.37-0.21,0.54-0.31
				c-1,11.6,0.75,22.19,2.03,27.96v5.35c-0.01,0.02-0.02,0.03-0.04,0.05c-0.26,0.33-0.51,0.68-0.75,1.04
				c-0.14,0.2-0.28,0.39-0.41,0.59c-0.12,0.19-0.23,0.4-0.34,0.6c-2.7,4.65-3.75,11.09-3.15,17.85c0.01,0.06,0.01,0.13,0.02,0.19
				c0.24,2.52,0.7,5.08,1.4,7.6c0.05,0.19,0.1,0.38,0.16,0.57c0.14,0.47,0.29,0.94,0.44,1.41c0.1,0.32,0.21,0.63,0.32,0.95
				c0.15,0.41,0.3,0.82,0.45,1.23c0.15,0.39,0.31,0.77,0.47,1.16c0.15,0.35,0.29,0.7,0.45,1.05c0.22,0.48,0.45,0.95,0.69,1.42
				C167.77,222.29,167.86,222.5,167.96,222.7z" style="fill:#ff9292"></path>
      </g>
      <g>
        <path d="M272.63,235.69c-6.69,1.9-13.72,3.33-20.81,4.33c1.02-1.69,1.81-4.04,1.81-7.23
				c0-8.23-4.69-12.29-4.89-12.46c-0.84-0.71-2.08-0.61-2.8,0.23c-0.72,0.83-0.62,2.09,0.2,2.81c0.14,0.12,3.48,3.13,3.48,9.41
				c0,5.84-3.45,7.41-3.56,7.46c-0.31,0.12-0.56,0.32-0.77,0.56c-28.53,2.95-56.75-1.11-67.18-11.08c-2.67-2.55-4.77-5.44-6.4-8.45
				c0-0.01-0.01-0.02-0.01-0.03c-0.4-0.75-0.77-1.51-1.12-2.27c-0.07-0.16-0.14-0.32-0.21-0.49c-0.22-0.5-0.43-1.01-0.63-1.51
				c-0.16-0.41-0.31-0.82-0.46-1.24c-0.06-0.18-0.12-0.37-0.19-0.55c-1.63-4.94-2.18-9.87-1.99-13.94c0.04-0.76,0.1-1.5,0.19-2.22
				c0-0.04,0.01-0.08,0.01-0.11c0.07-0.61,0.17-1.2,0.28-1.77c0.03-0.16,0.06-0.32,0.09-0.48c0.06-0.3,0.13-0.61,0.2-0.9
				c0.1-0.39,0.2-0.78,0.31-1.16c0.06-0.21,0.13-0.42,0.2-0.63c0.14-0.43,0.29-0.84,0.45-1.24c0.05-0.13,0.1-0.25,0.16-0.38
				c0.19-0.45,0.39-0.89,0.61-1.3c0.03-0.05,0.05-0.09,0.08-0.14c0.51-0.94,1.09-1.78,1.73-2.48c0.02-0.02,0.03-0.04,0.04-0.05
				c0.33-0.36,0.68-0.69,1.04-0.97c0.66-0.52,0.92-1.39,0.67-2.19c-0.15-0.46-14.33-45.85,15.38-68.51
				c14.59-11.13,33.25-17.28,50.81-17.28c5.7,0,11.28,0.65,16.57,1.98c18.42,4.64,32.75,17.22,41.44,36.39
				c12.74,28.09,15.03,53.73,6.45,72.21C297.97,222.7,287.18,231.57,272.63,235.69z" style="fill:#ffcb27"></path>
      </g>
      <g>
        <path d="M75.37,259.82c2.56-1.72,25.29-3.35,58.88-3.35c3.79,0,7.73,0.02,11.79,0.06
				c44.88,0.48,68.37,3.32,71.2,5.74c8.05,6.9,24.32,88.69,24.7,98.52c0.23,6.06-2.74,8.9-3.65,9.62c-0.65,0.12-1.74,0.25-3.2,0.38
				c0.02-0.23,0.03-0.46,0.04-0.69c0.4-13.02-18.53-93.59-24.86-99.57c-1.36-1.28-4.18-3.95-72.78-5.01
				c-28.33-0.44-56.46-0.39-64.72-0.37C73.26,262.55,74.12,260.7,75.37,259.82z" style="fill:#6cea49"></path>
      </g>
      <g>
        <path d="M245.33,366.22c2.85,5.65,8.05,9.63,15.11,11.54c5.96,1.6,13.37,2.51,20.9,2.51
				c7.67,0,15.45-0.94,21.92-3.04c0.26,0.26,0.59,0.46,0.96,0.55c0.76,0.53,2.85,3.14,2.57,5.46c-0.21,1.73-1.85,3.02-4.89,3.84
				c-5.69,1.54-51.37,3.06-97.76,3.27c-65.99,0.29-92.76-2.1-95.63-4.23c-2.89-2.14-4.45-4.33-4.52-6.31
				c-0.07-2.17,1.66-3.68,1.71-3.73c0.09-0.08,0.18-0.17,0.25-0.26c7.07,1.49,22.2,2.03,39.84,2.03c38.76,0,89.64-2.62,93.78-3.61
				c0.21-0.05,0.41-0.13,0.59-0.25C240.36,373.87,243.89,371.57,245.33,366.22z" style="fill:#9fff88"></path>
      </g>
      <g>
        <path d="M330.61,396.12c3.13,7.33,8.29,13.59,15.2,18.57c-1.4,1.38-3.63,3.87-5.35,7.2
				c-5.26-21.72-25.51-32.6-30.85-35.12c1.28-1.92,1.29-3.91,1.14-5.03c-0.3-2.23-1.59-4.65-3.09-6.21
				c4.14-1.91,7.44-4.44,9.35-7.68c3.72-6.31,4.31-11.92,4.74-16.01c0.49-4.69,0.77-6.2,3.35-6.85c4.68-1.17,10.05,0.35,13.03,1.46
				c-2.22,2.7-4.16,5.78-5.7,9.3C326.11,370.17,325.49,384.14,330.61,396.12z" style="fill:#f6edcc"></path>
      </g>
      <g>
        <path d="M79.67,312.25c-5.29-17.73-7.85-33.44-7.35-43.08c50.11-0.21,129.4,0.77,135.24,4.33
				c5.15,5.38,25.47,89.58,23.51,97.28c-0.08,0.11-0.13,0.24-0.18,0.36c-11.84,0.86-35.1,1.87-59.4,2.36
				c-45.48,0.92-64.39-0.55-66.91-2.24C98.53,367.24,90.15,347.39,79.67,312.25z" style="fill:#9fff88"></path>
      </g>
      <g>
        <path d="M342.87,445.53c-0.96,1.84-7.43,7.94-50.47,9.29c-62.92,1.98-190.54-2.96-205.78-7.01
				c-6.11-1.62-10.39-4.84-12.71-9.56c-3.36-6.84-2.51-16.71,2.47-28.56c8.67-20.63,27.88-20.95,28.7-20.95c0.1,0,0.2-0.02,0.3-0.03
				c0.25,0.2,0.49,0.4,0.75,0.6c5.5,4.08,48.1,5.04,86.95,5.04c3.74,0,7.44-0.01,11.08-0.02c42.31-0.18,92.1-1.6,98.79-3.4
				c1.35-0.36,2.46-0.82,3.4-1.33c0.14,0.11,0.29,0.21,0.46,0.28c0.26,0.11,25.93,11.11,30.27,35.29v4.97c0,0.7,0.36,1.31,0.9,1.67
				c0.02,2.02,0.36,4.15,1.14,6.39c0.83,2.37,2.21,4.4,4.03,6.15l-0.22,0.16C343.01,444.64,343.16,444.98,342.87,445.53z" style="fill:#ff9f9f"></path>
      </g>
      <g>
        <path d="M342.89,436.88c-3.57-10.19,4.38-18.15,6.35-19.93c3.43,2.09,7.2,3.92,11.32,5.43
				c14.46,5.3,24.14,6.19,31.2,6.83c7.13,0.65,11.06,1.01,14.95,5.19c7.93,8.52,8.8,12.74,8.81,12.74c0.04,0.29,0.15,0.55,0.3,0.78
				c-6.01,2.05-12.58,3.04-19.85,3.04C373.55,450.97,347.26,449.37,342.89,436.88z" style="fill:#9d6826"></path>
      </g>
      <g>
        <path d="M451.73,412.5c-9.16,17.48-19.4,28.45-32.26,34.01c-0.12-0.73-1.2-5.58-9.83-14.84
				c-4.93-5.3-10.21-5.78-17.51-6.45c-6.84-0.62-16.22-1.48-30.19-6.6c-13.47-4.94-23.03-13.26-27.65-24.07
				c-4.68-10.95-4.06-23.82,1.79-37.21c11.52-26.38,49.49-25.81,49.87-25.8c1.11,0.03,2.02-0.85,2.05-1.95s-0.85-2.02-1.95-2.05
				c-1.38-0.03-28.54-0.45-45.02,15.74c-2.83-1.2-10.19-3.86-16.9-2.18c-5.42,1.35-5.87,5.71-6.36,10.31
				c-0.41,3.94-0.92,8.83-4.2,14.4c-6.76,11.47-35.82,12.46-52.08,8.08c-6.25-1.68-10.72-5.22-12.95-10.24
				c-2.73-6.14-2-14.14,2-21.96c6.91-13.52,25.94-19.51,26.13-19.57c1.06-0.32,1.65-1.44,1.32-2.5s-1.44-1.65-2.5-1.33
				c-0.85,0.26-20.83,6.53-28.52,21.57c-1.32,2.58-2.31,5.2-2.99,7.78c-2.11-12.09-5.72-30.53-9.8-47.5
				c0.32-0.15,0.61-0.39,0.82-0.71c7.49-11.63,36.58-15.33,60.15-12.92c14.98,1.54,26.2-1.44,32.46-8.59
				c5.96-6.82,7.33-17.08,4.08-30.51c-7.15-29.59-21.33-40.83-21.93-41.29c-0.02-0.01-0.04-0.02-0.06-0.03
				c5.61-16.78,3.88-37.98-4.95-61.02c1-0.05,3.01-0.19,5.61-0.55c70.43,10.81,92.82,86.95,95.5,115.45
				c1.98,21.09,10.69,31.47,22.75,45.84c3.99,4.76,8.52,10.16,13.32,16.56C460.76,347.49,465.07,387.07,451.73,412.5z" style="fill:#ffcb27"></path>
      </g>
      <g>
        <path d="M486.24,366.53c-2.23,14.86-17.97,16.47-22.87,16.62c0.12-2.15,0.17-4.32,0.15-6.52
				c2.04,0.65,5.79,1.4,9.82-0.06c4.36-1.58,7.81-5.23,10.28-10.87c1.63-3.72,2.57-7.33,3.04-10.68
				C486.94,358.44,486.87,362.29,486.24,366.53z" style="fill:#ffcb27"></path>
      </g>
      <g>
        <path d="M489.67,347.9c-1.8-8.15-5.07-12.8-5.29-13.11c-0.6-0.82-1.71-1.07-2.6-0.57c-0.89,0.5-1.26,1.59-0.86,2.52
				c0.03,0.08,2.16,5.24,2.13,12.66c-3.43-0.17-11.65-1.69-12.76-12.36c-1.23-11.84,8.58-24.04,12.06-27.95
				c3.74,3.05,13.85,12.37,13.85,23.98C496.18,342.05,492.35,346.14,489.67,347.9z" style="fill:#9d6826"></path>
      </g>
      <g>
        <circle cx="394.84" cy="105.02" r="52.27" style="fill:#633535" transform="rotate(-13.286 394.753 105.011)"></circle>
      </g>
      <g>
        <circle cx="394.84" cy="105.02" r="48.27" style="fill:#59afea" transform="rotate(-45.001 394.84 105.027)"></circle>
      </g>
      <g>
        <path d="M372.75,107.75c0-1.1,0.9-2,2-2h22.43V81.08c0-1.1,0.9-2,2-2s2,0.9,2,2v26.68c0,1.1-0.9,2-2,2h-24.43
				C373.65,109.75,372.75,108.86,372.75,107.75z" style="fill:#633535"></path>
      </g>
      <g>
        <path d="M84.54,166.79H29.82c-1.1,0-2,0.9-2,2v63.36c0,1.18,0.96,2.14,2.14,2.14h54.57c1.1,0,2-0.9,2-2v-63.5
				C86.54,167.69,85.64,166.79,84.54,166.79z" style="fill:#633535"></path>
      </g>
      <g>
        <rect width="50.71" height="59.5" x="31.82" y="170.79" style="fill:#0d4960"></rect>
      </g>
      <g>
        <path d="M84.36,81.11C69,82.44,54.75,89.45,44.23,100.85c-10.58,11.47-16.41,26.36-16.41,41.94v10c0,1.1,0.9,2,2,2
				h54.71c1.1,0,2-0.9,2-2V83.1c0-0.56-0.24-1.1-0.65-1.47C85.47,81.25,84.93,81.06,84.36,81.11z" style="fill:#633535"></path>
      </g>
      <g>
        <path d="M82.54,150.79H31.82v-8c0-29.05,22.1-53.88,50.71-57.47V150.79z" style="fill:#0d4960"></path>
      </g>
      <g>
        <path d="M153.96,166.79h-53.43c-1.1,0-2,0.9-2,2v63.5c0,1.1,0.9,2,2,2h53.29c1.18,0,2.14-0.96,2.14-2.14v-63.36
				C155.96,167.69,155.07,166.79,153.96,166.79z" style="fill:#633535"></path>
      </g>
      <g>
        <rect width="49.43" height="59.5" x="102.54" y="170.79" style="fill:#0d4960"></rect>
      </g>
      <g>
        <path d="M116.75,208.96l5.87-0.12l3.43,4.77c0.38,0.53,0.99,0.83,1.62,0.83c0.11,0,0.22-0.01,0.33-0.03
				c0.75-0.12,1.37-0.67,1.59-1.39l1.7-5.62l5.59-1.79c0.73-0.23,1.26-0.86,1.37-1.61c0.11-0.75-0.21-1.5-0.84-1.94l-4.82-3.35
				l0.03-5.87c0-0.76-0.43-1.46-1.11-1.8c-0.68-0.34-1.5-0.26-2.1,0.2l-4.68,3.55l-5.58-1.84c-0.72-0.24-1.52-0.05-2.05,0.5
				c-0.53,0.54-0.71,1.34-0.46,2.06l1.93,5.55l-3.47,4.74c-0.45,0.61-0.51,1.43-0.16,2.11C115.29,208.55,116,208.96,116.75,208.96z" style="fill:#633535"></path>
      </g>
      <g>
        <path d="M122.7,200.72l-0.94-2.71l2.73,0.9c0.62,0.2,1.31,0.09,1.84-0.31l2.29-1.74l-0.01,2.87
				c0,0.66,0.32,1.28,0.86,1.65l2.36,1.64l-2.74,0.87c-0.63,0.2-1.12,0.7-1.31,1.33l-0.83,2.75l-1.68-2.33
				c-0.38-0.52-0.98-0.83-1.62-0.83c-0.01,0-0.03,0-0.04,0l-2.87,0.06l1.7-2.32C122.81,202.03,122.91,201.34,122.7,200.72z" style="fill:#ffcb27"></path>
      </g>
      <g>
        <path d="M49.94,205.34l-0.88,11.01c-0.06,0.76,0.32,1.49,0.97,1.88c0.32,0.19,0.67,0.28,1.02,0.28
				c0.38,0,0.76-0.11,1.09-0.32l9.28-6l10.21,4.24c0.7,0.29,1.51,0.16,2.08-0.34c0.57-0.5,0.81-1.28,0.62-2.02l-2.84-10.68l7.18-8.4
				c0.5-0.58,0.62-1.39,0.32-2.09s-0.97-1.17-1.73-1.21l-11.03-0.59l-5.77-9.43c-0.4-0.65-1.13-1.02-1.89-0.95
				c-0.76,0.07-1.41,0.56-1.69,1.27l-3.97,10.31l-10.75,2.57c-0.74,0.18-1.32,0.76-1.48,1.5c-0.17,0.74,0.1,1.52,0.69,2
				L49.94,205.34z" style="fill:#633535"></path>
      </g>
      <g>
        <path d="M54.86,195.95c0.64-0.15,1.16-0.61,1.4-1.23l2.9-7.51l4.2,6.87c0.34,0.56,0.94,0.92,1.6,0.95l8.04,0.43
				l-5.23,6.12c-0.43,0.5-0.58,1.18-0.41,1.81l2.07,7.78l-7.43-3.09c-0.61-0.25-1.3-0.19-1.85,0.17l-6.76,4.37l0.64-8.02
				c0.05-0.66-0.22-1.3-0.73-1.71l-6.25-5.07L54.86,195.95z" style="fill:#ffcb27"></path>
      </g>
      <g>
        <path d="M63.32,146.72c5.77,0,11.33-2.47,15.27-6.77c0.57-0.62,0.69-1.54,0.29-2.29c-0.4-0.75-1.22-1.16-2.06-1.04
				c-0.78,0.12-1.42,0.17-2.03,0.17c-7.51,0-13.62-6.11-13.62-13.62c0-6.02,4.04-11.39,9.82-13.07c0.82-0.24,1.39-0.96,1.44-1.81
				s-0.45-1.63-1.23-1.96c-2.52-1.04-5.17-1.57-7.88-1.57c-11.46,0-20.78,9.41-20.78,20.98S51.86,146.72,63.32,146.72z" style="fill:#633535"></path>
      </g>
      <g>
        <path d="M63.32,108.76c0.43,0,0.86,0.02,1.29,0.05c-4.55,3.25-7.44,8.57-7.44,14.36c0,8.63,6.24,15.83,14.44,17.33
				c-2.49,1.45-5.33,2.22-8.29,2.22c-9.25,0-16.78-7.62-16.78-16.98S54.06,108.76,63.32,108.76z" style="fill:#ffcb27"></path>
      </g>
      <g>
        <path d="M151.22,340.06c0.25,0.11,0.52,0.16,0.78,0.16c0.29,0,0.58-0.06,0.84-0.19c6.87-3.19,15.4-12.72,16.65-21.3
				c0.6-4.08-0.55-7.53-3.31-9.98c-3.01-2.67-5.81-2.73-7.61-2.31c-4.28,0.98-7.41,5.48-9.06,8.46c-3.1-2.88-9.02-7.54-13.87-6.37
				c-1.83,0.44-4.27,1.9-5.49,6.33C126.19,329.25,150.19,339.62,151.22,340.06z" style="fill:#ff9292"></path>
      </g>
      <g>
        <path d="M134,315.93c0.56-2.05,1.43-3.22,2.57-3.5c0.23-0.06,0.47-0.08,0.73-0.08c3.44,0,8.98,4.78,11.3,7.3
				c0.46,0.5,1.15,0.73,1.82,0.62c0.67-0.12,1.24-0.57,1.5-1.2c0.9-2.15,4.02-7.91,7.55-8.72c1.32-0.3,2.65,0.16,4.06,1.41
				c1.75,1.55,2.41,3.64,2.01,6.4c-0.97,6.68-7.91,14.79-13.59,17.85C145.42,333.04,131.59,324.68,134,315.93z" style="fill:#ff9292"></path>
      </g>
      <g>
        <circle cx="394.84" cy="105.02" r="36.27" style="fill:#fff" transform="rotate(-13.286 394.752 105.011)"></circle>
      </g>
      <g>
        <path d="M394.84,72.75c17.79,0,32.27,14.48,32.27,32.27s-14.48,32.27-32.27,32.27s-32.27-14.48-32.27-32.27
				S377.05,72.75,394.84,72.75z" style="fill:#fff"></path>
      </g>
    </g>
    <g id="corak_00000157277889070236992850000016348004191314491323_">
      <path d="M248.42,98.23c0.07,0.7,0.12,1.41,0.12,2.13c0,12.19-10.94,22.07-24.43,22.07c-11.36,0-20.9-7-23.64-16.49
			C215.11,97.77,232.12,95.3,248.42,98.23z M284.97,113.98c-5.27-4.14-11.16-7.47-17.54-9.81c-2.92,2.47-4.75,5.98-4.75,9.9
			c0,7.46,6.62,13.5,14.79,13.5c5.34,0,10.01-2.59,12.61-6.46C288.31,118.8,286.63,116.4,284.97,113.98z M244.25,128.43
			c0,4.5,4.13,8.14,9.21,8.14c5.09,0,9.21-3.65,9.21-8.14c0-4.5-4.13-8.14-9.21-8.14C248.38,120.29,244.25,123.94,244.25,128.43z
			 M198.82,121.15c-4.02,0-7.29,3.07-7.29,6.86s3.26,6.86,7.29,6.86s7.29-3.07,7.29-6.86S202.85,121.15,198.82,121.15z
			 M341.95,222.19c-0.46-9.34-7.55-16.57-15.82-16.16c-4.94,0.25-9.18,3.18-11.7,7.48c6.47,6.79,11.52,16.79,12.65,26.34
			c0.24,0,0.48,0,0.73-0.01C336.08,239.43,342.41,231.52,341.95,222.19z M338.89,150.9c-4.65,3.42-7.64,8.68-7.64,14.6
			c0,10.3,9.02,18.64,20.14,18.64c7.02,0,13.19-3.33,16.8-8.36C360.39,165.61,350.7,155.63,338.89,150.9z M367.04,192.29
			c-4.14,0-7.5,3.26-7.5,7.29c0,4.02,3.36,7.29,7.5,7.29s7.5-3.26,7.5-7.29C374.54,195.55,371.18,192.29,367.04,192.29z
			 M396.39,245.43c2.62,0,5.09-0.74,7.23-2.02c-1.77-10.59-4.79-20.89-10.34-30.2c-6.79,1.55-11.89,8.09-11.89,15.93
			C381.39,238.14,388.11,245.43,396.39,245.43z M391.46,258.72c-4.14,0-7.5,3.26-7.5,7.29s3.36,7.29,7.5,7.29
			c4.14,0,7.5-3.26,7.5-7.29S395.61,258.72,391.46,258.72z M414.03,283.16c-6.31,2.66-10.78,9.13-10.78,16.7
			c0,9.94,7.68,18,17.14,18c6.25,0,11.71-3.53,14.7-8.78C426.85,301.48,419.38,293.06,414.03,283.16z M287.11,339.72
			c-24.86-6.43-37.71,3.43-37.71,3.43l-3.43,15.43c0,0-1.71,4.29-1.71,5.57s3.86,6.43,15.86,11.57s23.57,4.71,41.57,0
			c18-4.71,17.14-15,17.14-15S311.96,346.15,287.11,339.72z M350.96,240.72c-3.55,0-6.43,3.07-6.43,6.86s2.88,6.86,6.43,6.86
			c3.55,0,6.43-3.07,6.43-6.86S354.51,240.72,350.96,240.72z M331.33,265.53c-0.72,4.51-2.71,7.46-5.38,9.61
			c-3.26,4.87-8.14,9.77-13.66,10.86c2.06,6.54,8.22,11.3,15.53,11.3c8.99,0,16.29-7.2,16.29-16.07
			C344.11,273.53,338.64,267.12,331.33,265.53z" style="fill:#9d6826"></path>
    </g>
    <g id="tummy_00000024715153347826744930000015574583315604641177_">
      <g>
        <path d="M166.68,201.29c0,0,19.29-13.29,58.29-13.29s51.86,12,56.57,25.29s-6,22.71-6,22.71s-27,9.43-54.86,7.71
				c-27.86-1.71-38.14-10.71-45-16.29s-8.57-9.43-8.57-9.43 M331.68,341.86c0,0-4.71-0.86-9.43,2.14c-4.71,3-3,10.29-3.86,17.57
				s-12.43,14.14-12.43,14.14s1.29,0.43,3.43,3.86c2.14,3.43-1.29,7.29-1.29,7.29l2.57,2.57c0,0,9,7.71,19.29,14.57
				c10.29,6.86,11.57,21,11.57,21s1.71-4.71,2.57-6.43c0.86-1.71,6.43-2.57,6.43-2.57s-7.71-6.43-12-11.57s-8.14-8.57-7.71-30.43
				c0.43-21.86,10.71-27,8.14-28.71c-2.57-1.71-13.29-1.71-13.29-1.71" style="fill:#f6edcc"></path>
      </g>
    </g>
    <g id="mata_00000054250951622418830220000005647733632604598434_">
      <path d="M273.46,174.93v1.29c0,1.44-0.37,2.79-1.09,4.04c-0.42,0.54-0.83,1.08-1.25,1.62c-1,0.99-2.17,1.68-3.53,2.06
			c-0.71,0.1-1.42,0.19-2.13,0.29c-1.1,0.04-2.13-0.19-3.08-0.69c-0.99-0.32-1.85-0.87-2.57-1.65c-0.78-0.72-1.33-1.58-1.65-2.57
			c-0.5-0.95-0.73-1.98-0.69-3.08v-1.29c0-1.44,0.37-2.79,1.09-4.04c0.42-0.54,0.83-1.08,1.25-1.62c1-0.99,2.17-1.68,3.53-2.06
			c0.71-0.1,1.42-0.19,2.13-0.29c1.1-0.04,2.13,0.19,3.08,0.69c0.99,0.32,1.85,0.87,2.57,1.65c0.78,0.72,1.33,1.58,1.65,2.57
			C273.28,172.8,273.51,173.83,273.46,174.93z M194.99,175.06c-0.32-0.99-0.87-1.85-1.65-2.57c-0.72-0.78-1.58-1.33-2.57-1.65
			c-0.95-0.5-1.98-0.73-3.08-0.69c-0.71,0.1-1.42,0.19-2.13,0.29c-1.36,0.38-2.53,1.07-3.53,2.06c-0.42,0.54-0.83,1.08-1.25,1.62
			c-0.72,1.25-1.09,2.59-1.09,4.04v1.61c-0.04,1.1,0.19,2.13,0.69,3.08c0.32,0.99,0.87,1.85,1.65,2.57
			c0.72,0.78,1.58,1.33,2.57,1.65c0.95,0.5,1.98,0.73,3.08,0.69c0.71-0.1,1.42-0.19,2.13-0.29c1.36-0.38,2.53-1.07,3.53-2.06
			c0.42-0.54,0.83-1.08,1.25-1.62c0.72-1.25,1.09-2.59,1.09-4.04v-1.61C195.72,177.05,195.49,176.02,194.99,175.06z M193.14,200.5
			c-5.15,0-5.16,8,0,8C198.29,208.5,198.3,200.5,193.14,200.5z M249.71,198.25c-5.15,0-5.16,8,0,8
			C254.86,206.25,254.87,198.25,249.71,198.25z" style="fill:#633535"></path>
    </g>
    <g id="_x30_3">
      <g>
        <g>
          <path d="M178.52,99.15c-8.46,0-15.34-6.67-15.34-14.86s6.88-14.86,15.34-14.86s15.34,6.66,15.34,14.86
					S186.98,99.15,178.52,99.15z M178.52,73.43c-6.25,0-11.34,4.87-11.34,10.86c0,5.99,5.09,10.86,11.34,10.86
					s11.34-4.87,11.34-10.86C189.86,78.3,184.77,73.43,178.52,73.43z M269,88.54c-8.46,0-15.34-6.66-15.34-14.86
					s6.88-14.86,15.34-14.86s15.34,6.67,15.34,14.86S277.46,88.54,269,88.54z M269,62.83c-6.25,0-11.34,4.87-11.34,10.86
					c0,5.99,5.09,10.86,11.34,10.86s11.34-4.87,11.34-10.86C280.34,67.7,275.25,62.83,269,62.83z" style="fill:#633535"></path>
        </g>
        <g>
          <g>
            <path d="M227.31,245.8c-22.79,0-42.96-4.59-51.94-13.17c-9.69-9.26-12.67-22.38-12.23-31.56
						c0.33-6.83,2.45-12.52,5.87-15.87c-2.14-7.81-11.88-49.51,17.13-71.64c20.25-15.45,48.03-21.73,70.78-16
						c19.64,4.95,34.89,18.3,44.11,38.62c13.23,29.17,15.51,56,6.44,75.54c-6.38,13.75-18.05,23.37-33.75,27.81
						C258.77,243.77,242.46,245.8,227.31,245.8z M239.38,99.46c-17.57,0-36.22,6.15-50.81,17.28
						c-29.67,22.64-15.53,68.06-15.38,68.51c0.26,0.8-0.01,1.67-0.67,2.18c-3.07,2.41-5.08,7.58-5.38,13.83
						c-0.4,8.3,2.27,20.14,10.99,28.48c13.82,13.21,58.86,16.04,94.5,5.95c14.54-4.12,25.33-12.99,31.21-25.65
						c8.58-18.47,6.28-44.12-6.45-72.21c-8.69-19.17-23.02-31.76-41.44-36.39C250.66,100.1,245.08,99.46,239.38,99.46z" style="fill:#633535"></path>
          </g>
          <g>
            <path d="M246.82,244.11c-0.79,0-1.54-0.48-1.86-1.26c-0.41-1.03,0.09-2.19,1.11-2.6c0.12-0.05,3.56-1.63,3.56-7.46
						c0-6.29-3.34-9.29-3.48-9.41c-0.83-0.72-0.92-1.98-0.2-2.81c0.72-0.83,1.96-0.94,2.8-0.23c0.2,0.17,4.89,4.23,4.89,12.46
						c0,8.65-5.83,11.08-6.08,11.18C247.32,244.07,247.07,244.11,246.82,244.11z" style="fill:#633535"></path>
          </g>
          <g>
            <path d="M304.03,145.11c-1.08,0-1.97-0.86-2-1.95c-0.03-1.1,0.84-2.02,1.95-2.05c0.23-0.01,23.41-0.78,30.47-12.83
						c3.31-5.66,3.6-11.9,0.78-17.11c-3.12-5.79-9.61-9.35-17.8-9.77c-17.34-0.91-28.68,15.06-28.79,15.22
						c-0.63,0.91-1.88,1.13-2.79,0.5c-0.91-0.63-1.13-1.88-0.5-2.79c0.51-0.73,12.75-17.93,32.28-16.92
						c9.62,0.5,17.31,4.82,21.12,11.87c3.44,6.38,3.12,14.24-0.85,21.03c-8.18,13.98-32.77,14.78-33.82,14.81
						C304.07,145.11,304.05,145.11,304.03,145.11z" style="fill:#633535"></path>
          </g>
          <g>
            <path d="M272.54,107.18c-0.08,0-0.15,0-0.23-0.01c-1.1-0.12-1.89-1.11-1.76-2.21l1.93-17.04
						c0.12-1.1,1.11-1.89,2.21-1.76c1.1,0.12,1.89,1.11,1.76,2.21l-1.93,17.04C274.41,106.43,273.54,107.18,272.54,107.18z" style="fill:#633535"></path>
          </g>
          <g>
            <path d="M257.75,100.11c-0.09,0-0.19-0.01-0.28-0.02c-1.09-0.15-1.86-1.16-1.7-2.26l1.93-13.82
						c0.15-1.09,1.16-1.86,2.26-1.7c1.09,0.15,1.86,1.16,1.7,2.26l-1.93,13.82C259.59,99.39,258.73,100.11,257.75,100.11z" style="fill:#633535"></path>
          </g>
          <g>
            <path d="M196.36,108.47c-0.7,0-1.39-0.37-1.75-1.03l-6.75-12.21c-0.53-0.97-0.18-2.18,0.78-2.72
						c0.97-0.53,2.18-0.18,2.72,0.78l6.75,12.21c0.53,0.97,0.18,2.18-0.78,2.72C197.02,108.39,196.69,108.47,196.36,108.47z" style="fill:#633535"></path>
          </g>
          <g>
            <path d="M185.11,117.47c-0.72,0-1.41-0.39-1.77-1.07l-9-17.04c-0.52-0.98-0.14-2.19,0.83-2.7
						c0.98-0.52,2.19-0.14,2.7,0.83l9,17.04c0.52,0.98,0.14,2.19-0.83,2.7C185.74,117.39,185.42,117.47,185.11,117.47z" style="fill:#633535"></path>
          </g>
          <g>
            <path d="M150.16,157.66c-2.67,0-5.51-0.41-8.45-1.41c-8.23-2.8-17.27-9.83-18.92-19.21
						c-0.82-4.64-0.03-11.58,8.34-18.32c17.41-14,43.78,5.87,44.9,6.72c0.88,0.67,1.04,1.93,0.37,2.8c-0.67,0.88-1.93,1.04-2.8,0.37
						c-0.25-0.19-24.99-18.82-39.96-6.78c-5.42,4.36-7.81,9.38-6.91,14.51c1.17,6.62,7.85,13.25,16.27,16.11
						c12.85,4.38,23.97-4.99,24.08-5.09c0.84-0.72,2.1-0.62,2.82,0.21c0.72,0.84,0.63,2.1-0.21,2.82
						C169.28,150.77,161.16,157.66,150.16,157.66z" style="fill:#633535"></path>
          </g>
          <g>
            <path d="M152,340.22c-0.27,0-0.53-0.05-0.78-0.16c-1.02-0.43-25.03-10.81-21.08-25.19
						c1.22-4.43,3.66-5.89,5.49-6.33c4.85-1.17,10.77,3.49,13.87,6.37c1.65-2.98,4.78-7.48,9.06-8.46c1.81-0.42,4.6-0.35,7.61,2.31
						c2.76,2.44,3.91,5.89,3.31,9.98c-1.25,8.58-9.78,18.11-16.65,21.3C152.58,340.16,152.29,340.22,152,340.22z M137.3,312.34
						c-0.26,0-0.5,0.03-0.73,0.08c-1.14,0.28-2.01,1.46-2.57,3.5c-2.41,8.75,11.42,17.11,17.95,20.08
						c5.69-3.06,12.62-11.17,13.59-17.85c0.4-2.76-0.25-4.85-2.01-6.4c-1.42-1.25-2.74-1.72-4.07-1.41
						c-3.53,0.81-6.71,6.71-7.55,8.72c-0.26,0.63-0.83,1.08-1.5,1.2c-0.67,0.12-1.36-0.11-1.82-0.62
						C146.28,317.13,140.74,312.34,137.3,312.34z" style="fill:#633535"></path>
          </g>
          <g>
            <path d="M145.8,377.85c-21.83,0-39.81-0.83-43.44-3.25c-7.03-4.69-15.46-24.13-26.52-61.2
						c-2.42-8.11-13.93-48.95-2.78-56.85c5.27-3.73,48.27-4.29,72.86-4.02c15.7,0.17,67.43,1.14,73.92,6.71
						c10.18,8.73,25.82,94.51,26.09,101.41c0.36,9.41-5.51,13.19-5.76,13.34c-0.18,0.11-0.38,0.2-0.59,0.25
						C235.44,375.23,184.56,377.85,145.8,377.85z M134.25,256.46c-33.59,0-56.32,1.63-58.88,3.35c-5.43,3.85-3.62,25.9,4.3,52.44
						c10.49,35.13,18.87,54.99,24.91,59.02c2.53,1.68,21.43,3.16,66.91,2.24c31.78-0.64,61.78-2.18,66.8-3.09
						c0.91-0.72,3.88-3.56,3.65-9.62c-0.38-9.84-16.65-91.62-24.7-98.52c-2.83-2.43-26.32-5.26-71.2-5.74
						C141.98,256.48,138.04,256.46,134.25,256.46z M239.11,372.29L239.11,372.29L239.11,372.29z M239.11,372.29L239.11,372.29
						L239.11,372.29z" style="fill:#633535"></path>
          </g>
          <g>
            <path d="M232.68,373.97c-0.57,0-1.14-0.25-1.54-0.72c-0.6-0.72-0.61-1.74-0.07-2.47
						c1.96-7.7-18.36-91.9-23.51-97.28c-5.92-3.6-87.22-4.56-137.19-4.32c-1.08,0.02-2-0.89-2.01-1.99s0.89-2,1.99-2.01
						c0.33,0,33.6-0.15,67.14,0.36c68.6,1.06,71.42,3.72,72.78,5.01c6.33,5.98,25.26,86.55,24.86,99.57
						c-0.04,1.23-0.21,2.59-1.17,3.39C233.59,373.82,233.13,373.97,232.68,373.97z M231.4,370.43
						C231.4,370.43,231.4,370.43,231.4,370.43C231.4,370.43,231.4,370.43,231.4,370.43z" style="fill:#633535"></path>
          </g>
          <g>
            <path d="M281.34,380.26c-7.52,0-14.94-0.9-20.9-2.51c-7.45-2.01-12.83-6.32-15.57-12.48
						c-3.22-7.25-2.46-16.51,2.09-25.4c7.69-15.05,27.67-21.31,28.52-21.57c1.06-0.33,2.17,0.27,2.5,1.33
						c0.32,1.06-0.27,2.17-1.32,2.5c-0.19,0.06-19.22,6.05-26.13,19.57c-3.99,7.81-4.72,15.82-2,21.96
						c2.23,5.02,6.7,8.56,12.95,10.24c16.25,4.38,45.32,3.38,52.08-8.08c3.28-5.56,3.79-10.46,4.2-14.4
						c0.48-4.61,0.94-8.96,6.36-10.31c8.34-2.08,17.7,2.53,18.09,2.72c0.99,0.49,1.39,1.7,0.89,2.68c-0.49,0.99-1.7,1.39-2.68,0.89
						c-0.08-0.04-8.45-4.14-15.33-2.42c-2.58,0.64-2.86,2.16-3.35,6.85c-0.43,4.09-1.01,9.7-4.74,16.01
						C311.8,376.66,296.35,380.26,281.34,380.26z" style="fill:#633535"></path>
          </g>
          <g>
            <path d="M417.5,448.86c-0.98,0-1.83-0.72-1.98-1.72l0,0c0,0-0.88-4.23-8.81-12.74c-3.89-4.18-7.82-4.54-14.95-5.19
						c-7.06-0.64-16.74-1.53-31.2-6.83c-14.53-5.33-24.89-14.41-29.95-26.26c-5.12-11.99-4.5-25.95,1.81-40.38
						c12.61-28.87,51.96-28.24,53.63-28.2c1.1,0.03,1.98,0.94,1.95,2.05c-0.03,1.1-0.94,1.99-2.05,1.95
						c-0.38-0.01-38.34-0.58-49.87,25.8c-5.85,13.4-6.47,26.26-1.79,37.21c4.62,10.81,14.18,19.14,27.65,24.07
						c13.97,5.12,23.35,5.98,30.19,6.6c7.3,0.67,12.58,1.15,17.51,6.45c8.85,9.51,9.76,14.38,9.84,14.9c0.16,1.09-0.6,2.11-1.7,2.26
						C417.69,448.85,417.59,448.86,417.5,448.86z" style="fill:#633535"></path>
          </g>
          <g>
            <path d="M395.96,454.97c-25.21,0-51.68-1.99-56.85-16.77c-4.91-14.02,7.49-24.28,8.02-24.71
						c0.86-0.69,2.12-0.56,2.81,0.29c0.7,0.86,0.56,2.12-0.29,2.81c-0.48,0.4-10.73,8.97-6.77,20.29
						c4.37,12.49,30.66,14.09,53.08,14.09c24.95,0,41.63-11.5,55.76-38.46c13.34-25.43,9.03-65.02-9.79-90.12
						c-4.81-6.41-9.33-11.8-13.32-16.56c-12.05-14.37-20.76-24.75-22.75-45.84c-2.69-28.57-25.18-105.01-96.02-115.53
						c-1.09-0.16-1.85-1.18-1.68-2.27c0.16-1.09,1.18-1.84,2.27-1.68c31.96,4.75,58.56,23.23,76.91,53.45
						c14.26,23.48,21.03,50.04,22.5,65.66c1.87,19.85,9.81,29.32,21.83,43.65c4.03,4.8,8.59,10.24,13.46,16.73
						c9.56,12.75,15.88,29.39,17.79,46.87c1.92,17.57-0.8,34.44-7.65,47.51C440.35,442.82,422.61,454.97,395.96,454.97z" style="fill:#633535"></path>
          </g>
          <g>
            <path d="M233.32,300.36c-0.37,0-0.75-0.1-1.08-0.32c-0.93-0.6-1.2-1.84-0.6-2.76
						c8.84-13.72,39.33-17.25,63.92-14.73c13.63,1.4,23.67-1.11,29.03-7.25c5.05-5.79,6.13-14.85,3.21-26.94
						c-6.79-28.1-20.36-38.96-20.5-39.07c-0.87-0.68-1.03-1.93-0.35-2.81c0.68-0.87,1.93-1.03,2.8-0.36
						c0.6,0.46,14.78,11.7,21.94,41.29c3.25,13.42,1.87,23.69-4.08,30.51c-6.25,7.16-17.47,10.13-32.46,8.59
						c-23.57-2.42-52.66,1.29-60.15,12.92C234.62,300.04,233.98,300.36,233.32,300.36z" style="fill:#633535"></path>
          </g>
          <g>
            <path d="M193.08,394.36c-38.86,0-81.46-0.96-86.95-5.04c-3.99-2.96-6.05-6.15-6.13-9.46
						c-0.1-4.15,3.03-6.76,3.17-6.87c0.85-0.7,2.11-0.57,2.81,0.28c0.7,0.85,0.57,2.1-0.27,2.8c-0.05,0.04-1.78,1.56-1.71,3.73
						c0.06,1.98,1.63,4.17,4.52,6.31c2.87,2.13,29.64,4.51,95.63,4.23c46.39-0.2,92.08-1.73,97.76-3.27
						c3.04-0.82,4.69-2.11,4.89-3.84c0.28-2.32-1.81-4.93-2.57-5.46c-0.89-0.21-1.55-1-1.55-1.95c0-1.1,0.9-2,2-2
						c2.35,0,5.58,4.22,6.07,7.91c0.27,2.06,0.06,7.07-7.8,9.2c-6.69,1.81-56.48,3.22-98.79,3.4
						C200.53,394.35,196.82,394.36,193.08,394.36z M304.67,377.83C304.68,377.83,304.68,377.83,304.67,377.83
						C304.68,377.83,304.68,377.83,304.67,377.83z M304.13,377.72L304.13,377.72L304.13,377.72z" style="fill:#633535"></path>
          </g>
          <g>
            <path d="M339.07,432.15c-1.1,0-2-0.9-2-2v-4.97c-4.34-24.18-30.01-35.19-30.27-35.29c-1.02-0.43-1.5-1.6-1.07-2.62
						s1.6-1.5,2.61-1.08c1.14,0.48,28.07,11.98,32.7,38.47c0.02,0.11,0.03,0.23,0.03,0.34v5.14
						C341.07,431.25,340.18,432.15,339.07,432.15z" style="fill:#633535"></path>
          </g>
          <g>
            <path d="M260.24,459.25c-64.84,0-160.52-3.81-174.64-7.56c-7.18-1.9-12.46-5.94-15.27-11.66
						c-3.89-7.91-3.07-18.93,2.37-31.87c9.72-23.14,32.15-23.4,32.38-23.4c1.1,0,2,0.9,2,2c0,1.1-0.89,2-2,2l0,0
						c-0.81,0-20.03,0.33-28.7,20.95c-4.98,11.84-5.83,21.71-2.47,28.55c2.32,4.72,6.6,7.94,12.71,9.56
						c15.24,4.04,142.86,8.98,205.78,7.01c43.5-1.37,49.66-7.53,50.52-9.38c0.24-0.53,0.06-0.86,0.06-0.87
						c-0.69-0.86-0.56-2.12,0.3-2.81c0.86-0.69,2.12-0.56,2.81,0.3c0.66,0.82,1.49,2.8,0.46,5.05c-3.1,6.74-21.27,10.68-54.02,11.71
						C283.32,459.11,272.31,459.25,260.24,459.25z" style="fill:#633535"></path>
          </g>
          <g>
            <path d="M462.24,387.15c-0.28,0-0.44-0.01-0.46-0.01c-1.1-0.05-1.96-0.98-1.92-2.08c0.05-1.1,0.98-1.96,2.08-1.92
						c0.88,0.03,21.71,0.64,24.3-16.62c0.64-4.24,0.7-8.09,0.43-11.51c-0.48,3.35-1.42,6.96-3.04,10.68
						c-2.47,5.63-5.92,9.29-10.28,10.87c-5.9,2.14-11.19-0.45-11.41-0.56c-0.99-0.49-1.39-1.7-0.89-2.68
						c0.49-0.99,1.69-1.39,2.67-0.9c0.05,0.02,4.05,1.93,8.32,0.36c3.26-1.2,5.93-4.12,7.93-8.69c6.3-14.4,1.01-27.21,0.96-27.34
						c-0.4-0.94-0.03-2.02,0.86-2.52c0.89-0.5,2.01-0.25,2.6,0.57c0.36,0.5,8.8,12.46,5.82,32.32
						C487.3,386.37,465.68,387.15,462.24,387.15z" style="fill:#633535"></path>
          </g>
          <g>
            <path d="M483.51,353.45c-6.04,0-15.88-3.23-17.21-15.98c-1.69-16.19,13.74-31.82,14.4-32.48
						c0.69-0.69,1.77-0.78,2.56-0.22c0.69,0.48,16.92,12.03,16.92,28.32c0,16.81-11.64,19.82-12.14,19.94
						c-0.65,0.16-1.3-0.02-1.77-0.42c-0.33,0.44-0.83,0.74-1.42,0.79C484.43,353.43,483.98,353.45,483.51,353.45z M484.67,349.4
						c0.49,0,0.94,0.18,1.3,0.48c0.27-0.36,0.66-0.63,1.13-0.74c0.36-0.09,9.08-2.51,9.08-16.06c0-11.65-10.1-20.94-13.85-23.98
						c-3.48,3.91-13.29,16.11-12.06,27.95c1.38,13.24,13.71,12.4,14.24,12.36C484.57,349.4,484.62,349.4,484.67,349.4z" style="fill:#633535"></path>
          </g>
          <g>
            <path d="M394.84,157.29c-28.82,0-52.27-23.45-52.27-52.27c0-28.82,23.45-52.27,52.27-52.27
						c28.82,0,52.27,23.45,52.27,52.27C447.11,133.84,423.66,157.29,394.84,157.29z M394.84,56.75c-26.61,0-48.27,21.65-48.27,48.27
						c0,26.62,21.65,48.27,48.27,48.27c26.62,0,48.27-21.65,48.27-48.27C443.11,78.41,421.45,56.75,394.84,56.75z M394.84,141.29
						c-20,0-36.27-16.27-36.27-36.27s16.27-36.27,36.27-36.27s36.27,16.27,36.27,36.27S414.84,141.29,394.84,141.29z M394.84,72.75
						c-17.79,0-32.27,14.48-32.27,32.27s14.48,32.27,32.27,32.27s32.27-14.48,32.27-32.27S412.63,72.75,394.84,72.75z" style="fill:#633535"></path>
          </g>
          <g>
            <path d="M399.18,109.75h-24.43c-1.1,0-2-0.9-2-2s0.9-2,2-2h22.43V81.08c0-1.1,0.9-2,2-2s2,0.9,2,2v26.68
						C401.18,108.86,400.28,109.75,399.18,109.75z" style="fill:#633535"></path>
          </g>
        </g>
        <g>
          <path d="M153.82,250.29H29.96c-10,0-18.14-8.14-18.14-18.14v-89.36c0-42.97,34.96-77.93,77.93-77.93
					c1,0,2,0.04,2.99,0.07l0.07,0c0.05,0,0.09,0,0.13,0c1.14,0.04,2.29,0.12,3.57,0.22l0.55,0.04c1.08,0.1,2.14,0.22,3.21,0.35
					l0.88,0.11c0.95,0.13,1.89,0.29,2.83,0.45c0.48,0.08,0.87,0.15,1.27,0.23c0.81,0.15,1.6,0.32,2.4,0.5
					c0.57,0.13,1.13,0.26,1.7,0.39c0.64,0.16,1.28,0.32,1.92,0.5c0.73,0.2,1.45,0.4,2.18,0.62c0.47,0.14,0.94,0.29,1.4,0.43
					c0.89,0.28,1.78,0.59,2.67,0.91c0.29,0.1,0.58,0.21,0.86,0.31c1.03,0.38,2.09,0.8,3.15,1.24l0.34,0.14
					c10.21,4.33,19.31,10.59,27.05,18.6c8.54,8.85,14.85,19.22,18.75,30.81c0.26,0.77,0.02,1.62-0.59,2.16
					c-0.62,0.53-1.5,0.63-2.22,0.26c-4.8-2.48-12-5.44-19-5.44c-0.02,0-0.04,0-0.05,0c-0.72,0-1.39-0.39-1.74-1.02
					c-8.83-15.75-23.96-26.9-41.52-30.58v64.6h36.06c0.31,0,0.61,0.07,0.89,0.21c1.16,0.58,2.34,1.07,3.51,1.47
					c11.57,3.94,21.66-3.19,23.71-4.78c0.41-0.78,1.31-1.21,2.2-1.01c1.03,0.23,1.7,1.21,1.54,2.25
					c-1.97,12.88,0.07,25.21,1.47,31.42c0.03,0.14,0.05,0.29,0.05,0.44v6.32c0,0.5-0.19,0.98-0.52,1.35
					c-5.29,5.78-6.43,20.33,0.29,32.8c0.16,0.29,0.24,0.62,0.24,0.95v9.94C171.96,242.15,163.83,250.29,153.82,250.29z M89.75,68.86
					c-40.76,0-73.93,33.16-73.93,73.93v89.36c0,7.8,6.34,14.14,14.14,14.14h123.86c7.8,0,14.14-6.34,14.14-14.14v-9.44
					c-6.52-12.48-6.49-28.45,0-36.34v-5.35c-1.28-5.77-3.04-16.37-2.03-27.97c-4.87,2.91-13.93,6.72-24.22,3.21
					c-1.19-0.41-2.39-0.9-3.57-1.46h-37.6c-1.1,0-2-0.9-2-2v-69c0-0.59,0.26-1.15,0.71-1.53c0.45-0.38,1.04-0.54,1.62-0.44
					c0.41,0.07,0.82,0.14,1.23,0.22l0.28,0.05c0.32,0.06,0.64,0.12,0.96,0.18c18.33,3.84,34.17,15.31,43.64,31.54
					c5.42,0.21,10.79,1.87,15.22,3.75c-3.74-9.22-9.16-17.54-16.16-24.78c-7.36-7.62-16.02-13.58-25.74-17.7l-0.23-0.1
					c0,0-0.09-0.04-0.09-0.04c-1-0.42-2.01-0.82-3-1.18c-0.27-0.1-0.55-0.2-0.82-0.3c-0.84-0.3-1.69-0.59-2.54-0.86
					c-0.45-0.14-0.89-0.28-1.33-0.41c-0.69-0.21-1.38-0.4-2.07-0.59c-0.61-0.17-1.22-0.32-1.83-0.47c-0.54-0.13-1.08-0.25-1.62-0.37
					c-0.76-0.17-1.52-0.33-2.29-0.48c-0.37-0.07-0.74-0.14-1.12-0.2c-0.98-0.17-1.88-0.32-2.78-0.44l-0.83-0.11
					c-1.02-0.13-2.03-0.25-3.05-0.34l-0.52-0.04c-1.22-0.1-2.32-0.17-3.35-0.21c-0.01,0-0.07,0-0.14,0l-0.09,0
					C91.65,68.9,90.7,68.86,89.75,68.86z M153.82,234.29h-53.29c-1.1,0-2-0.9-2-2v-63.5c0-1.1,0.9-2,2-2h53.43c1.1,0,2,0.9,2,2
					v63.36C155.96,233.33,155,234.29,153.82,234.29z M102.54,230.29h49.43v-59.5h-49.43V230.29z M84.54,234.29H29.96
					c-1.18,0-2.14-0.96-2.14-2.14v-63.36c0-1.1,0.9-2,2-2h54.71c1.1,0,2,0.9,2,2v63.5C86.54,233.39,85.64,234.29,84.54,234.29z
					 M31.82,230.29h50.71v-59.5H31.82V230.29z M84.54,154.79H29.82c-1.1,0-2-0.9-2-2v-10c0-15.57,5.83-30.47,16.41-41.94
					C54.75,89.45,69,82.44,84.36,81.11c0.56-0.05,1.11,0.14,1.52,0.52c0.41,0.38,0.65,0.91,0.65,1.47v69.69
					C86.54,153.89,85.64,154.79,84.54,154.79z M31.82,150.79h50.71V85.32c-28.61,3.59-50.71,28.41-50.71,57.47V150.79z" style="fill:#633535"></path>
        </g>
      </g>
      <g>
        <g>
          <g>
            <path d="M51.06,218.51c-0.35,0-0.71-0.09-1.02-0.28c-0.65-0.39-1.03-1.12-0.97-1.88l0.88-11.01l-8.58-6.97
						c-0.59-0.48-0.86-1.25-0.69-2c0.17-0.74,0.74-1.32,1.48-1.5l10.75-2.57l3.97-10.31c0.27-0.71,0.93-1.2,1.69-1.27
						c0.76-0.07,1.49,0.3,1.89,0.95l5.77,9.43l11.03,0.59c0.76,0.04,1.43,0.51,1.73,1.21s0.18,1.51-0.32,2.09l-7.18,8.4l2.84,10.68
						c0.2,0.74-0.04,1.52-0.62,2.02c-0.57,0.5-1.38,0.63-2.08,0.34l-10.21-4.24l-9.28,6C51.81,218.4,51.44,218.51,51.06,218.51z
						 M47.03,197.82l6.25,5.07c0.51,0.42,0.79,1.06,0.73,1.71l-0.64,8.02l6.76-4.37c0.55-0.36,1.25-0.42,1.85-0.17l7.43,3.09
						l-2.07-7.78c-0.17-0.64-0.02-1.31,0.41-1.81l5.23-6.12l-8.04-0.43c-0.66-0.04-1.26-0.39-1.6-0.95l-4.2-6.87l-2.9,7.51
						c-0.24,0.61-0.76,1.07-1.4,1.23L47.03,197.82z M127.68,214.43c-0.64,0-1.24-0.3-1.62-0.83l-3.43-4.77l-5.87,0.12
						c-0.75,0.01-1.47-0.4-1.82-1.08c-0.35-0.68-0.29-1.49,0.16-2.11l3.47-4.74l-1.93-5.55c-0.25-0.72-0.07-1.52,0.46-2.06
						c0.53-0.54,1.33-0.73,2.05-0.5l5.58,1.84l4.68-3.55c0.6-0.46,1.42-0.54,2.1-0.2c0.68,0.34,1.11,1.04,1.11,1.8l-0.03,5.87
						l4.82,3.35c0.62,0.43,0.95,1.19,0.84,1.94c-0.11,0.75-0.64,1.38-1.37,1.61l-5.59,1.79l-1.7,5.62
						c-0.22,0.73-0.83,1.27-1.59,1.39C127.9,214.42,127.79,214.43,127.68,214.43z M123.64,204.81c0.64,0,1.25,0.31,1.62,0.83
						l1.68,2.33l0.83-2.75c0.19-0.63,0.68-1.13,1.31-1.33l2.74-0.87l-2.36-1.64c-0.54-0.38-0.86-0.99-0.86-1.65l0.01-2.87
						l-2.29,1.74c-0.52,0.4-1.21,0.51-1.84,0.31l-2.73-0.9l0.94,2.71c0.22,0.62,0.11,1.31-0.28,1.84l-1.7,2.32l2.87-0.06
						C123.61,204.81,123.62,204.81,123.64,204.81z M63.32,146.72c-11.46,0-20.78-9.41-20.78-20.98s9.32-20.98,20.78-20.98
						c2.71,0,5.36,0.53,7.88,1.57c0.78,0.32,1.28,1.11,1.23,1.96s-0.62,1.57-1.44,1.81c-5.78,1.68-9.82,7.05-9.82,13.07
						c0,7.51,6.11,13.62,13.62,13.62c0.61,0,1.25-0.05,2.03-0.17c0.84-0.13,1.66,0.29,2.06,1.04c0.4,0.75,0.28,1.66-0.29,2.29
						C74.65,144.25,69.09,146.72,63.32,146.72z M63.32,108.76c-9.25,0-16.78,7.62-16.78,16.98s7.53,16.98,16.78,16.98
						c2.97,0,5.8-0.77,8.29-2.22c-8.2-1.5-14.44-8.7-14.44-17.33c0-5.79,2.89-11.12,7.44-14.36
						C64.18,108.77,63.75,108.76,63.32,108.76z" style="fill:#ffcb27"></path>
          </g>
        </g>
        <g>
          <path d="M158.41,143.05c-5.41,0-10.22-2.03-12.68-4.8c-2.38-2.69-2.35-5.81,0.09-8.37
					c1.47-1.54,3.35-2.34,5.58-2.38c0.05,0,0.11,0,0.16,0c7.81,0,17.45,9.35,17.86,9.75c0.07,0.07,0.13,0.15,0.18,0.24
					c0.15-0.11,0.3-0.21,0.45-0.33c0.44-0.33,1.07-0.24,1.4,0.2c0.33,0.44,0.24,1.07-0.2,1.4
					C167.17,141.83,162.61,143.05,158.41,143.05z M151.56,129.51c-0.04,0-0.09,0-0.13,0c-1.7,0.03-3.06,0.6-4.17,1.76
					c-2.17,2.27-1.22,4.33-0.04,5.66c3.45,3.89,12.77,6.07,20.67,1.65C166.77,137.5,158.12,129.51,151.56,129.51z" style="fill:#633535"></path>
        </g>
        <g>
          <path d="M301.03,130.32c-2.36,0-4.58-0.43-6.46-1.43c-0.49-0.26-0.67-0.86-0.41-1.35c0.26-0.49,0.87-0.67,1.35-0.41
					c0.09,0.05,0.17,0.09,0.26,0.13c1.89-3.35,11.25-18.64,21.89-13.32c2.73,1.36,3.38,3.12,3.44,4.34c0.13,2.48-1.9,5.18-5.71,7.61
					C311.35,128.45,305.91,130.32,301.03,130.32z M297.69,127.94c5.05,1.25,11.99-0.78,16.63-3.74c3.08-1.96,4.87-4.14,4.79-5.82
					c-0.05-1.02-0.84-1.91-2.34-2.66C308.1,111.38,299.74,124.42,297.69,127.94z" style="fill:#633535"></path>
        </g>
      </g>
    </g>
  </g>
</svg>
