<svg width="162" height="205" viewBox="0 0 162 205" fill="none" xmlns="http://www.w3.org/2000/svg">
<path d="M88.0067 79.6941C88.0067 79.6941 88.8514 77.1604 90.5537 77.3142C92.2566 77.4653 103.19 79.5396 103.663 88.0936C104.136 96.6475 103.113 98.8903 101.895 99.844C100.677 100.798 90.8652 99.2393 86.6425 95.0162C82.4191 90.796 84.4521 85.3139 84.1336 83.5007C83.8977 82.1541 83.8552 80.4568 85.5433 79.6105C87.2315 78.7642 88.0067 79.6941 88.0067 79.6941Z" fill="#FADAE3"/>
<path d="M86.6425 95.0161C82.4191 90.7959 84.4522 85.3138 84.1337 83.5006C83.8977 82.1541 83.8553 80.4567 85.5434 79.6104C86.7275 79.018 87.4638 79.2961 87.7959 79.5183L88.0068 79.694C88.0068 79.694 96.5475 82.4459 95.9532 90.2507C95.6441 94.3124 94.0619 96.931 92.6131 98.5091C90.3412 97.6749 88.1376 96.5114 86.6397 95.0155L86.6425 95.0161Z" fill="#FADAE3"/>
<path d="M101.896 99.8411C101.336 100.28 98.9742 100.187 96.1684 99.5549C97.1993 97.4553 98.9111 93.6211 98.9592 91.2065C98.9991 89.1712 101.622 90.7484 103.778 92.3931C103.731 97.4622 102.875 99.0715 101.896 99.8411Z" fill="#FADAE3"/>
<path d="M39.0067 23.6941C39.0067 23.6941 39.8514 21.1604 41.5537 21.3142C43.2566 21.4653 54.1904 23.5396 54.6631 32.0936C55.1357 40.6475 54.1132 42.8903 52.8952 43.844C51.6773 44.7978 41.8652 43.2393 37.6425 39.0162C33.4191 34.796 35.4521 29.3139 35.1336 27.5007C34.8977 26.1541 34.8552 24.4568 36.5433 23.6105C38.2315 22.7642 39.0067 23.6941 39.0067 23.6941Z" fill="#FADAE3"/>
<path d="M37.6425 39.0161C33.4191 34.7959 35.4522 29.3138 35.1337 27.5006C34.8977 26.1541 34.8553 24.4567 36.5434 23.6104C37.7275 23.018 38.4638 23.2961 38.7959 23.5183L39.0068 23.694C39.0068 23.694 47.5475 26.4459 46.9532 34.2507C46.6441 38.3124 45.0619 40.931 43.6131 42.5091C41.3412 41.6749 39.1376 40.5114 37.6397 39.0155L37.6425 39.0161Z" fill="#FADAE3"/>
<path d="M52.8959 43.8411C52.3363 44.2801 49.9742 44.1873 47.1684 43.5549C48.1993 41.4553 49.9111 37.6211 49.9592 35.2065C49.9991 33.1712 52.6219 34.7484 54.7784 36.3931C54.731 41.4622 53.8754 43.0715 52.8959 43.8411Z" fill="#FADAE3"/>
<path d="M116.007 20.6941C116.007 20.6941 116.851 18.1604 118.554 18.3142C120.257 18.4653 131.19 20.5396 131.663 29.0936C132.136 37.6475 131.113 39.8903 129.895 40.844C128.677 41.7978 118.865 40.2393 114.642 36.0162C110.419 31.796 112.452 26.3139 112.134 24.5007C111.898 23.1541 111.855 21.4568 113.543 20.6105C115.231 19.7642 116.007 20.6941 116.007 20.6941Z" fill="#FADAE3"/>
<path d="M114.643 36.0161C110.419 31.7959 112.452 26.3138 112.134 24.5006C111.898 23.1541 111.855 21.4567 113.543 20.6104C114.727 20.018 115.464 20.2961 115.796 20.5183L116.007 20.694C116.007 20.694 124.548 23.4459 123.953 31.2507C123.644 35.3124 122.062 37.931 120.613 39.5091C118.341 38.6749 116.138 37.5114 114.64 36.0155L114.643 36.0161Z" fill="#FADAE3"/>
<path d="M129.896 40.8411C129.336 41.2801 126.974 41.1873 124.168 40.5549C125.199 38.4553 126.911 34.6211 126.959 32.2065C126.999 30.1712 129.622 31.7484 131.778 33.3931C131.731 38.4622 130.875 40.0715 129.896 40.8411Z" fill="#FADAE3"/>
<path d="M35.0222 93.1634C35.0222 93.1634 35.8669 90.6297 37.5692 90.7835C39.2721 90.9346 50.2059 93.0089 50.6786 101.563C51.1512 110.117 50.1287 112.36 48.9107 113.313C47.6928 114.267 37.8807 112.709 33.658 108.486C29.4346 104.265 31.4676 98.7832 31.1492 96.97C30.9132 95.6234 30.8707 93.9261 32.5588 93.0798C34.247 92.2335 35.0222 93.1634 35.0222 93.1634Z" fill="#FADAE3"/>
<path d="M33.658 108.485C29.4346 104.265 31.4677 98.7831 31.1492 96.9699C30.9132 95.6234 30.8708 93.926 32.5589 93.0797C33.743 92.4873 34.4793 92.7654 34.8114 92.9876L35.0223 93.1633C35.0223 93.1633 43.5631 95.9152 42.9687 103.72C42.6597 107.782 41.0774 110.4 39.6286 111.978C37.3567 111.144 35.1531 109.981 33.6552 108.485L33.658 108.485Z" fill="#FADAE3"/>
<path d="M48.9114 113.31C48.3518 113.749 45.9897 113.657 43.1839 113.024C44.2148 110.925 45.9266 107.09 45.9747 104.676C46.0146 102.64 48.6374 104.218 50.7939 105.862C50.7465 110.931 49.8909 112.541 48.9114 113.31Z" fill="#FADAE3"/>
<path d="M94.9379 179.152C94.9379 179.152 95.7826 176.619 97.4848 176.772C99.1878 176.924 110.122 178.998 110.594 187.552C111.067 196.106 110.044 198.349 108.826 199.302C107.608 200.256 97.7963 198.698 93.5736 194.474C89.3502 190.254 91.3832 184.772 91.0648 182.959C90.8288 181.612 90.7864 179.915 92.4745 179.069C94.1626 178.223 94.9379 179.152 94.9379 179.152Z" fill="#FADAE3"/>
<path d="M93.5737 194.474C89.3503 190.254 91.3833 184.772 91.0649 182.959C90.8289 181.612 90.7864 179.915 92.4746 179.069C93.6586 178.476 94.3949 178.754 94.727 178.977L94.938 179.152C94.938 179.152 103.479 181.904 102.884 189.709C102.575 193.771 100.993 196.389 99.5443 197.967C97.2723 197.133 95.0688 195.97 93.5708 194.474L93.5737 194.474Z" fill="#FADAE3"/>
<path d="M108.827 199.299C108.267 199.738 105.905 199.646 103.1 199.013C104.13 196.914 105.842 193.079 105.89 190.665C105.93 188.629 108.553 190.207 110.71 191.851C110.662 196.92 109.807 198.53 108.827 199.299Z" fill="#FADAE3"/>
<path d="M71.9036 136.122C71.9036 136.122 70.7599 133.055 72.2836 131.861C73.8079 130.664 76.667 130.405 78.7108 129.643C80.7546 128.88 88.3071 128.478 92.2068 134.37C96.1071 140.259 92.7978 145.077 86.0584 145.979C79.319 146.882 72.2666 141.183 70.8644 140.544C69.4594 139.905 70.2211 136.664 71.9029 136.125L71.9036 136.122Z" fill="#FADAE3"/>
<path d="M86.0619 145.977C81.6102 146.573 77.0243 144.292 74.0169 142.486C74.4374 141.143 74.8201 138.621 77.2071 137.369C82.526 134.578 90.556 138.813 93.7578 140.379C93.1549 143.315 90.2807 145.413 86.0619 145.977Z" fill="#FADAE3"/>
<path d="M122.417 131.473C122.492 130.029 122.983 124.722 127.103 122.378C131.225 120.032 138.227 117.346 142.805 121.733C147.382 126.123 141.032 136.866 133.829 138.233C129.432 139.067 124.563 138.604 123.996 136.687C123.567 135.241 124.435 133.731 124.435 133.731C124.435 133.731 122.276 134.244 122.417 131.473Z" fill="#FADAE3"/>
<path d="M133.829 138.233C129.432 139.067 124.563 138.604 123.996 136.687C123.689 135.654 124.043 134.594 124.272 134.068L124.435 133.731C124.435 133.731 125.458 130.39 132.619 125.954C136.899 123.303 140.521 122.713 143.509 122.583C146.62 127.371 140.604 136.949 133.829 138.233Z" fill="#FADAE3"/>
</svg>
