<svg width="138" height="68" viewBox="0 0 138 68" fill="none" xmlns="http://www.w3.org/2000/svg">
<g clip-path="url(#clip0_301_9061)">
<path d="M20.7 21.2408C16.1489 25.6659 14.3872 31.1236 14.8277 37.3189C15.5617 45.8742 19.6723 52.5119 26.866 57.0846C33.3255 61.2147 40.5192 63.7223 47.8596 65.3449C60.0447 67.8525 72.5234 68.4425 85.0021 67.5575C94.1043 66.9675 103.206 65.4924 111.868 62.2473C118.768 59.7397 125.081 56.3471 130.072 51.0369C133.889 47.0542 136.826 42.4816 137.56 36.8763C138.44 30.8286 137.119 25.2234 133.302 20.2082C128.311 13.718 121.704 9.44034 114.217 6.49023C106.289 3.24511 97.9213 1.18004 89.1128 0.442511C82.9468 -4.77605e-06 76.7809 -0.14751 70.7617 0.147501C61.5128 0.590017 52.4106 2.21258 43.6021 4.86767C39.6383 6.04772 35.5277 7.22776 31.8575 9.14533C29.9489 10.0304 28.1872 11.0629 26.7192 12.6855C26.4255 12.9805 26.2787 13.128 25.8383 13.128C19.966 13.128 13.9468 13.423 8.07446 14.013C5.72553 14.308 3.3766 14.7505 1.17447 15.1931C0.58724 15.1931 0.146805 15.6356 0.146805 16.2256C0.146805 16.8156 0.58724 17.2581 1.17447 17.2581C2.64256 17.5531 4.25744 17.7006 5.72553 17.8482C9.98298 18.2907 14.0936 19.4707 18.2043 20.6508C19.0851 20.9458 19.966 21.0933 20.8468 21.3883L20.7 21.2408Z" fill="black"/>
<path d="M11.0106 16.6681C14.6809 17.5531 18.2043 18.5857 21.8745 19.4707C22.3149 19.4707 22.7553 19.4707 22.7553 20.2082C22.7553 20.7983 22.4617 21.2408 22.0213 21.3883C20.8468 21.6833 20.4064 22.5683 19.966 23.4534C16.1489 29.2061 15.5617 35.2538 17.4702 41.8915C17.617 42.334 18.2043 42.7766 18.0574 43.3666C18.0574 43.3666 18.2532 43.4649 18.6447 43.6616C18.6447 43.6616 18.6447 44.1041 18.6447 44.3991C19.2319 45.7267 19.8191 47.0542 20.7 48.2343C22.4617 50.8894 24.9574 52.9544 27.6 54.7245C32.5915 57.9696 38.1702 60.0347 43.8957 61.5098C45.0702 61.6573 46.2447 61.9523 47.566 62.3948C48.0064 62.3948 48.4468 62.3948 48.7404 62.5423C49.6213 63.1323 50.5021 61.6573 51.2362 62.2473C52.117 62.9848 52.8511 62.6898 53.7319 62.5423C54.3192 62.5423 54.9064 62.5423 55.4936 62.9848C55.934 63.4273 56.5213 63.4273 57.1085 63.2798C57.4021 63.2798 57.6957 62.9848 57.5489 62.6898C57.2553 62.0998 57.5489 61.9523 57.9894 61.9523C58.4298 61.9523 59.017 61.9523 59.017 62.6898V62.9848C59.017 63.2798 58.8702 63.8698 59.3106 64.0173C59.7511 64.0173 60.4851 64.3124 60.9255 63.8698C61.366 63.4273 61.8064 63.2798 62.3936 63.4273C64.8894 63.7223 67.5319 63.1323 70.0277 62.8373C71.7894 62.5423 73.5511 62.3948 75.3128 62.5423C76.634 62.5423 77.8085 63.1323 79.1298 62.9848C79.8638 62.9848 80.4511 62.9848 81.0383 62.6898C82.2128 62.0998 83.3872 62.6898 84.4149 62.5423C83.8277 62.5423 83.2404 62.5423 82.6532 62.5423C82.3596 62.5423 81.9192 62.5423 81.9192 62.9848C81.9192 63.4273 82.2128 63.4273 82.6532 63.5748C83.3872 63.5748 84.2681 63.5748 85.0021 63.5748C85.2957 63.5748 85.4426 63.5748 85.5894 63.8698C85.5894 63.8698 85.7362 63.8698 85.883 64.0173C86.9106 64.0173 87.7915 64.4599 88.8192 64.3124C89.5532 64.1649 90.1404 64.0173 89.8468 62.9848C89.7 62.2473 90.1404 61.9523 90.8745 62.0998C91.1681 62.0998 91.3149 62.0998 91.4617 62.5423C91.6085 63.4273 92.3426 63.7223 93.0766 63.1323C93.517 62.6898 93.9574 62.5423 94.3979 62.9848C93.9574 62.9848 93.3702 62.8373 93.3702 63.4273C93.3702 64.0173 93.8106 63.7223 94.2511 63.7223C101.885 62.6898 109.226 60.7722 116.272 57.5271C121.704 55.0195 126.549 51.6269 130.366 46.9067C134.477 41.744 136.238 35.8438 134.77 29.2061C134.77 29.2061 134.623 28.9111 134.477 28.7636C133.889 28.4685 134.477 27.731 134.036 27.2885C134.036 27.2885 134.036 27.2885 134.036 27.141C133.889 26.846 133.596 26.551 133.596 26.1085C132.715 23.7484 131.247 21.6833 129.485 19.9132C126.109 16.3731 122.291 13.5705 117.887 11.5054C117.594 11.3579 117.153 11.3579 117.006 11.0629C108.491 6.93275 99.3894 4.42516 89.9936 3.39262C82.8 2.65509 75.7532 2.36008 68.5596 2.8026C60.4851 3.24511 52.4106 4.42515 44.483 6.63774C39.7851 7.96529 35.0872 8.99782 30.683 11.3579C29.2149 12.0954 27.7468 12.9805 26.7191 14.308C26.1319 15.0455 25.3979 15.3406 24.517 15.3406C20.1128 15.4881 15.8553 15.7831 11.4511 16.0781C11.1575 16.2256 10.717 16.0781 10.4234 16.0781C10.1298 16.0781 9.83617 16.0781 9.98298 16.6681H10.4234C10.4234 16.6681 10.8638 16.6681 11.1574 16.9631L11.0106 16.6681Z" fill="#C7DCEB"/>
<path d="M85.7362 63.7223C85.7362 63.7223 85.4426 62.9848 85.0021 62.9848C84.1213 62.9848 83.0936 62.9848 82.2128 62.8373C83.3872 62.3948 84.5617 62.6898 85.883 62.3948C85.4426 61.9523 85.0021 62.0998 84.7085 61.9523C82.5064 61.2148 80.5979 62.5423 78.5426 62.3948C76.3404 62.3948 74.2851 61.5098 72.083 61.9523C70.3213 62.3948 68.4128 62.2473 66.6511 62.6898C65.3298 63.1323 63.7149 62.6898 62.2468 62.6898C61.6596 62.6898 60.7787 62.3948 60.4851 63.4273C60.4851 63.7223 59.7511 63.5748 59.4575 63.4273C59.017 63.4273 59.4575 62.9848 59.4575 62.6898C59.4575 61.0672 59.3106 60.7722 57.6957 61.0672C57.2553 61.0672 56.9617 61.3623 56.8149 61.6573C56.5213 62.2473 57.4021 61.9523 57.4021 62.3948C56.6681 62.3948 56.0809 62.9848 55.4936 61.8048C55.2 61.2148 54.466 61.5098 53.8787 61.6573C52.9979 61.6573 52.117 62.5423 51.5298 61.2148C51.5298 61.0672 50.7957 61.0672 50.5021 61.2148C49.7681 61.9523 48.5936 61.9523 48.3 61.6573C47.2723 60.9197 45.9511 61.6573 44.9234 60.9197C44.483 60.6247 44.3362 60.7722 43.8957 60.9197C47.4192 62.0998 51.2362 62.6898 54.9064 63.2798C62.9809 64.3124 71.0553 64.7549 79.2766 64.4599C84.2681 64.4599 89.2596 64.0174 94.1043 63.1323C93.9574 63.1323 93.6638 63.1323 93.3702 62.8373C93.9574 62.6898 94.3979 62.5423 94.9851 62.3948C94.3979 62.2473 93.8106 62.0998 93.517 61.3623C92.9298 62.6898 92.783 62.6898 91.6085 62.5423C91.6085 62.0998 92.1957 61.6573 91.6085 61.3623C91.0213 61.0672 90.434 61.0672 89.8468 61.3623C89.2596 61.3623 89.5532 62.0998 89.4064 62.5423C89.4064 62.8373 89.8468 63.4273 89.4064 63.5748C88.5255 63.7223 87.6447 64.0174 86.7638 63.5748C86.3234 63.4273 86.3234 63.2798 85.5894 63.5748C84.8553 64.3124 84.1213 63.2798 83.2404 63.5748C83.0936 63.7223 82.8 63.7223 82.6532 63.5748C82.6532 63.5748 82.9468 63.5748 83.0936 63.5748C83.8277 63.2798 84.7085 63.8699 85.4426 63.5748L85.7362 63.7223Z" fill="#FAFCFC"/>
<path d="M18.6447 44.2516C19.3787 43.9566 18.6447 43.2191 19.0851 42.7766C19.0851 42.7766 19.0851 42.4816 18.7915 42.7766C18.4979 42.9241 18.351 43.2191 18.2042 43.5141C18.2042 43.8091 18.351 44.2516 18.6447 44.3991V44.2516Z" fill="#F5F5F1"/>
<path d="M64.4489 63.7223C64.4489 63.7223 65.4766 63.7223 66.0638 63.7223C65.4766 63.7223 65.0362 63.2798 64.4489 63.7223Z" fill="#FEFEFE"/>
<path d="M64.5958 63.8698C64.5958 63.8698 63.5681 63.4273 62.9809 63.8698H64.5958Z" fill="#FEFEFE"/>
<path d="M50.5021 62.3948C50.5021 62.3948 50.0617 62.3948 49.4745 62.3948C50.0617 62.6898 50.2085 62.6898 50.5021 62.3948Z" fill="#FEFEFE"/>
</g>
<defs>
<clipPath id="clip0_301_9061">
<rect width="138" height="68" fill="white" transform="matrix(-1 0 0 1 138 0)"/>
</clipPath>
</defs>
</svg>
