<svg width="126" height="125" viewBox="0 0 126 125" fill="none" xmlns="http://www.w3.org/2000/svg">
<path d="M115.327 62.627C114.633 62.8914 114.002 63.26 113.484 63.56C113.352 63.6362 113.227 63.7099 113.108 63.7786C113.105 63.7811 113.103 63.7811 113.1 63.7837C113.087 63.7913 112.848 63.9311 112.447 64.1574C112.523 63.2269 112.597 61.7906 112.515 60.3365C113.23 61.0433 114.282 61.994 115.327 62.627Z" fill="#E6EFFF"/>
<path d="M110.332 56.3301C111.793 57.563 111.598 62.6015 111.371 64.7572C109.228 65.9342 105.547 67.851 102.97 68.639C98.648 69.9584 98.1396 71.143 99.5759 76.5552C100.049 78.3347 100.88 80.2413 102.001 82.0767C98.643 83.9756 78.6288 95.2703 75.3876 96.5718C72.9853 97.5353 57.3208 88.3277 47.6963 82.1046C48.8276 80.2616 49.6639 78.3448 50.1393 76.5577C51.5756 71.1456 51.0672 69.9635 46.7456 68.6416C44.8212 68.0543 42.2791 66.8341 40.2225 65.7639C39.6658 63.0845 38.7862 56.2004 41.1936 55.448C41.2978 55.4149 41.4631 55.3844 41.6868 55.3539C41.7275 55.3539 41.7656 55.3488 41.8037 55.3387C45.1466 54.9319 59.4562 54.7387 76.0562 54.8963C83.1487 54.965 89.0948 55.0768 93.9375 55.2166C93.9527 55.2192 93.968 55.2217 93.9832 55.2217C93.9934 55.2217 94.001 55.2192 94.0112 55.2192C104.406 55.5217 109.701 55.9539 110.332 56.3301Z" fill="white"/>
<path d="M112.383 90.9359C112.742 100.459 113.036 114.888 112.403 116.553C112.347 116.703 111.727 117.468 105.085 117.887C100.656 118.17 94.7942 118.248 88.5863 118.33C84.4045 118.386 80.0804 118.444 75.9977 118.566C66.8156 118.843 57.5928 118.912 50.6909 118.752C38.171 118.459 36.8135 117.506 36.6711 117.321C35.789 115.996 36.2517 100.571 36.7525 91.1088C41.0156 89.914 44.6661 86.6448 47.1472 82.9536C48.6852 83.9425 54.0516 87.3642 59.6773 90.6232C69.7365 96.4472 73.4226 97.6395 75.0012 97.6395C75.3368 97.6395 75.5783 97.5861 75.7664 97.5098C79.1271 96.16 99.2429 84.7992 102.55 82.9282C104.919 86.4669 108.361 89.6165 112.383 90.9359Z" fill="white"/>
<path d="M29.2507 88.9633C26.7696 87.1025 25.2163 83.7113 25.0969 79.8956C24.8477 71.9413 29.4973 65.708 30.4328 64.5412C31.1522 63.6413 31.8996 63.3007 32.6775 63.3007C33.6358 63.3007 34.6451 63.8167 35.7153 64.4395C35.85 64.5183 35.9771 64.5921 36.1017 64.6632C36.4068 64.8412 42.5307 68.4154 46.4481 69.6127C49.9359 70.6779 50.5486 71.0465 49.1555 76.296C47.676 81.8759 42.4341 88.6049 36.2288 90.2064C33.6384 90.8725 31.2259 90.4429 29.2507 88.9633Z" fill="#E6EFFF"/>
<path d="M38.5777 60.9415C38.6464 62.5685 38.8828 64.1344 39.0658 65.1513C37.6346 64.381 36.6356 63.7989 36.6101 63.7836C36.6076 63.7811 36.6051 63.7811 36.6025 63.7785C36.483 63.7099 36.3559 63.6362 36.2263 63.5599C35.9212 63.382 35.578 63.1811 35.2043 62.993C36.0026 62.632 37.4058 61.9202 38.5777 60.9415Z" fill="#E6EFFF"/>
<path d="M57.0208 43.195C57.0208 42.9967 56.9039 42.8162 56.7259 42.7323C56.52 42.6357 51.6773 40.3046 51.5731 33.0316C51.4688 25.7408 54.072 23.6054 54.0948 23.5876C54.2321 23.4834 54.3058 23.3182 54.2957 23.1478C54.2931 23.097 53.9779 17.9365 56.1641 12.6641C59.0723 5.65297 64.8099 1.76353 73.2217 1.10258C79.7016 0.594156 84.9155 2.19569 88.721 5.86397C94.4179 11.3549 95.6102 20.3413 95.4424 24.3248C95.4373 24.4341 95.4678 24.5409 95.5288 24.6299C95.5593 24.6757 98.6963 29.3913 98.3836 35.0628C98.0786 40.5969 91.1335 43.6755 91.0623 43.706C90.892 43.7797 90.7751 43.9424 90.7573 44.1254C90.7293 44.4457 90.1599 51.1366 92.5978 54.1617C87.7906 54.032 82.2463 53.9329 76.3841 53.877C69.0374 53.8058 61.256 53.8007 54.8422 53.877C55.5794 52.4381 57.0208 48.8868 57.0208 43.195Z" fill="#E6EFFF"/>
<path d="M23.7165 111.614C19.5093 108.69 13.8531 102.986 10.8076 92.4078C6.37672 77.028 12.9176 64.1115 16.4308 57.1741C17.8086 54.4515 18.4645 53.1067 18.3374 52.2703C18.1188 50.8416 16.5274 50.0688 14.3259 49.0012C11.3923 47.5776 7.37578 45.6278 4.31252 41.0621C0.562896 35.4745 0.888287 31.0182 1.17555 27.0881C1.2874 25.5679 1.39163 24.1316 1.23402 22.7792C0.761181 18.722 1.44755 16.1875 3.17111 15.6409C3.9795 15.3842 4.9328 16.7289 6.13776 18.4322C6.98175 19.6244 7.94013 20.9743 9.18322 22.2987C10.1772 23.3588 11.311 24.3604 12.5083 25.4205C15.2894 27.8838 18.1671 30.4284 19.8779 34.1425C20.7473 36.0287 21.571 38.2454 22.3667 40.3859C24.2631 45.493 25.3206 48.1597 26.6933 48.0631C27.9593 47.9792 28.1881 46.0574 28.572 42.8721C28.8796 40.302 29.266 37.1015 30.3006 34.0942C32.4843 27.7567 37.0626 25.3747 40.4055 23.6359C42.9426 22.3165 44.0586 21.2768 45.2381 20.1735C45.8202 19.6295 46.4253 19.0677 47.2387 18.4296C47.765 18.0178 48.0421 18.1754 48.2454 18.3839C49.2623 19.4287 49.3945 23.1936 47.7319 25.1993C46.288 26.9432 46.0948 28.11 45.7999 29.8768C45.5609 31.3131 45.233 33.2807 44.0509 36.4838C41.5139 43.3551 37.1338 47.6208 34.3019 48.1445C32.2453 48.5258 31.7318 49.5579 31.6073 50.14C31.4039 51.0908 31.9454 52.1407 33.0181 52.8779C34.2866 53.7498 37.838 54.5862 39.953 55.0285C38.9667 55.9513 38.6159 57.7079 38.5676 59.5662C37.0067 61.2186 34.2409 62.3091 34.2104 62.3193C34.1163 62.3549 34.0426 62.4185 33.9867 62.4922C32.6165 62.0702 31.0505 62.1465 29.6397 63.9081C28.666 65.1258 23.8207 71.6184 24.08 79.9311C24.2097 84.0544 25.9129 87.738 28.6406 89.7818C29.5583 90.4707 30.5574 90.9512 31.6174 91.2359C31.62 93.7958 31.6276 108.095 31.6251 115.345C30.3642 115.025 27.2399 114.062 23.7165 111.614Z" fill="#E6EFFF"/>
<path d="M116.257 117.425C115.912 119.84 114.562 121.304 112.124 121.907C108.687 122.753 49.8495 123.948 42.94 123.31C35.7992 122.651 32.619 121.431 32.6343 119.354C32.6521 116.99 32.6368 95.3516 32.6343 91.4393C33.0461 91.4978 33.4655 91.5308 33.8926 91.5308C34.49 91.5308 35.1001 91.4698 35.7204 91.3554C35.4662 96.2134 34.5256 115.94 35.8246 117.89C36.1348 118.355 36.8618 119.446 50.5613 119.771C53.0602 119.83 55.8667 119.86 58.8664 119.86C64.1845 119.86 70.1127 119.769 76.0283 119.588C80.1033 119.464 84.4223 119.408 88.6016 119.352C105.252 119.128 112.625 118.831 113.354 116.919C114.219 114.649 113.575 95.6465 113.413 91.2334C114.234 91.4317 115.04 91.5334 115.823 91.5334C115.97 91.5334 116.112 91.5232 116.257 91.5156C116.318 98.8191 116.425 116.235 116.257 117.425Z" fill="#FFD2D2"/>
<path d="M124.616 79.8955C124.496 83.7137 122.943 87.1024 120.462 88.9632C118.487 90.4427 116.074 90.8724 113.484 90.2038C107.276 88.6022 102.037 81.8732 100.557 76.2933C99.164 71.0438 99.7767 70.6752 103.264 69.6101C107.184 68.4127 113.308 64.8385 113.611 64.6606C113.733 64.5919 113.863 64.5157 113.997 64.4369C115.937 63.3056 117.676 62.5303 119.28 64.536C120.215 65.7079 124.865 71.9387 124.616 79.8955Z" fill="#E6EFFF"/>
<path d="M73.6971 7.92305C69.2738 7.92305 69.2815 1.05933 73.6971 1.05933C78.1204 1.05933 78.1153 7.92305 73.6971 7.92305ZM65.6081 3.80227C62.827 3.80227 62.8219 8.12388 65.6081 8.12388C68.3892 8.12388 68.3943 3.80227 65.6081 3.80227ZM80.8074 3.20233C78.517 3.20233 78.5144 6.7613 80.8074 6.7613C83.0979 6.7613 83.1004 3.20233 80.8074 3.20233ZM80.3168 9.72287C80.2431 9.46357 80.1134 9.23987 79.9253 9.04921C79.8236 8.9704 79.7194 8.88905 79.6177 8.81025C79.3788 8.67297 79.122 8.60179 78.8475 8.60179H78.6034C78.3924 8.59417 78.1967 8.63738 78.0162 8.73398C77.8281 8.795 77.6628 8.90176 77.5256 9.04921C77.3756 9.18648 77.2714 9.35172 77.2103 9.53984C77.1137 9.72287 77.0705 9.91861 77.0781 10.1271C77.0959 10.2618 77.1137 10.3965 77.1315 10.5313C77.2053 10.7906 77.3349 11.0143 77.523 11.2049C77.6247 11.2837 77.7289 11.3651 77.8306 11.4439C78.0696 11.5812 78.3263 11.6523 78.6009 11.6523H78.8449C79.0559 11.66 79.2517 11.6167 79.4321 11.5201C79.6203 11.4591 79.7855 11.3524 79.9228 11.2049C80.0728 11.0676 80.177 10.9024 80.238 10.7143C80.3346 10.5313 80.3778 10.3355 80.3702 10.1271C80.3524 9.99487 80.3346 9.86014 80.3168 9.72287ZM70.0212 9.84743C68.712 9.84743 68.7095 11.8811 70.0212 11.8811C71.3304 11.8811 71.3304 9.84743 70.0212 9.84743ZM76.0257 11.6752C75.9952 11.5684 75.9418 11.4744 75.863 11.3956C75.8198 11.3625 75.7766 11.3295 75.7334 11.2964C75.6342 11.238 75.5275 11.21 75.4131 11.21H75.169C75.0826 11.2075 74.9987 11.2253 74.925 11.2659C74.8462 11.2914 74.7775 11.3346 74.7216 11.3981C74.6606 11.4566 74.6148 11.5227 74.5894 11.6015C74.5487 11.6778 74.5309 11.7591 74.5335 11.8455C74.5411 11.9015 74.5487 11.9574 74.5564 12.0133C74.5869 12.1201 74.6403 12.2141 74.7191 12.293C74.7623 12.326 74.8055 12.359 74.8487 12.3921C74.9479 12.4506 75.0546 12.4785 75.169 12.4785H75.4131C75.4995 12.4811 75.5834 12.4633 75.6571 12.4226C75.7359 12.3972 75.8045 12.354 75.8605 12.2904C75.9215 12.2319 75.9672 12.1658 75.9927 12.087C76.0333 12.0108 76.0511 11.9294 76.0486 11.843C76.041 11.7896 76.0333 11.7337 76.0257 11.6752Z" fill="#9BC1F9"/>
<path d="M33.8926 91.5308C31.9733 91.5308 30.1913 90.941 28.6406 89.7767C25.9154 87.7329 24.2097 84.0493 24.08 79.926C23.8207 71.6133 28.666 65.1207 29.6397 63.903C31.9225 61.0482 34.6171 62.6218 36.2288 63.5598C36.361 63.6361 36.4856 63.7098 36.6051 63.7785C36.6076 63.781 36.6101 63.781 36.6127 63.7836C36.6762 63.8191 42.9248 67.4722 46.7456 68.639C51.0672 69.9584 51.5756 71.143 50.1393 76.5552C48.6064 82.3359 43.2985 89.431 36.483 91.1901C35.6009 91.4164 34.7341 91.5308 33.8926 91.5308ZM32.6775 63.3006C31.8996 63.3006 31.1522 63.6412 30.4328 64.5411C29.4973 65.7105 24.8478 71.9412 25.0969 79.8955C25.2164 83.7138 26.7696 87.1024 29.2507 88.9632C31.2259 90.4428 33.6384 90.8724 36.2288 90.2038C42.4367 88.6023 47.676 81.8733 49.1555 76.2933C50.5486 71.0438 49.9359 70.6752 46.4481 69.6101C42.5307 68.4128 36.4093 64.8436 36.1017 64.6631C35.9797 64.5945 35.85 64.5182 35.7153 64.4394C34.6451 63.8166 33.6384 63.3006 32.6775 63.3006Z" fill="#39589E"/>
<path d="M115.82 91.5308C114.981 91.5308 114.114 91.4164 113.23 91.1901C106.414 89.431 101.106 82.3385 99.5734 76.5552C98.1371 71.143 98.6455 69.9609 102.967 68.639C106.788 67.4722 113.036 63.8217 113.1 63.7836C113.103 63.781 113.105 63.781 113.108 63.7785C113.227 63.7098 113.354 63.6361 113.484 63.5598C115.093 62.6218 117.79 61.0482 120.073 63.903C121.047 65.1207 125.892 71.6133 125.633 79.926C125.503 84.0493 123.8 87.7303 121.072 89.7767C119.524 90.9385 117.739 91.5308 115.82 91.5308ZM113.611 64.6631C113.303 64.8436 107.182 68.4153 103.265 69.6101C99.7767 70.6752 99.1641 71.0438 100.557 76.2933C102.037 81.8733 107.279 88.6023 113.484 90.2038C116.074 90.8724 118.487 90.4428 120.462 88.9632C122.943 87.1024 124.496 83.7112 124.616 79.8955C124.865 71.9412 120.215 65.7079 119.28 64.5411C117.676 62.5354 115.937 63.3082 113.997 64.442C113.863 64.5182 113.735 64.5945 113.611 64.6631Z" fill="#39589E"/>
<path d="M75.0012 97.6446C73.42 97.6446 69.7365 96.4524 59.6773 90.6284C53.0449 86.7872 46.771 82.7173 46.7074 82.6766C46.471 82.5241 46.4049 82.2089 46.5575 81.9725C46.71 81.736 47.0252 81.6699 47.2616 81.8225C56.8403 88.0456 72.9472 97.5506 75.3876 96.5718C78.911 95.1584 102.243 81.9394 102.479 81.8072C102.723 81.6699 103.033 81.7538 103.173 81.9979C103.31 82.2419 103.226 82.5521 102.982 82.6919C102.019 83.2384 79.3533 96.0761 75.7689 97.5175C75.5808 97.5887 75.3393 97.6446 75.0012 97.6446Z" fill="#39589E"/>
<path d="M39.7751 66.6129C39.5412 66.6129 39.3327 66.4502 39.2793 66.2138C39.0429 65.1385 37.0677 55.6716 40.891 54.4768C42.79 53.8845 60.5976 53.7269 76.3867 53.882C85.2866 53.9684 93.4646 54.1515 99.4183 54.393C110.126 54.8302 110.705 55.3183 110.985 55.5547C113.202 57.4206 112.444 64.353 112.35 65.1385C112.317 65.4181 112.065 65.6164 111.786 65.5834C111.506 65.5503 111.308 65.2961 111.341 65.019C111.577 63.0387 111.854 57.6164 110.329 56.3326C109.406 55.7784 98.437 55.1098 76.0536 54.8963C58.0427 54.726 42.729 54.9675 41.191 55.4479C38.7099 56.2233 39.7217 63.5039 40.2708 65.9952C40.3318 66.2697 40.1589 66.5417 39.8844 66.6002C39.8488 66.6078 39.8106 66.6129 39.7751 66.6129Z" fill="#39589E"/>
<path d="M34.3959 63.2981C34.1925 63.2981 33.9993 63.1761 33.9231 62.9727C33.8214 62.7109 33.951 62.416 34.2129 62.3143C34.2434 62.3041 37.1719 61.15 38.7023 59.4163C38.8878 59.2053 39.2081 59.1849 39.4191 59.3705C39.6301 59.5561 39.6505 59.8764 39.4649 60.0874C37.7693 62.0092 34.7111 63.2117 34.5815 63.2625C34.5179 63.2879 34.4569 63.2981 34.3959 63.2981Z" fill="#39589E"/>
<path d="M117.195 63.298C117.193 63.298 117.193 63.298 117.19 63.298C115.172 63.2802 112.009 59.8357 111.656 59.4416C111.468 59.2332 111.486 58.9129 111.694 58.7247C111.903 58.5366 112.225 58.5544 112.411 58.7629C113.634 60.1178 116.016 62.2735 117.2 62.2837C117.48 62.2863 117.706 62.515 117.704 62.7972C117.701 63.0743 117.475 63.298 117.195 63.298Z" fill="#39589E"/>
<path d="M58.8664 119.858C55.8667 119.858 53.0627 119.83 50.5613 119.769C36.8618 119.443 36.1347 118.353 35.8246 117.888C34.49 115.887 35.5195 95.1331 35.7407 90.992C35.756 90.7123 36 90.4962 36.2745 90.5115C36.5542 90.5267 36.7703 90.7657 36.755 91.0453C36.2542 100.502 35.7865 115.996 36.6711 117.323C36.8135 117.509 38.171 118.462 50.6909 118.754C57.5928 118.915 66.8156 118.849 75.9977 118.569C80.0803 118.444 84.4045 118.388 88.5863 118.332C94.7941 118.249 100.656 118.172 105.085 117.89C111.727 117.468 112.345 116.703 112.403 116.553C113.047 114.865 112.736 100.095 112.37 90.5801C112.36 90.3005 112.579 90.0641 112.858 90.0514C113.136 90.0412 113.374 90.2598 113.387 90.5395C113.481 92.985 114.277 114.489 113.354 116.914C112.627 118.828 105.252 119.126 88.6015 119.347C84.4248 119.403 80.1058 119.461 76.0308 119.583C70.1127 119.766 64.1845 119.858 58.8664 119.858Z" fill="#39589E"/>
<path d="M52.9051 124.522C48.0115 124.522 44.356 124.461 42.8459 124.322C36.9991 123.783 31.592 122.807 31.6174 119.344C31.6352 116.761 31.6174 91.0885 31.6174 90.8292C31.6174 90.5496 31.8436 90.3208 32.1258 90.3208C32.4055 90.3208 32.6342 90.547 32.6342 90.8292C32.6342 91.0885 32.652 116.766 32.6342 119.352C32.619 121.429 35.7992 122.649 42.94 123.307C49.8469 123.945 108.687 122.751 112.124 121.904C114.559 121.304 115.912 119.837 116.257 117.422C116.433 116.202 116.313 97.9116 116.252 90.9665C116.25 90.6869 116.476 90.4555 116.756 90.453C117.038 90.4581 117.266 90.6767 117.269 90.9563C117.279 91.9783 117.485 116.019 117.264 117.565C116.86 120.397 115.212 122.189 112.368 122.888C109.442 123.615 71.882 124.522 52.9051 124.522Z" fill="#39589E"/>
<path d="M93.9832 55.2217C93.8968 55.2217 93.8104 55.2014 93.7316 55.1556C89.9997 53.0279 90.7268 44.4914 90.7598 44.1304C90.7776 43.9449 90.8946 43.7847 91.0649 43.711C91.1361 43.6805 98.0811 40.602 98.3862 35.0678C98.6989 29.3963 95.5619 24.6807 95.5314 24.6349C95.4704 24.546 95.4399 24.4366 95.4449 24.3299C95.6102 20.3464 94.4205 11.36 88.7236 5.86901C84.918 2.20073 79.7041 0.599195 73.2243 1.10762C64.815 1.76857 59.0748 5.65801 56.1667 12.6692C53.9804 17.9415 54.2931 23.102 54.2982 23.1529C54.3084 23.3232 54.2346 23.4884 54.0974 23.5927C54.0745 23.6105 51.4714 25.7433 51.5756 33.0366C51.6773 40.3096 56.5226 42.6433 56.7285 42.7374C56.909 42.8213 57.0234 43.0017 57.0234 43.2C57.0234 50.6764 54.5372 54.4642 54.4304 54.6218C54.2728 54.8557 53.9576 54.9167 53.7237 54.759C53.4898 54.6014 53.4288 54.2862 53.5839 54.0549C53.6067 54.0193 55.9353 50.4451 56.0014 43.5076C54.8244 42.8492 50.6528 40.0198 50.5562 33.0519C50.4621 26.3178 52.5746 23.6613 53.2686 22.9749C53.2254 21.8513 53.1949 17.1967 55.2108 12.3158C57.3157 7.21887 62.133 0.960176 73.1404 0.0958553C79.9228 -0.43799 85.401 1.26015 89.4252 5.13688C95.3051 10.8058 96.5965 19.9879 96.4643 24.2104C97.016 25.0747 99.7055 29.5997 99.4005 35.1288C99.0929 40.6833 93.152 43.8483 91.7512 44.5194C91.6597 45.9989 91.4106 52.6694 94.2349 54.2786C94.4789 54.4184 94.5628 54.7285 94.4256 54.9726C94.3315 55.1302 94.1612 55.2217 93.9832 55.2217Z" fill="#39589E"/>
<path d="M32.1335 116.482C32.1055 116.482 32.0775 116.479 32.0496 116.474C31.8843 116.446 27.9263 115.765 23.1827 112.483C18.8229 109.465 12.9659 103.583 9.82892 92.69C5.28869 76.9263 11.9465 63.7785 15.5233 56.714C16.5401 54.7082 17.4171 52.9745 17.3307 52.4229C17.1909 51.5204 15.7317 50.8112 13.8811 49.9138C10.8432 48.4394 6.68432 46.4209 3.46599 41.6265C-0.479376 35.7466 -0.126022 30.9038 0.161238 27.0093C0.268007 25.5374 0.372234 24.1494 0.224791 22.8911C-0.461582 17.0035 1.27977 15.1681 2.86351 14.6673C4.37861 14.1868 5.4641 15.7172 6.96903 17.8399C7.79522 19.0042 8.73072 20.3261 9.92552 21.5971C10.889 22.6216 12.0024 23.6105 13.1845 24.6553C15.9122 27.0703 19.0034 29.8056 20.8032 33.7129C21.6879 35.6347 22.5192 37.8692 23.3199 40.0275C24.347 42.7933 25.9002 46.9725 26.6298 47.0437C26.6298 47.0437 26.8357 46.9878 27.0645 46.065C27.2628 45.2592 27.4026 44.0949 27.5627 42.7475C27.878 40.1292 28.2695 36.8702 29.3397 33.7586C31.6556 27.0373 36.6381 24.4443 39.9352 22.7309C42.3503 21.4751 43.3671 20.5269 44.5441 19.4261C45.144 18.8669 45.7618 18.2898 46.6108 17.6263C47.4345 16.9832 48.3166 16.9984 48.9725 17.6721C50.4291 19.1694 50.4698 23.4834 48.5149 25.845C47.2464 27.3779 47.0888 28.3236 46.804 30.0395C46.5575 31.5165 46.2219 33.54 45.0068 36.832C42.3401 44.0542 37.599 48.5639 34.49 49.141C33.4122 49.3393 32.7258 49.7791 32.6038 50.3459C32.4894 50.8798 32.8783 51.5433 33.5952 52.0339C34.9501 52.9669 39.9556 54.0168 41.7706 54.3422C42.0477 54.393 42.2308 54.6548 42.1799 54.9319C42.1291 55.209 41.8647 55.392 41.5902 55.3412C41.3156 55.2929 34.8307 54.1159 33.0181 52.8703C31.9454 52.1331 31.4064 51.0832 31.6073 50.1324C31.7318 49.5503 32.2453 48.5182 34.3019 48.1394C37.1338 47.6157 41.5139 43.35 44.0509 36.4787C45.233 33.2756 45.5609 31.308 45.7999 29.8717C46.0948 28.1049 46.288 26.9406 47.7319 25.1942C49.3919 23.1859 49.2623 19.4236 48.2454 18.3788C48.0421 18.1703 47.765 18.0127 47.2387 18.4246C46.4253 19.0626 45.8228 19.6244 45.2381 20.1684C44.056 21.2717 42.94 22.3115 40.4055 23.6308C37.0626 25.3696 32.4843 27.7516 30.3006 34.0891C29.266 37.0964 28.8821 40.2969 28.572 42.867C28.1906 46.0498 27.9593 47.9716 26.6933 48.058C25.3257 48.1496 24.2631 45.488 22.3667 40.3808C21.571 38.2378 20.7473 36.0236 19.8779 34.1374C18.1671 30.4234 15.2894 27.8787 12.5083 25.4154C11.311 24.3553 10.1772 23.3537 9.18322 22.2937C7.94266 20.9718 6.98429 19.6193 6.13776 18.4271C4.93025 16.7239 3.97696 15.3816 3.17111 15.6358C1.45009 16.1824 0.761178 18.7169 1.23401 22.7741C1.39162 24.1265 1.2874 25.5628 1.17554 27.083C0.888284 31.0131 0.56035 35.4695 4.31252 41.057C7.37831 45.6227 11.3949 47.5725 14.3259 48.9961C16.5274 50.0638 18.1162 50.8366 18.3374 52.2652C18.467 53.1016 17.8086 54.4489 16.4308 57.169C12.9176 64.109 6.37672 77.0229 10.8051 92.4028C13.8505 102.981 19.5068 108.685 23.714 111.608C28.2771 114.779 32.1741 115.457 32.2123 115.465C32.4894 115.511 32.6749 115.772 32.6292 116.05C32.5911 116.304 32.3775 116.482 32.1335 116.482Z" fill="#39589E"/>
<path d="M73.5064 89.2964C73.5064 89.2964 63.5922 81.8505 60.8696 74.1275C58.147 66.402 67.4053 55.8014 75.141 68.3468C75.141 68.3468 79.1728 59.7569 85.2739 63.7862C91.375 67.8154 87.7804 83.8664 73.5064 89.2964Z" fill="#FFD7D7"/>
<path d="M73.5064 89.8048C73.3971 89.8048 73.2903 89.7692 73.2014 89.7031C72.7921 89.3955 63.132 82.0767 60.3891 74.2953C58.8536 69.9381 60.8975 64.498 64.7641 62.6498C66.4368 61.8491 70.7101 60.7712 75.1003 67.3426C75.9011 65.9597 77.8051 63.1837 80.5659 62.4058C82.2132 61.9431 83.891 62.2634 85.551 63.3616C87.8796 64.8996 88.9701 68.0188 88.538 71.9184C87.8364 78.2585 82.9733 86.2356 73.6844 89.7717C73.6285 89.7946 73.5674 89.8048 73.5064 89.8048ZM67.3926 63.0566C66.6529 63.0566 65.9182 63.2244 65.2013 63.5675C61.8356 65.1767 59.9976 70.1287 61.3475 73.9572C63.765 80.8133 72.1184 87.5677 73.5903 88.7193C82.3047 85.29 86.8703 77.7805 87.5288 71.8091C87.9101 68.3544 86.9619 65.5148 84.9917 64.2107C83.5885 63.2828 82.1903 63.0057 80.8404 63.3845C77.6374 64.2844 75.6189 68.5196 75.5986 68.5628C75.5198 68.7331 75.3545 68.845 75.1664 68.8552C74.9809 68.8679 74.8029 68.7738 74.7038 68.6136C72.4692 64.981 69.8941 63.0566 67.3926 63.0566Z" fill="#39589E"/>
<path d="M75.2987 38.8402C80.0427 38.8402 83.8885 34.9944 83.8885 30.2504C83.8885 25.5064 80.0427 21.6606 75.2987 21.6606C70.5547 21.6606 66.7089 25.5064 66.7089 30.2504C66.7089 34.9944 70.5547 38.8402 75.2987 38.8402Z" fill="#EEF9FF"/>
<path d="M77.1493 26.2339C77.1061 25.9568 76.5951 25.695 75.8757 25.5806C74.7953 25.4102 73.6081 25.6263 73.4353 25.9746C73.3412 26.1602 73.3336 26.3356 73.4073 26.5262C73.6615 27.1872 74.7648 27.7312 75.0978 27.8812L75.1665 27.9117L75.2351 27.8761C77.0959 26.9355 77.1722 26.3813 77.1493 26.2339Z" fill="#668FD8"/>
<path d="M77.5967 32.6908L77.5815 32.6501C77.5611 32.6145 77.5509 32.5738 77.5509 32.5205V32.4239L77.4645 32.3806C76.7171 32.012 76.0867 31.3206 75.5935 30.3291L75.4029 29.9427L75.2986 30.3597C75.0825 31.2265 74.6961 31.8798 74.1496 32.2968C73.9615 32.4417 73.7454 32.556 73.4886 32.6501L73.3717 32.6933L73.3844 32.8153C73.453 33.4534 73.7734 34.9507 75.2859 35.0804C75.352 35.0855 75.4181 35.088 75.4842 35.088C76.0816 35.088 76.5824 34.8541 76.9764 34.3889C77.5357 33.7254 77.6475 32.8941 77.5967 32.6908Z" fill="#FF365D"/>
<path d="M75.1792 28.4811C75.1487 28.4811 75.1157 28.476 75.0852 28.4633C75.0114 28.4353 73.2981 27.7515 72.9015 26.7194C72.7744 26.3864 72.7896 26.0533 72.9498 25.733C73.3209 24.9907 74.9326 24.884 75.9571 25.0467C76.9689 25.2068 77.5968 25.6085 77.6807 26.1525C77.7874 26.8567 77.0045 27.6117 75.2885 28.4556C75.2555 28.4734 75.2173 28.4811 75.1792 28.4811ZM75.075 25.4865C74.2285 25.4865 73.5396 25.6974 73.4074 25.9618C73.3108 26.1525 73.3031 26.3431 73.3769 26.5389C73.6209 27.1744 74.6708 27.7337 75.1691 27.9472C77.1265 26.966 77.2053 26.3838 77.1799 26.2262C77.1341 25.9313 76.6257 25.6644 75.8808 25.5475C75.6063 25.5068 75.3318 25.4865 75.075 25.4865Z" fill="#39589E"/>
<path d="M72.4464 32.7976C71.8516 32.7976 71.1754 32.6553 70.4255 32.368C70.2933 32.3172 70.2297 32.1723 70.278 32.0401C70.3289 31.9079 70.4763 31.8418 70.6059 31.8926C72.0117 32.429 73.0921 32.4214 73.8192 31.8672C75.1614 30.8453 74.9301 28.2777 74.9275 28.2523C74.9148 28.1176 75.0114 27.9956 75.1462 27.9752C75.2809 27.9574 75.408 28.049 75.4309 28.1837C75.436 28.2116 75.9495 31.0309 77.7035 31.8952C78.5348 32.307 79.5364 32.2129 80.6778 31.6181C80.8024 31.552 80.9549 31.6028 81.021 31.7249C81.0871 31.8494 81.0363 32.002 80.9142 32.068C79.6203 32.7417 78.4636 32.8358 77.4773 32.3502C76.4045 31.8215 75.7537 30.7106 75.38 29.7801C75.2529 30.6445 74.9275 31.6613 74.1268 32.2714C73.6667 32.6222 73.1048 32.7976 72.4464 32.7976Z" fill="#39589E"/>
<path d="M75.4792 35.6321C75.3978 35.6321 75.3165 35.6296 75.2351 35.622C73.3031 35.4567 72.8099 33.4917 72.8201 32.4748C72.8201 32.335 72.9345 32.2231 73.0769 32.2231C73.2167 32.2231 73.3311 32.3401 73.3285 32.4799C73.3285 32.5816 73.3336 34.9483 75.2783 35.1161C76.2316 35.1974 76.8087 34.6915 77.1239 34.2518C77.6018 33.5832 77.6857 32.8078 77.6247 32.6706C77.5535 32.5485 77.5942 32.396 77.7162 32.3248C77.8382 32.2536 77.9933 32.2969 78.0645 32.4163C78.2755 32.7773 78.0772 33.7001 77.6374 34.3941C77.129 35.1974 76.3689 35.6321 75.4792 35.6321Z" fill="#39589E"/>
<path d="M89.9337 30.5123C89.9006 30.5123 89.8676 30.4996 89.8421 30.4741C86.967 27.4744 82.6505 27.5914 82.6098 27.5939C82.5335 27.599 82.4802 27.5405 82.4776 27.4719C82.4751 27.4007 82.531 27.3422 82.5996 27.3397C82.6429 27.3372 87.0687 27.2151 90.0252 30.2987C90.0735 30.3496 90.0709 30.4309 90.0226 30.4792C89.9972 30.5021 89.9642 30.5123 89.9337 30.5123Z" fill="#39589E"/>
<path d="M89.9336 32.6018C89.8904 32.6018 89.8497 32.5815 89.8269 32.5433C88.0703 29.7368 83.2097 29.0581 83.1589 29.053C83.0902 29.0428 83.0394 28.9793 83.0496 28.9106C83.0597 28.842 83.1233 28.7937 83.1919 28.8013C83.3953 28.8293 88.2228 29.5004 90.0404 32.4086C90.0785 32.4671 90.0607 32.5459 89.9997 32.584C89.9794 32.5967 89.9565 32.6018 89.9336 32.6018Z" fill="#39589E"/>
<path d="M89.2676 35.5049C89.2142 35.5049 89.1659 35.4718 89.1481 35.421C87.9482 32.0171 83.1944 30.8376 83.1461 30.8249C83.0775 30.8096 83.0368 30.741 83.0521 30.6723C83.0673 30.6037 83.136 30.563 83.2046 30.5783C83.2529 30.591 88.1414 31.801 89.387 35.3371C89.4099 35.4032 89.3769 35.4769 89.3082 35.4998C89.2955 35.5024 89.2803 35.5049 89.2676 35.5049Z" fill="#39589E"/>
<path d="M61.2814 30.5122C61.2509 30.5122 61.2179 30.4995 61.1924 30.4767C61.1416 30.4284 61.1391 30.347 61.1899 30.2962C64.1464 27.2126 68.5722 27.3346 68.6154 27.3371C68.6866 27.3397 68.74 27.3982 68.7374 27.4693C68.7349 27.5405 68.6815 27.599 68.6053 27.5914C68.562 27.5888 64.2481 27.4719 61.3729 30.4716C61.3501 30.4995 61.3145 30.5122 61.2814 30.5122Z" fill="#39589E"/>
<path d="M61.2814 32.6019C61.2585 32.6019 61.2356 32.5968 61.2153 32.5816C61.1568 32.5434 61.1365 32.4672 61.1746 32.4062C62.9948 29.498 67.8197 28.8243 68.0231 28.7989C68.0943 28.7913 68.1553 28.8396 68.1655 28.9082C68.1756 28.9768 68.1248 29.0404 68.0562 29.0506C68.0079 29.0582 63.1448 29.7344 61.3882 32.5409C61.3653 32.5816 61.3246 32.6019 61.2814 32.6019Z" fill="#39589E"/>
<path d="M61.9474 35.505C61.9322 35.505 61.9195 35.5025 61.9042 35.4974C61.8381 35.4745 61.8025 35.4008 61.8254 35.3347C63.0711 31.7986 67.9596 30.5885 68.0079 30.5758C68.0765 30.5606 68.1451 30.6013 68.1604 30.6699C68.1756 30.7385 68.135 30.8072 68.0663 30.8224C68.018 30.8326 63.2643 32.0121 62.0644 35.4186C62.0491 35.4719 62.0008 35.505 61.9474 35.505Z" fill="#39589E"/>
<path d="M78.606 28.6717C78.034 28.6717 78.034 27.7845 78.606 27.7845C79.178 27.7845 79.178 28.6717 78.606 28.6717ZM78.1306 29.1166C77.5586 29.1166 77.5586 30.0038 78.1306 30.0038C78.7026 30.0038 78.7026 29.1166 78.1306 29.1166ZM80.2253 28.7353C79.6533 28.7353 79.6533 29.6225 80.2253 29.6225C80.7947 29.625 80.7973 28.7353 80.2253 28.7353ZM72.3244 27.8786C71.7524 27.8786 71.7524 28.7658 72.3244 28.7658C72.8964 28.7683 72.8964 27.8786 72.3244 27.8786ZM73.1811 29.1166C72.6091 29.1166 72.6091 30.0038 73.1811 30.0038C73.7531 30.0038 73.7531 29.1166 73.1811 29.1166ZM71.1804 29.4013C70.6085 29.4013 70.6085 30.2885 71.1804 30.2885C71.7524 30.2911 71.755 29.4013 71.1804 29.4013Z" fill="#39589E"/>
<path d="M86.0315 26.0712C82.3098 26.0712 82.3149 20.2955 86.0315 20.2955C89.7532 20.2955 89.7455 26.0712 86.0315 26.0712ZM64.2328 19.6294C60.5162 19.6294 60.5112 25.4051 64.2328 25.4051C67.9494 25.4051 67.9545 19.6294 64.2328 19.6294ZM85.6197 16.6425C85.6222 16.6399 85.6248 16.6374 85.6298 16.6348C85.6273 16.6374 85.6273 16.6374 85.6248 16.6374C85.6222 16.6399 85.6197 16.6425 85.6197 16.6425ZM86.4993 16.6425C86.4916 16.6399 86.4992 16.6475 86.5425 16.6704L86.5399 16.6679C86.5272 16.6603 86.512 16.6501 86.4993 16.6425ZM86.6238 16.7518C86.6442 16.7848 86.6518 16.8001 86.6518 16.795C86.6441 16.7823 86.634 16.767 86.6238 16.7518ZM86.3671 16.5687C86.4128 16.5942 86.423 16.5992 86.4154 16.5942C86.4001 16.5865 86.3849 16.5789 86.3696 16.5713C86.3696 16.5713 86.3696 16.5687 86.3671 16.5687ZM87.2924 17.0034C87.0941 17.1305 86.7967 17.0467 86.6848 16.8433C86.6747 16.8255 86.6645 16.8102 86.6543 16.795C86.6543 16.7924 86.6441 16.7696 86.6289 16.7543C86.6289 16.7543 86.6289 16.7518 86.6264 16.7518C86.6213 16.7441 86.6162 16.7391 86.6136 16.7314C86.6187 16.7416 86.6213 16.7416 86.6238 16.7492C86.6111 16.734 86.5984 16.7213 86.5831 16.706C86.5704 16.6933 86.5552 16.6806 86.5425 16.6679C86.5475 16.6704 86.5501 16.673 86.5577 16.678C86.5501 16.6755 86.545 16.6704 86.5374 16.6653L86.5348 16.6628C86.5221 16.6526 86.5069 16.6425 86.4993 16.6399C86.4865 16.6297 86.4713 16.6221 86.4586 16.612C86.4459 16.6043 86.4306 16.5967 86.4154 16.5891C86.4077 16.584 86.3925 16.5738 86.3772 16.5687C86.3747 16.5687 86.3721 16.5662 86.3721 16.5662C86.3645 16.5636 86.3594 16.5611 86.3518 16.556C86.3594 16.5611 86.3594 16.5611 86.3671 16.5636C86.3493 16.5586 86.3315 16.5509 86.3162 16.5459C86.273 16.5331 86.2323 16.523 86.1891 16.5128C86.1815 16.5103 86.1739 16.5103 86.1637 16.5077C86.0849 16.5026 86.0061 16.5103 85.9273 16.5103C85.912 16.5128 85.8942 16.5153 85.879 16.5204C85.8383 16.5306 85.7951 16.5433 85.757 16.556C85.7468 16.5611 85.7366 16.5662 85.7315 16.5687C85.6959 16.5865 85.6629 16.6069 85.6298 16.6297C85.6375 16.6247 85.6451 16.617 85.6502 16.612C85.6426 16.6196 85.6324 16.6272 85.6248 16.6348C85.5917 16.6577 85.6019 16.6526 85.6197 16.6374C85.612 16.6425 85.607 16.6475 85.5993 16.6552C85.5663 16.6857 85.5383 16.7162 85.5078 16.7518C85.3477 16.9424 85.0452 16.9018 84.8799 16.7518C84.6918 16.5789 84.7299 16.3018 84.8799 16.1239C85.5409 15.3333 86.9594 15.5061 87.45 16.3933C87.572 16.6145 87.4983 16.8712 87.2924 17.0034ZM63.9812 16.1696C63.9837 16.1696 63.9837 16.1696 63.9812 16.1696V16.1696ZM63.5312 16.0476C63.5668 16.0476 63.5846 16.0476 63.582 16.0451C63.5668 16.0451 63.5515 16.0476 63.5363 16.0476C63.5337 16.0451 63.5337 16.0476 63.5312 16.0476ZM63.2439 16.1798C63.249 16.1772 63.2541 16.1747 63.2592 16.1696C63.2567 16.1722 63.2516 16.1747 63.2439 16.1798C63.2465 16.1772 63.2465 16.1772 63.2439 16.1798ZM64.093 16.2815C64.0498 16.2433 64.0701 16.2535 64.093 16.2815V16.2815ZM64.7082 16.4493C64.4972 16.584 64.2303 16.4823 64.1006 16.2891C64.0981 16.2866 64.0956 16.284 64.093 16.2789C64.0981 16.284 64.1006 16.2866 64.1057 16.2916C64.093 16.2815 64.0828 16.2637 64.0701 16.251C64.0422 16.2205 64.0117 16.195 63.9837 16.1671C63.9888 16.1722 63.9964 16.1772 64.0015 16.1772C63.9964 16.1747 63.9888 16.1696 63.9837 16.1645C63.9812 16.162 63.9786 16.1595 63.9761 16.1569C63.943 16.1264 63.9634 16.1493 63.9837 16.1645C63.971 16.1569 63.9583 16.1467 63.9456 16.1391C63.91 16.1188 63.8744 16.101 63.8388 16.0806C63.8235 16.0756 63.8108 16.0705 63.7956 16.0654C63.76 16.0552 63.7193 16.0501 63.6837 16.0374C63.6685 16.0374 63.6532 16.0349 63.638 16.0349C63.6202 16.0349 63.6024 16.0349 63.5846 16.0374C63.582 16.0349 63.5642 16.0349 63.5439 16.0374C63.5414 16.0374 63.5388 16.0374 63.5388 16.04C63.5312 16.04 63.5236 16.04 63.5185 16.04C63.5261 16.04 63.5287 16.04 63.5363 16.04C63.5185 16.0425 63.5007 16.0476 63.4829 16.0527C63.4651 16.0578 63.4499 16.0629 63.4321 16.0679C63.427 16.0705 63.4041 16.0781 63.3914 16.0832C63.371 16.0934 63.3532 16.1035 63.3355 16.1137C63.3151 16.1264 63.2897 16.1467 63.2643 16.162C63.2821 16.1467 63.2948 16.1315 63.2541 16.1671L63.2516 16.1696C63.2465 16.1722 63.2414 16.1772 63.2363 16.1772C63.2414 16.1772 63.2439 16.1722 63.249 16.1696C63.2338 16.1823 63.2211 16.195 63.2058 16.2103C63.1931 16.223 63.1804 16.2357 63.1702 16.2484C63.1677 16.251 63.155 16.2662 63.1473 16.2764C63.1448 16.2789 63.1448 16.2815 63.1423 16.2815C63.1321 16.2967 63.1219 16.312 63.1143 16.3247C63.1041 16.3425 63.094 16.3628 63.0838 16.3832C63.0533 16.4442 63.0762 16.3933 63.0914 16.3603C63.0457 16.4747 62.9897 16.5586 62.888 16.6247C62.7864 16.6908 62.6593 16.6958 62.5449 16.6704C62.4381 16.645 62.3339 16.5586 62.2805 16.467C62.2296 16.3781 62.194 16.223 62.2347 16.1239C62.3517 15.8366 62.5194 15.6104 62.7686 15.4248C62.9821 15.2646 63.2312 15.1833 63.4931 15.1528C64.0396 15.0892 64.5735 15.3892 64.8709 15.8341C65.0056 16.0501 64.8989 16.3272 64.7082 16.4493Z" fill="black"/>
<path d="M86.1255 22.835C84.9816 22.835 84.9816 21.0581 86.1255 21.0581C87.272 21.0581 87.2695 22.835 86.1255 22.835ZM64.2328 20.392C63.0888 20.392 63.0888 22.169 64.2328 22.169C65.3767 22.169 65.3767 20.392 64.2328 20.392Z" fill="white"/>
</svg>
