<svg xmlns="http://www.w3.org/2000/svg" xml:space="preserve" id="duck-idea" x="0" y="0" style="enable-background:new 0 0 512 512" version="1.1" viewBox="0 0 512 512">
  <g>
    <g>
      <g>
        <path d="M206.7,227.34c0.4-0.41,0.61-0.98,0.56-1.56c-0.02-0.31-2.39-31.11,6.51-63.15
				c11.72-42.21,36.46-66.62,73.52-72.58c2,1.82,4.03,3.06,4.45,3.32c0.32,0.19,0.67,0.28,1.02,0.28c0.68,0,1.35-0.35,1.72-0.98
				c0.56-0.95,0.25-2.18-0.69-2.74c-1.37-0.82-3.03-2.05-4.37-3.36c-0.01-0.01-0.03-0.03-0.04-0.04c-1.34-1.32-2.34-2.72-2.38-3.84
				c-0.01-0.29-0.03-1.05,1.37-2.02c3.5-2.42,10.36,1.02,15.32,4.31c0,0,0.01,0,0.01,0.01c1.98,1.31,3.65,2.6,4.69,3.48
				c0.84,0.72,2.1,0.62,2.82-0.22c0.72-0.84,0.62-2.1-0.22-2.82c-0.52-0.44-2.31-1.93-4.78-3.61c-2.25-3.5-5.06-9.64-3.68-12.44
				c0.19-0.39,0.79-1.59,3.84-1.79c11.22-0.71,19.97,18.28,20.06,18.47c0.39,0.85,1.32,1.33,2.24,1.13c0.92-0.19,1.58-1,1.59-1.94
				c0.01-1.49,0.52-6.1,2.62-7.69c0.51-0.39,1.4-0.85,3.17-0.37c5.46,1.48,6.07,11.62,5.84,15.41c-0.06,1.05,0.7,1.97,1.74,2.1
				c0.47,0.06,47.16,6.68,63.62,59.54c16.61,53.34,1.97,87.71,1.82,88.05c-0.26,0.59-0.22,1.27,0.1,1.82
				c0.1,0.16,9.48,16.52-3.54,29.41c-14.37,14.23-56.97,20.89-108.55,16.96c-53.49-4.07-84.86-22.2-92.21-38.37
				C197.91,236.78,206.35,227.72,206.7,227.34z" style="fill:#ffec8f"></path>
      </g>
      <g>
        <path d="M99.11,162.4c-0.91-1.39-2.36-3.24-4.2-5.57c-10.01-12.66-30.83-39-29.76-76
				c0.56-19.38,9.69-36.67,25.72-48.69c18.74-14.05,43.6-18.43,68.2-12.01c52.33,13.65,59.54,52.98,56.37,83.57
				c-2.48,23.98-12.01,38.23-19.67,49.68c-4.17,6.24-7.77,11.62-9.57,17.43c-2.17,7.02-3.17,13.08-3.97,17.94
				c-0.97,5.87-1.67,10.1-3.71,11.62c-0.17,0.13-0.31,0.29-0.43,0.45c-15.17-2.11-50.46,0.2-61.22,3.94
				c-1.37-1.31-4.29-4.84-5.46-12.13C109.39,180.19,103.61,169.33,99.11,162.4z" style="fill:#fff"></path>
      </g>
      <g>
        <path d="M116.2,209.49c0.18-0.16,0.49-0.34,0.89-0.52c0.13-0.04,0.26-0.09,0.38-0.16
				c3.61-1.46,13.88-3.41,30.69-4.37c18.9-1.08,31.57-0.06,33.9,1.45c3.44,2.23,4.45,5.33,3.93,7.42c-0.37,1.5-1.47,2.43-3.01,2.56
				c-0.78,0.07-1.4,0.57-1.68,1.25c-5.26-1.32-13.71-1.83-28.09-0.33c-18.3,1.92-28.11,3.01-33.6,4.81
				C117.91,218.53,115.42,212.99,116.2,209.49z" style="fill:#e2e2e0"></path>
      </g>
      <g>
        <path d="M116.48,229.22c1.3-4.23,5.12-5.1,37.14-8.46c27.04-2.83,31.27,1.65,33.8,4.33c0.52,0.55,1.06,1.12,1.7,1.6
				c0.21,0.16,0.25,0.28,0.26,0.47c0.1,1.39-1.84,4.03-3.25,5.48c-0.66-0.24-1.33-0.39-1.99-0.43c-5.79-0.39-56.51,3.85-63.46,4.43
				C119.28,235.63,115.47,232.5,116.48,229.22z" style="fill:#e2e2e0"></path>
      </g>
      <g>
        <path d="M118.51,245.42c0.11-1.99,0.9-3.59,2.37-4.77c20.12-1.71,58.39-4.78,62.98-4.44
				c1.91,0.14,4.27,2.16,4.45,4.55c0.29,3.69-4.7,7.08-13.33,9.07c-16.34,3.77-35.47,4.84-45.94,4.48
				c-0.13-0.02-0.27-0.04-0.41-0.03c-0.03,0-0.06,0.01-0.1,0.01c-3.76-0.15-6.32-0.49-7.08-0.97
				C120.11,252.14,118.33,248.74,118.51,245.42z" style="fill:#e2e2e0"></path>
      </g>
      <g>
        <path d="M131.07,258.36c0.85,0.02,1.72,0.03,2.63,0.03c11.24,0,26.62-1.44,39.04-3.98
				c-0.7,2.17-2.04,5.21-4.52,8.04c-0.03,0.03-0.07,0.05-0.1,0.08c-0.1,0.1-0.19,0.2-0.26,0.32c-3.33,3.61-8.58,6.75-16.85,7.08
				C136.04,270.5,132.1,262.38,131.07,258.36z" style="fill:#e2e2e0"></path>
      </g>
      <g>
        <path d="M161.81,302.19c-14.93-14.27-13.74-24.88-12.82-28.25c0.16,0,0.31,0.02,0.48,0.02c0.56,0,1.12-0.01,1.7-0.03
				c2.46-0.1,4.68-0.43,6.7-0.92c0.01,0.01,0.01,0.02,0.01,0.03c0.35,0.56,8.84,13.64,25.86,15.88c0.09,0.01,0.18,0.02,0.26,0.02
				c0.99,0,1.85-0.73,1.98-1.74c0.14-1.09-0.63-2.1-1.72-2.24c-12.76-1.68-20.32-10.46-22.41-13.23c3.17-1.3,5.71-3.06,7.73-5
				c2.94,2.46,9.99,7.37,19.29,7.37c0.88,0,1.79-0.04,2.71-0.14c1.1-0.11,1.9-1.1,1.78-2.19c-0.11-1.1-1.09-1.91-2.19-1.78
				c-8.96,0.92-16.1-3.95-18.92-6.25c3.06-4.04,4.37-8.2,4.87-10.29c0.01,0,0.02,0,0.02-0.01c1.62,2.13,8.41,10.26,17.95,10.45
				c0.01,0,0.03,0,0.04,0c1.09,0,1.98-0.87,2-1.96c0.02-1.1-0.85-2.02-1.96-2.04c-6.47-0.13-11.63-5.12-13.89-7.71
				c2.6-0.93,4.6-1.97,6.15-3.05c0.02,0.01,0.04,0.02,0.06,0.03c0.06,0.02,6.13,1.97,13.67,4.48c0.02,0.05,0.04,0.1,0.06,0.15
				c3.55,7.79,12.37,16.6,27.3,24.09c-13.98,8.82-24.22,22.42-31.22,37C193.74,315.61,178.09,317.74,161.81,302.19z" style="fill:#ffec8f"></path>
      </g>
      <g>
        <path d="M267.45,459.7c0.17,5.23-2.21,11.36-4.9,12.61c-0.41,0.19-1.49,0.7-3.32-0.95
				c-2.17-1.95-3.53-3.91-4.73-5.64c-2.3-3.32-4.48-6.46-10.36-5.03c-2.75,0.67-5.51,2.26-7.94,3.67c-2.29,1.32-5.14,2.97-6.26,2.58
				c-0.35-0.12-0.62-0.65-0.79-1.07c-0.68-1.74-0.58-3.63-0.47-5.46c0.13-2.4,0.27-4.88-1.56-6.68c-1.6-1.56-4.24-2.11-8.55-1.78
				c-3.48,0.27-7.28,0.98-10.96,1.67c-10.54,1.98-17.52,2.92-18.6-1.74c-1.14-4.88,2.95-7.53,9.71-11.45
				c2.86-1.66,5.83-3.38,8.42-5.53c6.4-5.3,9.29-10.23,10.36-12.45c12.77,6.06,28.59,10.26,44.8,12.73
				C263.49,439.41,267.23,453.12,267.45,459.7z" style="fill:#ffa255"></path>
      </g>
      <g>
        <path d="M200.11,405.58c-9.62-10.66-13.33-31.82-9.68-55.21c3.79-24.32,16.85-55.56,42.15-70.3
				c0.09-0.05,0.17-0.12,0.25-0.18c15.39,6.93,36.46,12.47,63.97,14.56c10.12,0.77,19.86,1.15,29.11,1.15
				c13.48,0,25.89-0.8,36.91-2.34c3.23,4.27,26.42,36.15,28.76,74.58c2.06,33.83-17.68,53.34-63.99,63.27
				C293.16,438.48,222.91,430.85,200.11,405.58z" style="fill:#ffec8f"></path>
      </g>
      <g>
        <path d="M360.39,412.68c5.5-12.47,9.5-26.13,9.87-39.82c0.15-5.69-0.35-11.49-2.23-16.89
				c-1.93-5.54-5.1-10.62-8.87-15.1c-8.52-10.11-19.94-17.58-31.8-23.2c-12.18-5.77-25.39-9.83-38.79-11.44
				c-11.43-1.37-23.23-0.78-33.99,3.63c-10.53,4.33-19.47,11.97-26.31,20.98c-7.28,9.58-12.44,20.7-15.66,32.27
				c-3.24,11.63-4.57,23.84-3.63,35.88c0.42,5.34,1.32,10.68,2.76,15.86c29.49,17.78,86.06,22.64,115.84,16.26
				c10.74-2.3,20.03-5.12,27.97-8.51C357.31,419.33,358.92,416.01,360.39,412.68z" style="fill:#fff5cc"></path>
      </g>
      <g>
        <path d="M377.26,454.18c1.63,2.9,1.75,5.31,0.38,7.15c-2.12,2.84-7.5,4.1-10.89,3.32c-1.59-0.36-2.82-0.92-4-1.47
				c-3.67-1.69-6.47-2.47-11.61,1.89c-0.72,0.61-1.37,1.17-1.96,1.69c-4.67,4.06-5.06,4.39-9.24,2.6c-1.86-0.8-2.9-2.15-3.9-3.45
				c-1.08-1.4-2.19-2.84-4.14-3.05c-1.55-0.17-3.15,0.51-5.17,2.21c-4.55,3.81-12.98,6.66-16.4,5.53c-0.88-0.29-1.1-0.72-1.2-1.15
				c-1.22-5.01,2.26-9.29,7.51-15.75l0.07-0.08c4.62-5.68,4.95-13.69,4.82-17.36c2.42-0.35,4.72-0.76,6.91-1.23
				c8.8-1.89,18.41-4.41,27.55-8.21C359.52,430.78,372.25,445.24,377.26,454.18z" style="fill:#ffa255"></path>
      </g>
      <g>
        <path d="M413.94,376.33c3.24-2.62,13.1-10.61,16.09-9.33c0.73,0.31,1.23,1.61,1.41,3.65
				c0.72,8.29-18.49,24.43-36.06,27.4c-1.09,0.18-1.82,1.22-1.64,2.31c0.17,0.98,1.01,1.67,1.97,1.67c0.11,0,0.22-0.01,0.34-0.03
				c7.47-1.26,15.29-4.69,21.98-9.05c0.96,3.18,1.75,9.24-3.67,14.23c-2.82,2.6-7.26,4.06-11.84,4.86
				c-0.14,0.01-0.27,0.03-0.41,0.07c-8.43,1.41-17.22,0.64-17.36,0.63c-1.1-0.09-2.07,0.71-2.18,1.81c-0.1,1.1,0.71,2.07,1.81,2.18
				c0.31,0.03,2.83,0.25,6.43,0.25c3.12,0,7.04-0.17,11.03-0.78c0.31,0.48,0.62,1.16,0.46,1.91c-0.2,0.94-1.49,3.38-9.19,5.79
				c-11.33,3.54-20.14-1.08-23.99-3.76c11.8-7.38,21.35-17.93,24.99-33.42C395.78,386.53,402.8,385.35,413.94,376.33z" style="fill:#ffec8f"></path>
      </g>
      <g>
        <path d="M395.91,315.37c-1.1,0.13-1.88,1.12-1.76,2.22c0.12,1.02,0.98,1.77,1.98,1.77c0.08,0,0.16,0,0.23-0.01
				c16.01-1.86,29.83-6.91,40.54-13.02c0.07-0.03,0.14-0.05,0.21-0.09c2.13-1.15,8.43-3.72,11.97-1.82c1.7,0.91,2.65,2.82,2.92,5.82
				c0.2,2.26-0.87,4.65-3.18,7.11c-9.48,10.1-35.17,17.29-47.98,17.29c-0.27,0-0.54,0-0.8-0.01c-1.1-0.07-2.02,0.85-2.05,1.95
				c-0.03,1.1,0.85,2.02,1.95,2.05c0.29,0.01,0.58,0.01,0.88,0.01c5.15,0,12.1-1.05,19.32-2.94c1.33,1.51,3.94,5.96-1.15,14.47
				c-6.74,11.26-23.08,11.02-23.24,11.03c-0.27-0.01-0.53,0.04-0.77,0.14c-3.42-28.99-17.56-53.57-24.92-64.7
				c0.29,0.02,0.59,0.03,0.89,0.05c9.68,0.49,32.34,1.62,51.39-3.23c12.93-3.29,20.04-9.17,24.75-13.06
				c5.09-4.21,6.33-4.84,9.08-2.64c0.93,0.75,1.13,2.06,0.6,3.92C453.95,291.56,431.18,311.26,395.91,315.37z" style="fill:#ffec8f"></path>
      </g>
      <g>
        <path d="M290.79,247.74c0.35,0,0.71-0.02,1.06-0.04c1.16,3.75,5.01,9.71,13.36,10.9c1.36,0.2,2.66,0.29,3.88,0.29
				c6.66,0,11.2-2.9,13.54-8.64c1.75,0.46,3.44,0.77,5.14,0.77c3.16,0,6.33-1.05,9.91-4.09c0.84-0.71,0.95-1.98,0.23-2.82
				c-0.72-0.84-1.98-0.95-2.82-0.23c-5.41,4.59-9.08,3.37-15.75,1.17c-1.24-0.41-2.54-0.84-3.95-1.26
				c-6.71-2.02-12.79-1.27-18.14-0.62c-2.3,0.28-4.48,0.55-6.5,0.57c-0.04,0-0.07,0-0.1,0c-5.72,0-9.43-4.19-9.5-4.27
				c-0.72-0.84-1.98-0.94-2.81-0.22c-0.84,0.71-0.95,1.98-0.23,2.82C278.3,242.3,283.05,247.78,290.79,247.74z" style="fill:#ffec8f"></path>
      </g>
      <g>
        <path d="M264.61,228.22c-0.91,0.12-2.15,0.73-2.93,2.89c-1.98,5.48-0.37,18.55,9.37,29.17
				c8.27,9.03,24.38,13.18,40.18,13.18c8.5,0,16.9-1.2,23.94-3.5c15.28-4.99,21.35-18.76,21.7-26.8c0.15-3.5-0.76-5.85-2.56-6.62
				c-2.32-0.99-4.07-0.38-5.61,0.16c-1.68,0.58-3.41,1.19-6.91,0.3c-2.77-0.7-5.16-1.89-8.19-3.4c-4.48-2.23-10.06-5.01-19.37-7.29
				c-15.27-3.74-30.19,2.78-31.78,3.51c-5.58,1.81-9.97,0.35-13.19-0.71C267.42,228.51,265.97,228.02,264.61,228.22z" style="fill:#ffec8f"></path>
      </g>
      <g>
        <path d="M283.81,233.59c0.08-0.03,0.15-0.06,0.22-0.09c0.15-0.07,14.84-6.83,29.24-3.3
				c8.88,2.18,14.23,4.84,18.54,6.99c3.11,1.55,5.8,2.89,8.99,3.69c4.67,1.18,7.29,0.26,9.21-0.41c1.28-0.45,1.79-0.6,2.53-0.33
				c0.34,0.67,0.75,3.47-0.63,7.93c-1.26,4.08-5.54,14.01-18,18.08c-18.92,6.17-48.56,3.82-59.92-8.58
				c-9.94-10.85-9.6-23.04-8.46-25.38c0.6,0.1,1.62,0.43,2.47,0.71C271.55,234.09,276.92,235.87,283.81,233.59z" style="fill:#ffa255"></path>
      </g>
      <g>
        <path d="M262.22,173.57c0.01,0.01,0.01,0.01,0.02,0.02c-0.07-0.06-0.11-0.09-0.13-0.11c0.01,0,0.01,0.01,0.02,0.01
				C262.16,173.52,262.19,173.55,262.22,173.57z" style="fill:#ffec8f"></path>
      </g>
      <g>
        <path d="M355.2,179.52c1.38-1.88,3.76-3.03,6.11-2.76c2.33,0.28,4.47,1.81,5.38,3.99c0.42,1,0.05,2.07-0.91,2.58
				c-0.89,0.48-2.19,0.03-2.58-0.91c-0.08-0.19-0.17-0.36-0.26-0.54c-0.04-0.05-0.07-0.1-0.11-0.15c-0.11-0.14-0.23-0.27-0.35-0.4
				c-0.07-0.05-0.13-0.11-0.2-0.16c-0.14-0.11-0.29-0.19-0.44-0.29c-0.06-0.03-0.12-0.05-0.17-0.08c-0.16-0.07-0.33-0.11-0.5-0.17
				c-0.06-0.01-0.11-0.02-0.17-0.02c-0.17-0.02-0.36,0-0.53-0.02c-0.08,0.01-0.15,0.02-0.23,0.03c-0.07,0.01-0.42,0.11-0.5,0.12
				c0.09-0.02,0.34-0.14,0.1-0.04c-0.03,0.01-0.06,0.03-0.1,0.04c-0.06,0.02-0.12,0.05-0.19,0.08c-0.16,0.07-0.31,0.15-0.47,0.24
				c-0.07,0.05-0.14,0.1-0.21,0.16c-0.12,0.1-0.23,0.21-0.34,0.31c-0.05,0.07-0.11,0.14-0.16,0.21c-0.64,0.87-1.8,1.05-2.7,0.48
				C354.81,181.67,354.6,180.34,355.2,179.52z" style="fill:#ffec8f"></path>
      </g>
      <g>
        <path d="M262.47,191c15.55,1.27,13.55,25.4-1.97,24.13C244.94,213.86,246.94,189.73,262.47,191z" style="fill:#ffec8f"></path>
      </g>
      <g>
        <path d="M357.7,198.79c15.55,1.27,13.55,25.4-1.97,24.13C340.17,221.65,342.17,197.52,357.7,198.79z" style="fill:#ffec8f"></path>
      </g>
      <g>
        <path d="M256.1,174.01c-0.19-0.4-0.29-1.09-0.07-1.5c0.32-0.63,0.63-1.08,1.11-1.6c0.36-0.38,0.78-0.67,1.22-0.94
				c0.88-0.53,1.93-0.75,2.95-0.73c2.05,0.04,4.04,1.45,4.84,3.31c0.43,1,0.05,2.07-0.91,2.58c-0.9,0.48-2.18,0.02-2.58-0.91
				c-0.04-0.1-0.09-0.2-0.14-0.3c-0.02-0.04-0.02-0.04-0.03-0.06c-0.08-0.1-0.16-0.19-0.23-0.26c-0.01-0.01-0.01-0.01-0.02-0.02
				c0.03,0.02,0.06,0.05,0.11,0.08c-0.04-0.03-0.09-0.07-0.13-0.1c-0.07-0.07-0.15-0.13-0.11-0.09c-0.09-0.07-0.19-0.12-0.28-0.18
				c-0.13-0.05-0.26-0.1-0.39-0.15c-0.16-0.02-0.33-0.04-0.49-0.04c-0.11,0.02-0.22,0.04-0.33,0.06c-0.14,0.06-0.28,0.11-0.42,0.18
				c-0.03,0.02-0.06,0.03-0.08,0.05c-0.03,0.03-0.07,0.06-0.09,0.08c-0.07,0.06-0.13,0.12-0.2,0.18c-0.12,0.17-0.24,0.33-0.35,0.52
				c0.06-0.12,0.12-0.23,0.18-0.35c-0.24,0.47-0.5,0.82-0.98,1.07c-0.46,0.25-1.02,0.23-1.5,0.07
				C256.73,174.85,256.31,174.43,256.1,174.01z" style="fill:#ffec8f"></path>
      </g>
      <g>
        <ellipse cx="146.54" cy="149.56" rx="40.95" ry="36.19" style="fill:#ffec8f"></ellipse>
      </g>
      <g>
        <path d="M297.74,247.15c5.21-0.64,10.6-1.3,16.51,0.48c1.37,0.41,2.64,0.83,3.84,1.23
				c0.24,0.08,0.47,0.15,0.71,0.23c-1.43,3.29-4.51,6.78-13.01,5.56c-6.3-0.9-8.85-5.03-9.79-7.29
				C296.57,247.29,297.15,247.22,297.74,247.15z" style="fill:#ff2c2c"></path>
      </g>
    </g>
    <g id="lineart_00000120554638695634709800000016866018926093277621_">
      <g id="body_00000014591882877184165310000011073036367721959061_">
        <g>
          <g>
            <path d="M133.7,258.39c-7.58,0-13.26-0.65-14.87-2.06c-2.27-1.99-4.56-6.56-4.31-11.13
						c0.18-3.41,1.73-6.22,4.48-8.14c0.29-0.2,0.62-0.32,0.98-0.35c2.37-0.2,58.08-4.92,64.17-4.5c3.65,0.26,7.8,3.63,8.16,8.23
						c0.27,3.48-1.5,9.84-16.42,13.28C163.01,256.7,145.9,258.39,133.7,258.39z M120.88,240.64c-1.47,1.18-2.27,2.79-2.37,4.77
						c-0.18,3.32,1.6,6.72,2.95,7.9c2.86,1.78,30.88,1.74,53.52-3.49c8.64-1.99,13.62-5.38,13.33-9.07
						c-0.19-2.4-2.55-4.42-4.45-4.55C179.27,235.87,141,238.94,120.88,240.64z" style="fill:#873c1e"></path>
          </g>
          <g>
            <path d="M120.14,240.7c-0.36,0-0.72-0.1-1.05-0.3c-0.35-0.22-8.58-5.38-6.43-12.35
						c2.17-7.04,7.68-7.82,40.54-11.26c29.01-3.04,33.9,2.14,37.13,5.56c0.44,0.47,0.83,0.88,1.2,1.16
						c1.11,0.84,1.75,2.01,1.84,3.39c0.25,3.73-3.73,7.9-4.53,8.7c-0.78,0.78-2.05,0.78-2.83-0.01c-0.78-0.78-0.78-2.05,0.01-2.83
						c1.41-1.42,3.46-4.17,3.36-5.6c-0.01-0.19-0.06-0.31-0.26-0.47c-0.64-0.49-1.18-1.05-1.7-1.6c-2.53-2.68-6.76-7.16-33.8-4.33
						c-32.02,3.35-35.83,4.22-37.14,8.46c-1.23,3.98,4.65,7.74,4.71,7.77c0.94,0.58,1.23,1.81,0.65,2.75
						C121.47,240.36,120.81,240.7,120.14,240.7z" style="fill:#873c1e"></path>
          </g>
          <g>
            <path d="M118.74,226.08c-0.66,0-1.31-0.33-1.69-0.93c-0.66-1.04-6.39-10.36-4.67-16.88
						c0.46-1.76,2.44-2.71,3.89-3.27c11.84-4.58,60.71-7.17,67.96-2.47c4.48,2.9,6.7,7.51,5.64,11.75c-0.79,3.16-3.3,5.3-6.55,5.57
						c-1.1,0.09-2.07-0.72-2.16-1.83c-0.09-1.1,0.72-2.07,1.83-2.16c1.54-0.13,2.64-1.06,3.01-2.56c0.52-2.09-0.49-5.2-3.93-7.42
						c-2.33-1.51-15-2.52-33.9-1.45c-19.62,1.12-30.37,3.59-31.96,5.05c-0.92,4.13,2.73,11.13,4.23,13.52
						c0.59,0.93,0.31,2.17-0.62,2.76C119.48,225.98,119.11,226.08,118.74,226.08z M116.12,209.57L116.12,209.57L116.12,209.57z" style="fill:#873c1e"></path>
          </g>
          <g>
            <path d="M116.49,209.07c-0.37,0-0.74-0.1-1.08-0.32c-0.25-0.16-6.12-4.09-7.95-15.46
						c-1.9-11.77-7.41-22.11-11.7-28.71c-0.81-1.24-2.21-3.02-3.99-5.27c-10.3-13.03-31.73-40.15-30.62-78.59
						c0.59-20.62,10.3-39.01,27.32-51.77c19.72-14.79,45.82-19.41,71.61-12.68c55.07,14.37,62.67,55.71,59.34,87.86
						c-2.58,24.97-12.42,39.67-20.32,51.49c-4,5.98-7.45,11.14-9.07,16.38c-2.09,6.76-3.06,12.67-3.85,17.41
						c-1.12,6.79-1.93,11.7-5.27,14.18c-0.89,0.66-2.14,0.47-2.8-0.42c-0.66-0.89-0.47-2.14,0.41-2.8
						c2.05-1.52,2.74-5.76,3.71-11.62c0.8-4.87,1.8-10.92,3.97-17.94c1.8-5.8,5.4-11.19,9.57-17.43
						c7.66-11.45,17.19-25.7,19.67-49.68c3.16-30.59-4.05-69.92-56.37-83.57c-24.61-6.42-49.46-2.04-68.2,12.01
						C74.84,44.17,65.7,61.46,65.14,80.84c-1.07,37,19.75,63.34,29.76,76c1.84,2.33,3.3,4.17,4.2,5.57
						c4.5,6.92,10.29,17.79,12.3,30.25c1.53,9.48,6.01,12.62,6.2,12.75c0.91,0.62,1.16,1.85,0.55,2.77
						C117.77,208.75,117.13,209.07,116.49,209.07z" style="fill:#873c1e"></path>
          </g>
        </g>
        <g>
          <g>
            <path d="M297.12,437.86c-36.56,0-81.74-9.39-99.98-29.6c-10.56-11.71-14.55-33.58-10.66-58.5
						c3.93-25.23,17.58-57.7,44.09-73.14c0.96-0.56,2.18-0.23,2.73,0.72s0.23,2.18-0.72,2.74c-25.29,14.73-38.35,45.97-42.15,70.3
						c-3.65,23.39,0.06,44.54,9.68,55.21c22.79,25.27,93.04,32.9,127.47,25.53c46.32-9.93,66.06-29.44,63.99-63.27
						c-2.5-41.1-28.88-74.73-29.14-75.07c-0.69-0.87-0.54-2.12,0.32-2.81s2.12-0.54,2.81,0.32c0.27,0.34,27.42,34.97,30,77.31
						c2.86,46.92-36.95,60.95-67.15,67.43C319.65,436.9,308.83,437.86,297.12,437.86z" style="fill:#873c1e"></path>
          </g>
          <g>
            <path d="M149.47,273.95c-7.21,0-12.91-1.9-16.96-5.64c-5.48-5.08-5.79-11.68-5.8-11.96
						c-0.04-1.1,0.82-2.03,1.92-2.07c1.1-0.02,2.03,0.82,2.07,1.92c0.03,0.62,0.9,14.5,20.3,13.73
						c19.76-0.78,22.34-17.69,22.44-18.41c0.15-1.09,1.16-1.85,2.25-1.71c1.09,0.15,1.86,1.15,1.71,2.24
						c-0.03,0.21-3.06,20.96-26.25,21.88C150.59,273.94,150.02,273.95,149.47,273.95z" style="fill:#873c1e"></path>
          </g>
          <g>
            <path d="M191.62,319.38c-7.62,0-20.01-2.29-32.58-14.3c-20.11-19.21-13.56-33.41-13.27-34
						c0.48-0.99,1.68-1.41,2.67-0.93c0.99,0.48,1.4,1.67,0.93,2.66c-0.24,0.52-5.39,12.35,12.43,29.38
						c18.15,17.35,35.54,12.69,36.27,12.49c1.06-0.3,2.17,0.31,2.47,1.37c0.3,1.06-0.31,2.16-1.36,2.47
						C198.88,318.61,196.06,319.38,191.62,319.38z" style="fill:#873c1e"></path>
          </g>
          <g>
            <path d="M184,288.92c-0.09,0-0.17-0.01-0.26-0.02c-17.02-2.24-25.5-15.32-25.86-15.88
						c-0.59-0.93-0.32-2.17,0.62-2.76c0.93-0.59,2.17-0.32,2.76,0.61c0.1,0.16,7.92,12.07,23,14.06c1.1,0.14,1.87,1.15,1.72,2.24
						C185.85,288.19,184.99,288.92,184,288.92z" style="fill:#873c1e"></path>
          </g>
          <g>
            <path d="M188.88,274.08c-12.11,0-20.42-8.35-20.79-8.73c-0.77-0.79-0.76-2.06,0.03-2.83
						c0.79-0.77,2.05-0.76,2.83,0.03c0.12,0.12,8.65,8.6,20.24,7.41c1.1-0.12,2.08,0.69,2.19,1.78c0.11,1.1-0.69,2.08-1.78,2.2
						C190.67,274.04,189.76,274.08,188.88,274.08z" style="fill:#873c1e"></path>
          </g>
          <g>
            <path d="M195.15,263.87c-0.01,0-0.03,0-0.04,0c-10.75-0.22-18.01-10.51-18.32-10.95c-0.63-0.91-0.4-2.15,0.5-2.78
						c0.91-0.63,2.15-0.4,2.78,0.5c0.11,0.15,6.45,9.05,15.11,9.23c1.1,0.02,1.98,0.94,1.96,2.04
						C197.12,263,196.23,263.87,195.15,263.87z" style="fill:#873c1e"></path>
          </g>
          <g>
            <path d="M201.99,253.78c-0.21,0-0.42-0.03-0.63-0.1c-7.62-2.54-13.79-4.52-13.85-4.54
						c-1.05-0.34-1.63-1.46-1.29-2.52c0.34-1.05,1.46-1.63,2.52-1.29c0.06,0.02,6.25,2.01,13.9,4.55c1.05,0.35,1.61,1.48,1.27,2.53
						C203.61,253.25,202.83,253.78,201.99,253.78z" style="fill:#873c1e"></path>
          </g>
        </g>
        <g>
          <g>
            <path d="M396.14,319.35c-1,0-1.87-0.75-1.98-1.77c-0.13-1.1,0.66-2.09,1.76-2.22
						c35.27-4.1,58.03-23.81,60.87-33.68c0.53-1.86,0.33-3.17-0.6-3.92c-2.75-2.2-3.99-1.57-9.08,2.64
						c-4.71,3.89-11.82,9.77-24.75,13.06c-19.06,4.85-41.72,3.71-51.4,3.23c-1.68-0.08-3.28-0.15-3.96-0.16
						c-0.82,0.3-1.78,0.03-2.31-0.72c-0.45-0.62-0.5-1.48-0.13-2.16c0.69-1.26,1.14-1.23,6.61-0.96c9.5,0.48,31.74,1.59,50.21-3.11
						c12.06-3.07,18.49-8.38,23.18-12.27c4.61-3.81,8.6-7.11,14.13-2.68c1.3,1.04,3.28,3.48,1.95,8.15
						c-3.53,12.29-28.44,32.38-64.25,36.55C396.3,319.35,396.22,319.35,396.14,319.35z" style="fill:#873c1e"></path>
          </g>
          <g>
            <path d="M400.84,338.65c-0.3,0-0.6,0-0.88-0.01c-1.1-0.03-1.98-0.94-1.95-2.05c0.03-1.1,0.95-2.01,2.05-1.95
						c12.54,0.29,39.09-6.97,48.78-17.28c2.31-2.46,3.38-4.85,3.18-7.11c-0.27-3.01-1.22-4.91-2.92-5.83
						c-3.55-1.91-9.84,0.67-11.96,1.82c-0.97,0.53-2.19,0.17-2.71-0.8c-0.53-0.97-0.17-2.19,0.8-2.71c0.39-0.21,9.6-5.14,15.76-1.83
						c2.94,1.58,4.62,4.6,5.01,9c0.3,3.44-1.13,6.88-4.25,10.2C441.41,331.1,414.65,338.65,400.84,338.65z" style="fill:#873c1e"></path>
          </g>
          <g>
            <path d="M395.99,365.21c-0.17,0-0.28,0-0.33,0c-1.1-0.03-1.98-0.94-1.95-2.05c0.03-1.1,0.97-1.97,2.05-1.95
						c0.17,0,16.51,0.23,23.24-11.03c6.32-10.56,0.78-14.88,0.54-15.06c-0.88-0.66-1.07-1.9-0.43-2.79c0.64-0.88,1.87-1.1,2.76-0.46
						c0.09,0.06,8.85,6.51,0.56,20.36C414.98,364.7,398.59,365.21,395.99,365.21z" style="fill:#873c1e"></path>
          </g>
          <g>
            <path d="M395.71,402.02c-0.96,0-1.8-0.69-1.97-1.67c-0.18-1.09,0.55-2.12,1.64-2.31
						c17.56-2.97,36.77-19.11,36.06-27.4c-0.18-2.04-0.68-3.34-1.41-3.65c-2.99-1.27-12.85,6.71-16.09,9.33
						c-12.57,10.18-19.9,10.38-20.2,10.38c-1.08,0.01-2.01-0.87-2.02-1.98c-0.01-1.1,0.86-2,1.96-2.02
						c0.16-0.01,6.54-0.41,17.75-9.49c9.48-7.67,15.82-11.75,20.17-9.91c2.22,0.94,3.51,3.29,3.83,6.98
						c0.98,11.3-20.36,28.47-39.37,31.69C395.94,402.01,395.82,402.02,395.71,402.02z" style="fill:#873c1e"></path>
          </g>
          <g>
            <path d="M390.82,416.95c-3.6,0-6.13-0.22-6.43-0.25c-1.1-0.1-1.91-1.08-1.81-2.18c0.1-1.1,1.08-1.91,2.18-1.81
						c0.22,0.02,21.51,1.89,29.6-5.56c7.58-6.97,3.02-16.04,2.82-16.42c-0.51-0.98-0.13-2.19,0.85-2.7
						c0.98-0.51,2.18-0.14,2.69,0.84c2.19,4.16,4.25,13.96-3.66,21.22C410.7,415.97,398.39,416.95,390.82,416.95z" style="fill:#873c1e"></path>
          </g>
          <g>
            <path d="M384.88,429.16c-12.19,0-20.21-7.42-20.62-7.81c-0.8-0.76-0.84-2.03-0.08-2.83
						c0.76-0.8,2.02-0.84,2.83-0.08c0.44,0.41,11.04,10.14,26.11,5.42c7.66-2.4,8.97-4.83,9.18-5.77c0.31-1.38-0.99-2.58-1-2.6
						c-0.81-0.74-0.87-2-0.14-2.82c0.73-0.81,1.98-0.9,2.8-0.17c1.13,1,2.88,3.47,2.26,6.39c-0.77,3.64-4.67,6.51-11.91,8.77
						C390.96,428.74,387.8,429.16,384.88,429.16z" style="fill:#873c1e"></path>
          </g>
        </g>
        <g>
          <g>
            <path d="M312.23,474.85c-1.14,0-2.21-0.14-3.16-0.45c-2.01-0.66-3.37-2.08-3.84-4.01
						c-1.69-6.94,2.5-12.09,8.29-19.21l0.07-0.09c4.98-6.13,3.83-16.22,3.82-16.33c-0.13-1.1,0.65-2.09,1.75-2.22
						c1.1-0.13,2.09,0.65,2.22,1.75c0.06,0.48,1.35,11.9-4.69,19.33l-0.07,0.09c-5.25,6.47-8.73,10.74-7.51,15.75
						c0.1,0.43,0.32,0.86,1.2,1.15c3.42,1.12,11.85-1.71,16.4-5.53c2.02-1.7,3.63-2.38,5.17-2.21c1.95,0.21,3.06,1.66,4.14,3.05
						c1.01,1.3,2.05,2.65,3.9,3.45c4.18,1.79,4.57,1.46,9.24-2.6c0.6-0.52,1.25-1.08,1.96-1.69c5.14-4.36,7.93-3.58,11.61-1.89
						c1.18,0.54,2.41,1.11,4,1.47c3.39,0.77,8.77-0.49,10.89-3.32c1.38-1.84,1.25-4.25-0.38-7.15
						c-5.82-10.39-22.07-28.24-22.23-28.42c-0.74-0.82-0.69-2.08,0.13-2.83c0.82-0.74,2.08-0.69,2.83,0.13
						c0.68,0.75,16.72,18.37,22.77,29.16c3.08,5.49,1.75,9.28,0.09,11.5c-3.25,4.35-10.31,5.89-14.98,4.83
						c-2-0.46-3.54-1.16-4.78-1.73c-2.74-1.26-3.77-1.73-7.35,1.31c-0.71,0.6-1.35,1.15-1.93,1.66c-4.77,4.14-6.95,6.03-13.44,3.25
						c-2.81-1.21-4.36-3.21-5.5-4.68c-0.4-0.52-1.15-1.49-1.4-1.52c-0.01,0-0.57-0.05-2.17,1.3
						C325.44,471.36,317.91,474.85,312.23,474.85z" style="fill:#873c1e"></path>
          </g>
          <g>
            <path d="M261.61,476.53c-1.43,0-3.18-0.51-5.06-2.19c-2.52-2.26-4.08-4.52-5.34-6.34
						c-2.18-3.14-2.92-4.21-6.12-3.42c-2.19,0.53-4.58,1.91-6.89,3.24c-3.46,2-6.74,3.89-9.58,2.9c-1.43-0.5-2.51-1.64-3.19-3.38
						c-1-2.55-0.86-5.1-0.74-7.15c0.09-1.58,0.17-3.07-0.36-3.6c-0.38-0.37-1.59-0.95-5.45-0.65c-3.26,0.25-6.96,0.95-10.53,1.62
						c-10.43,1.95-21.21,3.97-23.24-4.76c-1.86-8.01,4.98-11.98,11.6-15.82c2.72-1.58,5.54-3.21,7.88-5.15
						c7.54-6.25,9.66-11.87,9.68-11.93c0.38-1.03,1.52-1.57,2.56-1.2c1.04,0.37,1.58,1.51,1.21,2.54
						c-0.09,0.27-2.42,6.65-10.9,13.67c-2.6,2.15-5.56,3.87-8.42,5.53c-6.76,3.92-10.85,6.57-9.71,11.45
						c1.08,4.66,8.07,3.71,18.6,1.74c3.68-0.69,7.48-1.4,10.96-1.67c4.32-0.33,6.96,0.21,8.55,1.78c1.83,1.8,1.7,4.28,1.56,6.68
						c-0.1,1.83-0.21,3.72,0.47,5.46c0.16,0.42,0.44,0.94,0.79,1.07c1.11,0.38,3.97-1.26,6.26-2.58c2.43-1.41,5.19-3,7.94-3.67
						c5.88-1.43,8.05,1.71,10.36,5.03c1.2,1.73,2.56,3.69,4.73,5.64c1.83,1.65,2.92,1.14,3.32,0.95c2.69-1.25,5.07-7.38,4.9-12.61
						c-0.26-7.8-5.46-25.58-5.51-25.76c-0.31-1.06,0.3-2.17,1.36-2.48c1.06-0.31,2.17,0.3,2.48,1.36
						c0.22,0.75,5.39,18.46,5.67,26.76c0.2,6.16-2.49,14.18-7.21,16.37C263.61,476.23,262.7,476.53,261.61,476.53z" style="fill:#873c1e"></path>
          </g>
        </g>
      </g>
      <g id="head_ori_00000065032883050989191480000004987188619355045017_">
        <g id="mouth_00000085243892464489736110000008385517288943836565_">
          <g>
            <path d="M327.78,251.03c-3.12,0-6.23-1.03-9.69-2.17c-1.2-0.4-2.48-0.82-3.84-1.23c-5.91-1.78-11.3-1.12-16.5-0.48
						c-2.42,0.3-4.71,0.58-6.95,0.6c-0.05,0-0.1,0-0.15,0c-7.64,0-12.35-5.44-12.54-5.68c-0.71-0.84-0.61-2.1,0.23-2.82
						c0.84-0.71,2.1-0.61,2.81,0.22l0,0c0.04,0.04,3.76,4.27,9.5,4.27c0.04,0,0.07,0,0.11,0c2.02-0.02,4.19-0.28,6.5-0.57
						c5.36-0.66,11.43-1.4,18.14,0.62c1.4,0.42,2.71,0.85,3.95,1.26c6.67,2.21,10.35,3.42,15.75-1.17c0.84-0.71,2.1-0.61,2.82,0.23
						c0.71,0.84,0.61,2.1-0.23,2.82C334.11,249.98,330.94,251.03,327.78,251.03z" style="fill:#873c1e"></path>
          </g>
          <g>
            <path d="M309.1,258.9c-1.22,0-2.52-0.1-3.88-0.29c-9.17-1.31-12.93-8.39-13.63-11.95
						c-0.22-1.08,0.49-2.14,1.57-2.35c1.09-0.21,2.13,0.48,2.35,1.56c0.07,0.32,1.69,7.55,10.28,8.78
						c9.55,1.36,12.27-3.2,13.47-6.76c0.35-1.05,1.49-1.6,2.54-1.25c1.05,0.35,1.61,1.49,1.25,2.54
						C320.85,255.64,316.17,258.9,309.1,258.9z" style="fill:#873c1e"></path>
          </g>
          <g>
            <path d="M311.22,273.46c-15.79,0-31.9-4.16-40.18-13.18c-9.73-10.62-11.34-23.69-9.37-29.17
						c0.78-2.16,2.02-2.77,2.93-2.89c1.37-0.19,2.82,0.29,4.65,0.9c3.22,1.07,7.61,2.52,13.19,0.71c1.59-0.73,16.51-7.25,31.78-3.51
						c9.31,2.28,14.89,5.06,19.37,7.29c3.03,1.51,5.42,2.7,8.19,3.4c3.5,0.88,5.24,0.28,6.91-0.31c1.54-0.54,3.29-1.14,5.61-0.16
						c1.81,0.77,2.72,3.12,2.56,6.62c-0.35,8.04-6.43,21.81-21.7,26.79C328.13,272.26,319.72,273.46,311.22,273.46z M265.53,232.2
						c-1.14,2.34-1.48,14.53,8.46,25.38c11.36,12.4,41,14.76,59.92,8.58c12.46-4.07,16.74-14,18-18.08
						c1.38-4.46,0.97-7.26,0.62-7.93c-0.74-0.27-1.25-0.12-2.53,0.33c-1.92,0.67-4.54,1.58-9.21,0.41c-3.19-0.8-5.88-2.14-8.99-3.69
						c-4.3-2.14-9.66-4.81-18.54-6.99c-14.41-3.53-29.1,3.23-29.24,3.3c-0.07,0.03-0.15,0.06-0.22,0.09
						c-6.89,2.28-12.25,0.5-15.81-0.68C267.15,232.63,266.14,232.3,265.53,232.2z M283.18,231.69L283.18,231.69L283.18,231.69z" style="fill:#873c1e"></path>
          </g>
        </g>
        <g id="head_00000106111951809420379910000017284177224620476555_">
          <g>
            <path d="M292.77,93.65c-0.35,0-0.7-0.09-1.02-0.28c-0.88-0.52-8.56-5.23-8.74-10.55c-0.05-1.48,0.45-3.62,3.1-5.45
						c8.31-5.73,23.22,6.62,24.89,8.05c0.84,0.72,0.94,1.98,0.22,2.82c-0.72,0.84-1.98,0.94-2.82,0.22
						c-3.64-3.1-15.13-11.18-20.03-7.8c-1.41,0.97-1.38,1.74-1.37,2.02c0.08,2.48,4.61,5.95,6.78,7.24c0.95,0.56,1.26,1.79,0.7,2.74
						C294.11,93.3,293.45,93.65,292.77,93.65z" style="fill:#873c1e"></path>
          </g>
          <g>
            <path d="M325.91,295.6c-9.25,0-18.98-0.38-29.11-1.15c-58.89-4.48-88.28-24.72-95.55-40.7
						c-7.08-15.56-0.23-25.79,1.98-28.5c-0.32-5.25-1.56-33.88,6.67-63.59c12.1-43.67,38.98-69.86,77.76-75.73
						c1.09-0.17,2.11,0.59,2.28,1.68c0.17,1.09-0.59,2.11-1.68,2.28c-37.62,5.7-62.69,30.21-74.5,72.84
						c-8.87,32.04-6.5,62.75-6.48,63.05c0.05,0.58-0.16,1.15-0.56,1.56c-0.36,0.37-8.79,9.43-1.82,24.76
						c7.36,16.16,38.72,34.3,92.21,38.37c51.57,3.92,94.18-2.73,108.55-16.96c12.97-12.84,3.93-28.75,3.54-29.42
						c-0.32-0.55-0.36-1.23-0.1-1.82c0.15-0.34,14.79-34.71-1.82-88.05c-16.49-52.95-63.15-59.48-63.62-59.54
						c-1.04-0.13-1.81-1.05-1.74-2.11c0.23-3.78-0.38-13.93-5.84-15.41c-1.77-0.48-2.66-0.02-3.17,0.37
						c-2.1,1.59-2.61,6.2-2.62,7.69c-0.01,0.94-0.67,1.75-1.59,1.94c-0.92,0.2-1.85-0.27-2.24-1.13
						c-0.09-0.19-8.86-19.2-20.06-18.47c-3.06,0.2-3.65,1.4-3.84,1.79c-1.44,2.91,1.65,9.41,3.93,12.83
						c0.61,0.92,0.37,2.16-0.55,2.77s-2.16,0.37-2.77-0.55c-0.74-1.1-7.1-10.91-4.19-16.82c0.82-1.67,2.74-3.72,7.17-4.01
						c9.71-0.61,17.28,9.21,21.15,15.59c0.61-1.8,1.6-3.61,3.18-4.81c1.26-0.96,3.43-1.92,6.64-1.05c7.9,2.14,8.79,13.27,8.83,17.71
						c3.94,0.75,13.88,3.17,25.22,9.88c13.25,7.83,30.93,23.23,39.93,52.14c15.78,50.68,4.37,84.01,2.03,89.95
						c1.96,3.99,8.64,20.2-4.65,33.37C395.98,288.71,365.5,295.6,325.91,295.6z" style="fill:#873c1e"></path>
          </g>
        </g>
        <g id="mata_00000120534194211383421770000008492493297790566589_">
          <g>
            <path d="M260.49,215.13c-15.55-1.27-13.55-25.4,1.97-24.13C278.02,192.27,276.02,216.4,260.49,215.13z
						 M357.7,198.79c-15.52-1.27-17.52,22.85-1.97,24.13C371.25,224.19,373.25,200.06,357.7,198.79z M262.12,173.5
						c-0.01,0-0.01-0.01-0.02-0.01c0.02,0.02,0.06,0.05,0.13,0.11c-0.01-0.01-0.01-0.01-0.02-0.02
						C262.19,173.55,262.16,173.52,262.12,173.5z M265.24,175.14c-0.9,0.48-2.18,0.02-2.58-0.91c-0.04-0.1-0.09-0.2-0.14-0.3
						c-0.02-0.04-0.02-0.04-0.03-0.06c-0.08-0.1-0.16-0.19-0.23-0.26c-0.01-0.01-0.01-0.01-0.02-0.02c0.03,0.02,0.06,0.05,0.11,0.08
						c-0.04-0.03-0.09-0.07-0.13-0.1c-0.07-0.07-0.15-0.13-0.11-0.09c-0.09-0.07-0.19-0.12-0.28-0.18c-0.13-0.05-0.25-0.1-0.39-0.15
						c-0.16-0.02-0.33-0.04-0.49-0.04c-0.11,0.02-0.22,0.04-0.33,0.06c-0.14,0.06-0.28,0.11-0.42,0.18
						c-0.03,0.02-0.06,0.03-0.08,0.05c-0.03,0.03-0.07,0.06-0.09,0.08c-0.07,0.06-0.13,0.12-0.2,0.18
						c-0.12,0.17-0.24,0.33-0.35,0.52c0.06-0.12,0.12-0.23,0.18-0.35c-0.24,0.47-0.5,0.82-0.98,1.07c-0.46,0.25-1.02,0.23-1.5,0.07
						c-0.45-0.14-0.88-0.56-1.08-0.98c-0.19-0.4-0.29-1.09-0.07-1.5c0.32-0.63,0.63-1.08,1.11-1.6c0.36-0.38,0.78-0.67,1.22-0.94
						c0.88-0.53,1.93-0.75,2.95-0.73c2.05,0.04,4.04,1.45,4.84,3.31C266.58,173.55,266.2,174.63,265.24,175.14z M365.79,183.34
						c-0.89,0.48-2.19,0.03-2.58-0.91c-0.08-0.19-0.17-0.36-0.26-0.54c-0.04-0.05-0.07-0.1-0.11-0.15c-0.11-0.14-0.23-0.27-0.35-0.4
						c-0.07-0.05-0.13-0.11-0.2-0.16c-0.14-0.11-0.29-0.19-0.44-0.29c-0.06-0.03-0.12-0.05-0.17-0.08c-0.16-0.07-0.33-0.11-0.5-0.17
						c-0.06-0.01-0.11-0.02-0.17-0.02c-0.17-0.02-0.36,0-0.53-0.02c-0.08,0.01-0.15,0.02-0.23,0.03c-0.07,0.01-0.42,0.11-0.5,0.12
						c0.09-0.02,0.34-0.14,0.1-0.04c-0.03,0.01-0.06,0.03-0.1,0.04c-0.01,0-0.03,0.01-0.03,0c0,0,0.02,0,0.03,0
						c-0.06,0.02-0.12,0.05-0.19,0.08c-0.16,0.07-0.31,0.15-0.47,0.24c-0.07,0.05-0.14,0.1-0.21,0.16c-0.12,0.1-0.23,0.21-0.34,0.31
						c-0.05,0.07-0.11,0.14-0.16,0.21c-0.64,0.87-1.8,1.05-2.7,0.48c-0.87-0.55-1.08-1.88-0.48-2.7c1.38-1.88,3.76-3.03,6.11-2.76
						c2.33,0.28,4.47,1.81,5.38,3.99C367.11,181.76,366.75,182.83,365.79,183.34z M359.74,180.75L359.74,180.75L359.74,180.75z" style="fill:#873c1e"></path>
          </g>
          <g>
            <path d="M357.74,209.66c-4.35-0.36-3.79-7.11,0.55-6.76C362.65,203.26,362.09,210.01,357.74,209.66z
						 M262.45,195.06c-4.35-0.36-4.91,6.4-0.55,6.76C266.24,202.17,266.8,195.42,262.45,195.06z" style="fill:#fff"></path>
          </g>
        </g>
      </g>
    </g>
    <g id="garis_00000122698871893820052140000012030283461092499874_">
      <path d="M124.23,197.05c-0.34,0-0.69-0.09-1-0.27c-0.96-0.55-1.28-1.78-0.73-2.73c0.15-0.26,12.33-21.42,15.05-37.76
			c-1.99-0.52-3.91-1.19-5.72-1.96c-8.24-3.53-13.23-8.94-13.03-14.12c0.21-5.39,3.53-9.27,8.27-9.66
			c5.46-0.45,12.31,4.03,14.54,14.9c0.48,2.34,0.56,4.94,0.33,7.7c3.19,0.54,6.49,0.67,9.68,0.28c-0.9-8.76-0.33-16.93,1.42-21.62
			c1.54-4.13,4.7-6.56,8.65-6.67c4.55-0.09,9.12,2.92,11.1,7.42c2.39,5.43,0.67,11.72-4.71,17.26c-3.4,3.5-7.57,5.68-12.05,6.83
			c1.23,8.12,3.79,16.38,7.84,22.09c3.62,5.1,8,7.63,13.02,7.54c1.09-0.01,2.02,0.86,2.04,1.96c0.02,1.1-0.86,2.02-1.96,2.04
			c-6.32,0.13-11.99-3.07-16.36-9.23c-4.44-6.27-7.18-15.05-8.49-23.67c-3.54,0.44-7.18,0.31-10.69-0.27
			c-2.9,17.09-14.85,37.85-15.48,38.94C125.59,196.69,124.92,197.05,124.23,197.05z M161.99,129.14c-0.06,0-0.11,0-0.17,0
			c-2.31,0.06-4.05,1.47-5.02,4.08c-1.57,4.21-2.04,11.55-1.25,19.44c3.61-1.01,6.95-2.82,9.68-5.62c4.25-4.37,5.64-8.94,3.92-12.86
			C167.85,131.23,164.86,129.14,161.99,129.14z M127.85,134.51c-0.15,0-0.3,0.01-0.45,0.02c-2.71,0.22-4.47,2.45-4.6,5.83
			c-0.13,3.38,4.13,7.51,10.61,10.29c1.47,0.63,3.01,1.18,4.61,1.63c0.14-2.17,0.05-4.2-0.32-6.02
			C136.03,138.1,131.52,134.51,127.85,134.51z" style="fill:#873c1e"></path>
    </g>
  </g>
</svg>
