<?xml version="1.0" encoding="UTF-8"?>
<svg xmlns="http://www.w3.org/2000/svg" version="1.1" viewBox="0 0 512 512">
  <!-- Generator: Adobe Illustrator 30.1.0, SVG Export Plug-In . SVG Version: 2.1.1 Build 136)  -->
  <defs>
    <style>
      .st0 {
        fill: #d3dcfb;
      }

      .st1 {
        fill: #939393;
      }

      .st2 {
        fill: #444343;
      }

      .st3 {
        fill: #c1c1c1;
      }

      .st4 {
        fill: #d8d8d8;
      }

      .st5 {
        fill: #ffd7d7;
      }

      .st6 {
        fill: #2d2d59;
      }

      .st7 {
        fill: #fff;
      }

      .st8 {
        fill: #7bc47f;
      }

      .st9 {
        fill: #42c3fc;
      }

      .st10 {
        fill: #89e56a;
      }

      .st11 {
        fill: #fce4ec;
      }

      .st12 {
        display: none;
      }

      .st13 {
        fill: #e8e8e8;
      }
    </style>
  </defs>
  <g id="elephant-random">
    <g>
      <g>
        <path class="st5" d="M353.6,202.8c.6-.4,1.4-.5,2-.2,0,0,8.4,3.8,14.7,0,4.7-2.8,7.3-9.1,7.9-18.6,1.1-20-17.4-57.5-42.2-74-8-5.4-20.3-12.2-32.7-7.2,2.5,4.1,5,10.3,6.6,15.1,13.8,39.4,3.9,68.3,1.7,73.8,1.7,3.5,3.4,14.7-1.3,28.6,2.6,3,16.5,15,30,10.5,15.3-5.1,12.6-25.2,12.5-26-.1-.7.2-1.5.8-1.9Z"/>
        <path class="st3" d="M368.1,226.5c-.3-.5,1-1,1.5-1.3s-1.4-2.6-.9-2.4c.7.2,18.3,5.8,28-13.3,5-9.9,3.4-31.8-4-55.1-8.5-26.7-23.9-50.1-40-62.9-29.3-23.3-56-11.2-66-6.7-.2,0-.3.2-.5.2,4.8,4.4,9.4,9.5,13.2,15.1,11.4-4.8,23.7-2.1,36.5,6.4,25.8,17.2,45.6,55.7,44.4,76.7-.6,11-4.6,17.1-10.5,20.6-5.5,3.3-12,.8-15.7-.3.2,6.8,0,25.1-14.4,29.9-1.9.6-3.7,1-5.5,1.2-11.2,1.2-20-10.7-23.8-14.5-.7,1.5-1.3,8.1-2.4,9.6-.9,1.4-2,2.6-3,3.8.3.2.6.4.8.7.4.7,10.6,16.5,32.7,14.3,2.3-.4,4.4-.8,6.4-1.3,16.9-5.1,25-18.2,23.2-20.8Z"/>
      </g>
      <path class="st2" d="M336,234.3c1.8-.2,3.6-.7,5.4-1.3,14.2-5.2,15.1-20.8,14.7-27.6,3.7,1,9.9,1.8,15.3-1.6,5.8-3.7,8.9-11.1,9.3-22,.7-21.1-19.6-59.9-45.8-76.4-13.6-8.6-26.9-10-38.6-4-1,.5-1.4,1.7-.9,2.7s1.7,1.4,2.7.9c13-6.7,26-1.7,34.6,3.8,25.2,15.9,44.6,52.9,44,72.9-.3,9.6-2.8,15.9-7.4,18.8-6.2,3.9-14.6.4-14.7.3-.7-.3-1.5-.2-2,.3-.6.4-.9,1.2-.7,1.9.1.8,3.3,20.8-11.8,26.3-15.4,5.6-26.8-8.5-26.9-8.6-.7-.9-1.9-1-2.8-.3-.9.7-1,1.9-.3,2.8.1.1,10.7,13.2,26,11.2Z"/>
      <path class="st2" d="M341.6,252c20.7-2.7,27.7-20.2,29.5-26.2,5.4.9,20.3,1.6,29.1-16.8,5.3-11.1,3.3-34.1-5.1-58.5-9.3-27.2-24.5-50.3-41.5-63.2-31.8-24-60.8-10.1-70.3-5.5-1,.5-2.1,1-2.6,1.2-.6,0-1.3.2-1.7.7-.7.8-.6,2.1.3,2.8,1.3,1.1,2.5.5,5.8-1.1,9.9-4.8,36.3-17.5,66.2,5.1,16.4,12.4,31.1,34.8,40.2,61.3,7.9,23.1,10,45.4,5.2,55.5-9.2,19.4-25.6,14.4-26.3,14.2-.5-.2-1.1-.1-1.6.2s-.8.8-1,1.3c-.2.9-4.7,22.1-26.6,25h-.1c-22.2,2.9-32.8-12.8-33.3-13.5-.6-.9-1.8-1.2-2.8-.6-.9.6-1.2,1.8-.6,2.8.5.8,12.3,18.5,37.1,15.3,0,0,0,0,.1,0ZM281.7,83.5h0ZM281.7,83.5h0Z"/>
    </g>
    <g>
      <g>
        <path class="st3" d="M311.9,127.7c3.7,23.2,4.7,16.6,5,33.9,0,.4-6.9,25.7-6.8,26,0,.2.8,28.4-7.7,45.4-8.1,16.1-53.7,26.2-75.5,24.1-.1-.5-1.1-2-1.2-2.5-5.6-22,10.2-35.9,10.9-36.6.8-.7.9-2,.2-2.8-.7-.8-2-.9-2.8-.2-.8.6-18.4,16.1-12.2,40.6,2.2,8.7,6.1,14.5,11.6,17.2,6.9,3.4,13.5.5,13.8.4.7-.3,1.1-.9,1.2-1.6.2-1.8,1.3-6.8,4.2-8.4,1.5-.8,3.3-.6,5.7.5,2.9,1.4,4.5,3.1,4.9,5.1.6,3-1.9,5.9-1.9,5.9-.5.5-.6,1.2-.4,1.9s.8,1.2,1.4,1.3c1.8.5,6.9,2.3,8.5,5.6.7,1.5.7,3.1-.2,5-3.5,7.9-13.1,3.9-13.5,3.7-.5-.2-1.2-.2-1.7,0-.5.3-.9.8-1,1.4,0,.2-4.1,17.7-35.6,17.7s-21-3.9-30.4-11c.9-3.1,3.8-9.4,13.3-10,.6,0,1-.5.9-1.1s-.5-1-1.1-.9c-9.9.6-13.5,7-14.8,10.8-2.9-2.3-5.7-5-8.2-7.9-3.6-4-6.6-8.5-9.2-13.2,1.2-2,5.5-7.6,17.7-7,.6,0,1-.4,1.1-.9s-.4-1-.9-1c-11.6-.6-16.8,4.1-18.8,7-4.9-9.8-7.5-20.5-7.6-31.1,0,0,.2,0,.3,0,.1,0,12.6-6.5,25.6,0,.1,0,.3.1.4.1.4,0,.7-.2.9-.6.2-.5,0-1.1-.4-1.3-12.4-6.2-23.9-1.7-26.8-.3,0-2.1.2-4.2.5-6.2,1.3-10,4.4-18.6,8.3-25.7,4.4-1.5,16-4.2,25,4.3.2.2.4.3.7.3s.5-.1.7-.3c.4-.4.4-1,0-1.4-8.6-8-19.3-6.8-25-5.3,10.8-18.1,26.3-26.3,26.5-26.4,1-.5,1.4-1.7.9-2.7-.5-1-1.7-1.4-2.7-.9-1.4.7-33.2,17.6-38.4,57.7-.7,5.2-.7,10.6-.2,15.8,0,0-.1,0-.2,0-.3,0-25.9.5-39.9-15.6-13.1-15.1-4.9-35.3-4.8-35.5.2-.6.2-1.2-.1-1.8-.2-.3-16.2-28.8-6.2-71.5,9-38.3,52.3-59.8,61.3-63.9,3.3,5.4,9.1,6.9,13.5,6.9s2.2-.1,3.1-.3c1.1-.2,1.8-1.2,1.6-2.3s-1.2-1.8-2.3-1.6c-.1,0-9.8,1.8-13.1-6.1-.4-.9-.9-2.6-.3-3.3.9-1.1,3.9-1.2,6.1-.8.3.5.5.9.9,1.3,3.8,4.9,10.9,5.6,11.1,5.7,0,0,.1,0,.2,0,1,0,1.9-.8,2-1.8.1-1.1-.7-2.1-1.8-2.2,0,0-5.6-.6-8.4-4.2-.3-.4-.6-.9-.8-1.4,0,0,0,0,0,0-.6-1.4-.8-3.1-.5-5,.3-2.3,1.2-3.8,2.5-4.4,2.7-1.3,7.2.7,8.7,1.6.4.2.9.3,1.3.2,3.2,6.2,8.7,11.2,9,11.5.8.7,2.1.7,2.8-.1s.7-2.1-.1-2.8c-2.9-2.6-10.3-10.8-10-17,.1-2.1,1.1-3.8,3-5.2,3.2-2.4,6.3-2.7,9.3-1.1,5.9,3.2,9.7,12.8,9.1,22.9,0,1.1.7,2,1.8,2.1.5,0,49.8,5.3,67.8,28.9,15.2,5.5,28,42.7,28,42.7Z"/>
        <path class="st5" d="M81.9,283.9c.3.2,7.6,3.9,4.7,9.8-2,4-5.1,5.2-7.1,5.6,1.5-15.1-1.3-28.4-7.2-35.8,2.1.3,4.6.7,7.2.9.6.1,1.2.2,1.8.2.2.2.4.3.7.5,0,0,6.8,2.9,6.1,8.2-.7,5.4-5.6,6.8-5.8,6.9-.8.2-1.4.9-1.5,1.7,0,.8.3,1.6,1.1,2Z"/>
        <path class="st5" d="M67.9,215.7c-.6-.4-1.4-.4-2.1,0,0,0-7.9,4.7-14.6,1.6-4.9-2.3-8.2-8.2-9.8-17.6-3.3-19.8,11.2-59,34-78.1,7.4-6.2,18.8-12.5,31.7-9-2.1,4.4-3.7,9-4.9,13.9-9.5,40.7,3.4,68.3,6.2,73.5-1.3,3.7-5.6,17.4.6,30.7-2.3,3.3-11.1,14.2-25,11.2-15.7-3.4-15.2-23.7-15.2-24.5,0-.7-.3-1.4-1-1.8Z"/>
        <path class="st3" d="M56,239.6c-.2-.5-.6-1-1.1-1.2s-1.1-.2-1.6,0c-.7.3-16.2,7.4-27.9-10.6-6.1-9.4-6.9-31.7-2.1-55.7,5.5-27.5,17.1-51.5,31.8-66,26.6-26.3,54.5-17.2,64.9-13.7.2,0,.4.1.5.2-4.3,4.9-8.3,10.4-11.6,16.4-11.8-3.6-24.2-.3-36,9.5-23.8,19.9-38.9,61-35.4,81.8,1.8,10.8,5.9,17.8,12.1,20.6,5.8,2.7,11.9,1,15.4-.4.5,6.8,3.4,22.1,18.2,25.4,1.9.4,3.8.6,5.6.6,11.2,0,19-7.7,22.3-11.9.9,1.4,1.9,2.8,3.1,4.2,1.1,1.2,2.2,2.4,3.4,3.5-.3.2-.5.5-.7.8-.3.7-8.7,17.5-31,17.7-2.3-.1-4.5-.4-6.5-.6-17.4-3.3-23.3-19.9-23.5-20.7Z"/>
        <path class="st13" d="M38.7,296.3c1.3-10.2,4.6-19.6,9.3-26.3,4-5.8,8.5-8.9,12.8-8.9s.7,0,1,0c.4.1,1.2.3,2.4.6,8.6,3.6,13.6,20.6,11.1,39.3-2.7,20.4-13.3,36.5-23.2,35.1-9.9-1.3-16.1-19.6-13.4-39.9Z"/>
        <path class="st1" d="M64.1,403.8c-2.9-4.6-3.6-10.3-2-17.1,4.3-18.4,14.8-22.6,18.7-23.5,2.2,5.3,9.5,23.5,13.3,33.6.9,2.4.8,4.5-.2,6.5-2,3.9-7.3,6-9.5,6.8-5-5.8-5.1-13.5-5.1-13.9,0-1-.8-1.9-1.8-2-1-.1-1.9.6-2.2,1.5,0,.1-1.8,8.5,1.2,17-2.6-.8-8.8-3.2-12.4-8.9Z"/>
        <path class="st3" d="M91,423c-6.2-2.9-9.4-7.5-10.9-12,.6.9,1.3,1.7,2,2.5.1.2.3.3.4.4,2.4,2.4,5.5,4.4,9.6,5.5,12.7,3.5,21-2.3,24.4-5.4.9,1.1,1.8,2.1,2.8,3.2-.3.7-.6,1.8-1.1,3-2,1.7-12.6,9.6-27.3,2.7Z"/>
        <path class="st5" d="M149.9,478c1.2-3.1,4.3-9.3,10.8-8.7,1.9.2,4.4.7,5.6,2.3,1.1,1.6.4,3.6.4,3.6-.3,1,.1,2,1,2.4.9.4,2,.1,2.5-.7,0,0,5.6-8.4,11.3-6.1,1.9.8,3.1,1.8,3.5,2.9.4,1.1-.1,2.3-.2,2.4,0,0,0,0,0,0-.5,1-.2,2.2.8,2.7s2.2.2,2.7-.7c0,0,0,0,0,0,.2-.4,2.8-4.7,6.3-5.8,1.4-.4,2.8-.2,4.2.6,5.9,3.3,5.5,5.8,5.5,5.8,0,0,0-.1,0-.1l.6.2c-13.1,6-35.2,6.3-55-.8Z"/>
        <path class="st5" d="M273.3,477.4c-.1-1.8,0-4.5,1.4-6.2,1-1.2,2.4-1.8,4.4-1.9,2.9-.1,5,.4,5.9,1.5.3.4.5.8.6,1.1,0,.9,0,1.4,0,1.5,0,1,.9,1.8,1.9,1.8,1,0,1.9-.6,2.1-1.6,0-.2.2-1,0-2,.1-1.7.5-4.1,1.9-5.6.9-1,2.2-1.5,3.8-1.5,3.6,0,5.1.9,5.6,1.5s.5,1,.5,1c-.1,1.1.7,2,1.8,2.2s2.1-.6,2.2-1.7c0,0,1.1-8.1,6.2-8.1s5.3,2.5,5.8,3.9c-10.1,11.7-27.6,15.5-44.1,14.1Z"/>
        <path class="st3" d="M320,397.4c-.9.5-1.2,1.6-.8,2.5.1.3,12.9,31.2,4.3,53.4-.9,2.4-2.1,4.5-3.4,6.5-1.5-2.2-4.2-4.4-8.5-4.4s-7.5,3.7-8.9,6.9c-1.8-1.2-4.2-1.8-7.4-1.8s-5.1.9-6.8,2.8c-1,1-1.6,2.2-2,3.5-1.8-1.2-4.4-1.7-7.6-1.6-3.2.1-5.7,1.3-7.4,3.4-2,2.5-2.3,5.9-2.3,8.2-2.4-.3-4.7-.8-6.9-1.3-23.9-5.6-25.8-32.6-25.9-33.7,0-1-.8-1.8-1.8-1.9-.9-.1-1.9.5-2.1,1.4,0,.3-8.3,26-24.5,35.7-.5-2-2.2-4.9-7.4-7.7-2.4-1.3-4.9-1.6-7.3-.9-2,.6-3.7,1.8-5.1,3.1-.9-1.9-2.8-3.3-5.4-4.4-5.2-2.1-9.8.8-12.8,3.6-.2-.5-.4-.9-.7-1.3-1.6-2.4-4.5-3.8-8.6-4.1-8.2-.7-12.9,6.2-14.9,11.3-5.1-2.1-10.1-4.7-14.6-7.9-19.1-13.4-12-39.8-9.1-48.3,4.4,4,9.3,7.3,14.8,9.7.3.1.6.2.8.2.8,0,1.5-.4,1.8-1.2.4-1,0-2.2-1-2.6-41.9-18.9-36.1-80.1-36-80.7,0-.5-.1-1.1-.5-1.5s-.9-.7-1.4-.7c-13.8-.6-30.6-3.7-39.9-5.7,8.4-5.2,15.4-18.2,17.9-34.5,2.8-.2,8-1.6,11.2-7.9,2.8-5.7,0-10.3-3.4-13,2.2-1.5,4.7-4.1,5.3-8.6.5-3.8-1.2-6.7-3.2-8.8,2.5.1,5.2.2,8,.2,5.4,0,11.3-.2,17.8-.8,18.1-1.7,28.9-4.7,32.1-9,0-.1.2-.2.2-.4,4.6.7,8.2.8,9.6.8s.6,0,.7,0c.2,0,.4,0,.6-.1,2.2,13.9,8.4,27.4,17.9,38.2,12,13.6,27.8,21.5,43.3,21.5,28.3,0,36.6-13.4,38.8-18.7,5.1,1.5,13.1,1.6,16.7-6.5,1.3-3,1.3-5.8,0-8.4-1.8-3.6-5.9-5.8-8.6-6.8.9-1.7,1.8-4.2,1.2-6.9-.6-3.2-3-5.9-7.1-7.9-3.6-1.8-6.7-1.9-9.4-.5-4.1,2.2-5.6,7.7-6.1,10.2-1.8.5-5.6,1.2-9.5-.7-3.2-1.6-5.7-4.6-7.6-8.9.9,0,1.9,0,3,0,15.9,0,42.3-5.7,61.1-14.6,4,4.6,41.4,47.9,44.5,92.7,3.3,46.4-16,58.9-16.2,59Z"/>
        <path class="st3" d="M384.7,295.4c-15.2,17.5-41.7,28.7-46.1,30.5-4.5-23.4-16.5-45.2-26.9-60.6,6.1-2.9,22.9-11.3,32.3-22.1,6.4-7.3,14.5-11.8,22.2-12.2,6.7-.4,13,2.1,18.6,7.2,13.3,12.2,17,37.5-.2,57.2Z"/>
        <path class="st3" d="M378.7,253.1c5.5,14.3-.1,20.7-.4,20.9-.4.4-.9.6-1.5.6s-1-.2-1.4-.5c-.8-.8-.9-2-.1-2.8.1-.2,4.2-5-.4-16.8-4.4-11.3-18.7-6.2-19.3-5.9-1,.4-2.2-.1-2.6-1.2-.4-1,.1-2.2,1.2-2.6,6.4-2.4,19.8-3.7,24.4,8.3Z"/>
      </g>
      <path class="st13" d="M265.2,295.5c-.4,0-.8,0-1.3-.2-1.9-.6-3.9-1.1-5.9-1.1-6.2,9.4-14.6,17.3-25.5,19.4-.4.5-1.1.9-2,1-10.3,1.6-20.2.5-29.4-4.6-1.5-.8-2.9-1.7-4.3-2.7-.4-.1-.7-.3-1.1-.4-1-.4-1.7-1.1-2.1-1.9-4.6-3.5-8.7-7.6-12.8-11.6-20.2,12.1-33.6,33.1-33.6,57,0,37.6,33.2,68,74.1,68s74.1-30.5,74.1-68-11.9-42.5-30.3-54.8Z"/>
      <g id="body">
        <g>
          <path class="st2" d="M219.1,315.4c-15.5,0-31.2-7.8-43.3-21.5-14.1-16-20.9-37.6-18.3-57.9,5.1-40.1,37-57,38.4-57.7,1-.5,2.2-.1,2.7.9.5,1,.1,2.2-.9,2.7-.3.2-31.4,16.7-36.2,54.7-2.4,19.2,4,39.6,17.3,54.8,11.3,12.8,25.9,20.1,40.3,20.1,31.2,0,35.4-17,35.6-17.7.1-.6.5-1.1,1.1-1.4.5-.3,1.2-.3,1.7,0,.4.2,10,4.2,13.5-3.7.8-1.9.9-3.5.2-5-1.6-3.2-6.7-5.1-8.5-5.6-.7-.2-1.2-.7-1.4-1.3-.2-.7,0-1.4.4-1.9,0,0,2.5-2.9,1.9-5.9-.4-2-2-3.7-4.9-5.1-2.4-1.2-4.2-1.4-5.7-.5-2.9,1.6-4,6.6-4.2,8.4,0,.7-.5,1.3-1.2,1.6-.3.1-6.9,3-13.8-.4-5.5-2.7-9.4-8.5-11.6-17.2-6.2-24.5,11.4-39.9,12.2-40.6.8-.7,2.1-.6,2.8.2s.6,2.1-.2,2.8h0c-.7.6-16.5,14.5-10.9,36.6,1.9,7.5,5.1,12.4,9.5,14.6,3.9,1.9,7.7,1.2,9.5.7.5-2.5,2-7.9,6.1-10.2,2.7-1.5,5.8-1.3,9.4.5,4.1,2,6.4,4.7,7.1,7.9.5,2.7-.3,5.2-1.2,6.9,2.7,1.1,6.8,3.2,8.6,6.8,1.3,2.5,1.2,5.4,0,8.4-3.5,8-11.6,8-16.7,6.5-2.2,5.3-10.5,18.7-38.8,18.7Z"/>
          <path class="st2" d="M286.3,88.2c-17.3-24.6-69.8-32-70.3-32.1-1.1-.1-1.9-1-1.8-2.1.6-10.1-3.2-19.8-9.1-23-3-1.6-6.1-1.3-9.3,1.1-1.9,1.4-2.9,3.1-3,5.2-.3,6.2,7.1,14.4,10,17,.8.7.9,2,.1,2.8-.7.8-2,.9-2.8.1-.5-.4-11.8-10.8-11.3-20.2.2-3.3,1.7-6.1,4.6-8.2,4.4-3.3,9.2-3.8,13.6-1.4,6.9,3.7,11.4,13.8,11.2,24.8,9.7,1.2,54,10.1,70.6,33.7.6.9-2.2,2.7-2.6,2.1Z"/>
          <path class="st2" d="M188.2,63c0,0-.1,0-.2,0-.3,0-7.3-.8-11.1-5.7-2-2.6-2.8-5.8-2.2-9.5.6-3.7,2.1-6.2,4.7-7.4,5.1-2.4,11.7,1.3,12.4,1.7.9.6,1.3,1.8.7,2.7-.6,1-1.8,1.3-2.7.7h0c-1.5-.9-6-2.9-8.7-1.6-1.3.6-2.1,2.1-2.5,4.4-.4,2.6,0,4.7,1.4,6.4,2.8,3.5,8.3,4.1,8.4,4.2,1.1.1,1.9,1.1,1.8,2.2-.1,1-1,1.8-2,1.8Z"/>
          <path class="st2" d="M180.9,70.5c-4.8,0-11.5-1.8-14.4-8.7-1.3-3.1-1.2-5.6.2-7.4,2.9-3.5,9.6-2.4,10.9-2.1,1.1.2,1.8,1.3,1.6,2.4s-1.3,1.8-2.4,1.6h0c-2.2-.5-6.1-.5-7.1.7-.6.8,0,2.4.3,3.3,3.3,7.9,13,6.1,13.1,6.1,1.1-.2,2.1.5,2.3,1.6.2,1.1-.5,2.1-1.6,2.3-.9.2-1.9.3-3.1.3Z"/>
          <path class="st2" d="M156.6,255.9c-4.4,0-28.3-.8-42.3-17-13.3-15.3-7.4-34.3-5.8-38.7-2.7-5.2-15.7-32.9-6.2-73.5,10.4-44.6,63.1-66.5,65.3-67.5,1-.4,2.2,0,2.6,1.1.4,1,0,2.2-1.1,2.6-.5.2-53,22.1-62.9,64.7-10,42.7,6.1,71.2,6.2,71.5.3.5.3,1.2.1,1.8,0,.2-8.3,20.4,4.8,35.5,14,16.1,39.6,15.6,39.9,15.6,1.1,0,2,.8,2.1,1.9s-.8,2-1.9,2.1c0,0-.3,0-.7,0Z"/>
          <path class="st2" d="M227.5,261.2c4.4,0,60.8-5,74.9-21.2,13.3-15.3,11.9-47.1,10.2-51.5,2.7-5.2,11.3-20.1,1.8-60.8-10.4-44.6-63.1-66.5-65.3-67.5-1-.4-2.2,0-2.6,1.1-.4,1,0,2.2,1.1,2.6.5.2,53,22.1,62.9,64.7,10,42.7-1.6,58.4-1.8,58.7-.3.5-.3,1.2-.1,1.8,0,.2,3.9,33.1-9.2,48.2-15.5,14.6-72.2,19.8-72.5,19.8-1.1,0-2,.8-2.1,1.9s.8,2,1.9,2.1c0,0,.3,0,.7,0Z"/>
          <path class="st2" d="M53.2,340.3c-.6,0-1.1,0-1.7-.1-12.5-1.6-19.9-21.1-16.8-44.4,3-23.3,15.2-40.2,27.7-38.6,6.2.8,11.3,6,14.4,14.8,3,8.3,3.8,18.8,2.4,29.7-1.4,10.9-4.9,20.8-9.9,28-4.8,6.9-10.4,10.7-16.1,10.7ZM60.8,261.1c-9.6,0-19.5,15.6-22.1,35.2-2.7,20.4,3.5,38.6,13.4,39.9,4.6.6,9.6-2.5,13.9-8.9,4.6-6.7,7.9-16,9.3-26.3h0c1.3-10.2.6-20.1-2.2-27.8-2.6-7.2-6.6-11.5-11.2-12.1-.4,0-.7,0-1.1,0Z"/>
          <path class="st2" d="M96.9,265.3c-21.9,0-34.7-3.9-35.3-4.1-1-.3-1.6-1.5-1.3-2.5s1.5-1.6,2.5-1.3c.2,0,19.9,6.1,51.6,3.1,23.7-2.2,28.4-6.2,29.2-7.4,0,0,.2,0,.2.2-.2-1.1.5-2.1,1.5-2.4,1.1-.2,2.1.5,2.4,1.5,0,.3.2,1.6-.9,3-3.1,4.3-13.9,7.3-32.1,9-6.4.6-12.4.8-17.8.8Z"/>
          <path class="st2" d="M77.9,303.4c-.6,0-.9,0-1,0-1.1-.1-1.9-1.1-1.7-2.2s1.1-1.9,2.2-1.7c.2,0,6,.6,9.1-5.7,2.9-5.9-4.4-9.6-4.7-9.7-.7-.4-1.2-1.2-1.1-2s.7-1.5,1.5-1.7c.2,0,5.1-1.5,5.8-6.9.7-5.3-6-8.2-6.1-8.2-1-.4-1.5-1.6-1.1-2.6.4-1,1.6-1.5,2.6-1.1.4.2,9.5,4.1,8.5,12.4-.6,4.5-3.1,7.1-5.3,8.6,3.3,2.8,6.2,7.4,3.4,13-3.6,7.2-9.8,8-12.2,8Z"/>
          <path class="st2" d="M138.1,430.3c-.3,0-.6,0-.8-.2-18.5-8.3-31-25.7-36.1-50.2-3.1-14.6-2.7-27.6-2.4-32.5-20.1-1.2-45.3-7.1-45.5-7.2-1.1-.3-1.7-1.3-1.5-2.4.3-1.1,1.3-1.7,2.4-1.5.3,0,26.8,6.4,46.8,7.2.6,0,1.1.3,1.4.7s.5,1,.5,1.5c0,.6-5.8,61.8,36,80.7,1,.5,1.5,1.6,1,2.6-.3.7-1.1,1.2-1.8,1.2Z"/>
          <path class="st2" d="M180.2,487.4c-16.7,0-35.8-4.8-51-15.5-25.5-17.9-9.6-55.5-9.4-55.9.4-1,1.6-1.5,2.6-1,1,.4,1.5,1.6,1,2.6-.2.4-14.8,35,8,51,24,16.9,59.3,18.2,75.9,8.9,16.7-9.4,25.1-35.9,25.2-36.1.3-.9,1.2-1.5,2.1-1.4,1,.1,1.7.9,1.8,1.9,0,1.1,2,28.2,25.9,33.7,23.1,5.4,52.1.7,61.1-22.4,8.6-22.1-4.1-53-4.3-53.4-.4-.9,0-2,.8-2.5.2-.1,19.5-12.6,16.2-59-3.3-47.2-44.5-92.7-44.9-93.1-.8-.8-.7-2.1.1-2.8.8-.7,2.1-.7,2.8.1,1.7,1.9,42.5,46.9,46,95.5,3,42.3-11.9,57.8-16.7,61.7,2.5,6.7,11.9,33.9,3.7,54.9-9.8,25.3-41,30.6-65.8,24.8-18.5-4.3-25.3-20.4-27.7-30-3.8,9-11.8,24.4-24.5,31.5-7.3,4.1-17.7,6.4-29.1,6.4Z"/>
          <path class="st2" d="M376.8,274.7c-.5,0-1-.2-1.4-.5-.8-.8-.9-2-.1-2.8.1-.2,4.2-5-.4-16.8-4.4-11.3-18.7-6.2-19.3-5.9-1,.4-2.2-.1-2.6-1.2-.4-1,.1-2.2,1.2-2.6,6.4-2.4,19.8-3.7,24.4,8.2,5.5,14.3-.1,20.7-.4,20.9-.4.4-.9.6-1.5.6Z"/>
          <path class="st2" d="M338.6,330c-.8,0-1.6-.5-1.9-1.3-.4-1,.1-2.2,1.2-2.6.3-.1,30.2-11.6,46.8-30.7,17.2-19.7,13.5-45.1.2-57.2-5.7-5.2-12-7.6-18.6-7.2-7.8.4-15.9,4.9-22.2,12.2-11.3,13.1-33.6,22.7-34.5,23.2-1,.4-2.2,0-2.6-1s0-2.2,1-2.6c.2-.1,22.4-9.7,33.1-22.1,7.2-8.3,16.1-13.1,25-13.6,7.7-.4,15.2,2.4,21.6,8.3,14.7,13.4,18.9,41.2.2,62.8-17.3,19.9-47.1,31.4-48.4,31.8-.2,0-.5.1-.7.1Z"/>
          <path class="st2" d="M102.6,429.8c-4,0-8.5-.8-13.3-3.1-18.8-8.7-14.1-30.7-14-31,.2-1,1.2-1.7,2.2-1.5,1,.1,1.8,1,1.8,2s.2,15.7,14,19.5c13.9,3.9,21.6-5.4,21.9-5.8.7-.9,1.9-1,2.8-.3s1,1.9.3,2.8c-.4.5-9.6,11.7-26.1,7.1-5.8-1.6-9.6-4.9-12.1-8.5,1.6,4.5,4.7,9.1,10.9,12,16.1,7.5,27.5-2.9,27.6-3,.8-.8,2.1-.7,2.8.1.8.8.7,2.1,0,2.8,0,0-7.4,6.8-18.7,6.8Z"/>
          <path class="st2" d="M77.2,417c-.1,0-.3,0-.4,0-.4,0-10.6-2.3-16.1-11-3.5-5.5-4.4-12.3-2.5-20.1,5.8-25.1,22.9-26.8,23.6-26.8.9,0,1.7.4,2,1.2,0,.2,9.5,23.3,14,35.2,1.3,3.5,1.2,6.8-.4,9.8-3.4,6.6-12.8,9-13.2,9.1-1.1.3-2.2-.4-2.4-1.5s.4-2.2,1.4-2.4c0,0,8-2.1,10.7-7.1,1-1.9,1.1-4.1.2-6.5-3.8-10.1-11.2-28.3-13.3-33.6-3.8.9-14.4,5.1-18.7,23.5-1.6,6.8-.9,12.5,2,17.1,4.6,7.3,13.5,9.2,13.6,9.2,1.1.2,1.8,1.3,1.6,2.4-.2.9-1,1.6-2,1.6Z"/>
          <path class="st2" d="M147.4,481.2c-.2,0-.3,0-.5,0-1.1-.3-1.7-1.4-1.5-2.4,1.2-5,6.1-14.2,15.5-13.5,4.1.3,7,1.7,8.6,4.1.3.4.5.9.7,1.3,3-2.8,7.6-5.8,12.8-3.6,2.6,1.1,4.4,2.6,5.4,4.4,1.4-1.3,3.1-2.5,5.1-3.1,2.5-.7,4.9-.4,7.3.9,8.9,5,7.5,9.9,7.4,10.5l-3.8-1.3s0,0,0,.1c0,0,.4-2.5-5.5-5.8-1.4-.8-2.8-1-4.2-.6-3.6,1-6.1,5.4-6.3,5.8h0c-.6,1-1.8,1.3-2.7.8-.9-.5-1.3-1.7-.8-2.7,0,0,0,0,0,0,0-.1.6-1.2.2-2.4-.4-1.1-1.6-2.1-3.5-2.9-5.6-2.3-11.2,6-11.3,6.1-.6.8-1.6,1.1-2.5.7-.9-.4-1.4-1.5-1-2.4,0,0,.6-2-.4-3.6-1.1-1.6-3.6-2.2-5.6-2.3-8.4-.7-11.2,10-11.3,10.4-.2.9-1.1,1.5-2,1.5Z"/>
          <path class="st2" d="M271.5,481.2c-.9,0-1.8-.6-2-1.6,0-.3-1.3-6.7,2-10.9,1.7-2.1,4.2-3.3,7.4-3.4,3.2-.1,5.7.4,7.6,1.6.5-1.2,1.1-2.4,2-3.5,1.7-1.8,4-2.8,6.8-2.8s5.7.6,7.4,1.8c1.3-3.2,3.9-6.9,8.9-6.9s9.5,5.2,10,8c.2,1.1-.5,2.1-1.6,2.3-1.1.2-2.1-.5-2.3-1.6,0-.5-1.1-4.7-6.1-4.7s-6.1,8-6.2,8.1c-.1,1.1-1.1,1.8-2.2,1.7-1.1-.1-1.9-1.1-1.8-2.2h0s0-.5-.5-1c-.5-.5-2-1.5-5.6-1.5s-2.9.5-3.8,1.5c-1.4,1.5-1.8,3.9-1.9,5.6.1,1.1,0,1.9,0,2-.2,1-1.1,1.7-2.1,1.6-1,0-1.8-.8-1.9-1.8,0,0,0-.6,0-1.5,0-.4-.2-.8-.6-1.1-1-1.1-3-1.6-5.9-1.5-2,0-3.5.7-4.4,1.9-1.8,2.3-1.5,6.3-1.2,7.7.2,1.1-.5,2.1-1.6,2.4-.1,0-.3,0-.4,0Z"/>
          <path class="st2" d="M85.7,264.9c-20.8,0-30.1-16.4-32.7-22.1-5.3,1.6-19.9,4.3-31-12.8-6.7-10.3-7.7-33.3-2.6-58.6,5.7-28.2,17.7-53,32.9-68.1,28.4-28,58.9-18,69-14.7,1,.3,2.2.7,2.7.8.6-.1,1.3,0,1.8.5.8.8.9,2,.1,2.8-1.1,1.2-2.4.8-5.9-.3-10.5-3.4-38.3-12.6-64.9,13.7-14.7,14.5-26.3,38.6-31.8,66-4.8,23.9-4,46.3,2.1,55.7,11.7,18,27.2,10.9,27.9,10.6.5-.2,1.1-.3,1.6,0s.9.7,1.1,1.2c.3.9,7.5,21.3,29.7,21.3h.1c22.4,0,30.9-17,31.2-17.8.5-1,1.7-1.4,2.7-.9,1,.5,1.4,1.7.9,2.7-.4.8-9.8,19.9-34.8,20,0,0,0,0-.1,0ZM122.9,90h0ZM122.9,90h0Z"/>
          <path class="st2" d="M88.8,246.6c-1.8,0-3.6-.2-5.6-.6-14.8-3.2-17.7-18.6-18.2-25.4-3.5,1.4-9.6,3.1-15.4.4-6.2-2.9-10.3-9.8-12.1-20.6-3.5-20.8,11.6-61.9,35.4-81.8,12.4-10.3,25.4-13.4,37.7-9,1,.4,1.6,1.5,1.2,2.6s-1.5,1.6-2.6,1.2c-13.8-5-26,1.8-33.8,8.3-22.9,19.1-37.3,58.3-34,78.1,1.6,9.4,4.9,15.4,9.8,17.6,6.7,3.1,14.5-1.6,14.6-1.6.6-.4,1.4-.4,2.1,0,.6.4,1,1.1,1,1.8,0,.9-.6,21.1,15.2,24.5,16,3.5,25.5-11.9,25.5-12.1.6-.9,1.8-1.3,2.7-.7.9.6,1.3,1.8.7,2.7-.1.2-8.9,14.5-24.3,14.5Z"/>
        </g>
        <g>
          <path class="st2" d="M195.5,215.4c-.2,0-.5,0-.7-.3-11.4-10.6-26.7-3.7-26.8-3.6-.5.2-1.1,0-1.3-.5s0-1.1.5-1.3c.2,0,16.7-7.5,29,4,.4.4.4,1,0,1.4-.2.2-.5.3-.7.3Z"/>
          <path class="st2" d="M187.4,245c-.1,0-.3,0-.4-.1-13.1-6.5-25.5,0-25.6,0-.5.3-1.1,0-1.4-.4-.3-.5,0-1.1.4-1.4.5-.3,13.5-7,27.5,0,.5.2.7.9.4,1.3-.2.4-.5.6-.9.6Z"/>
          <path class="st2" d="M168.4,279.5c-.1,0-.2,0-.4,0-.5-.2-.8-.8-.6-1.3.2-.4,4-9.8,20-8.9.6,0,1,.5.9,1s-.5,1-1.1.9c-14.5-.8-18,7.6-18,7.7-.1.4-.5.6-.9.6Z"/>
          <path class="st2" d="M187.4,303s0,0-.1,0c-.6,0-.9-.5-.9-1.1,0-.1,1.5-12.5,15.5-13.5.6,0,1,.4,1.1.9,0,.5-.4,1-.9,1.1-12.3.8-13.6,11.2-13.6,11.7,0,.5-.5.9-1,.9Z"/>
        </g>
      </g>
      <g class="st12">
        <path class="st2" d="M370.8,247.3h0c-1.1,0-2-.9-2-2,.4-20.8-22.6-41.1-22.9-41.2-.8-.7-.9-2-.2-2.8s2-.9,2.8-.2c1,.9,24.7,21.6,24.2,44.3,0,1.1-.9,2-2,2Z"/>
        <path class="st2" d="M373.9,251.3c-.4,0-.8-.1-1.1-.3-.9-.6-1.2-1.9-.6-2.8,7.7-11.7,7.8-45.3,7.8-45.6,0-1.1.9-2,2-2h0c1.1,0,2,.9,2,2,0,1.4-.2,35.2-8.5,47.8-.4.6-1,.9-1.7.9Z"/>
        <path class="st2" d="M385.4,264c-2.8,0-5.4-.4-7.5-1.3-1-.5-1.4-1.6-1-2.6s1.6-1.4,2.6-1c7.3,3.4,25-2.6,31.2-5.2,1-.4,2.2,0,2.6,1.1.4,1,0,2.2-1.1,2.6-.8.3-15.7,6.5-27,6.5Z"/>
      </g>
      <g id="mata">
        <g>
          <g>
            <path d="M271.9,167.9c-1.5,2.2-3.4,3.6-5.3,4.4-2.4-1.9-5.5-2.9-9.4-2.3-16.4,2.4-12.8,27.9,3.7,25.5,10.2-1.5,12.6-11.9,9-19,2.2-3.6,2-8.6,2-8.6Z"/>
            <path class="st7" d="M258.9,175.6c-3.6.5-2.8,6.1.8,5.5,3.6-.5,2.8-6.1-.8-5.5Z"/>
          </g>
          <g class="st12">
            <path class="st4" d="M270.7,136.6c-.8-.3-1.6-.6-2.5-.8-10.7-2.1-17,5.4-17,5.4,0,0-3.1,2.9-1.3,7.2,1.8,4.3,15.1,8.7,21.9,5.3,1.4-.7,2.5-1.8,3.3-3.1-1.9-4.5-3.2-9.3-4.3-14.1Z"/>
            <path class="st2" d="M265.8,155.9c-3.3,0-6.7-.8-9.3-1.7-3.9-1.4-6.6-3.4-7.5-5.4-1.6-3.9.2-7.1,1.5-8.3.6-.7,7.1-7.8,17.9-5.6,1,.2,1.9.5,2.7.8.3.1.5.4.6.7,1.4,5.8,2.7,10.1,4.3,13.9.1.3,0,.6,0,.9-.9,1.5-2.2,2.7-3.7,3.4-1.9.9-4.1,1.3-6.4,1.3ZM264.5,136.5c-7.9,0-12.4,5.3-12.5,5.4s0,0,0,.1c-.1.1-2.6,2.5-1.1,6.1.6,1.4,3.1,3.1,6.3,4.3,4,1.5,10.1,2.5,14.1.5s1.9-1.3,2.6-2.3c-1.5-3.7-2.8-7.9-4.1-13.2-.6-.2-1.2-.4-1.9-.5-1.2-.2-2.4-.4-3.5-.4Z"/>
          </g>
        </g>
        <g>
          <g>
            <path d="M139.8,175.8c1.9,1.8,4.2,2.6,6.2,3,1.8-2.4,4.7-4.1,8.6-4.5,16.5-1.6,19.1,24,2.6,25.6-10.3,1-15.1-8.5-13.4-16.3-2.9-2.9-4-7.8-4-7.8Z"/>
            <path class="st7" d="M154.2,180.1c3.6-.4,4.1,5.2.6,5.6-3.6.4-4.1-5.2-.6-5.6Z"/>
          </g>
          <g>
            <path class="st4" d="M164.5,143.3s-7.9-5.7-17.8-1.1-6.5,16.6.9,18.2c7.4,1.7,19.2-5.8,19.9-10.4.7-4.7-3-6.7-3-6.7Z"/>
            <path class="st2" d="M149.8,161.7c-.9,0-1.7,0-2.5-.3-4.1-.9-7.2-4.7-7.7-9.2-.5-4.7,2-8.7,6.7-10.9,10-4.6,17.9.6,18.7,1.2,1.5.9,4.1,3.5,3.5,7.7-.3,2.1-2.5,4.7-6,7.1-3.2,2.2-8.2,4.4-12.7,4.4ZM154.6,141.4c-2.2,0-4.8.4-7.5,1.7-3.9,1.8-5.9,5.1-5.5,8.9.4,3.7,2.9,6.7,6.2,7.5,4.4,1,10.1-1.5,13.6-3.9,2.9-1.9,4.9-4.2,5.1-5.7.6-3.9-2.4-5.6-2.5-5.7,0,0,0,0-.1,0-.2-.2-3.9-2.7-9.3-2.7Z"/>
          </g>
          <g>
            <path class="st4" d="M251.8,138.4s7.9-5.7,17.8-1.1,6.5,16.6-.9,18.2c-7.4,1.7-19.2-5.8-19.9-10.4-.7-4.7,3-6.7,3-6.7Z"/>
            <path class="st2" d="M266.4,156.8c.9,0,1.7,0,2.5-.3,4.1-.9,7.2-4.7,7.7-9.2.5-4.7-2-8.7-6.7-10.9-10-4.6-17.9.6-18.7,1.2-1.5.9-4.1,3.5-3.5,7.7.3,2.1,2.5,4.7,6,7.1,3.2,2.2,8.2,4.4,12.7,4.4ZM261.6,136.5c2.2,0,4.8.4,7.5,1.7,3.9,1.8,5.9,5.1,5.5,8.9-.4,3.7-2.9,6.7-6.2,7.5-4.4,1-10.1-1.5-13.6-3.9-2.9-1.9-4.9-4.2-5.1-5.7-.6-3.9,2.4-5.6,2.5-5.7,0,0,0,0,.1,0,.2-.2,3.9-2.7,9.3-2.7Z"/>
          </g>
        </g>
      </g>
    </g>
  </g>
  <g id="Ebene_2">
    <g>
      <rect class="st9" x="349.5" y="179.4" width="72.7" height="138.9" transform="translate(32.9 -44.8) rotate(6.9)"/>
      <path class="st0" d="M400.8,264.8l-33.3-4.1c-3.1-.4-5.2-3.2-4.9-6.2l4.1-33.3c.4-3.1,3.2-5.2,6.2-4.9l33.3,4.1c3.1.4,5.2,3.2,4.9,6.2l-4.1,33.3c-.4,3.1-3.2,5.2-6.2,4.9Z"/>
      <rect class="st11" x="341.7" y="306.7" width="72.7" height="11.2" transform="translate(40.5 -43.4) rotate(6.9)"/>
      <path class="st11" d="M403.9,192.4l-22.2-2.7c-3.1-.4-5.2-3.2-4.9-6.2l.7-5.6,33.3,4.1-.7,5.6c-.4,3.1-3.2,5.2-6.2,4.9Z"/>
      <path class="st10" d="M394.2,295.4l-27.7-3.4c-3.1-.4-5.2-3.2-4.9-6.2h0c.4-3.1,3.2-5.2,6.2-4.9l27.7,3.4c3.1.4,5.2,3.2,4.9,6.2h0c-.4,3.1-3.2,5.2-6.2,4.9Z"/>
      <path class="st8" d="M393.4,232.7l2.3-19,29.2-9,26.2,15.7-2.3,19c-2.2,18.5-15.2,33.9-32.9,39.3h0c-16-9.6-24.8-27.6-22.6-46.1Z"/>
      <circle class="st0" cx="420.4" cy="241.8" r="16.8"/>
      <g>
        <path class="st6" d="M366.2,294.1l27.7,3.4c4.2.5,8-2.5,8.6-6.7s-2.5-8-6.7-8.6l-27.7-3.4c-4.2-.5-8,2.5-8.6,6.7-.5,4.2,2.5,8,6.7,8.6ZM367.6,283l27.7,3.4c1.9.2,3.3,2,3,3.9s-2,3.3-3.9,3l-27.7-3.4c-1.9-.2-3.3-2-3-3.9s2-3.3,3.9-3Z"/>
        <path class="st6" d="M452.3,218.7l-22.5-13.4,2.5-20.7c.1-1.1-.7-2.2-1.8-2.3l-72.1-8.8c-1.1-.1-2.2.7-2.3,1.8l-16.8,137.9c-.1,1.1.7,2.2,1.8,2.3l72.1,8.8c1.1.1,2.2-.7,2.3-1.8l5.3-43.2c16.3-6.7,28-21.8,30.2-39.6l2.3-19c0-.8-.3-1.6-1-2ZM379.4,180.2l29.1,3.5-.4,3.5c-.2,1.9-2,3.3-3.9,3l-22.2-2.7c-1.9-.2-3.3-2-3-3.9l.4-3.5ZM375.2,179.7l-.4,3.5c-.5,4.2,2.5,8,6.7,8.6l22.2,2.7c4.2.5,8-2.5,8.6-6.7l.4-3.5,15.3,1.9-2,16.8c-.5-.2-1-.3-1.5-.1l-29.2,9c-.8.2-1.4.9-1.5,1.7l-.4,3.2-20.1-2.4c-4.2-.5-8,2.5-8.6,6.7l-4.1,33.3c-.5,4.2,2.5,8,6.7,8.6l32.7,4c3.9,5.5,8.9,10.2,14.9,13.8.3.2.5.2.8.3s.5,0,.7,0l-3.4,27.9-68-8.3,14.9-122.6,15.3,1.9ZM397.1,262.2l-29.4-3.6c-1.9-.2-3.3-2-3-3.9l4.1-33.3c.2-1.9,2-3.3,3.9-3l20.1,2.4-1.4,11.6c-1.3,10.5.9,20.8,5.8,29.7ZM343.7,311.6l.8-6.9,68,8.3-.8,6.9-68-8.3ZM446.8,239.2c-2.1,17.3-14.1,31.9-30.6,37.3-14.7-9.2-22.9-26.2-20.7-43.5l2.1-17.6,27.1-8.3,24.3,14.5-2.1,17.6Z"/>
        <path class="st6" d="M401.7,239.5c-1.3,10.3,6.1,19.7,16.4,21,10.3,1.3,19.7-6.1,21-16.4,1.3-10.3-6.1-19.7-16.4-21s-19.7,6.1-21,16.4ZM435,243.6c-1,8-8.3,13.8-16.3,12.8s-13.8-8.3-12.8-16.3c1-8,8.3-13.8,16.3-12.8s13.8,8.3,12.8,16.3Z"/>
        <path class="st6" d="M416.5,240.5c-.7-.9-2-1.1-2.9-.4-.9.7-1.1,2-.4,2.9l2.9,3.7c.3.4.9.7,1.4.8s1.1,0,1.6-.4l8.8-7c.9-.7,1.1-2,.3-2.9-.7-.9-2-1.1-2.9-.3l-7.1,5.7-1.6-2Z"/>
      </g>
    </g>
  </g>
</svg>