<svg width="52" height="48" viewBox="0 0 52 48" fill="none" xmlns="http://www.w3.org/2000/svg">
<path d="M51.648 17.9349C50.7497 17.5222 48.268 17.6532 48.268 17.6532C49.8821 15.4715 49.7958 14.3941 49.7958 14.3941C45.7501 10.9871 37.8843 13.3533 34.6324 14.6138C37.6643 3.42247 29.2637 -0.322529 28.215 0.233798C27.1496 0.798577 25.4659 3.84922 25.4659 3.84922C24.1373 1.32392 22.2266 0 22.2266 0C14.6017 2.04362 15.9192 12.7941 16.2297 14.8335C13.0113 13.2631 6.16355 10.6928 2.32258 13.9279C2.32258 13.9279 2.04265 15.1363 3.65814 17.318C3.65814 17.318 1.2544 16.9969 0.356131 17.4095C-0.542138 17.8222 -0.55328 27.0417 10.4641 30.0642C10.4641 30.0642 12.411 30.5276 14.1881 30.6924C13.7522 31.0149 13.2453 31.26 12.7843 31.6093C11.088 32.8952 8.61603 35.7543 8.18291 37.4768C7.54507 40.0105 6.82646 41.3147 9.46974 44.502C9.46974 44.502 10.9738 44.3766 13.1895 42.7907C13.1895 42.7907 13.287 46.409 13.7229 46.6372C14.585 47.0864 22.8365 48.209 26.197 38.6936C29.3793 48.9568 37.5194 48.2385 38.401 47.778C38.8369 47.5498 38.9831 43.9766 38.9831 43.9766C41.1974 45.5625 42.5386 45.7006 42.5386 45.7006C45.1819 42.5133 44.3491 38.7472 43.7112 36.2134C43.2781 34.4909 42.2099 32.8557 40.6501 31.9628C40.0499 31.6191 39.4886 31.2529 38.9553 30.8783C40.3047 30.6755 41.4676 30.398 41.4676 30.398C52.485 27.3755 52.5519 18.3461 51.6536 17.9335L51.648 17.9349Z" fill="#F7C8D5"/>
</svg>
