<svg width="63" height="58" viewBox="0 0 63 58" fill="none" xmlns="http://www.w3.org/2000/svg">
<path d="M62.5736 21.6713C61.4853 21.1727 58.4786 21.3309 58.4786 21.3309C60.4341 18.6948 60.3295 17.3929 60.3295 17.3929C55.428 13.2761 45.8983 16.1352 41.9585 17.6584C45.6317 4.13549 35.4541 -0.389723 34.1836 0.282506C32.8928 0.964947 30.8529 4.65115 30.8529 4.65115C29.2433 1.59974 26.9283 0 26.9283 0C17.6905 2.46938 19.2867 15.4596 19.663 17.9238C15.7637 16.0263 7.46738 12.9204 2.81389 16.8296C2.81389 16.8296 2.47475 18.2897 4.43198 20.9259C4.43198 20.9259 1.51975 20.5379 0.431467 21.0365C-0.656821 21.5352 -0.670319 32.6754 12.6777 36.3276C12.6777 36.3276 15.0365 36.8875 17.1894 37.0866C16.6613 37.4764 16.0471 37.7725 15.4886 38.1945C13.4336 39.7483 10.4387 43.2031 9.91391 45.2844C9.14114 48.346 8.27051 49.922 11.4729 53.7732C11.4729 53.7732 13.2952 53.6218 15.9796 51.7055C15.9796 51.7055 16.0978 56.0775 16.6259 56.3532C17.6703 56.8961 27.6674 58.2525 31.7387 46.7548C35.5941 59.1562 45.4562 58.2882 46.5243 57.7317C47.0524 57.456 47.2295 53.1384 47.2295 53.1384C49.9123 55.0547 51.5371 55.2215 51.5371 55.2215C54.7396 51.3702 53.7306 46.8195 52.9578 43.7579C52.4331 41.6765 51.1389 39.7007 49.2492 38.6217C48.522 38.2064 47.842 37.764 47.1958 37.3113C48.8308 37.0662 50.2396 36.7309 50.2396 36.7309C63.5876 33.0788 63.6686 22.1682 62.5803 21.6696L62.5736 21.6713Z" fill="#F091AC"/>
</svg>
