<svg width="137" height="140" viewBox="0 0 137 140" fill="none" xmlns="http://www.w3.org/2000/svg">
<g clip-path="url(#clip0_275_1604)">
<path d="M68.043 4.73071C105.069 4.73071 135.086 34.7868 135.086 71.8655C135.086 108.944 105.069 139 68.043 139C31.0175 139 1.00006 108.944 1 71.8655C1 34.7868 31.0174 4.73075 68.043 4.73071Z" fill="#C7DCEB" stroke="black" stroke-width="2"/>
<path d="M103.661 29.4649C104.734 33.591 105.493 38.1044 105.966 42.9474C109.552 65.6912 96.7848 75.2284 79.3876 80.627C72.2926 85.023 63.5042 87.2015 53.2677 87.4845C33.3207 90.621 17.5354 87.4828 12.7163 67.8332C11.9667 64.7798 10.864 61.8258 9.4115 59.039C7.40953 55.2067 6.07741 51.3636 5.33434 47.5808C5.15372 46.6716 5.00619 45.7673 4.895 44.8651C1.25935 15.7766 31.7933 -8.58837 58.4611 5.12817C74.9628 -0.149886 86.66 2.55975 94.3837 10.9282L94.388 10.9309L94.3891 10.9341L94.4026 10.945C96.2978 13.0029 97.9569 15.4019 99.385 18.1088C99.8379 18.9647 100.268 19.8517 100.672 20.7668C101.854 23.4238 102.844 26.3317 103.661 29.4644L103.661 29.4649Z" fill="#F476CA"/>
<g opacity="0.6">
<path d="M97.58 15.0418C89.9003 5.32478 77.7643 1.86672 60.1664 7.49727C49.3175 1.91615 37.8253 2.63959 28.258 7.42015C26.7535 12.198 23.3592 14.641 18.079 14.7441C6.86829 25.8542 1.89185 43.7393 11.1168 61.4081C12.5694 64.1949 13.6721 67.1483 14.4216 70.2023C15.3296 73.9026 16.6254 77.0207 18.2715 79.6168C15.8064 76.6123 13.9183 72.7354 12.7169 67.8332C11.9673 64.7798 10.8646 61.8258 9.41211 59.039C-8.60018 24.5394 27.5329 -10.7815 58.4611 5.12817C77.4226 -0.939043 90.0424 3.54606 97.5795 15.0423L97.58 15.0418Z" fill="white"/>
</g>
<g opacity="0.3">
<path d="M103.661 29.4649C104.734 33.591 105.493 38.1043 105.966 42.9474C109.552 65.6911 96.7848 75.2284 79.3876 80.627C72.2926 85.023 63.5042 87.2015 53.2677 87.4844C33.3207 90.621 17.5355 87.4828 12.7163 67.8332C11.9667 64.7798 10.864 61.8257 9.41151 59.039C7.40954 55.2067 6.07743 51.3636 5.33435 47.5807C5.33435 47.5807 8.85393 57.9886 16.583 62.8903C24.311 67.7887 101.73 40.5978 101.73 40.5978C101.73 40.5978 104.241 35.7276 103.661 29.4649Z" fill="#380076"/>
</g>
<path d="M41.167 89.7433C35.5803 89.7433 30.8501 88.94 26.8652 87.328C19.0455 84.1649 13.8895 77.7028 11.5399 68.1221C10.8077 65.1388 9.73048 62.2711 8.33761 59.6C3.91929 51.1376 2.42066 42.0132 4.00391 33.2135C5.45426 25.1514 9.34701 17.7378 15.2607 11.7732C27.196 -0.263969 44.1414 -3.35759 58.5674 3.82194C71.4791 -0.21183 82.1088 0.433399 90.1666 5.74242C99.6514 11.9927 105.373 24.4589 107.17 42.7937C108.898 53.8022 107.036 62.3976 101.477 69.0688C96.9172 74.5397 90.057 78.568 79.8937 81.7404C72.8697 86.0533 63.9501 88.3931 53.3794 88.6951C48.9161 89.3935 44.8552 89.7438 41.1675 89.7438L41.167 89.7433ZM42.4768 2.4348C33.2963 2.4348 24.1738 6.22797 16.9806 13.483C5.04801 25.518 2.49877 43.1787 10.4855 58.4763C11.9678 61.3201 13.1145 64.3708 13.8933 67.5432C17.9602 84.1269 30.0441 89.9073 53.08 86.2852C53.131 86.2771 53.1826 86.2722 53.2346 86.2711C63.4728 85.9881 72.0578 83.7423 78.7504 79.5951C78.8377 79.5407 78.931 79.4984 79.0291 79.468C99.7773 73.0298 107.716 61.8246 104.77 43.1364C104.766 43.113 104.763 43.0891 104.761 43.0652C103.042 25.4762 97.6842 13.6008 88.834 7.76935C81.3191 2.81771 71.2247 2.31803 58.8294 6.28337C58.524 6.38113 58.1926 6.35343 57.9068 6.20679C52.9781 3.67149 47.7174 2.43426 42.4763 2.43426L42.4768 2.4348Z" fill="#380076"/>
<path d="M128.369 46.9485L98.3644 99.5086C101.48 106.674 103.789 118.228 103.789 118.228H42.5132C39.1656 117.306 37.4554 114.706 37.4554 114.706C30.8811 95.4287 48.7242 82.5779 48.7242 82.5779C62.7867 77.8494 74.2073 75.7036 80.5842 74.7748C84.2329 74.2409 87.5323 72.3031 89.7897 69.3843L110.828 42.1962C107.944 29.3106 113.078 24.586 117.465 31.9697C117.995 28.472 118.815 25.3904 120.238 23.1853C121.872 20.6549 124.963 19.6322 127.747 20.4192C128.315 20.5789 128.872 20.8146 129.398 21.1296C136.184 25.1786 139.906 31.5885 128.37 46.9485H128.369Z" fill="#FFC8A9"/>
<path d="M98.6589 98.9927L103.374 118.229H90.2876C92.9432 114.187 90.0555 108.522 85.8943 106.214C85.7071 106.11 85.4717 106.003 85.1984 105.895C85.8216 104.422 85.5271 101.995 82.8167 101.649C80.1026 101.302 77.4367 104.047 77.4367 104.047C68.3875 102.418 55.7823 101.014 55.7823 101.014C46.899 92.8087 37.8704 96.7018 37.8704 96.7018C40.3838 91.6198 43.4581 86.8984 47.3492 82.7104C51.9742 83.3029 56.5926 83.1818 61.197 82.4155C61.197 82.4155 64.8495 89.3419 72.0291 88.4159C79.2093 87.4937 78.7558 80.3283 78.752 76.6329L88.2271 71.093L96.8441 60.267C96.8441 60.267 99.6238 76.0816 109.899 79.3018L98.6578 98.9921L98.6589 98.9927Z" fill="#EC92FF"/>
<g opacity="0.6">
<path d="M115.304 29.3145C113.22 30.417 112.126 35.1802 113.829 42.7893L92.7907 69.9742C90.5338 72.8968 87.2344 74.8341 83.5852 75.3647C77.2083 76.2972 65.7877 78.4431 51.7251 83.1677C51.7251 83.1677 33.8826 96.0186 40.4564 115.296C40.4564 115.296 41.6367 117.092 43.9597 118.229H42.5126C39.165 117.307 37.4548 114.707 37.4548 114.707C30.8805 95.4293 48.7235 82.5784 48.7235 82.5784C62.7861 77.85 74.2067 75.7042 80.5836 74.7754C84.2323 74.2415 87.5317 72.3037 89.7891 69.3849L110.827 42.1968C108.411 31.4055 111.62 26.3371 115.304 29.315V29.3145Z" fill="white"/>
</g>
<g opacity="0.6">
<path d="M128.67 20.7554C126.534 20.8146 124.471 21.8682 123.238 23.7746C121.816 25.9791 120.995 29.0614 120.465 32.5623C119.61 31.1274 118.731 30.1498 117.886 29.6018C118.409 27.0849 119.146 24.8766 120.237 23.1853C122.054 20.3703 125.679 19.4204 128.67 20.7554Z" fill="white"/>
</g>
<path d="M103.789 119.443H42.5132C42.4042 119.443 42.2963 119.428 42.1911 119.399C38.4491 118.365 36.5236 115.495 36.4433 115.373C36.3869 115.287 36.3414 115.194 36.3083 115.097C33.496 106.85 34.6372 98.4321 39.6076 90.7524C43.3279 85.0045 47.8265 81.7284 48.0163 81.5921C48.1151 81.5209 48.2235 81.4655 48.3385 81.427C62.1283 76.7914 73.3894 74.5978 80.4074 73.5734C83.7567 73.0852 86.7485 71.3331 88.8329 68.6403L109.525 41.9002C107.945 34.3709 108.926 28.7452 112.068 27.4928C112.863 27.1762 114.675 26.8438 116.771 29.0135C117.371 26.2545 118.167 24.1564 119.219 22.5259C121.501 18.9897 126.346 17.8964 130.019 20.0884C133.978 22.4515 136.131 25.1226 136.793 28.4949C137.761 33.4183 135.337 39.6739 129.383 47.6171L99.716 99.589C102.724 106.799 104.884 117.527 104.977 117.992C105.048 118.348 104.956 118.718 104.726 118.999C104.496 119.28 104.152 119.443 103.789 119.443L103.789 119.443ZM42.6835 117.017H102.293C101.569 113.709 99.6379 105.476 97.2541 99.9947C97.1017 99.6438 97.1234 99.2408 97.3132 98.9084L127.317 46.3473C127.342 46.3033 127.37 46.2609 127.4 46.2202C132.873 38.9326 135.233 33.1266 134.416 28.9636C133.895 26.3158 132.104 24.1586 128.778 22.1735C126.213 20.6424 122.837 21.3914 121.254 23.8436C120.083 25.6576 119.235 28.3754 118.662 32.1522C118.585 32.659 118.199 33.0625 117.696 33.1608C117.194 33.2597 116.684 33.031 116.423 32.5905C115.022 30.2339 113.677 29.4643 112.964 29.7484C111.561 30.3078 110.338 34.4567 112.012 41.9311C112.091 42.2842 112.008 42.654 111.787 42.9397L90.7487 70.1273C88.2792 73.3187 84.7303 75.3956 80.7578 75.9757C73.8689 76.9804 62.8296 79.1301 49.2948 83.6663C48.5284 84.2517 44.7181 87.2949 41.5993 92.1401C37.0535 99.2017 36.0268 106.604 38.5462 114.146C38.883 114.592 40.3014 116.305 42.6846 117.017L42.6835 117.017Z" fill="#380076"/>
<path d="M94.4033 50.4913C102.081 79.8156 35.4979 97.2954 27.8203 67.9712C19.8152 72.2124 14.8545 64.7738 17.1059 59.7461C18.0909 57.5346 20.4747 55.7868 24.6088 55.7053C24.6088 55.7053 29.1817 53.132 27.2215 45.6445C41.9073 41.6455 53.3551 33.7665 59.8724 19.9891C65.145 29.0407 73.2028 33.641 85.3654 31.6917C85.3654 31.6917 86.6644 36.3104 91.1918 38.2255C94.2004 36.6075 96.7263 36.5646 98.6095 37.4141C104.191 39.9233 104.149 50.2339 94.4033 50.4913Z" fill="#FFC8A9"/>
<g opacity="0.3">
<path d="M87.1731 35.0835L86.5467 36.1763C86.5179 36.0943 86.5065 36.0508 86.5065 36.0508C74.3439 38.0001 66.2856 33.3998 61.0136 24.3482C54.5835 37.9414 43.3544 45.7917 28.9528 49.838C28.604 49.5995 28.168 49.3416 27.708 49.0895C27.7015 48.0804 27.5594 46.9355 27.2209 45.6445C41.9067 41.6455 53.3545 33.7664 59.8718 19.9891C65.1444 29.0407 73.2022 33.641 85.3648 31.6917C85.3648 31.6917 85.8296 33.3439 87.1726 35.0841L87.1731 35.0835Z" fill="#380076"/>
</g>
<g opacity="0.3">
<path d="M94.4032 50.4913C102.081 79.8156 35.4978 97.2954 27.8203 67.9712C20.7741 71.7062 16.0851 66.3858 16.6004 61.6275C18.4114 64.1981 21.9918 65.5841 26.5614 63.1624C34.239 92.4866 100.822 75.0068 93.1443 45.6825C98.316 45.5467 100.754 42.5813 101.076 39.4502C103.855 43.34 102.376 50.2795 94.4038 50.4908L94.4032 50.4913Z" fill="#380076"/>
</g>
<path d="M19.6443 56.9474C19.2874 57.2527 18.8844 57.559 18.4315 57.8642C18.783 57.5248 19.186 57.2185 19.6443 56.9474Z" fill="#FFC8A9"/>
<g opacity="0.6">
<path d="M44.6712 63.6546C48.0774 62.7605 49.9707 58.7202 48.9 54.6305C47.8292 50.5408 44.2 47.9503 40.7939 48.8445C37.3877 49.7386 35.4944 53.7789 36.5652 57.8686C37.6359 61.9583 41.2651 64.5488 44.6712 63.6546Z" fill="white"/>
</g>
<g opacity="0.6">
<path d="M77.3222 55.0834C80.7284 54.1892 82.6217 50.149 81.551 46.0593C80.4802 41.9696 76.851 39.3791 73.4449 40.2733C70.0387 41.1674 68.1454 45.2076 69.2162 49.2973C70.2869 53.387 73.9161 55.9776 77.3222 55.0834Z" fill="white"/>
</g>
<path d="M44.3755 62.5231C47.7816 61.6289 49.6749 57.5887 48.6042 53.499C47.5335 49.4093 43.9043 46.8188 40.4981 47.713C37.0919 48.6071 35.1987 52.6473 36.2694 56.737C37.3401 60.8267 40.9693 63.4172 44.3755 62.5231Z" fill="#380076"/>
<path d="M44.8974 55.5163C45.853 55.2654 46.3952 54.1739 46.1083 53.0783C45.8215 51.9826 44.8143 51.2978 43.8586 51.5487C42.903 51.7996 42.3608 52.8911 42.6477 53.9867C42.9345 55.0823 43.9417 55.7671 44.8974 55.5163Z" fill="#F1F2F2"/>
<path d="M77.0259 53.9518C80.432 53.0576 82.3253 49.0174 81.2546 44.9277C80.1839 40.838 76.5546 38.2475 73.1485 39.1417C69.7423 40.0358 67.8491 44.076 68.9198 48.1657C69.9905 52.2555 73.6197 54.846 77.0259 53.9518Z" fill="#380076"/>
<path d="M77.5479 46.9456C78.5035 46.6947 79.0457 45.6032 78.7589 44.5076C78.472 43.412 77.4648 42.7272 76.5091 42.978C75.5535 43.2289 75.0113 44.3204 75.2982 45.416C75.585 46.5117 76.5922 47.1965 77.5479 46.9456Z" fill="#F1F2F2"/>
<path d="M37.6149 52.4357C37.4603 52.4357 37.303 52.4009 37.1549 52.3276L34.0025 50.7661C33.4884 50.5114 33.2779 49.8879 33.5323 49.373C33.7872 48.8581 34.4099 48.6474 34.9235 48.9021L38.0759 50.4636C38.5901 50.7183 38.8005 51.3418 38.5462 51.8567C38.365 52.2233 37.9967 52.4357 37.6143 52.4357H37.6149Z" fill="#380076"/>
<path d="M33.612 54.9194C33.1135 54.9194 32.6731 54.5582 32.5885 54.0493C32.4947 53.4829 32.8776 52.9473 33.4433 52.8534L37.1592 52.2364C37.7287 52.143 38.2597 52.5253 38.3541 53.0924C38.4479 53.6588 38.065 54.1943 37.4993 54.2883L33.7834 54.9053C33.7259 54.9151 33.6684 54.9194 33.612 54.9194Z" fill="#380076"/>
<path d="M76.7679 41.6189C76.5662 41.6189 76.3628 41.5602 76.1838 41.438C75.7097 41.1143 75.5877 40.4675 75.911 39.9928L77.8929 37.0833C78.2161 36.6086 78.8627 36.4864 79.3362 36.8101C79.8102 37.1338 79.9323 37.7806 79.609 38.2553L77.6271 41.1648C77.4259 41.4597 77.0999 41.6189 76.7679 41.6189Z" fill="#380076"/>
<path d="M77.9335 43.1054C77.5088 43.1054 77.1107 42.8431 76.9572 42.4205C76.7614 41.8807 77.0397 41.2838 77.5788 41.0877L81.119 39.8C81.6581 39.6044 82.2542 39.8825 82.45 40.4224C82.6458 40.9623 82.3676 41.5591 81.8284 41.7552L78.2882 43.043C78.1711 43.0853 78.0512 43.1054 77.9335 43.1054Z" fill="#380076"/>
<path d="M58.8478 62.2771C58.6563 62.2771 58.4638 62.2135 58.3033 62.0832C57.9317 61.7818 57.8753 61.2359 58.1763 60.8644L59.49 59.2427C60.1566 58.4198 61.2669 58.1282 62.2502 58.5181L64.1898 59.2856C64.6346 59.4615 64.8526 59.965 64.6764 60.4098C64.5006 60.8552 63.9973 61.0735 63.5536 60.897L61.614 60.1296C61.3358 60.0193 61.0228 60.1019 60.8341 60.3343L59.5204 61.9556C59.3495 62.1668 59.0995 62.276 58.8478 62.276V62.2771Z" fill="#380076"/>
<path d="M56.674 65.8639C60.9404 66.1772 64.9644 65.4934 68.2719 61.8632C71.4617 74.0465 60.1122 76.6128 56.674 65.8639Z" fill="#380076"/>
<path d="M34.0453 45.6325C34.6371 42.2782 38.321 39.97 41.6101 40.4544C42.4361 40.5527 43.2378 40.8248 43.9353 41.2707C44.1696 41.4152 44.3936 41.5787 44.6046 41.759C44.6854 41.828 44.6946 41.9491 44.6258 42.03C44.597 42.0642 44.559 42.0832 44.5189 42.0946C43.5258 42.3934 42.6173 42.4873 41.6779 42.7426C38.9735 43.3226 36.7942 44.4491 34.3398 45.8156C34.2102 45.9052 34.0198 45.7895 34.0459 45.632L34.0453 45.6325Z" fill="#380076"/>
<path d="M68.1575 69.4659C66.2119 67.5774 61.7524 68.1738 60.6567 71.6731C63.6345 73.202 66.2748 73.1314 68.1575 69.4659Z" fill="#F73C69"/>
<path d="M77.3944 34.5122C74.587 34.5274 72.1354 34.6164 69.495 35.4398C68.5507 35.6788 67.7138 36.0427 66.7017 36.2708C66.5927 36.3023 66.475 36.2371 66.4543 36.1225C67.5814 32.4961 72.3691 31.0965 75.611 32.7003C76.359 33.0702 77.0407 33.5237 77.5609 34.208C77.6596 34.3335 77.5522 34.5263 77.3944 34.5122Z" fill="#380076"/>
<path d="M63.7255 73.6734C60.719 73.6734 57.3286 71.3206 55.6846 66.1811C55.5793 65.8519 55.6444 65.4918 55.8576 65.2203C56.0713 64.9487 56.4054 64.801 56.7498 64.8265C61.5581 65.1795 64.8738 64.0493 67.5049 61.1621C67.7615 60.8802 68.1509 60.7618 68.5208 60.853C68.8902 60.9443 69.1804 61.2305 69.2769 61.5993C71.0733 68.4595 68.5588 72.497 65.2697 73.4556C64.775 73.5996 64.256 73.6729 63.7255 73.6729V73.6734ZM58.2034 66.9718C59.855 70.6835 62.6011 72.0674 64.6894 71.4586C66.7488 70.8584 68.3174 68.315 67.64 63.9054C64.5272 66.4939 61.0374 66.999 58.2034 66.9718Z" fill="#380076"/>
<path d="M58.7182 19.6176C59.6717 17.9507 60.6052 16.2567 61.4903 14.5464C61.3797 16.4887 61.2186 18.42 61.0255 20.3617C60.9566 21.0433 60.3486 21.5402 59.6674 21.4713C58.7892 21.4028 58.2669 20.3676 58.7182 19.6181V19.6176Z" fill="#380076"/>
<path d="M27.5465 46.8128C25.1128 47.0523 22.6704 47.2706 20.2285 47.2397C22.5152 46.4766 24.7141 45.4832 26.8956 44.4752C27.5096 44.1846 28.2424 44.4475 28.532 45.0623C28.9019 45.8091 28.372 46.7422 27.5465 46.8128Z" fill="#380076"/>
<path d="M53.047 84.2958C49.1824 84.2958 45.5191 83.8325 42.2149 82.9027C34.463 80.721 29.2533 76.1582 27.061 69.6597C23.7096 70.9996 20.5192 70.6211 18.1495 68.5556C15.6681 66.3929 14.7015 62.7675 15.7988 59.7396C16.9438 56.5814 20.0039 54.6859 24.2243 54.5034C24.995 53.9222 27.5106 51.5341 26.0489 45.9519C25.8802 45.3078 26.2615 44.6484 26.9032 44.4735C42.3857 40.2578 52.8121 32.079 58.7768 19.4693C58.9694 19.0625 59.3707 18.7958 59.8198 18.7763C60.2662 18.76 60.692 18.9881 60.9182 19.377C66.2971 28.6106 74.2301 32.2468 85.1728 30.493C85.7792 30.3958 86.3634 30.7695 86.5304 31.362C86.5408 31.3973 87.6483 35.1052 91.163 36.8758C94.8475 35.0808 98.3497 35.2665 100.844 37.4124C103.284 39.5116 104.218 43.1456 103.116 46.2495C102.063 49.2134 99.4681 51.1105 95.8916 51.5895C97.1657 58.3291 94.8616 64.8645 89.1757 70.5738C83.9161 75.8551 76.1035 80.054 67.1763 82.3976C62.3631 83.6614 57.5673 84.2958 53.0459 84.2958H53.047ZM27.8203 66.7578C27.9863 66.7578 28.1523 66.7915 28.3074 66.8605C28.6464 67.0093 28.8981 67.3053 28.9925 67.6638C31.0942 75.6922 37.6995 79.1117 42.8701 80.5673C49.6321 82.4698 58.0462 82.2868 66.5628 80.0513C75.0789 77.8158 82.5005 73.8418 87.4606 68.8613C91.2536 65.053 95.3335 58.8277 93.2312 50.7998C93.1373 50.4414 93.2122 50.0601 93.4346 49.7635C93.6569 49.4675 94.0019 49.2889 94.3718 49.2791C97.6896 49.1916 99.9845 47.8273 100.833 45.437C101.608 43.2569 100.963 40.7141 99.2658 39.2536C97.4233 37.6688 94.7596 37.6834 91.7651 39.2943C91.4418 39.4681 91.0578 39.4861 90.7204 39.3432C87.0256 37.7807 85.265 34.6523 84.5724 33.0348C83.0488 33.2385 81.5724 33.3406 80.1476 33.3406C71.619 33.3406 64.8624 29.6968 59.9918 22.463C53.7337 34.3487 43.4553 42.2304 28.6583 46.5021C30.081 53.919 25.4121 56.646 25.2022 56.7638C25.0281 56.8616 24.8323 56.9154 24.6327 56.9192C21.2335 56.9871 18.9056 58.283 18.0768 60.569C17.3131 62.6752 17.9976 65.2078 19.7403 66.7269C21.6512 68.3926 24.3197 68.454 27.2535 66.9001C27.4304 66.8067 27.6251 66.7595 27.8198 66.7595L27.8203 66.7578Z" fill="#380076"/>
<g opacity="0.3">
<path d="M61.1981 15.5941L59.9484 20.115C59.9235 20.0749 59.898 20.0314 59.8725 19.988C53.3551 33.7653 41.9074 41.6444 27.2216 45.6434C29.1823 53.1314 24.6089 55.7042 24.6089 55.7042C22.5261 55.7455 20.8832 56.2093 19.6444 56.9463C25.4697 51.98 18.9463 47.2956 18.9463 47.2956C15.1615 45.1427 17.5513 41.967 17.5513 41.967C42.5263 38.7327 60.9367 15.9194 61.1981 15.593V15.5941Z" fill="#380076"/>
</g>
<g opacity="0.3">
<path d="M96.5024 36.8845C94.9761 36.7694 93.1894 37.1485 91.1913 38.2249C86.6634 36.3099 85.3649 31.6912 85.3649 31.6912C73.2609 33.6323 65.2205 29.0847 59.9479 20.1156L61.3207 15.1607C61.3207 15.1607 70.5625 32.1153 87.42 27.69C87.42 27.69 88.8454 35.6087 96.5024 36.8845Z" fill="#380076"/>
</g>
<path d="M23.7823 66.5036C23.727 66.5036 23.6706 66.4982 23.6141 66.4874C23.145 66.395 22.8396 65.9393 22.9318 65.4701C23.248 63.8581 24.265 62.9288 25.0867 62.4259C24.0654 61.4961 22.9134 61.735 22.7615 61.772C22.3005 61.8833 21.8308 61.6041 21.7141 61.143C21.5981 60.6825 21.8698 60.2148 22.3287 60.0937C23.376 59.8184 25.7387 59.9216 27.1885 62.2906C27.3312 62.5231 27.3556 62.8093 27.2552 63.063C27.1549 63.3166 26.9412 63.5083 26.6787 63.58C26.6147 63.5985 24.9663 64.0927 24.6306 65.8046C24.5498 66.218 24.1875 66.5042 23.7823 66.5042V66.5036Z" fill="#380076"/>
<path d="M96.6813 47.3651C96.4367 47.3651 96.1937 47.2619 96.0228 47.0615C94.8908 45.7341 93.2121 46.1138 93.1422 46.1306C92.878 46.1925 92.5992 46.1295 92.3904 45.9573C92.1816 45.7857 92.0617 45.5267 92.072 45.2562C92.1751 42.4797 94.183 41.2278 95.2304 40.9536C95.6936 40.833 96.166 41.11 96.2864 41.5733C96.4068 42.0338 96.1329 42.5053 95.6746 42.6291C95.5189 42.6731 94.4032 43.0326 93.9699 44.341C94.9315 44.3758 96.2734 44.6859 97.3386 45.9351C97.6489 46.299 97.606 46.8459 97.2426 47.1571C97.0799 47.2967 96.8798 47.3646 96.6813 47.3646V47.3651Z" fill="#380076"/>
<path d="M90.2865 119.443C90.0581 119.443 89.8271 119.379 89.6221 119.244C89.0628 118.876 88.9077 118.124 89.2749 117.564C90.3011 116.001 90.1813 114.311 89.9003 113.169C89.3216 110.816 87.5181 108.502 85.3073 107.274C82.0676 105.475 62.8002 103.015 55.6499 102.219C55.3933 102.191 55.1525 102.08 54.9627 101.905C46.7981 94.3664 38.6871 97.6729 38.346 97.8168C37.7309 98.0775 37.0198 97.7908 36.7579 97.1759C36.4959 96.5611 36.7779 95.8507 37.3914 95.5862C37.7851 95.4162 47.0497 91.5633 56.3084 99.8503C60.3535 100.307 82.3914 102.879 86.4827 105.151C89.2982 106.715 91.5096 109.565 92.2532 112.589C92.8216 114.899 92.4919 117.08 91.2997 118.896C91.067 119.251 90.6803 119.443 90.2859 119.443H90.2865Z" fill="#380076"/>
<path d="M55.5994 102.059C55.4703 102.059 55.339 102.038 55.2094 101.994C54.5759 101.779 54.2369 101.09 54.4522 100.456C54.5151 100.27 56.0116 95.8773 57.6513 92.712C57.9593 92.1173 58.6905 91.8854 59.2844 92.1933C59.8783 92.5018 60.1105 93.2339 59.8024 93.8286C58.249 96.8288 56.7617 101.192 56.7471 101.236C56.5757 101.741 56.1044 102.059 55.5999 102.059H55.5994Z" fill="#380076"/>
<path d="M85.1983 107.108C85.0405 107.108 84.8805 107.078 84.7259 107.012C84.1097 106.751 83.8217 106.039 84.0826 105.422C84.2931 104.924 84.3636 104.173 84.0452 103.619C83.8022 103.196 83.3368 102.938 82.6621 102.852C80.9481 102.63 78.9332 104.253 78.3024 104.896C77.8348 105.374 77.0679 105.383 76.59 104.915C76.1122 104.448 76.1013 103.682 76.5672 103.202C76.6936 103.073 79.6925 100.027 82.9691 100.444C84.7969 100.678 85.706 101.643 86.1464 102.41C86.928 103.772 86.7452 105.348 86.314 106.368C86.1182 106.83 85.6697 107.108 85.1978 107.108L85.1983 107.108Z" fill="#380076"/>
<path d="M85.1951 105.895L77.4579 104.05C80.792 104.657 83.6406 105.288 85.1951 105.895Z" fill="#380076"/>
<path d="M98.3654 100.724C97.8669 100.724 97.3999 100.414 97.2236 99.9165C97.1992 99.8475 94.7454 92.9569 92.6751 88.978C92.366 88.3839 92.5959 87.6512 93.1899 87.3416C93.7838 87.0315 94.5149 87.2629 94.8241 87.8565C96.973 91.9858 99.4046 98.8151 99.5071 99.104C99.7311 99.7356 99.4019 100.429 98.7711 100.654C98.6371 100.701 98.4999 100.724 98.3654 100.724Z" fill="#380076"/>
<path d="M109.901 80.5162C109.781 80.5162 109.659 80.4983 109.539 80.4603C98.6854 77.0571 95.7695 61.1539 95.6508 60.4788C95.5347 59.8189 95.9751 59.1894 96.6336 59.0738C97.2937 58.9564 97.9207 59.398 98.0367 60.0573C98.0633 60.2083 100.819 75.1838 110.262 78.1449C110.901 78.3454 111.256 79.0259 111.056 79.6651C110.894 80.1838 110.416 80.5162 109.9 80.5162H109.901Z" fill="#380076"/>
<path d="M70.6932 89.7178C63.763 89.7178 60.2809 83.2742 60.1263 82.9809C59.8139 82.3883 60.0406 81.6546 60.6324 81.3412C61.223 81.0289 61.9547 81.2543 62.2682 81.8452C62.4033 82.0972 65.6343 88.0183 71.875 87.2134C77.1688 86.5318 77.5767 82.1162 77.5425 77.2596C77.5409 77.0413 77.5398 76.8317 77.5392 76.6323C77.5392 75.9621 78.0806 75.4185 78.7499 75.4179H78.751C79.4197 75.4179 79.9621 75.9605 79.9627 76.6302C79.9627 76.8251 79.9643 77.0299 79.9659 77.2428C79.9919 80.9317 80.0456 88.6087 72.1842 89.6205C71.6711 89.6868 71.1737 89.7178 70.6932 89.7178Z" fill="#380076"/>
<path d="M106.573 119.443H30.3966C29.7273 119.443 29.1849 118.9 29.1849 118.23C29.1849 117.559 29.7273 117.016 30.3966 117.016H106.573C107.243 117.016 107.785 117.559 107.785 118.23C107.785 118.9 107.243 119.443 106.573 119.443H106.573Z" fill="#380076"/>
<g opacity="0.3">
<path d="M128.369 46.9485L98.3643 99.5086C101.48 106.674 103.789 118.228 103.789 118.228H42.5132C40.5503 113.493 51.3997 113.839 71.7665 112.914C90.7448 112.051 86.9888 107.194 86.3862 106.536L89.8482 110.023C99.9709 104.185 88.9034 85.6427 88.9034 85.6427C94.3284 88.4159 96.5023 81.3683 96.5023 81.3683L124.101 40.7781C133.147 30.3817 128.972 22.3223 127.746 20.4186C128.314 20.5783 128.871 20.814 129.398 21.129C136.183 25.178 139.905 31.5879 128.369 46.948L128.369 46.9485Z" fill="#380076"/>
</g>
<g opacity="0.3">
<path d="M60.6567 101.618L56.6739 100.845L51.0895 97.6978C51.0895 97.6978 53.22 92.8081 59.464 88.908C59.464 88.908 62.3327 100.925 71.7665 103.756" fill="#380076"/>
</g>
</g>
<defs>
<clipPath id="clip0_275_1604">
<rect width="137" height="140" fill="white"/>
</clipPath>
</defs>
</svg>
