<svg width="152" height="152" viewBox="0 0 152 152" fill="none" xmlns="http://www.w3.org/2000/svg">
<path d="M77.3358 82.0859C77.2081 82.0859 77.0805 82.0622 76.9617 82.0176C75.0053 81.2665 73.9484 80.4294 73.8237 79.5328C73.7525 79.0133 73.9692 78.5205 74.4205 78.182C75.5308 77.3478 78.3333 77.1014 79.5891 77.7308C80.4441 78.1583 80.5361 78.8589 80.5361 79.1409C80.5361 80.7292 78.3867 81.7386 77.7306 82.0087C77.6059 82.0592 77.4723 82.0859 77.3358 82.0859ZM76.5609 79.5476C76.7747 79.6634 77.03 79.7911 77.312 79.9128C77.603 79.7644 77.8583 79.604 78.0542 79.4615C77.5881 79.423 77.03 79.4645 76.5609 79.5476Z" fill="#351919"/>
<path d="M69.9763 95.763C53.8025 95.763 43.4534 89.6296 41.5772 78.9361C40.452 72.5118 41.4228 62.7268 47.5266 54.53C52.7219 47.5535 60.6544 43.2547 70.4691 42.0999C71.1459 42.0197 87.1772 40.2325 96.9473 48.1769C101.76 52.0897 105.551 58.0154 107.344 64.4308C109.235 71.1907 108.698 77.5082 105.833 82.2196C100.551 90.9061 90.71 94.9347 72.9272 95.6947C71.9327 95.7422 70.9381 95.763 69.9763 95.763ZM74.9608 43.9732C72.4136 43.9732 70.7303 44.1632 70.7125 44.1632C61.4797 45.2497 54.04 49.2635 49.195 55.771C43.4861 63.4393 42.5747 72.58 43.6256 78.5769C44.4658 83.3625 47.1733 87.1091 51.6769 89.7127C56.2369 92.3489 62.3941 93.6849 69.9763 93.6849C69.9792 93.6849 69.9822 93.6849 69.9852 93.6849C70.9114 93.6849 71.8703 93.6641 72.8381 93.6225C89.8431 92.8952 99.1798 89.1635 104.058 81.1419C109.277 72.5622 105.263 57.6175 95.6381 49.7889C89.4156 44.7302 80.0136 43.9732 74.9608 43.9732Z" fill="#351919"/>
<path d="M55.7055 49.1328C55.5125 49.1328 55.3255 49.0794 55.1622 48.9785C55.0554 48.9132 44.2105 42.1325 41.0874 30.0319C39.1191 22.4081 40.5055 13.7691 44.6143 8.02752C47.2179 4.38784 50.6319 2.30971 54.4824 2.01877C59.3304 1.64768 63.7182 3.50612 66.5177 7.11315C69.3766 10.7944 70.1722 15.681 68.6493 20.1816L68.2129 21.47C65.5172 29.3877 62.1625 39.238 65.5529 43.5041C65.9091 43.9524 65.8349 44.6085 65.3866 44.9647C64.9383 45.321 64.2822 45.2467 63.926 44.7985C59.8291 39.6447 63.3857 29.1977 66.2446 20.8021L66.681 19.5166C67.9813 15.678 67.3044 11.5188 64.876 8.38971C62.5129 5.34377 58.7811 3.77627 54.6397 4.09096C51.4216 4.3344 48.539 6.11565 46.3035 9.23877C42.5361 14.5024 41.2774 22.4616 43.0972 29.5153C45.9977 40.7521 56.1479 47.1497 56.2488 47.2121C56.7357 47.5119 56.89 48.1531 56.5902 48.64C56.4002 48.9488 56.0707 49.1328 55.7055 49.1328Z" fill="#351919"/>
<path d="M83.8256 44.6797C83.4277 44.6797 83.0596 44.4482 82.8904 44.0919C82.8132 43.9316 81.0438 40.093 84.7013 33.5885C86.5034 30.3852 89.3445 28.8207 92.0935 27.3096C94.899 25.7658 97.5471 24.3082 99.0493 21.1791C100.572 18.0114 100.736 14.8408 99.5065 12.2461C98.2834 9.66331 95.7688 7.84644 92.2331 6.98847C84.2827 5.06175 77.5645 10.5955 74.2632 21.7936C70.864 33.3272 74.4443 42.2602 74.4799 42.3492C74.6996 42.8777 74.4473 43.4863 73.9188 43.706C73.3904 43.9257 72.7788 43.6733 72.5592 43.1478C72.5206 43.0528 68.6463 33.4935 72.2682 21.2058C75.9198 8.82019 83.5643 2.74909 92.7229 4.96675C96.8881 5.97613 99.8806 8.18488 101.383 11.3555C102.885 14.5261 102.722 18.335 100.92 22.0786C99.1295 25.8044 96.0598 27.4936 93.094 29.1264C90.4845 30.5633 88.0234 31.92 86.5123 34.6068C83.4307 40.0841 84.7518 43.1657 84.7667 43.1983C85.0101 43.706 84.7934 44.3294 84.2768 44.5758C84.1343 44.6441 83.9829 44.6797 83.8256 44.6797Z" fill="#351919"/>
<path d="M80.6431 44.1721C80.1117 44.1721 79.6693 43.7743 79.6099 43.2488C78.562 33.8111 85.1496 25.4066 89.8343 22.0578C91.8471 20.621 92.9753 18.6052 92.8506 16.6666C92.7615 15.301 92.0282 14.1521 90.8378 13.5138C89.6918 12.8993 88.2223 12.9082 86.6963 13.5405C83.5079 14.8586 80.7796 18.5666 79.2151 23.7144C76.282 33.3718 77.704 42.3641 77.7188 42.4532C77.7634 42.7263 77.701 43.0024 77.5407 43.228C77.3804 43.4536 77.1399 43.6021 76.8668 43.6496C76.3028 43.7416 75.7654 43.3586 75.6704 42.7946C75.6556 42.7025 74.1356 33.2916 77.229 23.1088C78.9746 17.3643 82.1363 13.1753 85.9037 11.6168C88.0145 10.7439 90.1163 10.7677 91.8204 11.6791C93.6581 12.6647 94.7892 14.4311 94.9257 16.53C95.0979 19.19 93.6462 21.8886 91.0426 23.7471C86.919 26.6921 80.7321 34.5266 81.6732 43.0172C81.7029 43.2933 81.6257 43.5635 81.4506 43.7802C81.2754 43.9969 81.029 44.1335 80.7529 44.1632C80.7203 44.1691 80.6817 44.1721 80.6431 44.1721Z" fill="#351919"/>
<path d="M58.2497 47.6069C57.9766 47.6069 57.7183 47.5 57.5224 47.31C57.4392 47.2299 49.382 39.1935 47.1822 28.8444C45.5464 21.1435 47.58 15.3307 50.0292 12.4599C51.5878 10.6311 53.5324 9.68113 55.5036 9.7791C57.6797 9.89192 59.4253 10.8479 60.5535 12.5489C62.311 15.1971 62.3377 19.4246 60.6277 24.1479C58.2111 30.8216 58.5763 41.5121 62.4445 44.4719C62.6642 44.6411 62.8067 44.8846 62.8424 45.1607C62.878 45.4368 62.8067 45.7099 62.6375 45.9296C62.4713 46.1493 62.2249 46.2918 61.9517 46.3274C61.6756 46.366 61.4025 46.2918 61.1828 46.1225C56.4536 42.5066 55.9519 30.9611 58.6742 23.4413C60.1586 19.3414 60.212 15.7908 58.8227 13.6979C58.0716 12.5668 56.887 11.9314 55.3997 11.8543C54.0935 11.786 52.7456 12.4807 51.6145 13.8077C49.486 16.3014 47.7374 21.4493 49.2188 28.4139C51.285 38.1307 58.9058 45.7544 58.983 45.8286C59.1819 46.0216 59.2917 46.2829 59.2917 46.5619C59.2947 46.838 59.1878 47.1022 58.9919 47.2982C58.796 47.4971 58.5317 47.6069 58.2497 47.6069Z" fill="#351919"/>
<path d="M53.9243 128.143C53.7017 128.143 53.4879 128.075 53.3098 127.941L31.8071 112.165C31.5667 111.99 31.4153 111.717 31.3856 111.423C31.3589 111.126 31.4598 110.832 31.6646 110.616L37.899 103.998C38.2167 103.663 38.7243 103.577 39.134 103.791L64.3268 116.895C64.6267 117.049 64.8315 117.343 64.876 117.675C64.9206 118.008 64.8018 118.346 64.5554 118.575L54.6309 127.864C54.4409 128.045 54.1885 128.143 53.9243 128.143ZM33.9862 111.186L53.8471 125.756L62.0706 118.061L38.8787 105.996L33.9862 111.186Z" fill="#351919"/>
<path d="M73.1381 130.052C72.8264 130.052 72.5355 129.915 72.3395 129.675L63.0533 118.48C62.8128 118.192 62.7475 117.794 62.8811 117.444C63.0147 117.093 63.3294 116.841 63.7005 116.788L110.141 109.918C110.485 109.87 110.829 109.992 111.061 110.245L120.35 120.424C120.605 120.706 120.689 121.104 120.564 121.463C120.439 121.823 120.13 122.087 119.756 122.149L73.3162 130.037C73.2539 130.049 73.1945 130.052 73.1381 130.052ZM65.8291 118.575L73.5567 127.888L117.53 120.418L109.897 112.055L65.8291 118.575ZM119.264 121.003C119.264 121.009 119.261 121.012 119.258 121.018C119.255 121.024 119.255 121.027 119.252 121.03L119.281 121.024L119.264 121.003ZM64.1309 117.925L64.1398 117.934C64.1398 117.931 64.1398 117.931 64.1428 117.928C64.1428 117.925 64.1458 117.925 64.1458 117.922L64.1309 117.925Z" fill="#351919"/>
<path d="M52.1431 112.112C52.1372 112.112 52.1164 112.112 52.1104 112.112C51.5434 112.097 51.0892 111.619 51.104 111.046L51.202 107.258C48.1858 107.439 41.1112 107.109 39.4309 100.382C38.4809 96.5882 38.8223 93.667 40.4373 91.7047C42.1503 89.6265 45.2497 88.6854 49.6523 88.914C50.2253 88.9437 50.6647 89.4336 50.635 90.0065C50.6053 90.5765 50.1154 91.0159 49.5454 90.9892C45.8345 90.7962 43.3081 91.482 42.0375 93.0258C40.8618 94.4537 40.6629 96.7575 41.4408 99.8776C43.0943 106.489 51.7304 105.144 52.0956 105.085C52.4014 105.034 52.7131 105.12 52.9476 105.325C53.1822 105.53 53.3128 105.824 53.3039 106.136L53.1762 111.1C53.1673 111.67 52.7131 112.112 52.1431 112.112Z" fill="#351919"/>
<path d="M101.255 112.878C100.768 112.878 100.341 112.53 100.24 112.052L98.7138 104.8C98.6544 104.515 98.7168 104.218 98.886 103.98C99.0552 103.743 99.3194 103.589 99.6074 103.553C99.6549 103.547 104.636 102.894 107.623 99.6788C109.096 98.0934 109.829 96.0569 109.639 94.0856C109.455 92.1945 108.431 90.4845 106.756 89.2644C103.22 86.6934 98.3249 89.8908 98.2774 89.9234C97.8054 90.2411 97.1552 90.1164 96.8376 89.6414C96.5169 89.1664 96.6446 88.5192 97.1196 88.1986C97.369 88.0323 103.253 84.1433 107.982 87.5841C110.143 89.1575 111.468 91.393 111.711 93.8837C111.96 96.4428 111.025 99.0702 109.152 101.092C106.545 103.897 102.909 105.008 100.976 105.42L102.282 111.622C102.339 111.892 102.288 112.171 102.137 112.403C101.985 112.634 101.751 112.795 101.481 112.851C101.401 112.869 101.326 112.878 101.255 112.878Z" fill="#351919"/>
<path d="M110.289 111.987C110.12 111.987 109.951 111.946 109.802 111.865L99.7499 106.522C99.5035 106.391 99.3254 106.174 99.2452 105.907C99.165 105.64 99.1918 105.361 99.3224 105.115C99.453 104.868 99.6697 104.69 99.9369 104.61C100.201 104.53 100.483 104.556 100.73 104.687L110.022 109.627L117.153 100.792L109.998 97.6481C109.743 97.5353 109.55 97.3334 109.449 97.0752C109.348 96.8169 109.354 96.5348 109.467 96.2795C109.576 96.0272 109.781 95.8312 110.04 95.7303C110.298 95.6294 110.58 95.6353 110.835 95.7481L119.231 99.4383C119.525 99.5659 119.744 99.8302 119.822 100.142C119.899 100.454 119.822 100.792 119.62 101.041L111.096 111.601C110.898 111.845 110.604 111.987 110.289 111.987Z" fill="#351919"/>
<path d="M39.1667 105.753C38.7689 105.753 38.4008 105.521 38.2286 105.162L32.3772 92.9486C32.2347 92.6546 32.2436 92.3043 32.395 92.0134C32.5464 91.7225 32.8314 91.5206 33.155 91.4701L41.4259 90.1965C41.699 90.152 41.9751 90.2203 42.1978 90.3865C42.4205 90.5498 42.5689 90.7932 42.6105 91.0664C42.652 91.3395 42.5867 91.6156 42.4205 91.8382C42.2542 92.0609 42.0137 92.2093 41.7406 92.2509L34.8561 93.3107L40.1048 104.262C40.2236 104.512 40.2414 104.794 40.1494 105.055C40.0573 105.316 39.8673 105.527 39.618 105.646C39.4755 105.717 39.324 105.753 39.1667 105.753Z" fill="#351919"/>
<path d="M65.1224 150.029C64.9443 150.029 64.7691 149.984 64.6147 149.898L39.8049 136.028C39.4961 135.856 39.2972 135.538 39.2735 135.185L38.1275 116.61C38.1097 116.333 38.2018 116.066 38.3858 115.858C38.5699 115.651 38.8222 115.526 39.1013 115.508C39.3774 115.49 39.6446 115.582 39.8524 115.766C40.0602 115.951 40.1849 116.206 40.2027 116.482L41.313 134.49L64.0061 147.176L62.8097 117.859C62.7979 117.583 62.8958 117.316 63.0829 117.114C63.2699 116.909 63.5282 116.791 63.8043 116.782C64.0774 116.77 64.3416 116.865 64.5494 117.052C64.7543 117.239 64.876 117.497 64.8849 117.776L66.1585 148.948C66.1733 149.322 65.9833 149.678 65.6627 149.874C65.5024 149.975 65.3154 150.029 65.1224 150.029ZM64.9472 148.723L64.9621 148.731V148.714C64.9591 148.714 64.9591 148.717 64.9561 148.717C64.9532 148.717 64.9502 148.72 64.9472 148.723Z" fill="#351919"/>
<path d="M65.1195 150.029C64.6089 150.029 64.1665 149.646 64.0923 149.141C64.0507 148.868 64.122 148.592 64.2853 148.369C64.4515 148.147 64.692 148.001 64.9681 147.963L110.749 141.226L110.265 122.681C110.25 122.108 110.705 121.63 111.278 121.615C111.539 121.609 111.809 121.707 112.011 121.894C112.216 122.084 112.334 122.351 112.343 122.627L112.851 142.093C112.866 142.619 112.483 143.073 111.963 143.147L65.2679 150.017C65.2234 150.026 65.1729 150.029 65.1195 150.029Z" fill="#351919"/>
<path d="M101.695 111.767C101.695 111.759 101.695 111.753 101.692 111.744L100.537 106.266L108.882 110.705L101.695 111.767Z" fill="#EDA16E"/>
<path d="M118.1 100.561L110.173 110.381L100.448 105.21C100.403 105.186 100.356 105.171 100.308 105.165L100.264 104.954C101.68 104.705 105.874 103.74 108.71 100.691C109.636 99.6937 110.316 98.5358 110.719 97.3157L118.1 100.561Z" fill="#FFC299"/>
<path d="M73.6903 21.6273C77.0925 10.0878 84.075 4.39966 92.3697 6.41247C96.0836 7.312 98.7347 9.24169 100.038 11.9937C101.344 14.7517 101.181 18.1064 99.5808 21.4373C97.9955 24.7356 95.2672 26.2378 92.3756 27.829C89.7008 29.3015 86.9339 30.8245 85.215 33.8793C82.5728 38.5759 82.8519 41.7584 83.1814 43.1092C82.463 42.9875 81.7534 42.8895 81.0587 42.8064C80.2512 34.1703 86.5094 26.2556 90.6953 23.2631C93.1297 21.5234 94.4864 19.0208 94.329 16.5686C94.2073 14.6804 93.189 13.0892 91.5354 12.2015C89.9917 11.3733 88.0709 11.3614 86.1264 12.1629C82.5312 13.6562 79.4942 17.7056 77.799 23.2809C75.0084 32.4692 76.0237 41.0251 76.2256 42.4768C75.3706 42.459 74.5869 42.465 73.8892 42.4828C73.5122 41.4912 70.4039 32.7868 73.6903 21.6273Z" fill="#FFF0F0"/>
<path d="M77.1311 42.5036C77.0242 41.8029 75.7744 33.0154 78.6511 23.5422C80.2661 18.2251 83.1191 14.3776 86.4738 12.9912C88.1659 12.2906 89.8166 12.2906 91.1199 12.9912C92.4974 13.7275 93.3435 15.0545 93.4444 16.6279C93.5809 18.7714 92.3608 20.9831 90.1817 22.5417C85.69 25.7509 79.4081 33.719 80.1592 42.7114C79.0964 42.6045 78.0811 42.5392 77.1311 42.5036Z" fill="#FFC7C7"/>
<path d="M42.5244 29.6608C40.663 22.4438 41.9574 14.2916 45.8227 8.89141C48.1621 5.61984 51.1961 3.75547 54.5983 3.49719C58.9416 3.16766 62.8603 4.81531 65.3481 8.02156C67.9013 11.308 68.6108 15.675 67.2482 19.7036L66.8117 20.9891C64.0805 29.0106 60.7021 38.9381 64.0805 43.988C63.3175 44.2106 62.5694 44.457 61.8361 44.7242C57.9055 41.2923 57.6235 30.6998 60.0727 23.94C61.7174 19.3948 61.7144 15.3603 60.0638 12.8725C59.0425 11.3347 57.4572 10.4678 55.48 10.3669C53.7017 10.2778 51.9264 11.1536 50.4896 12.8398C48.1324 15.6037 46.1789 21.2266 47.7702 28.7167C49.7058 37.8278 56.243 45.0983 57.665 46.5945C57.0446 46.927 56.4389 47.2803 55.8511 47.6514C54.8299 46.9983 45.3477 40.6095 42.5244 29.6608Z" fill="#FFF0F0"/>
<path d="M58.4844 46.17C57.6858 45.3536 50.6321 37.9377 48.6341 28.5326C47.1082 21.3572 48.9399 16.0223 51.1605 13.4187C52.4163 11.9492 53.9244 11.1803 55.4296 11.2575C57.1158 11.3436 58.4607 12.0739 59.3186 13.3653C60.8119 15.6156 60.7822 19.3592 59.2325 23.6372C56.7091 30.6108 56.9792 41.0905 60.9128 45.0805C60.0816 45.4159 59.2711 45.7781 58.4844 46.17Z" fill="#FFC7C7"/>
<path d="M43.0409 78.6808C41.9692 72.5622 42.8984 63.2344 48.7202 55.4177C51.9828 51.0388 56.3914 47.7672 61.7084 45.7277C61.8747 45.7692 62.0558 45.7099 62.1686 45.5674C62.1716 45.5644 62.1745 45.5585 62.1745 45.5555C64.793 44.5966 67.6252 43.9316 70.6444 43.5753C70.6948 43.5694 72.3841 43.3794 74.9609 43.3794C80.3789 43.3794 89.7216 44.2136 96.0123 49.3288C105.848 57.3266 109.924 72.6394 104.565 81.4506C99.5719 89.6622 90.0927 93.48 72.865 94.2163C71.8823 94.2578 70.9205 94.2786 69.9794 94.2786C54.5508 94.2786 44.7925 88.6736 43.0409 78.6808Z" fill="#FFF0F0"/>
<path d="M49.5752 90.3984C49.6702 90.4014 49.7592 90.3776 49.8334 90.3301C54.6369 93.4918 61.4709 95.1722 69.9734 95.1722C70.9264 95.1722 71.9031 95.1514 72.8977 95.1098C84.0067 94.6348 91.9659 92.8803 97.6244 89.5048C97.7313 89.5197 97.8441 89.4989 97.9391 89.4365C97.9925 89.4009 103.206 85.9601 107.098 88.7923C108.912 90.1104 110.022 91.9748 110.221 94.0351C110.301 94.8456 110.233 95.6679 110.037 96.4665C110.025 96.4843 110.013 96.5022 110.004 96.5229C109.977 96.5853 109.965 96.6506 109.968 96.7159C109.624 97.9331 108.971 99.0968 108.051 100.088C104.898 103.485 99.7233 104.141 99.6728 104.147C99.5481 104.162 99.4353 104.227 99.3641 104.331C99.2899 104.432 99.2631 104.559 99.2899 104.681L100.81 111.901L63.9261 117.355L52.4578 111.387C52.535 111.31 52.5855 111.203 52.5884 111.085L52.7161 106.124C52.7191 105.99 52.6627 105.863 52.5617 105.777C52.4608 105.69 52.3272 105.652 52.1966 105.673C51.8077 105.738 42.655 107.166 40.8678 100.023C40.0395 96.71 40.28 94.2281 41.5803 92.6487C42.9786 90.9536 45.6713 90.1965 49.5752 90.3984Z" fill="#FFF0F0"/>
<path d="M41.2092 91.7344C41.0994 91.8472 40.9955 91.963 40.8945 92.0847C39.4042 93.8956 39.1044 96.6388 40.0039 100.243C41.7258 107.133 49.6701 106.83 51.8106 106.62L51.6978 110.999L39.6091 104.711C39.6091 104.648 39.5942 104.586 39.5675 104.524L33.9744 92.8506L41.2092 91.7344Z" fill="#EDA16E"/>
<path d="M38.7511 105.263L63.0859 117.922L53.8917 126.528L33.0927 111.266L38.7511 105.263Z" fill="#EDA16E"/>
<path d="M40.7402 134.85L39.6506 117.182L53.6602 127.463C53.7403 127.52 53.8324 127.549 53.9244 127.549C54.0342 127.549 54.1441 127.508 54.2302 127.431L63.4452 118.806L64.6445 148.212L40.7402 134.85Z" fill="#EDA16E"/>
<path d="M111.361 141.734L65.547 148.476L64.3477 119.115L72.7937 129.298C72.8798 129.402 73.0045 129.458 73.1352 129.458C73.1589 129.458 73.1856 129.455 73.2094 129.452L110.871 123.055L111.361 141.734Z" fill="#FFC299"/>
<path d="M73.3163 128.532L64.698 118.141L110.12 111.423L118.7 120.822L73.3163 128.532Z" fill="#FFC299"/>
<path d="M77.1757 81.4625C77.2261 81.4833 77.2825 81.4922 77.336 81.4922C77.3924 81.4922 77.4518 81.4804 77.5052 81.4596C77.9119 81.2933 79.9425 80.3908 79.9425 79.138C79.9425 78.9243 79.8624 78.5265 79.3221 78.2593C78.2622 77.7308 75.715 77.9505 74.7769 78.6541C74.4028 78.9361 74.388 79.2716 74.4117 79.4497C74.5394 80.3552 76.386 81.1597 77.1757 81.4625Z" fill="#FF9F9F"/>
<path d="M78.5709 78.939C78.9153 79.0162 79.04 79.1201 79.0548 79.1409C79.0548 79.5773 78.0989 80.2185 77.33 80.5659C76.3681 80.177 75.4685 79.6396 75.3171 79.3665C75.8812 78.9449 77.5823 78.7193 78.5709 78.939Z" fill="#FF9F9F"/>
<path d="M59.3958 115.502C59.3958 115.502 60.1884 100.958 74.8065 99.5274C89.4247 98.0964 94.8931 106.875 95.659 112.346V113.112L63.8518 117.818" fill="#FFCCCC"/>
<path d="M96.5467 84.8231C93.4681 84.8231 91.1881 82.3056 91.0545 79.3309C90.9209 76.3652 93.673 73.8387 96.5467 73.8387C99.6253 73.8387 101.905 76.3562 102.039 79.3309C102.173 82.2967 99.4205 84.8231 96.5467 84.8231ZM62.7267 82.7658C62.5931 79.7911 60.3131 77.2736 57.2345 77.2736C54.3608 77.2736 51.6088 79.8 51.7423 82.7658C51.8759 85.7405 54.1559 88.258 57.2345 88.258C60.1053 88.258 62.8573 85.7316 62.7267 82.7658Z" fill="#FF9F9F"/>
<path d="M97.8915 76.8907C97.8291 76.9976 97.7371 77.051 97.6243 77.0955C97.6183 77.0985 97.5233 77.1401 97.5886 77.1104C97.651 77.0807 97.5649 77.1193 97.553 77.1252C97.5085 77.146 97.464 77.1638 97.4224 77.1846C97.3393 77.2232 97.2591 77.2648 97.179 77.3093C97.0127 77.3984 96.8524 77.4963 96.698 77.6032C96.6594 77.6299 96.6179 77.6596 96.5793 77.6863C96.5615 77.7012 96.5407 77.716 96.5229 77.7279C96.4486 77.7873 96.3774 77.8466 96.3061 77.909C96.1666 78.0337 96.033 78.1643 95.9054 78.3038C95.7361 78.4879 95.4482 78.4612 95.276 78.3038C95.0949 78.1376 95.1186 77.8466 95.276 77.6745C95.8608 77.0362 96.5882 76.5582 97.3897 76.2376C97.6213 76.1455 97.8707 76.3415 97.939 76.5493C97.9686 76.6562 97.9449 76.7957 97.8915 76.8907ZM99.5807 78.1168C99.459 77.9298 99.174 77.811 98.9721 77.9565C98.1557 78.5443 97.3393 79.1321 96.5229 79.7199C96.3329 79.8565 96.223 80.1148 96.3625 80.3285C96.4843 80.5155 96.7693 80.6343 96.9711 80.4888C97.7876 79.901 98.604 79.3132 99.4204 78.7254C99.6074 78.5888 99.7172 78.3335 99.5807 78.1168ZM58.0449 81.1241C57.9766 80.9074 57.7332 80.7293 57.4957 80.8124C56.5813 81.139 55.7471 81.6318 55.0227 82.276C54.8475 82.4304 54.8535 82.751 55.0227 82.9054C55.2097 83.0776 55.4651 83.0716 55.6521 82.9054C55.7293 82.8371 55.8094 82.7688 55.8896 82.7035C55.9104 82.6857 55.9311 82.6709 55.9519 82.653C55.9608 82.6471 55.9638 82.6441 55.9697 82.6382C56.0113 82.6055 56.0529 82.5759 56.0944 82.5432C56.2696 82.4155 56.4477 82.2968 56.6347 82.1869C56.8158 82.0801 56.9999 81.9821 57.1869 81.893C57.2344 81.8693 57.2819 81.8485 57.3294 81.8277C57.3591 81.8159 57.3888 81.801 57.4185 81.7891C57.4215 81.7891 57.4215 81.7891 57.4215 81.7891C57.5254 81.7476 57.6293 81.709 57.7332 81.6704C57.9529 81.5932 58.1221 81.3646 58.0449 81.1241ZM59.5293 83.3062C59.3927 83.0924 59.1433 83.036 58.9207 83.1459C58.2854 83.4635 57.6471 83.7812 57.0118 84.0988C56.804 84.2027 56.7268 84.5144 56.8515 84.7074C56.988 84.9212 57.2374 84.9776 57.4601 84.8677C58.0954 84.5501 58.7336 84.2324 59.369 83.9148C59.5768 83.8109 59.651 83.4991 59.5293 83.3062Z" fill="white"/>
<path d="M92.6042 76.2553C88.7775 76.2553 88.7834 70.3178 92.6042 70.3178C96.4309 70.3178 96.425 76.2553 92.6042 76.2553ZM59.3958 73.4973C55.575 73.4973 55.569 79.4348 59.3958 79.4348C63.2165 79.4348 63.2225 73.4973 59.3958 73.4973ZM59.8678 64.7455C59.7609 64.6 59.663 64.4902 59.5234 64.3803C59.3869 64.2734 59.2562 64.2081 59.093 64.1428C58.8169 64.0359 58.5081 64.027 58.2231 64.0894C57.668 64.2052 57.19 64.695 57.0683 65.2442C57 65.547 57.1603 65.9003 57.4839 65.9745C57.7837 66.0428 58.143 65.8855 58.2142 65.5589C58.2201 65.5322 58.232 65.5055 58.2409 65.4788C58.2558 65.4491 58.2736 65.4194 58.2914 65.3897C58.3181 65.363 58.3448 65.3333 58.3715 65.3095C58.3953 65.2947 58.422 65.2798 58.4487 65.265C58.4784 65.2561 58.5051 65.2472 58.5348 65.2413C58.5675 65.2413 58.5972 65.2383 58.6298 65.2413C58.6536 65.2472 58.6773 65.2531 58.6981 65.2591C58.7337 65.2769 58.7664 65.2977 58.799 65.3184C58.8406 65.357 58.8851 65.3956 58.9208 65.4402C58.903 65.4164 58.8851 65.3927 58.8673 65.3719C58.9564 65.4847 59.0514 65.5738 59.1969 65.6153C59.3394 65.6539 59.5294 65.6361 59.654 65.5559C59.7817 65.4728 59.8915 65.3511 59.9272 65.1997C59.9598 65.0572 59.9598 64.8731 59.8678 64.7455ZM90.6894 60.6367C90.0778 60.61 89.5375 61.0256 89.1575 61.465C89.0536 61.5867 88.9823 61.7203 88.9823 61.8836C88.9823 62.0291 89.0476 62.2042 89.1575 62.3022C89.3801 62.507 89.7809 62.5545 89.9976 62.3022C90.1015 62.1805 90.2173 62.0677 90.339 61.9638C90.3925 61.9252 90.4519 61.8925 90.5083 61.8628C90.5469 61.848 90.5884 61.8391 90.627 61.8302C90.6448 61.8302 90.6626 61.8302 90.6805 61.8302C90.7012 61.8361 90.722 61.8391 90.7398 61.845C90.7576 61.8539 90.7755 61.8628 90.7903 61.8747C90.7962 61.8806 90.7992 61.8836 90.8051 61.8895C90.8081 61.8955 90.8081 61.9014 90.8111 61.9073C90.8497 62.1953 91.0901 62.4536 91.3959 62.4388C91.7076 62.4239 92.0015 62.1775 91.9897 61.845C91.9719 61.1444 91.3603 60.6664 90.6894 60.6367Z" fill="#351919"/>
<path d="M77.336 81.4922C77.2825 81.4922 77.2261 81.4833 77.1757 81.4625C76.386 81.1597 74.5394 80.3552 74.4117 79.4497C74.388 79.2745 74.4028 78.9361 74.7769 78.6541C75.715 77.9505 78.2652 77.7278 79.3221 78.2592C79.8624 78.5294 79.9425 78.9272 79.9425 79.138C79.9425 80.3908 77.9119 81.2903 77.5052 81.4595C77.4518 81.4803 77.3924 81.4922 77.336 81.4922ZM75.3142 79.3666C75.4686 79.6397 76.3682 80.1741 77.33 80.5659C78.1019 80.2156 79.0549 79.5774 79.0549 79.138C79.04 79.1172 78.9183 79.0133 78.571 78.9361C77.5824 78.7194 75.8783 78.945 75.3142 79.3666Z" fill="#351919"/>
<path d="M69.9764 95.1692C54.0728 95.1692 43.9968 89.3 42.1622 78.8322C41.0578 72.5295 42.0137 62.9286 48.0047 54.8833C53.099 48.0403 60.895 43.8247 70.5404 42.6877C71.2084 42.6075 86.9962 40.847 96.5734 48.637C101.294 52.4756 105.011 58.2914 106.774 64.5911C108.621 71.1906 108.104 77.3419 105.325 81.9108C100.16 90.4074 90.4608 94.3528 72.9006 95.1009C71.9061 95.1484 70.9293 95.1692 69.9764 95.1692ZM74.9609 43.3794C72.384 43.3794 70.6948 43.5694 70.6444 43.5753C61.2453 44.6797 53.6661 48.7766 48.7201 55.4177C42.8984 63.2374 41.9692 72.5622 43.0409 78.6808C44.7925 88.6736 54.5508 94.2786 69.9764 94.2786C70.9175 94.2786 71.8793 94.2578 72.865 94.2163C90.0926 93.48 99.5718 89.6622 104.565 81.4536C109.924 72.6424 105.848 57.3295 96.0123 49.3317C89.7215 44.2136 80.3789 43.3794 74.9609 43.3794Z" fill="#351919"/>
<path d="M55.7057 48.5391C55.6255 48.5391 55.5453 48.5183 55.4741 48.4738C55.3672 48.4085 44.7242 41.7525 41.6635 29.8835C39.7367 22.423 41.0875 13.9769 45.0983 8.37189C47.598 4.88064 50.8577 2.88861 54.53 2.60955C59.1761 2.25627 63.3769 4.03158 66.0517 7.4783C68.7889 11.0022 69.5489 15.681 68.0913 19.9916L67.6519 21.28C64.9117 29.3313 61.4977 39.3538 65.0899 43.8722C65.2442 44.0652 65.2116 44.3442 65.0186 44.4986C64.8256 44.653 64.5466 44.6203 64.3922 44.4274C60.4972 39.5289 63.9974 29.2511 66.8088 20.992L67.2452 19.7036C68.6078 15.675 67.8983 11.308 65.3452 8.02158C62.8574 4.81533 58.9386 3.16767 54.5953 3.49424C51.1961 3.75252 48.1621 5.61689 45.8197 8.88845C41.9544 14.2886 40.66 22.4408 42.5214 29.6578C45.4931 41.1706 55.8333 47.6485 55.9372 47.7108C56.148 47.8385 56.2133 48.1146 56.0827 48.3224C56.0025 48.4649 55.8541 48.5391 55.7057 48.5391Z" fill="#351919"/>
<path d="M83.8227 44.0859C83.6564 44.0859 83.4991 43.9939 83.4219 43.8336C83.3506 43.6852 81.7089 40.1167 85.215 33.8794C86.9339 30.8245 89.7008 29.3016 92.3756 27.8291C95.2642 26.2378 97.9925 24.7356 99.5808 21.4374C101.184 18.1064 101.344 14.7517 100.038 11.9938C98.7347 9.2447 96.0836 7.31501 92.3697 6.41251C84.0721 4.39969 77.0895 10.0908 73.6903 21.6273C70.2139 33.4252 73.8922 42.4888 73.9278 42.5778C74.0228 42.8064 73.916 43.0647 73.6874 43.1597C73.4588 43.2547 73.2005 43.1478 73.1055 42.9192C73.0669 42.8272 69.2699 33.4727 72.8353 21.375C76.386 9.32782 83.7663 3.40813 92.5805 5.54563C96.5645 6.51048 99.4235 8.60938 100.845 11.6108C102.27 14.6152 102.104 18.243 100.385 21.8203C98.6753 25.3739 95.6917 27.0186 92.8091 28.6069C90.1253 30.0853 87.59 31.4806 85.9958 34.3158C82.7361 40.1108 84.2145 43.415 84.2294 43.4477C84.3333 43.6703 84.2383 43.9345 84.0186 44.0384C83.9533 44.0711 83.888 44.0859 83.8227 44.0859Z" fill="#351919"/>
<path d="M80.6432 43.5783C80.4205 43.5783 80.2275 43.4091 80.2008 43.1834C79.1796 33.9981 85.6099 25.8073 90.1817 22.5417C92.3638 20.9831 93.5839 18.7744 93.4444 16.628C93.3435 15.0545 92.4974 13.7275 91.1199 12.9912C89.8136 12.2936 88.166 12.2936 86.4738 12.9912C83.1191 14.3776 80.2691 18.2251 78.6541 23.5422C75.6675 33.3687 77.1252 42.462 77.14 42.5511C77.1816 42.7945 77.0153 43.0231 76.7749 43.0647C76.5344 43.1062 76.3028 42.94 76.2613 42.6995C76.2464 42.6075 74.7532 33.3212 77.8021 23.2839C79.4942 17.7056 82.5313 13.6562 86.1324 12.1659C88.0769 11.3614 89.9977 11.3762 91.5414 12.2045C93.195 13.0892 94.2133 14.6805 94.335 16.5716C94.4924 19.0267 93.1327 21.5294 90.7013 23.2661C86.4678 26.2883 80.1177 34.3425 81.0885 43.0855C81.1152 43.3289 80.94 43.5486 80.6936 43.5783C80.6758 43.5753 80.661 43.5783 80.6432 43.5783Z" fill="#351919"/>
<path d="M58.2499 47.0131C58.137 47.0131 58.0242 46.9716 57.9381 46.8855C57.858 46.8083 49.9284 38.9114 47.7642 28.7197C46.173 21.2295 48.1264 15.6067 50.4836 12.8428C51.9234 11.1566 53.6958 10.2778 55.4741 10.3698C57.4542 10.4708 59.0395 11.3377 60.0578 12.8755C61.7114 15.3633 61.7144 19.3978 60.0667 23.9459C57.567 30.8483 57.9084 41.7525 62.0825 44.9439C62.2784 45.0923 62.3141 45.3714 62.1656 45.5673C62.0172 45.7633 61.7381 45.7989 61.5422 45.6505C57.0089 42.183 56.5755 30.973 59.2295 23.6431C60.7792 19.3652 60.8089 15.6216 59.3156 13.3712C58.4577 12.0798 57.1128 11.3495 55.4266 11.2634C53.9274 11.1862 52.4133 11.9552 51.1575 13.4247C48.9369 16.0283 47.1081 21.3631 48.6311 28.5386C50.7389 38.4631 58.4814 46.1759 58.5586 46.2531C58.7338 46.4253 58.7367 46.7073 58.5645 46.8825C58.4814 46.9686 58.3656 47.0131 58.2499 47.0131Z" fill="#351919"/>
<path d="M53.9243 127.549C53.8323 127.549 53.7403 127.52 53.6601 127.463L32.1575 111.687C32.0536 111.613 31.9883 111.494 31.9764 111.37C31.9645 111.242 32.009 111.117 32.0951 111.022L38.3295 104.405C38.4661 104.26 38.6828 104.224 38.8579 104.316L64.0508 117.42C64.1784 117.485 64.2675 117.61 64.2853 117.756C64.3061 117.898 64.2526 118.044 64.1487 118.141L54.2242 127.431C54.144 127.511 54.0342 127.549 53.9243 127.549ZM33.0926 111.266L53.8917 126.525L63.0859 117.919L38.7511 105.26L33.0926 111.266Z" fill="#351919"/>
<path d="M73.1381 129.458C73.0075 129.458 72.8798 129.399 72.7967 129.298L63.5075 118.103C63.4036 117.978 63.3768 117.809 63.4332 117.66C63.4896 117.509 63.6262 117.402 63.7836 117.378L110.224 110.509C110.372 110.488 110.518 110.538 110.619 110.648L119.908 120.828C120.018 120.95 120.053 121.119 120 121.273C119.946 121.428 119.813 121.541 119.652 121.567L73.2123 129.455C73.1856 129.458 73.1618 129.458 73.1381 129.458ZM64.6979 118.141L73.3162 128.532L118.699 120.822L110.12 111.42L64.6979 118.141Z" fill="#351919"/>
<path d="M52.143 111.518C52.1401 111.518 52.1341 111.518 52.1312 111.518C51.8848 111.512 51.6918 111.307 51.6977 111.061L51.8105 106.614C49.6701 106.825 41.7257 107.127 40.0038 100.237C39.1043 96.6358 39.4012 93.8897 40.8944 92.0788C42.4798 90.1521 45.4129 89.2852 49.6196 89.5049C49.866 89.5168 50.053 89.7276 50.0412 89.974C50.0293 90.2204 49.8155 90.4074 49.5721 90.3955C45.6652 90.1936 42.9755 90.9507 41.5802 92.6458C40.2799 94.2252 40.0395 96.7071 40.8677 100.02C42.652 107.163 51.8076 105.732 52.1965 105.67C52.3271 105.649 52.4607 105.685 52.5616 105.774C52.6626 105.86 52.719 105.987 52.716 106.121L52.5884 111.082C52.5824 111.328 52.3835 111.518 52.143 111.518Z" fill="#351919"/>
<path d="M101.255 112.284C101.05 112.284 100.863 112.142 100.819 111.931L99.2927 104.678C99.266 104.556 99.2927 104.429 99.3669 104.328C99.4412 104.227 99.551 104.162 99.6757 104.144C99.7262 104.138 104.901 103.482 108.054 100.086C109.642 98.3755 110.431 96.1697 110.224 94.0322C110.025 91.9719 108.914 90.1075 107.101 88.7894C103.209 85.9572 97.9924 89.401 97.942 89.4336C97.7371 89.5702 97.461 89.5168 97.3244 89.3119C97.1879 89.1071 97.2413 88.831 97.4432 88.6944C97.6777 88.5371 103.223 84.8677 107.623 88.068C109.645 89.5405 110.886 91.6275 111.108 93.9461C111.34 96.339 110.464 98.7971 108.704 100.691C105.871 103.743 101.674 104.708 100.258 104.954L101.689 111.747C101.739 111.987 101.585 112.225 101.344 112.275C101.317 112.281 101.285 112.284 101.255 112.284Z" fill="#351919"/>
<path d="M110.289 111.394C110.218 111.394 110.147 111.376 110.081 111.34L100.029 105.996C99.8124 105.881 99.7292 105.61 99.845 105.394C99.9608 105.177 100.231 105.094 100.448 105.21L110.173 110.381L118.1 100.561L110.236 97.1049C110.01 97.007 109.909 96.7427 110.007 96.5171C110.105 96.2915 110.369 96.1876 110.595 96.2885L118.993 99.9787C119.121 100.035 119.213 100.145 119.246 100.282C119.278 100.415 119.246 100.558 119.16 100.667L110.636 111.227C110.547 111.334 110.42 111.394 110.289 111.394Z" fill="#351919"/>
<path d="M39.1667 105.159C39.0004 105.159 38.8401 105.067 38.7659 104.907L32.9145 92.6933C32.8522 92.5656 32.8551 92.4172 32.9234 92.2925C32.9917 92.1678 33.1104 92.0817 33.25 92.0609L41.5209 90.7874C41.7643 90.7488 41.99 90.918 42.0286 91.1584C42.0672 91.4019 41.8979 91.6275 41.6575 91.6661L33.9803 92.8477L39.5734 104.521C39.6803 104.743 39.5853 105.008 39.3656 105.115C39.2973 105.144 39.232 105.159 39.1667 105.159Z" fill="#351919"/>
<path d="M65.1225 149.435C65.0483 149.435 64.9741 149.417 64.9058 149.379L40.0959 135.512C39.9623 135.437 39.8792 135.301 39.8673 135.149L38.7214 116.574C38.7066 116.328 38.8936 116.117 39.137 116.102C39.3775 116.087 39.5942 116.274 39.6091 116.518L40.7402 134.85L64.6445 148.212L63.4036 117.836C63.3947 117.589 63.5847 117.381 63.8311 117.373C64.0745 117.361 64.2853 117.554 64.2942 117.8L65.5678 148.972C65.5738 149.132 65.4936 149.284 65.357 149.37C65.2828 149.411 65.2027 149.435 65.1225 149.435Z" fill="#351919"/>
<path d="M65.1195 149.435C64.9028 149.435 64.7128 149.275 64.6802 149.055C64.6445 148.812 64.8137 148.586 65.0572 148.55L111.361 141.737L110.862 122.666C110.856 122.419 111.049 122.215 111.295 122.209C111.545 122.203 111.747 122.396 111.753 122.642L112.26 142.108C112.266 142.334 112.103 142.527 111.88 142.559L65.1848 149.429C65.1641 149.432 65.1433 149.435 65.1195 149.435Z" fill="#351919"/>
</svg>
