<svg xmlns="http://www.w3.org/2000/svg" width="100" height="100" viewBox="0 0 100 100" id="greet">
  <g fill="none" fill-rule="evenodd" transform="translate(-150 -150)">
    <g transform="translate(151.696 147)">
      <path fill="#FFECE4" d="M45.3340203,97.963913 C48.4293921,97.2258617 49.0753532,94.8173482 49.0753532,91.7683337 C49.0753532,86.5916 46.6747701,83.2574568 43.7135008,83.2574568 C40.7522315,83.2574568 38.8212317,86.5916 38.8212317,91.7683337 C38.8212317,92.8862868 35.7428875,94.2049768 36.4854838,96.4006985 C37.2280802,98.5964203 43.4962139,98.4021142 45.3340203,97.963913 Z"></path>
      <path fill="#FFECE4" d="M54.6322935,97.963913 C57.7276653,97.2258617 58.3736264,94.8173482 58.3736264,91.7683337 C58.3736264,86.5916 55.9730433,83.2574568 53.0117739,83.2574568 C50.0505046,83.2574568 48.4396899,86.5916 48.4396899,91.7683337 C48.4396899,92.8862868 45.0411606,94.2049768 45.783757,96.4006985 C46.5263533,98.5964203 52.794487,98.4021142 54.6322935,97.963913 Z"></path>
      <path fill="#7BDEE8" d="M38.5714419,58.5333595 L59.7962517,58.5333595 C63.7200563,62.6952424 67.3981659,80.053736 67.3981659,86.9133481 C59.4730957,89.7832796 45.9607984,92.0636168 29.8999538,86.9133481 C29.3225994,82.023239 34.5598071,63.5261484 38.5714419,58.5333595 Z"></path>
      <path fill="#7BDEE8" d="M29.1730303,67.8659932 C31.3493294,73.7923901 26.5526419,80.1288586 29.4014004,81.4651568 C32.2501588,82.801455 41.6547597,66.8621717 34.1582304,56.1516818 L29.1730303,67.8659932 Z" transform="scale(-1 1)rotate(-40 0 158.78)"></path>
      <g transform="rotate(10 5.09 60.373)">
        <path fill="#FFECE4" d="M46.0541601,55.4058085 C72.2336786,55.4058085 82.1998944,41.745737 77.0125589,27.7029042 C71.8252233,13.6600715 20.3828602,12.2678066 15.0957614,27.7029042 C9.8086626,43.1380018 19.8746417,55.4058085 46.0541601,55.4058085 Z"></path>
        <path fill="#663434" d="M32.9717133,23.758616 C43.4837328,34.5003816 66.4653339,40.8720303 78.8194543,36.921557 C78.8194543,36.921557 80.6634941,46.6892379 91.9789083,43.1482794 C91.9789083,32.7864086 79.6351302,34.4065235 79.6351302,34.4065235 C84.688404,14.197212 64.6896849,6.52811138e-14 46.0639124,6.52811138e-14 C27.43814,6.63854638e-14 6.86266469,13.7949582 12.5284886,34.4065235 C12.6002425,34.6675555 0.110114519,32.0406973 0.110114519,43.1482794 C11.1939812,47.5688895 13.1753936,36.921557 13.1753936,36.921557 C21.7026495,36.921557 28.1439582,32.5814997 32.9717133,23.758616 Z"></path>
        <ellipse cx="61.792" cy="46.971" fill="#FFCDD2" rx="6.438" ry="3.338" transform="rotate(-15 61.792 46.97)"></ellipse>
        <ellipse cx="30.129" cy="46.971" fill="#FFCDD2" rx="6.438" ry="3.338" transform="scale(-1 1)rotate(-15 0 275.827)"></ellipse>
      </g>
      <path fill="#7BDEE8" d="M64.0567168,51.5764639 C63.4202733,54.3991688 63.0274783,58.1174378 63.0274783,61.7687893 C63.0274783,69.1390596 66.4222766,73.5063498 68.353264,71.9976971 C70.2842514,70.4890444 69.1678616,66.3790108 69.1728777,62.6088342 C69.1756157,60.5509115 69.1219011,58.4869129 69.6970503,56.5579485 C70.2721995,54.6289842 64.0567168,51.5764639 64.0567168,51.5764639 Z" transform="rotate(-142 66.387 61.936)"></path>
    </g>
    <g transform="translate(154.49 153.582)">
      <path fill="#663434" d="M62.1576535,61.874294 C62.2008166,62.0245167 62.2436365,62.1753533 62.2861022,62.3267477 C63.0855022,65.1767477 63.7644022,68.2247477 64.2696022,71.0747477 C64.8974022,74.6147477 65.2500022,77.8517477 65.2455448,80.0357477 C65.2455448,80.3017477 65.0793022,80.5387477 64.8297022,80.6287477 C62.3961846,81.4988363 59.4435251,82.3140549 56.0580299,82.8789441 C56.1276171,83.5150583 56.1585809,84.1870507 56.1465022,84.8907477 C56.0858022,86.8317477 55.7817022,88.5187477 54.8335022,89.7027477 C54.1900022,90.5057477 53.2625022,91.0917477 51.9131022,91.3547477 C50.6755022,91.6707477 47.4589022,91.9067477 45.1876022,91.3877477 C44.7144752,91.2796169 44.2834281,91.1340934 43.9118221,90.9520374 C43.5302728,91.1239933 43.0998204,91.2602295 42.6149022,91.3547477 C41.3772022,91.6707477 38.1606022,91.9067477 35.8893022,91.3877477 C34.5854022,91.0897477 33.6010022,90.5077477 33.2998022,89.6597477 C33.0487022,88.9537477 33.1344022,88.3187477 33.3888022,87.7417477 C33.7138022,87.0047477 34.3471022,86.3687477 34.8770022,85.8097477 C35.0891022,85.5857477 35.2815022,85.3757477 35.4139022,85.1757477 C35.4805022,85.0747477 35.5346022,84.9837477 35.5333022,84.8907477 C35.5232233,84.1054469 35.557639,83.360449 35.6329494,82.6603999 C32.8480462,82.1572585 29.95616,81.4398365 26.9784022,80.4677477 C26.8093022,80.4137477 26.6874022,80.2657477 26.6666022,80.0897477 C26.4512797,78.1699958 27.1207617,74.1850004 28.2681452,69.732897 C28.5722285,69.3918987 28.9822209,68.8458873 29.4983768,68.0952461 C28.2061249,72.924475 27.3780924,77.4532278 27.5394022,79.6927477 C34.1742022,81.7507477 40.3596022,82.5357477 45.8819022,82.5489036 C53.2819022,82.5657477 59.4884022,81.1897477 63.9786022,79.5957477 C63.9290022,77.4837477 63.5643022,74.5227477 62.9918022,71.3007477 C62.499396,68.5296692 61.8485868,65.5681183 61.0965669,62.7839657 Z M36.6844289,82.8440282 L36.675237,82.8988727 C36.5967047,83.524328 36.5519022,84.1896366 36.5429022,84.8907477 C36.5372022,85.2957477 36.2764022,85.7427477 35.8472022,86.1997477 C35.3331022,86.7457477 34.5709022,87.3547477 34.2072022,88.1167477 C34.0270022,88.4947477 33.9529022,88.9137477 34.1050022,89.3877477 C34.2173022,89.7367477 34.5189022,90.0017477 34.9213022,90.2177477 C35.4651022,90.5087477 36.1823022,90.7057477 36.9615022,90.8337477 C39.0006022,91.1707477 41.4532022,91.0477477 42.4869022,90.8187477 C42.7665283,90.7401162 43.0233036,90.6474561 43.2589578,90.5415666 C42.9445536,90.2905808 42.7176057,89.9960868 42.5981022,89.6597477 C42.3379022,88.9277477 42.4622022,88.2707477 42.7781022,87.6747477 C43.2219022,86.8377477 44.0959022,86.1337477 44.6988022,85.5227477 C44.8306022,85.3887477 44.9464022,85.2607477 45.0349022,85.1367477 C45.0971022,85.0487477 45.1505022,84.9717477 45.1494022,84.8907477 C45.1438929,84.4610255 45.1496151,84.0434193 45.1663169,83.6386974 C42.4787852,83.5772719 39.6435177,83.3293883 36.6844289,82.8440282 Z M54.8840807,83.0608493 L54.8182168,83.0715098 C52.0827832,83.4650557 49.0875728,83.6902183 45.8742022,83.6527477 L46.2126677,83.654114 C46.1854972,84.052588 46.1691501,84.4651007 46.1637022,84.8907477 C46.1580022,85.2997477 45.8692022,85.7607477 45.3875022,86.2217477 C44.8242022,86.7617477 43.9943022,87.3607477 43.5686022,88.1097477 C43.3530022,88.4887477 43.2495022,88.9087477 43.4032022,89.3877477 C43.5155022,89.7367477 43.8171022,90.0017477 44.2196022,90.2177477 C44.7634022,90.5087477 45.4805022,90.7057477 46.2598022,90.8337477 C48.2989022,91.1717477 50.7515022,91.0477477 51.7852022,90.8187477 C53.2290022,90.4127477 54.0636022,89.6327477 54.5272022,88.5887477 C54.9817022,87.5657477 55.0772022,86.2997477 55.0345022,84.8907477 C55.0218388,84.2491359 54.9687386,83.6387055 54.8840807,83.0608493 Z M53.2418022,0.58874773 C62.4585022,2.19574773 71.4054022,7.33874773 77.0535022,14.4667477 C82.7183022,21.6157477 85.0778022,30.7457477 81.1713022,40.3097477 C82.7937022,40.5167477 86.2383022,41.1857477 88.7211022,43.2577477 C90.7771022,44.9747477 92.2121022,47.6237477 91.4801022,51.7287477 C91.4331022,51.9967477 91.2171022,52.2027477 90.9471022,52.2377477 C87.0112022,52.7377477 84.3207022,51.9987477 82.4778022,50.7867477 C79.7276809,48.9790945 78.8393277,46.0919552 78.5526323,44.4530122 C77.398786,47.394093 75.4453353,49.9792875 72.7075022,52.0377477 C71.164265,53.1982861 69.3694262,54.1911477 67.3262096,54.9823989 L68.3697021,53.397398 C69.7237537,52.7443762 70.9455241,51.992783 72.0342022,51.1537477 C74.5989473,49.1766485 76.4144947,46.7110526 77.465616,43.9166995 C70.9600355,44.2747574 62.6765844,41.9900933 54.9873022,38.0887477 C47.3156022,34.1977477 40.2391022,28.7087477 36.1051022,22.7417477 C33.1742022,26.3577477 30.0621022,28.9607477 26.7255022,30.5627477 C23.2118404,32.2509177 19.4475061,32.831138 15.3764133,32.3116447 C15.1352859,35.7188494 15.9260785,38.9786715 17.7930022,41.9467477 C21.6809022,48.1267477 30.1672022,53.0267477 43.5591022,55.4457477 C49.4608321,56.423214 54.6369513,56.5495027 59.0774073,55.9946345 L58.2771393,56.9568522 C53.9722619,57.3103784 49.0293666,57.030795 43.4634022,55.9887477 C29.7888022,53.6367477 21.1284022,48.6467477 17.1128022,42.3777477 C15.1420656,39.3011132 14.2756487,35.912524 14.4789339,32.3606478 C13.9240665,33.5560285 12.0862799,36.8891406 8.53000221,37.8377477 C6.40210221,38.4047477 3.65030221,38.1327477 0.186602209,36.0027477 C0.0496022086,35.9177477 -0.0219977914,35.7577477 0.00600220856,35.5987477 C0.735802209,31.3937477 2.88940221,29.4107477 5.29650221,28.5517477 C8.32570221,27.4707477 11.7983022,28.2117477 13.3920022,28.6057477 L13.6511022,28.6687477 C12.8381022,18.0157477 18.1494022,10.1777477 25.9812022,5.40974773 C33.7574022,0.67674773 44.0321022,-1.01425227 53.2418022,0.58874773 Z M26.5117022,6.28674773 C18.8149022,10.9217477 13.6168022,18.6297477 14.5811022,29.1737477 C14.5972022,29.3507477 14.5351022,29.4947477 14.3730022,29.5957477 C14.3258022,29.6257477 14.1983022,29.6907477 13.9875022,29.6557477 C13.8548022,29.6337477 13.5736022,29.5577477 13.1789022,29.4577477 C11.6839022,29.0797477 8.42610221,28.3387477 5.57520221,29.3387477 C3.43830221,30.0887477 1.55340221,31.8407477 0.831202209,35.4737477 C3.93290221,37.3447477 6.40700221,37.6247477 8.34090221,37.1207477 C12.3689022,36.0697477 14.0161022,31.6817477 14.0161022,31.6817477 C14.0749022,31.5257477 14.2372022,31.4327477 14.4021022,31.4617477 C18.7477022,32.2407477 22.7425022,31.7567477 26.4568022,29.9997477 C29.8192022,28.4077477 32.9507022,25.7777477 35.9078022,22.1067477 C35.9624022,22.0387477 36.0461022,21.9997477 36.1334022,22.0037477 C36.2207022,22.0067477 36.3013022,22.0507477 36.3506022,22.1227477 C40.4779022,28.0657477 47.6508022,33.4757477 55.3888022,37.2857477 C63.5655022,41.3107477 72.3782022,43.5567477 78.9115022,42.6357477 C79.0740022,42.6137477 79.2383022,42.6627477 79.3625022,42.7697477 C79.4867022,42.8767477 79.5589022,43.0327477 79.5609022,43.1967477 C79.5609022,43.1967477 79.6258022,47.4997477 83.1370022,49.7777477 C84.7315022,50.8117477 87.0268022,51.4157477 90.3231022,51.0587477 C90.7621022,47.7917477 89.5921022,45.6457477 87.9011022,44.2427477 C84.8469022,41.7077477 80.2000022,41.5157477 80.2000022,41.5157477 C79.9857022,41.5057477 79.7899022,41.3917477 79.6771022,41.2087477 C79.5643022,41.0267477 79.5491022,40.7997477 79.6365022,40.6037477 C83.8257022,31.2317477 81.5935022,22.2507477 76.0708022,15.2437477 C70.6163022,8.32274773 61.9668022,3.31174773 53.0421022,1.72074773 C44.0935022,0.12274773 34.0955022,1.71974773 26.5117022,6.28674773 Z"></path>
      <path fill="#663434" d="M29.2818809,66.5344885 C28.0898766,68.4930347 26.7335022,71.2037477 26.2080022,72.0047477 C25.9957022,72.3277477 25.7840022,72.6057477 25.5615022,72.8187477 C25.2646022,73.1047477 24.9501022,73.2577477 24.5578022,73.1507477 C24.4010022,73.1087477 24.3208022,72.9357477 24.2321022,72.7217477 C24.0779022,72.3497477 23.9895022,71.8487477 23.9534022,71.2497477 C23.7988022,68.6787477 24.6650022,64.4777477 26.7630022,60.5667477 C28.2759273,57.7460034 30.4252429,55.0736869 33.3127191,53.2745203 L32.6926826,52.8372922 C29.7430659,54.6154353 27.4906461,57.2574907 25.8772022,60.0747477 C23.5435022,64.1507477 22.5543022,68.5937477 22.6741022,71.3157477 C22.7164022,72.2787477 22.9072022,73.0447477 23.1940022,73.5497477 C23.4602022,74.0177477 23.8188022,74.2967477 24.2250022,74.4037477 C25.4180022,74.7107477 26.3556022,74.0907477 27.1803022,72.7997477 C27.5454022,72.2287477 27.9397353,71.4111764 28.9390237,69.3947232 C29.938312,67.3782699 30.7392689,65.4638412 32.8956915,64.4627478 C33.5261194,64.1700791 33.8222742,63.943239 33.8222742,63.6592487 C33.8222742,62.5893164 30.4738851,64.5759424 29.2818809,66.5344885 Z"></path>
      <path fill="#633330" d="M39.5103022,46.0287477 C39.5103022,46.0287477 39.5068487,46.7287477 39.9599022,47.6127477 C40.1778022,48.0377477 40.5172022,48.4867477 40.9997022,48.9067477 C41.3052022,49.1727477 41.6772022,49.4187477 42.1180022,49.6227477 C42.6381022,49.8647477 43.2606022,50.0367477 43.9863022,50.1437477 C45.3093022,50.3107477 46.3541022,50.1577477 47.1655022,49.8457477 C48.9485022,49.1617477 49.5997022,47.8077477 49.5997022,47.8077477 C49.6736022,47.6747477 49.6255022,47.5067477 49.4924022,47.4327477 C49.3594022,47.3597477 49.1914022,47.4077477 49.1175022,47.5407477 C49.1175022,47.5407477 48.4334022,48.5777477 46.8878022,48.9857477 C46.1789022,49.1727477 45.2911022,49.2137477 44.1943022,48.9647477 C43.5962022,48.8417477 43.0982022,48.6467477 42.6654022,48.4457477 C42.3194022,48.2847477 42.0186022,48.1147477 41.7570022,47.9327477 C41.3431022,47.6467477 41.0225022,47.3537477 40.7797022,47.0667477 C40.2585022,46.4497477 40.0550022,45.9427477 40.0550022,45.9427477 C40.0311022,45.7917477 39.8897022,45.6897477 39.7394022,45.7137477 C39.5891022,45.7377477 39.4864022,45.8787477 39.5103022,46.0287477 Z"></path>
      <circle cx="32.189" cy="41.53" r="2.979" fill="#663434"></circle>
      <circle cx="56.831" cy="45.875" r="2.979" fill="#663434"></circle>
      <path fill="#663434" d="M59.2364022,64.8697477 C60.4713022,63.9457477 61.8253022,62.8017477 63.1607022,61.4867477 C64.3591022,60.3077477 65.5317022,58.9917477 66.6397022,57.6417477 C67.4820022,56.5787477 68.1822022,55.5267477 68.7307022,54.5067477 C69.8342022,52.4537477 70.3619022,50.5467477 70.4580022,49.0547477 C70.6077022,46.7337477 69.6608022,45.3517477 68.2486022,45.3705543 C67.2030022,45.3867477 66.2693022,45.9797477 65.4058022,46.9507477 C64.1245022,48.3907477 62.9579022,50.6697477 61.5177022,52.5737477 C60.7845022,53.5447477 60.0667022,54.5297477 59.2660022,55.4177477 C58.7320022,56.0107477 58.1626022,56.5607477 57.5243022,57.0327477 C57.4003022,57.1207477 57.3711022,57.2937477 57.4593022,57.4177477 C57.5474022,57.5417477 57.7197022,57.5707477 57.8438022,57.4827477 C58.5323022,57.0127477 59.1529022,56.4587477 59.7362022,55.8577477 C60.5825022,54.9847477 61.3473022,54.0107477 62.1271022,53.0507477 C63.6117022,51.2207477 64.8362022,49.0107477 66.1461022,47.6307477 C66.8072022,46.9347477 67.4758022,46.4537477 68.2486022,46.4657477 C68.7177022,46.4727477 69.0045022,46.8277477 69.1588022,47.3607477 C69.3604022,48.0577477 69.3262022,49.0267477 69.0624022,50.1707477 C68.7781022,51.4047477 68.2076022,52.8217477 67.3415022,54.3337477 C66.8691022,55.1577477 66.3164022,56.0137477 65.6561022,56.8737477 C64.6364022,58.2457477 63.5279022,59.5667477 62.4355022,60.7987477 C61.2148022,62.1747477 60.0158022,63.4337477 58.8872022,64.4427477 C58.7694022,64.5387477 58.7520022,64.7127477 58.8484022,64.8307477 C58.9448022,64.9487477 59.1187022,64.9657477 59.2364022,64.8697477 Z"></path>
    </g>
  </g>
</svg>
