<svg xmlns="http://www.w3.org/2000/svg" xml:space="preserve" id="monkey-idea" x="0" y="0" style="enable-background:new 0 0 512 512" version="1.1" viewBox="0 0 512 512">
  <g>
    <g id="ekor_00000047776684794765840670000008075148421539354776_">
      <path d="M131.3,382.84c0,0-28.77-0.15-38.04-21.56s2.56-39,15.02-39.96c12.47-0.96,11.83,11.19,7.35,11.83
			s-5.11-5.32-9.27-1.38c-4.16,3.94-4.79,11.24,7.03,11.11s19.19-9.61,14.07-25.17s-40.28-14.22-49.55,12.44
			c-9.27,26.66,4.16,52.52,26.69,63.73c22.54,11.2,56.74,11.2,63.77,4.17c7.03-7.03,7.21-16.22,2.56-15.75
			S144.84,384.99,131.3,382.84z" style="fill:#bc7046"></path>
      <path d="M146.51,404.85c-13.62,0-30.23-2.95-42.79-9.2c-25.05-12.45-36.69-40.28-27.69-66.17
			c5.73-16.48,20.87-23.82,33.42-23.82c0.09,0,0.18,0,0.27,0c9.83,0.08,17.36,4.46,19.65,11.41c2.74,8.34,2.23,15.76-1.46,20.92
			c-3.12,4.37-8.27,6.81-14.49,6.88c-7.62,0.06-10.35-2.71-11.31-5.07c-1.2-2.97-0.07-6.69,2.88-9.49c3.61-3.43,6.23-1.37,7.64-0.27
			c1.08,0.84,1.69,1.27,2.73,1.13c0.6-0.09,1.38-1.4,1.19-3.19c-0.14-1.23-1.12-5.2-8.11-4.66c-4.88,0.38-9.67,3.71-12.81,8.91
			c-4.72,7.83-4.92,18.13-0.53,28.26c8.63,19.94,35.94,20.36,36.22,20.36c0.1,0,0.2,0.01,0.3,0.02c5.92,0.94,17.46,1.61,38.78-0.54
			l0.35-0.04c2.05-0.2,3.81,0.79,4.7,2.67c1.71,3.62,0.07,10.77-5.64,16.48C166.24,402.99,157.31,404.85,146.51,404.85z
			 M109.44,309.66c-11.14,0-24.56,6.51-29.64,21.14c-9.44,27.15,5.78,51.38,25.69,61.28c21.87,10.87,55.24,10.78,61.47,4.55
			c4.59-4.59,5.79-9.98,4.85-11.94c-0.18-0.38-0.34-0.44-0.68-0.41l-0.34,0.03c-21.58,2.17-33.46,1.5-39.66,0.53
			c-2.61-0.04-30.29-1.01-39.71-22.77c-4.9-11.33-4.62-22.96,0.78-31.91c3.81-6.31,9.76-10.36,15.93-10.83
			c8.4-0.64,11.93,4.02,12.39,8.21c0.42,3.83-1.6,7.16-4.6,7.59c-2.78,0.4-4.57-1.01-5.76-1.94c-1.31-1.03-1.31-1.03-2.42,0.03
			c-1.69,1.61-2.48,3.7-1.92,5.08c0.67,1.64,3.31,2.57,7.27,2.57c0.1,0,0.19,0,0.29,0c4.92-0.06,8.92-1.91,11.28-5.21
			c2.92-4.09,3.25-10.25,0.91-17.34c-1.74-5.28-7.82-8.59-15.88-8.66C109.6,309.66,109.52,309.66,109.44,309.66z" style="fill:#6d3612"></path>
    </g>
    <g>
      <g>
        <path d="M181.77,244.62c-4.33-5.01-7.42-14.31-6.51-25.65c1.27-15.71,10.98-21.51,11.08-21.57
				c0.27-0.15,0.44-0.43,0.49-0.73c0.04-0.31-0.06-0.62-0.28-0.84c-0.04-0.04-3.82-4.16-6.38-24.36
				c-2.65-20.92,4.35-55.53,34.49-65.12c26.73-8.5,39.76-0.16,42.3,1.79c-0.1,0.58,0.04,1.07,0.43,1.39
				c0.91,0.75,2.23-0.11,3.4-0.97c0.04-0.03,0.09-0.07,0.12-0.11c0.12-0.12,12.3-12.3,42.62-4.25
				c30.57,8.12,39.24,42.35,37.61,63.37c-1.57,20.29-5.15,24.59-5.17,24.62c-0.22,0.23-0.31,0.54-0.26,0.86
				c0.05,0.31,0.25,0.58,0.53,0.72c0.1,0.05,10.08,5.38,12.11,21c1.46,11.28-1.18,20.73-5.26,25.94
				c-11.59,7.35-28.89,11.43-52.96,12.75l-54.77,1.33C211.21,254.65,193.71,251.41,181.77,244.62z" style="fill:#fff3c2"></path>
      </g>
      <g>
        <path d="M348.21,110.85c-5.87-12.17-13.86-20.89-22.23-27.14c2.23-5.62,11.51-24.19,36.65-24.19
				c0.07,0,0.15,0,0.22,0C376.27,59.58,388,65.07,395.89,75c9.67,12.16,12.6,29.38,8.25,48.49c-2.4,10.56-7.5,18.31-15.15,23.03
				c-11.3,6.97-25.2,5.44-30.07,4.6C358.23,139.53,355.39,125.73,348.21,110.85z" style="fill:#fff3c2"></path>
      </g>
      <g>
        <path d="M308.47,72.81c1.3-6.86,10.7-23.88,27.52-34c14.39-8.67,30.59-10.3,48.14-4.87
				c20.71,6.41,37.32,23.82,45.57,47.75c9.12,26.45,6.35,55.03-7.23,74.61c-10.82,15.6-25.17,23.07-42.64,22.26
				c-10.42-0.49-18.93-3.94-22.1-5.39c0.93-5.32,1.59-12.1,1.29-19.99c2.02,0.34,5.18,0.73,8.96,0.73c6.45,0,14.68-1.15,22.05-5.68
				c8.14-5.01,13.54-13.19,16.07-24.3c4.48-19.71,1.41-37.53-8.64-50.17c-8.27-10.41-20.56-16.17-34.59-16.23c-0.08,0-0.15,0-0.22,0
				c-25.36,0-35.54,18.58-38.3,25.01c-5.49-3.87-11.09-6.73-16.31-8.81C308.24,73.46,308.4,73.16,308.47,72.81z" style="fill:#bc7046"></path>
      </g>
      <g>
        <path d="M142.05,184.33c-17.41,1.67-32.1-5.12-43.67-20.17c-14.51-18.89-18.67-47.31-10.84-74.17
				c7.08-24.31,22.83-42.5,43.2-49.91c17.27-6.28,33.52-5.43,48.32,2.53c17.29,9.3,27.51,25.84,29.14,32.63
				c0.08,0.35,0.26,0.64,0.48,0.88c-5.11,2.34-10.57,5.45-15.87,9.59c-3.08-6.31-14.21-24.46-39.69-23.1
				c-14.02,0.74-26.01,7.1-33.76,17.89c-9.42,13.12-11.62,31.07-6.2,50.53c3.06,10.98,8.86,18.88,17.23,23.49
				c6.6,3.64,13.73,4.67,19.72,4.67c4.92,0,9.05-0.7,11.49-1.23c0.08,7.89,1.07,14.63,2.26,19.9
				C160.77,179.48,152.43,183.33,142.05,184.33z" style="fill:#bc7046"></path>
      </g>
      <g>
        <path d="M161.61,155.91c-4.82,1.07-18.64,3.27-30.26-3.14c-7.88-4.34-13.34-11.84-16.25-22.27
				c-5.26-18.87-3.17-36.21,5.89-48.83c7.4-10.29,18.85-16.36,32.25-17.06c25.29-1.35,35.5,16.85,38,22.37
				c-8.05,6.65-15.61,15.74-20.88,28.18C163.91,130.38,161.74,144.29,161.61,155.91z" style="fill:#fff3c2"></path>
      </g>
      <g>
        <path d="M164.61,225.35c-7.69-19.09,5.92-33.78,6.5-34.39c0.57-0.6,0.71-1.48,0.36-2.23
				c-0.15-0.31-14.45-31.84,2.57-72c16.9-39.88,58.69-43.51,59.11-43.54c1.1-0.08,1.93-1.04,1.84-2.14
				c-0.08-1.1-1.04-1.92-2.14-1.84c-0.06,0-0.87,0.07-2.27,0.28c-1.27-1.35-2.69-3.49-2.43-4.6c0.14-0.61,1.04-1.01,1.76-1.24
				c6.27-1.99,15.16,4.04,15.24,4.1c0.75,0.51,1.75,0.46,2.44-0.14c0.69-0.6,0.89-1.58,0.49-2.4c-1.33-2.69-4.3-10.59-2.14-14.76
				c0.79-1.53,2.26-2.45,4.49-2.8c2.07-0.33,3.89,0.13,5.56,1.39c6.15,4.65,7.79,17.99,7.8,18.13c0.13,1.1,1.12,1.88,2.22,1.75
				c1.1-0.13,1.88-1.12,1.75-2.22c-0.02-0.15-0.14-1.12-0.41-2.58c0.9-2.02,4.63-9.14,11.35-6.88c1.93,0.65,3.18,1.69,3.82,3.19
				c1.53,3.59-0.81,8.61-0.83,8.66c-0.29,0.61-0.26,1.33,0.1,1.91c0.35,0.58,0.98,0.94,1.65,0.96c0.42,0.01,42.3,1.53,61.15,40.62
				c18.95,39.29,6.19,71.47,6.06,71.79c-0.31,0.76-0.13,1.64,0.47,2.21c0.61,0.59,14.92,14.6,8.16,34.04
				c-2.36,6.8-6.31,12.46-12,17.07c2.78-5.7,4.26-13.7,3.03-23.17c-1.81-13.97-9.48-20.16-12.22-21.95
				c1.24-2.19,3.76-8.48,5.03-24.84c1.68-21.69-7.34-57.03-39.09-65.46c-30.74-8.16-43.4,3.61-44.51,4.73
				c-0.2,0.14-0.37,0.26-0.51,0.36c-0.05-0.1-0.12-0.2-0.21-0.28c-0.54-0.52-13.63-12.53-44.76-2.63
				c-31.3,9.96-38.6,45.69-35.87,67.28c2.06,16.28,4.88,22.44,6.22,24.57c-2.65,1.92-10.01,8.48-11.14,22.52
				c-0.77,9.52,1.1,17.44,4.15,23C171.51,237.48,167.3,232.03,164.61,225.35z" style="fill:#bc7046"></path>
      </g>
      <g>
        <path d="M141.53,332.9c5.07-48.74,28.62-66.64,28.86-66.82c0.03-0.02,0.06-0.05,0.09-0.07
				c10.16-8.4,14.2-12.55,15.8-14.75c12.09,4.98,28.23,7.41,49.11,7.53l54.89-1.33c15.57-0.85,28.43-2.86,38.88-6.14
				c3.36,4.1,13.52,7.85,16.87,9c0.05,0.02,0.1,0.03,0.14,0.04c28.19,7.37,57.64,36,54.83,65.29c-1.19,12.41-6.3,22.58-12.49,30.36
				c-11.3-28.42-46.39-32.94-57.71-33.65c6.29-11.06,7.99-25.83,8.07-26.51c0.12-1.1-0.67-2.09-1.77-2.21
				c-1.09-0.12-2.09,0.67-2.21,1.77c-0.01,0.05-0.18,1.51-0.59,3.81H226.69c-6.26-15.98-10.16-25.13-11.89-27.87
				c-3.72-5.91-9.57-7.29-13.42-5.6c-2.93,1.28-4.35,4.17-3.53,7.19c0.18,0.68,0.72,2.65,9.88,26.41c-2.89,0.35-5.74,1.47-8.37,3.3
				c-0.46,0.32-0.74,0.8-0.83,1.31c-11.61-2.69-22.95-13.28-23.09-13.41c-0.8-0.76-2.07-0.72-2.83,0.08
				c-0.76,0.8-0.72,2.07,0.08,2.83c0.65,0.62,15.17,14.14,29.41,15.06c-4.18,9.76-16.02,41.57-1.88,60.6
				c-6.52-0.92-12.96-2.54-18.87-4.85c-19.49-7.64-29-30.1-29.1-30.33c-0.42-1.02-1.59-1.5-2.61-1.08c-1.02,0.42-1.5,1.59-1.08,2.61
				c0.26,0.63,4.37,10.35,12.8,19.44c-6.23,10.73-15.6,27.98-19.23,40.43C140.31,385.91,138.08,366.09,141.53,332.9z" style="fill:#bc7046"></path>
      </g>
      <g>
        <path d="M308.43,295.28c-12.52-9.96-27.27-18.67-43.42-20.6c-7.83-0.94-15.75-0.15-23.19,2.47
				c-7.15,2.51-13.58,6.61-19.32,11.51c1.26,3.11,2.66,6.63,4.2,10.57h86.5C311.62,297.88,310.04,296.56,308.43,295.28z" style="fill:#fff3c2"></path>
      </g>
      <g>
        <path d="M372.21,375.1l4.72,14.49c-0.03,0.05-0.06,0.11-0.09,0.17c-28.44-13.99-63.91-13.74-90.88,0.75
				c-0.07-20.66-0.08-41.76-0.08-62.22c12.13-9.59,27.47-13.12,42.43-9.78c-0.81,1.61-1.7,3.16-2.69,4.57
				c-8.53,12.13-11.85,29.41-3.18,35.8c2.48,1.83,5.1,2.51,7.59,2.51c0.67,0,1.33-0.06,1.98-0.15c0.74,5.09,3.59,12.06,10.84,12.45
				c0.34,0.02,0.67,0.03,1,0.03c2.87,0,5.26-0.69,7.2-1.64c2.1,2.89,5.97,6.13,11.3,6.13c1.56,0,3.25-0.28,5.06-0.93
				c1.27-0.46,2.91-1.2,4.78-2.22C372.21,375.07,372.21,375.09,372.21,375.1z" style="fill:#fff"></path>
      </g>
      <g>
        <path d="M204.75,373.63c0.15,0.04,0.3,0.06,0.46,0.06c0.06,0,0.12-0.01,0.17-0.02c2.57,0.21,5.13,0.32,7.67,0.32
				c8.86,0,17.37-1.26,24.55-3.76c7.17,6.55,10.39,7.65,11.89,7.65c0.5,0,0.81-0.12,1.02-0.19c1.03-0.39,1.69-1.29,1.82-2.48
				c0.38-3.69,0.09-13.13,0.01-15.39c0.5-0.91,0.91-1.86,1.19-2.85c1.1-3.87,0.2-7.35-0.6-9.38c2.35-1.52,4.31-3.69,5.08-6.76
				c1.66-6.64-3.8-10.98-8.56-13.11c1.26-1.59,2.15-3.45,2.59-5.52c0.22-1.03,0.31-2.07,0.29-3.09c6.12,0.45,13.23,1.31,20.44,4
				c1.85,0.93,3.77,1.88,6.61,2.84c1.21,0.61,2.53,1.29,2.53,1.91c0,19.99,0,40.61,0.07,60.84c-0.28-0.1-0.55-0.17-0.81-0.22
				c-1.1-0.2-1.89,0.12-2.39,0.6c-24.86-11.44-54.01-12.91-81.05-3.9c-0.09,0.03-0.18,0.07-0.26,0.11
				c-0.69,0.34-1.34,0.77-1.97,1.19c-0.17-0.47-0.43-0.83-0.74-1.09l1.59-12.85C199.12,373.02,201.93,373.39,204.75,373.63z" style="fill:#fff"></path>
      </g>
      <g>
        <path d="M206.54,308.39c1.62-0.15,3.22-0.31,4.81-0.48c0.35,0.28,0.78,0.44,1.23,0.44c0.24,0,0.49-0.04,0.72-0.14
				c0.33-0.13,0.6-0.34,0.82-0.6c4.16-0.44,8.22-0.85,12.07-0.92c0.35,0.09,0.72,0.09,1.08-0.01c6.02-0.01,11.48,0.89,15.89,3.89
				c3.97,2.7,5.83,6.74,4.97,10.79c-0.85,3.98-4.15,6.94-8.62,7.74c-1.09,0.19-1.81,1.23-1.62,2.32c0.17,0.97,1.02,1.65,1.97,1.65
				c0.12,0,0.23-0.01,0.35-0.03c2.21-0.39,4.21-1.2,5.93-2.32c2.48,0.87,9.32,3.8,7.99,9.13c-0.58,2.34-2.37,3.94-4.47,5.03
				c-0.13,0.05-0.25,0.11-0.37,0.18c-0.01,0-0.01,0.01-0.01,0.01c-4.02,1.93-8.99,2.13-9.06,2.13c-1.1,0.03-1.97,0.95-1.94,2.06
				c0.03,1.08,0.92,1.94,2,1.94c0.02,0,0.04,0,0.06,0c0.33-0.01,4.67-0.17,9.02-1.82c0.54,1.5,1.09,3.91,0.35,6.5
				c-0.94,3.33-3.74,6.17-8.31,8.46c-9.25,4.62-22.18,6.43-35.29,5.42C188.17,352.2,203.6,314.99,206.54,308.39z" style="fill:#e2a06a"></path>
      </g>
      <g>
        <path d="M330,314.78c-16.02-3.81-32.49-0.31-45.63,9.64c-0.98-0.94-2.26-1.58-3.33-2.12
				c-0.08-0.04-0.17-0.08-0.26-0.11c-2.69-0.9-4.45-1.78-6.32-2.71c-0.06-0.03-0.13-0.06-0.19-0.08
				c-8.12-3.04-16.01-3.91-22.66-4.36c-0.01,0-0.02,0-0.02,0c-1.05-3.01-3.16-5.74-6.17-7.78c-3.23-2.19-6.81-3.42-10.65-4.05h98.75
				C332.74,306.63,331.61,310.77,330,314.78z" style="fill:#8df7ff"></path>
      </g>
      <g>
        <path d="M223.48,301.99C223.48,302,223.48,302,223.48,301.99c0.1,0.26,0.2,0.52,0.3,0.78
				c-3.28,0.16-6.66,0.51-10.11,0.87c-9.26-23.91-11.63-30.49-11.97-31.75c-0.38-1.42,0.48-2.13,1.28-2.48
				c1.85-0.81,5.62-0.4,8.43,4.07C212.54,275.27,215.56,281.73,223.48,301.99z" style="fill:#ffcad5"></path>
      </g>
      <g>
        <path d="M209.55,304.08c-1.5,0.16-3.02,0.31-4.52,0.43c-0.34,0.03-0.69,0.04-1.03,0.05c1.7-0.8,3.46-1.26,5.22-1.33
				C209.34,303.52,209.44,303.79,209.55,304.08z" style="fill:#bc7046"></path>
      </g>
      <g>
        <path d="M248.44,373.5c-1.49-0.78-4.05-2.67-6.67-4.92c0.47-0.21,0.94-0.43,1.39-0.66c2.06-1.03,3.82-2.18,5.3-3.43
				C248.52,367.46,248.56,371.1,248.44,373.5z" style="fill:#fff"></path>
      </g>
      <g>
        <path d="M197.65,389.84c0.52-0.35,1.02-0.67,1.48-0.91c23.37-7.75,48.35-7.39,70.5,0.72
				c-7.61-1.13-18.07-2.12-29.39-1.52c-18.63,0.97-36.81,7.25-42.49,9.36l-2.81-6.09C195.96,390.94,196.86,390.35,197.65,389.84z" style="fill:#bfff8d"></path>
      </g>
      <g>
        <path d="M378.21,394.99l-0.81,4.29c-3.94-1.93-12.69-5.65-27.41-9.2c-13.5-3.25-37.86-1.59-53.73,0.04
				C321.85,379.81,353.21,381.44,378.21,394.99z" style="fill:#bfff8d"></path>
      </g>
      <g>
        <path d="M366.07,373.51c-6.14,2.21-10-1.48-11.64-3.65c2.05-1.74,3.08-3.45,3.17-3.6c0.55-0.95,0.23-2.17-0.71-2.72
				c-0.95-0.56-2.17-0.24-2.74,0.7c-0.08,0.13-1.17,1.9-3.37,3.39c-0.1,0.06-0.2,0.12-0.29,0.19c-1.78,1.13-4.22,2.05-7.4,1.87
				c-5.35-0.29-6.77-6.63-7.14-9.51c2.13-0.85,3.93-2,5.11-3.01c0.84-0.72,0.94-1.98,0.22-2.82c-0.72-0.84-1.98-0.94-2.82-0.22
				c-0.07,0.06-7.33,6.16-13.62,1.52c-6.21-4.58-3.23-19.28,3.49-29.41c6.91,0.19,46.82,2.64,57.22,33.22c0,0,0.01,0.01,0.01,0.01
				C378.64,366.99,370.99,371.74,366.07,373.51z" style="fill:#e2a06a"></path>
      </g>
      <g>
        <path d="M146.37,417.91l0.36-1.98c1.87,1.15,4.2,2.04,7,2.7c1.98,0.47,4.21,0.82,6.7,1.1v29.8
				C151.38,441.95,145.94,429.92,146.37,417.91z" style="fill:#bc7046"></path>
      </g>
      <g>
        <path d="M182.43,481.21h-10.29c-4.25,0-7.72-3.46-7.72-7.72v-53.4c0.86,0.06,1.74,0.12,2.64,0.17
				c0.01,0,0.03,0,0.04,0c0.84,0.05,1.7,0.09,2.57,0.12c0.19,0.01,0.38,0.02,0.57,0.02c0.73,0.03,1.48,0.05,2.24,0.08
				c0.22,0.01,0.44,0.01,0.67,0.02c0.81,0.02,1.64,0.04,2.48,0.06c0.15,0,0.3,0.01,0.45,0.01c2.04,0.04,4.19,0.07,6.43,0.1
				c0.27,0,0.56,0.01,0.84,0.01c0.82,0.01,1.65,0.02,2.49,0.02c0.51,0,1.02,0.01,1.54,0.01c0.43,0,0.86,0.01,1.3,0.01
				c0.49,0,0.96,0.01,1.45,0.01v45.15c-0.08,0.14-0.14,0.29-0.18,0.45c-0.13,0.5-0.04,1,0.18,1.43v5.72
				C190.15,477.75,186.69,481.21,182.43,481.21z" style="fill:#8df7ff"></path>
      </g>
      <g>
        <path d="M194.15,420.77c1.77,0.01,3.57,0.03,5.44,0.05c0.53,0.01,14.4,0.12,35.02,0.2l-2.01,1.52
				c-0.16,0.12-0.31,0.27-0.42,0.44c-0.38,0.54-9.29,13.34-6.8,31.64c1.27,9.29,4.66,15.16,7.8,18.73
				c-17.13-2.83-33.72-6.74-39.03-8.02V420.77z" style="fill:#bc7046"></path>
      </g>
      <g>
        <path d="M240.83,474.53c-1.42-0.71-9.43-5.35-11.49-20.45c-2.1-15.39,4.8-26.8,5.94-28.55l3.99-3.02
				c0.48-0.36,0.74-0.91,0.78-1.47c8.78,0.03,18.57,0.05,28.94,0.06l-1.67,1.47c-1.18,0.86-10.14,8-10.14,25.34
				c0,13.03,5.04,23.63,7.88,28.57C258.29,476.62,249.71,475.8,240.83,474.53z" style="fill:#e2a06a"></path>
      </g>
      <g>
        <path d="M270.22,476.13c-0.21,0.03-0.43,0.05-0.64,0.07c-2.03-3.22-8.39-14.38-8.39-28.3
				c0-15.93,8.18-21.88,8.52-22.12c0.07-0.04,0.13-0.09,0.19-0.15l5.16-4.54c6.78,0,13.76-0.01,20.82-0.03
				c0.03,0.41,0.19,0.82,0.48,1.16l2.82,3.22c0.07,0.09,0.17,0.18,0.26,0.25c0.07,0.05,6.56,5.5,7.3,21.89
				c0.36,7.82-2.89,13.54-7.7,17.72c-0.12,0.08-0.23,0.18-0.33,0.29C290.29,472.7,277.32,475.25,270.22,476.13z" style="fill:#e2a06a"></path>
      </g>
      <g>
        <path d="M304.27,465.83c4.54-5.07,6.78-11.28,6.46-18.42c-0.78-17.12-7.44-23.66-8.65-24.71l-1.44-1.64
				c8.96-0.03,18.01-0.08,26.94-0.15c0,0.38,0.1,0.76,0.33,1.1l2.03,3.08c0.22,0.46,0.59,0.88,1.12,1.5
				c1.91,2.22,6.4,7.42,6.7,18.15c0.38,13.38-3.79,22.35-3.83,22.45c-0.29,0.61-0.24,1.3,0.07,1.85
				C324.24,469.13,314.23,468.08,304.27,465.83z" style="fill:#e2a06a"></path>
      </g>
      <g>
        <path d="M379.56,458.71c-12.4,6.21-26.85,9.66-42.07,10.26c0.01-0.02,0.03-0.03,0.04-0.05
				c0.19-0.4,4.63-9.87,4.22-24.29c-0.35-12.14-5.48-18.1-7.67-20.64c-0.21-0.24-0.46-0.54-0.57-0.68
				c-0.04-0.09-0.09-0.18-0.15-0.26l-1.42-2.16c17.62-0.15,34.59-0.4,49.1-0.78v38.49C380.57,458.44,380.04,458.46,379.56,458.71z" style="fill:#bc7046"></path>
      </g>
      <g>
        <path d="M410.77,418.9v54.59c0,4.25-3.46,7.72-7.72,7.72h-10.29c-4.25,0-7.72-3.46-7.72-7.72v-53.5
				c0.18,0,0.34-0.01,0.51-0.02c0.55-0.02,1.08-0.03,1.62-0.05C396.9,419.64,404.82,419.29,410.77,418.9z" style="fill:#8df7ff"></path>
      </g>
      <g>
        <path d="M433.06,405.93c-1.52,3.35-4.96,5.89-10.22,7.55c-1.55,0.49-4.99,0.92-9.92,1.29
				c-0.1-0.01-0.19-0.01-0.29-0.01c-6.83,0.5-16.8,0.94-29.63,1.28c-0.07,0-0.13,0.02-0.2,0.03c-55.57,1.48-151.52,1.05-183.17,0.74
				c-2.59-0.02-5.06-0.04-7.46-0.06c0,0,0,0,0,0l-0.91-0.01c-0.24,0-0.47,0-0.71-0.01c-25.34-0.18-38.1-0.61-43.18-5.37
				c-0.16-0.58-0.57-1.06-1.13-1.3c-1.11-1.61-1.61-3.61-1.61-6.12c0-7.66,7.17-24.43,19.67-46.1c4.28,4.03,9.46,7.72,15.61,10.13
				c3.98,1.56,8.19,2.81,12.5,3.76l-2.24,18.12c0,0,0,0,0,0c0,0,0,0,0,0c0,0,0,0,0,0c0,0,0,0,0,0v0c0,0,0,0,0,0c0,0,0,0,0,0
				c0,0,0,0,0,0c0,0,0,0,0,0s0,0,0,0c0,0,0,0.01,0,0.01c0,0,0,0,0,0c0,0.03,0,0.06,0,0.09c-0.01,0.11,0,0.21,0.01,0.32
				c0.01,0.05,0.01,0.1,0.02,0.15c0.02,0.1,0.05,0.2,0.08,0.3c0.01,0.04,0.02,0.07,0.03,0.11c0,0,0,0,0,0c0,0,0,0,0,0l0,0
				c0,0,0,0,0,0c0,0,0,0,0,0c0.01,0.02,0.01,0.03,0.02,0.04c0,0,0,0.01,0,0.01l4.57,9.91c0.45,0.97,1.57,1.42,2.56,1.02
				c0.21-0.09,21.65-8.65,42.98-9.76c21.33-1.12,40.17,3.7,40.36,3.75c0.26,0.07,0.53,0.08,0.79,0.04c0.05-0.01,0.57-0.08,1.48-0.2
				c0.15,0.08,0.31,0.13,0.47,0.17c0.02,0,0.03,0.02,0.05,0.02c0,0,0,0,0,0c0,0,0,0,0,0c0,0,0,0,0,0l0,0c0,0,0,0,0,0c0,0,0,0,0,0
				c0,0,0,0,0,0s0,0,0,0h0c0,0,0,0,0,0c0,0,0.01,0,0.01,0c0,0,0,0,0,0c0,0,0,0,0,0c0,0,0,0,0,0c0,0,0,0,0,0c0,0,0,0,0,0c0,0,0,0,0,0
				h0c0.05,0.01,0.11,0.01,0.16,0.02c0,0,0,0,0,0c0,0,0,0,0,0c0,0,0,0,0,0c0,0,0,0,0,0c0,0,0,0,0,0c0,0,0,0,0,0
				c0.01,0,0.01,0,0.02,0c0,0,0,0,0,0h0c0,0,0,0,0,0c0,0,0,0,0,0s0,0,0,0s0,0,0,0c0,0,0,0,0,0h0c0,0,0,0,0,0c0,0,0,0,0,0
				c0,0,0,0,0,0c0.02,0,0.05,0,0.07,0c0,0,0,0,0,0s0,0,0,0c0.03,0,0.06-0.01,0.1-0.01c0.14-0.01,0.28-0.02,0.41-0.05
				c0.06-0.02,0.12-0.05,0.19-0.08c0.1-0.04,0.2-0.07,0.29-0.12c0,0,0.01-0.01,0.01-0.01c0,0,0.01,0,0.02-0.01
				c0.15-0.09,0.3-0.17,0.45-0.25c11.69-1.48,47-5.43,63.61-1.43c19.94,4.8,28.68,10,28.77,10.05c0.32,0.19,0.68,0.29,1.04,0.29
				c0.28,0,0.55-0.06,0.81-0.17c0.6-0.27,1.03-0.81,1.15-1.45l1.59-8.38c0.02-0.09,0.02-0.19,0.02-0.28c0-0.03,0.01-0.06,0.01-0.09
				c0-0.17-0.02-0.34-0.07-0.51c0-0.01,0-0.03-0.01-0.04c0,0,0,0,0,0c0,0,0,0,0,0c0,0,0,0,0,0v0c0,0,0,0,0,0c0,0,0,0,0,0s0,0,0,0
				c0,0,0,0,0,0s0,0,0,0c0,0,0,0,0,0c0,0,0,0,0,0c0,0,0,0,0,0c0,0,0,0,0,0v0c0,0,0,0,0,0l0,0c0,0,0,0,0,0v0c0,0,0,0,0,0l-6.34-19.44
				c-0.1-0.31-0.27-0.56-0.48-0.78c9.23-5.89,21.73-17.37,27.11-35.13c6.48,11.39,25.16,44.41,28.87,52.92
				C434.24,397.13,434.76,402.19,433.06,405.93z" style="fill:#8df7ff"></path>
      </g>
      <g>
        <path d="M247.9,233.18c0.34,0,0.71-0.03,1.07-0.05c0.94,3.95,4.84,10.29,14.05,10.29c0.42,0,0.85-0.01,1.29-0.04
				c9.91-0.61,13.05-7.52,13.46-11.86c10.66-1,11.11-8.7,11.11-8.79c0.04-1.09-0.79-1.99-1.88-2.06c-1.06-0.05-2.03,0.77-2.11,1.86
				c-0.04,0.5-0.61,4.89-8.92,5.09c-0.11,0-0.21,0-0.31,0c-8.7,0-11.77-8.94-11.89-9.31c0-0.01-0.01-0.02-0.01-0.03
				c3.84-1.21,12.38-4.55,12.01-10.16c-0.19-2.85-3.12-5.05-8.25-6.19c-6.96-1.56-15.8-0.62-18.46,4.18
				c-0.95,1.71-1.06,3.5-0.31,5.17c1.78,3.98,8.24,6.22,11.21,7.07c-0.04,0.12-0.07,0.24-0.08,0.37c-0.04,0.35-1.03,8.54-9.48,10.2
				c-8.23,1.62-11.04-5.06-11.16-5.37c-0.4-1.02-1.56-1.53-2.59-1.13c-1.03,0.4-1.54,1.56-1.14,2.59
				C236.69,228.08,240.7,233.18,247.9,233.18z" style="fill:#bc7046"></path>
      </g>
      <g>
        <path d="M252.38,209.65c-0.16-0.36-0.27-0.83,0.16-1.6c0.99-1.78,4.5-2.82,8.61-2.82c1.77,0,3.65,0.19,5.48,0.6
				c3.8,0.85,5.11,2.19,5.13,2.55c0.15,2.23-5.56,5.02-10,6.31C258.27,213.82,253.33,211.78,252.38,209.65z" style="fill:#bc7046"></path>
      </g>
      <g>
        <path d="M262.32,224.22c2.29,3.31,6.01,6.65,11.4,7.3c-0.33,2.28-1.93,7.4-9.67,7.87
				c-8.34,0.51-10.61-5.06-11.15-6.98C257.82,230.88,260.75,227.46,262.32,224.22z" style="fill:#ff0303"></path>
      </g>
      <g>
        <path d="M307.97,155.89C307.97,155.89,307.97,155.89,307.97,155.89c-0.01-0.01-0.02-0.01-0.03-0.02
				C307.94,155.88,307.96,155.88,307.97,155.89z" style="fill:#bc7046"></path>
      </g>
      <g>
        <path d="M219.18,197.25c-13.66,0.33-14.15-20.86-0.51-21.19C232.33,175.72,232.82,196.92,219.18,197.25z" style="fill:#bc7046"></path>
      </g>
      <g>
        <path d="M213.09,157.3c0.88-1.39,2.32-2.17,3.95-2.31c1.44-0.13,3.04,0.4,4.02,1.49c0.57,0.63,0.63,1.48,0.05,2.14
				c-0.51,0.58-1.61,0.64-2.14,0.05c-0.09-0.1-0.19-0.2-0.29-0.29c-0.01-0.01-0.02-0.02-0.03-0.03c-0.01,0,0,0-0.01-0.01
				c-0.11-0.06-0.21-0.13-0.32-0.18c-0.01-0.01-0.03-0.01-0.04-0.02c-0.21-0.06-0.41-0.1-0.62-0.15c-0.04,0-0.09,0-0.13-0.01
				c-0.11,0-0.23,0-0.34,0.01c-0.04,0-0.08,0.01-0.12,0.01c-0.1,0.02-0.19,0.04-0.29,0.07c-0.12,0.03-0.23,0.08-0.34,0.12
				c-0.02,0.01-0.04,0.03-0.05,0.03c-0.09,0.05-0.17,0.1-0.25,0.15c0.03-0.03-0.04,0.01-0.11,0.07c0,0,0,0,0,0
				c-0.03,0.02-0.06,0.05-0.09,0.07c0.04-0.02,0.05-0.03,0.08-0.05c-0.07,0.06-0.13,0.13-0.19,0.2c0.03-0.04,0-0.01-0.04,0.04
				c0,0-0.01,0.01-0.01,0.01c-0.04,0.04-0.07,0.09-0.11,0.13c0.04-0.04,0.05-0.06,0.08-0.09c0,0,0,0,0,0
				c-0.45,0.72-1.29,0.98-2.06,0.59C212.98,159.01,212.67,157.97,213.09,157.3z" style="fill:#bc7046"></path>
      </g>
      <g>
        <path d="M301.8,155.4c-0.48-0.7-0.15-1.63,0.49-2.08c2.38-1.67,5.75-1.37,7.91,0.51c0.64,0.55,0.57,1.55,0.05,2.14
				c-0.56,0.64-1.54,0.57-2.14,0.05c-0.05-0.04-0.09-0.08-0.14-0.12c0.02,0.01,0.03,0.02,0.05,0.03c-0.02-0.01-0.03-0.02-0.05-0.03
				c-0.01-0.01-0.01-0.01-0.02-0.02c-0.14-0.11-0.09-0.06-0.01,0c-0.08-0.05-0.16-0.11-0.24-0.15c-0.1-0.06-0.2-0.11-0.3-0.16
				c-0.04-0.02-0.08-0.04-0.11-0.05c-0.23-0.03-0.47-0.15-0.7-0.2c-0.05-0.01-0.25-0.04-0.3-0.05c-0.05,0-0.09-0.01-0.11-0.01
				c-0.26-0.01-0.52,0-0.77,0.02c-0.02,0-0.05,0.01-0.07,0.01c-0.12,0.03-0.25,0.05-0.37,0.09c-0.12,0.04-0.25,0.07-0.37,0.12
				c-0.03,0.01-0.05,0.02-0.08,0.03c-0.09,0.06-0.21,0.11-0.3,0.16c-0.11,0.07-0.22,0.14-0.32,0.21
				C303.19,156.38,302.24,156.05,301.8,155.4z" style="fill:#bc7046"></path>
      </g>
      <g>
        <path d="M216.07,158.43c0.02-0.01,0.04-0.03,0.07-0.04c-0.01,0.01-0.05,0.04-0.12,0.09
				c0.01-0.01,0.01-0.01,0.02-0.02C216.04,158.45,216.05,158.44,216.07,158.43z" style="fill:#bc7046"></path>
      </g>
      <g>
        <path d="M306.25,173.93c13.66-0.33,14.15,20.86,0.51,21.19C293.1,195.45,292.61,174.26,306.25,173.93z" style="fill:#bc7046"></path>
      </g>
      <g>
        <path d="M215.78,158.71c0.01-0.01,0.03-0.03,0.04-0.04c-0.01,0.02-0.04,0.05-0.08,0.09
				C215.75,158.75,215.77,158.73,215.78,158.71z" style="fill:#bc7046"></path>
      </g>
    </g>
    <g>
      <g>
        <g id="_x31__00000066507451752416913980000000720863045527493284_">
          <g>
            <path d="M239.85,333.08c-0.95,0-1.79-0.68-1.97-1.65c-0.19-1.09,0.53-2.13,1.62-2.32c4.47-0.8,7.78-3.76,8.62-7.74
						c0.87-4.06-0.99-8.09-4.97-10.79c-7.72-5.25-18.65-4.07-30.21-2.83c-2.47,0.27-5.03,0.54-7.57,0.75
						c-15.24,1.26-31.97-14.38-32.68-15.04c-0.8-0.76-0.84-2.02-0.08-2.83c0.76-0.8,2.02-0.84,2.83-0.08
						c0.16,0.15,16.16,15.1,29.6,13.96c2.49-0.21,5.03-0.48,7.48-0.74c12.32-1.32,23.96-2.57,32.89,3.5
						c5.29,3.6,7.83,9.32,6.63,14.94c-1.2,5.6-5.73,9.75-11.83,10.84C240.08,333.07,239.96,333.08,239.85,333.08z" style="fill:#873c1e"></path>
          </g>
          <g>
            <path d="M240.25,351.21c-1.08,0-1.97-0.86-2-1.94c-0.03-1.1,0.84-2.03,1.94-2.06c0.12,0,12.21-0.47,13.93-7.35
						c1.61-6.45-8.76-9.38-8.86-9.41c-1.06-0.29-1.69-1.39-1.4-2.46c0.29-1.06,1.39-1.69,2.45-1.4c4.94,1.34,13.74,6.05,11.69,14.24
						c-2.45,9.82-17.07,10.36-17.69,10.38C240.29,351.21,240.27,351.21,240.25,351.21z" style="fill:#873c1e"></path>
          </g>
          <g>
            <path d="M213.05,374c-11.2,0-22.93-2-33.15-6.01c-21.09-8.27-30.92-31.53-31.33-32.52
						c-0.42-1.02,0.06-2.19,1.08-2.61c1.02-0.42,2.19,0.06,2.61,1.08c0.09,0.23,9.61,22.68,29.1,30.33
						c19.54,7.66,44.77,7.69,60.01,0.07c4.57-2.29,7.37-5.13,8.31-8.46c1.2-4.24-1.03-8.02-1.06-8.06
						c-0.58-0.94-0.29-2.17,0.65-2.75c0.94-0.58,2.17-0.29,2.75,0.65c0.13,0.21,3.2,5.27,1.5,11.26
						c-1.26,4.45-4.75,8.13-10.37,10.94C235.05,371.97,224.32,374,213.05,374z" style="fill:#873c1e"></path>
          </g>
          <g>
            <path d="M205.2,373.69c-0.49,0-0.98-0.18-1.36-0.54c-22.58-20.98-1.35-65.63-0.44-67.52
						c0.48-0.99,1.68-1.41,2.67-0.93c0.99,0.48,1.41,1.68,0.93,2.67c-0.21,0.44-20.85,43.88-0.44,62.85
						c0.81,0.75,0.86,2.02,0.1,2.83C206.27,373.48,205.74,373.69,205.2,373.69z" style="fill:#873c1e"></path>
          </g>
          <g>
            <path d="M330.05,361.39c-2.5,0-5.11-0.69-7.59-2.51c-8.67-6.39-5.36-23.67,3.18-35.79
						c7.26-10.32,9.25-27.5,9.27-27.67c0.12-1.1,1.12-1.89,2.21-1.77c1.1,0.12,1.89,1.11,1.77,2.21
						c-0.08,0.74-2.11,18.36-9.97,29.53c-7.13,10.13-10.46,25.56-4.07,30.27c6.26,4.61,13.33-1.27,13.63-1.52
						c0.84-0.71,2.1-0.61,2.82,0.23c0.72,0.84,0.62,2.1-0.22,2.81C338.89,359.03,334.67,361.39,330.05,361.39z" style="fill:#873c1e"></path>
          </g>
          <g>
            <path d="M343.87,373.71c-0.33,0-0.66-0.01-1-0.03c-8.47-0.46-10.94-9.89-11.05-14.82
						c-0.03-1.1,0.85-2.02,1.95-2.05c1.09-0.03,2.02,0.84,2.05,1.95c0,0.14,0.38,10.55,7.27,10.92c7.5,0.39,10.92-5.22,11.06-5.45
						c0.56-0.95,1.79-1.26,2.74-0.7c0.95,0.56,1.27,1.77,0.71,2.72C357.41,366.58,353.14,373.71,343.87,373.71z" style="fill:#873c1e"></path>
          </g>
          <g>
            <path d="M362.37,378.2c-6.48,0-10.81-4.79-12.41-7.91c-0.5-0.98-0.11-2.19,0.87-2.69c0.98-0.5,2.18-0.12,2.69,0.86
						c0.18,0.34,4.31,8.02,12.55,5.05c10.26-3.69,32.3-20.25,34.94-47.86c2.81-29.29-26.64-57.92-54.83-65.29
						c-0.05-0.01-0.1-0.03-0.14-0.04c-3.76-1.29-16.17-5.88-17.79-10.56c-0.36-1.04,0.19-2.18,1.24-2.54
						c1.04-0.36,2.18,0.19,2.54,1.24c0.66,1.9,8.4,5.69,15.24,8.06c29.72,7.81,60.73,38.26,57.73,69.52
						c-3.06,31.89-28.79,48.08-37.57,51.24C365.62,377.92,363.93,378.2,362.37,378.2z" style="fill:#873c1e"></path>
          </g>
          <g>
            <path d="M387.43,360.82c-0.83,0-1.61-0.52-1.89-1.36c-11.33-33.31-57.79-33.26-58.25-33.24c-0.01,0-0.01,0-0.02,0
						c-1.1,0-1.99-0.88-2-1.98c-0.01-1.1,0.87-2.01,1.98-2.02c0.52,0,49.81-0.11,62.08,35.95c0.36,1.05-0.2,2.18-1.25,2.54
						C387.86,360.79,387.64,360.82,387.43,360.82z" style="fill:#873c1e"></path>
          </g>
          <g>
            <path d="M141.95,404.78c-0.8,0-1.56-0.48-1.86-1.28c-0.32-0.82-7.77-20.77-2.54-71.02
						c5.2-50,28.82-68.4,30.42-69.59c6.46-5.35,13.79-11.97,15.21-14.08c-0.03-0.42,0.06-0.85,0.31-1.23
						c0.59-0.93,1.83-1.21,2.76-0.62c0.62,0.39,1,1.04,1.05,1.79c0.07,1.03,0.2,3.19-16.82,17.25c-0.03,0.02-0.06,0.05-0.09,0.07
						c-0.23,0.17-23.79,18.08-28.86,66.82c-5.11,49.09,2.22,68.97,2.29,69.17c0.39,1.03-0.12,2.19-1.15,2.58
						C142.44,404.74,142.19,404.78,141.95,404.78z M184.1,250.34C184.1,250.34,184.1,250.34,184.1,250.34
						C184.1,250.34,184.1,250.34,184.1,250.34z" style="fill:#873c1e"></path>
          </g>
          <g>
            <path d="M162.09,455.32c-0.39,0-0.78-0.11-1.13-0.35c-11.87-8.1-19.17-22.77-18.59-37.36
						c0-0.09,0.01-0.19,0.03-0.28l1.06-5.79c0.2-1.09,1.25-1.81,2.33-1.61c1.09,0.2,1.81,1.24,1.61,2.33l-1.04,5.64
						c-0.47,13.2,6.13,26.44,16.85,33.76c0.91,0.62,1.15,1.87,0.52,2.78C163.36,455.02,162.73,455.32,162.09,455.32z" style="fill:#873c1e"></path>
          </g>
          <g>
            <path d="M263.52,480.49c-25.27,0-70.02-11.19-72.1-11.71c-1.07-0.27-1.72-1.36-1.45-2.43
						c0.27-1.07,1.35-1.72,2.43-1.45c0.56,0.14,55.89,13.98,77.82,11.23c11.31-1.41,37.5-7.02,36.52-28.54
						c-0.74-16.35-7.22-21.83-7.29-21.88c-0.1-0.08-0.19-0.17-0.28-0.26l-2.82-3.22c-0.73-0.83-0.64-2.09,0.19-2.82
						c0.83-0.73,2.09-0.64,2.82,0.19l2.72,3.11c1.21,1.05,7.87,7.59,8.65,24.71c0.79,17.5-13.79,29.41-40.02,32.69
						C268.57,480.37,266.15,480.49,263.52,480.49z" style="fill:#873c1e"></path>
          </g>
          <g>
            <path d="M268.57,480.31c-0.62,0-1.24-0.29-1.63-0.83c-0.4-0.56-9.76-13.81-9.76-31.57
						c0-17.34,8.96-24.47,10.14-25.33l5.63-4.96c0.83-0.73,2.09-0.65,2.82,0.18c0.73,0.83,0.65,2.09-0.18,2.82l-5.71,5.02
						c-0.06,0.05-0.12,0.1-0.19,0.15c-0.34,0.24-8.52,6.18-8.52,22.12c0,16.49,8.92,29.11,9.01,29.24c0.64,0.9,0.44,2.15-0.46,2.79
						C269.38,480.18,268.97,480.31,268.57,480.31z" style="fill:#873c1e"></path>
          </g>
          <g>
            <path d="M240.25,478.47c-0.26,0-0.52-0.05-0.77-0.16c-0.47-0.2-11.56-5.05-14.1-23.69
						c-2.5-18.3,6.42-31.11,6.8-31.64c0.12-0.17,0.26-0.31,0.42-0.44l4.26-3.22c0.88-0.67,2.14-0.49,2.8,0.39
						c0.67,0.88,0.49,2.14-0.39,2.8l-3.99,3.02c-1.14,1.76-8.04,13.16-5.94,28.55c2.21,16.24,11.31,20.38,11.7,20.55
						c1.01,0.44,1.48,1.61,1.05,2.62C241.76,478.01,241.02,478.47,240.25,478.47z" style="fill:#873c1e"></path>
          </g>
          <g>
            <path d="M332.69,473.06c-10.85,0-21.99-1.38-33-4.18c-1.07-0.27-1.72-1.36-1.45-2.43s1.36-1.71,2.43-1.45
						c27.95,7.11,56.7,4.82,78.88-6.29c0.99-0.5,2.19-0.1,2.68,0.89c0.5,0.99,0.1,2.19-0.89,2.68
						C367.11,469.42,350.29,473.06,332.69,473.06z" style="fill:#873c1e"></path>
          </g>
          <g>
            <path d="M335.73,470.05c-0.29,0-0.58-0.06-0.86-0.2c-1-0.48-1.42-1.67-0.94-2.67c0.05-0.1,4.22-9.06,3.83-22.45
						c-0.31-10.72-4.79-15.93-6.7-18.15c-0.53-0.62-0.9-1.04-1.12-1.5l-2.03-3.08c-0.61-0.92-0.35-2.16,0.57-2.77
						c0.92-0.61,2.16-0.35,2.77,0.57l2.12,3.22c0.06,0.08,0.1,0.17,0.15,0.26c0.1,0.14,0.36,0.44,0.57,0.68
						c2.19,2.54,7.32,8.5,7.67,20.64c0.41,14.42-4.03,23.89-4.22,24.29C337.19,469.63,336.47,470.05,335.73,470.05z M333.59,423.5
						C333.59,423.5,333.6,423.5,333.59,423.5C333.6,423.5,333.59,423.5,333.59,423.5z" style="fill:#873c1e"></path>
          </g>
        </g>
        <g id="body_00000044178767120604773960000011268124382985383572_">
          <g>
            <g>
              <path d="M212.58,308.36c-0.8,0-1.56-0.49-1.87-1.28c-12.05-31.1-12.67-33.38-12.88-34.14
							c-0.81-3.01,0.61-5.9,3.54-7.19c3.85-1.69,9.7-0.31,13.42,5.6c1.89,3,6.4,13.7,13.77,32.7c0.4,1.03-0.11,2.19-1.14,2.59
							c-1.03,0.4-2.19-0.11-2.59-1.14c-8.94-23.04-12.24-30.13-13.43-32.02c-2.81-4.46-6.59-4.88-8.43-4.07
							c-0.79,0.35-1.66,1.06-1.28,2.48c0.35,1.29,2.84,8.19,12.74,33.73c0.4,1.03-0.11,2.19-1.14,2.59
							C213.07,308.31,212.82,308.36,212.58,308.36z" style="fill:#873c1e"></path>
            </g>
          </g>
          <g>
            <g>
              <path d="M283.98,395.92C283.98,395.92,283.98,395.92,283.98,395.92C283.98,395.92,283.98,395.92,283.98,395.92
							C283.97,395.92,283.97,395.92,283.98,395.92c-0.01,0-0.01,0-0.01,0c0,0,0,0,0,0c0,0,0,0,0,0c0,0,0,0,0,0h0c0,0,0,0,0,0
							c0,0,0,0,0,0l0,0c-0.13,0-0.26-0.02-0.39-0.05l0,0c0,0,0,0,0,0l0,0c0,0,0,0,0,0l0,0c0,0,0,0,0,0c0,0,0,0,0,0c0,0,0,0,0,0l0,0
							c-0.18-0.04-0.35-0.11-0.51-0.2c-25.1-13.66-55.67-16.11-83.89-6.75c-0.46,0.24-0.95,0.57-1.48,0.91
							c-1.4,0.92-3.15,2.07-5.32,2.27c-0.04,0-0.08,0.01-0.12,0.01c0,0,0,0-0.01,0c0,0,0,0,0,0c0.01-0.01-0.04,0-0.06,0
							c-0.11,0-0.22-0.01-0.33-0.03l0,0c0,0,0,0-0.01,0l0,0c-0.25-0.04-0.49-0.13-0.71-0.27c0,0,0,0,0,0l0,0
							c-0.06-0.04-0.12-0.08-0.18-0.12h0c0,0,0,0,0,0c-0.19-0.14-0.34-0.32-0.46-0.51v0c0,0,0,0,0,0c0,0,0,0,0,0l0,0
							c-0.07-0.12-0.14-0.25-0.18-0.38c0,0,0,0,0,0c-0.1-0.28-0.14-0.58-0.11-0.88l0,0c0,0,0,0,0,0v0c0,0,0-0.01,0-0.01c0,0,0,0,0,0
							c0,0,0,0,0,0c0,0,0,0,0,0c0,0,0,0,0,0s0,0,0-0.01c0,0,0,0,0,0v0c0,0,0,0,0,0v0c0,0,0,0,0,0c0,0,0,0,0,0l2.4-19.49
							c0.14-1.1,1.14-1.86,2.23-1.74c1.1,0.14,1.88,1.13,1.74,2.23l-1.79,14.51c0.31,0.26,0.57,0.62,0.74,1.09
							c0.63-0.42,1.29-0.84,1.97-1.19c0.08-0.04,0.17-0.08,0.26-0.11c27.04-9.01,56.19-7.54,81.05,3.9c0.5-0.48,1.29-0.8,2.39-0.6
							c0.26,0.05,0.53,0.12,0.81,0.22c-0.07-20.23-0.07-40.84-0.07-60.84c0-0.62-1.32-1.3-2.53-1.91c-2.83-0.95-4.76-1.91-6.61-2.83
							c-7.6-2.83-15.09-3.65-21.43-4.08c-1.1-0.07-1.94-1.03-1.86-2.13c0.07-1.1,1.02-1.96,2.13-1.86
							c6.65,0.45,14.55,1.31,22.66,4.36c0.07,0.03,0.13,0.05,0.19,0.08c1.88,0.94,3.64,1.82,6.32,2.71
							c0.09,0.03,0.18,0.07,0.26,0.11c2.05,1.03,4.87,2.43,4.87,5.55c0,21.71,0,44.16,0.09,66.03c0,0.01,0,0.02,0,0.04
							c0,0,0,0.01,0,0.01l0,0c0,0,0,0,0,0c0,0,0,0,0,0l0,0c0,0,0,0,0,0v0c0,0,0,0,0,0s0,0,0,0c0,0,0,0,0,0c0,0,0,0,0,0c0,0,0,0,0,0
							c0,0,0,0,0,0c0,0,0,0,0,0c0,0,0,0,0,0v0c0,0,0,0,0,0c0,0,0,0,0,0l0,0c0,0,0,0,0,0c0,0,0,0,0,0v0c0,0,0,0,0,0l0,0c0,0,0,0,0,0
							l0,0c-0.03,0.68-0.39,1.3-0.98,1.65l0,0c0,0,0,0,0,0h0c0,0,0,0,0,0l0,0c0,0,0,0,0,0c0,0,0,0,0,0c0,0,0,0,0,0c0,0,0,0,0,0
							c0,0,0,0,0,0l0,0c0,0,0,0,0,0l0,0c-0.05,0.03-0.1,0.06-0.16,0.08l0,0c0,0,0,0,0,0c0,0,0,0,0,0l0,0c0,0,0,0,0,0c0,0,0,0,0,0
							c0,0,0,0,0,0c0,0,0,0,0,0s0,0,0,0s0,0,0,0c0,0,0,0,0,0l0,0C284.53,395.87,284.25,395.92,283.98,395.92z" style="fill:#873c1e"></path>
            </g>
            <g>
              <path d="M283.98,395.92c-0.68,0-1.35-0.35-1.72-0.98c-0.56-0.95-0.25-2.18,0.7-2.74
							c27.29-16.14,64.37-16.96,93.88-2.44c0.03-0.06,0.06-0.11,0.09-0.17l-4.72-14.49c-0.34-1.05,0.23-2.18,1.28-2.52
							c1.05-0.34,2.18,0.23,2.52,1.28l6.34,19.44c0,0,0,0,0,0c0,0,0,0,0,0c0,0,0,0,0,0c0,0,0,0,0,0c0,0,0,0,0,0c0,0,0,0,0,0l0,0
							c0,0,0,0,0,0c0,0,0,0,0,0s0,0,0,0c0,0,0,0,0,0c0,0,0,0,0,0l0,0c0,0,0,0,0,0l0,0c0.12,0.39,0.11,0.8-0.01,1.18v0c0,0,0,0,0,0
							l0,0c0,0,0,0,0,0l0,0c0,0,0,0,0,0c0,0,0,0,0,0c0,0,0,0,0,0c0,0,0,0,0,0c0,0,0,0,0,0c-0.03,0.1-0.07,0.19-0.12,0.28l0,0
							c0,0,0,0,0,0c0,0,0,0,0,0c0,0,0,0,0,0c0,0,0,0,0,0v0c0,0,0,0,0,0c0,0,0,0,0,0c0,0,0,0,0,0c0,0,0,0,0,0l0,0
							c-0.13,0.24-0.31,0.46-0.54,0.63c-0.09,0.07-0.18,0.13-0.28,0.18c0,0,0,0,0,0c0,0,0,0,0,0c-0.27,0.14-0.56,0.22-0.86,0.23l0,0
							c0,0,0,0-0.01,0h0c-0.18,0.01-0.36-0.01-0.54-0.05h0c0,0,0,0-0.01,0c0,0,0,0,0,0c-0.18-0.04-0.35-0.11-0.52-0.21
							c-28.97-16.29-66.93-16.3-94.46-0.01C284.68,395.83,284.33,395.92,283.98,395.92z" style="fill:#873c1e"></path>
            </g>
            <g>
              <path d="M283.98,329.24c-0.58,0-1.16-0.25-1.55-0.74c-0.7-0.86-0.57-2.12,0.29-2.81
							c13.57-11.07,31.03-14.99,47.91-10.77c1.07,0.27,1.72,1.35,1.46,2.43c-0.27,1.07-1.35,1.73-2.43,1.46
							c-15.64-3.91-31.83-0.27-44.41,9.99C284.87,329.09,284.43,329.24,283.98,329.24z" style="fill:#873c1e"></path>
            </g>
            <g>
              <path d="M378.86,404.3c-0.36,0-0.72-0.1-1.04-0.29c-0.08-0.05-8.83-5.25-28.77-10.05
							c-19.97-4.81-66.98,1.87-67.45,1.94c-0.26,0.04-0.53,0.02-0.79-0.04c-0.19-0.05-19.03-4.86-40.36-3.75
							c-21.33,1.11-42.77,9.68-42.98,9.76c-0.99,0.4-2.12-0.05-2.57-1.02l-4.57-9.91c-0.46-1-0.02-2.19,0.98-2.65
							c1-0.46,2.19-0.02,2.65,0.98l3.79,8.21c5.68-2.12,23.86-8.39,42.49-9.36c20.51-1.08,38.25,3.05,41.18,3.77
							c4.94-0.7,48.62-6.62,68.57-1.81c14.72,3.54,23.47,7.27,27.41,9.2l1.09-5.72c0.21-1.08,1.25-1.8,2.34-1.59
							c1.08,0.21,1.8,1.25,1.59,2.34l-1.59,8.38c-0.12,0.64-0.55,1.19-1.15,1.46C379.41,404.25,379.13,404.3,378.86,404.3z" style="fill:#873c1e"></path>
            </g>
          </g>
          <g>
            <g>
              <path d="M200.5,306.28c-0.63,0-1.25-0.3-1.64-0.86c-0.63-0.91-0.41-2.15,0.5-2.78c3.54-2.46,7.48-3.63,11.37-3.39
							c1.1,0.07,1.94,1.02,1.87,2.12c-0.07,1.1-1.03,1.95-2.12,1.87c-2.99-0.19-6.05,0.74-8.84,2.68
							C201.29,306.17,200.89,306.28,200.5,306.28z" style="fill:#873c1e"></path>
            </g>
            <g>
              <path d="M335.74,303.22H225.32c-1.1,0-2-0.9-2-2s0.9-2,2-2h110.42c1.1,0,2,0.9,2,2S336.84,303.22,335.74,303.22z" style="fill:#873c1e"></path>
            </g>
            <g>
              <path d="M274.17,421.1c-40.63,0-73.76-0.28-74.58-0.29c-2.98-0.03-5.83-0.05-8.55-0.07
							c-16.95-0.12-29.19-0.21-37.3-2.12c-9.07-2.14-13.12-6.67-13.12-14.67c0-11.65,13.15-35.99,20.99-49.46
							c0.56-0.96,1.78-1.28,2.73-0.72c0.96,0.56,1.28,1.78,0.72,2.73c-12.99,22.33-20.45,39.63-20.45,47.45
							c0,11.9,11.16,12.55,46.45,12.79c2.73,0.02,5.58,0.04,8.56,0.07c43.59,0.42,209.23,1.08,223.21-3.34
							c5.26-1.66,8.7-4.2,10.22-7.55c1.7-3.74,1.18-8.8-1.55-15.06c-4.48-10.28-30.82-56.34-31.09-56.8
							c-0.55-0.96-0.22-2.18,0.74-2.73c0.96-0.55,2.18-0.22,2.73,0.74c1.09,1.9,26.72,46.71,31.28,57.19
							c3.2,7.34,3.71,13.51,1.52,18.32c-2.01,4.42-6.27,7.69-12.66,9.71C414,420.47,335.54,421.1,274.17,421.1z" style="fill:#873c1e"></path>
            </g>
          </g>
          <g>
            <g>
              <path d="M182.43,485.21h-10.29c-6.46,0-11.72-5.26-11.72-11.72v-55.57c0-0.56,0.24-1.1,0.65-1.48
							c0.42-0.38,0.97-0.57,1.53-0.51c7.29,0.67,16.71,0.74,28.64,0.82l0.91,0.01c1.1,0.01,1.99,0.9,1.99,2v54.74
							C194.15,479.96,188.9,485.21,182.43,485.21z M164.43,420.09v53.4c0,4.25,3.46,7.72,7.72,7.72h10.29
							c4.25,0,7.72-3.46,7.72-7.72v-52.75C179.76,420.67,171.3,420.59,164.43,420.09z" style="fill:#873c1e"></path>
            </g>
            <g>
              <path d="M403.05,485.21h-10.29c-6.46,0-11.72-5.26-11.72-11.72v-55.45c0-1.08,0.86-1.97,1.95-2
							c12.81-0.34,22.78-0.78,29.63-1.28c0.55-0.05,1.1,0.15,1.51,0.53c0.41,0.38,0.64,0.91,0.64,1.47v56.74
							C414.77,479.96,409.51,485.21,403.05,485.21z M385.05,419.99v53.5c0,4.25,3.46,7.72,7.72,7.72h10.29
							c4.25,0,7.72-3.46,7.72-7.72V418.9C404.37,419.32,395.74,419.69,385.05,419.99z" style="fill:#873c1e"></path>
            </g>
          </g>
          <g>
            <path d="M249.49,377.88c-1.57,0-4.98-1.17-12.79-8.47c-0.81-0.75-0.85-2.02-0.1-2.83c0.75-0.81,2.02-0.85,2.83-0.1
						c3.34,3.12,7.08,6,9.01,7.01c0.23-4.62-0.11-13.91-0.12-14.01c-0.04-1.1,0.82-2.03,1.92-2.07c1.12-0.07,2.03,0.82,2.07,1.92
						c0.02,0.48,0.43,11.76,0,15.87c-0.12,1.19-0.79,2.1-1.82,2.48C250.3,377.76,249.99,377.88,249.49,377.88z" style="fill:#873c1e"></path>
          </g>
        </g>
      </g>
      <g id="head_ori_00000167385352809053491630000011404801537947021499_">
        <g id="head_00000040563042320279344780000012763691321914323844_">
          <g>
            <path d="M186.2,250.11c-0.11,0-0.23-0.02-0.34-0.06c-7.12-2.61-13.95-14.45-12.59-31.24
						c1.13-14.04,8.49-20.59,11.14-22.52c-1.35-2.12-4.16-8.29-6.22-24.57c-2.73-21.59,4.56-57.32,35.87-67.28
						c31.13-9.91,44.22,2.11,44.76,2.63c0.09,0.08,0.15,0.18,0.21,0.28c0.15-0.1,0.32-0.22,0.51-0.36
						c1.12-1.12,13.77-12.89,44.52-4.73c31.75,8.43,40.77,43.77,39.09,65.46c-1.27,16.36-3.78,22.65-5.03,24.84
						c2.74,1.79,10.41,7.98,12.22,21.95c2.17,16.7-4.08,28.86-11.06,31.81c-0.5,0.21-1.09-0.02-1.31-0.53
						c-0.21-0.51,0.02-1.09,0.53-1.31c6.39-2.71,11.83-14.56,9.86-29.71c-2.03-15.62-12.01-20.95-12.11-21
						c-0.28-0.14-0.48-0.41-0.53-0.72c-0.05-0.31,0.04-0.63,0.26-0.86c0.02-0.03,3.6-4.33,5.17-24.62
						c1.63-21.03-7.04-55.26-37.61-63.37c-30.32-8.05-42.5,4.12-42.62,4.25c-0.04,0.04-0.08,0.08-0.12,0.11
						c-1.22,0.91-2.49,1.73-3.4,0.97c-0.38-0.32-0.53-0.81-0.43-1.39c-2.55-1.95-15.58-10.29-42.3-1.79
						c-30.14,9.59-37.14,44.2-34.49,65.12c2.56,20.19,6.34,24.32,6.38,24.36c0.21,0.22,0.32,0.54,0.28,0.84
						c-0.04,0.3-0.22,0.58-0.49,0.73c-0.1,0.06-9.81,5.86-11.08,21.56c-1.23,15.23,4.77,26.81,11.29,29.2
						c0.52,0.19,0.78,0.76,0.59,1.28C186.99,249.86,186.61,250.11,186.2,250.11z" style="fill:#6d3612"></path>
          </g>
          <g>
            <path d="M150.12,159.2c-5.99,0-13.12-1.04-19.72-4.67c-8.37-4.61-14.17-12.52-17.23-23.49
						c-5.43-19.47-3.23-37.42,6.2-50.54c7.76-10.8,19.75-17.15,33.76-17.89c30.65-1.63,40.54,24.96,40.63,25.23
						c0.19,0.52-0.08,1.09-0.6,1.28c-0.52,0.18-1.09-0.08-1.28-0.6c-0.37-1.04-9.5-25.47-38.64-23.91
						c-13.4,0.71-24.85,6.77-32.25,17.06c-9.06,12.62-11.16,29.96-5.89,48.83c2.91,10.43,8.38,17.93,16.25,22.27
						c14.27,7.87,31.85,2.75,32.02,2.7c0.53-0.16,1.09,0.14,1.25,0.67s-0.14,1.09-0.67,1.25
						C163.53,157.52,157.76,159.2,150.12,159.2z" style="fill:#6d3612"></path>
          </g>
          <g>
            <path d="M137.19,188.56c-12.49,0-28.45-4.36-41.98-21.97c-15.27-19.88-19.68-49.67-11.51-77.73
						c7.45-25.55,24.09-44.7,45.68-52.55c18.38-6.68,35.74-5.75,51.58,2.77c19.49,10.48,29.54,28.57,31.13,35.22
						c0.26,1.07-0.4,2.15-1.48,2.41c-1.08,0.25-2.15-0.41-2.41-1.48c-1.63-6.79-11.85-23.33-29.14-32.63
						c-14.8-7.96-31.05-8.81-48.32-2.53c-20.37,7.41-36.12,25.6-43.2,49.91c-7.83,26.86-3.67,55.28,10.84,74.17
						c11.6,15.1,26.34,21.88,43.81,20.16c13.12-1.29,22.88-7.09,22.97-7.15c0.95-0.57,2.18-0.27,2.75,0.68
						c0.57,0.95,0.27,2.18-0.68,2.75c-0.43,0.26-10.64,6.33-24.64,7.71C140.88,188.47,139.08,188.56,137.19,188.56z" style="fill:#6d3612"></path>
          </g>
          <g>
            <path d="M367.98,153.92c-6.33,0-10.95-1.11-11.32-1.2c-0.54-0.13-0.86-0.67-0.73-1.21
						c0.13-0.54,0.67-0.86,1.21-0.73c0.18,0.04,17.98,4.3,31.85-4.25c7.66-4.72,12.75-12.47,15.15-23.03
						c4.34-19.11,1.41-36.33-8.25-48.49c-7.89-9.92-19.62-15.42-33.04-15.48c-0.07,0-0.14,0-0.21,0c-29.04,0-37.15,25.5-37.22,25.76
						c-0.16,0.53-0.72,0.83-1.25,0.67c-0.53-0.16-0.83-0.72-0.67-1.25c0.08-0.27,8.63-27.17,39.14-27.17c0.07,0,0.15,0,0.22,0
						c14.04,0.06,26.32,5.83,34.59,16.24c10.05,12.65,13.12,30.46,8.64,50.17c-2.53,11.11-7.93,19.29-16.07,24.3
						C382.66,152.77,374.43,153.92,367.98,153.92z" style="fill:#6d3612"></path>
          </g>
          <g>
            <path d="M382.26,182.62c-0.95,0-1.87-0.02-2.77-0.07c-14.06-0.7-24.55-6.27-24.99-6.5
						c-0.97-0.52-1.33-1.73-0.81-2.71c0.52-0.97,1.73-1.34,2.71-0.82c0.1,0.05,10.25,5.42,23.44,6.04
						c17.48,0.83,31.82-6.67,42.64-22.26c13.58-19.57,16.35-48.16,7.23-74.61c-8.25-23.94-24.87-41.34-45.57-47.75
						c-17.55-5.43-33.75-3.79-48.14,4.87c-16.82,10.12-26.22,27.14-27.52,34c-0.2,1.09-1.25,1.8-2.34,1.59
						c-1.09-0.21-1.8-1.25-1.59-2.34c1.27-6.72,10.43-25.28,29.38-36.69c15.41-9.28,32.7-11.05,51.39-5.26
						c21.94,6.79,39.5,25.11,48.17,50.27c9.53,27.63,6.57,57.59-7.72,78.19C412.2,178.12,395.1,182.62,382.26,182.62z" style="fill:#6d3612"></path>
          </g>
          <g>
            <path d="M229.54,73.28c-0.5,0-0.99-0.18-1.38-0.55c-0.81-0.78-4.81-4.84-3.9-8.74c0.31-1.35,1.34-3.16,4.45-4.15
						c4.64-1.48,9.95,0.14,13.73,1.86c-1.19-3.89-2.08-9.13-0.04-13.07c1.4-2.71,3.9-4.36,7.42-4.92c3.17-0.5,6.06,0.23,8.61,2.16
						c7.5,5.69,9.28,20.23,9.36,20.84c0.13,1.1-0.66,2.09-1.75,2.22c-1.11,0.14-2.09-0.66-2.22-1.75
						c-0.02-0.13-1.66-13.47-7.8-18.13c-1.67-1.26-3.49-1.72-5.56-1.39c-2.23,0.35-3.7,1.27-4.49,2.8
						c-2.16,4.17,0.81,12.07,2.14,14.76c0.4,0.82,0.2,1.8-0.49,2.4c-0.69,0.59-1.69,0.65-2.44,0.14c-0.09-0.06-8.98-6.09-15.25-4.1
						c-0.73,0.23-1.62,0.63-1.76,1.24c-0.28,1.21,1.43,3.65,2.77,4.95c0.79,0.77,0.82,2.03,0.05,2.83
						C230.59,73.07,230.06,73.28,229.54,73.28z" style="fill:#6d3612"></path>
          </g>
          <g>
            <path d="M235.39,258.79c-42.73-0.26-65.69-10.11-74.49-31.95c-7.56-18.77,3.13-33.67,6.42-37.63
						c-2.61-6.37-13.01-36.18,3.04-74.05c17.87-42.18,62.05-45.93,62.49-45.97c1.11-0.09,2.06,0.74,2.14,1.84
						c0.08,1.1-0.74,2.06-1.84,2.14c-0.42,0.03-42.21,3.66-59.11,43.54c-17.02,40.16-2.72,71.69-2.57,72
						c0.35,0.75,0.2,1.63-0.36,2.23c-0.58,0.61-14.19,15.3-6.5,34.39c8.11,20.12,29.92,29.2,70.74,29.44l54.77-1.33
						c40.7-2.22,62.05-12.35,69.17-32.84c6.76-19.44-7.55-33.45-8.16-34.04c-0.59-0.57-0.78-1.45-0.47-2.21
						c0.13-0.32,12.88-32.5-6.06-71.79c-18.81-39.02-60.73-40.61-61.15-40.62c-0.68-0.02-1.3-0.38-1.65-0.96
						c-0.35-0.58-0.39-1.29-0.1-1.91c0.02-0.05,2.36-5.07,0.83-8.66c-0.64-1.5-1.89-2.54-3.82-3.19
						c-7.63-2.56-11.41,6.97-11.57,7.38c-0.4,1.03-1.55,1.55-2.58,1.15s-1.55-1.54-1.16-2.58c1.78-4.7,7.54-12.79,16.58-9.75
						c3.04,1.02,5.14,2.85,6.23,5.44c1.37,3.23,0.76,6.88,0.06,9.29c9.99,1.08,44.9,7.35,61.92,42.66
						c17.86,37.04,8.92,67.33,6.62,73.81c3.48,3.79,14.88,18.16,8.24,37.28c-7.73,22.24-30.18,33.2-72.79,35.52L235.39,258.79z" style="fill:#6d3612"></path>
          </g>
        </g>
        <g id="mouth_00000025404273813690526530000000897110204888161450_">
          <g id="nose_00000124847052637849317000000001625813086925534122_">
            <path d="M261.8,218.77c-0.15,0-0.3-0.02-0.45-0.05c-1.06-0.24-10.43-2.51-12.62-7.43
						c-0.75-1.67-0.64-3.46,0.31-5.17c2.66-4.8,11.5-5.74,18.46-4.18c5.13,1.15,8.06,3.35,8.25,6.19
						c0.43,6.49-11.12,9.95-13.43,10.58C262.15,218.75,261.98,218.77,261.8,218.77z M261.15,205.23c-4.11,0-7.62,1.04-8.61,2.82
						c-0.43,0.77-0.32,1.24-0.16,1.6c0.95,2.12,5.89,4.17,9.38,5.05c4.44-1.29,10.15-4.09,10-6.31c-0.02-0.38-1.29-1.69-5.13-2.55
						C264.8,205.42,262.92,205.23,261.15,205.23z" style="fill:#6d3612"></path>
          </g>
          <g id="mouth_00000107550437404784133980000001408172992720285843_">
            <path d="M247.9,233.18c-7.2,0-11.2-5.1-12.4-8.17c-0.4-1.03,0.11-2.19,1.14-2.59c1.03-0.4,2.18,0.11,2.59,1.13
						c0.13,0.31,2.94,6.99,11.16,5.37c8.45-1.66,9.44-9.85,9.48-10.2c0.1-0.94,0.85-1.68,1.78-1.78c0.94-0.09,1.82,0.47,2.11,1.37
						c0.13,0.38,3.19,9.31,11.89,9.31c0.1,0,0.21,0,0.31,0c8.3-0.2,8.88-4.59,8.92-5.09c0.08-1.09,1.03-1.93,2.11-1.86
						c1.09,0.06,1.93,0.97,1.88,2.06c0,0.09-0.49,8.59-12.82,8.89c-6.63,0.2-11.12-3.64-13.73-7.41c-1.76,3.62-5.18,7.46-11.17,8.63
						C250.01,233.07,248.92,233.18,247.9,233.18z" style="fill:#6d3612"></path>
          </g>
          <g id="mouth2_00000158749094953758393360000003890069165550563260_">
            <path d="M263.01,243.41c-9.69,0-13.51-7.02-14.18-10.89c-0.19-1.09,0.54-2.12,1.63-2.31
						c1.08-0.19,2.12,0.54,2.31,1.62c0.16,0.85,1.79,8.13,11.28,7.55c9.42-0.58,9.75-8.03,9.76-8.88c0.01-1.1,0.9-1.99,2-1.99
						c0,0,0,0,0.01,0c1.1,0,1.99,0.89,1.99,1.99c0.01,4.17-2.8,12.22-13.52,12.87C263.86,243.4,263.43,243.41,263.01,243.41z" style="fill:#6d3612"></path>
          </g>
        </g>
        <g id="mata_00000062883772337414204730000003817733636601448857_">
          <g>
            <path d="M219.18,197.25c-13.66,0.33-14.15-20.86-0.51-21.19C232.33,175.72,232.82,196.92,219.18,197.25z
						 M306.25,173.93c-13.64,0.33-13.14,21.52,0.51,21.19C320.4,194.79,319.91,173.6,306.25,173.93z M310.25,155.96
						c-0.56,0.64-1.54,0.57-2.14,0.05c-0.05-0.04-0.09-0.08-0.14-0.12c0.02,0.01,0.03,0.02,0.05,0.03
						c-0.02-0.01-0.03-0.02-0.05-0.03c-0.01-0.01-0.01-0.01-0.02-0.02c-0.14-0.11-0.09-0.06-0.01,0c-0.08-0.05-0.16-0.11-0.24-0.15
						c-0.1-0.06-0.2-0.11-0.3-0.16c-0.04-0.02-0.08-0.04-0.11-0.05c-0.23-0.03-0.47-0.15-0.7-0.2c-0.05-0.01-0.25-0.04-0.3-0.05
						c-0.05,0-0.09-0.01-0.11-0.01c-0.26-0.01-0.52,0-0.77,0.02c-0.02,0-0.05,0.01-0.07,0.01c-0.12,0.03-0.25,0.05-0.37,0.09
						c-0.12,0.04-0.25,0.07-0.37,0.12c-0.03,0.01-0.05,0.02-0.08,0.03c-0.09,0.06-0.21,0.11-0.3,0.16
						c-0.11,0.07-0.22,0.14-0.32,0.21c-0.69,0.49-1.65,0.15-2.08-0.49c-0.48-0.7-0.15-1.63,0.49-2.08c2.38-1.67,5.75-1.37,7.91,0.51
						C310.84,154.37,310.77,155.37,310.25,155.96z M307.93,155.87c0.01,0.01,0.02,0.01,0.04,0.02c0,0,0,0,0,0
						C307.96,155.88,307.94,155.88,307.93,155.87z M221.11,158.62c-0.51,0.58-1.61,0.64-2.14,0.05c-0.09-0.1-0.19-0.2-0.29-0.29
						c-0.01-0.01-0.02-0.02-0.03-0.03c-0.01,0,0,0-0.01-0.01c-0.11-0.06-0.21-0.13-0.32-0.18c-0.01-0.01-0.03-0.01-0.04-0.02
						c-0.21-0.06-0.41-0.1-0.62-0.15c-0.04,0-0.09,0-0.13-0.01c-0.11,0-0.23,0-0.34,0.01c-0.04,0-0.08,0.01-0.12,0.01
						c-0.1,0.02-0.19,0.04-0.29,0.07c-0.12,0.03-0.23,0.08-0.34,0.12c-0.02,0.01-0.04,0.03-0.05,0.03c-0.09,0.05-0.17,0.1-0.25,0.15
						c0.03-0.03-0.04,0.01-0.11,0.07c0,0,0,0,0,0c-0.03,0.02-0.06,0.05-0.09,0.07c0.04-0.02,0.05-0.03,0.08-0.05
						c-0.07,0.06-0.13,0.13-0.19,0.2c0.03-0.04,0-0.01-0.04,0.04c0,0-0.01,0.01-0.01,0.01c-0.04,0.04-0.07,0.09-0.11,0.13
						c0.04-0.04,0.05-0.06,0.08-0.09c0,0,0,0,0,0c-0.45,0.72-1.29,0.98-2.06,0.59c-0.7-0.35-1.02-1.39-0.59-2.06
						c0.88-1.39,2.32-2.17,3.95-2.31c1.44-0.13,3.04,0.4,4.02,1.49C221.62,157.11,221.68,157.96,221.11,158.62z M215.74,158.77
						c0.04-0.04,0.07-0.08,0.08-0.09c-0.01,0.01-0.03,0.03-0.04,0.04C215.77,158.73,215.75,158.75,215.74,158.77z M216.03,158.46
						c-0.01,0.01-0.01,0.01-0.02,0.02c0.07-0.05,0.11-0.08,0.12-0.09c-0.02,0.01-0.05,0.03-0.07,0.04
						C216.05,158.44,216.04,158.45,216.03,158.46z" style="fill:#6d3612"></path>
          </g>
          <g>
            <path d="M307.11,182.71c-3.25,0.08-3.37-4.97-0.12-5.05C310.24,177.58,310.36,182.63,307.11,182.71z
						 M218.97,179.58c-3.25,0.08-3.13,5.12,0.12,5.05C222.34,184.55,222.22,179.5,218.97,179.58z" style="fill:#fff"></path>
          </g>
        </g>
      </g>
    </g>
    <g id="sinau_00000009560442009267028410000001711781959268538802_">
      <g id="garis_buku_00000146474088331656212110000013569610689294131365_">
        <g>
          <path d="M300.4,335.07c-0.9,0-1.72-0.62-1.94-1.53c-0.26-1.07,0.4-2.15,1.48-2.41c0.49-0.12,12.15-2.87,20.67-1.62
					c1.09,0.16,1.85,1.18,1.69,2.27s-1.18,1.85-2.27,1.69c-7.75-1.14-19.04,1.52-19.16,1.55
					C300.71,335.05,300.56,335.07,300.4,335.07z" style="fill:#873c1e"></path>
        </g>
        <g>
          <path d="M300.41,352.57c-0.77,0-1.5-0.45-1.83-1.2c-0.44-1.01,0.02-2.19,1.03-2.63c4.62-2.02,10.12-3.23,17.31-3.78
					c1.09-0.1,2.06,0.74,2.15,1.84c0.08,1.1-0.74,2.06-1.84,2.15c-6.73,0.52-11.82,1.62-16.02,3.46
					C300.95,352.52,300.67,352.57,300.41,352.57z" style="fill:#873c1e"></path>
        </g>
        <g>
          <path d="M305.32,373.19c-0.73,0-1.43-0.4-1.78-1.09c-0.5-0.98-0.12-2.19,0.87-2.69c8.51-4.37,19.22-6.8,30.15-6.83
					c0,0,0,0,0,0c1.1,0,2,0.89,2,2c0,1.1-0.89,2-2,2c-10.31,0.03-20.37,2.29-28.33,6.38C305.94,373.12,305.63,373.19,305.32,373.19z
					" style="fill:#873c1e"></path>
        </g>
        <g>
          <path d="M274.28,336.61c-0.36,0-0.73-0.1-1.06-0.31c-4.12-2.58-9.81-3.61-17.38-3.14
					c-1.08,0.07-2.05-0.77-2.12-1.87s0.77-2.05,1.87-2.12c8.44-0.52,14.9,0.7,19.75,3.74c0.94,0.59,1.22,1.82,0.63,2.76
					C275.59,336.28,274.94,336.61,274.28,336.61z" style="fill:#873c1e"></path>
        </g>
        <g>
          <path d="M270.64,350.65c-0.28,0-0.57-0.06-0.84-0.18c-4.29-1.98-9.13-3-14.05-2.89c-1.1-0.01-2.02-0.86-2.04-1.96
					s0.86-2.02,1.96-2.04c5.49-0.09,10.96,1.03,15.8,3.26c1,0.46,1.44,1.65,0.98,2.65C272.12,350.22,271.4,350.65,270.64,350.65z" style="fill:#873c1e"></path>
        </g>
        <g>
          <path d="M270.64,377c-0.44,0-0.89-0.15-1.26-0.45c-3.96-3.23-9.46-5.21-17.29-6.23c-1.09-0.14-1.87-1.15-1.72-2.24
					s1.15-1.86,2.24-1.72c8.6,1.13,14.74,3.38,19.3,7.1c0.86,0.7,0.99,1.96,0.29,2.81C271.8,376.75,271.22,377,270.64,377z" style="fill:#873c1e"></path>
        </g>
      </g>
    </g>
  </g>
</svg>
