<svg xmlns="http://www.w3.org/2000/svg" xml:space="preserve" id="monkey-idea" x="0" y="0" style="enable-background:new 0 0 512 512" version="1.1" viewBox="0 0 512 512">
  <g>
    <g id="ekor_00000167366935617488406790000010772464633235598234_">
      <path d="M395.99,391.09c0,0,28.77-0.15,38.04-21.56c9.27-21.42-2.56-39-15.02-39.96s-11.83,11.19-7.35,11.83
			s5.11-5.32,9.27-1.38c4.16,3.94,4.79,11.24-7.03,11.11c-11.83-0.13-19.19-9.61-14.07-25.17c5.12-15.56,40.28-14.22,49.55,12.44
			c9.27,26.66-4.16,52.52-26.69,63.73c-22.54,11.2-56.74,11.2-63.77,4.17c-7.03-7.03-7.21-16.22-2.56-15.75
			S382.44,393.24,395.99,391.09z" style="fill:#bc7046"></path>
      <path d="M380.78,413.1c-10.81,0-19.74-1.86-23.28-5.41c-5.71-5.71-7.35-12.87-5.64-16.49
			c0.89-1.88,2.65-2.88,4.7-2.67l0.35,0.04c21.33,2.15,32.86,1.48,38.78,0.54c0.1-0.02,0.2-0.02,0.3-0.02
			c0.27,0,27.58-0.42,36.21-20.36c4.38-10.13,4.19-20.43-0.53-28.26c-3.14-5.21-7.93-8.54-12.81-8.91c-7-0.55-7.97,3.43-8.11,4.66
			c-0.2,1.79,0.59,3.1,1.19,3.19c1.04,0.15,1.65-0.29,2.72-1.13c1.41-1.1,4.02-3.15,7.64,0.27c2.95,2.8,4.08,6.52,2.88,9.49
			c-0.94,2.32-3.61,5.07-10.97,5.07c-0.11,0-0.23,0-0.34,0c-6.22-0.07-11.37-2.51-14.49-6.88c-3.68-5.15-4.2-12.58-1.46-20.92
			c2.29-6.96,9.82-11.33,19.65-11.41c0.09,0,0.18,0,0.27,0c12.56,0,27.69,7.34,33.42,23.82c9,25.89-2.64,53.72-27.69,66.17
			C411.01,410.15,394.4,413.1,380.78,413.1z M356,392.51c-0.24,0-0.38,0.09-0.53,0.41c-0.93,1.97,0.26,7.35,4.85,11.94
			c6.23,6.23,39.6,6.32,61.47-4.55c19.91-9.9,35.13-34.13,25.69-61.28c-5.12-14.73-18.67-21.27-29.88-21.14
			c-8.06,0.07-14.15,3.39-15.89,8.66c-2.33,7.09-2.01,13.25,0.91,17.34c2.36,3.3,6.37,5.15,11.28,5.21
			c4.13,0.04,6.88-0.89,7.56-2.57c0.56-1.39-0.23-3.48-1.92-5.08c-1.11-1.05-1.11-1.05-2.42-0.03c-1.19,0.93-2.97,2.34-5.76,1.94
			c-3-0.43-5.02-3.76-4.6-7.59c0.46-4.19,3.97-8.86,12.39-8.21c6.17,0.47,12.12,4.52,15.93,10.83c5.4,8.95,5.68,20.58,0.78,31.91
			c-9.42,21.76-37.1,22.73-39.71,22.77c-6.2,0.96-18.08,1.64-39.66-0.53l-0.35-0.04C356.1,392.51,356.05,392.51,356,392.51z" style="fill:#6d3612"></path>
    </g>
    <g>
      <g>
        <path d="M166.6,173.35c-18.03,0.29-32.57-7.86-43.19-24.28c-13.29-20.54-15.17-49.98-4.93-76.82
				c9.27-24.3,26.91-41.61,48.38-47.5c18.2-4.99,34.78-2.77,49.26,6.61c16.93,10.96,26.01,28.75,27.12,35.84
				c0.06,0.38,0.22,0.71,0.45,0.98c-5.45,1.97-11.32,4.72-17.12,8.53c-2.59-6.65-12.44-26.23-38.68-26.97
				c-14.4-0.4-27.18,5.09-36.01,15.49c-10.73,12.63-14.47,30.8-10.53,51.16c2.22,11.48,7.49,20.04,15.66,25.45
				c8.1,5.36,17.41,6.59,24.25,6.59c3.1,0,5.69-0.25,7.44-0.49c-0.58,8.11-0.12,15.11,0.66,20.61
				C186.11,169.91,177.32,173.16,166.6,173.35z" style="fill:#bc7046"></path>
      </g>
      <g>
        <path d="M188.87,145.87c-4.98,0.69-19.35,1.83-30.76-5.72c-7.7-5.1-12.68-13.23-14.79-24.15
				c-3.82-19.75-0.23-37.33,10.09-49.49c8.43-9.92,20.66-15.19,34.42-14.78c26.04,0.74,34.97,20.3,37.06,26.11
				c-8.79,6.13-17.27,14.8-23.7,27.08C193.34,119.95,189.96,134,188.87,145.87z" style="fill:#fff3c2"></path>
      </g>
      <g>
        <path d="M202.24,238.55c-4.13-5.44-6.63-15.34-4.72-27.06c2.6-15.98,13.03-21.11,13.14-21.16
				c0.28-0.13,0.48-0.39,0.54-0.69c0.07-0.3-0.01-0.62-0.21-0.86c-0.04-0.04-3.57-4.57-4.51-25.46
				c-0.97-21.63,9.07-56.47,40.71-63.78c28.11-6.49,40.75,3.17,43.17,5.36c-0.15,0.58-0.05,1.09,0.31,1.44
				c0.85,0.83,2.21,0.1,3.52-0.72c0.05-0.03,0.09-0.06,0.13-0.1c0.13-0.12,13.61-11.57,43.98-0.81
				c30.61,10.85,36.64,46.6,33.22,67.98c-3.3,20.65-7.32,24.75-7.35,24.77c-0.23,0.21-0.36,0.52-0.33,0.83
				c0.03,0.31,0.2,0.6,0.47,0.76c0.1,0.06,9.88,6.35,10.66,22.51c0.56,11.72-2.96,21.2-7.6,26.18c-12.48,6.54-30.5,9.27-55.21,8.61
				l-32.08-1.82l-1.33-0.81c-0.54-0.33-1.21-0.38-1.79-0.14c-0.36,0.15-0.66,0.41-0.87,0.72l-9.71-0.55
				c0.01-0.02,0.02-0.04,0.04-0.05c0.07-0.08,0.13-0.17,0.19-0.26c0.01-0.01,0.02-0.02,0.03-0.03h0c0,0,0,0,0,0l0,0c0,0,0,0,0,0
				c0,0,0,0,0,0c0,0,0,0,0,0c0.01-0.02,0.01-0.04,0.02-0.06c0.09-0.16,0.16-0.34,0.2-0.53c0-0.01,0.01-0.02,0.01-0.03v0c0,0,0,0,0,0
				c0,0,0,0,0,0c0,0,0-0.01,0-0.01c0,0,0,0,0-0.01l1.39-7.78c0.14-0.81-0.22-1.62-0.91-2.05l-34.31-21.35
				c-0.89-0.56-2.06-0.32-2.68,0.53l-16.27,22.5C209.61,242.85,205.66,240.84,202.24,238.55z" style="fill:#fff3c2"></path>
      </g>
      <g>
        <path d="M311.94,284.01c-7.37-4.84-14.88-9.58-22.19-14.18c-3.46-2.18-6.92-4.36-10.38-6.55
				c-0.08-0.05-0.16-0.1-0.24-0.15c-0.03-0.02-0.06-0.04-0.09-0.05c0,0,0,0,0,0c0,0,0,0,0,0c0,0,0,0,0,0c0,0,0,0,0,0c0,0,0,0,0,0
				c0,0,0,0,0,0c0,0,0,0,0,0c0,0,0,0,0,0c-0.1-0.05-0.21-0.1-0.32-0.13c0,0,0,0,0,0c0,0,0,0,0,0c0,0,0,0,0,0c0,0,0,0,0,0
				c0,0,0,0,0,0c0,0,0,0,0,0c0,0,0,0,0,0c0,0,0,0,0,0c0,0,0,0,0,0c0,0,0,0,0,0c0,0,0,0,0,0c0,0,0,0,0,0c0,0,0,0,0,0c0,0,0,0,0,0
				c0,0,0,0,0,0s0,0,0,0c0,0,0,0,0,0c0,0,0,0,0,0c-0.44-0.12-0.92-0.09-1.35,0.11c-0.03,0.01-0.06,0.04-0.09,0.06
				c0.74-1.7,1.32-3.3,1.72-4.56l33.02,20.03V284.01z" style="fill:#4fdce0"></path>
      </g>
      <g>
        <path d="M337.24,307.71c0.04,0.11,0.09,0.21,0.16,0.31c0.11,0.17,10.88,17.51,5.46,37.05
				c-4.89,17.65-16.08,27.78-18.48,29.79c-4.05-0.9-8.14-2.11-12.26-3.65c-7.06-3.27-16.25-10.01-19.03-18.3
				c-1.36-4.06-1.01-8.07,1.04-11.91c0.1-0.19,0.16-0.4,0.2-0.6l0.78-1.72l2.29,2.66c0.4,0.46,0.96,0.7,1.52,0.7
				c0.46,0,0.93-0.16,1.3-0.48c0.84-0.72,0.93-1.98,0.21-2.82l-4.19-4.88c-2.82-5.07-3.56-11.94,1.45-15.21
				c0.16-0.11,0.3-0.23,0.43-0.38l3.22-3.79c1.09,3.24,3.13,6.03,3.47,6.48c0.39,0.52,0.99,0.79,1.6,0.79c0.42,0,0.84-0.13,1.2-0.4
				c0.88-0.66,1.06-1.92,0.39-2.8c-1.41-1.88-3.46-5.57-3.34-7.96l3.34-3.93c0.16-0.19,0.29-0.41,0.37-0.65
				c0.64-1.9,1.72-3.17,3.3-3.89c5.13-2.35,14.46,1.4,19.47,3.42l1.89,0.76C334.32,306.81,335.75,307.39,337.24,307.71z" style="fill:#e2a06a"></path>
      </g>
      <g>
        <path d="M304.46,300.02c-2.55,4.39-5.18,8.94-7.97,13.09c-0.26,0.38-0.36,0.82-0.33,1.25l-0.93,1.1
				c-6.34,4.37-6.27,12.93-2.9,19.61l-1.41,3.12c-2.13,0.13-3.99-0.61-5.19-2.1c-0.39-0.48-0.95-0.75-1.6-0.75
				c-0.62,0.01-1.2,0.31-1.57,0.81l-23.94,32.4l-8.39-6.38v-5.08c0-1.1-0.9-2-2-2h-9.77c-0.1-0.42-0.33-0.81-0.7-1.1l-7.73-6.05
				c6.31-4.63,11.82-11.98,9.11-19.66c-1.21-3.43-3.85-6.04-7.44-7.37c-4.29-1.58-9.41-1.16-13.35,1.12
				c-4.1,2.37-7.1,6.55-8.64,11.96l-24.94-17.51c-0.13-0.09-0.31-0.2-0.51-0.32c3.41-0.51,6.91-1.78,9.79-4.47
				c2.7-2.51,4.2-5.8,4.23-9.25c0.02-2.09-0.5-4.17-1.49-6.08c2.13-0.23,4.44-0.85,6.84-2.11c2.29-1.21,3.78-3.05,4.45-5.48
				c1.31-4.77-1.1-10.63-2.61-13.63c2.78-1.25,4.96-3.49,6.21-6.43c0.71-1.68,1-3.37,0.98-5.01c4.05-7.07,9.12-14.03,15.89-21.77
				c1.09-1.11,1.87-2.4,2.62-3.65c0.66-1.11,1.29-2.15,2.06-2.93c0.37-0.37,0.91-0.66,1.21-0.73l11.32,8.49
				c0.13,0.1,0.27,0.18,0.41,0.24c4.16,1.78,7.99,4.39,11.7,6.9c0.61,0.41,1.21,0.82,1.8,1.22c-0.26,0.71-0.22,1.49,0.13,2.17
				c-3.74,3.42-6.37,8.14-7.06,12.98c-0.73,5.11,0.75,9.8,4.1,13.14c4.18,4.6,8.09,4.69,10.63,3.96c4.94-1.42,9.01-7.3,11.21-13.46
				c0.87,0,1.72-0.43,2.27-1.24c2.21,1.4,4.43,2.79,6.65,4.19c7.84,4.93,15.93,10.02,23.79,15.22
				C308.98,292.23,306.69,296.18,304.46,300.02z" style="fill:#8df7ff"></path>
      </g>
      <g>
        <path d="M265.49,407.84c-1.42-3.76-3.82-6.16-7.13-7.11c-5.74-1.66-12.75,1.7-16.76,4.1V365.1c0-1.1-0.9-2-2-2
				h-35.63l4.39-4h37.89v39.93c0,0.7,0.37,1.35,0.97,1.71c0.6,0.36,1.34,0.38,1.97,0.06c0.67-0.35,16.41-8.45,22.6,2.64
				c2.97,5.32,2.86,11.07-0.29,15.39c-1.7,2.34-4.06,3.91-6.52,4.47C267.31,419.04,267.59,413.4,265.49,407.84z" style="fill:#9be25d"></path>
      </g>
      <g>
        <path d="M178.02,364.04c-0.37-0.58-1.01-0.94-1.69-0.94h-34.97v-36.61c1.29,0.65,2.65,1.12,4.04,1.45v29.92
				c0,1.1,0.9,2,2,2h36.92c-3.78,5.78-10.68,18.06-7.38,26.55c3.02,7.77,11.61,10.1,17.06,10.79c-2.74,1.72-6.16,1.96-10.21,0.68
				c-4.27-1.35-7.09-3.73-8.63-7.28c-4.18-9.68,2.89-24.47,2.97-24.62C178.43,365.35,178.39,364.62,178.02,364.04z" style="fill:#ff9cb4"></path>
      </g>
      <g>
        <path d="M176.94,386.41c-3.3-8.49,3.59-20.77,7.38-26.55H147.4c-0.28,0-0.54-0.06-0.78-0.16
				c-1.08,1.14-2.15,2.27-3.23,3.4h32.94c0.69,0,1.33,0.36,1.69,0.94c0.37,0.58,0.41,1.32,0.1,1.94
				c-0.07,0.15-7.14,14.94-2.97,24.62c1.53,3.56,4.36,5.94,8.63,7.28c4.06,1.28,7.48,1.04,10.21-0.68
				C188.55,396.51,179.96,394.18,176.94,386.41z" style="fill:#9be25d"></path>
      </g>
      <g>
        <path d="M165.69,321.27c2.19-1.26,4.9-3.45,6.92-6.39c0.28,0.46,0.74,0.81,1.32,0.92c1.35,0.26,3.02,0.5,4.86,0.6
				c0.42,1.45,2.16,2.46,3.13,3.01c0.23,0.13,0.44,0.25,0.58,0.34l14.42,10.13c-1-0.24-2.04,0.32-2.36,1.32
				c-0.21,0.65-2.35,7.35-3.93,16.84c-2.72,1.5-12.07,5.8-20.76-0.41c-10.11-7.22-7.82-18.73-7.72-19.21
				c0.04-0.19,0.05-0.38,0.04-0.57l-0.23-2.97c0.03-0.02,0.06-0.04,0.09-0.06C163.54,323.78,164.75,322.58,165.69,321.27z" style="fill:#bc7046"></path>
      </g>
      <g>
        <path d="M197.6,393.47c-0.01,0-0.02,0-0.03,0c-10.71-24.89,0.67-60.67,0.79-61.03c0.19-0.6,0.08-1.22-0.24-1.71
				l11.75,8.25c0.56,0.39,1.28,0.47,1.92,0.21s1.09-0.83,1.2-1.51c0.57-3.29,2.28-9.24,7.38-12.19c2.9-1.67,6.81-2,9.96-0.83
				c0.63,0.23,1.34,0.57,2.03,1.04c-0.04,0.12-0.06,0.24-0.08,0.37c-0.58,1.32-4.81,6.11-8.51,9.88c-0.43,0.44-0.64,1.06-0.55,1.67
				l1.45,10.48c0,0.02,0.01,0.04,0.01,0.06c0.01,0.04,0.02,0.08,0.03,0.12c0.02,0.11,0.06,0.21,0.1,0.3
				c0.02,0.04,0.03,0.08,0.05,0.12c0.05,0.11,0.12,0.22,0.19,0.31c0.01,0.02,0.02,0.04,0.04,0.05c0.09,0.11,0.19,0.21,0.3,0.3
				c0.01,0.01,0.02,0.02,0.03,0.03l7.28,5.7h-25.11c-0.5,0-0.98,0.19-1.35,0.52l-8.77,8c-0.02,0.02-0.04,0.05-0.07,0.07
				c-0.03,0.03-0.07,0.07-0.1,0.11c-0.09,0.1-0.16,0.21-0.23,0.33c-0.01,0.02-0.03,0.04-0.04,0.06c0,0.01-0.01,0.02-0.01,0.03
				c-0.07,0.15-0.13,0.3-0.16,0.46c-0.01,0.04-0.01,0.07-0.02,0.11c-0.02,0.13-0.03,0.26-0.02,0.39c0,0.04,0,0.09,0.01,0.13
				c0.02,0.16,0.05,0.32,0.1,0.47c0,0.01,0.01,0.02,0.02,0.03c0.05,0.14,0.13,0.27,0.21,0.4c0.01,0.02,0.02,0.04,0.03,0.06
				C201.59,372.33,202.51,385.76,197.6,393.47z" style="fill:#bc7046"></path>
      </g>
      <g>
        <path d="M235.38,329.61c1.92,5.44-2.26,10.97-7.2,14.73l-0.87-6.3c4.44-4.56,6.68-7.3,7.82-9.01
				C235.22,329.22,235.31,329.4,235.38,329.61z" style="fill:#4fdce0"></path>
      </g>
      <g>
        <path d="M257.24,273.05c2.19,1.94,5.39,3.19,9.66,1.84c3.93-1.25,6.87-5.08,8.94-8.99
				c-1.46,6.07-5.25,12.77-9.44,13.97c-2.15,0.61-4.3-0.3-6.64-2.88C258.51,275.75,257.72,274.4,257.24,273.05z" style="fill:#4fdce0"></path>
      </g>
      <g>
        <path d="M265.69,271.08c-5.56,1.76-7.7-3.52-7.93-4.13c-0.15-0.43-0.44-0.76-0.8-0.99c0.71-3.12,2.38-6.12,4.68-8.51
				c0.15,0.04,0.3,0.08,0.46,0.09l12.67,0.72C273.11,262.99,269.9,269.74,265.69,271.08z" style="fill:#bc7046"></path>
      </g>
      <g>
        <path d="M210.86,256.54l3.93-6.07l17.71-24.49l31.57,19.64l-0.63,3.52c-1.08-0.71-2.18-1.44-3.31-2.21
				c-3.8-2.58-7.73-5.25-12.15-7.17l-11.08-8.31c-0.96-0.87-2.34-1.09-3.81-0.6c-0.96,0.32-1.94,0.93-2.67,1.67
				c-1.12,1.12-1.91,2.43-2.67,3.7c-0.66,1.11-1.29,2.15-2.06,2.93c-0.03,0.03-0.06,0.06-0.09,0.1
				c-5.82,6.65-10.42,12.75-14.23,18.85c-0.21-0.46-0.44-0.9-0.69-1.34C210.75,256.68,210.81,256.62,210.86,256.54z" style="fill:#4fdce0"></path>
      </g>
      <g>
        <path d="M165.74,266.68c4.59-8.87,11.33-15.14,18.49-17.19c5.34-1.53,10.76-0.71,16.1,2.45
				c3.47,2.05,7.66,6.2,8.27,10.84c-0.03,0.06-0.07,0.12-0.1,0.18c-0.38,0.68-0.31,1.48,0.1,2.08c-0.1,0.7-0.28,1.4-0.57,2.11
				c-1.25,2.96-3.46,4.19-5.09,4.71c-2.79,0.87-6.09,0.37-8.82-1.35c-0.94-0.59-2.17-0.31-2.76,0.63c-0.59,0.94-0.31,2.17,0.63,2.76
				c2.92,1.84,6.34,2.63,9.57,2.29c1.42,2.63,3.69,7.94,2.7,11.53c-0.37,1.34-1.17,2.32-2.45,3c-7.31,3.85-13.68,0.21-13.94,0.05
				c-0.95-0.57-2.18-0.26-2.74,0.69c-0.57,0.95-0.26,2.18,0.69,2.74c0.18,0.11,2.56,1.5,6.14,2.05c1.55,1.83,2.4,4,2.38,6.16
				c-0.02,2.38-1.05,4.58-2.96,6.37c-4.9,4.57-12.54,3.91-16.65,3.11c-0.13-0.03-0.27-0.04-0.4-0.04c1.39-3.26,1.78-7.14,0.09-11.5
				c-2.67-6.89-9.33-8.41-15.31-8.21C159.63,282.86,161.91,274.09,165.74,266.68z" style="fill:#e2a06a"></path>
      </g>
      <g>
        <path d="M47.28,258.38c5.34-1.19,88.72-1.29,97.96-0.17c1,3.86,1.43,21.75,1.27,37.88
				c-0.01,0.65,0.31,1.27,0.84,1.65c0.53,0.38,1.21,0.47,1.83,0.26c0.18-0.06,17.67-6.07,21.49,3.79c2.11,5.45-0.11,9.7-2.64,12.48
				c0.01-1.55-0.27-3.14-0.87-4.75c-1.32-3.56-3.65-6.01-6.93-7.28c-5.92-2.31-13.44-0.04-17.45,1.54l-1.42-38.99
				c-0.04-1.08-0.92-1.93-2-1.93H41.95C43.9,260.75,46.04,258.79,47.28,258.38z" style="fill:#ff9cb4"></path>
      </g>
      <g>
        <path d="M54.24,301.89c-4.82-2.27-10.56-1.88-14.66-0.14v-34.9h97.85l1.45,40c0.03,0.68,0.4,1.3,0.98,1.65
				c0.59,0.35,1.31,0.37,1.92,0.06c0.1-0.05,10.36-5.19,16.99-2.6c2.19,0.86,3.71,2.48,4.62,4.95c2.08,5.58-1.39,9.06-3.65,10.64
				c-4.96,3.47-13.67,4.35-19.1-0.28c-0.59-0.51-1.43-0.62-2.14-0.29c-0.71,0.33-1.16,1.04-1.16,1.82v40.31H39.58v-36.17
				c4.25,1,12.66,2.29,17.93-1.44c2.92-2.06,4.45-5.26,4.56-9.52c0,0,0-0.01,0-0.01c0-0.01,0-0.02,0-0.03
				C62.22,309.33,59.44,304.34,54.24,301.89z" style="fill:#ffcad5"></path>
      </g>
      <g>
        <path d="M45.41,318.3c2.5,0.9,7.67,2.43,11.79,1.56c-0.47,0.96-1.13,1.75-2,2.36c-3.52,2.49-9.85,1.86-14.02,0.97
				L45.41,318.3z" style="fill:#ff9cb4"></path>
      </g>
      <g>
        <path d="M45.54,420.95c2.47,0.28,8.49,0.73,13.1-0.77c-2.52,6.28-11.91,5.62-17.06,4.73L45.54,420.95z" style="fill:#dbdb49"></path>
      </g>
      <g>
        <path d="M138.46,421.63c-0.68,0.34-1.1,1.03-1.1,1.79v39.93H39.58v-34.73c5.88,1.2,20.01,2.84,23.17-8.07
				c1.51-5.21-0.34-9.98-5.07-13.09c-4.71-3.09-12.15-4.12-18.11-1.36v-39h97.78v41.46c0,0.71,0.37,1.36,0.98,1.72
				s1.36,0.37,1.98,0.04c3.04-1.66,12.11-5.49,17.47-3.3c1.99,0.81,3.31,2.38,4.05,4.8c1.49,4.87,0.21,9.3-3.42,11.86
				c-3.93,2.77-10.98,3.27-17.88-1.86C139.94,421.36,139.13,421.29,138.46,421.63z" style="fill:#fcff6c"></path>
      </g>
      <g>
        <path d="M141.36,427.06c6.7,3.62,14.01,3.66,19.37-0.13c5.11-3.6,6.95-9.7,4.94-16.3c-1.1-3.59-3.24-6.06-6.37-7.33
				c-5.86-2.38-13.72,0.26-17.94,2.08V367.1h31.94c-2.04,5.22-5.53,16.45-1.81,25.07c1.99,4.63,5.73,7.83,11.1,9.53
				c7.4,2.33,13.71,0.5,17.78-5.15c5.72-7.94,5.56-21.3,1.88-29.45h35.36v41.46c0,0.76,0.43,1.45,1.11,1.79
				c0.68,0.34,1.49,0.26,2.1-0.19c2.76-2.08,11.09-7.12,16.45-5.57c2.06,0.6,3.53,2.13,4.49,4.68c2.27,6,1.06,12.26-2.94,15.2
				c-2.59,1.91-5.95,2.28-9.76,1.19c-0.13-0.06-0.27-0.1-0.42-0.13c-2.91-0.91-6.06-2.64-9.34-5.2c-0.6-0.47-1.42-0.55-2.11-0.22
				c-0.69,0.34-1.12,1.03-1.12,1.8v39.37c-0.63,0.12-1.19,0.54-1.46,1.18c-0.13,0.3-0.17,0.61-0.15,0.91h-93.1V427.06z" style="fill:#bfff8d"></path>
      </g>
      <g>
        <path d="M246.25,428.95v26.72l-6.19,5.33v-35.21C242.29,427.23,244.35,428.25,246.25,428.95z" style="fill:#9be25d"></path>
      </g>
      <g>
        <path d="M265.42,485.03c-11.74,7.04-34.27,6.23-47.26-1.71c-4.68-2.86-10.14-7.95-9.69-15.98h29.59c0,0,0,0,0,0
				s0,0,0,0c0.13,0,0.25-0.01,0.38-0.04c0.04-0.01,0.09-0.02,0.13-0.03c0.08-0.02,0.15-0.04,0.23-0.07c0.05-0.02,0.1-0.04,0.14-0.07
				c0.06-0.03,0.12-0.06,0.19-0.1c0.05-0.03,0.1-0.07,0.14-0.1c0.03-0.02,0.07-0.04,0.1-0.07l0.39-0.34
				c4.23,1.32,11.34,3.05,19.63,3.05c5.66,0,11.86-0.83,18.05-3.12C275.93,473.46,272.56,480.75,265.42,485.03z" style="fill:#e2a06a"></path>
      </g>
      <g>
        <path d="M385.76,458.78c-3.8,18.98-36.95,30.7-55.76,28.02c-10.89-1.56-18.85-9.75-23.67-19.38
				c0.71,0.03,1.89,0.06,3.5,0.06c13.13,0,53.41-2.35,73.51-29.78C385.73,444.33,387.17,451.77,385.76,458.78z" style="fill:#e2a06a"></path>
      </g>
      <g>
        <path d="M378.92,400.98c-1.67,5.35-4.03,9.77-6.71,13.39c-0.11,0.12-0.21,0.24-0.29,0.37
				c-9.53,12.63-22.82,15.55-23.54,15.69c-1.08,0.22-1.78,1.28-1.56,2.36c0.19,0.95,1.03,1.6,1.96,1.6c0.13,0,0.27-0.01,0.4-0.04
				c0.76-0.15,14.1-3.04,24.4-15.28c1.89,2.72,5.19,7.88,7.97,14.18c-21.64,32.76-75.13,30.17-75.67,30.13
				c-0.46-0.02-0.88,0.11-1.23,0.34c-2.25-5.54-3.51-11.32-3.73-16.43c1.87-0.46,3.72-1.01,5.52-1.67c1.04-0.38,1.57-1.53,1.2-2.56
				c-0.38-1.04-1.52-1.57-2.56-1.2c-21.44,7.79-49.99,0.03-50.28-0.05c-1.06-0.3-2.17,0.33-2.46,1.39s0.33,2.17,1.39,2.46
				c0.73,0.2,11.29,3.08,24.51,3.62c0.25,2.37,0.55,7.13-0.07,12.55c-13.13,5.69-27.02,3.57-34.78,1.53l6.14-5.28
				c0.44-0.38,0.7-0.93,0.7-1.52v-26.56c5.5,0.89,9.17-1.04,10.93-2.34c0.11-0.08,0.2-0.17,0.3-0.25c0.48,0.06,0.96,0.09,1.45,0.09
				c4.43,0,8.87-2.34,11.79-6.35c4.1-5.62,4.3-12.98,0.55-19.7c-5.67-10.14-17.56-8.54-25.03-5.57v-28.72l7.59,5.76
				c0.35,0.27,0.78,0.41,1.21,0.41c0.09,0,0.19-0.01,0.28-0.02c0.53-0.08,1.01-0.36,1.32-0.79l23.81-32.23
				c1.39,1,3.04,1.61,4.83,1.8c-1.36,3.92-1.37,7.96,0,12.04c3.19,9.51,13.05,16.92,21.21,20.69c0.04,0.02,0.09,0.04,0.14,0.06
				c10.45,3.92,20.79,5.86,30.62,5.86c15.19,0,29.15-4.63,40.4-13.72C382.94,371.76,384.57,382.9,378.92,400.98z" style="fill:#bc7046"></path>
      </g>
      <g>
        <path d="M275.28,401.48c3.75,6.72,3.55,14.08-0.55,19.7c-1.24,1.7-2.76,3.08-4.43,4.13
				c6.53,0.57,13.15,0.31,19.6-0.66c8.62-1.29,17.21-3.77,24.9-7.95c3.68-2,7.19-4.4,10.13-7.4c3.69-3.76,6.28-8.37,7.7-13.43
				c1.41-5.02,1.78-10.2,1.8-15.41c-7.74-0.69-15.74-2.52-23.8-5.54c-0.05-0.02-0.09-0.04-0.14-0.06
				c-8.16-3.77-18.02-11.18-21.21-20.69c-1.37-4.08-1.35-8.12,0-12.04c-1.79-0.19-3.44-0.81-4.83-1.8l-23.81,32.23
				c-0.32,0.43-0.79,0.71-1.32,0.79c-0.09,0.01-0.19,0.02-0.28,0.02c-0.43,0-0.86-0.14-1.21-0.41l-7.59-5.76v28.72
				C257.72,392.94,269.61,391.34,275.28,401.48z" style="fill:#fff3c2"></path>
      </g>
      <g>
        <path d="M360.78,267.78c18.53,17.06,30.13,39.6,31.85,61.88c0.89,12.39-3.37,24.42-11.19,32.19
				c-0.25,0.16-0.46,0.37-0.61,0.61c-0.54,0.51-1.09,1-1.66,1.46c-13.38,10.84-30.96,14.89-49.85,11.87
				c4.56-4.39,13.14-14.27,17.4-29.66c4.93-17.82-2.2-33.46-4.95-38.55c1.04-0.34,2.09-0.93,3.11-1.88
				c3.13-2.91,4.76-7.23,5.83-10.66c0.33-1.05-0.26-2.18-1.31-2.5c-1.06-0.33-2.18,0.26-2.5,1.31c-0.85,2.73-2.27,6.62-4.74,8.92
				c-2.06,1.92-4.03,1.25-7.62-0.21l-1.9-0.76c-5.96-2.4-15.92-6.41-22.63-3.35c1.88-3.21,3.82-6.43,5.85-9.48
				c0.29-0.44,0.4-0.98,0.3-1.5c-0.04-0.19-0.11-0.37-0.2-0.54v-9.53c0-0.7-0.37-1.35-0.96-1.71l-27.59-16.73l24.63,1.4
				c2.41,0.06,4.75,0.1,7.04,0.1c11.78,0,21.98-0.86,30.74-2.61C351.2,262.77,358.54,266.69,360.78,267.78z" style="fill:#bc7046"></path>
      </g>
      <g>
        <path d="M385.71,228.5c-3.01,6.83-7.58,12.33-13.87,16.6c3.38-5.6,5.61-13.72,5.13-23.61
				c-0.7-14.49-8.08-21.45-10.7-23.48c1.43-2.13,4.58-8.43,7.23-24.99c3.52-22.04-2.77-58.93-34.53-70.18
				c-30.78-10.91-44.68,0.09-45.91,1.14c-0.22,0.14-0.42,0.25-0.58,0.34c-0.04-0.12-0.11-0.23-0.19-0.32
				c-0.51-0.57-12.89-13.94-45.54-6.4c-32.84,7.58-43.26,43.52-42.26,65.82c0.75,16.76,3.17,23.38,4.35,25.65
				c-2.83,1.72-10.96,7.8-13.29,22.11c-1.61,9.88-0.26,18.28,2.52,24.24c-5.79-4.92-9.71-10.92-12-18.26
				c-6.29-20.2,8.87-34.12,9.52-34.7c0.62-0.55,0.83-1.42,0.54-2.19c-0.12-0.33-12.19-33.7,8.62-73.49
				c20.54-39.28,63.38-39.65,64.12-39.65c0.01,0,0.01,0,0.02,0c1.1,0,1.99-0.89,2-1.99c0.01-1.1-0.88-2-1.99-2.01c0,0-0.01,0-0.01,0
				c-0.12,0-0.95,0.01-2.35,0.1c-1.2-1.5-2.5-3.84-2.13-4.97c0.2-0.63,1.17-0.98,1.94-1.16c6.6-1.53,15.21,5.4,15.3,5.47
				c0.71,0.58,1.71,0.6,2.45,0.06c0.73-0.54,1.01-1.5,0.68-2.35c-1.14-2.87-3.53-11.22-0.96-15.32c0.95-1.52,2.54-2.34,4.87-2.52
				c2.16-0.16,4,0.46,5.61,1.9c5.92,5.29,6.49,19.09,6.49,19.23c0.04,1.1,0.97,2,2.07,1.93c1.1-0.04,1.97-0.97,1.93-2.07
				c-0.01-0.15-0.05-1.16-0.21-2.69c1.07-1.98,5.47-9.04,12.26-6.12c1.94,0.83,3.14,2.01,3.67,3.62c1.27,3.83-1.55,8.79-1.57,8.83
				c-0.34,0.59-0.36,1.3-0.06,1.91c0.3,0.6,0.9,1.01,1.57,1.09c0.43,0.05,43.21,5.16,59.22,46.67c16.12,41.79,0.39,73.67,0.23,73.99
				c-0.37,0.73-0.26,1.62,0.29,2.24C380.76,193.6,394.25,209.14,385.71,228.5z" style="fill:#bc7046"></path>
      </g>
      <g>
        <path d="M383.4,115.28c-4.99-12.93-12.44-22.52-20.48-29.6c2.73-5.54,13.81-23.96,39.78-21.74
				c13.73,1.17,25.28,7.78,32.53,18.59c8.88,13.25,10.45,31.12,4.42,50.31c-3.33,10.61-9.2,18.12-17.43,22.32
				c-12.19,6.22-26.34,3.45-31.21,2.2C391.26,145.44,389.5,131.1,383.4,115.28z" style="fill:#fff3c2"></path>
      </g>
      <g>
        <path d="M455.68,167.95c-12.38,15.07-27.69,21.54-45.52,19.25c-10.66-1.37-19.11-5.64-22.21-7.38
				c1.39-5.37,2.65-12.28,2.99-20.4c2.75,0.7,7.67,1.69,13.5,1.69c5.77,0,12.41-0.97,18.67-4.16c8.73-4.45,14.94-12.36,18.44-23.51
				c6.22-19.78,4.56-38.26-4.67-52.02c-7.59-11.33-19.67-18.24-34.02-19.47c-26.16-2.25-38.16,16.11-41.49,22.42
				c-5.32-4.44-10.84-7.84-16.03-10.42c0.26-0.24,0.46-0.55,0.56-0.92c1.9-6.92,12.94-23.56,31-32.53c15.46-7.67,32.18-8,49.7-0.98
				c20.67,8.28,36.22,27.48,42.68,52.68C476.42,120.02,471.21,149.05,455.68,167.95z" style="fill:#bc7046"></path>
      </g>
      <g>
        <path d="M271.81,232.04c0.63,4.29,4.36,11.56,14.79,11.76c0.15,0,0.29,0,0.44,0c9.85,0,13.52-6.7,14.27-11.01
				c10.99-0.12,12.08-7.94,12.09-8.02c0.13-1.08-0.63-2.05-1.71-2.2c-1.08-0.16-2.08,0.61-2.25,1.69c-0.03,0.21-0.89,5.01-9.6,4.51
				c-9.21-0.52-11.66-10.17-11.76-10.58c-0.01-0.03-0.02-0.06-0.03-0.09c3.99-0.91,13.06-3.6,13.15-9.35
				c0.04-2.9-2.76-5.38-7.89-6.97c-6.98-2.17-16.06-1.95-19.17,2.72c-1.11,1.66-1.36,3.47-0.74,5.22c1.49,4.22,7.97,7.06,10.9,8.15
				c-0.06,0.13-0.1,0.27-0.13,0.41c-0.07,0.35-1.77,8.69-10.59,9.69c-8.61,0.98-10.93-6.14-11.03-6.46
				c-0.32-1.05-1.43-1.65-2.49-1.33c-1.06,0.32-1.66,1.43-1.34,2.49C259.72,226.05,263.72,231.95,271.81,232.04z" style="fill:#bc7046"></path>
      </g>
      <g>
        <path d="M277.16,208.39c-0.14-0.39-0.21-0.9,0.3-1.67c0.99-1.48,3.79-2.27,7.19-2.27c2.34,0,4.96,0.37,7.47,1.15
				c3.89,1.21,5.08,2.69,5.08,3.09c-0.04,2.32-6.15,4.73-10.81,5.68C282.87,213.17,277.96,210.66,277.16,208.39z" style="fill:#bc7046"></path>
      </g>
      <g>
        <path d="M286.17,223.99c2.06,3.6,5.64,7.36,11.12,8.47c-0.5,2.25-2.48,7.35-10.25,7.35c-0.12,0-0.24,0-0.36,0
				c-8.71-0.17-10.52-6.19-10.88-8.16C281,230.5,284.29,227.2,286.17,223.99z" style="fill:#ff0b0b"></path>
      </g>
      <g>
        <path d="M338.54,157.99C338.54,157.99,338.54,157.99,338.54,157.99c-0.01-0.01-0.02-0.01-0.03-0.02
				C338.52,157.98,338.53,157.98,338.54,157.99z" style="fill:#bc7046"></path>
      </g>
      <g>
        <path d="M245.51,171.2c14,0.8,12.74,22.52-1.24,21.72C230.27,192.12,231.53,170.4,245.51,171.2z" style="fill:#bc7046"></path>
      </g>
      <g>
        <path d="M241.36,151.55c1.02-1.35,2.56-2.02,4.23-2.04c1.49-0.01,3.08,0.66,3.99,1.86c0.53,0.69,0.52,1.57-0.12,2.19
				c-0.57,0.55-1.7,0.53-2.19-0.12c-0.08-0.11-0.17-0.22-0.27-0.32c-0.01-0.01-0.02-0.02-0.03-0.03c-0.01,0,0,0-0.01-0.01
				c-0.1-0.07-0.2-0.15-0.31-0.21c-0.01-0.01-0.03-0.02-0.04-0.02c-0.21-0.08-0.41-0.14-0.62-0.2c-0.05-0.01-0.09-0.01-0.14-0.02
				c-0.12-0.01-0.23-0.02-0.35-0.02c-0.04,0-0.08,0-0.12,0c-0.1,0.01-0.2,0.03-0.3,0.05c-0.12,0.02-0.24,0.06-0.36,0.09
				c-0.02,0.01-0.05,0.02-0.05,0.02c-0.09,0.04-0.18,0.09-0.27,0.14c0.03-0.03-0.04,0.01-0.11,0.06c0,0,0,0,0,0
				c-0.03,0.02-0.07,0.04-0.1,0.06c0.04-0.02,0.05-0.03,0.08-0.05c-0.07,0.06-0.14,0.12-0.21,0.19c0.03-0.04,0-0.01-0.04,0.04
				c0,0-0.01,0.01-0.01,0.01c-0.04,0.04-0.08,0.09-0.12,0.13c0.04-0.04,0.06-0.06,0.08-0.08c0,0,0,0,0,0
				c-0.52,0.69-1.4,0.89-2.15,0.44C241.11,153.29,240.87,152.2,241.36,151.55z" style="fill:#bc7046"></path>
      </g>
      <g>
        <path d="M332.27,156.98c-0.43-0.76-0.02-1.68,0.68-2.09c2.57-1.51,6-0.92,8.05,1.17c0.61,0.62,0.46,1.63-0.12,2.19
				c-0.62,0.6-1.63,0.46-2.19-0.12c-0.04-0.05-0.09-0.09-0.14-0.13c0.02,0.01,0.03,0.03,0.05,0.04c-0.02-0.01-0.03-0.03-0.05-0.04
				c-0.01-0.01-0.01-0.01-0.02-0.02c-0.13-0.12-0.08-0.07-0.01-0.01c-0.08-0.06-0.16-0.12-0.23-0.18c-0.1-0.07-0.2-0.13-0.3-0.19
				c-0.04-0.02-0.07-0.04-0.11-0.06c-0.23-0.05-0.47-0.2-0.7-0.26c-0.05-0.02-0.26-0.06-0.3-0.07c-0.05-0.01-0.09-0.01-0.11-0.02
				c-0.26-0.03-0.53-0.05-0.79-0.04c-0.03,0-0.05,0-0.08,0c-0.13,0.02-0.26,0.04-0.38,0.06c-0.13,0.03-0.26,0.06-0.39,0.09
				c-0.03,0.01-0.05,0.02-0.08,0.02c-0.1,0.06-0.22,0.09-0.32,0.14c-0.12,0.06-0.24,0.12-0.35,0.19
				C333.61,158.09,332.66,157.67,332.27,156.98z" style="fill:#bc7046"></path>
      </g>
      <g>
        <path d="M244.32,152.95c0.02-0.01,0.05-0.02,0.07-0.04c-0.01,0.01-0.06,0.04-0.13,0.08c0.01,0,0.01-0.01,0.02-0.02
				C244.29,152.97,244.3,152.96,244.32,152.95z" style="fill:#bc7046"></path>
      </g>
      <g>
        <path d="M244,153.22c0.01-0.01,0.03-0.03,0.04-0.04c-0.01,0.02-0.05,0.05-0.09,0.09
				C243.97,153.25,243.98,153.23,244,153.22z" style="fill:#bc7046"></path>
      </g>
      <g>
        <path d="M335.28,176.3c14,0.8,12.74,22.52-1.24,21.72C320.05,197.23,321.3,175.51,335.28,176.3z" style="fill:#bc7046"></path>
      </g>
    </g>
    <g>
      <g>
        <g>
          <g id="_x36__00000057134863509180531620000017328093798529246886_">
            <g>
              <path d="M292.29,342.03c-0.28,0-0.56-0.06-0.82-0.18c-1.01-0.46-1.45-1.64-1-2.65l1.87-4.14
							c-3.38-6.67-3.44-15.24,2.9-19.61l9.46-11.12c1.03-2.75,2.8-4.73,5.28-5.87c6.7-3.07,16.67,0.94,22.63,3.34l1.9,0.76
							c3.6,1.46,5.57,2.13,7.63,0.21c2.47-2.3,3.88-6.19,4.74-8.92c0.33-1.06,1.45-1.64,2.5-1.31c1.05,0.33,1.64,1.45,1.31,2.5
							c-1.07,3.43-2.7,7.75-5.83,10.66c-4.02,3.74-8.37,1.98-11.86,0.57l-1.89-0.76c-5.01-2.02-14.33-5.77-19.47-3.42
							c-1.57,0.72-2.65,2-3.3,3.89c-0.08,0.24-0.21,0.46-0.37,0.65l-9.88,11.61c-0.12,0.15-0.27,0.27-0.43,0.38
							c-5.05,3.31-4.25,10.28-1.37,15.37c0.32,0.56,0.35,1.23,0.08,1.81l-2.28,5.04C293.78,341.59,293.05,342.03,292.29,342.03z" style="fill:#873c1e"></path>
            </g>
            <g>
              <path d="M341.25,380.78c-9.83,0-20.17-1.94-30.62-5.86c-0.05-0.02-0.09-0.04-0.14-0.06
							c-8.16-3.77-18.02-11.18-21.21-20.69c-1.73-5.14-1.29-10.22,1.31-15.07c0.52-0.97,1.73-1.34,2.71-0.82
							c0.97,0.52,1.34,1.73,0.82,2.71c-2.05,3.85-2.41,7.86-1.04,11.91c2.78,8.29,11.97,15.03,19.03,18.3
							c25.24,9.44,49.68,6.79,67.06-7.28c9.27-7.58,14.43-20.71,13.46-34.26c-1.71-22.27-13.32-44.81-31.85-61.88
							c-2.66-1.3-12.49-6.57-11.09-12.77c0.24-1.08,1.32-1.76,2.39-1.51c1.08,0.24,1.75,1.31,1.51,2.39
							c-0.54,2.38,4.99,6.41,9.18,8.41c0.18,0.08,0.34,0.2,0.49,0.33c19.4,17.77,31.55,41.36,33.35,64.73
							c1.06,14.84-4.66,29.27-14.92,37.66C370.43,376.14,356.46,380.78,341.25,380.78z" style="fill:#873c1e"></path>
            </g>
            <g>
              <path d="M325.12,378.83c-0.61,0-1.2-0.27-1.6-0.79c-0.67-0.88-0.49-2.13,0.39-2.8
							c0.13-0.1,13.48-10.43,18.95-30.16c5.41-19.54-5.35-36.88-5.46-37.05c-0.59-0.93-0.31-2.17,0.62-2.76
							c0.93-0.59,2.17-0.32,2.76,0.61c0.49,0.76,11.84,18.97,5.94,40.26c-5.84,21.09-19.8,31.84-20.39,32.29
							C325.96,378.7,325.54,378.83,325.12,378.83z" style="fill:#873c1e"></path>
            </g>
            <g>
              <path d="M348.79,434.4c-0.93,0-1.76-0.65-1.96-1.6c-0.22-1.08,0.48-2.14,1.56-2.36c0.93-0.19,22.89-5,30.53-29.46
							c7.71-24.66,1.88-36.42,1.82-36.53c-0.5-0.98-0.13-2.18,0.85-2.69c0.98-0.51,2.18-0.14,2.69,0.83
							c0.28,0.52,6.73,13.14-1.54,39.59c-8.37,26.78-32.53,31.98-33.55,32.19C349.05,434.39,348.92,434.4,348.79,434.4z" style="fill:#873c1e"></path>
            </g>
            <g>
              <path d="M282.43,449.39c-15.1,0-27.88-3.48-28.68-3.7c-1.06-0.3-1.69-1.4-1.39-2.46s1.4-1.69,2.46-1.39
							c0.29,0.08,28.84,7.84,50.28,0.05c1.04-0.38,2.19,0.16,2.56,1.2c0.38,1.04-0.16,2.19-1.2,2.56
							C298.73,448.45,290.27,449.39,282.43,449.39z" style="fill:#873c1e"></path>
            </g>
            <g>
              <path d="M244.41,493.86c-10.1,0-20.62-2.41-28.33-7.12c-8.11-4.95-12.12-11.81-11.59-19.82
							c0.07-1.1,1.01-1.95,2.13-1.86c1.1,0.07,1.94,1.03,1.86,2.13c-0.54,8.12,4.97,13.26,9.68,16.14c13,7.94,35.53,8.75,47.26,1.71
							c16.86-10.11,12.68-37.08,12.64-37.35c-0.18-1.09,0.56-2.12,1.65-2.29c1.09-0.19,2.12,0.56,2.3,1.65
							c0.2,1.22,4.67,29.91-14.53,41.43C261.45,492.08,253.08,493.86,244.41,493.86z" style="fill:#873c1e"></path>
            </g>
            <g>
              <path d="M259.39,469.58c-12.98,0-23.1-4.25-23.73-4.52c-1.01-0.43-1.48-1.61-1.05-2.62
							c0.43-1.02,1.61-1.49,2.62-1.05c0.22,0.09,22.16,9.25,41.96,0.03c1-0.47,2.19-0.03,2.66,0.97s0.03,2.19-0.97,2.66
							C273.57,468.44,266.09,469.58,259.39,469.58z" style="fill:#873c1e"></path>
            </g>
            <g>
              <path d="M335.78,491.18c-2.22,0-4.35-0.14-6.34-0.42c-21.22-3.03-32.53-28.1-32.54-45.03c0-1.1,0.89-2,2-2
							c0,0,0,0,0,0c1.1,0,2,0.9,2,2c0,15.48,10.12,38.36,29.1,41.07c18.81,2.68,51.96-9.05,55.75-28.02
							c3.83-19.13-13.51-41.57-13.69-41.79c-0.68-0.87-0.53-2.13,0.34-2.81c0.87-0.68,2.13-0.53,2.81,0.34
							c0.76,0.97,18.65,24.1,14.46,45.04C385.82,478.87,356.66,491.18,335.78,491.18z" style="fill:#873c1e"></path>
            </g>
            <g>
              <path d="M309.83,467.48c-2.34,0-3.82-0.07-4.16-0.09c-1.1-0.06-1.95-1.01-1.88-2.11s1-1.94,2.11-1.88
							c0.54,0.03,55,2.67,76.25-31.02c0.59-0.93,1.82-1.22,2.76-0.62c0.93,0.59,1.21,1.82,0.62,2.76
							C366.32,464.96,323.45,467.48,309.83,467.48z" style="fill:#873c1e"></path>
            </g>
            <g>
              <path d="M196.46,397.9c-0.75,0-1.46-0.42-1.81-1.14c-12.6-26.38-0.61-63.98-0.1-65.56
							c0.34-1.05,1.47-1.62,2.52-1.28c1.05,0.34,1.62,1.47,1.28,2.52c-0.12,0.37-12.01,37.68-0.1,62.6c0.48,1,0.05,2.19-0.94,2.67
							C197.04,397.83,196.75,397.9,196.46,397.9z" style="fill:#873c1e"></path>
            </g>
            <g>
              <path d="M179.93,354.89c-3.87,0-8.17-1-12.38-4.01c-11.44-8.17-9.76-20.82-9.37-23l-0.29-3.89
							c-0.08-1.1,0.74-2.06,1.84-2.15c1.11-0.09,2.06,0.74,2.15,1.84l0.32,4.16c0.01,0.19,0,0.39-0.04,0.57
							c-0.1,0.48-2.38,11.99,7.72,19.21c10.13,7.23,21.41,0.03,21.53-0.05c0.93-0.6,2.16-0.34,2.77,0.58
							c0.6,0.93,0.34,2.17-0.58,2.77C193.22,351.17,187.39,354.89,179.93,354.89z" style="fill:#873c1e"></path>
            </g>
            <g>
              <g>
                <path d="M156.98,295.46c-0.03,0-0.05,0-0.08,0c-1.1-0.04-1.96-0.97-1.92-2.08c0.42-10.36,2.91-20.23,7.21-28.53
								c5.09-9.84,12.72-16.84,20.94-19.2c6.44-1.85,12.91-0.89,19.24,2.85c6.89,4.07,12.75,12.14,9.33,20.21
								c-1.44,3.41-4.13,5.88-7.58,6.96c-3.9,1.22-8.44,0.55-12.15-1.78c-0.93-0.59-1.22-1.82-0.63-2.76
								c0.59-0.93,1.82-1.22,2.76-0.63c2.74,1.72,6.04,2.23,8.82,1.35c1.63-0.51,3.84-1.74,5.09-4.71
								c2.65-6.26-3.14-12.52-7.69-15.21c-5.34-3.16-10.76-3.98-16.1-2.45c-7.16,2.06-13.9,8.32-18.49,17.19
								c-4.03,7.79-6.37,17.07-6.76,26.86C158.94,294.62,158.05,295.46,156.98,295.46z" style="fill:#873c1e"></path>
              </g>
              <g>
                <path d="M194.84,296.46c-5.16,0-8.82-2.14-9.05-2.28c-0.95-0.57-1.25-1.8-0.69-2.74s1.8-1.25,2.74-0.69
								c0.26,0.15,6.62,3.8,13.94-0.05c1.28-0.68,2.09-1.65,2.45-2.99c1.12-4.05-1.95-10.36-3.23-12.44
								c-0.58-0.94-0.28-2.17,0.66-2.75c0.94-0.58,2.17-0.28,2.75,0.66c0.22,0.37,5.47,9.03,3.68,15.59
								c-0.67,2.43-2.16,4.27-4.45,5.48C200.5,295.91,197.47,296.46,194.84,296.46z" style="fill:#873c1e"></path>
              </g>
              <g>
                <path d="M180.38,316.44c-2.47,0-4.73-0.31-6.45-0.65c-1.08-0.21-1.79-1.26-1.58-2.35
								c0.21-1.08,1.26-1.79,2.35-1.58c4.12,0.8,11.75,1.47,16.65-3.11c1.91-1.79,2.94-3.99,2.96-6.37
								c0.02-2.33-0.95-4.66-2.74-6.58c-0.75-0.81-0.71-2.07,0.1-2.83c0.81-0.75,2.07-0.71,2.83,0.1c2.49,2.67,3.85,5.99,3.81,9.35
								c-0.04,3.45-1.54,6.73-4.23,9.25C190.08,315.42,184.87,316.44,180.38,316.44z" style="fill:#873c1e"></path>
              </g>
            </g>
          </g>
          <g>
            <path d="M298.91,342.03c-0.56,0-1.12-0.24-1.52-0.7l-4.34-5.04c-0.72-0.84-0.62-2.1,0.21-2.82
						c0.84-0.72,2.1-0.62,2.82,0.21l4.34,5.04c0.72,0.84,0.62,2.1-0.21,2.82C299.83,341.87,299.37,342.03,298.91,342.03z" style="fill:#873c1e"></path>
          </g>
          <g>
            <path d="M306.39,321.74c-0.61,0-1.2-0.27-1.6-0.79c-0.51-0.67-4.95-6.73-4.03-11.58c0.21-1.08,1.26-1.8,2.34-1.59
						c1.08,0.21,1.8,1.25,1.59,2.34c-0.45,2.36,1.78,6.42,3.29,8.43c0.66,0.88,0.49,2.14-0.39,2.8
						C307.23,321.61,306.81,321.74,306.39,321.74z" style="fill:#873c1e"></path>
          </g>
        </g>
        <g id="body_00000056386786028361049880000002167562917116648600_">
          <g>
            <path d="M238.06,467.35H37.58c-1.1,0-2-0.9-2-2v-39.26c0-0.63,0.3-1.22,0.8-1.6s1.15-0.5,1.76-0.33
						c0.18,0.05,17.95,5.03,20.78-4.73c1.35-4.66-1.56-7.41-3.42-8.63c-4.31-2.84-11.9-3.47-16.63,0.44
						c-0.6,0.49-1.42,0.6-2.13,0.27c-0.7-0.33-1.15-1.04-1.15-1.81v-85.39c0-0.64,0.31-1.24,0.83-1.62s1.18-0.48,1.79-0.28
						c3.19,1.04,12.45,3.03,17.01-0.19c1.85-1.31,2.79-3.39,2.86-6.34c0.12-5.02-1.79-8.6-5.54-10.37
						c-4.66-2.19-10.93-1.1-13.65,1.25c-0.59,0.51-1.43,0.63-2.14,0.31c-0.71-0.33-1.17-1.04-1.17-1.82v-40.41c0-1.1,0.9-2,2-2
						h101.78c1.08,0,1.96,0.85,2,1.93l1.42,38.99c4.01-1.58,11.53-3.84,17.45-1.54c3.28,1.28,5.61,3.73,6.93,7.28
						c2.17,5.83,0.26,11.56-5.11,15.31c-5.38,3.77-13.96,5.06-20.69,1.67v36.61h34.97c0.69,0,1.33,0.36,1.69,0.94
						c0.37,0.58,0.41,1.32,0.1,1.94c-0.07,0.15-7.14,14.94-2.97,24.62c1.53,3.56,4.36,5.94,8.63,7.28
						c5.78,1.82,10.27,0.58,13.33-3.67c5.45-7.57,4.6-21.68,0.07-27.93c-0.44-0.61-0.5-1.41-0.16-2.08
						c0.34-0.67,1.03-1.09,1.78-1.09h40.79c1.1,0,2,0.9,2,2v39.74c4.01-2.4,11.02-5.76,16.76-4.1c3.31,0.96,5.71,3.35,7.13,7.11
						c2.95,7.8,1.22,15.77-4.31,19.84c-2.69,1.98-9.82,5.43-21.12-1.9v39.57C240.06,466.45,239.16,467.35,238.06,467.35z
						 M141.36,463.35h94.71v-41.46c0-0.76,0.44-1.46,1.12-1.8c0.69-0.33,1.5-0.25,2.11,0.22c7.76,6.06,14.87,7.57,19.52,4.15
						c4-2.95,5.21-9.2,2.94-15.2c-0.97-2.56-2.44-4.09-4.49-4.68c-5.37-1.55-13.69,3.5-16.45,5.57c-0.61,0.46-1.42,0.53-2.1,0.19
						c-0.68-0.34-1.11-1.03-1.11-1.79V367.1h-35.36c3.68,8.15,3.84,21.51-1.88,29.45c-4.07,5.65-10.38,7.48-17.78,5.15
						c-5.38-1.69-9.11-4.9-11.1-9.52c-3.71-8.63-0.23-19.85,1.81-25.07h-31.94v38.29c4.22-1.82,12.08-4.47,17.94-2.08
						c3.13,1.27,5.27,3.74,6.37,7.33c2.02,6.61,0.17,12.7-4.94,16.3c-5.36,3.78-12.67,3.75-19.37,0.13V463.35z M39.58,463.35h97.78
						v-39.93c0-0.76,0.43-1.45,1.1-1.79c0.67-0.34,1.48-0.27,2.09,0.18c6.9,5.12,13.95,4.62,17.88,1.86
						c3.63-2.56,4.9-6.99,3.42-11.86c-0.74-2.42-2.06-3.99-4.05-4.8c-5.36-2.18-14.43,1.64-17.47,3.3
						c-0.62,0.34-1.37,0.33-1.98-0.04c-0.61-0.36-0.98-1.01-0.98-1.72V367.1H39.58v39c5.95-2.76,13.4-1.73,18.1,1.36
						c4.73,3.11,6.58,7.88,5.07,13.09c-3.17,10.91-17.29,9.27-23.17,8.07V463.35z M39.58,363.1h97.78v-40.31
						c0-0.78,0.45-1.49,1.16-1.82c0.71-0.33,1.54-0.21,2.14,0.29c5.43,4.62,14.14,3.75,19.1,0.28c2.25-1.58,5.72-5.05,3.65-10.64
						c-0.92-2.47-2.43-4.09-4.62-4.95c-6.62-2.59-16.89,2.55-16.99,2.6c-0.61,0.31-1.33,0.29-1.92-0.06
						c-0.59-0.35-0.96-0.97-0.98-1.65l-1.45-40H39.58v34.9c4.1-1.73,9.84-2.13,14.66,0.14c5.21,2.46,7.99,7.46,7.83,14.08
						c-0.1,4.25-1.64,7.45-4.56,9.52c-5.27,3.72-13.68,2.44-17.93,1.44V363.1z" style="fill:#873c1e"></path>
          </g>
          <g>
            <g>
              <path d="M164.33,321.74c-0.71,0-1.4-0.38-1.76-1.05c-0.52-0.97-0.16-2.19,0.81-2.71
							c0.45-0.25,11.15-6.2,7.27-16.2c-3.82-9.86-21.31-3.85-21.49-3.79c-0.62,0.21-1.3,0.12-1.83-0.26
							c-0.53-0.38-0.84-0.99-0.84-1.65c0.16-16.13-0.27-34.01-1.27-37.88c-9.24-1.11-92.62-1.02-97.96,0.17
							c-1.89,0.63-5.91,4.89-8.13,7.71c-0.68,0.87-1.94,1.01-2.81,0.33c-0.87-0.68-1.01-1.94-0.33-2.81
							c1.02-1.29,6.28-7.78,10.08-9.04c2.94-0.98,46.08-1.09,50.99-1.1c48.48-0.11,49.98,0.91,50.62,1.34
							c1.13,0.75,2.3,1.53,2.7,22.02c0.13,6.55,0.13,13.07,0.11,16.61c5.9-1.53,19.71-3.81,23.86,6.92
							c4.12,10.65-4.16,18.5-9.11,21.17C164.97,321.67,164.65,321.74,164.33,321.74z M145.88,258.31L145.88,258.31L145.88,258.31z" style="fill:#873c1e"></path>
            </g>
            <g>
              <path d="M198.26,397.49c-2.85,0-17.21-0.53-21.32-11.08c-3.3-8.49,3.59-20.77,7.37-26.55H147.4c-1.1,0-2-0.9-2-2
							v-31.58c0-1.1,0.9-2,2-2s2,0.9,2,2v29.58h38.75c0.76,0,1.45,0.43,1.79,1.11c0.34,0.68,0.26,1.49-0.2,2.1
							c-3.52,4.63-12.01,18.32-9.07,25.89c3.44,8.84,17.79,8.53,17.94,8.52c1.11-0.06,2.03,0.84,2.06,1.94
							c0.03,1.1-0.83,2.02-1.94,2.06C198.67,397.48,198.51,397.49,198.26,397.49z" style="fill:#873c1e"></path>
            </g>
            <g>
              <path d="M262.93,427.53c-0.81,0-1.63-0.08-2.43-0.24c-1.08-0.22-1.78-1.27-1.57-2.36
							c0.22-1.08,1.27-1.78,2.36-1.57c3.64,0.74,7.65-1.05,10.21-4.55c3.15-4.32,3.26-10.08,0.29-15.39
							c-6.2-11.09-21.94-2.99-22.6-2.64c-0.62,0.33-1.37,0.3-1.97-0.06c-0.6-0.36-0.97-1.01-0.97-1.71v-39.93h-37.89l-8.19,7.48
							c-0.82,0.75-2.08,0.69-2.83-0.13s-0.69-2.08,0.13-2.83l8.77-8c0.37-0.34,0.85-0.52,1.35-0.52h40.66c1.1,0,2,0.9,2,2v38.82
							c7.47-2.97,19.36-4.57,25.03,5.57c3.75,6.72,3.55,14.08-0.55,19.7C271.8,425.2,267.36,427.53,262.93,427.53z" style="fill:#873c1e"></path>
            </g>
            <g>
              <path d="M238.06,467.35c-0.56,0-1.12-0.24-1.52-0.7c-0.72-0.84-0.63-2.1,0.21-2.82l9.49-8.17v-28.18
							c0-1.1,0.9-2,2-2s2,0.9,2,2v29.1c0,0.58-0.25,1.14-0.7,1.52l-10.19,8.77C238.99,467.19,238.52,467.35,238.06,467.35z" style="fill:#873c1e"></path>
            </g>
            <g>
              <path d="M37.58,428.09c-0.51,0-1.02-0.2-1.41-0.59c-0.78-0.78-0.78-2.05,0-2.83l7.24-7.24
							c0.45-0.45,1.07-0.66,1.7-0.57c4.36,0.62,12.21,0.7,14.72-1.79c0.78-0.78,2.05-0.77,2.83,0.01c0.78,0.78,0.77,2.05-0.01,2.83
							c-4.13,4.09-13.8,3.41-17.1,3.04l-6.55,6.55C38.6,427.89,38.09,428.09,37.58,428.09z" style="fill:#873c1e"></path>
            </g>
            <g>
              <path d="M37.58,326.31c-0.46,0-0.93-0.16-1.31-0.49c-0.84-0.72-0.93-1.99-0.21-2.82l7.24-8.39
							c0.57-0.65,1.49-0.87,2.29-0.54c3.37,1.41,10.94,3.43,12.83,0.71c0.63-0.91,1.87-1.14,2.78-0.51
							c0.91,0.63,1.13,1.88,0.51,2.78c-3.57,5.15-12.7,2.53-16.3,1.23l-6.32,7.32C38.7,326.08,38.14,326.31,37.58,326.31z" style="fill:#873c1e"></path>
            </g>
          </g>
          <g>
            <g>
              <path d="M298.16,316.22c-0.38,0-0.77-0.11-1.11-0.34c-0.92-0.62-1.16-1.86-0.55-2.78
							c2.79-4.16,5.42-8.7,7.97-13.09c2.22-3.84,4.51-7.79,6.95-11.57c-7.86-5.2-15.95-10.29-23.78-15.22
							c-2.22-1.4-4.44-2.8-6.66-4.2c-0.54,0.8-1.41,1.24-2.27,1.24c-2.2,6.15-6.26,12.04-11.21,13.46
							c-2.55,0.73-6.46,0.63-10.63-3.96c-3.35-3.34-4.82-8.03-4.1-13.14c0.69-4.83,3.32-9.56,7.06-12.98
							c-0.34-0.69-0.39-1.47-0.13-2.17c-0.59-0.4-1.19-0.81-1.8-1.22c-3.71-2.52-7.54-5.12-11.7-6.9c-0.15-0.06-0.28-0.14-0.41-0.24
							l-11.32-8.49c-0.3,0.08-0.84,0.36-1.21,0.73c-0.77,0.77-1.4,1.82-2.06,2.93c-0.75,1.25-1.52,2.54-2.62,3.65
							c-7.16,8.19-12.43,15.49-16.58,22.97c-0.54,0.97-1.75,1.31-2.72,0.78c-0.97-0.54-1.31-1.75-0.78-2.72
							c4.3-7.75,9.74-15.29,17.11-23.71c0.03-0.03,0.06-0.07,0.09-0.1c0.77-0.77,1.4-1.82,2.06-2.93c0.76-1.27,1.55-2.58,2.67-3.7
							c1.82-1.82,4.71-2.68,6.49-1.07l11.08,8.31c4.42,1.93,8.35,4.59,12.15,7.17c1.85,1.26,3.61,2.45,5.36,3.52
							c0.16,0.09,0.32,0.19,0.48,0.29c0.32,0.2,0.57,0.49,0.73,0.82l0,0c0,0,0,0,0,0c0,0,0,0,0,0c0,0,0,0,0,0c0,0,0,0,0,0l0,0
							c0.03,0.07,0.06,0.13,0.08,0.2c0,0,0,0,0,0c0,0,0,0,0,0c0,0,0,0,0,0c0,0,0,0,0,0s0,0,0,0v0c0,0,0,0,0,0c0,0,0,0,0,0
							c0,0,0,0,0,0c0.07,0.21,0.1,0.42,0.1,0.65c0,0,0,0,0,0c0,0,0,0,0,0c0,0,0,0,0,0c0,0,0,0,0,0c0,0.1-0.01,0.19-0.02,0.29l0,0
							l0,0c-0.04,0.26-0.14,0.52-0.27,0.74h0c0,0,0,0,0,0c0,0,0,0,0,0c0,0,0,0,0,0c-0.05,0.08-0.11,0.17-0.18,0.24l0,0c0,0,0,0,0,0
							c0,0,0,0,0,0l0,0c0,0,0,0,0,0c0,0,0,0,0,0c-0.11,0.12-0.23,0.23-0.36,0.33c-0.4,0.28-0.78,0.51-1.15,0.69
							c-4.31,2.76-7.47,7.53-8.17,12.42c-0.39,2.71-0.17,6.62,3.03,9.82c2.34,2.57,4.49,3.49,6.64,2.88
							c4.52-1.29,8.57-8.99,9.74-15.38c0.05-0.26,0.15-0.51,0.29-0.73l0,0c0,0,0,0,0,0c0,0,0,0,0,0l0,0c0,0,0,0,0,0l0,0c0,0,0,0,0,0
							l0,0c0,0,0,0,0,0c0,0,0,0,0,0c0,0,0,0,0,0s0,0,0,0c0,0,0,0,0,0c0,0,0,0,0,0l0,0c0,0,0,0,0,0c0,0,0,0,0,0v0c0,0,0,0,0,0l0,0
							c0,0,0,0,0,0l0,0c0.01-0.01,0.02-0.03,0.03-0.04l0,0c0,0,0,0,0,0l0,0c0,0,0,0,0,0l0,0c0,0,0,0,0,0h0c0,0,0,0,0,0l0,0
							c0,0,0,0,0,0c0,0,0,0,0,0v0c0,0,0,0,0,0l0,0c0,0,0,0,0,0c0,0,0,0,0,0c0,0,0,0,0,0c0,0,0,0,0,0l0,0c0,0,0,0,0,0l0,0
							c0,0,0,0,0,0l0,0c0,0,0,0,0,0l0,0c0,0,0,0,0,0l0,0c0.11-0.15,0.25-0.28,0.39-0.39l0,0c0,0,0,0,0,0c0,0,0,0,0,0c0,0,0,0,0,0h0
							c0,0,0,0,0,0c0,0,0,0,0,0c0,0,0,0,0,0c0,0,0,0,0,0c0,0,0,0,0,0c0,0,0,0,0,0c0,0,0,0,0,0c0,0,0,0,0,0c0,0,0,0,0,0c0,0,0,0,0,0
							c0,0,0,0,0,0c0,0,0,0,0,0c0,0,0,0,0,0c0,0,0,0,0,0c0,0,0,0,0,0c0.1-0.07,0.21-0.14,0.33-0.19c0.05-0.02,0.1-0.04,0.16-0.06
							l0,0c0,0,0,0,0,0h0c0,0,0,0,0,0v0c0,0,0,0,0,0l0,0c0,0,0,0,0,0c0,0,0,0,0,0c0,0,0,0,0,0c0,0,0,0,0,0l0,0c0,0,0,0,0,0
							c0,0,0,0,0,0h0c0,0,0,0,0,0c0,0,0,0,0,0c0,0,0,0,0,0c0,0,0,0,0,0c0,0,0,0,0,0c0,0,0,0,0,0c0,0,0,0,0,0s0,0,0,0c0,0,0,0,0,0h0
							c0,0,0,0,0,0h0c0,0,0,0,0,0c0,0,0,0,0,0l0,0c0,0,0,0,0,0h0c0,0,0,0,0,0c0,0,0,0,0,0c0,0,0,0,0,0h0c0,0,0,0,0,0h0c0,0,0,0,0,0
							c0,0,0,0,0,0c0,0,0,0,0,0s0,0,0,0c0,0,0,0,0,0c0,0,0,0,0,0v0c0,0,0,0,0.01,0c0,0,0,0,0,0c0.02,0,0.03-0.01,0.05-0.01
							c0,0,0,0,0.01,0l0,0c0,0,0,0,0,0l0,0c0,0,0,0,0,0c0,0,0,0,0.01,0l0,0c0,0,0,0,0,0c0,0,0,0,0,0l0,0c0,0,0,0,0.01,0l0,0
							c0,0,0,0,0.01,0l0,0c0,0,0.01,0,0.01,0l0,0c0,0,0,0,0,0l0,0c0,0,0,0,0,0l0,0c0,0,0,0,0,0l0,0c0.13-0.03,0.27-0.05,0.41-0.05
							l0,0c0,0,0,0,0,0c0,0,0,0,0,0l0,0c0,0,0,0,0,0l0,0c0,0,0.01,0,0.01,0l0,0c0,0,0,0,0,0l0,0c0,0,0,0,0,0l0,0c0,0,0,0,0,0h0
							c0.01,0,0.01,0,0.02,0c0,0,0,0,0,0c0,0,0,0,0,0h0c0,0,0,0,0,0c0,0,0,0,0,0c0,0,0,0,0,0c0,0,0,0,0,0c0,0,0,0,0,0s0,0,0,0h0
							c0,0,0,0,0,0c0,0,0,0,0,0h0c0,0,0,0,0,0c0,0,0,0,0,0h0c0,0,0,0,0,0c0,0,0,0,0,0s0,0,0,0h0c0,0,0,0,0,0c0,0,0,0,0,0h0
							c0,0,0,0,0,0c0,0,0,0,0,0h0c0,0,0,0,0,0l0,0c0,0,0,0,0,0h0c0.01,0,0.04,0.01,0.04,0c0,0,0,0,0,0l0,0c0,0,0,0,0,0h0
							c0,0,0,0,0,0c0,0,0,0,0,0h0c0,0,0,0,0,0c0,0,0,0,0,0h0c0,0,0,0,0,0c0,0,0,0,0,0c0,0,0,0,0,0c0,0,0,0,0,0c0,0,0,0,0,0
							c0,0,0,0,0,0c0,0,0,0,0,0c0,0,0,0,0,0h0c0,0,0,0,0,0c0,0,0,0,0,0c0,0,0,0,0,0c0,0,0.01,0,0.02,0h0c0,0,0,0,0,0c0,0,0,0,0,0h0
							c0,0,0,0,0,0c0,0,0,0,0,0c0,0,0,0,0,0c0,0,0,0,0,0c0,0,0,0,0,0c0,0,0,0,0,0c0,0,0,0,0,0c0,0,0,0,0,0c0,0,0,0,0,0h0
							c0,0,0,0,0,0s0,0,0,0c0,0,0,0,0,0h0c0,0,0,0,0,0c0,0,0,0,0,0s0,0,0,0c0,0,0,0,0,0h0c0,0,0,0,0,0l0,0
							c0.25,0.04,0.49,0.12,0.71,0.25l0,0c0,0,0,0,0,0c0,0,0,0,0,0l0,0c0,0,0,0,0,0c0,0,0,0,0,0l0,0c0.01,0,0.01,0.01,0.02,0.01
							c0.08,0.05,0.16,0.1,0.24,0.15c3.46,2.19,6.92,4.38,10.39,6.55c8.41,5.29,17.11,10.76,25.52,16.37
							c0.44,0.29,0.75,0.75,0.85,1.27c0.1,0.52,0,1.06-0.3,1.5c-2.79,4.18-5.4,8.68-7.92,13.04c-2.58,4.45-5.25,9.05-8.11,13.32
							C299.43,315.91,298.8,316.22,298.16,316.22z" style="fill:#873c1e"></path>
            </g>
            <g>
              <path d="M259.05,373.37c-0.43,0-0.86-0.14-1.21-0.41l-10.8-8.2c-0.88-0.67-1.05-1.92-0.38-2.8
							c0.67-0.88,1.92-1.05,2.8-0.38l9.18,6.98l23.94-32.4c0.37-0.5,0.95-0.8,1.57-0.81c0.6,0,1.21,0.26,1.6,0.75
							c1.38,1.72,3.64,2.44,6.19,1.98c1.09-0.21,2.13,0.53,2.32,1.61c0.2,1.09-0.53,2.13-1.61,2.32c-3.04,0.55-5.95-0.07-8.18-1.67
							l-23.81,32.23c-0.32,0.43-0.79,0.72-1.32,0.79C259.24,373.36,259.14,373.37,259.05,373.37z" style="fill:#873c1e"></path>
            </g>
            <g>
              <path d="M236.54,357.57c-0.43,0-0.87-0.14-1.23-0.43l-9.9-7.75c-0.52-0.4-0.8-1.04-0.76-1.69
							c0.04-0.65,0.39-1.25,0.95-1.59c5.92-3.63,12.03-10.13,9.78-16.51c-1.03-2.93-3.32-4.31-5.06-4.95
							c-3.16-1.17-7.07-0.84-9.96,0.83c-5.1,2.95-6.81,8.9-7.38,12.19c-0.12,0.68-0.57,1.25-1.2,1.51s-1.36,0.18-1.92-0.21
							l-27.37-19.22c-0.14-0.1-0.34-0.21-0.58-0.34c-1.32-0.76-4.06-2.33-2.98-4.76c0.45-1.01,1.63-1.47,2.64-1.01
							c0.66,0.29,1.09,0.91,1.17,1.58c0.33,0.24,0.87,0.55,1.16,0.72c0.36,0.2,0.67,0.39,0.88,0.54l24.94,17.51
							c1.54-5.41,4.54-9.59,8.64-11.96c3.94-2.28,9.06-2.71,13.35-1.12c3.59,1.33,6.24,3.95,7.44,7.37
							c2.71,7.68-2.79,15.03-9.11,19.67l7.73,6.05c0.87,0.68,1.02,1.94,0.34,2.81C237.73,357.3,237.14,357.57,236.54,357.57z" style="fill:#873c1e"></path>
            </g>
          </g>
          <g>
            <g>
              <path d="M209.18,257.45c-0.37,0-0.75-0.1-1.09-0.32c-0.93-0.6-1.19-1.84-0.59-2.77l3.96-6.11
							c0.02-0.03,0.04-0.06,0.06-0.08l18.84-26.04c0.61-0.85,1.78-1.08,2.68-0.53l34.31,21.35c0.69,0.43,1.06,1.24,0.91,2.05
							l-1.39,7.78c-0.19,1.09-1.24,1.81-2.32,1.62c-1.09-0.19-1.81-1.23-1.62-2.32l1.15-6.45l-31.57-19.65l-17.71,24.49l-3.93,6.07
							C210.48,257.13,209.84,257.45,209.18,257.45z" style="fill:#873c1e"></path>
            </g>
            <g>
              <path d="M313.94,289.6c-1.1,0-2-0.9-2-2v-9.06l-33.02-20.03c-1.54,4.76-5.37,14.27-12.02,16.38
							c-7.48,2.37-11.71-3.27-12.9-6.59c-0.37-1.04,0.17-2.18,1.21-2.56c1.03-0.37,2.18,0.17,2.55,1.2
							c0.23,0.62,2.37,5.89,7.93,4.13c5.37-1.7,9.11-12.21,10.1-16.11c0.16-0.61,0.59-1.12,1.18-1.36c0.59-0.24,1.25-0.19,1.79,0.14
							l36.21,21.96c0.6,0.36,0.96,1.01,0.96,1.71v10.18C315.94,288.7,315.04,289.6,313.94,289.6z" style="fill:#873c1e"></path>
            </g>
            <g>
              <path d="M226.64,349.82c-0.98,0-1.84-0.73-1.98-1.73l-1.45-10.48c-0.08-0.61,0.12-1.23,0.55-1.67
							c3.7-3.77,7.92-8.55,8.51-9.88c0.1-0.95,0.87-1.71,1.85-1.78c1.1-0.07,2.06,0.75,2.13,1.86c0.06,0.83,0.18,2.52-8.95,11.9
							l1.31,9.51c0.15,1.09-0.61,2.1-1.71,2.25C226.83,349.81,226.74,349.82,226.64,349.82z M232.28,326.41
							C232.28,326.41,232.28,326.41,232.28,326.41C232.28,326.41,232.28,326.41,232.28,326.41z" style="fill:#873c1e"></path>
            </g>
          </g>
        </g>
      </g>
      <g id="head_ori_00000162342668708776702030000005140612682569244572_">
        <g id="head_00000099638500762552310490000008164272821819875256_">
          <g>
            <path d="M362.72,253.13c-0.42,0-0.81-0.27-0.95-0.69c-0.17-0.52,0.11-1.09,0.63-1.26
						c6.77-2.24,13.33-13.92,12.57-29.6c-0.78-16.17-10.56-22.45-10.66-22.51c-0.27-0.17-0.44-0.45-0.47-0.76
						c-0.03-0.31,0.09-0.62,0.33-0.83c0.03-0.02,4.05-4.12,7.35-24.77c3.42-21.38-2.61-57.13-33.22-67.98
						c-30.36-10.76-43.85,0.69-43.98,0.81c-0.04,0.04-0.09,0.07-0.13,0.1c-1.31,0.82-2.67,1.55-3.52,0.72
						c-0.36-0.35-0.46-0.86-0.31-1.44c-2.42-2.19-15.06-11.86-43.17-5.36c-31.64,7.31-41.69,42.15-40.71,63.78
						c0.94,20.89,4.47,25.42,4.51,25.46c0.2,0.24,0.28,0.56,0.21,0.86c-0.07,0.3-0.26,0.56-0.54,0.69
						c-0.1,0.05-10.53,5.18-13.14,21.16c-2.53,15.49,2.66,27.84,9.13,30.84c0.5,0.23,0.72,0.83,0.49,1.33
						c-0.23,0.5-0.83,0.72-1.33,0.49c-7.05-3.26-13.05-15.92-10.27-32.97c2.34-14.32,10.46-20.4,13.29-22.11
						c-1.18-2.27-3.6-8.89-4.35-25.65c-1-22.3,9.43-58.23,42.26-65.82c32.65-7.54,45.03,5.83,45.54,6.4
						c0.09,0.1,0.15,0.21,0.19,0.32c0.17-0.09,0.36-0.2,0.58-0.34c1.22-1.04,15.13-12.04,45.91-1.14
						c31.77,11.26,38.05,48.14,34.53,70.18c-2.65,16.56-5.8,22.86-7.23,24.99c2.62,2.03,10,8.99,10.7,23.48
						c0.83,17.25-6.56,29.16-13.94,31.6C362.93,253.11,362.82,253.13,362.72,253.13z" style="fill:#6d3612"></path>
          </g>
          <g>
            <path d="M181.27,148.42c-6.84,0-16.14-1.23-24.25-6.59c-8.17-5.41-13.44-13.97-15.66-25.45
						c-3.93-20.36-0.19-38.53,10.53-51.16c8.83-10.39,21.62-15.88,36.01-15.49c31.46,0.89,39.37,28.89,39.44,29.17
						c0.14,0.53-0.17,1.08-0.71,1.22c-0.53,0.14-1.08-0.17-1.23-0.7c-0.3-1.1-7.62-26.85-37.57-27.69
						c-13.75-0.4-26,4.86-34.43,14.78c-10.33,12.16-13.91,29.73-10.09,49.48c2.11,10.92,7.09,19.05,14.79,24.15
						c13.95,9.25,32.37,5.47,32.55,5.43c0.54-0.12,1.07,0.23,1.19,0.77c0.12,0.54-0.23,1.07-0.77,1.19
						C190.73,147.61,186.81,148.42,181.27,148.42z" style="fill:#6d3612"></path>
          </g>
          <g>
            <path d="M165.68,177.35c-13.35,0-31.75-4.66-45.63-26.12c-13.96-21.6-16-52.41-5.31-80.42
						c9.73-25.5,28.34-43.7,51.06-49.93c19.35-5.31,37.01-2.91,52.5,7.11c19.05,12.33,27.82,31.66,28.89,38.58
						c0.17,1.09-0.58,2.11-1.67,2.28c-1.09,0.16-2.11-0.58-2.28-1.67c-1.1-7.09-10.19-24.88-27.12-35.84
						c-14.49-9.38-31.06-11.6-49.26-6.61c-21.47,5.89-39.11,23.2-48.38,47.5c-10.24,26.84-8.35,56.28,4.93,76.82
						c10.42,16.12,24.62,24.29,42.21,24.29c0.28,0,0.56,0,0.83-0.01c13.56-0.2,24.16-5.36,24.26-5.42c0.99-0.49,2.19-0.08,2.68,0.9
						c0.49,0.99,0.09,2.19-0.9,2.68c-0.46,0.23-11.4,5.58-25.83,5.83C166.34,177.35,166.01,177.35,165.68,177.35z" style="fill:#6d3612"></path>
          </g>
          <g>
            <path d="M404.44,161.11c-8.67,0-15.37-2.19-15.82-2.35c-0.52-0.18-0.8-0.74-0.63-1.27
						c0.18-0.52,0.75-0.8,1.27-0.63c0.18,0.06,18.05,5.9,32.96-1.7c8.23-4.2,14.1-11.71,17.43-22.32
						c6.03-19.19,4.46-37.06-4.42-50.31c-7.25-10.81-18.8-17.42-32.53-18.59c-29.87-2.55-40.05,22.2-40.47,23.25
						c-0.2,0.51-0.79,0.77-1.3,0.56c-0.51-0.2-0.76-0.78-0.56-1.3c0.11-0.27,11.13-27.21,42.5-24.51
						c14.34,1.23,26.43,8.14,34.02,19.47c9.23,13.77,10.88,32.24,4.67,52.02c-3.5,11.15-9.71,19.06-18.44,23.51
						C416.85,160.14,410.2,161.11,404.44,161.11z" style="fill:#6d3612"></path>
          </g>
          <g>
            <path d="M416.79,191.64c-2.58,0-5.03-0.18-7.3-0.48c-14.31-1.88-24.57-8.44-25-8.72c-0.93-0.6-1.19-1.84-0.59-2.76
						c0.6-0.93,1.83-1.2,2.76-0.59c0.1,0.06,10.04,6.4,23.49,8.13c17.83,2.3,33.14-4.18,45.52-19.25
						c15.53-18.91,20.74-47.94,13.61-75.77C462.83,67,447.27,47.8,426.6,39.51c-17.52-7.02-34.24-6.69-49.7,0.98
						c-18.06,8.97-29.1,25.61-31,32.53c-0.29,1.06-1.39,1.69-2.46,1.4c-1.07-0.29-1.69-1.39-1.4-2.46
						c1.85-6.76,12.76-24.97,33.08-35.06c16.52-8.2,34.34-8.58,52.96-1.11c21.86,8.76,38.29,28.95,45.07,55.39
						c7.45,29.04,1.93,59.42-14.39,79.3C444.98,187.28,429.32,191.64,416.79,191.64z" style="fill:#6d3612"></path>
          </g>
          <g>
            <path d="M265.34,66.91c-0.55,0-1.1-0.23-1.5-0.67c-0.76-0.86-4.49-5.33-3.25-9.21c0.43-1.34,1.62-3.09,4.86-3.84
						c4.92-1.13,10.26,1.02,13.98,3.11c-0.9-4.09-1.42-9.62,0.98-13.47c1.65-2.64,4.33-4.11,7.96-4.39
						c3.27-0.25,6.15,0.73,8.58,2.91c7.19,6.43,7.8,21.43,7.82,22.06c0.04,1.1-0.82,2.03-1.93,2.07c-1.1,0.05-2.03-0.82-2.07-1.93
						c0-0.14-0.58-13.94-6.49-19.23c-1.61-1.44-3.45-2.05-5.61-1.9c-2.33,0.18-3.92,1-4.87,2.52c-2.57,4.1-0.18,12.45,0.96,15.32
						c0.34,0.85,0.06,1.81-0.68,2.35c-0.73,0.54-1.74,0.51-2.45-0.06c-0.09-0.07-8.7-7-15.3-5.47c-0.78,0.18-1.74,0.52-1.94,1.16
						c-0.4,1.23,1.16,3.9,2.44,5.34c0.73,0.83,0.65,2.09-0.17,2.82C266.28,66.75,265.81,66.91,265.34,66.91z" style="fill:#6d3612"></path>
          </g>
          <g>
            <path d="M214,248.75c-0.24,0-0.48-0.04-0.72-0.13c-16.52-6.37-26.67-16.27-31.03-30.27
						c-6.18-19.84,6.04-34.2,9.71-37.93c-2.12-6.66-10.33-38.05,9.25-75.48c21.65-41.41,66.75-41.8,67.69-41.8c0.01,0,0.01,0,0.01,0
						c1.1,0.01,1.99,0.91,1.99,2.01c-0.01,1.1-0.9,1.99-2,1.99c-0.01,0-0.01,0-0.02,0c-0.74,0-43.58,0.38-64.12,39.65
						c-20.76,39.69-8.74,73.15-8.62,73.49c0.29,0.77,0.07,1.64-0.54,2.19c-0.65,0.58-15.81,14.5-9.52,34.7
						c4.03,12.93,13.13,21.75,28.65,27.73c1.03,0.4,1.54,1.56,1.15,2.59C215.56,248.26,214.8,248.75,214,248.75z" style="fill:#6d3612"></path>
          </g>
          <g>
            <path d="M319.04,260.47c-2.29,0-4.63-0.03-7.03-0.1l-49.91-2.84c-1.1-0.06-1.95-1.01-1.88-2.11
						c0.06-1.1,1.04-1.93,2.11-1.88l49.85,2.83c41.86,1.11,64.54-7.49,73.54-27.88c8.57-19.42-5.38-35.39-5.52-35.55
						c-0.55-0.62-0.66-1.5-0.29-2.24c0.16-0.32,15.89-32.2-0.23-73.99c-16.02-41.51-58.79-46.62-59.22-46.67
						c-0.67-0.07-1.26-0.48-1.57-1.09c-0.31-0.6-0.29-1.32,0.06-1.91c0.03-0.05,2.85-5.01,1.57-8.83c-0.53-1.6-1.73-2.79-3.67-3.62
						c-7.7-3.31-12.32,6.2-12.51,6.61c-0.47,1-1.67,1.42-2.67,0.95c-1-0.47-1.42-1.67-0.95-2.67c2.21-4.65,8.75-12.42,17.71-8.57
						c3.01,1.29,4.99,3.33,5.89,6.05c1.13,3.43,0.19,7.14-0.73,9.53c10.04,1.91,45.32,11.18,59.82,48.77
						c15.21,39.42,3.49,69.67,0.63,76.04c3.22,4.13,13.73,19.78,5.34,38.79C380.16,250.98,358.34,260.46,319.04,260.47z" style="fill:#6d3612"></path>
          </g>
        </g>
        <g id="mouth_00000057135241300324632560000008030534211283573163_">
          <g id="nose_00000054251973197221739490000013967621891190736288_">
            <path d="M286.25,218.43c-0.2,0-0.41-0.03-0.6-0.09c-1.06-0.34-10.43-3.43-12.26-8.62
						c-0.62-1.75-0.36-3.56,0.74-5.22c3.11-4.67,12.2-4.89,19.17-2.72c5.13,1.59,7.93,4.07,7.89,6.97
						c-0.1,6.63-12.16,9.2-14.58,9.65C286.49,218.42,286.37,218.43,286.25,218.43z M284.65,204.45c-3.4,0-6.2,0.79-7.19,2.27
						c-0.51,0.77-0.44,1.28-0.3,1.67c0.8,2.27,5.71,4.78,9.22,5.98c4.67-0.95,10.78-3.36,10.81-5.68c0.01-0.4-1.18-1.88-5.07-3.09
						C289.61,204.82,286.99,204.45,284.65,204.45z" style="fill:#6d3612"></path>
          </g>
          <g id="mouth_00000116217682018978570120000005418581758009508022_">
            <path d="M301.06,232.8c-0.47,0-0.95-0.01-1.45-0.04c-6.8-0.39-11.1-4.69-13.44-8.77
						c-2.08,3.57-5.9,7.25-12.15,7.96c-9.6,1.09-14.21-5.6-15.31-9.28c-0.32-1.06,0.29-2.17,1.34-2.49
						c1.06-0.32,2.17,0.28,2.49,1.33c0.1,0.32,2.42,7.44,11.03,6.46c8.82-1,10.52-9.33,10.59-9.69c0.18-0.93,0.98-1.61,1.92-1.63
						c0.01,0,0.03,0,0.04,0c0.92,0,1.73,0.63,1.95,1.53c0.1,0.4,2.55,10.06,11.76,10.58c8.71,0.5,9.57-4.3,9.6-4.51
						c0.17-1.08,1.18-1.85,2.25-1.69c1.08,0.15,1.84,1.12,1.71,2.2C313.39,224.86,312.28,232.8,301.06,232.8z" style="fill:#6d3612"></path>
          </g>
          <g id="mouth2_00000086686905444112157670000005222292974200454550_">
            <path d="M287.04,243.81c-0.14,0-0.29,0-0.44,0c-10.91-0.22-14.49-8.17-14.87-12.34c-0.1-1.1,0.71-2.07,1.81-2.17
						c1.09-0.09,2.07,0.71,2.17,1.8c0.09,0.88,1.15,8.51,10.96,8.71c9.73,0.23,10.7-7.45,10.77-8.32c0.1-1.1,1.06-1.91,2.16-1.82
						c1.1,0.09,1.91,1.05,1.83,2.14C301.11,235.99,297.67,243.81,287.04,243.81z" style="fill:#6d3612"></path>
          </g>
        </g>
        <g id="mata_00000058557706542390837240000005157451416962391956_">
          <g>
            <path d="M244.27,192.92c-14-0.8-12.74-22.52,1.24-21.72C259.51,171.99,258.25,193.71,244.27,192.92z M335.28,176.3
						c-13.98-0.79-15.24,20.93-1.24,21.72C348.02,198.82,349.28,177.1,335.28,176.3z M340.87,158.25c-0.62,0.6-1.63,0.46-2.19-0.12
						c-0.04-0.05-0.09-0.09-0.14-0.13c0.02,0.01,0.03,0.03,0.05,0.04c-0.02-0.01-0.03-0.03-0.05-0.04
						c-0.01-0.01-0.01-0.01-0.02-0.02c-0.13-0.12-0.08-0.07-0.01-0.01c-0.08-0.06-0.16-0.12-0.23-0.18c-0.1-0.07-0.2-0.13-0.3-0.19
						c-0.04-0.02-0.07-0.04-0.11-0.06c-0.23-0.05-0.47-0.2-0.7-0.26c-0.05-0.02-0.26-0.06-0.3-0.07c-0.05-0.01-0.09-0.01-0.11-0.02
						c-0.26-0.03-0.53-0.05-0.79-0.04c-0.03,0-0.05,0-0.08,0c-0.13,0.02-0.26,0.04-0.38,0.06c-0.13,0.03-0.26,0.06-0.39,0.09
						c-0.03,0.01-0.05,0.02-0.08,0.02c-0.1,0.06-0.22,0.09-0.32,0.14c-0.12,0.06-0.24,0.12-0.35,0.19c-0.75,0.44-1.7,0.02-2.09-0.68
						c-0.43-0.76-0.02-1.68,0.68-2.09c2.57-1.51,6-0.92,8.05,1.17C341.6,156.68,341.45,157.69,340.87,158.25z M338.5,157.97
						c0.01,0.01,0.02,0.02,0.03,0.03c0,0,0,0,0,0C338.53,157.98,338.52,157.98,338.5,157.97z M249.46,153.57
						c-0.57,0.55-1.7,0.53-2.19-0.12c-0.08-0.11-0.17-0.22-0.27-0.32c-0.01-0.01-0.02-0.02-0.03-0.03c-0.01,0,0,0-0.01-0.01
						c-0.1-0.07-0.2-0.15-0.31-0.21c-0.01-0.01-0.03-0.02-0.04-0.02c-0.21-0.08-0.41-0.14-0.62-0.2c-0.05-0.01-0.09-0.01-0.14-0.02
						c-0.12-0.01-0.23-0.02-0.35-0.02c-0.04,0-0.08,0-0.12,0c-0.1,0.01-0.2,0.03-0.3,0.05c-0.12,0.02-0.24,0.06-0.36,0.09
						c-0.02,0.01-0.05,0.02-0.05,0.02c-0.09,0.04-0.18,0.09-0.27,0.14c0.03-0.03-0.04,0.01-0.11,0.06c0,0,0,0,0,0
						c-0.03,0.02-0.07,0.04-0.1,0.06c0.04-0.02,0.05-0.03,0.08-0.05c-0.07,0.06-0.14,0.12-0.21,0.19c0.03-0.04,0-0.01-0.04,0.04
						c0,0-0.01,0.01-0.01,0.01c-0.04,0.04-0.08,0.09-0.12,0.13c0.04-0.04,0.06-0.06,0.08-0.08c0,0,0,0,0,0
						c-0.52,0.69-1.4,0.89-2.15,0.44c-0.69-0.42-0.93-1.5-0.44-2.15c1.02-1.35,2.56-2.02,4.23-2.04c1.49-0.01,3.08,0.66,3.99,1.86
						C250.11,152.06,250.1,152.94,249.46,153.57z M243.96,153.27c0.04-0.04,0.07-0.07,0.09-0.09c-0.01,0.01-0.03,0.02-0.04,0.04
						C243.98,153.23,243.97,153.25,243.96,153.27z M244.27,152.98c-0.01,0-0.01,0.01-0.02,0.01c0.07-0.04,0.12-0.07,0.13-0.08
						c-0.02,0.01-0.05,0.02-0.07,0.04C244.3,152.96,244.29,152.97,244.27,152.98z" style="fill:#6d3612"></path>
          </g>
          <g>
            <path d="M335.43,185.35c-3.33-0.19-3.03-5.36,0.29-5.17C339.06,180.37,338.76,185.54,335.43,185.35z
						 M245.53,174.83c-3.33-0.19-3.63,4.98-0.29,5.17C248.56,180.19,248.86,175.02,245.53,174.83z" style="fill:#fff"></path>
          </g>
        </g>
      </g>
    </g>
  </g>
</svg>
