<svg width="197" height="85" viewBox="0 0 197 85" fill="none" xmlns="http://www.w3.org/2000/svg">
<g clip-path="url(#clip0_279_3749)">
<path d="M189.47 27.91C189.79 28.84 191.11 28.47 190.93 27.5C189.09 17.28 179.35 9.4 169.34 8.18C168.73 8.11 168.6 9.13 169.19 9.25C179.44 11.36 186.1 18.26 189.47 27.91ZM78.9 77.59C78.96 77.25 78.72 76.98 78.44 76.94C78.75 76.52 77.53 76.63 76.88 76.67C62.85 77.43 47.96 77.28 36.82 67.11C26.91 58.06 26.99 42.99 29 30.66C30.85 19.34 36.11 8.2 48.06 5.12C54.78 3.38 62.29 3.52 69.19 3.13C76.64 2.71 84.08 2.41 91.53 2.21C106.11 1.82 120.69 1.86 135.27 2.32C148.22 2.73 163.06 1.87 175.47 6.08C189.56 10.87 193.3 24.71 194.25 38.15C195.05 49.53 194.22 62.83 186.52 71.96C176.59 83.74 158.09 82.45 144.15 82.51C127.43 82.59 110.73 81.36 94.18 78.94C93.01 78.77 92.49 80.47 93.52 80.78" fill="#C7DCEB"/>
<path d="M169.34 8.18C179.35 9.4 189.09 17.29 190.93 27.5C191.11 28.46 189.79 28.84 189.47 27.91C186.1 18.26 179.44 11.37 169.19 9.25C168.59 9.13 168.73 8.11 169.34 8.18Z" fill="black"/>
<path d="M78.11 77.6996C62.85 79.4596 44.5 78.88 33.39 66.43C24.21 56.14 24.92 39.43 27.75 26.78C30.09 16.3 35.83 6.47 46.75 3.45C53.92 1.45 61.8 1.59 69.18 1.18C78.25 0.669997 87.31 0.329997 96.39 0.149997C113.89 -0.200003 131.39 0.0599972 148.87 0.919997C161.46 1.55 177.31 0.979997 186.86 10.75C195.5 19.58 196.66 34.28 196.4 45.98C196.16 57.06 193.53 69.29 184.54 76.64C173.55 85.63 156.51 84.44 143.19 84.47C127.21 84.5 111.27 83.3 95.45 81.06M78.33 76.25C74.69 75.63 93 78.77 94.18 78.94C110.73 81.36 127.43 82.59 144.15 82.51C158.09 82.45 176.59 83.74 186.52 71.96C194.22 62.83 195.05 49.53 194.25 38.15C193.31 24.71 189.56 10.86 175.47 6.08C163.06 1.87 148.21 2.72 135.27 2.32C120.69 1.86 106.11 1.82 91.53 2.21C84.08 2.41 76.64 2.72 69.19 3.13C62.29 3.52 54.78 3.38 48.06 5.12C36.1 8.2 30.84 19.34 29 30.66C26.99 42.99 26.91 58.07 36.82 67.11C47.96 77.28 64.08 77 78.11 76.24" fill="black"/>
<path d="M15.22 45.96C11.28 49.07 7.85 52.69 4.88 56.69C12.17 52.35 21.6 49.93 29.46 52.95" fill="#DC9B36"/>
<path d="M28.22 36.68C24.07 37.49 20.13 39.92 16.68 42.35C9.98001 47.03 4.5 53.04 0.160005 59.94C-0.439995 60.91 0.840005 61.81 1.65 61.16C10.08 54.34 18.79 53.77 29.12 53.97" fill="black"/>
<path d="M29.25 53C21.15 49.83 12.29 52.42 4.88 56.69C7.87 52.7 11.33 49.09 15.32 46.02C19.01 43.18 23.96 39.7 28.8 38.69" fill="#C7DCEB"/>
</g>
<defs>
<clipPath id="clip0_279_3749">
<rect width="196.43" height="84.52" fill="white"/>
</clipPath>
</defs>
</svg>
