<svg width="478" height="378" viewBox="0 0 478 378" fill="none" xmlns="http://www.w3.org/2000/svg">
<path d="M472.718 336.988C471.834 357.901 459.704 374.375 444.824 374.84C308.629 379.116 171.263 379.003 32.7908 374.802C17.8029 374.375 5.60182 357.624 4.8694 336.522C1.91291 252.102 1.1269 170.638 3.04727 92.8325C3.42242 76.61 3.95834 60.5258 4.59251 44.6303C5.42318 23.8931 17.4546 7.49458 32.1834 6.81549C171.996 0.515124 309.781 0.301339 445.324 6.74004C459.981 7.45685 471.905 23.7422 472.843 44.3788C473.504 59.0671 474.058 73.8057 474.513 88.5694C477.041 170.436 476.282 253.322 472.718 337V336.988Z" fill="#FFF8FA"/>
<path d="M474.64 63.4042L267.531 64.7448H265.583L233.777 64.9504L231.453 64.9772L34.2281 66.2374L32.3067 66.2642L2.93164 66.443C3.30698 54.9133 3.84319 43.482 4.4777 32.1848C5.30882 17.4465 17.3466 5.79174 32.0833 5.3091C149.432 1.55527 265.35 0.822374 379.705 3.43218C382.306 3.48581 384.888 3.5305 387.462 3.61094C406.828 4.06676 426.167 4.59408 445.435 5.25547C460.1 5.76492 472.031 17.3392 472.969 32.006C473.63 42.4452 474.184 52.9202 474.64 63.4131V63.4042Z" fill="#4FCFD1"/>
<path d="M465.838 14.8813C461.637 12.2 456.74 10.5823 451.449 10.4035C432.182 9.74211 412.843 9.21478 393.477 8.75896C390.894 8.67852 388.32 8.63383 385.711 8.58021C271.356 5.97934 153.194 6.01509 35.8369 9.75104C21.1002 10.2337 9.0624 21.8884 8.23128 36.6267C7.70401 46.2347 7.22143 55.9232 6.86396 65.701L2.92285 66.425C3.2982 54.8954 3.8344 43.4641 4.46891 32.1668C5.30003 17.4285 17.3378 5.77377 32.0745 5.29113C149.432 1.55517 265.351 0.822282 379.705 3.43209C382.306 3.48572 384.889 3.53041 387.462 3.61084C406.828 4.06667 426.167 4.59399 445.435 5.25538C453.55 5.53245 460.806 9.19691 465.838 14.8902V14.8813Z" fill="#FFFDE6"/>
<path d="M221.533 55.7625C216.314 53.7068 210.666 52.9293 205.822 52.4287C200.398 51.8746 194.035 51.4903 187.976 52.8577C185.384 53.4387 182.989 54.3325 180.835 55.4765C179.039 48.1655 173.873 41.5605 166.992 38.039C159.896 34.3925 151.049 33.9545 143.337 36.8325C141.326 37.5832 138.189 39.1831 136.786 41.9538C135.338 40.3539 133.613 38.9954 131.692 38.048C127.465 35.9566 122.308 35.7063 117.903 37.3866C115.364 38.3519 113.407 39.8981 112.201 41.7482C110.333 39.6389 108.349 37.6279 106.151 35.8136C92.0664 24.2124 71.1097 22.3355 55.1934 31.2464C39.277 40.1573 29.9202 59.0069 32.4493 77.0789C32.5119 77.5526 32.923 77.8923 33.3877 77.8923C33.4324 77.8923 33.4771 77.8923 33.5217 77.8923C34.0401 77.8208 34.4065 77.3381 34.326 76.8197C31.9042 59.5074 40.8677 41.4443 56.1228 32.8999C71.3778 24.3554 91.4587 26.1608 104.953 37.2704C111.727 42.8475 116.642 50.3105 121.406 57.5322C121.692 57.9701 122.29 58.0863 122.719 57.8003C123.157 57.5143 123.274 56.9244 122.988 56.4865C120.029 51.9997 117 47.4147 113.497 43.2229C114.426 41.4979 116.205 40.059 118.582 39.1563C122.496 37.6637 127.09 37.8871 130.852 39.7461C132.898 40.7561 134.686 42.2666 136.098 44.072C136.098 44.072 136.098 44.072 136.098 44.0809C136.035 44.5814 136.375 45.0283 136.866 45.1177C137.689 46.36 138.341 47.7186 138.761 49.1397C138.886 49.5508 139.261 49.8189 139.672 49.8189C139.762 49.8189 139.851 49.81 139.941 49.7832C140.441 49.6312 140.727 49.1039 140.584 48.6034C140.057 46.8337 139.226 45.1624 138.153 43.643C138.931 40.9259 142.085 39.335 144.007 38.6111C151.228 35.9029 159.503 36.323 166.134 39.7283C172.703 43.0978 177.6 49.4614 179.137 56.4596C176.581 58.0952 174.454 60.1241 172.89 62.4926C172.604 62.9305 172.721 63.5204 173.158 63.8064C173.596 64.0924 174.177 63.9762 174.472 63.5383C175.902 61.3754 177.859 59.5163 180.227 58.0148C180.245 58.0148 180.254 58.0327 180.263 58.0327C180.317 58.0327 180.37 58.0327 180.433 58.0148C180.728 57.9612 180.951 57.7735 181.085 57.5232C183.248 56.2809 185.697 55.3156 188.396 54.7079C194.187 53.403 200.362 53.7783 205.635 54.3235C210.344 54.8062 215.831 55.5659 220.836 57.5322C224.509 58.9711 229.54 61.7329 232.695 66.7112C232.874 66.9972 233.178 67.1491 233.499 67.1491C233.678 67.1491 233.848 67.1044 234.009 67.0061C234.447 66.7201 234.581 66.1392 234.304 65.7012C230.872 60.2939 225.474 57.3177 221.542 55.7714L221.533 55.7625Z" fill="#FFFDE6"/>
<path d="M387.462 3.60205C379.401 4.99633 372.824 7.32013 367.211 10.7343C357.783 16.4277 351.563 25.5977 350.58 34.9287C351.894 35.1343 353.208 35.3577 354.477 35.7599C354.986 35.9118 355.263 36.4392 355.111 36.9218C354.959 37.4312 354.432 37.7351 353.922 37.5832C352.734 37.2078 351.474 36.9754 350.232 36.7967C349.812 36.7252 349.114 36.6715 348.587 36.6179C342.796 36.1889 336.809 37.7083 332.054 40.9885C325.834 45.2875 321.616 52.6432 321.08 60.2045C321.053 60.714 320.624 61.0893 320.142 61.0893H320.07C319.543 61.0357 319.158 60.5799 319.185 60.0794C319.543 55.2977 321.178 50.7216 323.815 46.8069C318.864 41.2923 310.919 38.1373 300.248 37.4223C291.749 36.8682 285.279 38.1016 280.48 41.2923C272.866 46.2974 269.631 55.834 267.54 64.727C267.468 65.0309 267.388 65.3616 267.316 65.6654C267.218 66.0945 266.807 66.3983 266.378 66.3983C266.324 66.3983 266.253 66.3983 266.172 66.3715C265.663 66.2732 265.341 65.7638 265.466 65.2364C265.52 65.0577 265.538 64.9057 265.592 64.727C267.763 55.3424 271.15 45.1355 279.417 39.6925C284.6 36.2783 291.455 34.9376 300.373 35.5186C311.375 36.2515 319.614 39.5137 324.923 45.2249C326.639 42.9994 328.667 41.0242 330.991 39.4065C336.147 35.8672 342.448 34.2226 348.641 34.6784C349.704 24.7665 356.326 15.087 366.237 9.0898C370.205 6.68556 374.656 4.79077 379.714 3.39648C382.315 3.45011 384.897 3.4948 387.471 3.57524L387.462 3.60205Z" fill="#FFFDE6"/>
<g style="mix-blend-mode:multiply">
<path d="M472.844 332.949C471.96 353.882 459.824 370.371 444.935 370.837C308.667 375.117 171.229 375.004 32.6825 370.799C23.3794 370.548 15.1397 363.964 10.0547 353.957C14.9342 360.012 21.3329 363.75 28.2857 363.964C166.832 368.169 304.261 368.269 440.538 364.002C455.427 363.536 467.563 347.047 468.447 326.114C472.648 227.263 472.952 129.546 468.573 33.2136C468.215 25.4093 466.294 18.2218 463.237 12.2805C468.796 19.1156 472.469 28.9842 472.969 40.0613C477.34 136.381 477.036 234.098 472.844 332.961V332.949Z" fill="#9CCFA3"/>
</g>
<path d="M241.395 377.988C172.313 377.988 102.569 376.94 32.6381 374.834C16.7126 374.385 3.629 356.608 2.85149 334.368C-0.857317 229.278 -0.946685 131.83 2.57445 44.7288C3.45026 23.0251 16.3819 5.46027 32.0125 4.74969C173.376 -1.5582 312.488 -1.58313 445.504 4.6749C461.242 5.43533 473.861 22.5389 474.862 44.467C479.089 136.63 479.044 234.327 474.737 334.867C473.798 356.82 460.724 374.385 444.977 374.883C378.093 376.953 310.066 378 241.386 378L241.395 377.988ZM242.664 5.28574C173.376 5.28574 103.043 6.86895 32.1376 10.0354C18.4553 10.6587 7.13225 26.0295 6.36368 45.028C2.85149 131.942 2.94086 229.203 6.64073 334.119C7.32887 353.591 18.777 369.161 32.7275 369.548C172.125 373.737 310.799 373.749 444.905 369.585C458.695 369.161 470.143 353.766 470.965 334.555C475.264 234.24 475.309 136.754 471.09 44.816C470.215 25.6181 459.16 10.6462 445.388 9.97303C379.175 6.85648 311.442 5.29821 242.673 5.29821L242.664 5.28574Z" fill="#61033B"/>
<path d="M442.127 43.3544C440.702 43.1097 437.76 44.0613 437.76 44.0613C439.224 40.3961 438.212 39.0846 438.212 39.0846C431.21 35.8421 421.457 41.9615 417.317 44.9621C417.415 28.1425 404.053 26.5996 402.767 27.7707C401.47 28.9635 400.311 33.3566 400.311 33.3566C397.48 30.324 394.592 29.624 394.592 29.624C384.574 35.3726 390.144 49.4821 391.339 52.2346C386.191 51.2557 376.087 50.2216 371.868 56.2233C371.868 56.2233 371.377 58.0284 374.491 60.4704C374.491 60.4704 371.571 60.6804 370.458 61.6031C369.346 62.5258 372.179 75.6743 388.897 75.7504C388.897 75.7504 391.832 75.6652 394.395 75.2196C393.897 75.8308 393.343 76.4387 392.75 77.0386C390.873 78.8828 388.402 84.4173 388.432 87.0029C388.473 90.7995 388.586 92.4614 393.517 95.9263C393.517 95.9263 394.963 95.6319 397.504 92.5617C397.504 92.5617 398.848 97.0403 399.552 97.2015C400.939 97.5115 413.196 96.4987 414.386 81.9074C422.739 95.0893 433.93 90.4988 435.007 89.512C435.537 89.0209 434.468 84.469 434.468 84.469C438.197 85.8453 439.602 85.3964 439.602 85.3964C442.147 79.9341 440.104 75.1088 438.251 71.815C436.991 69.5765 434.868 67.6791 432.321 67.0168C431.336 66.7652 430.409 66.4609 429.513 66.1302C431.342 65.347 432.883 64.5124 432.883 64.5124C447.335 56.1076 443.534 43.6037 442.114 43.3761L442.127 43.3544Z" fill="#DC638E"/>
<path d="M440.501 43.5604C439.097 43.3265 437.468 44.2456 437.468 44.2456C438.913 40.6167 437.923 39.3226 437.923 39.3226C431.003 36.1199 421.332 42.1793 417.255 45.1319C417.35 28.4816 404.13 26.9443 402.87 28.1228C401.594 29.3058 400.428 33.6481 400.428 33.6481C397.641 30.6487 394.774 29.9636 394.774 29.9636C384.859 35.6406 390.368 49.629 391.557 52.3388C386.468 51.3698 376.463 50.3526 372.284 56.2705C372.284 56.2705 371.797 58.0665 374.877 60.4862C374.877 60.4862 371.983 60.704 370.883 61.6072C369.782 62.5104 372.584 75.5383 389.135 75.6124C389.135 75.6124 392.026 75.5205 394.577 75.0898C394.08 75.7064 393.54 76.2984 392.946 76.8871C391.089 78.709 388.638 84.2008 388.672 86.7358C388.708 90.4881 388.823 92.1235 393.714 95.564C393.714 95.564 395.156 95.2683 397.656 92.2357C397.656 92.2357 398.986 96.6812 399.668 96.8215C401.036 97.1189 413.171 96.1337 414.338 81.6871C422.599 94.7252 433.678 90.1885 434.743 89.2229C435.276 88.7401 434.2 84.2444 434.2 84.2444C437.892 85.6049 439.276 85.1632 439.276 85.1632C441.804 79.7583 439.78 74.9963 437.936 71.7092C436.696 69.4787 434.585 67.6062 432.071 66.9701C431.107 66.7083 430.188 66.4164 429.298 66.0988C431.109 65.3104 432.643 64.4885 432.643 64.4885C446.951 56.1688 444.501 43.5392 441.775 43.5604L440.501 43.5604Z" stroke="#61033B" stroke-width="2" stroke-miterlimit="10"/>
<path d="M437.091 46.6042C435.876 46.4093 433.489 47.3159 433.489 47.3159C434.733 44.207 434.102 43.0501 434.102 43.0501C428.179 40.298 419.683 45.5237 416.178 48.0723C416.266 33.8083 404.933 32.5017 403.86 33.505C402.77 34.5128 401.779 38.2348 401.779 38.2348C399.393 35.6659 396.947 35.0834 396.947 35.0834C388.445 39.9524 393.178 51.9072 394.193 54.2333C389.84 53.4081 380.917 52.5502 377.353 57.6224C377.353 57.6224 377.294 59.1428 379.924 61.2166C379.924 61.2166 377.116 61.5549 376.16 62.3297C375.221 63.1001 377.947 74.1044 392.131 74.1655C392.131 74.1655 394.616 74.0927 396.79 73.7267C396.375 74.2495 395.906 74.769 395.394 75.264C393.806 76.817 391.715 81.5133 391.747 83.708C391.783 86.9226 391.569 88.3951 395.734 91.3303C395.734 91.3303 397.276 91.0079 399.43 88.4261C399.43 88.4261 400.642 92.7596 401.231 92.8888C402.409 93.1472 412.721 91.7711 413.725 79.394C420.805 90.5603 430.36 87.022 431.285 86.2015C431.732 85.7956 430.744 81.5635 430.744 81.5635C433.903 82.7434 435.402 82.3252 435.402 82.3252C437.564 77.6991 435.515 73.6433 433.959 70.8346C432.897 68.9333 431.093 67.3374 428.937 66.7671C428.112 66.5577 427.328 66.3014 426.556 66.024C428.113 65.3572 429.409 64.6525 429.409 64.6525C441.656 57.5291 438.752 46.9305 437.533 46.7189L437.117 46.6332L437.091 46.6042Z" fill="#F091AC"/>
<path d="M436.611 46.4631C435.411 46.6583 434.1 46.9729 434.1 46.9729C435.377 43.7833 434.503 42.6553 434.503 42.6553C428.418 39.8382 419.944 45.1482 416.364 47.7529C416.451 33.1471 404.839 31.8069 403.736 32.836C402.617 33.8696 401.594 37.6722 401.594 37.6722C399.135 35.0329 396.635 34.4469 396.635 34.4469C387.933 39.4415 392.763 51.6943 393.808 54.0664C389.341 53.2177 380.568 52.3195 376.896 57.5284C376.896 57.5284 376.473 59.0925 379.171 61.2201C379.171 61.2201 376.629 61.4156 375.661 62.2118C374.693 63.0079 377.153 74.425 391.662 74.4895C391.662 74.4895 394.202 74.4199 396.443 74.0361C396.052 74.5166 395.699 75.2022 395.246 75.7173C394.793 76.2325 394.95 76.083 394.807 76.2826C393.122 78.6139 391.243 82.1614 391.269 84.2684C391.306 87.5547 391.406 88.9972 395.682 92.0109C395.682 92.0109 396.935 91.7476 399.143 89.0974C399.143 89.0974 400.31 92.9956 400.916 93.1203C402.115 93.391 412.76 92.5174 413.793 79.8445C421.038 91.2909 430.758 87.2961 431.696 86.4543C432.155 86.0273 431.226 82.0834 431.226 82.0834C434.462 83.279 435.68 82.8819 435.68 82.8819C437.883 78.137 436.12 73.9502 434.513 71.0833C433.42 69.136 431.586 67.4942 429.375 66.9205C428.529 66.6988 427.723 66.4302 426.935 66.1572C428.521 65.4647 429.868 64.7466 429.868 64.7466C442.411 57.4538 439.117 46.5998 437.881 46.3926L437.227 46.4239C437.018 46.444 436.809 46.4641 436.604 46.501L436.611 46.4631Z" stroke="#F6BEC9" stroke-width="2" stroke-miterlimit="10"/>
<path d="M420.943 65.6978C422.871 65.1827 424.141 63.6722 423.781 62.324C423.421 60.9757 421.566 60.3002 419.638 60.8153C417.711 61.3303 416.44 62.8408 416.801 64.1891C417.161 65.5373 419.016 66.2128 420.943 65.6978Z" fill="#DC638E"/>
<path d="M400.705 71.1055C402.632 70.5905 403.903 69.08 403.543 67.7317C403.182 66.3834 401.328 65.7079 399.4 66.223C397.473 66.738 396.202 68.2485 396.562 69.5968C396.923 70.945 398.777 71.6205 400.705 71.1055Z" fill="#DC638E"/>
<path d="M406.657 65.1258C406.657 65.1258 408.184 66.2225 409.715 65.7239C411.246 65.2254 412.21 63.9466 412.469 63.6444C412.728 63.3423 412.96 63.1371 413.374 63.3488C413.789 63.5606 413.871 63.7356 413.816 64.1982C413.761 64.6609 413.376 65.4981 412.357 66.2363C411.337 66.9744 409.929 67.5298 408.826 67.4843C407.722 67.4388 406.471 67.1101 405.908 66.7413C405.755 66.6387 405.111 65.9688 405.417 65.4393C405.722 64.9097 406.302 64.9341 406.678 65.1381L406.657 65.1258Z" fill="#61033B"/>
<path d="M423.38 59.6186C423.666 59.5422 423.835 59.2482 423.759 58.9619C423.682 58.6756 423.389 58.5055 423.103 58.5819C422.817 58.6583 422.647 58.9523 422.723 59.2386C422.8 59.5248 423.094 59.695 423.38 59.6186Z" fill="#61033B"/>
<path d="M424.696 57.8517C424.982 57.7754 425.152 57.4814 425.075 57.1951C424.999 56.9088 424.705 56.7387 424.419 56.815C424.133 56.8914 423.963 57.1854 424.04 57.4717C424.116 57.758 424.41 57.9281 424.696 57.8517Z" fill="#61033B"/>
<path d="M425.553 59.5214C425.839 59.445 426.009 59.151 425.933 58.8648C425.856 58.5785 425.562 58.4083 425.276 58.4847C424.991 58.5611 424.821 58.8551 424.897 59.1414C424.974 59.4277 425.268 59.5978 425.553 59.5214Z" fill="#61033B"/>
<path d="M395.042 67.1906C395.328 67.1142 395.497 66.8202 395.421 66.5339C395.344 66.2477 395.051 66.0775 394.765 66.1539C394.479 66.2303 394.309 66.5243 394.386 66.8106C394.462 67.0969 394.756 67.267 395.042 67.1906Z" fill="#61033B"/>
<path d="M393.019 66.3159C393.305 66.2395 393.475 65.9455 393.398 65.6592C393.322 65.3729 393.028 65.2028 392.742 65.2792C392.456 65.3556 392.287 65.6496 392.363 65.9358C392.44 66.2221 392.733 66.3923 393.019 66.3159Z" fill="#61033B"/>
<path d="M393.109 68.1909C393.395 68.1145 393.565 67.8205 393.488 67.5342C393.412 67.2479 393.118 67.0778 392.832 67.1542C392.546 67.2306 392.376 67.5246 392.453 67.8108C392.529 68.0971 392.823 68.2673 393.109 68.1909Z" fill="#61033B"/>
<path d="M415.332 50.5897C420.256 48.3961 424.102 60.1775 418.093 60.9232C413.729 61.4624 411.511 52.2915 415.332 50.5897ZM416.326 52.9038C415.019 53.5038 415.868 57.6841 417.976 56.3326C419.092 55.6223 417.92 52.1734 416.326 52.9038Z" fill="#61033B"/>
<path d="M416.326 52.9041C417.924 52.1904 419.092 55.6226 417.976 56.3329C415.868 57.6843 414.998 53.4918 416.326 52.9041Z" fill="#FDFCF8"/>
<path d="M396.412 55.6454C401.336 53.4518 405.182 65.2332 399.173 65.9789C394.809 66.5181 392.591 57.3472 396.412 55.6454ZM397.406 57.9595C396.099 58.5594 396.948 62.7397 399.056 61.3882C400.172 60.6779 399 57.229 397.406 57.9595Z" fill="#61033B"/>
<path d="M397.406 57.9595C399.005 57.2458 400.172 60.678 399.056 61.3883C396.948 62.7397 396.078 58.5472 397.406 57.9595Z" fill="#FDFCF8"/>
</svg>
