<svg xmlns="http://www.w3.org/2000/svg" xml:space="preserve" id="kappa-idea" x="0" y="0" style="enable-background:new 0 0 512 512" version="1.1" viewBox="0 0 512 512">
  <g>
    <g id="color_00000121262278886124578750000006379634553957969325_">
      <g>
        <path d="M308.61,27.78c0.33,0,0.67,0,1.01,0c50.3,0.36,83.52,19.98,89.16,52.56c-3.17,2.77-18,13.8-53.05,13.8
				c-9.2,0-19.79-0.76-31.93-2.63c-63.09-9.71-73.71-21.74-75.46-25.2c-0.55-1.08-0.62-1.98-0.21-2.75
				c0.05-0.09,0.08-0.18,0.12-0.27C238.36,62.93,251.14,27.78,308.61,27.78z" style="fill:#39f1ff"></path>
      </g>
      <g>
        <path d="M337.92,20.91c13.44,1.64,17.27,4.98,18.36,6.83c0.77,1.3,0.42,2.27,0.4,2.33c-0.14,0.29-0.19,0.6-0.18,0.9
				c-13.28-4.65-28.95-7.06-46.86-7.18c-0.55,0-1.09,0-1.63,0C314.52,21.51,324.78,19.3,337.92,20.91z" style="fill:#8dc10e"></path>
      </g>
      <g>
        <path d="M305.68,230.78c-0.86-0.67-2.11-0.5-2.79,0.35c-0.06,0.07-6.02,7.15-28.61,4.38
				c-16.93-2.08-20.86-6.28-21.7-8.59c-0.92-2.55,1.05-5.4,2.87-7.34c6.69-7.13,34.5-8.12,51.57,0.42
				c7.41,3.71,11.26,6.93,12.1,10.15c0.83,3.2-1.1,6.9-4.71,12.22c-7.31,10.75-23.67,13.79-35.75,12.06
				c-8.88-1.27-15.08-4.32-18.45-9.07c-2.7-3.81-2.84-7.82-2.72-9.68c4.09,1.69,9.54,2.95,16.32,3.79
				c25.27,3.11,32.01-5.57,32.29-5.94C306.73,232.67,306.55,231.45,305.68,230.78z" style="fill:#f9ff00"></path>
      </g>
      <g>
        <path d="M274.77,266.19l0.92,6.04l-25.36-17.46c-0.45-0.31-0.99-0.42-1.53-0.31c-0.53,0.11-1,0.42-1.29,0.88
				l-14.11,21.92c-1.01-2.05-2.24-3.93-3.71-5.62c-0.15-0.17-0.3-0.32-0.45-0.48l19.69-24.87L274.77,266.19z" style="fill:#ff83b3"></path>
      </g>
      <g>
        <path d="M376.47,273.59c4.45,4.43,24.6,25.45,32.39,51.06c8.09,26.57,3.47,60.07-25.78,70.83
				c-16.8,6.18-36.15,4.86-49.28-3.34c-8.31-5.19-13.16-12.5-14.04-21.12c-2.46-24.16,6.93-43.85,21.84-45.82
				c3.91-0.51,7.67-0.78,10.99-1.02c10.89-0.78,19.49-1.39,19.89-10.3c0.37-8.09-10.26-26.11-18.31-33.09
				C361.35,279.05,368.88,276.72,376.47,273.59z" style="fill:#cbff66"></path>
      </g>
      <g>
        <path d="M402.38,441.93c-11.35,13.62-41.37,22.42-76.46,22.42c-27.65,0-52.76-3.77-59.27-4.84v-6.98
				c2.66-0.29,5.22-1.25,7.48-2.91c1.67-1.23,3.02-2.74,4.03-4.45c0.07,0.01,0.15,0.03,0.22,0.03c0.41,0,0.82-0.12,1.17-0.38
				c0.14-0.1,13.73-10.21,5.27-25.72c-2.55-4.67-5.95-7.52-10.11-8.48c-4.12-0.95-8.04,0.2-10.65,1.36v-25.1l9.69,6.95
				c0.35,0.25,0.76,0.37,1.16,0.37c0.61,0,1.22-0.28,1.61-0.81l26.13-35.37c4.17,5.3,10.73,6.36,12.73,6.56
				c0.04,2.23,0.17,4.5,0.4,6.82c0.99,9.76,6.64,18.32,15.9,24.11c8.25,5.16,18.74,7.8,29.6,7.8c7.76,0,15.71-1.35,23.18-4.09
				c9.13-3.36,16.04-8.72,21.07-15.32C407.41,394.49,412.65,429.6,402.38,441.93z" style="fill:#fffaa6"></path>
      </g>
      <g>
        <path d="M257.48,481.39l-1.01-30.97c2.01,1.07,4.1,1.74,6.18,2.04v23.77L257.48,481.39z" style="fill:#39f1ff"></path>
      </g>
      <g>
        <path d="M254.44,384.76c-0.39-0.38-0.93-0.56-1.47-0.55l-30.83,1.47l5.22-5.22l32.7-1.58v36.47
				c0,0.75,0.42,1.43,1.08,1.77c0.66,0.34,1.46,0.29,2.07-0.14c0.05-0.04,5.34-3.69,10.62-2.46c2.99,0.7,5.5,2.88,7.47,6.5
				c4.33,7.93,1.6,14-1.03,17.43c0.24-2.82-0.19-5.83-1.35-8.83c-1.7-4.36-4.44-7.1-8.15-8.15c-5.61-1.58-11.97,1.29-15.72,3.47
				v-38.74C255.06,385.66,254.84,385.14,254.44,384.76z" style="fill:#39f1ff"></path>
      </g>
      <g>
        <path d="M194.35,386.89c-0.36-0.6-1.01-0.97-1.72-0.97h-32.47c1.13-1.6,2.94-3.85,4.7-5.86h34.99
				c-2.01,4.99-5.41,15.49-2.7,24.3c2.43,7.91,10.43,9.46,16.34,9.46c0.97,0,1.88-0.04,2.71-0.11c-0.71,0.99-1.51,1.83-2.38,2.51
				c-4.72,3.72-11.35,3.43-16.5-0.73c-11.82-9.53-3.29-25.95-2.92-26.64C194.73,388.25,194.71,387.5,194.35,386.89z" style="fill:#39f1ff"></path>
      </g>
      <g>
        <path d="M156.54,349.3c1.84,0.82,3.65,1.31,5.42,1.56v26.45c-2.28,2.58-3.85,4.54-4.9,6.03L156.54,349.3z" style="fill:#d3d300"></path>
      </g>
      <g>
        <path d="M233.53,309.87c3.62-10.78,4.04-20.79,1.41-28.84c0.54-0.09,1.04-0.39,1.36-0.89l13.46-20.92l24.82,17.09
				c-0.46,0.31-0.96,0.66-1.47,1.06c-0.24,0.12-0.45,0.3-0.62,0.51c-2.85,2.38-5.97,6.18-6.85,11.7c-0.02,0.1-0.04,0.19-0.05,0.29
				c-0.27,1.87-0.29,3.93,0.05,6.2c1.24,8.2,8.99,11.81,16.03,11.14c7.14-0.68,14.16-5.71,15.25-15.44l26.39,18.1l-13.75,26.15
				c-0.45,0.85-0.22,1.9,0.54,2.5c0.76,0.6,1.84,0.56,2.57-0.08c0.39-0.35,3.96-3.32,7.59-0.02c-2.86,6.19-4.56,13.73-4.86,22.13
				c-2.1-0.29-8.16-1.57-10.85-6.96c-0.31-0.62-0.92-1.04-1.62-1.1c-0.7-0.06-1.37,0.25-1.78,0.8l-26.69,36.13l-10.42-7.47v-5.19
				c0-0.55-0.22-1.07-0.62-1.45c-0.4-0.38-0.93-0.56-1.48-0.55l-9.36,0.45l-6.11-5.8c3.27-2.22,8.75-7.04,9.42-14.76
				c0.83-9.5-4.7-13.24-6.62-14.24c-1.15-1.63-2.89-2.63-4.99-2.83c-3.69-0.35-7.77,1.74-11.2,5.75c-3.43,4.01-5.41,8.61-6.42,11.51
				l-21.93-16.44c1.52-0.29,3.04-0.7,4.54-1.23C220.32,333.29,228.92,323.6,233.53,309.87z" style="fill:#ffc2db"></path>
      </g>
      <g>
        <path d="M215.65,386.5C215.65,386.51,215.65,386.51,215.65,386.5L215.65,386.5c-0.11,0.11-0.2,0.24-0.28,0.36
				c-0.01,0.01-0.02,0.02-0.02,0.03c-0.02,0.03-0.02,0.06-0.04,0.08c-0.05,0.1-0.1,0.2-0.13,0.31c-0.02,0.05-0.03,0.09-0.04,0.14
				c-0.03,0.1-0.04,0.21-0.05,0.32c0,0.04-0.01,0.09-0.01,0.13c0,0.15,0,0.3,0.03,0.44c0,0.01,0.01,0.02,0.01,0.03
				c0.03,0.14,0.07,0.27,0.13,0.4c0.01,0.01,0.01,0.03,0.02,0.05c4.19,8.79,4.58,15.72,3.04,20.68c-3.6,0.53-14.93,1.53-17.32-6.27
				c-3.15-10.23,3.67-24.09,3.74-24.23c0.01-0.01,0.01-0.02,0.01-0.03c0.07-0.14,0.12-0.29,0.15-0.44c0-0.01,0-0.03,0.01-0.04
				c0.02-0.11,0.04-0.22,0.04-0.33c0.17-8.82,4.21-25.15,5.56-30.41l16.1,12.07c0.54,0.41,1.25,0.51,1.89,0.28
				c0.64-0.23,1.11-0.77,1.26-1.43c0.02-0.07,1.69-7.14,6.42-12.67c2.98-3.48,5.97-4.53,7.78-4.37c1.03,0.1,1.79,0.57,2.26,1.39
				c0.66,1.48-3.13,8.21-7.95,14.12c-0.43,0.52-0.56,1.23-0.36,1.87l3.43,10.71c0.01,0.03,0.03,0.06,0.04,0.09
				c0.02,0.06,0.03,0.11,0.06,0.17c0.02,0.03,0.04,0.05,0.06,0.09c0.05,0.1,0.12,0.19,0.18,0.27c0.05,0.06,0.09,0.12,0.14,0.17
				c0.02,0.02,0.03,0.04,0.05,0.06l5.25,4.98l-20.68,1c-0.5,0.02-0.97,0.23-1.32,0.58L215.65,386.5z" style="fill:#fffaa6"></path>
      </g>
      <g>
        <path d="M244.34,366.04l-2.33-7.28c2.51-3.15,6.41-8.54,7.71-12.92c1.31,1.56,2.58,4.2,2.21,8.48
				C251.4,360.3,246.99,364.21,244.34,366.04z" style="fill:#ff83b3"></path>
      </g>
      <g>
        <path d="M348.81,281.98c4.58,1.03,20.08,22.97,19.68,31.71c-0.22,4.89-4.61,5.66-16.18,6.49
				c-3.37,0.24-7.2,0.51-11.23,1.05c-7.91,1.04-14.42,5.99-18.91,13.59c-2.2-1.67-4.44-2.1-6.44-1.89l11.96-22.75
				c0.01-0.03,0.02-0.05,0.03-0.08c0.03-0.05,0.05-0.11,0.07-0.17c0.02-0.07,0.04-0.13,0.06-0.2c0.01-0.05,0.02-0.11,0.03-0.16
				c0.01-0.08,0.02-0.15,0.02-0.23c0-0.03,0.01-0.06,0.01-0.09v-12.55c0-0.69-0.35-1.33-0.93-1.69l-15.03-9.46
				c0.66,0.01,1.36,0.01,2.1,0.01C322.14,285.55,334.58,284.91,348.81,281.98z" style="fill:#fffaa6"></path>
      </g>
      <g>
        <path d="M323.92,297.79v7.65l-27.73-19.02c-0.62-0.43-1.44-0.47-2.1-0.1s-1.06,1.08-1.03,1.83
				c0.42,10.26-6.08,14.54-11.76,15.09c-4.87,0.46-10.18-1.74-11.49-6.82c1.62,1.56,3.67,2.89,6.07,3.05
				c3.21,0.23,6.19-1.66,8.84-5.56c4.95-7.29,6.3-13.04,6.55-16.66L323.92,297.79z" style="fill:#ff83b3"></path>
      </g>
      <g>
        <path d="M281.4,291.66c-1.8,2.65-3.58,3.93-5.26,3.82c-2.73-0.18-5.39-3.89-6.46-5.78c0.75-3.88,2.88-6.63,4.94-8.44
				l10.69,1.5c0.09,0.01,0.19,0.02,0.28,0.02c0.15,0,0.29-0.02,0.43-0.05C285.15,285.24,283.72,288.24,281.4,291.66z" style="fill:#fffaa6"></path>
      </g>
      <g>
        <path d="M202.86,267.74c10.04-1.9,18.5,0.42,23.82,6.52c6.69,7.67,7.8,20.18,3.05,34.33
				c-4.2,12.53-11.93,21.34-21.77,24.8c-6.97,2.46-14.59,1.93-20.04-1.34c0.88-3.44,0.65-7.46-1.66-11.92
				c-2.05-3.96-4.75-6.42-7.65-7.84C179.05,305.2,182.2,271.66,202.86,267.74z" style="fill:#cbff66"></path>
      </g>
      <g>
        <path d="M68.48,278.49h93.01v35.71c0,0.68,0.35,1.31,0.92,1.68c0.57,0.37,1.29,0.42,1.91,0.15
				c0.51-0.23,12.52-5.45,18.4,5.95c3.17,6.14,1.28,10.89-1.21,14c0.1-2.72-0.61-5.45-2.2-7.87c-5.66-8.66-16.71-7.4-23.67-4.91
				v-36.86c0-1.1-0.9-2-2-2H58.92L68.48,278.49z" style="fill:#d3d300"></path>
      </g>
      <g>
        <path d="M56.63,323.39v-35.04h95v37.86c0,0.69,0.36,1.33,0.94,1.69c0.58,0.37,1.32,0.4,1.94,0.1
				c0.15-0.07,15.22-7.23,21.45,2.3c3.19,4.88,1.03,9.95-1.8,12.81c-2.25,2.28-5.82,4.1-10.09,3.96c-0.04,0-0.07-0.01-0.11-0.01
				c-0.02,0-0.04,0.01-0.06,0.01c-2.57-0.12-5.39-0.95-8.33-2.83c-0.62-0.4-1.41-0.42-2.05-0.06c-0.64,0.36-1.04,1.04-1.03,1.78
				l0.61,39.97H56.63v-37.17c6.42,2.76,16.46,4.26,22.36-4.26c0.38-0.55,0.71-1.11,1-1.68c0.02-0.03,0.03-0.06,0.05-0.09
				c2.29-4.52,1.76-9.47-1.55-13.56C74.38,324.07,65.81,320.76,56.63,323.39z" style="fill:#f9ff00"></path>
      </g>
      <g>
        <path d="M62.83,340.84c1.99,1.51,5.82,3.94,10.13,4.18c-4.88,3.45-11.31,1.51-14.8,0L62.83,340.84z" style="fill:#d3d300"></path>
      </g>
      <g>
        <path d="M62.13,441.76c2.45,1.89,6.14,3.76,10.07,3.66c-0.7,0.6-1.49,1.08-2.38,1.45
				c-3.95,1.63-8.85,0.62-11.79-0.27L62.13,441.76z" style="fill:#1f2d08"></path>
      </g>
      <g>
        <path d="M155.59,444.93c-0.59,0.36-0.95,1-0.96,1.69l-0.41,37.45H56.63v-33.71c3.47,1.08,9.51,2.33,14.69,0.21
				c3.44-1.41,5.94-4.05,7.42-7.84c0.01-0.01,0.01-0.02,0.02-0.04c0.01-0.02,0.01-0.03,0.02-0.05c2.04-5.28,1.33-10.08-2.01-13.51
				c-4.27-4.38-12.42-5.93-20.14-4.04v-35.17h96.53l0.61,40.03c0.01,0.77,0.46,1.46,1.16,1.78c0.69,0.32,1.51,0.22,2.11-0.26
				c0.41-0.33,10.1-8.08,16.47-0.28c3.25,3.97,2.34,8.71-0.01,11.64c-2.76,3.46-8.41,5.81-15.98,2.02
				C156.91,444.54,156.17,444.57,155.59,444.93z" style="fill:#cbff66"></path>
      </g>
      <g>
        <path d="M158.22,484.06l0.38-34.42c8.33,2.93,14.82-0.3,18.03-4.32c4.03-5.04,4.02-11.73-0.02-16.67
				c-5.74-7.01-13.66-5.29-18.89-2.42l-0.55-36.31h32.42c-2.29,5.99-5.85,19.77,5.22,28.7c6.64,5.36,15.28,5.66,21.49,0.75
				c2.16-1.7,4.04-4.12,5.28-7.22c0.07-0.13,0.12-0.27,0.16-0.41c2.03-5.41,2.1-12.8-1.66-21.97l30.99-1.48v40.33
				c0,0.76,0.43,1.45,1.11,1.79s1.49,0.26,2.1-0.2c0.09-0.07,8.96-6.72,15.43-4.9c2.47,0.7,4.27,2.58,5.5,5.75
				c2.86,7.34,0.09,12.73-3.44,15.33c-4.59,3.37-10.93,2.85-16.16-1.33c-0.61-0.49-1.45-0.58-2.14-0.23
				c-0.7,0.35-1.13,1.07-1.1,1.85l1.22,37.36H158.22z" style="fill:#8afcff"></path>
      </g>
      <g>
        <path d="M300.35,468.25c0,0.12-0.63,11.63-15.32,15.89c-12.63,3.67-20.56-0.26-22.92-1.72l3.95-3.94
				c0.38-0.38,0.59-0.88,0.59-1.42v-13.5c5.06,0.81,17.86,2.69,33.93,3.84C300.44,467.66,300.36,467.95,300.35,468.25z" style="fill:#cbff66"></path>
      </g>
      <g>
        <path d="M396.39,479.18c-8.72,9.45-21.95,13.77-37.26,12.18c-25.19-2.62-33.86-17.12-36.38-23.03
				c1.05,0.01,2.11,0.02,3.17,0.02c28.84,0,64.87-6.27,79.54-23.86c0.02-0.02,0.04-0.05,0.06-0.08
				C407.81,457.96,404.59,470.29,396.39,479.18z" style="fill:#cbff66"></path>
      </g>
      <g>
        <path d="M446.55,336.8c8.03,30.96,8.7,59.12,1.93,81.43c-6.63,21.83-20.05,36.36-38.85,42.17
				c0.9-5.53,0.81-11.44-0.32-17.56c-0.16-0.86-0.85-1.48-1.67-1.6c10.01-18.24,1.62-59.36,1.23-61.21
				c-0.05-0.25-0.15-0.48-0.28-0.68c9.47-16.02,9.68-37.51,4.1-55.87c-7.61-24.99-25.97-45.21-32.26-51.6
				c6.25-2.81,12.51-6.18,18.59-10.23c1.44-0.96,2.82-1.91,4.16-2.86C406.14,260.76,431.57,279.08,446.55,336.8z" style="fill:#5ca804"></path>
      </g>
      <g>
        <path d="M433.85,182.66c1.69,26.27,3.15,48.95-37.04,75.67c-39.63,26.35-86.62,23.33-91.68,22.92l-15.01-9.44
				c-0.7-0.44-1.59-0.39-2.25,0.09c-0.66,0.49-0.96,1.34-0.74,2.14c0.01,0.03,0.46,1.92-0.19,5.28c-0.29-0.27-0.66-0.46-1.08-0.52
				l-6.12-0.86c0.06-0.06,0.12-0.13,0.18-0.2c0.01-0.02,0.03-0.03,0.04-0.05c0.1-0.13,0.17-0.27,0.24-0.41
				c0.02-0.04,0.03-0.07,0.04-0.11c0.04-0.12,0.08-0.25,0.1-0.38c0-0.02,0.02-0.05,0.02-0.07c0-0.01,0-0.03,0-0.04
				c0.01-0.16,0.02-0.32-0.01-0.48l-1.74-11.4c-0.08-0.51-0.35-0.97-0.76-1.28l-10.04-7.74c2.99,1.19,6.41,2.07,10.27,2.62
				c2.22,0.32,4.58,0.48,7,0.48c12.05,0,25.74-4.12,32.63-14.26c3.55-5.22,6.62-10.33,5.28-15.48c-1.17-4.48-5.54-8.4-14.18-12.72
				c-17.78-8.89-47.76-8.66-56.28,0.42c-4.68,4.99-4.61,8.98-3.71,11.44c0.76,2.09,2.39,3.92,4.87,5.49
				c-0.01,0.02-0.01,0.05-0.02,0.07c-0.06,0.28-1.34,6.83,2.88,13.26l-6.74-5.19c-0.87-0.67-2.11-0.52-2.79,0.34l-19.86,25.07
				c-5.63-3.24-26.17-15.95-31.8-31.79c-6.5-18.29,0.32-35.25,0.39-35.42c0.21-0.5,0.2-1.05-0.01-1.55
				c-0.06-0.14-5.76-14.01-2.42-44.43c3.32-30.29,13.77-45.19,13.88-45.34c0.17-0.24,0.28-0.51,0.33-0.78
				c15.07,7.87,41.31,2.52,52.67-0.39c-2.34,3.97-4.78,9.9-3.24,15.71c1.46,5.51,6.13,9.66,13.87,12.33
				c21.58,7.44,40.72-6.89,46.91-12.29c2.86,5.29,11.03,16.65,28.37,16.65c3.23,0,6.78-0.4,10.68-1.3
				c11.09-2.57,17.63-6.84,19.43-12.67c0.68-2.2,0.59-4.33,0.15-6.23c12.72,7.02,32.49,10.64,46.1,8.11
				c2.16,5.92,9.72,28.01,11.16,51.4L433.85,182.66z" style="fill:#cbff66"></path>
      </g>
      <g>
        <path d="M455.2,84.46c-2.57,10.98-26.39,12.5-35.35,12.17c-1.09-0.04-1.93,0.73-2.06,1.76
				c-0.13,1.03,0.56,1.99,1.58,2.2c0.09,0.02,8.83,1.89,12.41,7.64c1.58,2.53,1.92,5.4,1.06,8.76c-0.89,3.46-4.71,5.29-7.76,6.22
				c-14.64,4.45-41.8-1.24-52.83-11.07c-0.79-0.71-2-0.67-2.75,0.09c-0.75,0.76-0.77,1.97-0.05,2.76c0.04,0.05,4.49,5,2.96,9.91
				c-1.34,4.31-7.05,7.75-16.51,9.94c-27.39,6.35-35.3-14.55-35.62-15.44c-0.23-0.65-0.78-1.13-1.45-1.28
				c-0.67-0.15-1.37,0.06-1.86,0.55c-0.21,0.21-21.43,21.3-44.83,13.23c-6.4-2.21-10.2-5.42-11.3-9.56
				c-2.07-7.76,5.65-16.71,5.73-16.8c0.59-0.67,0.66-1.66,0.17-2.41c-0.49-0.75-1.42-1.09-2.27-0.82
				c-0.44,0.14-44.48,13.61-59.3-0.81c-3.2-3.12-4.48-5.95-3.78-8.41c1.62-5.74,13.11-9.52,17.4-10.49
				c0.95-0.22,1.61-1.09,1.56-2.06s-0.8-1.77-1.78-1.88c-6.91-0.77-25.97-4.37-31.1-11.74c-1.19-1.71-1.53-3.49-1.04-5.45
				c3.39-13.62,31.01-11,31.29-10.97c0.94,0.1,1.8-0.47,2.1-1.36c0.29-0.89-0.06-1.86-0.86-2.34c-3.54-2.14-10.68-7.71-10.21-11.34
				c0.28-2.14,3.58-3.53,6.3-4.32c18.08-5.22,29.33,1.83,29.43,1.9c0.73,0.47,1.67,0.42,2.35-0.13c0.68-0.55,0.92-1.47,0.6-2.28
				c-0.01-0.03-1.23-3.26,0.52-5.92c1.72-2.61,5.88-4.12,12.04-4.35c11.82-0.43,19.63,3.27,23.65,5.89
				c-16.63,3.54-27.67,10.3-34.62,16.29c-10.46,9-14.05,18.03-14.52,19.31c-0.67,1.37-1.14,3.53,0.26,6.28
				c3.13,6.19,17.49,17.97,78.42,27.35c12.52,1.93,23.44,2.71,32.93,2.71c41.41,0,55.58-15,56.29-15.78
				c0.4-0.45,0.59-1.05,0.49-1.65c-1.69-11-7.48-26.73-25.42-39.26c-4.97-3.47-10.51-6.42-16.59-8.88
				c6.08-0.73,24.17-2.35,35.7,2.71c3.95,1.73,6.22,3.69,6.37,5.5c0.18,2.04-2.21,4.09-3.14,4.71c-0.83,0.54-1.14,1.61-0.72,2.51
				c0.42,0.9,1.43,1.36,2.38,1.08c0.19-0.06,19.15-5.55,28.05,2.96c2.49,2.38,2.14,3.91,2.02,4.42c-0.8,3.46-7.5,6.8-11.53,8.09
				c-0.91,0.29-1.48,1.18-1.38,2.13c0.11,0.95,0.87,1.69,1.82,1.77c7.59,0.65,28.45,3.94,33.73,11.24
				C455.27,81.21,455.6,82.76,455.2,84.46z" style="fill:#8dc10e"></path>
      </g>
    </g>
    <g id="semu_00000121969617684685680790000002884638725132793728_">
      <path d="M375.27,226.03c0.41,9.18-8.11,17-17,17c-9.53,0-16.59-7.79-17-17c-0.41-9.18,8.11-17,17-17
			C367.8,209.03,374.86,216.82,375.27,226.03z M216.52,214.81c-8.89,0-17.41,7.82-17,17c0.41,9.21,7.47,17,17,17
			c8.89,0,17.41-7.82,17-17C233.11,222.6,226.05,214.81,216.52,214.81z" style="fill:#ff83b3"></path>
    </g>
    <g id="mata_item_00000116227157037950970440000017856327130969821068_">
      <path d="M344.77,211.79c-1.12,0.65-2.38,1.13-3.79,1.42c-0.96,0.21-1.95,0.32-2.96,0.32c-1.02,0-2.02-0.12-2.98-0.33
			c-1.3-0.26-2.47-0.71-3.52-1.28c-4.69-2.43-7.99-7.35-7.99-12.89c0-7.84,6.66-14.5,14.5-14.5c7.86,0,14.5,6.64,14.5,14.5
			c0,5.37-3.13,10.18-7.61,12.68c-0.01,0-0.02,0.01-0.02,0.01C344.85,211.75,344.81,211.77,344.77,211.79z M230.99,185.49
			c-7.84,0-14.5,6.66-14.5,14.5c0,7.86,6.64,14.5,14.5,14.5c7.84,0,14.5-6.66,14.5-14.5C245.49,192.13,238.85,185.49,230.99,185.49z
			"></path>
    </g>
    <g id="mata_white_00000181061376635181033410000006212330822367842973_">
      <path d="M337.92,198.21c-5.16,0-5.15-8,0-8C343.07,190.21,343.06,198.21,337.92,198.21z M229.49,191.06
			c-5.15,0-5.16,8,0,8C234.64,199.06,234.64,191.06,229.49,191.06z" style="fill:#fff"></path>
    </g>
    <g id="_x30_6">
      <g>
        <path d="M255.63,488.06h-201c-1.1,0-2-0.9-2-2v-38.57c0-0.68,0.34-1.31,0.91-1.68c0.57-0.37,1.29-0.42,1.91-0.14
				c0.08,0.04,8.34,3.67,14.36,1.19c2.44-1,4.15-2.85,5.24-5.66c1.49-3.85,1.1-6.97-1.15-9.28c-3.67-3.77-11.66-4.74-18.6-2.26
				c-0.61,0.22-1.29,0.13-1.83-0.25c-0.53-0.37-0.85-0.98-0.85-1.63v-82.29c0-0.72,0.39-1.39,1.01-1.74
				c0.63-0.35,1.4-0.35,2.01,0.03c0.54,0.33,13.5,7.89,20.04-1.57c2.41-3.48,2.29-7.32-0.32-10.54c-3.59-4.44-11.6-7.11-19.98-3.62
				c-0.62,0.26-1.32,0.19-1.88-0.18c-0.56-0.37-0.89-1-0.89-1.66v-39.86c0-1.1,0.9-2,2-2h99c1.1,0,2,0.9,2,2v36.86
				c6.96-2.5,18.01-3.75,23.67,4.91c3.65,5.58,2.72,12.73-2.3,17.81c-4.49,4.53-12.28,7.01-20.46,3.38l0.56,36.62h35.53
				c0.7,0,1.35,0.37,1.72,0.97s0.38,1.35,0.05,1.97c-0.37,0.69-8.9,17.11,2.92,26.64c5.16,4.16,11.79,4.45,16.5,0.73
				c5.1-4.02,8.15-13.35,1.44-27.45c-0.29-0.6-0.25-1.31,0.09-1.89c0.34-0.57,0.95-0.94,1.62-0.97l36-1.71
				c0.54-0.02,1.08,0.17,1.47,0.55c0.4,0.38,0.62,0.9,0.62,1.45v38.74c3.74-2.18,10.11-5.04,15.72-3.47
				c3.71,1.04,6.45,3.79,8.15,8.15c3.03,7.79,1.14,15.64-4.8,20c-5.1,3.75-11.71,3.96-17.65,0.8l1.16,35.57
				c0.02,0.54-0.19,1.07-0.56,1.46C256.69,487.85,256.17,488.06,255.63,488.06z M158.22,484.06h95.34l-1.22-37.36
				c-0.03-0.78,0.41-1.5,1.1-1.85c0.7-0.35,1.54-0.26,2.14,0.23c5.23,4.18,11.57,4.7,16.16,1.33c3.54-2.6,6.3-7.99,3.44-15.33
				c-1.23-3.17-3.03-5.05-5.5-5.75c-6.47-1.83-15.34,4.83-15.43,4.9c-0.61,0.46-1.42,0.54-2.1,0.2c-0.68-0.34-1.11-1.03-1.11-1.79
				V388.3l-30.99,1.48c6.06,14.75,2.17,24.9-3.78,29.59c-6.21,4.91-14.85,4.6-21.49-0.75c-11.08-8.93-7.51-22.71-5.22-28.7h-32.42
				l0.56,36.31c5.23-2.87,13.15-4.59,18.89,2.42c4.04,4.94,4.05,11.63,0.02,16.67c-3.21,4.02-9.69,7.24-18.03,4.32L158.22,484.06z
				 M56.63,484.06h97.59l0.41-37.45c0.01-0.69,0.37-1.33,0.96-1.69c0.59-0.36,1.32-0.39,1.94-0.08c7.57,3.78,13.21,1.44,15.98-2.02
				c2.34-2.93,3.26-7.67,0.01-11.64c-6.38-7.79-16.07-0.05-16.47,0.28c-0.6,0.48-1.41,0.59-2.11,0.26
				c-0.69-0.32-1.14-1.02-1.16-1.78l-0.61-40.03H56.63v35.17c7.73-1.89,15.87-0.34,20.14,4.04c3.34,3.43,4.06,8.23,2.01,13.51
				c-1.48,3.83-3.99,6.5-7.46,7.92c-5.18,2.13-11.23,0.87-14.69-0.21V484.06z M56.63,385.92h96.47l-0.61-39.97
				c-0.01-0.74,0.38-1.42,1.03-1.78c0.64-0.36,1.43-0.33,2.05,0.06c7.9,5.05,14.96,2.55,18.59-1.13c2.83-2.86,4.99-7.92,1.8-12.81
				c-6.23-9.52-21.3-2.37-21.45-2.3c-0.62,0.3-1.35,0.26-1.94-0.1s-0.94-1.01-0.94-1.69v-37.86h-95v35.04
				c9.18-2.63,17.75,0.68,21.86,5.76c3.75,4.64,3.93,10.37,0.5,15.33c-5.9,8.52-15.94,7.02-22.36,4.26V385.92z" style="fill:#1f2d08"></path>
      </g>
      <g>
        <g>
          <path d="M177.59,343.98c-0.7,0-1.39-0.37-1.75-1.03c-0.54-0.97-0.19-2.18,0.78-2.72c0.49-0.27,11.96-6.88,6.1-18.25
					c-5.92-11.46-17.89-6.19-18.4-5.95c-0.62,0.28-1.34,0.23-1.91-0.14c-0.57-0.37-0.92-1-0.92-1.68v-35.71H68.48l-12.8,7.85
					c-0.94,0.58-2.17,0.28-2.75-0.66c-0.58-0.94-0.28-2.17,0.66-2.75l13.29-8.14c0.31-0.19,0.68-0.29,1.04-0.29h95.57
					c1.1,0,2,0.9,2,2v34.89c6.09-1.66,15.57-1.32,20.78,8.77c6.13,11.87-2.36,20.62-7.71,23.58
					C178.25,343.9,177.91,343.98,177.59,343.98z" style="fill:#1f2d08"></path>
        </g>
        <g>
          <path d="M54.63,347.49c-0.55,0-1.1-0.23-1.49-0.67c-0.74-0.82-0.67-2.09,0.16-2.82l8.14-7.29
					c0.77-0.69,1.95-0.68,2.7,0.03c0.07,0.06,7.26,6.65,13.12,3.36c0.96-0.54,2.18-0.2,2.72,0.76c0.54,0.96,0.2,2.18-0.76,2.72
					c-6.56,3.69-13.48-0.53-16.4-2.75l-6.86,6.14C55.58,347.32,55.11,347.49,54.63,347.49z" style="fill:#1f2d08"></path>
        </g>
        <g>
          <path d="M54.63,449.49c-0.46,0-0.92-0.16-1.29-0.48c-0.84-0.72-0.94-1.98-0.23-2.82l7.29-8.57
					c0.36-0.43,0.88-0.68,1.44-0.7c0.56-0.02,1.1,0.19,1.5,0.58c0.27,0.26,6.68,6.5,12.5,2.73c0.93-0.6,2.17-0.33,2.77,0.59
					c0.6,0.93,0.33,2.17-0.59,2.77c-5.83,3.77-12.22,0.96-15.87-1.85l-5.98,7.03C55.76,449.25,55.2,449.49,54.63,449.49z" style="fill:#1f2d08"></path>
        </g>
        <g>
          <path d="M213.49,413.83c-5.91,0-13.91-1.55-16.34-9.46c-2.71-8.81,0.69-19.31,2.7-24.3h-35.89c-1.1,0-2-0.9-2-2
					v-29.01c0-1.1,0.9-2,2-2s2,0.9,2,2v27.01h36.96c0.69,0,1.34,0.36,1.7,0.95c0.36,0.59,0.4,1.33,0.09,1.94
					c-0.07,0.14-6.88,14-3.73,24.23c2.85,9.26,18.27,6.11,18.43,6.08c1.08-0.23,2.14,0.46,2.37,1.54c0.23,1.08-0.46,2.14-1.54,2.37
					C219.93,413.25,217.1,413.83,213.49,413.83z" style="fill:#1f2d08"></path>
        </g>
        <g>
          <path d="M278.37,445.21c-0.62,0-1.23-0.29-1.62-0.83c-0.65-0.89-0.45-2.14,0.44-2.79
					c0.44-0.33,10.87-8.18,4.11-20.57c-1.97-3.61-4.48-5.8-7.48-6.5c-5.27-1.23-10.56,2.42-10.62,2.46
					c-0.61,0.43-1.41,0.48-2.07,0.14c-0.66-0.34-1.08-1.03-1.08-1.77v-36.47l-32.7,1.58l-8.88,8.88c-0.78,0.78-2.05,0.78-2.83,0
					c-0.78-0.78-0.78-2.05,0-2.83l9.43-9.43c0.35-0.35,0.82-0.56,1.32-0.58l35.57-1.71c0.55-0.02,1.08,0.17,1.48,0.55
					c0.4,0.38,0.62,0.9,0.62,1.45v35.2c2.61-1.16,6.53-2.31,10.65-1.36c4.16,0.96,7.56,3.82,10.11,8.48
					c8.46,15.51-5.14,25.62-5.27,25.72C279.19,445.08,278.78,445.21,278.37,445.21z" style="fill:#1f2d08"></path>
        </g>
        <g>
          <path d="M255.63,488.06c-0.51,0-1.02-0.2-1.42-0.59c-0.78-0.78-0.78-2.05,0-2.83l8.43-8.41V450.6c0-1.1,0.9-2,2-2
					s2,0.9,2,2v26.46c0,0.53-0.21,1.04-0.59,1.42l-9.01,9C256.65,487.87,256.14,488.06,255.63,488.06z" style="fill:#1f2d08"></path>
        </g>
        <g>
          <path d="M157.49,389.92c-0.97,0-1.81-0.53-2.19-1.37c-0.45-1.01-1.14-2.54,7.17-11.82c0.74-0.82,2-0.89,2.82-0.16
					c0.82,0.74,0.89,2,0.16,2.82c-2.45,2.74-5.21,6.19-6.11,7.77c0.09,0.23,0.15,0.49,0.15,0.75
					C159.49,389.03,158.59,389.92,157.49,389.92z" style="fill:#1f2d08"></path>
        </g>
      </g>
      <g>
        <g>
          <path d="M199,338.97c-4.99,0-9.75-1.28-13.67-3.79c-0.93-0.6-1.2-1.83-0.61-2.76c0.6-0.93,1.83-1.2,2.76-0.61
					c5.47,3.51,13.32,4.12,20.48,1.6c9.84-3.47,17.57-12.27,21.77-24.8c4.75-14.16,3.64-26.67-3.05-34.33
					c-5.33-6.11-13.79-8.43-23.82-6.52c-22.98,4.36-24.3,45.47-24.31,45.88c-0.03,1.1-0.97,1.96-2.05,1.95
					c-1.1-0.03-1.98-0.95-1.95-2.05c0.04-1.82,1.42-44.76,27.56-49.71c11.49-2.18,21.28,0.6,27.58,7.82
					c7.64,8.76,9.04,22.7,3.83,38.24c-4.6,13.72-13.21,23.42-24.23,27.31C205.89,338.38,202.39,338.97,199,338.97z" style="fill:#1f2d08"></path>
        </g>
        <g>
          <path d="M321.63,338.96c-0.48,0-0.96-0.17-1.34-0.52c-3.64-3.32-7.21-0.34-7.6,0.01c-0.72,0.64-1.8,0.68-2.57,0.08
					c-0.76-0.6-0.99-1.65-0.54-2.5l13.74-26.15l-26.39-18.1c-1.1,9.73-8.12,14.76-15.25,15.44c-7.02,0.67-14.78-2.94-16.02-11.14
					c-1.66-10.92,4.87-17.06,8.93-19.76l-24.82-17.09l-13.46,20.92c-0.6,0.93-1.84,1.2-2.76,0.6c-0.93-0.6-1.2-1.84-0.6-2.76
					l14.58-22.65c0.29-0.46,0.76-0.77,1.29-0.88c0.53-0.11,1.08,0.01,1.53,0.31l29.17,20.08c0.61,0.42,0.94,1.14,0.85,1.87
					s-0.56,1.36-1.25,1.63c-0.46,0.19-11.37,4.78-9.5,17.13c0.87,5.74,6.55,8.25,11.69,7.76c5.69-0.55,12.18-4.82,11.77-15.09
					c-0.03-0.76,0.37-1.47,1.03-1.83c0.66-0.37,1.47-0.33,2.1,0.1l30.86,21.17c0.84,0.57,1.11,1.68,0.64,2.58l-11.96,22.75
					c2.24-0.24,4.8,0.33,7.25,2.56c0.82,0.74,0.88,2.01,0.13,2.83C322.72,338.74,322.17,338.96,321.63,338.96z" style="fill:#1f2d08"></path>
        </g>
        <g>
          <path d="M274.91,394.21c-0.4,0-0.81-0.12-1.16-0.37l-12.86-9.21c-0.9-0.64-1.1-1.89-0.46-2.79s1.89-1.1,2.79-0.46
					l11.25,8.07l26.69-36.13c0.41-0.56,1.08-0.86,1.78-0.8c0.69,0.06,1.31,0.48,1.62,1.1c3.27,6.54,11.51,7.04,11.59,7.04
					c1.1,0.06,1.95,0.99,1.9,2.09c-0.05,1.1-0.98,1.97-2.09,1.9c-0.38-0.02-8.47-0.46-13.32-6.61l-26.13,35.37
					C276.13,393.93,275.53,394.21,274.91,394.21z" style="fill:#1f2d08"></path>
        </g>
        <g>
          <path d="M251.32,378.78c-0.5,0-0.99-0.18-1.38-0.55l-8.12-7.71c-0.24-0.23-0.43-0.52-0.53-0.84l-3.43-10.71
					c-0.21-0.64-0.07-1.35,0.36-1.87c4.82-5.91,8.61-12.64,7.95-14.12c-0.47-0.82-1.23-1.29-2.25-1.39c-1.8-0.17-4.8,0.88-7.78,4.37
					c-4.73,5.53-6.4,12.6-6.42,12.67c-0.15,0.66-0.63,1.2-1.26,1.43c-0.64,0.23-1.35,0.13-1.89-0.28l-28.29-21.21
					c-0.88-0.66-1.06-1.92-0.4-2.8c0.66-0.88,1.92-1.06,2.8-0.4l25.99,19.49c1.01-2.9,2.99-7.5,6.42-11.51
					c3.43-4.01,7.51-6.1,11.2-5.75c2.33,0.22,4.24,1.43,5.35,3.4c2.38,4.2-4.07,13.27-7.65,17.77l2.94,9.2l7.75,7.36
					c0.8,0.76,0.83,2.03,0.07,2.83C252.38,378.57,251.85,378.78,251.32,378.78z" style="fill:#1f2d08"></path>
        </g>
        <g>
          <path d="M243.2,371.07c-0.75,0-1.46-0.42-1.81-1.14c-0.48-1-0.05-2.19,0.94-2.67c0.08-0.04,8.84-4.38,9.58-12.94
					c0.72-8.27-4.68-10.45-4.73-10.47c-1.03-0.4-1.54-1.56-1.14-2.59c0.4-1.03,1.56-1.54,2.59-1.14c0.34,0.13,8.25,3.33,7.27,14.55
					c-0.94,10.87-11.4,15.99-11.84,16.2C243.79,371,243.49,371.07,243.2,371.07z" style="fill:#1f2d08"></path>
        </g>
        <g>
          <path d="M325.92,311.24c-1.1,0-2-0.9-2-2v-11.45l-32.65-20.55c-0.24,3.62-1.6,9.37-6.55,16.66
					c-2.65,3.91-5.63,5.79-8.84,5.56c-5.86-0.4-9.66-7.71-10.07-8.54c-0.49-0.99-0.09-2.19,0.9-2.68c0.99-0.49,2.19-0.09,2.68,0.9
					l0,0c0.79,1.58,3.73,6.13,6.77,6.33c1.72,0.11,3.46-1.17,5.26-3.82c7.41-10.91,5.75-17.53,5.74-17.6
					c-0.23-0.8,0.05-1.66,0.71-2.16c0.66-0.5,1.57-0.54,2.27-0.1l36.86,23.19c0.58,0.37,0.93,1.01,0.93,1.69v12.55
					C327.92,310.34,327.02,311.24,325.92,311.24z" style="fill:#1f2d08"></path>
        </g>
        <g>
          <path d="M278.36,278.49c-0.97,0-1.82-0.71-1.97-1.7l-1.62-10.61l-25.83-19.9l-20.79,26.25
					c-0.69,0.87-1.94,1.01-2.81,0.33c-0.87-0.69-1.01-1.94-0.33-2.81l22.01-27.8c0.68-0.86,1.92-1.01,2.79-0.34l28.03,21.6
					c0.41,0.31,0.68,0.77,0.76,1.28l1.74,11.4c0.17,1.09-0.58,2.11-1.68,2.28C278.57,278.49,278.46,278.49,278.36,278.49z" style="fill:#1f2d08"></path>
        </g>
      </g>
      <g>
        <g>
          <path d="M285.59,282.78c-0.09,0-0.19-0.01-0.28-0.02l-11.55-1.62c-1.09-0.15-1.86-1.16-1.7-2.26
					c0.15-1.09,1.16-1.86,2.26-1.7l11.55,1.62c1.09,0.15,1.86,1.16,1.7,2.26C287.43,282.06,286.57,282.78,285.59,282.78z" style="fill:#1f2d08"></path>
        </g>
        <g>
          <path d="M346.11,98.18c-9.49,0-20.41-0.79-32.93-2.71c-60.93-9.37-75.29-21.16-78.42-27.35
					c-1.39-2.75-0.93-4.91-0.26-6.28c0.47-1.28,4.06-10.31,14.52-19.31c9.97-8.59,28.39-18.76,59.6-18.76c0.34,0,0.68,0,1.03,0
					c28.46,0.2,51.28,6.16,67.83,17.72c17.95,12.53,23.73,28.27,25.42,39.26c0.09,0.6-0.09,1.2-0.49,1.65
					C401.69,83.19,387.52,98.18,346.11,98.18z M308.62,27.78c-29.84,0-47.34,9.55-56.79,17.62c-10.33,8.81-13.56,17.81-13.59,17.9
					c-0.03,0.09-0.07,0.18-0.12,0.27c-0.4,0.77-0.33,1.67,0.21,2.75c1.75,3.46,12.37,15.49,75.46,25.2
					c12.13,1.87,22.73,2.63,31.93,2.63c35.06,0,49.88-11.03,53.05-13.8c-5.63-32.58-38.86-52.21-89.16-52.56
					C309.28,27.78,308.95,27.78,308.62,27.78z M236.34,62.64L236.34,62.64L236.34,62.64z" style="fill:#1f2d08"></path>
        </g>
        <g>
          <path d="M346.12,140.03c-17.34,0-25.51-11.36-28.37-16.65c-6.19,5.4-25.33,19.73-46.92,12.29
					c-7.74-2.67-12.41-6.82-13.87-12.33c-1.54-5.8,0.91-11.74,3.24-15.71c-12.81,3.28-44.52,9.67-57.83-3.28
					c-4.34-4.22-5.97-8.38-4.84-12.36c1.45-5.15,7.26-8.61,12.33-10.72c-8.46-1.73-20.99-5.33-25.68-12.08
					c-1.86-2.67-2.41-5.6-1.64-8.71c3.04-12.19,19.42-14.15,28.87-14.24c-3.48-2.95-7.19-7.16-6.64-11.33
					c0.45-3.44,3.53-6.01,9.15-7.64c13.84-4,23.99-1.46,29.08,0.59c0.02-1.62,0.4-3.51,1.57-5.32c2.48-3.83,7.62-5.91,15.26-6.2
					c19.96-0.74,29.55,9.23,29.95,9.65c0.75,0.81,0.71,2.07-0.09,2.83c-0.8,0.75-2.07,0.71-2.83-0.09
					c-0.08-0.08-8.84-9.05-26.88-8.39c-6.18,0.23-10.35,1.74-12.06,4.38c-1.72,2.66-0.52,5.84-0.51,5.88
					c0.33,0.81,0.09,1.74-0.59,2.29c-0.68,0.55-1.63,0.6-2.36,0.13c-0.11-0.07-11.36-7.12-29.43-1.9c-2.72,0.78-6.01,2.17-6.3,4.31
					c-0.48,3.61,6.67,9.2,10.21,11.34c0.8,0.48,1.16,1.46,0.86,2.34c-0.3,0.89-1.16,1.45-2.1,1.36
					c-0.28-0.03-27.89-2.65-31.29,10.97c-0.49,1.96-0.15,3.75,1.04,5.45c5.12,7.36,24.19,10.97,31.1,11.74
					c0.97,0.11,1.72,0.9,1.78,1.88c0.05,0.97-0.6,1.85-1.56,2.06c-4.29,0.97-15.78,4.75-17.4,10.49c-0.69,2.46,0.58,5.29,3.78,8.41
					c14.82,14.42,58.85,0.95,59.3,0.81c0.85-0.27,1.78,0.07,2.27,0.82c0.49,0.75,0.42,1.74-0.17,2.41
					c-0.08,0.09-7.79,9.04-5.73,16.8c1.1,4.14,4.91,7.35,11.3,9.56c23.4,8.07,44.62-13.02,44.83-13.23c0.48-0.49,1.18-0.7,1.86-0.55
					c0.67,0.15,1.22,0.63,1.45,1.28c0.32,0.89,8.22,21.8,35.62,15.44c9.47-2.2,15.18-5.64,16.51-9.96c1.52-4.94-2.91-9.83-2.96-9.88
					c-0.72-0.78-0.7-2,0.04-2.76c0.75-0.76,1.96-0.8,2.76-0.09c11.03,9.84,38.18,15.53,52.83,11.07c3.05-0.93,6.87-2.76,7.76-6.22
					c0.86-3.36,0.52-6.23-1.06-8.76c-3.58-5.75-12.32-7.62-12.41-7.64c-1.02-0.21-1.71-1.17-1.58-2.2c0.12-1.03,1.01-1.8,2.06-1.76
					c8.96,0.33,32.78-1.2,35.35-12.17c0.4-1.71,0.07-3.26-1.01-4.74c-5.29-7.29-26.14-10.58-33.73-11.24
					c-0.95-0.08-1.71-0.82-1.82-1.77c-0.11-0.95,0.47-1.84,1.38-2.13c4.04-1.29,10.74-4.63,11.53-8.09c0.12-0.5,0.47-2.03-2.02-4.42
					c-8.89-8.51-27.86-3.01-28.05-2.96c-0.95,0.28-1.97-0.18-2.38-1.08c-0.42-0.9-0.11-1.97,0.72-2.51
					c0.93-0.62,3.31-2.67,3.14-4.71c-0.16-1.82-2.42-3.77-6.37-5.5c-13.96-6.12-37.55-2.47-37.78-2.43
					c-0.73,0.12-1.47-0.18-1.92-0.78c-0.44-0.59-0.52-1.39-0.2-2.06c0.02-0.06,0.37-1.02-0.39-2.33c-1.09-1.85-4.93-5.19-18.36-6.83
					c-23.48-2.86-37.75,6.44-37.89,6.53c-0.92,0.61-2.16,0.37-2.77-0.55c-0.61-0.92-0.37-2.16,0.54-2.77
					c0.62-0.42,15.55-10.23,40.61-7.18c11.74,1.43,18.96,4.46,21.45,8.99c0.53,0.96,0.78,1.87,0.88,2.68
					c6.73-0.81,25.11-2.35,37.46,3.06c5.52,2.42,8.47,5.39,8.75,8.84c0.11,1.28-0.17,2.45-0.64,3.49c7.08-1.13,18.82-1.67,26,5.19
					c3.42,3.27,3.6,6.27,3.15,8.21c-0.8,3.47-4.17,6.16-7.43,8.02c9.13,1.44,24.24,4.82,29.41,11.96c1.78,2.45,2.34,5.14,1.66,8.01
					c-2.6,11.1-19.04,14.19-29.86,15.01c2.22,1.4,4.4,3.26,5.93,5.71c2.17,3.46,2.69,7.46,1.55,11.89
					c-0.75,2.9-3.17,6.83-10.47,9.05c-13.48,4.1-35.92,0.47-49.87-7.22c0.45,1.9,0.53,4.03-0.15,6.23
					c-1.8,5.84-8.34,10.1-19.43,12.67C352.9,139.63,349.35,140.02,346.12,140.03z" style="fill:#1f2d08"></path>
        </g>
        <g>
          <path d="M227.68,271.9c-0.31,0-0.63-0.07-0.93-0.23c-1.14-0.6-28.11-15-35.15-34.8
					c-6.31-17.74-1.18-33.85,0.17-37.53c-1.21-3.43-5.46-17.89-2.42-45.64c3.45-31.45,14.15-46.61,14.61-47.24
					c0.65-0.9,1.9-1.1,2.79-0.45c0.89,0.65,1.1,1.89,0.45,2.79l0,0c-0.1,0.15-10.56,15.04-13.88,45.34
					c-3.32,30.25,2.37,44.3,2.43,44.44c0.21,0.49,0.21,1.05,0,1.54c-0.07,0.17-6.89,17.13-0.39,35.42
					c6.51,18.32,32.98,32.46,33.24,32.6c0.98,0.52,1.35,1.73,0.83,2.7C229.09,271.52,228.4,271.9,227.68,271.9z" style="fill:#1f2d08"></path>
        </g>
        <g>
          <path d="M314.05,285.55c-6.04,0-9.65-0.35-9.78-0.37c-1.1-0.12-1.9-1.1-1.78-2.2c0.11-1.1,1.1-1.9,2.2-1.78
					c0.5,0.05,50.4,4.87,92.12-22.88c40.18-26.72,38.73-49.41,37.04-75.67l-0.21-3.33c-1.67-27.2-11.64-52.71-11.75-52.96
					c-0.41-1.03,0.1-2.19,1.12-2.59c1.03-0.4,2.19,0.1,2.6,1.12c0.1,0.26,10.3,26.33,12.02,54.18l0.21,3.31
					c1.7,26.36,3.3,51.26-38.81,79.26C367.31,282.75,331.06,285.55,314.05,285.55z" style="fill:#1f2d08"></path>
        </g>
        <g>
          <path d="M285.08,258.88c-2.42,0-4.78-0.17-7-0.48c-10.05-1.44-17.18-5.07-21.2-10.79
					c-4.63-6.6-3.27-13.48-3.21-13.77c0-0.02,0.01-0.05,0.02-0.07c-2.49-1.57-4.11-3.4-4.87-5.49c-0.89-2.46-0.97-6.44,3.71-11.44
					c8.52-9.08,38.5-9.31,56.28-0.42c8.64,4.32,13.01,8.24,14.18,12.72c1.34,5.15-1.73,10.26-5.28,15.48
					C310.82,254.75,297.14,258.88,285.08,258.88z M257.47,235.69c-0.12,1.85,0.02,5.86,2.72,9.68c3.37,4.75,9.58,7.8,18.45,9.07
					c12.09,1.73,28.44-1.31,35.75-12.07c3.62-5.32,5.55-9.02,4.71-12.22c-0.84-3.22-4.68-6.45-12.1-10.15
					c-17.08-8.54-44.88-7.55-51.57-0.42c-1.82,1.94-3.79,4.79-2.87,7.34c0.84,2.32,4.77,6.51,21.7,8.59
					c22.59,2.78,28.55-4.31,28.61-4.38c0.68-0.85,1.93-1.01,2.79-0.35c0.86,0.67,1.05,1.88,0.4,2.76
					c-0.28,0.37-7.02,9.05-32.29,5.94C267.01,238.64,261.56,237.38,257.47,235.69z" style="fill:#1f2d08"></path>
        </g>
        <g>
          <path d="M361.28,403.32c-10.86,0-21.35-2.64-29.6-7.8c-9.26-5.79-14.91-14.35-15.9-24.11
					c-2.72-26.79,7.92-47.9,25.3-50.19c4.03-0.53,7.85-0.8,11.23-1.04c11.57-0.83,15.96-1.6,16.18-6.49
					c0.4-8.81-15.37-31.07-19.8-31.74c-1.09-0.17-1.84-1.19-1.68-2.28c0.17-1.09,1.2-1.84,2.28-1.68
					c7.6,1.16,23.64,25.97,23.2,35.88c-0.4,8.91-9,9.52-19.89,10.3c-3.32,0.24-7.08,0.51-10.99,1.02
					c-14.91,1.96-24.3,21.66-21.84,45.81c0.88,8.63,5.73,15.93,14.04,21.12c13.13,8.21,32.48,9.52,49.28,3.34
					c29.25-10.75,33.87-44.25,25.78-70.83c-8.73-28.7-33.04-51.7-33.29-51.93c-0.81-0.75-0.85-2.02-0.09-2.83
					c0.75-0.81,2.02-0.85,2.83-0.09c1.03,0.96,25.33,23.95,34.38,53.69c8.62,28.32,3.46,64.1-28.22,75.75
					C377,401.97,369.04,403.32,361.28,403.32z" style="fill:#1f2d08"></path>
        </g>
        <g>
          <path d="M325.92,468.35c-32.38,0-61.34-5.12-61.62-5.17c-1.09-0.19-1.81-1.23-1.62-2.32
					c0.2-1.09,1.24-1.81,2.32-1.62c0.29,0.05,28.91,5.11,60.92,5.11c35.1,0,65.11-8.8,76.46-22.42
					c12.09-14.51,2.67-60.62,2.58-61.08c-0.22-1.08,0.47-2.14,1.55-2.37c1.08-0.22,2.14,0.47,2.37,1.55
					c0.41,1.97,9.9,48.47-3.42,64.46C390.79,462.08,354.75,468.35,325.92,468.35z" style="fill:#1f2d08"></path>
        </g>
        <g>
          <path d="M274.94,489.66c-10.08,0-15.73-4.35-16.04-4.6c-0.87-0.69-1.01-1.94-0.33-2.81
					c0.69-0.87,1.94-1.01,2.81-0.33c0.34,0.26,8.7,6.56,23.65,2.22c14.57-4.23,15.29-15.42,15.32-15.9c0.06-1.1,1-1.96,2.09-1.9
					c1.1,0.05,1.95,0.97,1.91,2.07c-0.02,0.59-0.77,14.51-18.2,19.57C281.96,489.2,278.21,489.66,274.94,489.66z" style="fill:#1f2d08"></path>
        </g>
        <g>
          <path d="M365.25,495.68c-2.14,0-4.32-0.11-6.54-0.35c-34-3.53-40.47-27.48-40.73-28.5
					c-0.27-1.07,0.38-2.16,1.45-2.43c1.07-0.27,2.16,0.37,2.43,1.44c0.25,0.94,6.18,22.28,37.27,25.51
					c15.3,1.59,28.54-2.74,37.26-12.18c8.38-9.08,11.57-21.72,8.99-35.61c-0.2-1.09,0.52-2.13,1.6-2.33c1.08-0.2,2.13,0.52,2.33,1.6
					c2.81,15.15-0.73,29.02-9.99,39.05C391.01,490.9,379.08,495.68,365.25,495.68z" style="fill:#1f2d08"></path>
        </g>
        <g>
          <path d="M408.24,464.92c-0.88,0-1.69-0.58-1.93-1.47c-0.29-1.07,0.34-2.17,1.4-2.46
					c19.82-5.4,33.91-20.19,40.77-42.76c6.77-22.31,6.1-50.46-1.93-81.43c-15.89-61.26-43.37-78.02-43.65-78.18
					c-0.95-0.56-1.27-1.79-0.71-2.74c0.56-0.95,1.79-1.27,2.74-0.71c1.18,0.7,29.19,17.78,45.49,80.62
					c8.22,31.68,8.87,60.58,1.89,83.59c-7.28,23.96-22.33,39.68-43.54,45.46C408.59,464.9,408.41,464.92,408.24,464.92z" style="fill:#1f2d08"></path>
        </g>
      </g>
      <g>
        <path d="M202.92,380.06c-0.01,0-0.03,0-0.04,0c-1.1-0.02-1.98-0.93-1.96-2.04c0.22-11.05,5.9-32.16,6.14-33.05
				c0.29-1.07,1.38-1.7,2.45-1.41c1.07,0.29,1.7,1.39,1.41,2.45c-0.06,0.21-5.79,21.53-6,32.09
				C204.89,379.2,204,380.06,202.92,380.06z" style="fill:#1f2d08"></path>
      </g>
    </g>
    <g id="garis_perut_00000103238762496720014340000001870109047859883906_">
      <g>
        <path d="M239.69,375.38c-25.13,0-34.55-4.31-34.96-4.5c-1-0.47-1.43-1.66-0.95-2.66c0.47-1,1.66-1.42,2.66-0.96
				c0.15,0.07,10.18,4.52,36.74,4.1c1.13,0.02,2.01,0.86,2.03,1.97c0.02,1.1-0.86,2.01-1.97,2.03
				C242.02,375.37,240.84,375.38,239.69,375.38z" style="fill:#1f2d08"></path>
      </g>
      <g>
        <path d="M303.25,380.78c-8.83,0-16.9-1.94-17.41-2.06c-1.07-0.26-1.73-1.34-1.47-2.42c0.26-1.07,1.35-1.73,2.42-1.47
				c0.18,0.04,17.91,4.29,28.54,0.08c1.03-0.41,2.19,0.1,2.6,1.12s-0.1,2.19-1.12,2.6C312.73,380.25,307.88,380.78,303.25,380.78z" style="fill:#1f2d08"></path>
      </g>
      <g>
        <path d="M307.58,414.49c-25.05,0-42.84-2.46-43.22-2.51c-1.09-0.16-1.85-1.17-1.7-2.26s1.17-1.85,2.26-1.7
				c0.82,0.12,82.5,11.39,142.5-15.06c1.01-0.44,2.19,0.01,2.64,1.02s-0.01,2.19-1.02,2.64
				C376.12,411.12,336.89,414.49,307.58,414.49z" style="fill:#1f2d08"></path>
      </g>
      <g>
        <path d="M316.99,445.1c-21.32,0-35.81-2.66-36.12-2.72c-1.08-0.21-1.8-1.25-1.59-2.34c0.21-1.08,1.25-1.8,2.34-1.59
				c0.67,0.13,67.72,12.39,125.72-16.84c0.99-0.5,2.19-0.1,2.69,0.89c0.5,0.99,0.1,2.19-0.89,2.69
				C377.02,441.37,342.23,445.1,316.99,445.1z" style="fill:#1f2d08"></path>
      </g>
      <g>
        <path d="M414.47,462.85c-0.28,0-0.56-0.06-0.83-0.18c-1-0.46-1.45-1.65-0.99-2.65c21.49-46.97,0.19-98.82-0.03-99.34
				c-0.43-1.02,0.05-2.19,1.07-2.62c1.02-0.43,2.19,0.05,2.62,1.07c0.22,0.53,22.21,53.96-0.03,102.55
				C415.95,462.42,415.23,462.85,414.47,462.85z" style="fill:#1f2d08"></path>
      </g>
      <g>
        <path d="M455.03,389.92c-0.65,0-1.29-0.32-1.67-0.9c-31.2-47.41-25.91-101.22-25.85-101.76
				c0.12-1.1,1.1-1.89,2.2-1.78c1.1,0.12,1.89,1.1,1.78,2.2c-0.06,0.52-5.18,52.96,25.22,99.14c0.61,0.92,0.35,2.16-0.57,2.77
				C455.79,389.82,455.41,389.92,455.03,389.92z" style="fill:#1f2d08"></path>
      </g>
      <g>
        <path d="M414.47,356.49c-0.9,0-1.71-0.61-1.94-1.52c-0.26-1.07,0.39-2.16,1.46-2.42l22.03-5.44
				c1.07-0.26,2.16,0.39,2.42,1.46c0.26,1.07-0.39,2.16-1.46,2.42l-22.03,5.44C414.79,356.47,414.63,356.49,414.47,356.49z" style="fill:#1f2d08"></path>
      </g>
      <g>
        <path d="M394.03,293.37c-0.54,0-1.09-0.22-1.48-0.65c-0.74-0.82-0.68-2.08,0.13-2.83
				c0.55-0.5,13.77-12.25,34.91-8.27c1.08,0.2,1.8,1.25,1.6,2.33c-0.2,1.08-1.24,1.8-2.34,1.6c-19.21-3.61-31.36,7.19-31.48,7.3
				C394.99,293.19,394.51,293.37,394.03,293.37z" style="fill:#1f2d08"></path>
      </g>
      <g>
        <path d="M425.49,421.21c-0.86,0-1.65-0.55-1.91-1.41c-0.32-1.06,0.27-2.17,1.32-2.5
				c0.22-0.07,22.19-7.03,28.06-25.69c0.33-1.05,1.46-1.64,2.51-1.31c1.05,0.33,1.64,1.45,1.31,2.51
				c-6.51,20.7-29.72,28.01-30.7,28.31C425.88,421.18,425.68,421.21,425.49,421.21z" style="fill:#1f2d08"></path>
      </g>
      <g id="garis_perut_00000042733225320368284700000000458914490615547806_">
        <path d="M325.91,311.24c-1.05,0-1.93-0.82-1.99-1.88c-0.07-1.1,0.77-2.05,1.87-2.12c0.33-0.02,33.37-2.1,41.82-4.49
				c1.07-0.3,2.17,0.32,2.47,1.38s-0.32,2.17-1.38,2.47c-8.86,2.5-41.28,4.54-42.66,4.63C326,311.24,325.96,311.24,325.91,311.24z" style="fill:#1f2d08"></path>
      </g>
    </g>
  </g>
</svg>
