<?xml version="1.0" encoding="UTF-8"?>
<svg id="Ebene_1" xmlns="http://www.w3.org/2000/svg" version="1.1" viewBox="0 0 274.8 168.2">
  <!-- Generator: Adobe Illustrator 30.1.0, SVG Export Plug-In . SVG Version: 2.1.1 Build 136)  -->
  <defs>
    <style>
      .st0 {
        fill: #f091ac;
      }
    </style>
  </defs>
  <path class="st0" d="M145.7,145c.7,1.1,1.8,1.8,3.3,2.4,12.7,5.4,26.3,8,40.1,7.3,27.6-1.3,53-17.9,61.8-44.5,1.8-5.4,2.5-10.8,1.9-16.5-5-1.2-9.6-1.2-14.8-1.6l5.8-13.3c-3.1-2.8-6.6-4.3-10.6-5.6-13.2-4-27.2-2.9-40.1,2.3-9.8,4-18.2,10-25.1,17.5,4.9-11.7,6.7-24.4,4.8-37.5-2-13.8-8.1-26.4-18.3-35.8-3.1-2.8-6.2-5.1-10.2-6.4l-8.5,11.8c-2.9-4.3-5.3-8.2-8.8-12-5.2,2.4-9.6,5.7-13.3,10-15.8,18-19.1,42.8-11.6,65-5.9-5.3-12.7-9.6-20.3-12.7-12.9-5.3-26.9-6.3-40.1-2.3-4,1.2-7.6,2.8-10.6,5.6l5.8,13.3c-5.1.4-9.8.4-14.8,1.6-.6,5.7.1,11.1,1.9,16.5,8.8,26.6,34.2,43.1,61.8,44.5,13.8.7,27.4-1.9,40.1-7.3,1.5-.6,2.6-1.3,3.3-2.4"/>
</svg>