<?xml version="1.0" encoding="UTF-8"?>
<svg id="Ebene_1" xmlns="http://www.w3.org/2000/svg" version="1.1" viewBox="0 0 810.9 661">
  <!-- Generator: Adobe Illustrator 30.1.0, SVG Export Plug-In . SVG Version: 2.1.1 Build 136)  -->
  <defs>
    <style>
      .st0 {
        stroke: #61033b;
      }

      .st0, .st1 {
        fill: none;
        stroke-miterlimit: 10;
        stroke-width: 8px;
      }

      .st1 {
        stroke: #f6bec9;
      }

      .st2 {
        fill: #dc638e;
      }

      .st3 {
        fill: #f091ac;
      }

      .st4 {
        fill: #fdfcf8;
      }

      .st5 {
        fill: #61033b;
      }
    </style>
  </defs>
  <g>
    <path class="st3" d="M26.9,189.8c-.8,2.2-1.2,4.4-1.2,6.6,0,2.2.3,4.1,1,5.6.7,1.6,1.9,2.7,3.6,3.5s3.9.9,6.6.3c2.5-.4,4.9-1,7.4-1.7s4.9-1.6,7.3-2.4c2.5-.9,4.9-1.7,7.3-2.5,2.5-.8,4.9-1.4,7.4-1.9,4.4-.7,8.9-1.1,13.7-1.1,4.8,0,9.2.6,13.4,1.9,4.1,1.3,7.8,3.3,10.9,6.2s5.3,6.6,6.4,11.5c1,4.2,1.2,8.6.5,12.9s-2,8.6-3.9,12.6-4.5,7.9-7.7,11.4c-3.1,3.6-6.6,6.6-10.5,9.2-4.7,2.9-9.4,5.1-14.4,6.5s-9.9,1.8-14.9,1.1c-2.2-.2-4.4-.6-6.4-1.3s-3.8-1.7-5.4-3.1c-.8-.5-1.5-1.2-2.1-2s-1.1-1.7-1.5-2.6c0-.5,0-1.2.2-2.1.2-.9.2-1.6.3-2,0,0,.1.2.2.5,0,.3,0,.6,0,.9,0-.6.1-1.2.3-1.8.2-.7.4-1.2.7-1.7.3-.5.5-.7.7-.8s.3.3.3,1.1c0,.4,0,1,.5,1.9.4.9.7,1.4.8,1.4.4-.1.7-.5.7-1,0-.6,0-1.2,0-1.8,0-.6-.1-1.2-.2-1.8,0-.6,0-.9.2-1.1.1-.1.4,0,.7.3.3.3.6.7.9,1.1.3.4.7.9,1.1,1.7,0,0,0-.4,0-.9l-.3-1.6c0-.5,0-.9,0-1.2,0-.3.4-.3,1,0,.2,0,.6.2,1,.2.5,0,.8.3.9.6l.2-.8c.2,0,.5.3.8.7,0,0,0-.4-.2-1.1s-.2-.9.1-.9c.3.3.5.4.6.4,2.1,2,4.3,3.1,6.6,3.5,2.3.4,4.8-.6,7.5-2.9,2.5-2,4.5-4.6,5.9-7.8,1.4-3.3,2.5-6.4,3.1-9.3.7-3.1.6-5.7-.2-7.9s-2-3.9-3.7-5.1c-1.7-1.2-3.7-1.9-6.2-2.1-2.4-.2-5,.2-7.8,1-3.1.9-6.2,1.9-9.4,2.9-3.2,1.1-6.3,2-9.5,2.8-3.2.8-6.4,1.4-9.5,1.8-3.2.4-6.4.4-9.6-.2-3.1-.4-6.1-1.3-8.8-2.7-2.7-1.3-5.1-3-7.3-5.1-2.2-2.1-3.9-4.4-5.2-7.1-1.3-2.7-2.1-5.6-2.3-8.8-.4-6.5.9-12.8,3.8-18.9,3-6.1,7.1-11.4,12.4-15.7,5.1-4.1,10.9-6.8,17.3-7.9,6.4-1.1,12.5-1,18.2.4,2.9.6,5.5,1.9,7.7,3.8,2.2,1.9,3.4,4.4,3.6,7.5,0,1.3,0,2.5-.5,3.8s-1.1,2.4-2,3.5c-.9,1.1-1.9,2.1-3,2.9-1.2.8-2.4,1.4-3.6,1.8-2.5.8-5.2.7-7.8-.1-2.7-.9-5.2-1.6-7.6-2.2-2.4-.6-4.6-.5-6.6.2-2,.8-3.7,3.1-5,7.1h0ZM5.6,205.8c.2-.3,0-.5-.4-.4-.2.6,0,.7.4.4ZM5.8,196.7c0,0,.2-.2.6-.7s.6-1.2.9-2c.3-.8.7-1.6,1-2.3.3-.7.5-1.2.6-1.4.1-.3.4-.9.8-1.7s.9-1.8,1.4-2.8c.5-1,.9-1.9,1.3-2.6.3-.8.4-1.3.2-1.5-.2-.4-.6-.2-1.1.4-.5.6-1,1.4-1.5,2.3s-1.2,2.2-2.1,3.8c-.2.2-.5.7-.7,1.6s-.5,1.8-.8,2.8c-.2,1-.4,1.9-.6,2.7-.2.8-.2,1.3,0,1.5h0ZM7.7,204.6c-.3-.1-.5-.3-.6-.4,0,0,0,.2.3.5.3.3.4.2.3,0h0ZM11.9,180.2c-.1.3,0,.3.2,0l.5-.5c-.3-.1-.5,0-.8.5ZM12.5,199.2c0-.5.3-1.2.6-2.1s.6-1.9.9-2.9c.3-1,.5-1.9.6-2.8.1-.9,0-1.5-.2-2-.3.8-.6,1.6-.8,2.4-.2.6-.4,1.2-.6,1.8s-.3.9-.4,1.1c0,.7,0,1.5-.1,2.3,0,.8,0,1.5,0,2.2h0ZM14.3,188.6c.4.3.5.2.3-.3-.4-.1-.5,0-.3.3ZM17.7,194.1c.3-.3.4-.6.4-1.1s0-.8,0-1c-.1.3-.2.6-.3,1.1,0,.5-.1.8-.2,1ZM18.6,199.6c0,0,0-.4,0-.9s.2-1.2.4-1.9c.2-.7.3-1.3.5-1.9.2-.6.2-.9.2-1.1s.1-.6.4-1.5c.2-.8.5-1.7.7-2.5s.4-1.6.5-2.2c.1-.7.1-1,0-1-.2,0-.4.2-.7.8-.3.6-.5,1.3-.8,2.1-.2.8-.5,2-.8,3.6-.2.8-.2,1.8-.2,2.9s-.2,2-.6,2.7c-.2.5-.2.9,0,1.2.1.3.3.5.5.5v-.7c0,0,0,0,0,0ZM18.7,203.9c.4-.8.3-1.1-.5-.8.1.4.2.7.3.9,0,.1.1.2.1.3,0,0,0,0,0-.4h0ZM23.3,192c0-.4,0-.9.4-1.7s.7-1.6,1.1-2.5c.4-.9.8-1.6,1.1-2.3s.4-1.1.1-1.4c0-.2-.3.1-.8,1.1-.5.9-1,2-1.5,3.3s-1,2.4-1.5,3.5c-.5,1.1-.8,1.8-.9,2.1,0,.3,0,.8-.2,1.6-.1.8-.2,1.6-.2,2.5,0,.9,0,1.6.2,2.3.2.7.4,1,.7,1,.2-1.8.4-3.3.6-4.5.2-1.1.4-2.2.6-3.2.2-1,.3-1.6.3-1.9h0ZM21.6,185.9c.2,0,.4,0,.4,0s0-.3,0-.5c-.2,0-.4,0-.5,0-.1.1-.1.3,0,.6h0ZM84.3,241.3h-.1c0,.1-.2.3-.2.3,0,0,.3.2.6.4.3.2.4.1.2-.3l-.4-.4h0ZM86.9,230c-.8,0-1.1.2-1.1.6s.1.6.2.9c0-.2.3-.5.6-.9.3-.4.4-.2.4.4,0,.1-.2.6-.6,1.3-.4.7-.7,1.2-.7,1.4-.2.3-.2.5,0,.7,0,.2,0,.6,0,1.1,0,.2-.2.6-.2,1.1,0,.6-.2,1.1-.3,1.7,0,.6-.2,1.1-.2,1.5,0,.5,0,.6,0,.6.4-.1.9-.5,1.3-1,.4-.6.8-1.2,1.2-1.9s.7-1.4,1-2.1c.3-.7.5-1.2.6-1.6.2-.3.5-.6.9-1.1s.8-.8.8-1.2c0-.3-.2-.5-.6-.6-.4-.1-.4-.3,0-.7.1-.1.4,0,.8.3s.7.3.9-.2c0-.3-.3-.5-.8-.6-.6,0-.7-.4-.4-1,.7-.6,1.2-1,1.5-1.2-.3,0-.8-.3-1.3-.6,0-.3.1-.6.3-.9.2-.3.4-.6.4-.8,0-.4-.1-.6-.1-.8,0-.2,0-.4,0-.5s0-.2,0,0l-.8-.2c0-.4,0-.7.2-1.1s.3-.7.3-.9c0-.2,0-.4-.2-.5-.2,0-.7,0-1.4.3-.4.1-.7,0-.8-.5,0-.5,0-.8.3-.9.3,0,.7,0,1.1,0-.2,0-.6-.3-1-.7-.5-.4-.9-.2-1.4.5-.2.1-.2.7,0,1.7s.2,1.6.2,1.6h.9c0,.3,0,.5-.2.7-.2.1-.4.3-.7.5-.2.2-.4.5-.6.8s-.1.8,0,1.3c.2.2.3.4.4.6.1.4.1.6,0,.4-.3-.3-.4-.5-.4-.6-.3.1-.4.4-.4.7,0,.3,0,.6.2.9s.2.6.2.9,0,.4-.3.4h0ZM95.7,220.9c.3.2.5.6.3,1.2-.1.6-.3,1.2-.6,1.8-.3.6-.5,1.2-.8,1.7-.3.6-.4.9-.4,1,.1.6.2,1.2.3,1.9s-.2,1.3-.7,1.8c-.3.3-.4.6-.3.8,0,.3.1.6.2.9,0,.3.2.6.2.9s0,.5-.3.6c.1.4.1,1,0,1.7l-1.6.3,1,.7c.7.4,1.1.5,1.2.1,0-.5.2-1.1.2-1.7,0-.7.3-1.3.7-1.8,0,.7,0,1.2,0,1.6,0,.4,0,.7.1,1s.2.3.4.1c-.1-.1-.2-.3-.2-.4,0-.1,0-.3-.1-.5h1.2c0-.1.2-.5.2-1s.2-1.2.2-1.8c0-.7,0-1.3,0-1.9,0-.6,0-1,0-1.1l1.2-.5-.4-3.7c0-.1,0-.5,0-1.2s0-1.3.1-1.9c0-.7,0-1.2,0-1.7,0-.5,0-.7-.2-.7-.2,0-.4.5-.6,1.2-.2.7-.4,1.6-.7,2.5.2-1.5,0-2.4-.5-2.4-.3,0-.4.3-.2.6h0ZM92.1,228.6c.2,0,.3,0,.4,0s0-.2,0-.3c-.5,0-.6,0-.3.3h0ZM92.1,231.8c0,0-.1.2-.1.5.3.2.7.3.9.1,0,0,0-.3-.1-.7-.2-.4-.3-.6-.5-.6l-.2.6h0ZM92.4,234.3c.5.2.7,0,.6-.7-.4.1-.6.4-.6.7ZM94,239.1c0-.4-.3-.5-.6-.4-.2.4,0,.5.6.4ZM95.5,226.4c0,1.1-.2,2-.3,2.8,0,.8-.1,1.4,0,1.6-.1-.3-.2-.9,0-1.7,0-.8.2-1.8.4-2.7ZM96.3,223c0,.4,0,.9-.2,1.3-.1.4-.2.9-.3,1.4l.5-2.7h0ZM96.4,217.9c-.2.2-.3.4-.3.7,0,0,.1,0,.2-.1s.1-.3.2-.5c0-.2,0-.3.1-.4,0-.1,0,0-.2.3h0ZM96.4,222.7c0,0,0,.1,0,.2,0,0,0,0,0,.2v-.3c.1,0,.1,0,.1,0ZM97.7,234.7c-.3,0-.4.3-.2.7s.5.5.7.3c.1-.1,0-.4-.2-.6-.3-.3-.4-.4-.3-.3h0ZM97.9,238.6c-.4.8-.2.8.4.2,0-.5,0-.6-.4-.2ZM104.2,230.1c.2-1.5.4-3,.5-4.6s-.1-3.1-.7-4.7c0,.4,0,1.1-.1,2.2-.1,1.1-.3,2.2-.6,3.4-.2,1.3-.6,2.8-1,4.4-.3,0-.4-.1-.2-.6.2-.4.2-.7,0-.7-.6.4-1,.7-1.4.9s-.6.3-.8.4c-.2,0-.2-.1,0-.6.2-.3,0-.6-.4-1.1-.2-.2-.4-.4-.7-.6-.4.3-.4.8-.2,1.3.2.5.5,1,1,1.6s.8,1,1.2,1.4c.4.4.5.6.4.7-.4.3-.8.4-1.2.5-.3,0-.7.2-1.2.5.3-.1.7-.1,1.1,0,.4.1.7.3.8.5,0,.2,0,.4-.3.6-.3.2-.6.4-.9.6s-.6.4-.8.7-.3.5,0,.7c.2,0,.5-.2.8-.3l.8-.4v.9c0-.2.5-.6,1.2-1.2.7-.6,1-.8,1-.5,0-.2,0-.3-.2-.4-.2,0-.4,0-.6,0,.1-.1.4-.4.7-.9.3-.5.6-1,.8-1.7.2-.6.5-1.2.7-1.8.2-.6.3-1,.3-1.2h0ZM99.1,233.2c.5.5.6.5.3-.1-.3-.6-.4-.8-.3-.8-.4.2-.4.5,0,.8h0ZM101,239c.5-.2.5-.3,0-.3s-.7,0-.8.1l-.4,2c-.3-.3-.5-.4-.7-.3.1,0,.3,0,.4.3,0,.2.2.3.3.4,0,.1.2.2.3.2,0,0,.2-.2.3-.6,0-.2.1-.5.1-.9,0-.4.2-.7.4-.8h0ZM101,231.7c-.4-.1-.5-.3-.2-.4s.4,0,.5.4c0,.2,0,.3,0,.2l-.2-.2h0ZM101.7,237.9c-.1-.4-.2-.6-.3-.5,0,0-.1.2-.1.4,0,.2,0,.4.1.6,0,.2.2.2.4,0v-.5c0,0,0,0,0,0ZM102.4,224.1c-.4.3-.7,1.1-.9,2.3-.2,1.2-.2,2,0,2.4.1.1.3,0,.4-.3.2-.4.3-.7.3-1.1s.2-1.1.4-1.9c0-.6,0-1.1-.3-1.4h0ZM105.1,209.8c0,.4.2.6.6.4,0-.4-.2-.6-.6-.4ZM106.7,220.3c-.3.4-.4,1-.5,1.7,0,.7,0,1.5,0,2.3,0,.8,0,1.6,0,2.3,0,.7,0,1.3,0,1.7,0,.2-.2.8-.3,1.6-.1.9-.3,1.8-.4,2.9s-.3,2-.3,2.8c0,.8,0,1.3.3,1.4.3,0,.7-.5,1-1.9.3-1.3.6-2.8.8-4.5.2-1.6.4-3.2.6-4.6.2-1.4.2-2.3.2-2.6,0-1.5,0-3,0-4.5s-.2-2.9-.6-4.4c0,0-.2-.3-.4-.8-.2-.4-.4-.9-.6-1.4-.2-.5-.4-.9-.5-1.3s-.3-.6-.3-.5c-.2.4-.2,1,.2,2s.5,1.6.4,2c.1,1,.3,2,.7,2.9.4,1,.2,1.9-.3,2.9h0Z"/>
    <path class="st3" d="M154.3,193.6c-1,3.2-2.6,5.9-4.7,8.3-2.1,2.4-4.6,4.3-7.3,5.8-2.8,1.5-5.8,2.5-9,3.1-3.2.6-6.3.6-9.5,0-3.2-.6-6.2-1.9-9.2-3.7-3-1.8-5.4-4-7.3-6.4-1-1.2-1.9-2.6-2.7-4-.7-1.5-1.5-3-2.2-4.5l-1.6-4.3c-.2-.6-.1-1.1.2-1.5.3-.4.3-.9.2-1.4,0,0-.2-.1-.6-.2s-.5-.1-.6-.3l-.5-1.6c-.4-1.9-.7-3.5-.9-4.9,0-1.7-.1-3.5-.2-5.2,0-1.8,0-3.6.3-5.4.3-3.5.9-7,1.7-10.3s2.2-6.6,4-9.7c1.8-3,4.1-5.9,6.7-8.6,2.6-2.7,5.8-4.3,9.5-4.8,1.2,0,2.5-.2,3.8-.4,1.3-.2,2.7-.2,4-.1.5,0,.9-.2,1.1-.6s.4-1,.6-1.6.3-1.1.5-1.5.5-.6.9-.5c.4,0,.6.4.6.9,0,.5,0,1-.1,1.6,0,.6,0,1.1,0,1.5,0,.4.4.6,1.1.5,0,0,.1-.3.1-.8s0-1,0-1.6c0-.6-.1-1.2-.2-1.8,0-.6,0-.9,0-1.1.2-.5.4-.5.8,0,.4.5.7,1.1,1.1,1.8.4.8.7,1.6,1.1,2.4.3.9.6,1.4.8,1.8l-1.5-5.5c-.2-.6-.1-1,.1-1.2.2-.2.6-.3,1-.3s.9,0,1.4.1c.5.1,1,.2,1.4.3.8,0,1.4.4,2,.8.6.5,1.1,1,1.6,1.6,3.4,4.1,6.5,8.4,9.3,13,2.8,4.6,5.7,9.1,8.7,13.5,1.7,2.6,3.4,5.1,5.1,7.7s3.5,5.1,5.4,7.7c.9,1.1,1.8,2.4,2.8,3.8,1,1.4,1.6,2.9,1.7,4.5.2,2.5-.4,4.6-1.9,6.5-1.5,1.9-3.3,3.3-5.5,4.4-2.2,1.1-4.6,1.6-7.1,1.8-2.5.1-4.8-.3-6.8-1.4,0,.3-.1.6-.2.9-.1.3-.1.6-.1,1h0ZM103,169.6c0,.3,0,.9.1,2,.2,1,.3,2.1.5,3.3.2,1.1.3,2.6.4,4.4,0,0,.1-.7,0-1.9s0-2.6-.2-4.1c0-1.5-.2-2.9-.3-4.1,0-1.2-.2-1.9-.2-2,0,0-.2.5-.3,1.3s-.1,1.2-.1,1.1h0ZM106.4,181.3c-.7-3-1-6.2-.9-9.6,0-3.4.5-6.7,1.1-9.8,0-.1.2-.9.6-2.2s.7-2.8,1.1-4.3.9-3.5,1.5-6c-.2,0-.5.3-.8.9-.3.6-.6,1.2-1,1.9s-.7,1.4-1,2.1-.4,1.1-.5,1.2c-.6,1.6-1.1,3.3-1.4,5s-.6,3.5-.7,5.3c-.3,3.2-.3,6.4,0,9.9.3,3.4,1.2,6.6,2.5,9.5l-.6-3.7h0ZM111.9,160.7c-.4,1.7-.6,3.4-.6,5,.2-.9.4-1.8.4-2.6,0-.9,0-1.7.2-2.4h0ZM114.9,180.7c-.5-1.9-.9-3.9-1.2-5.8s-.4-4-.4-6c0-.4,0-1,0-1.9,0-.9,0-1.9,0-3,0-1.1,0-2,0-2.9s0-1.5.2-1.8c-.4.4-.6,1-.8,2-.2,1-.3,2-.3,3.1s0,2.1,0,3.1,0,1.7,0,2.1c.1.9.2,1.9.2,3.2,0,1.2.2,2.5.4,3.7.2,1.3.5,2.5.8,3.6.3,1.1.8,2,1.4,2.6l-.2-.9c0-.2,0-.4,0-.7s0-.3,0-.2h0ZM115.6,183.3c.1-.3,0-.4-.2-.2-.5.3-.4.4.2.2ZM125.2,186.6c-2.5-5.2-3.9-10.6-4.2-16.2-.3-5.6,0-11.2.8-16.9-1.6,2.7-2.3,5.8-2.4,9.4,0,3.6.2,6.8.8,9.6,0,.4.2,1.3.7,2.9s1,3.3,1.6,5.1c.6,1.8,1.2,3.4,1.7,4.8.5,1.4.9,2,1.1,1.9.1-.2,0-.4,0-.7h0ZM127,181.1c0-.3,0-.5-.2-.8-.2-.2-.3-.4-.3-.5-.2-.5-.2-.8,0-1.1.2-.2.2-.5,0-.9,0-.4-.2-.8-.7-1.3-.4-.5-.8-1-.9-1.4-.3-1.2-.5-2.4-.4-3.6s0-2.3,0-3.4c-.1-.2-.3-.1-.5.1-.2-.2-.3-.7-.3-1.4,0-.7,0-1.4,0-2.2,0-.8.2-1.5.3-2.2s.2-1.3.2-1.6l1.5-6.7c.2-.7.6-1.7,1.1-2.8.5-1.1.7-2.1.6-3,0,.4-.3.9-.8,1.8-.5.8-.9,1.4-1,1.7-.8,1.6-1.3,3.4-1.8,5.4-.7,2.1-1,4.2-1,6.3,0,2.1,0,4.3.3,6.5.3,2.5.9,5,1.6,7.6s1.6,5,2.7,7.3c.4,1,.9,2,1.5,3,.6,1,1.2,1.9,2,2.9.1.2.4.6.9,1.2s.9.9,1,1c.1,0,.1-.1,0-.4-.1-.3-.4-.7-.6-1.1-.3-.4-.6-.9-.9-1.3-.3-.5-.6-.8-.8-1-.3-.3-.7-.8-1.1-1.6-.4-.8-.8-1.6-1.2-2.5-.4-.9-.7-1.7-1-2.4s-.3-1.2-.3-1.5h0ZM140.4,194.6c1.2,0,2.1-.4,2.9-1.1s1.4-1.5,2-2.4c.6-1,1-2,1.3-3.1s.6-2.1.9-3c.5-2.3.4-4.2,0-5.6s-1.4-3-2.5-4.9c-1.6-2.5-3.1-5.1-4.6-7.7-1.5-2.6-2.9-5.2-4.2-7.9-.6-1.3-1.2-2.5-1.7-3.6-.5-1.1-1.1-2.3-1.6-3.5-.1-.2-.2-.5-.4-1-.1-.5-.3-1-.5-1.6-.2-.6-.4-1.1-.6-1.5s-.4-.7-.6-.8c-.6-.1-1.1.6-1.6,2-.6,1.4-1,3.1-1.5,4.9s-.8,3.6-1.1,5.3-.5,2.7-.5,3.1c0,.7,0,1.6,0,2.6,0,1,0,2.1,0,3.1,0,1.1.1,2,.2,3,.1.9.4,1.7.8,2.3.5.8.8,1.7,1,2.9s.3,2.2.6,3c.4,1.1.7,2.1,1.2,3,.4.9.9,1.9,1.3,2.9.5,1,1.1,2,1.6,3.1.6,1.1,1.2,2.2,2,3.1s1.6,1.8,2.6,2.5c1,.7,2.1,1,3.4,1h0ZM130.5,189.1c0,0-.1-.1-.1,0s0,0-.1,0c.1,0,.2,0,.3.2h0ZM134.2,142.1c-.4.5-.5,1.4-.2,2.6.2,1.3.6,2.2,1.1,2.7-.2-.5-.3-1.1-.4-1.9,0-.8,0-1.3,0-1.6l.2.4c-.1-.5-.3-.9-.5-1.3s-.3-.6-.2-.9h0ZM135.4,148.8c-.2.5,0,.8.5.8.1-.6,0-.8-.5-.8ZM141.9,160.4c.1.2.3.4.6.8.3.4.4.7.4,1-.2.2-.4.2-.5.1-.2.2,0,.4.7.6s.8.4.4.6c-.4.3-.4.5,0,.7.4.2.7.3.9.3,0,.1-.1.2-.4.2,0,.4.3.6.6.4.4-.2.6-.2.7,0,.3.4.5.9.6,1.3s.3.9.5,1.2c.5.6.7,1,.5,1.1s-.1.3,0,.7c.2.5.4.3.7-.5.3-.8.4-1.3.3-1.6-.2-.6-.4-1.2-.9-1.8-.4-.6-.9-1.1-1.3-1.6-1.1-1.5-2.2-3-3.2-4.5-1-1.5-1.9-3-2.7-4.6-.3-.4-.8-1.4-1.7-3.1s-1.6-3.2-2.4-4.8c.4.9.6,1.9.8,2.9.2,1,.4,1.8.7,2.3,1.1,2.8,2.6,5.6,4.3,8.2h0ZM137.4,153.9c-.1,0-.1.1,0,.4s.3.5.4.6c0-.4,0-.7-.4-.9ZM138.2,156.1c0,.6.5,1.3,1.4,2.1.9.8,1.4,1.4,1.5,2,0-.6-.4-1.4-1.3-2.2-.9-.8-1.4-1.4-1.5-1.9h0ZM143.3,150.6c1.1,2.1,2.2,4.2,3.5,6.1,0,0,.3.4.7.9.4.6.6.9.7,1.2,0-.4-.1-1-.7-1.9-.6-.8-.9-1.4-1-1.8-.5-1-1.1-2-1.7-3.1-.6-1.1-1.2-2.2-1.7-3.4-.5-1-1.1-2.3-1.6-4-.6-1.7-1.3-2.9-2.1-3.5.1.2.3.7.5,1.6s.4,1.5.5,1.8l2.9,6.1h0ZM140.9,160.5c0,.2.1.5.4.8s.5.5.7.6c.3,0,.2-.1-.2-.6s-.7-.7-.9-.8h0ZM147.4,147.3c1.5,2.8,3.2,5.6,5,8.2,1.8,2.7,3.8,5.3,5.8,7.9.7.9,1.5,1.9,2.2,3,.8,1.1,1.6,2.1,2.5,3.1.4.4.7.7,1,1.1.3.4.6.8.8,1.3.2.2.2.6.2.9,0,.4,0,.7.1.8.8.4,1.4.8,1.9,1.2.5.4.9.7,1.2,1s.4.5.4.6c.3,0,.6.5,1.1,1.2.4.8.6,1.1.5,1.1.2.1.7.4,1.6.9.9.5,1.3.8,1.2,1,.2-.2,0-.8-.7-1.7-.6-.9-1.4-1.8-2.3-2.8s-1.7-1.9-2.6-2.8c-.8-.9-1.4-1.5-1.6-1.9-2-2.3-3.9-4.6-5.9-6.9-1.9-2.3-3.8-4.7-5.5-7.1-1.3-1.9-2.6-3.8-3.8-5.9s-2.4-4.2-3.5-6.3c-.5-.9-1-1.8-1.5-2.7s-1-1.8-1.3-2.6c-.2-.6-.6-1.3-.9-2.3-.4-1-.8-1.7-1.2-2,.3.8.5,1.4.7,1.9.2.5.4.9.5,1.4.2.4.3.7.3.8.6,1.3,1.2,2.5,1.9,3.8s1.3,2.5,1.9,3.8h0ZM144.8,164.2c0,0,0,.1,0,.2v-.2ZM160.5,183.5c.5.4.9.6,1.1.5-.1-.2-.4-.6-.9-1.3-.5-.7-1-1.4-1.6-2.1-.5-.7-1.1-1.3-1.6-1.8s-.8-.7-.9-.7c-.4.3-.5.7-.1,1.3.3.6.7,1.1,1.3,1.7s1.1,1.1,1.6,1.5c.6.5.9.8,1.1.9h0ZM159.1,174.2c0-.4-.1-.6-.7-.5.1.4.4.5.7.5ZM158.8,172.5c0,.4.3.6.9.5,0-.3-.4-.5-.9-.5ZM166.1,179.8c-.2-.1-.6-.5-1.3-1.3s-1.4-1.5-2.1-2.3c-.7-.8-1.4-1.5-2-2.1-.6-.6-1-.9-1.1-.8-.2.2,0,.7.8,1.6.8.9,1.7,1.8,2.8,2.8,1.1,1,2.1,2,3.1,2.9s1.6,1.4,1.9,1.6c-.2-.1-.5-.5-.9-1.1-.4-.6-.8-1-1.2-1.3h0ZM162,177.9c0,0,.1.1.3.2-.2-.2-.6-.6-1.1-1.1-.5-.6-.7-.8-.7-.7,0,.4.2.7.6,1,.4.3.7.6.9.7h0ZM163.5,171.8c0,.2,0,.3.1.4,0,0,.1-.1.2-.4-.4-.6-.5-.6-.3,0ZM169,178.2c.1.2.2.3.3.3.1,0,.1,0,.1-.2h-.4ZM169.6,182.7c-.2.1-.3.3-.3.6.1.2.2.2.4,0,.1-.1.2-.3.3-.5s0-.3,0-.4-.1,0-.3.3h0Z"/>
    <path class="st3" d="M235.9,144c.8.2,1.4.8,1.8,1.9.5,1,.7,2.2.6,3.6s-.4,2.8-1.1,4.2-1.7,2.8-3.1,3.9c-1.4,1.2-3.3,2-5.5,2.6-2.3.6-5,.5-8.2,0-6.1-1-11.8-3-17.3-5.9s-10.4-6.4-14.8-10.5l3.6,7.8c1,2.1,1.8,4.1,2.6,5.9.8,1.9,1.2,3.1,1.4,3.7.4,1.5.6,3,.6,4.5,0,1.5,0,3.1-.1,4.7,0,0,0,.4,0,.9s-.2,1.1-.4,1.7c-.1.6-.3,1.1-.4,1.5s-.3.5-.5.4c-.9-1.4-1.4-3.1-1.5-5.4-.2-2.2-.5-4.1-1-5.6-.4-1.5-.8-3-1.4-4.4-.6-1.5-1.1-2.9-1.7-4.3-.2-.4-.6-1.5-1.2-3.2-.6-1.7-1.2-3.5-1.9-5.3-.7-1.8-1.4-3.4-2.1-4.8s-1.2-2-1.6-1.8c0,0,.1.8.7,2.4.6,1.6,1.2,3.3,1.9,5.2s1.4,3.7,2,5.3c.6,1.6,1,2.6,1.1,2.8.7,2.1,1.5,4.1,2.4,6,.9,2,1.5,4,2.1,6,0,.2.1.8.3,1.6s.4,1.7.6,2.7c.2,1,.4,1.8.5,2.6s.2,1.1.1,1.2c0,0-.3-1.1-1.1-3.3-.8-2.1-1.8-4.5-2.8-7.2-1-2.6-1.9-5.1-2.8-7.3-.9-2.2-1.4-3.5-1.5-3.7-.5-1.3-1-2.6-1.6-4-.5-1.4-1.1-2.7-1.7-4-.2-.7-.6-1.7-1.1-3s-1.2-2.1-1.8-2.4c.3.2.7.8,1.1,1.7s.9,2,1.2,3c.4,1.1.7,2.1,1,3.1.3,1,.5,1.7.7,2.1,0,.2.2.5.2,1,0,.5.1,1,.2,1.4s.2.8.3,1.1.2.4.4.3c.3-.1.6.3,1,1.3.4,1,.8,2.1,1.2,3.3.4,1.2.8,2.4,1.1,3.6.4,1.1.6,1.8.6,1.9,0,.2.2.2.4,0s.3,0,.4.8l.9,3c.1.8.4,1.6.7,2.2.3.7.5,1.4.6,2.1.2,1,.2,1.7,0,2s-.5.6-.9.7c-.4,0-.7,0-1.1-.3s-.6-.6-.6-.9c0,.6.3,1.3.7,2.1.4.8.4,1.4,0,1.8-.2.3-.4.4-.6.2-.2-.2-.5-.4-.8-.7s-.5-.8-.8-1.4c-.5-.2-.8,0-.7.6,0,.6,0,1,0,1-.3.6-1,.5-2.1-.3-1.1-.8-2.3-1.8-3.6-3-1.3-1.2-2.4-2.4-3.5-3.5-1.1-1.1-1.7-1.9-1.8-2.1-1.3-1.8-2.4-3.7-3.5-5.5s-2.1-3.7-3.1-5.5c-2.7-5-5.3-9.9-7.7-14.9-2.4-5-4.6-10-6.7-15.2-.8-2-1.8-4.3-2.8-6.8-1-2.5-2-5.1-3-7.6s-2-5.1-2.9-7.6c-.9-2.5-1.8-4.8-2.6-7-.2-.7-.6-2-1.1-3.9s-.9-3.9-1.3-5.9-.6-3.8-.6-5.3.3-2.2,1-2.1c.3,0,.4.4.5.8.1.4.2,1,.3,1.6.1.6.2,1.2.2,1.8,0,.6.2.9.3,1.1,0,.2.3,0,.7-.2.4-.3.6-.6.6-.7,0-.1,0-.5-.1-1.1s-.2-.9-.2-1c0,0-.1-.3-.3-.8-.1-.4-.2-.8-.2-1.2s0-.7.2-.9c.1-.2.4-.2.7,0,0,0,.1.1.5.7.4.6.6.8.8.7.2,0,.3-.3.2-.5,0-.3,0-.5,0-.8,0-.3,0-.4.2-.5s.5.1,1,.5c.1,0,.3.2.6.6.3.3.5.5.7.5,1,.2,1.7.5,2.2.9.5.4,1.1,1.1,1.9,1.9.7.9,1.4,1.8,2,2.8.6,1,1.2,1.9,1.9,2.8,0,.2.3.5.6.9.3.4.6.9,1,1.4.3.5.8,1.2,1.3,2,.1-.4,0-1-.4-1.8-.4-.8-.9-1.7-1.5-2.6-.6-.9-1.2-1.7-1.8-2.6-.6-.8-1-1.4-1.3-1.7-.2-.2-.6-.7-1.3-1.3s-1.2-1.3-1.7-2c-.5-.7-.8-1.2-.9-1.7,0-.4.3-.5,1.2-.2,1.5.5,3,1.3,4.5,2.4,1.4,1.1,2.8,2.4,4,3.8,1.2,1.4,2.3,2.9,3.3,4.5s1.9,3,2.8,4.4c1,1.7,2,3.7,2.9,5.8.9,2.1,1.9,4.4,2.8,6.7.9,2.3,1.9,4.5,2.8,6.7s1.9,4,2.7,5.7c.4.7.7,1,.9.8s.4-.5.8-1.1c.8-1.3,1.6-2.6,2.4-3.9.8-1.3,1.5-2.7,2.3-4,1.2-2.1,2.3-4.2,3.3-6.4.9-2.2,1.9-4.4,2.9-6.6.8-1.6,1.5-3.2,2.2-4.8.7-1.6,1.6-3.1,2.9-4.4.4-.4.8-.8,1.4-1.1.5-.4,1-.6,1.5-.8.4-.1.7-.1.9,0,.1.2,0,.7-.7,1.6-.7,1.2-1.3,2.7-1.8,4.4-.5,1.8-1.1,3.4-1.7,4.7-.7,1.8-1.4,3.7-2.2,5.4-.8,1.8-1.6,3.5-2.6,5.3-.2.5-.7,1.6-1.5,3.2s-1.7,3.3-2.6,5.1c-.9,1.7-1.7,3.3-2.5,4.6-.8,1.3-1.3,2-1.4,2,.5,0,1.1-.2,1.7-1.1s1.3-1.7,2-2.8,1.2-2.1,1.8-3.1c.5-1,.9-1.7,1.1-2.2,1.3-2.1,2.4-4.5,3.2-7s1.7-4.9,2.6-7.2c.7-1.8,1.4-3.5,2.3-4.9s1.7-3,2.6-4.6c0-.1.2-.4.5-.9.3-.5.5-1,.8-1.4s.6-.8,1-.9c.4-.2.7,0,.9.6,0,.2.1.6,0,1.1,0,.6-.2,1.2-.3,1.9-.1.7-.2,1.2-.4,1.7-.1.5-.1.7,0,.7.4.2.7-.2.9-.9s.4-1.5.7-2.1.7-1.1,1.2-1.2c.5-.1,1.3.4,2.4,1.7,1,1.2,1.4,2.7,1.1,4.6s-.6,3.4-1.1,4.8c-.7,2.4-1.6,4.7-2.4,7s-1.8,4.5-2.7,6.8l-2.9,6.6c-.2.3-.5,1-.9,2.1-.4,1.1-.8,1.9-1,2.2.4-.2.7-.5,1.1-1,.4-.5.7-1.1.9-1.7s.5-1.2.8-1.8c.3-.6.5-1.1.7-1.4,1.2-2.5,2.4-5.2,3.6-7.9.7-1.8,1.5-3.7,2.5-5.8.9-2.1,1.5-4.1,1.7-5.8,0,0-.2-.3-.6-.6.1-.2.3-.4.5-.7.1-.2.2-.3.4-.5,0-.2.2-.2.3-.3,0,0,.1.3,0,1,0,.7-.2,1.4-.3,2.3-.2.8-.3,1.7-.5,2.4-.2.8-.3,1.3-.3,1.4-.5,1.7-1.1,3.3-1.7,4.9-.6,1.6-1.3,3.2-1.9,4.8-1.1,2.4-2,4.5-2.7,6.4-.7,1.9-1.7,4.1-3,6.4,2.4,1.5,5.2,3,8.3,4.6s6.2,3.1,9.5,4.6c3.2,1.4,6.5,2.8,9.8,3.9,3.3,1.2,6.3,2.1,9.1,2.7h0ZM144.6,87.3c-.4-.1-.5,0-.3.5,0,.2.2.3.4.5.2,0,.3-.1.3-.4s-.1-.4-.4-.6ZM145.2,89.7c-.2.7-.2.9,0,.8.3-.1.5-.3.7-.7-.2,0-.4,0-.4-.2,0,0-.1,0-.3,0ZM146.3,92c0-.6,0-.8-.4-.6,0,0,0,0,.2.4s.2.4.3.2h0ZM146,89.3c0,0,0,.2,0,.2,0,0,0,.2,0,.2.1-.2.2-.3.2-.4s0-.1-.3,0h0ZM146.7,82.9c-.1.4,0,.6.4.5.1-.3,0-.4-.4-.5ZM148.1,96.2c-.4.4-.3.5.2.4.2-.4.2-.6-.2-.4ZM149.7,83.3c.4-.2.4-.3,0-.3-.3,0-.5.1-.5.3s.1.2.5,0h0ZM154.9,101.6c.6,0,1,0,1.2-.2-.2-.1-.5-.2-1.1-.2-.6,0-.6.1-.1.5h0ZM158.4,120.7c-.3.5-.2.8.4.8.2-.4.1-.7-.4-.8ZM160.1,123.8c0-.6-.1-.9-.6-1,0,0,.2.2.4.7.2.5.3.6.2.3h0ZM160.3,124.7c0,0-.1.2,0,.4s.1.4.3.6c.1.2.3.3.5.4.2,0,.4,0,.6-.3,0,0-.3,0-.7-.4s-.6-.5-.6-.6ZM161.9,97.6c-.3-.2-.5-.2-.5,0,0,.2,0,.5.3.8.2.3.4.6.6.8.2.3.4.3.4.2.1-.2,0-.5-.1-1s-.5-.8-.7-.9h0ZM161.7,128.8c0,.3.2.4.5.4.1-.3,0-.4-.5-.4ZM162.6,130.7c-.3,0-.3,0-.2.3.1.3.2.4.4.5.2,0,.2-.2,0-.7-.2-.5-.3-.5-.2,0h0ZM162.8,116.9c-.1,0-.1,0,0,.3.1.3.2.4.3.3.1-.3,0-.5-.3-.7h0ZM163.1,99.9c-.4.5-.4.8.1.9.2,0,.2-.3.2-.7,0-.4-.1-.4-.3-.3h0ZM163.7,132c.3,0,.4,0,.5-.4-.4-.2-.6,0-.5.4ZM164.2,132.4c-.3.3-.2.6.2.7.2-.2.2-.5-.2-.7ZM164.1,135.3c0,.5.4,1,1,1.4s1.1.4,1.5,0c.4-.3.5-.6.4-1s-.3-.4-.5-.3v.7c-.3,0-.5,0-.8-.2-.3-.2-.5-.4-.8-.6s-.5-.4-.6-.4-.2,0-.2.3h0ZM164.5,103.6c.2.1.3.2.4.2,0,0,0-.2,0-.3-.4-.2-.6-.2-.4.2h0ZM165.9,132.5c-.2-.4-.3-.4-.4.2,0,.6-.1.9-.2.9,0,.2-.1.2-.4,0-.3-.2-.4,0-.4.3,0,.2.2.5.5.9.3.4.6.5.8.5v-1.3c0-.3.1-.7.2-1s0-.5,0-.6h0ZM166.2,105.6c0-.4-.3-.5-.8-.3,0,.5.3.6.8.3ZM176.2,127.7c.2-.2,0-1.2-.9-2.9s-1.8-3.5-2.8-5.4-2.1-3.7-3-5.2-1.4-2.3-1.5-2.2c-.2,0,.2.9,1,2.6.9,1.6,1.8,3.4,2.9,5.3s2.1,3.7,3,5.3,1.4,2.5,1.3,2.5h0ZM168.2,139.9c-.1,0-.1.1,0,.5.2.4.2.4.2,0l-.2-.5h0ZM168.3,128.9c-.1.4,0,.6.4.6.1-.4,0-.6-.4-.6ZM170.2,134.6c.1-.3.4,0,.8.6.4.6.6.9.7.8,0-.2-.1-.7-.3-1.4-.2-.7-.5-1.5-.8-2.3s-.6-1.8-1-3.1c-.4.2-.6.6-.6,1.1,0,.5.2,1.1.4,1.7s.5,1.2.7,1.7c.2.5.3.8.1,1h0ZM171,148.8c-.2,0,0,.4.3.9.4.6.6.8.8.7,0,0,0-.3-.3-.9-.3-.6-.6-.8-.8-.7h0ZM172.3,135.6c0-.4-.2-.7-.6-.9,0,.5.2.8.6.9ZM173.8,154.1c0,0,0-.5-.5-1.3s-.7-1.2-.7-1.1c-.1.3,0,.8.4,1.4s.7,1,.8.9h0ZM173.6,140.2c-.1,0-.1,0,0,.3.1.3.2.4.3.3,0-.1,0-.4-.3-.7h0ZM175.1,142.4c-.2-.5-.6-.7-1.1-.5-.1.2,0,.5.3.8.3.4.6.5.8.5,0-.4,0-.7,0-.8h0ZM175,143.7c-.4.2-.2.4.4.7.6.3,1,.4,1.1.4,0-.2-.3-.4-.7-.8s-.6-.4-.8-.4ZM176.2,159.1c.2.4.3.6.3.3,0-.5-.3-1-.7-1.5,0,0,0,.2,0,.2,0,0,0,.1,0,.2l.3.7h0ZM177.2,160.4c.1-.4,0-.6-.4-.6-.1.5,0,.7.4.6ZM178.8,151.1c-.2,0-.2.4,0,.9.1.5.3.8.6.9.4.1.6,0,.5-.4,0-.4-.2-.8-.5-1.3s-.5-.9-.8-1.1c-.2-.3-.3-.2-.2.2,0,0,.2.2.4.4.3.2.3.4.1.4h0ZM180.1,154.6c0,.2.2.4.5.4.1-.3,0-.6-.2-.9-.3-.3-.4-.5-.5-.4,0,.2.1.3.1.4s0,.3.1.4h0ZM183.9,173.9c0-.3,0-.6-.2-.7l-.4-.9c-.3-.5-.3-.8.2-.9.5-.1.7-.4.5-.7,0,0-.3-.2-.9-.5s-.9-.4-.9-.6c-.2-.1-.4-.6-.7-1.3-.3-.7-.6-1.2-.8-1.3l1.6,3.4,1.7,3.6h0ZM183.8,161.5c0,0,0-.2-.2-.8-.2-.6-.4-1.3-.8-2s-.7-1.4-1-2-.6-.9-.8-.8c.4,1.1.8,2,1.1,2.7.3.7.6,1.3.9,1.9.3.6.6.9.7,1.1h0ZM181.8,128.2c0-.4,0-.5-.3-.2-.2.3-.3.6-.3.8.3.2.5,0,.6-.6h0ZM183.3,168.9c-.3-.1-.4-.2-.5-.3,0,.6.1,1,.6,1.4.3-.4.2-.7-.2-1.1ZM184.7,162.5c-.5-.3-.7-.2-.7.3.4.1.6,0,.7-.3ZM185,163.4c-.5.2-.6.7-.3,1.4s.7.9.9.8c.2,0,.2-.5,0-1.3-.1-.8-.4-1.1-.7-.9ZM185.3,155.6c-.2-.1-.2,0,0,.2.1.3.2.4.2.5.2,0,.2-.2,0-.7-.2-.5-.3-.5-.2,0h0ZM186.7,167.5c.2,0,0-.4-.3-.9-.4-.5-.6-.8-.8-.7s0,.4.3.9c.4.6.6.8.8.7ZM186.9,175.8c0-.4-.2-.3-.7,0s-.6.7-.4.8c.2.1.4,0,.7-.1.3-.2.4-.5.4-.7h0ZM188.9,171.1c0,0,0-.2-.2-.6-.2-.3-.5-.7-.8-1.1-.3-.4-.7-.9-1.1-1.6-.2,0-.2.4,0,.8.2.5.4,1,.6,1.4.2.5.5.9.8,1.3s.5.5.7.4c0-.2,0-.4,0-.7h0ZM192.4,104.4c-.1.2-.4.7-.8,1.5s-.5,1.3-.4,1.5l1.6-3.9-.4.8ZM194,128c-.2,0-.2.2,0,.5s.3.4.3,0l-.2-.5h0ZM193.9,101.4c.4-1,1-2,1.6-3.2s1-2.3,1.1-3.3c-.1.6-.5,1.4-1,2.4s-.9,1.7-1,2.2l-.7,2h0ZM200.7,101.7c-.1,0-.4.4-.8,1.4-.4,1-.9,2.1-1.4,3.3-.5,1.2-1,2.4-1.5,3.6-.5,1.2-.8,1.9-1,2.3,0,.1-.2.5-.4,1.2-.2.7-.2.9,0,.8.2,0,.6-.8,1.2-2.1.6-1.3,1.2-2.8,1.9-4.3s1.2-3,1.7-4.2c.5-1.2.6-1.9.5-1.9h0ZM196.8,127.5c.1.3.3.2.6-.1.1-.2.3-.4.4-.7-.2,0-.4.2-.7.2-.3,0-.4.3-.2.5h0ZM196.9,98.5c-.2,0-.3.1-.1.4.1.3.3.4.5.4.2-.4.1-.7-.4-.8h0ZM197.8,119.8c0,.3.2.4.5.4.1-.3,0-.4-.5-.4ZM198.5,119.5c1.7-3,3-5.4,3.9-7.4.9-2,1.8-3.9,2.5-5.9.8-1.9,1-3.3.9-4.1,0,.8-.4,2.1-1.3,3.9-.9,1.8-1.9,3.7-2.9,5.7s-1.9,3.7-2.6,5.2c-.7,1.5-.9,2.4-.6,2.6h0ZM201,100.5c-.2.3-.2.6-.1.7.3-.1.4-.4.5-.9,0-.5.1-.7.2-.8-.3.3-.5.7-.6.9h0ZM209.7,96.2c0-.1.1-.1.2,0,0,.1.1.3.1.5s0,.4,0,.6,0,.3,0,.2c-.2,0-.3-.2-.4-.6,0-.4,0-.6,0-.8h0Z"/>
    <path class="st3" d="M300,131c0,1.6-.5,2.9-1.4,3.9s-2,1.8-3.4,2.4-2.9.9-4.7,1c-1.8,0-3.4,0-5-.4-.9-.1-2-.6-3.2-1.3-1.3-.7-2.2-.8-2.9-.3-1.7,2.1-3.9,4.1-6.3,6-2.5,1.9-5.3,3.1-8.4,3.8-6.1,1.4-11.5,1.4-16,.1-4.6-1.3-8.5-3.5-11.7-6.6-3.2-3-5.9-6.7-7.9-10.9-2-4.2-3.5-8.5-4.3-12.8-.5-2.2-1-4.5-1.5-6.7-.5-2.2-.7-4.6-.6-7,0-3.3.2-6.7.6-10.1.4-3.4,1.5-6.6,3.4-9.6.2-.3.6-.7,1.1-1.2.5-.5,1-1,1.5-1.3.5-.4.9-.5,1.2-.5.3,0,.2.5-.3,1.3-.1.2-.3.8-.5,1.6s-.4,1.7-.7,2.6c-.2.9-.5,1.7-.7,2.4-.2.7-.5,1.1-.7,1.1-.1,0-.2,0-.3-.4,0,0,0-.2,0-.5-.1.2-.2.5-.3.7,0,.2-.1.5-.2.7l.7-.2c0,.3,0,.6,0,.8.1.4.2.5.3.4,0,0,.2-.3.4-.9.1-.6.3-1.2.5-1.8.2-.6.3-1.2.5-1.6.2-.5.4-.6.6-.5-.1,0-.1-.3,0-.6s.3-.8.5-1.2c.2-.5.4-.9.5-1.3.2-.4.3-.6.4-.6,0,0,0-.3.2-.7.2-.4.4-.7.7-1.1s.5-.6.8-.6.5,0,.6.4c.2.7.2,1.2,0,1.7.4-.5.9-1,1.8-1.4.8-.4,1.3-.2,1.6.5,0,0,0,.4-.3.8s0,.6.6.3l.2-.8c.4,0,.8.5,1.1,1.4.3.8.5,1.8.8,2.9.2,1.1.4,2.1.6,3.1.1,1,.3,1.7.4,2.1.2-.3.4-.5.5-.8s.2-.4.3-.5c0,0,.1-.2.2-.3,0,.9.2,1.8.4,2.7.2.9.3,1.7.5,2.5.2,1.1.6,2.4,1.1,3.9s.7,2.9.4,4c-.1.3,0,1,.6,2.1.5,1.1.7,1.9.8,2.7,0,.2,0,.4-.2.8-.2.3-.4.7-.5,1s-.1.6,0,.8.3.3.8.2c0,0,0-.2,0-.4-.1-.3,0-.4.3-.4.4,0,.9.6,1.3,1.6s.8,2.2,1.2,3.4.8,2.5,1.2,3.7c.4,1.2.6,2,.8,2.5l1.5,3.4.4.8c-.2-.1-.4-.2-.5-.2-.1,0-.1.1,0,.4.1.4.3.5.6.4s.4-.1.5,0c0,.2,0,.3-.3.4-.2,0-.5.1-.8.2s-.6,0-.8,0c-.2,0-.2,0-.1.1-.1,0,.1.1.8.5s.8.7.4.8c.2.3.4.5.7.7.4.4.7.5.7.2,0,0,0-.4-.2-.8,0-.4-.1-.6,0-.5-.3,0-.6-.1-.8-.4,0-.5.2-.5.8,0,.3.3.6.7.8,1,.3.5.6,1.1,1,1.6.4.5.7,1,1.1,1.5.9,1.1,1.8,2,2.8,2.8,1,.8,2.4,1.2,4,1.2.8,0,1.9,0,3.5-.4,1.5-.4,3-.9,4.4-1.5s2.5-1.4,3.4-2.3c.9-.9,1.1-1.9.6-3-1.4-3.4-2.8-6.9-4.3-10.6s-2.9-7.3-4.2-11c-1.3-3.7-2.4-7.4-3.3-11.2s-1.3-7.6-1.2-11.5c0-1,0-2.2.3-3.6s.6-2.7,1.1-3.9c.5-1.3,1.3-2.3,2.2-3.3s2.1-1.4,3.5-1.6c.4-.1.6.2.8.9s.2,1.6.2,2.5,0,1.9,0,2.8c0,.9,0,1.6,0,1.9.2,3.7.7,7.4,1.6,11.1.6,3.6,1.5,7.3,2.6,11.2,1.1,3.9,2.4,7.6,3.8,11.1.1.4.4,1.4.8,2.9s1,3.2,1.7,4.7c-.5-.7-1.1-1.4-1.6-2.2s-.8-1.4-.7-1.8c-.1.6,0,1.3.7,2.2.6.9,1.2,1.8,1.8,2.7,0,0,.1.2.2.2v.3c.1.2.2.3.3.2l.3,1c0,0,0-.2,0-.2s0,0,0-.2c.6,1.2,1.1,1.8,1.5,1.7-.8-2.2-1.4-3.9-1.9-5.2-.5-1.3-.9-2.6-1.2-3.8-.4-1.2-.6-1.9-.7-2.2-1-2.6-2-5.1-2.8-7.6s-1.6-5.1-2.4-7.8c-.8-3-1.7-6.2-2.5-9.8-.9-3.6-1.2-7-1-10.3v-1.5c0-.7,0-1.4.1-2.1s.2-1.4.4-2.1c.2-.6.4-1,.6-1.2.3-.3.6-.4.8-.3.2,0,.4.3.6.6.2.3.4.6.5,1,.1.4.2.6.2.7,0-.5,0-1.2,0-2,0-.8.5-.8,1.5,0,.5.3.9.4,1.3.3.4,0,.8.2,1.4.7.2.1.7.7,1.2,1.7.6,1,1.2,2.1,1.9,3.2l2.6,4.5c.3,0,.4-.3.2-.5-.1-.3-.3-.6-.4-.9s-.3-.6-.4-.9c-.1-.3,0-.4.2-.5.4-.1,1,.7,1.8,2.4.8,1.7,1.6,3.7,2.4,5.8.8,2.2,1.5,4.2,2.1,6.1s.9,3.1,1,3.5c0,.5,0,.7-.1.6-.1-.1-.3-.3-.5-.6s-.4-.7-.7-1.3c-.2-.8-.5-1.5-.7-2.3-.2-.8-.6-1.6-1.1-2.4,0,0-.2-.5-.5-1.3-.3-.7-.5-1.5-.8-2.3s-.5-1.6-.7-2.3-.3-1.2-.3-1.4c-.1,0-.2,0-.3.2-.1,0-.2.2-.3.2.1,1.1.5,2.6,1.1,4.6s1.2,3.9,1.8,5.9,1.2,3.8,1.7,5.4.8,2.6.8,2.9c0,.8.3,2,1,3.6.7,1.5,1.2,2.7,1.5,3.6,0,.2.3.8.7,1.8s.9,2.1,1.3,3.2c.5,1.2.9,2.2,1.2,3.2s.4,1.5.3,1.5c.3-.4.2-1.4-.2-2.9-.4-1.5-.9-3.1-1.5-4.8-.6-1.7-1-3.2-1.4-4.6-.3-1.4-.2-2.2.4-2.4,0,0,.4.6.8,2,.4,1.4.9,2.9,1.4,4.6.5,1.7,1,3.3,1.5,4.9s.8,2.5,1,2.7c1,1.9,1.7,4.1,2.1,6.6.4,2.5.6,4.8.7,6.9h0ZM227.1,106.2c0,.5,0,.7.2.3.2-.3.2-.5,0-.7,0-.2-.1,0-.2.4h0ZM231.1,121.9c.2-.3.2-.5,0-.6-.4.3-.4.5,0,.6ZM233.2,87.7c.1-.2.1-.5,0-.8-.2-.2-.3-.3-.5,0,0,.2,0,.4,0,.6.1.4.3.4.5.2h0ZM233.1,95.3c.1-.2.2-.5.1-.7,0-.3,0-.2-.3.3s-.1.6.2.3h0ZM233.1,84.8c.3,0,.5-.4.6-1,0-.6.2-.9.3-1.2-.4.4-.6.8-.8,1.1-.1.3-.2.6-.3.8,0,.2,0,.3.2.3h0ZM233.3,91.9c.4-.2.4-.4,0-.5-.5.5-.5.6,0,.5ZM234.2,103.2c.3-.3.2-.6-.3-.8-.4.4-.3.7.3.8ZM234.9,111.1c.2-.2.3-.4.4-.8.1-.4,0-.6-.1-.7-.5-.2-.6,0-.4.4s.3.6.4.5c0,.1-.2.3-.5.5-.2.2-.2.2.2,0h0ZM237.5,118.4c.2.1.4.2.5.2.2,0,.3,0,.1,0-.1,0-.3-.2-.5-.2-.2,0-.3-.2-.4-.2-.1,0,0,0,.2.3h0ZM238.6,103.8c.1-.2.3-.5.6-.9s.3-.6.2-.8c-.4.2-.5.5-.5.9l-.2.7ZM239.3,104.6c.1.5.4.5.6,0-.1-.5-.4-.5-.6,0ZM240.9,93.6c-.3.5-.4,1-.5,1.4,0,.2.2,0,.5-.5.2-.5.4-1.2.5-1.8.1-.7.1-1.3,0-1.8,0-.6-.4-.7-1-.6-.4.1-.5.3-.5.5s.2.4.3.6.4.4.6.5c.2.2.3.2.3,0-.1.3-.2.6-.2.8,0,.1,0,.3,0,.5,0,0,0,.2,0,.3h0ZM240.5,86.4c.5-.2.6,0,.3.4-.3.4-.4.7-.2.8l-.2-.6c-.1-.4,0-.6.1-.7h0ZM243.2,100.7c-.4-.4-.7-.6-.9-.5-.1,0-.2.1-.1.3,0,.1.1.3.3.4.1.2.3.2.5.2l.2-.4h0ZM242.3,99.4c.2.2.3.2.4-.1-.4-.3-.5-.2-.4.1ZM242.4,102.6c0,.4,0,.8.4.9.2,0,.2-.2,0-.7-.2-.5-.3-.6-.5-.2h0ZM243.1,106.7c0,.1,0,.2.2.2.2,0,.4,0,.7,0,.2,0,.4,0,.6-.2.1,0,.1-.2,0-.2-.4-.4-.8-.4-1.1,0s-.4.5-.4.3h0ZM243.4,104.3c.1.2.1.4,0,.7s-.1.5.2.6c.4,0,.6-.2.6-1,0-.7-.3-1-.9-.8-.2,0-.1.2.1.4ZM244.6,110.1c0,.4,0,.6.5.5.3-.4.1-.6-.5-.5ZM245.1,112.3c0,.2.2,0,.5-.5.2-.2.3-.3.4-.6-.2-.1-.5,0-.9.3s-.3.6,0,.8h0ZM246.6,114c-.2,0-.4.2-.5.6s0,.4.4-.1v-.5ZM246.4,115.8c0,.3.4.5.8.5.4,0,.7,0,.9-.1,0-.3-.4-.5-1-.6s-.8,0-.7.2h0ZM247.8,118c.3-.4.2-.5-.1-.4-.4.4-.3.6.1.4ZM249.1,122.1c.4.4.6.3.4-.1-.3-.3-.4-.3-.4.1ZM274.5,107.6c0,.3.3.8.6,1.4.3.6.6,1.3.9,2s.6,1.3.9,2c.2.7.4,1.1.3,1.3.1-.2,0-.7-.1-1.4-.2-.7-.5-1.4-.8-2.2-.3-.8-.6-1.5-.9-2.2-.3-.7-.5-1.2-.6-1.4-.5-1.5-.9-3-1.3-4.5-.4-1.5-.9-3-1.3-4.5-.3-1.7-.7-3.5-1.2-5.5-.5-2-.9-3.8-1.2-5.5,0-.2-.2-.6-.4-1.2s-.4-1.3-.5-1.9-.3-1.3-.5-2-.2-1.1-.2-1.4c-.3.8-.2,2.1.3,3.8.5,1.7.7,2.9.8,3.7.2,1.5.6,3.2,1.2,5,.5,1.9.9,3.6,1.2,5.2.4,1.6.8,3.1,1.3,4.7.5,1.6,1,3.2,1.5,4.8h0ZM268.5,78.6c-.1,0-.1.1,0,.3v.3c.2-.2.2-.4,0-.6ZM287,119.6c.6,1.3,1.1,2.5,1.5,3.6.4,1.1.8,2.2,1.3,3.3,0,.2.3.6.6,1.3.4.7.8,1.4,1.2,2.2s.8,1.5,1.1,2.1.5,1,.4,1.1c.1-.2,0-.8-.3-1.7-.3-.9-.7-1.9-1.2-3-.5-1.1-1-2.1-1.4-3.1-.5-.9-.7-1.6-.9-2l-4.5-12c-.6-1.6-1.2-3.2-1.7-4.8s-1.1-3.2-1.6-4.8l-2.4-7.7c0-.2-.2-.6-.3-1.2-.1-.6-.3-1.3-.5-2s-.4-1.3-.6-1.9-.4-.9-.6-1.1c-.1,0-.1.2,0,.7.1.5.3,1.2.5,1.9.2.9.4,1.8.8,2.9.4,1.6.8,3.2,1.3,4.8.4,1.6.9,3.2,1.4,4.8l6,16.4h0ZM278.7,99.4c.5.5.6.5.5,0-.1-.2-.3-.2-.4-.3s-.1,0,0,.3h0ZM279.8,119.2c.6,1.1,1,1.8,1,2.3-.1,0-.2-.1-.2-.2v-.4c-.2,0-.3,0-.4-.2v-.3c-.2,0-.3-.1-.3-.2,0-.2,0-.3,0-.4s0-.3,0-.4h0ZM280.5,104c.2-.4.2-.7,0-.9-.2,0-.3.3-.3.7,0,.4,0,.5.3.2h0ZM281.2,105.8c.1-.7,0-1-.3-1,0,0,0,0,.1.6.1.5.2.6.2.4h0ZM281,122.9c-.1-.2-.1,0,0,.5.2.5.2.6.2.3l-.3-.8h0ZM282.2,76.6c-.2.3-.5.1-.7-.4-.2-.6-.4-.9-.6-1.1.2.1.5.3.8.5.6.4.7.8.5.9h0ZM282,107.9c-.2-.1-.3,0-.2.4.1.4.2.4.3,0v-.4c-.1,0-.1,0-.1,0ZM282.5,87c0,0,0,0,0,0,0,0-.1-.2-.2-.3v-.3c-.2.2-.3.6-.1,1.2.1.6.3,1.3.5,2s.5,1.4.8,2c.3.6.5,1,.5,1.1l3.2,10.4,4.3,12.7c0,.3.3,1,.5,2,.3,1.1.6,2.2.9,3.4s.7,2.3,1,3.3c.4,1,.7,1.6,1.1,1.8-.1,0-.2-.4-.5-1.3s-.5-1.9-.7-3-.5-2.1-.7-3.1-.4-1.5-.4-1.7c-.6-1.9-1.2-3.7-1.8-5.4-.6-1.7-1.2-3.5-1.8-5.4-.9-3.1-1.9-6.4-3.1-9.9s-2.4-6.8-3.7-9.7h0ZM282.9,110.3c-.2,0-.3.1-.2.4.1.3.2.4.4.1l-.2-.6h0ZM283.9,101.1c-.2.2-.4.5-.6,1,.4-.1.8-.3,1.2-.6s.4-.6,0-1c-.4.1-.6.3-.6.7h0ZM283.7,80.5c-.3,0-.3.6-.2,1.5v-.7c0,0,0-.2.1-.2,0,0,0-.1,0-.2,0,0,0-.2,0-.3h0ZM284.1,96.3c-.1,0-.1,0,0,.3,0,.2,0,.4,0,.6.3-.3.3-.6,0-.9h0ZM285,98.7c-.1,0-.1.1,0,.3,0,0,0,.2,0,.3.2-.3.3-.5.1-.7h0ZM285.3,100.2c-.1,0-.2,0-.1.2s.1.3.1.4c.2-.2.1-.4,0-.6h0ZM287.4,105.3c0,0-.1-.5-.3-1.2s-.5-1-.8-.9c-.2,0-.2.3,0,.8.1.5.3,1,.6,1.6s.6,1.3,1.1,2.2c0,0,0-.5-.2-1.3-.2-.9-.3-1.2-.3-1.2h0ZM289.3,96.4c.5-.2.8,0,.9.3-.5.2-.7.1-.9-.3ZM291.3,102.8c-.1-.4,0-.7.2-.8.3,0,.4,0,.5.5s0,.7-.2.8c-.3,0-.4,0-.5-.5Z"/>
    <path class="st3" d="M335.5,91.6c-.8-1.1-1.2-2.6-1.2-4.5,0-1.9-.1-3.7-.3-5.2-.2-1.6-.7-2.7-1.4-3.4-.8-.7-2.2-.3-4.4,1.2-1.1.7-1.8,1.8-2.2,3.3-.4,1.5-.6,3.1-.6,4.7s0,3.3.3,5,.4,3.1.5,4.3c.2,1.5.2,2.9.2,4.4s0,2.9,0,4.4c0,.2-.1.6-.2,1.1,0,.5-.1,1.1-.2,1.7,0,.6-.1,1.2-.1,1.7,0,.5,0,.8.2.9.2.4.2,1.1,0,2.2-.1,1.1-.3,2.2-.5,3.3-.2,1.2-.4,2.2-.5,3.2-.1,1-.1,1.6,0,1.7-.3-.3-.4-1.3-.5-2.7,0-1.4,0-3,0-4.7,0-1.7.1-3.2.2-4.7s.1-2.4,0-2.7c0-1.8,0-4-.2-6.5,0-2.5-.5-4.6-1.3-6.3.1.7.2,1.8.1,3.2s0,2.5,0,3c0,1.6.2,3.2.3,4.6.1,1.5.2,3.1.3,4.8l-.2,2.4c0,.6-.2,1.2-.2,1.8s-.2.9-.3,1c.4,0,.7-.3,1-.6.1,2,.2,3.8.2,5.6,0,1.4,0,2.7,0,3.9,0,1.2-.1,1.9-.2,2-.2.2-.3,0-.5-.7s-.4-1.2-.5-1.7c.2.7.2,1.6,0,2.9-.2,1.2-.3,2.1-.3,2.6,0-.2-.1-.5-.3-1s-.3-.9-.5-1.4c-.2-.5-.3-.9-.4-1.2-.1-.3-.2-.4-.3-.3,0-.1,0,.1,0,.8s-.1.9-.2.8c.2.5.2.6.2.5s0,0,0,.7h.4c.2.3.1.9-.2,1.8-.3.9-.6,1.4-.9,1.5-.2.1-.5-.4-.9-1.6-.4-1.2-.8-2.6-1.2-4.1-.4-1.5-.8-3-1.1-4.4-.3-1.4-.5-2.3-.5-2.6-.4-1.3-.8-2.7-1-4.2-.3-1.5-.6-2.9-.9-4.2,0,0-.1-.5-.3-1.2-.2-.7-.4-1.5-.5-2.2-.2-.8-.4-1.8-.6-3.2-.2.1-.2.4-.2.9s.1,1,.2,1.6.2,1.1.4,1.6c.1.5.2.8.2.9l1.4,8.1,1.3,5.5c0,.4.1.9.1,1.5s0,.8,0,.6c0,.4.3.9.6,1.4s.6,1,.8,1.4c.2.7.4,1.3.6,1.9.2.6.3,1.2.4,1.8.2.5.3,1.1.4,1.8,0,.7-.3,1-1.1.8-.3,0-.6-.2-.9-.6-.3-.4-.5-.7-.7-1.1-.2-.4-.4-.7-.5-1.1s-.2-.5-.3-.5c-.4,0-.5.6-.2,1.7.2,1.1.5,1.7.9,2-3.5-.7-6.4-2.2-8.6-4.5-2.2-2.3-3.9-5.1-5.2-8.2-1.3-3.2-2.3-6.5-3-10-.7-3.5-1.3-6.8-1.8-9.8-.9-4.5-1.8-9-2.6-13.5-.8-4.5-1.4-9-1.6-13.5-.3-2.9,0-5.8,1-8.7s3-4.8,6.1-5.5c0,.2-.2.5-.3.8-.1.3-.2.6-.2.8,0-.2.2-.3.5-.2.3,0,.3.5.2,1.3,0,.2-.1.5-.2,1s-.2,1-.3,1.5c-.2.6-.3,1.4-.4,2.2.9-.2,1.5-.8,2-1.8s.7-2,.9-2.8c.1-.5.2-1.1.4-1.7.1-.6.5-.9,1.1-.9.8,0,1.3.3,1.3.8s.3.8.8,1c.2,0,.4,0,.6-.4.2-.3.5-.4.8-.3l1.8.7,3.2,2c.8.5,1.4,1,1.9,1.5.5.6,1,1.1,1.6,1.6,1-1.4,1.9-2.7,2.7-3.8.8-1.2,1.7-2.2,2.6-3,.9-.9,2-1.6,3.2-2.2s2.6-1.1,4.3-1.4c3.4-.6,6.8-.3,10.2.8,3.4,1.2,6.2,3.1,8.4,5.7,2.3,2.7,3.5,6,3.6,10,0,3.9-.6,7.4-1.9,10.5-.4,1-1.2,2.3-2.2,3.9-1.1,1.7-2.3,3.1-3.7,4.4-1.4,1.3-2.8,2-4.3,2.2-1.5.2-2.9-.6-4.2-2.4h0ZM300.3,61.9c0,0,0,.3-.2.5,0,.2,0,.2.2.1,0-.1.2-.2.2-.4,0-.2.1-.3,0-.3,0,0-.1,0-.3.1h0ZM303.2,99.8c0,.2,0,.3.4.2.3,0,.4-.1.4-.2-.2-.2-.5-.2-.8,0ZM304.5,101.9c0-.1,0-.3-.4-.6s-.4-.2-.1.2l.5.4ZM304.8,104.1c-.2.3-.1.6.3.7.2-.5.1-.8-.3-.7ZM305.5,105.2c-.5-.1-.7,0-.5.3.2.3.4.5.5.6.2-.3.2-.7,0-.9h0ZM305.4,106.6c0,.7,0,1.2.1,1.6.2,1.1.4,1.6.7,1.5.2,0,.2-.6,0-1.7-.2-1.1-.5-1.6-.8-1.5h0ZM306.6,110.4c-.5.3-.6.7-.1,1.1s.8.6.8.5c0-.2,0-.4,0-.7,0-.2,0-.5-.1-.7.3.4.7.6,1.2.7s.7-.2.5-.8c-.2-.7-.6-.9-1-.7-.5.2-.9.4-1.2.7ZM308.1,116.5c.2.2.4,0,.4-.3s0-.8-.1-1.3c-.1-.5-.3-.9-.5-1.4-.2-.5-.5-.7-.7-.8.1,0,.2.2.2.6s.1.8.2,1.2.1.9.2,1.2.2.6.3.7h0ZM309.5,117.6c0-.5-.2-.8-.5-.8-.3-.1-.4.1-.3.8.1.7.3.9.6.7,0-.2,0-.3,0-.3,0,0,.1-.1.2-.3ZM309.9,112.7c-.8.3-.7.5.1.6.2-.2.1-.4-.1-.6ZM310.2,121c.4.5.7,1,.9,1.3s.4.6.6.7c.2.2.2.1.2-.2,0-.2-.3-.7-.8-1.5s-.9-1.3-1.1-1.3c0,.4,0,.8.2,1h0ZM312.4,126.3c.5-.3.5-.5-.1-.6-.5.3-.5.5.1.6ZM312.4,124.7c.2-.2,0-.4-.2-.6,0,.3,0,.5.2.6ZM313,98.1c0-.4-.2-.4-.3,0,0,.3.2.3.3,0ZM312.9,107.1c-.3.6-.1.9.5,1v-.7c-.2-.4-.3-.5-.5-.2h0ZM313.2,100.8c0,.3.1.3.1,0h-.1ZM314.9,115.8c-.2-.2-.4-.2-.5,0,0,.1,0,.3,0,.4,0,.2.2.4.4.5.5-.3.5-.6,0-.9h0ZM315.5,119.8c.2.4.4.4.8.2-.2-.3-.5-.3-.8-.2ZM321.1,105.2c0-.4,0-1.1,0-2,0-.9,0-1.8-.1-2.8,0-.9-.2-1.8-.4-2.6-.2-.8-.5-1.3-.8-1.5v1.5c0,.3,0,.7,0,1.1v.4c0,0,.9,10,.9,10,0,.6,0,1.3.2,2s.2,1.5.3,2.2c0,.7,0,1.4,0,2.1,0,.6-.3,1.1-.6,1.5.2,0,.3,0,.4.4.1.3.2.6.2,1,0,.4.1.8.2,1.2,0,.4.1.6.1.7,0-.2.2-.5.4-1s.4-.8.4-1c0-.1,0-.5-.3-1.2s-.3-1.2-.2-1.6c.2-1.6.2-3.3-.2-5.2s-.6-3.7-.8-5.2h0ZM321.3,122.8c.5-.3.5-.5-.1-.6-.5.3-.5.5.1.6ZM321.6,124.4c.5,0,.5-.3.2-.7s-.6-.5-.7-.4c0,.1,0,.3,0,.7.1.3.3.5.5.5ZM322.5,122c-.1,0-.3,0-.6.4-.3.3-.2.4.2.1,0,0,.4-.5.4-.5ZM322.5,91c-.1.4,0,.7.2.9,0-.2.1-.5.2-.8s0-.3-.4,0h0ZM337.2,87.9c-.2,0-.3.3-.2,1.1,0,.8.2,1.2.5,1.3.1.2.2,0,.3-.4,0-.5.1-1,.2-1.5s0-1.3,0-2.3c0,.2-.1.6-.2,1.2s-.3.8-.5.8h0ZM341.7,85c0,.3,0,.6-.2.8,0,.2.1,0,.2-.6s0-.6,0-.2ZM342,83.9c0,0,0,0,.2-.3.1-.3.2-.6.3-1,0-.4.1-.7.2-1,0-.3,0-.5,0-.4-.4,0-.6.4-.6,1.2s0,1.3,0,1.4h0ZM347.1,79.4c0-.1,0,.2-.3.9-.3.7-.3,1-.1,1,.4,0,.7-.6.9-1.4.2-.9.2-1.4,0-1.6-.2.3-.4.7-.4,1.1h0Z"/>
    <path class="st3" d="M399.2,117.1c-2.5,2.2-5.2,3.9-8.2,4.9s-6.1,1.5-9.2,1.4c-3.1-.1-6.2-.7-9.3-1.8s-5.8-2.7-8.2-4.7c-2.4-2.1-4.5-4.8-6.1-7.8-1.7-3.1-2.7-6.2-3.1-9.2-.3-1.6-.4-3.2-.3-4.8.1-1.7.2-3.3.3-5l.8-4.5c.2-.6.5-1,.9-1.2.4-.2.7-.6.9-1.1,0,0-.1-.2-.4-.4-.3-.2-.4-.4-.4-.6l.4-1.7c.6-1.8,1.1-3.4,1.7-4.7.8-1.5,1.6-3.1,2.5-4.6.9-1.5,1.8-3,2.9-4.5,2-2.9,4.2-5.6,6.6-8.1,2.4-2.5,5.2-4.6,8.4-6.4,3.1-1.7,6.4-3,10-4.1,3.6-1.1,7.2-.8,10.6.6,1.1.5,2.3,1.1,3.5,1.6s2.4,1.2,3.5,1.9c.4.3.8.3,1.3,0s.9-.6,1.3-1c.4-.4.8-.8,1.2-1,.4-.3.7-.3,1,0,.3.3.3.6,0,1-.3.4-.6.8-.9,1.3s-.6.9-.7,1.3c-.2.4,0,.7.7,1,.1,0,.3-.2.5-.6.2-.4.5-.9.7-1.5.3-.6.5-1.1.7-1.6.2-.5.4-.8.6-.9.4-.3.6-.2.7.4,0,.6.1,1.3,0,2.2,0,.8-.1,1.7-.3,2.6-.1.9-.2,1.6-.2,2l1.5-5.5c.2-.6.4-.9.7-.9s.6,0,1.1.2.8.5,1.2.8c.4.4.7.7,1,1,.6.5,1.1,1,1.3,1.7s.4,1.4.6,2.2c.9,5.2,1.4,10.5,1.5,15.9s.4,10.7.8,16.1c.2,3.1.4,6.2.6,9.2.2,3.1.5,6.2.8,9.3.2,1.4.4,2.9.6,4.7.2,1.7,0,3.3-.8,4.8-1.1,2.2-2.7,3.8-4.9,4.7-2.2.9-4.5,1.2-7,1s-4.8-.9-7.1-2-4-2.7-5.2-4.6c-.2.2-.4.4-.6.6-.2.2-.5.5-.6.8h0ZM363.8,82.5c.9-2.9,2.3-5.8,4-8.8,1.8-2.9,3.7-5.5,5.9-8,0,0,.6-.7,1.6-1.7,1-1,2-2.1,3.1-3.2,1.1-1.1,2.5-2.6,4.3-4.5-.2,0-.6,0-1.1.4s-1.1.7-1.8,1.2c-.7.4-1.3.9-1.9,1.3-.6.4-.9.7-1,.8-1.3,1.1-2.6,2.3-3.7,3.7-1.2,1.4-2.2,2.8-3.3,4.2-1.8,2.6-3.5,5.5-4.9,8.6-1.4,3.1-2.3,6.3-2.6,9.5l1.3-3.5h0ZM366.7,70.7c-.2.2-.5.8-.9,1.8-.4,1-.8,2-1.2,3.1s-1,2.4-1.9,4.1c.1,0,.4-.6,1-1.6.6-1.1,1.2-2.3,1.9-3.6.7-1.3,1.3-2.6,1.8-3.7.5-1.1.8-1.7.8-1.8-.1,0-.4.3-.9,1-.5.7-.7,1-.6.9h0ZM370.8,88.8c.3-.2.3-.3,0-.3-.6,0-.6.1,0,.3ZM371.5,86.2c.5-1.9,1.1-3.8,1.9-5.6.8-1.8,1.7-3.6,2.7-5.4.2-.3.5-.9.9-1.7.5-.8.9-1.7,1.4-2.6s1-1.8,1.4-2.5c.5-.8.8-1.3,1.1-1.5-.5.1-1.1.6-1.7,1.3-.6.7-1.2,1.6-1.8,2.5-.5.9-1.1,1.8-1.5,2.7-.5.9-.8,1.5-1,1.8-.4.8-.8,1.8-1.4,2.8-.6,1.1-1.1,2.2-1.5,3.4-.4,1.2-.8,2.4-1.1,3.5s-.3,2.1,0,3l.2-.9c0-.2.2-.4.3-.6s.1-.2.1-.2h0ZM378.9,67.4c-1.2,1.3-2.2,2.6-3,4.1.7-.6,1.2-1.3,1.7-2,.5-.7.9-1.4,1.4-2ZM377.5,96.4c.5-5.8,1.9-11.2,4.4-16.2,2.5-5,5.5-9.7,9.1-14.2-2.7,1.6-4.9,3.9-6.8,7s-3.2,6-4.1,8.8c-.2.3-.5,1.3-.9,2.9s-.8,3.4-1.2,5.2c-.4,1.9-.7,3.5-.9,5-.2,1.5-.2,2.2,0,2.2.2-.1.3-.3.3-.6h0ZM381.8,92.6c.2-.2.2-.5.2-.8,0-.3,0-.5,0-.6,0-.5.2-.8.5-.9s.4-.4.4-.8c.2-.3.2-.8,0-1.4s-.2-1.2-.1-1.7c.3-1.2.8-2.3,1.4-3.4.6-1,1.2-2,1.6-2.9,0-.2-.2-.2-.5-.1,0-.3.1-.8.4-1.4s.7-1.2,1.2-1.9.9-1.2,1.4-1.8c.5-.6.8-1,1-1.3l4.6-5c.6-.5,1.4-1.2,2.4-1.9s1.7-1.5,2-2.3c-.2.3-.7.7-1.6,1.1-.9.5-1.5.8-1.7,1-1.4,1-2.9,2.3-4.2,3.8-1.6,1.5-3,3.1-4,4.9-1.1,1.8-2.1,3.7-2.9,5.8-1,2.3-1.8,4.8-2.4,7.4-.6,2.6-1.1,5.1-1.3,7.6-.1,1.1-.2,2.2-.2,3.4s.1,2.3.3,3.5c0,.2,0,.7.2,1.5s.3,1.2.4,1.3c.1,0,.2,0,.2-.4,0-.3,0-.8,0-1.3s0-1,0-1.6-.1-1-.2-1.3c-.1-.4-.2-1-.1-1.9s.1-1.8.2-2.8.2-1.8.4-2.6c.1-.8.3-1.2.5-1.4h0ZM380.8,101.3c0,0,0-.2,0-.1,0,0,0,0,0-.1.1,0,.2.2.2.3h0ZM386.6,110.9c1,.5,2,.7,3,.5s2-.6,2.9-1.1c1-.6,1.9-1.2,2.7-2,.9-.8,1.6-1.5,2.3-2.2,1.6-1.8,2.5-3.4,2.7-4.9s.3-3.3.3-5.5c0-3-.1-6-.2-9,0-3,0-6,.3-8.9.1-1.4.2-2.7.4-4,.1-1.2.2-2.5.4-3.8,0-.2,0-.5.2-1s.2-1.1.4-1.7c.1-.6.2-1.2.2-1.7,0-.5,0-.8-.1-1-.4-.4-1.2,0-2.4.9s-2.4,2.1-3.8,3.5-2.5,2.7-3.6,4c-1.1,1.3-1.8,2.1-1.9,2.4-.4.6-.8,1.4-1.4,2.2-.5.9-1.1,1.8-1.5,2.7s-.9,1.8-1.3,2.7-.5,1.7-.5,2.3c0,.9-.2,1.9-.6,3-.5,1.1-.8,2.1-1,2.9-.2,1.1-.4,2.2-.5,3.2s-.2,2.1-.3,3.2c0,1.1,0,2.3-.2,3.5s0,2.5.1,3.7c.2,1.2.5,2.4,1,3.4s1.3,1.9,2.5,2.5h0ZM403.9,76.5c-.3.5-.2,1.3.1,2.4.4,1.1.5,1.9.3,2.4.4-.5.3-1.4,0-2.5-.4-1.2-.5-2-.4-2.4h0ZM404.1,81.7c0,.2-.1.5-.1.9,0,.4.1.7.4.9.2.2.2,0,.1-.6s-.3-1-.4-1.2h0ZM404.4,74.2c-.1,0-.1,0-.1.4,0,.3,0,.6,0,.7.3-.3.3-.7,0-1ZM405,82.1c0,.2,0,.5.1,1,0,.5,0,.8-.2,1.1-.3,0-.5,0-.5-.1-.3.1-.2.4.4.9.5.5.5.7,0,.7s-.6.2-.4.6c.2.4.4.6.6.7,0,.1-.2.1-.5,0-.2.4,0,.6.3.7.4,0,.6.1.6.3,0,.5,0,1-.1,1.4s-.2.9-.1,1.3c.1.8.1,1.2,0,1.2-.2,0-.3.2-.3.6,0,.5.2.5.9,0,.6-.5,1-1,1.1-1.3.2-.6.2-1.3.1-1.9,0-.7-.2-1.4-.4-2.1-.2-1.9-.4-3.7-.5-5.5s-.1-3.6,0-5.4c0-.5,0-1.7.1-3.5.1-1.8.2-3.6.3-5.3-.2,1-.4,2-.7,3-.3,1-.5,1.8-.6,2.3-.4,3-.5,6.1-.3,9.3h0ZM405.1,68.8c-.5.3-.5.6,0,.9.4-.4.4-.7,0-.9ZM407.4,62.4c-.6.2-1.1,1-1.5,2.2-.4,1.2-.6,2.2-.4,2.9,0-.5.3-1.1.6-1.8.4-.7.6-1.2.8-1.4v.5c.2-.5.3-1,.2-1.4s0-.7.2-.9ZM405.6,86.8c0,0,0,.2-.1.2v-.2ZM409.6,111.4c.2.6.5.9.7,1,0-.2,0-.7-.2-1.6s-.2-1.7-.3-2.6c-.1-.9-.2-1.7-.4-2.4s-.3-1-.4-1c-.5,0-.8.4-.8,1,0,.7,0,1.3.3,2.1s.4,1.4.6,2.1c.2.7.4,1.1.5,1.3h0ZM411.1,74.3c-.2,2.4-.2,4.7,0,7,0,0,0,.5.1,1.2,0,.7,0,1.1,0,1.3.3-.3.4-1,.3-2,0-1,0-1.7,0-2.1,0-1.1,0-2.3,0-3.6,0-1.3.1-2.5.2-3.7,0-1.1.2-2.5.6-4.3.3-1.8.3-3.1,0-4.1,0,.2-.1.8-.4,1.7-.2.9-.4,1.5-.5,1.8l-.5,6.7h0ZM413,102.7c.3-.3.2-.6-.3-.7,0,.4,0,.7.3.7ZM413.7,107.2c0,0,0,.2.2.3-.1-.3-.2-.8-.4-1.5-.1-.7-.2-1.1-.2-1-.2.3-.2.7,0,1.2.2.5.3.8.4,1ZM413.6,101c-.2.4,0,.7.5.9,0-.3,0-.6-.5-.9ZM416.3,111c-.1-.2-.3-.8-.5-1.8-.2-1-.4-2-.6-3s-.4-2-.7-2.8-.4-1.2-.5-1.2c-.3,0-.3.6-.1,1.7.2,1.1.5,2.4,1,3.8.4,1.4.9,2.8,1.3,4s.7,2.1.8,2.3c-.1-.2-.2-.7-.2-1.4s-.2-1.3-.4-1.7h0ZM416.3,73.5c-.1,3.2,0,6.4.2,9.6.2,3.2.6,6.5,1.1,9.7.2,1.2.3,2.4.4,3.7.1,1.3.3,2.6.6,4,.1.5.2,1,.3,1.5s0,1,0,1.5c0,.3,0,.6-.3.9-.2.3-.3.6-.3.8.4.8.8,1.4,1,1.9s.4,1,.5,1.5.1.7,0,.7c.2.2.3.7.3,1.6s0,1.3-.1,1.2c.1.2.4.7.9,1.6.5.9.7,1.3.6,1.5.3-.1.4-.7.3-1.8-.1-1.1-.3-2.3-.6-3.6-.3-1.3-.5-2.5-.8-3.7-.3-1.2-.4-2-.5-2.5-.6-2.9-1.1-5.9-1.6-8.9-.5-2.9-.9-5.9-1.2-8.9-.2-2.3-.4-4.6-.3-7s0-4.8,0-7.2c0-1,0-2,0-3.1,0-1,0-2,.2-2.9,0-.6.2-1.4.4-2.5.2-1.1.2-1.8,0-2.3-.1.8-.3,1.5-.3,2,0,.5-.1,1-.2,1.4,0,.5-.1.7-.1.8-.1,1.4-.2,2.8-.3,4.2,0,1.4-.2,2.8-.3,4.2h0ZM417.9,115.2c-.2,0-.4.1-.6.3,0,.2.1.3.3.2.2,0,.4-.2.5-.3s.2-.3.2-.3-.1,0-.4,0ZM418,102.8c0,.2-.1.3,0,.4,0,0,.2,0,.4-.2,0-.7-.1-.7-.3-.1ZM419.6,111.1c0,.2,0,.3.1.4,0,0,.1,0,.2-.2l-.3-.3h0Z"/>
    <path class="st3" d="M431.1,112.9c-.5-1.6-.9-3.2-1-5-.1-1.8-.1-3.6,0-5.5.1-1.8.3-3.7.5-5.5.2-1.8.4-3.6.6-5.3,0-1.7.2-4.7.5-9,.3-4.3.6-9.2,1.1-14.7s1.1-11.2,1.8-17.2,1.6-11.5,2.6-16.7c1-5.2,2.2-9.6,3.5-13.3,1.3-3.7,2.9-5.9,4.5-6.8,2.2-1.1,5-1.8,8.5-2.3,3.5-.4,7.1-.6,11-.7,3.8,0,7.6.2,11.2.5,3.6.4,6.7.9,9.2,1.4,3.7,1,7.4,2.5,11.1,4.5,3.7,2.1,7,4.6,9.8,7.7,2.9,3.1,5.1,6.6,6.7,10.5,1.6,4,2.2,8.3,1.8,13,0,.7-.2,1.1-.3,1.2-.1.1-.2.2-.4.2s-.3,0-.4-.1c-.1,0-.3,0-.4.3-.1.2,0,.4,0,.5.2.2.3.4.5.6.1.2.2.4,0,.7,0,.2-.3.4-.7.6-.5.2-.8.5-.8.9,0,.3-.2.8-.4,1.2,0,0-.2.3-.4.7-.3.4-.6.8-.9,1.2-.3.4-.6.8-.9,1.1-.3.3-.5.5-.6.5-.5,0-1.1.1-1.8.5-.7.4-1.4.8-2.1,1.2-.2.2-.7.5-1.4.8-.7.4-1.4.8-2.1,1.2-.7.4-1.6,1-2.7,1.7.4.2,1.1.2,2.1-.2,1-.4,2.1-.9,3.2-1.6,1.1-.6,2.1-1.3,3-2,.9-.7,1.4-1.1,1.6-1.4,0,.2,0,.3,0,.5,0,0,0,.3,0,.5.1,0,.3-.2.5-.2.3-.3.5-.3.5-.1,0,.3-.4.8-1.3,1.5s-1.9,1.3-3,2c-1.1.7-2.5,1.5-4.3,2.5,1.8,1.6,3.7,3.2,5.6,4.8,1.9,1.6,3.6,3.5,5.2,5.6,1.6,2.1,3,4.5,4.2,7.3s2.1,6,2.5,9.7c.4,3.2.5,6.4.3,9.6-.2,3.2-.9,6.3-2.1,9.5-1.4,3.3-3.7,5.9-6.7,7.8s-6.2,3.5-9.4,4.6c-5.9,2.2-11.8,3.5-17.6,3.8-5.9.3-11.9,0-18.1-.8-3.3-.5-6.6-1.1-9.9-1.8-3.3-.7-6.6-1.5-9.9-2.4-1.4-.4-2.8-.9-4.2-1.3s-2.8-1-4.1-1.7-2.4-1.6-3.5-2.7c-1-1.1-1.8-2.5-2.4-4.1h0ZM433.7,101.4c.2,0,.3-.4.4-1.2,0-.8,0-1.3-.2-1.3-.1,0-.2.4-.3,1.2-.1.8-.1,1.3.1,1.3h0ZM433.9,97.6c-.1,0-.1,0-.1-.2v-.4c0,.8,0,1,.1.6h0ZM434.2,91c0-.2-.1,0-.2.7s0,.8.1.5v-1.2c.1,0,.1,0,.1,0ZM434.5,90.1c.2-.8,0-1.1-.4-1.1,0,.4,0,.8,0,1.1,0,.2,0,.3,0,.4s.1,0,.3-.3ZM434.5,87.9c0,.5.1,1.2.2,2.2,0,1,0,1.9,0,2.9s0,1.9-.1,2.7c0,.8,0,1.2,0,1.3,0,.2,0,.6,0,1.2s.1,1.2.2,1.8c0,.6.1,1.1.2,1.4,0,.3,0,.2.1-.3.3-4.9.6-9.6,1-14.2s.9-9.3,1.6-14c.9-8.2,1.7-16.5,2.4-24.9.7-8.4,2.2-16.5,4.4-24.4.3-.9.4-1.7.2-2.4-.1-.7-.4-.4-.7.8-.6,1.6-1,3.4-1.2,5.3-.2,1.9-.5,3.7-.9,5.6-.5,3.1-1,6.2-1.4,9.2-.4,3-.9,6.1-1.4,9.2l-2.7,24c-.2,1.4-.4,2.7-.5,4.1-.1,1.3-.3,2.7-.4,4.1,0,.2,0,.6-.1,1.1,0,.5-.1,1.1-.2,1.6,0,.5-.1,1-.3,1.4-.1.4-.2.5-.3.3h0ZM439.9,39.5c0,.1,0,.6-.1,1.4,0,.8-.2,1.8-.3,3s-.2,2.3-.4,3.4-.3,2-.5,2.6c.2-.7.4-1.6.5-2.6.2-1.1.4-2.2.5-3.2.1-1.1.2-2,.3-2.9,0-.8,0-1.4,0-1.6h0ZM442.6,68.8c0-.3.1-.8.2-1.4.1-.6.2-1.3.3-2.1,0-.7.1-1.4.2-2s0-1-.2-1.4c0,.2,0,.6,0,1.1-.1.5-.2,1.1-.3,1.8-.1.6-.2,1.2-.3,1.8s-.2.9-.2,1c-.3,2.3-.6,4.5-.7,6.7-.2,2.2-.4,4.5-.7,6.9,0,.3-.1,1.6-.4,3.9s-.5,4.8-.7,7.4c-.2,2.6-.4,5-.5,7.2,0,2.2,0,3.3.4,3.3.4-3.9.6-7.2.8-9.7.1-2.5.3-4.8.4-7s.2-3.5.3-3.9c.2-2.3.4-4.6.7-6.9.2-2.3.5-4.6.8-6.9h0ZM440,83.8c0-.3-.1,0-.2.9,0-.2,0-.3.1-.4,0,0,.1-.2.1-.4h0ZM440.7,34.5c0-.3-.1-.3-.2.1,0,.4,0,.7,0,.9,0-.2,0-.4.2-.5.1-.1.1-.3,0-.5h0ZM441.8,29.3c0-.3,0-.2,0,.1s-.1.8-.2,1.2c.1-.2.2-.4.2-.6,0-.2,0-.5,0-.7h0ZM442.6,24.8c0-.1-.2.1-.2.7v.9c.2-.4.4-.9.2-1.6ZM445.6,46.9c0-.3.1-.8.2-1.6.1-.8.3-1.7.4-2.7.1-1,.2-1.9.3-2.7s0-1.5-.1-2c0,.4,0,1-.1,1.9-.1.8-.3,1.7-.5,2.6-.2.9-.4,1.7-.5,2.4-.2.7-.3,1.2-.3,1.5,0,.3-.2,1-.4,2.1-.2,1.1-.5,2.2-.6,3.5s-.3,2.4-.4,3.4,0,1.7.3,1.9c0-.1,0-.7,0-1.7s.4-2.1.6-3.3c.3-1.2.5-2.3.7-3.3s.3-1.6.3-1.8h0ZM446.9,72.3c0-1,.3-2.2.6-3.7.3-1.5.3-2.7,0-3.7.1.6,0,1.6-.3,3-.3,1.4-.5,2.4-.6,3-.4,1.9-.7,3.8-.8,5.7s-.4,3.9-.6,5.9c0,.7-.2,2.2-.4,4.6-.2,2.4-.3,4.9-.5,7.4-.1,2.6-.2,4.9-.3,6.9,0,2,0,3,.2,2.9.2,0,.4-.8.5-2.4.1-1.6.2-3.4.3-5.4,0-2,.2-3.9.2-5.7,0-1.8.1-3,.2-3.5l1.4-15h0ZM447.2,33.1c0-.2-.2-.2-.3-.1-.1.1-.2.4-.2.6,0,.3,0,.6,0,.8,0,.2.1.4.3.4.5-.6.5-1.2.2-1.8ZM447.6,28.7c-.2.8-.3,1.4-.3,1.8s0,.8-.1,1.2,0,.5.1.5c.1,0,.2-.7.4-2.1.1-1.4.3-2.6.5-3.7-.1.5-.3.9-.4,1.3s-.1.7-.2.9h0ZM451.1,36.8c0,.2-.1,1-.3,2.4s-.4,2.9-.6,4.4c-.2,1.6-.4,3-.5,4.2-.1,1.2-.1,1.9,0,1.9-.1,0,0-.6.2-1.7.2-1.1.5-2.6.8-4.3s.6-3.7,1-5.8c.4-2.1.7-4.1.9-6,.3-1.9.5-3.5.5-5,0-1.4,0-2.4-.1-2.8,0,.3,0,1.1-.1,2.4-.2,1.3-.4,2.7-.7,4.1-.3,1.5-.5,2.8-.8,4-.2,1.2-.3,1.9-.4,2.1ZM491.4,103.9c3.8-2,6.3-4.4,7.5-7,1.2-2.6,1.7-5.2,1.4-7.7-.3-2.5-1-4.7-2.4-6.7-1.3-2-2.6-3.4-3.8-4.2-2.6-1.8-5.5-3.1-8.5-4.2s-6.2-1.9-9.3-2.5c-3.2-.7-6.4-1.2-9.6-1.6s-6.4-.8-9.3-1.3c-.6,6-1.3,12.1-2.2,18.3-.9,6.2-1.3,12.5-1.4,19.1,3.4.4,7.1.6,11.2.5,4.1,0,8-.2,11.6-.5s6.9-.6,9.7-1,4.5-.8,5.1-1.2h0ZM466.9,27.5c-.5,0-1.1-.1-1.7-.2-.6-.1-1.2-.2-1.9-.2-.6,0-1.1,0-1.6.2-.5.2-.7.6-.8,1.4-.3,3.4-.7,6.7-1.1,10-.4,3.3-.7,6.7-.8,10.2,0,.8,0,1.3,0,1.4,0,.2.5.2,1.3.2,2.9,0,5.8,0,8.6-.3,2.9-.3,5.8-.5,8.7-.8,2.1-.4,4.3-.8,6.5-1.2s4.3-1,6.4-1.9c.7-.4,1.6-1,2.7-1.8,1.1-.8,2-1.7,2.7-2.7s1.2-2,1.4-3.1c.2-1.1-.1-2.1-1-3.1-1.7-2-3.8-3.4-6.2-4.4-2.5-1-5-1.7-7.8-2.2s-5.5-.8-8.1-.9c-2.7-.1-5.1-.3-7.3-.5h0ZM491,51.1c-.5.2-1.1.4-1.7.4-.6,0-1.2.2-1.7.4-.4,0-.7.2-1,.7.6.3,1.4.3,2.5,0s2-.5,2.6-.8c.5-.2,1.3-.8,2.3-1.8s1.7-1.5,2.3-1.8c-.8.2-1.7.6-2.7,1.2-1,.6-1.9,1.1-2.7,1.6h0ZM492.8,110.8c1.3-.4,2.7-1,4-1.8,1.3-.8,2.6-1.8,3.8-2.9-2.2,1-4.3,1.8-6.5,2.5-2.1.7-4.2,1.5-6.3,2.5.9.2,1.7.2,2.4,0,.7-.1,1.6-.3,2.6-.5h0ZM495.8,47.9c.4-.2.8-.4,1.3-.8,0,0-.2,0-.5,0-.4.2-.7.3-1.1.5-.4.2-.8.4-1.3.8,0,.2.3.1.9-.2.3,0,.6-.2.8-.4h0ZM509.6,118.1c.3-.3.8-.6,1.4-.9.6-.3,1.3-.7,1.9-1.2.6-.4,1.2-.9,1.8-1.6.5-.6.9-1.2,1.1-1.8-.3.8-1.1,1.5-2.4,2.2s-2.4,1.4-3.3,2.1c-1,.7-2,1.3-3.2,1.9-1.1.5-2.3,1.2-3.5,1.8-.2,0-.7.3-1.5.5-.8.3-1.6.6-2.4,1-.8.4-1.6.7-2.4,1.1-.7.4-1.1.6-1.1.7,0,0,.3,0,.9,0s1.3-.3,2-.6c.7-.2,1.4-.4,2.1-.6.7-.2,1-.3,1.2-.4,2.7-1,5.1-2.4,7.3-4.2h0ZM496.9,106.8c.1,0,.4-.2.9-.4.5-.2.9-.3,1.4-.5.5-.2.9-.4,1.3-.6s.6-.3.5-.4c0-.1-.3,0-.8,0-.4.2-.9.3-1.3.6-.5.2-.9.4-1.3.7-.4.3-.6.4-.6.5h0ZM499.9,53.7c-.5.2-1,.3-1.4.5-.4.2-.9.5-1.4.8-.2.2-.2.2.1.2.3,0,.7-.2,1.1-.4.4-.2.8-.5,1.2-.7.4-.3.5-.4.4-.4h0ZM504.9,57.5c-.7.3-1.3.6-1.7.8-.4.2-.8.4-1,.5-.3.1-.3.2,0,0-.4.4-1.2.7-2.3.9-1.1.2-1.7.6-2,1.1,1.4-.4,2.7-.7,3.9-1.1.9-.4,1.8-.8,2.4-1.2.7-.4.9-.7.8-1.1ZM501.6,112.8c.8-.2,1.4-.5,1.9-.9-.5,0-1.1.2-1.9.9-.8.6-1.4,1-1.9,1.2.3,0,.6-.1,1-.4.4-.3.7-.6.9-.7h0ZM500.5,119.6c1.2,0,2.3-.4,3.2-1s1.9-1.2,2.7-1.9c.1,0-.1,0-.6.2-.5.2-1.2.6-2,.9-.8.4-1.5.8-2.2,1.1-.7.4-1.1.6-1.2.6h0ZM501.1,53.2c-.4.2-.5.3-.4.6.7-.1,1-.5.8-1l-.5.4h0Z"/>
    <path class="st3" d="M528.8,132.9c-1.9-1.6-3.1-3.9-3.6-6.7s-.8-5.8-.7-9,.4-6.3.9-9.3c.5-3,.9-5.5,1.3-7.5.7-5,1.4-10,2.2-15s1.8-9.9,3.1-14.8c.5-2,1.2-4.5,2-7.3s1.7-5.8,2.6-8.8c1-3,1.9-5.9,2.9-8.7,1-2.8,1.9-5.2,2.8-7,1-2.3,2.2-4.5,3.7-6.6,1.4-2.1,3.1-3.9,5-5.5.4-.3,1.1-.8,2.3-1.5,1.2-.7,2-.7,2.5,0,.2.4.2.8,0,1.2s-.6.9-1,1.4c-.4.5-.8.9-1.1,1.4-.3.4-.4.8-.2,1.2,0,.2.3.1.8-.2.5-.4,1-.8,1.4-1.3.5-.5.9-1,1.4-1.5.5-.5.7-.7.9-.8.5-.2.8-.2,1,0,.2.2.3.5.4.9,0,.4,0,.9,0,1.6.7,0,1.2,0,1.4-.3s.7.1,1.5,1.1,1.5,2.1,2.1,3.3,1.2,2.4,1.7,3.7c1,2.4,1.6,4.7,1.9,7.1s.2,4.8,0,7.2c0,1.8-.4,4.1-1,6.8-.5,2.7-1.2,5.5-1.8,8.4-.7,2.8-1.4,5.6-2.1,8.2-.7,2.6-1.3,4.9-1.8,6.7-1.2,4.3-2.3,8.6-3.6,12.7-1.2,4.2-2.5,8.4-4,12.6-.5,1.2-.9,2.6-1.3,4.1-.4,1.5-.8,3.1-1.3,4.8-.5,1.6-1,3.2-1.5,4.8s-1.1,2.9-1.7,4.1c-.2.4-.6,1-1.3,1.9-.7.9-1.4,1.8-2.2,2.8-.8.9-1.6,1.8-2.4,2.4-.8.7-1.5,1-2.1,1,.1,0,0-.3,0-.6-.2-.3-.4-.7-.6-.9-.2-.3-.5-.5-.7-.6-.2-.2-.3,0-.2.4,0,.4-.4.7-1.1.9s-1.2.5-1.3.9c0-.5-.1-1-.2-1.4s-.1-.8-.4-1.2c0,.2,0,.4,0,.7,0,.3,0,.5-.2.7-.1,1-.2,1.3-.2.9,0-.4-.1-.6-.3-.7,0,.5,0,.9-.1,1.3-.2,1-.7,1.4-1.4,1.4-.8,0-1.3-.4-1.4-1.2s-.3-1.5-.4-2.2c0-.2.2-.8.3-1.8s.2-1.5,0-1.5c0,0-.1-.3-.1-.9,0-.6,0-1.1,0-1.7,0-.6,0-1.2.2-1.7s.1-.9.2-1.1c.3-3.3.7-6.6,1.3-9.9.5-3.3,1.1-6.6,1.7-9.8.3-2.1.7-4.1,1.1-6.2.4-2.1.9-4.2,1.4-6.2.3-.8.6-1.6,1-2.6.4-1,.7-1.8.9-2.6,0-.3,0-.5-.3-.7s-.3-.5,0-.9l.8-1.4c.2-.7.2-1.3.1-2,0-.6,0-1.3.2-2.1,0-.2.2-.9.5-2,.3-1.2.5-2.4.7-3.7s.5-3.1.9-5.2c-.2,0-.5.7-.9,2.2-.4,1.5-.8,3.2-1.2,5-.5,1.8-.9,3.5-1.3,5-.4,1.5-.7,2.2-.8,2.2-.3,0-.3-.7,0-1.9.3-1.2.7-2.5,1.1-4,.4-1.5.8-2.9,1.2-4.2.4-1.3.5-2.1.2-2.3,0,.1,0,.5-.3,1.2-.3.7-.5,1.5-.8,2.4-.3.9-.6,1.8-.9,2.5-.3.8-.4,1.3-.5,1.4-.3,1.1-.7,2.2-1,3.4-.3,1.2-.4,2.4-.2,3.5.1,0,.3-.4.6-.9.3-.5.3-.9.2-1.1.3,0,.4.4.2,1s-.4,1.3-.8,2.1c-.4.9-.9,1.9-1.4,2.9h.6c.2.4.2,1.2-.2,2.5-.3,1.3-.7,2.2-1,2.7-.3,1.2-.5,2.3-.9,3.6-.3,1.2-.6,2.4-.7,3.7-.2,1.5-.5,3-.8,4.5s-.6,3.1-.7,4.7c0,.8,0,2,0,3.5,0,1.5-.2,2.7-.7,3.3l-.7-.2c0,.6.2,1.1.4,1.4s.2.9.2,1.7c0,.5,0,.6-.2.4-.2-.2-.3-.3-.6-.1-.1,0-.2.5-.3,1.3,0,.8-.1,1.7-.1,2.7s0,1.9,0,2.8c0,.9,0,1.4.1,1.5,0,0,0-.5.2-1.1,0-.6.2-1.3.3-1.9s.2-1.5.5-2.6c0,2.6,0,4.6,0,6.1,0,1.5,0,2.9,0,4.2,0,1.3,0,1.9-.2,1.9-.5-.1-1-.4-1.5-.8h0ZM530.2,117.6c.2,0,.3,0,.3-.2,0-.2,0-.3-.2-.5-.1-.2-.2-.3-.3-.3,0,0-.1.1,0,.4l.3.5h0ZM530.3,120.6c0,0,0,.2,0,.3-.4,0-.4-.3,0-.9v.6ZM536.5,83.6c0-.1-.2,0-.2.4v.6c.1-.2.2-.5.2-1h0ZM539.1,103.5c0-.2,0-.4,0-.6-.1,0-.2.3-.3.6s0,.3.3,0h0ZM539.7,99.4c.2.2.3.3.4.3s0-.2,0-.4c-.1-.3-.2-.5-.3-.4,0,0,0,.2,0,.5h0ZM540.9,121.7c.2-.3.1-.5-.2-.7-.2.3-.1.5.2.7ZM541,94.3c.2,0,.4-.1.5-.5s0-.6,0-.6c-.2,0-.4.1-.5.5-.1.4-.1.6,0,.6ZM542.1,117.9c.2,0,.4-.3.5-.7,0-.4,0-.6,0-.8,0,.1-.2.6-.7,1.3s-.7,1.2-.3,1.2l.5-1.1h0ZM541.5,91.8c.2,0,.4-.4.7-1.4.3-1,.3-1.6.2-1.7-.3.6-.6,1.1-.7,1.5-.1.4-.2.7-.3,1.1,0,.3,0,.5.2.6h0ZM542,93.8c-.5,0-.6.2,0,.4.4,0,.4-.2,0-.4ZM543.5,113.6c.2.2.3.2.6,0,0-.3-.2-.5-.7-.5s-.9,0-1.1.1c.2,0,.2.4,0,1.1-.2.7-.3.9-.5.8,0,.2.1.2.2,0,0-.2.2-.4.4-.7.2-.3.3-.5.5-.7.1-.2.3-.2.5-.2h0ZM542.9,92.6c-.2-.6-.3-.6-.5-.2-.2.4-.1.8,0,1,.3-.1.5-.4.5-.8h0ZM548.3,70c0,0-.3.5-.6,1.5s-.7,2.4-1.2,4-1,3.4-1.5,5.2-1,3.6-1.3,5.3-.7,3-.9,4.2c-.2,1.1-.3,1.7,0,1.7.6-2.2,1.1-4.1,1.6-5.7s1-3.3,1.5-5.2,1.1-3.7,1.5-5.2c.4-1.6.7-3,.9-4.1s.2-1.7.2-1.7h0ZM543.1,112c-.4.4-.4.7,0,.8.3-.1.5-.4.7-.9.1-.5,0-.8,0-1.1-.3.2-.5.7-.6,1.2h0ZM544.5,53.4c0,0,0,.1-.2.7-.2.6-.3,1.2-.5,2s-.4,1.7-.7,3c.1,0,.3-.4.4-1s.3-1.2.5-1.8c.1-.6.2-1.2.3-1.8s.1-.9.2-1h0ZM545.1,108.2c0-.2,0-.6,0-1.3-.1-.7-.2-1.2-.2-1.5-.1.2-.3.3-.5.3-.2,0-.3.2-.4.4l.3,1.4c0,.2,0,.5-.2.8-.2.3-.3.6-.3.8-.1,1.1,0,1.4.5,1s.6-.7.6-.9l-.2-.7.5-.3h0ZM544.2,80.5c-.5.2-.6.5-.2.9.5-.2.5-.5.2-.9ZM547.4,106.8c0,.2-.2.7-.5,1.6s-.6,1.8-.9,2.8c-.3,1-.6,1.9-.8,2.7-.2.8-.2,1.2-.1,1.3.2,0,.5-.5,1-1.7.5-1.2,1-2.7,1.6-4.5.6-1.8,1.2-3.9,1.8-6.1.6-2.2,1.2-4.3,1.8-6.3s1.1-3.8,1.5-5.2c.4-1.5.7-2.4.8-2.8.8-2.7,1.5-5.4,2.2-8.1.7-2.7,1.4-5.3,2.4-7.7,0-.4.2-.7.4-.8.2-.2.2-.4,0-.7-.4-.7-.4-1.2,0-1.6.3-.4.5-.7.5-1,.1-.2,0-.6-.1-1.2-.2-.6-.3-1.2-.2-1.6-.4.6-.7,1.4-.9,2.4s-.5,2-.7,3c-.2,1-.4,2-.7,3-.2,1-.4,1.8-.5,2.3-.8,2.5-1.5,4.9-2.1,7.3s-1.4,4.8-2.1,7.3c-.8,2.8-1.5,5.4-2,7.9-.6,2.5-1.3,5.2-2.2,7.9ZM545.9,103.3c.4-.2.4-.6.2-1-.2.2-.4.3-.6.5-.3.3-.3.7,0,.9l.4-.4h0ZM546.6,98.7c-.1.2-.3.6-.5,1.3-.2.7-.3,1.2-.2,1.4-.1.5,0,.4.5-.1s.6-.8.6-.7c.2-.5.2-.8,0-.8s-.3-.2-.3-.3c.1-.2.3-.3.6-.5l.5-.7c-.5-.1-.8,0-1,.4h0ZM547.2,95.8c-.4.7-.4,1.2,0,1.4s.7-.2.9-1.2c0,0,0-.4.2-.8.1-.4.3-.9.4-1.4.1-.5.2-.9.3-1.2.1-.3.2-.5.3-.5,0,0,.2-.1.3-.5,0-.3.2-.7.3-1.2,0-.4.2-.8.2-1.2,0-.4,0-.7,0-.7,0-.4.4-1.6,1-3.6s1.2-4.2,1.9-6.4c.7-2.3,1.2-4.3,1.7-6.2.5-1.8.7-2.8.5-2.8-.3,0-.8,1.1-1.6,3.6-.8,2.5-1.5,5.3-2.4,8.5-.8,3.2-1.7,6.2-2.4,9s-1.3,4.6-1.7,5.2h0ZM547.6,93.5c-.2-.4-.4-.4-.5.2.2.6.3.5.5-.2ZM552.4,30.6c-.5.3-.5.6-.2,1,.2,0,.4-.2.5-.7.2-.5,0-.6-.3-.3ZM560.2,63.4c0-.4,0-.5-.1-.5-.2,0-.3.2-.6.5-.2.3-.4.5-.5.7,0,.2,0,.3.3.3.4,0,.7-.4.8-1h0ZM563.7,46.5c.2-.7.2-1.3.2-1.8,0-1.1,0-1.7,0-1.7-.3.1-.5.4-.6.9,0,.5,0,1,0,1.5,0,.6,0,1.1,0,1.7,0,.6,0,1,0,1.1.3-.4.4-1,.4-1.8h0ZM564.3,41.8c0,0-.2,0-.2.3,0,.1,0,.2-.2.4.4-.1.6-.3.5-.7Z"/>
    <path class="st3" d="M584.8,148.8c-3.8-1.2-7.3-3-10.4-5.5-3.2-2.5-5.8-5.4-7.9-8.7-2.1-3.3-3.7-7-4.7-11.1-1-4.1-1.2-8.2-.8-12.4.9-8.1,3.6-15.4,8-22s10.2-11.5,17.6-14.8c1.8-.9,3.7-1.5,5.7-1.9,2-.4,4-.6,5.8-.5.8,0,1.6.2,2.4.3s1.6.3,2.4.3c1,.1,2,.2,3,0,1,0,2,0,3.1,0,2.6.3,5.3,1.3,8.2,3,2.8,1.6,5.2,3.4,6.9,5.4,1.8,1.9,3.2,3.8,4.3,5.8s2.2,4.2,3.3,6.7c.2.6.4,1.5.6,2.6.2,1.2.3,2.4.5,3.7.1,1.3.2,2.6.3,3.9s.1,2.2.1,2.9l.6-.3v3.8c0,.5-.1.9-.2,1.2,0,.3,0,.5-.2.7,0,.2-.1.2-.1,0,.1.6.2.8.3.7,0-.1.1.2,0,1l.2,1.7c-.2,0-.6.2-1.1.4l.3,2.9c0,.7,0,1.4,0,1.9,0,.6-.2.8-.3.8,0-.6-.2-.8-.5-.5,0,.5.2.8.6.9.3,0,.4.5.1,1.2,0,0-.2.3-.6.8-.3.4-.6.5-.8.2s-.2-.6.2-.8c.3-.2.6-.4.7-.5,0,0-.2-.2-.5-.5-.2-.3-.3-.5-.2-.4-.2,0-.5.5-.9,1.3-.4.9-.4,1.4,0,1.6.4-.2.7-.3,1.1-.4.5-.2.5,0,.2.7-.4.7-.8,1.3-1.1,2-.3.6-.7,1.3-1.1,2-.7,1.2-1.5,2.4-2.5,3.6-.9,1.2-1.7,2.3-2.5,3.6-.8,1.4-2,3-3.7,4.7s-3.2,2.9-4.6,3.6c-.8.4-1.5.9-2.3,1.5-.8.6-1.6,1.2-2.5,1.6-1.3.6-2.5,1.1-3.8,1.5-1.3.4-2.6.7-4.1.9-3.2.6-6.5.8-9.7.6-3.2-.1-6.4-.7-9.4-1.6h0ZM574.5,89.5c.4-.3.5-.6.2-1,0,0-.2.2-.3.6-.1.4,0,.6.2.5ZM585.9,80.5c0,0,.3-.3.7-.5.5-.3,1-.6,1.5-.9.5-.3,1.2-.8,2.1-1.5-.2-.3-.7-.3-1.5,0-.8.3-1.7.8-2.6,1.3-1,.6-1.8,1.1-2.6,1.6-.8.5-1.2.9-1.4,1-.8.6-1.6,1.2-2.3,1.8-.7.6-1.5,1.4-2.2,2.2-.1,0-.5.5-1,1.2-.5.8-.7,1.2-.6,1.2.6-.1,1.2-.6,2-1.5.8-.9,1.4-1.5,1.8-1.9,1-.8,2-1.6,3-2.2,1-.7,2-1.3,3.1-1.9h0ZM580,112.4c.2,0,.4-.2.6-.4.3-.4.4-.9.2-1.4.1.2-.1.4-.7.5s-1,.2-1.1.1c-.2.4-.1.7.4.8.5,0,.7.2.7.4h0ZM579.7,110c0-.2,0-.4,0-.6-.1,0-.2.2-.3.5s0,.3.2,0ZM582.7,125.4c.3,2.8,1.1,4.8,2.4,5.9,1.3,1.1,2.8,1.7,4.5,1.7,1.7,0,3.5-.5,5.4-1.4,1.9-.9,3.5-2.1,5-3.5,3.6-3.6,6.8-7.8,9.5-12.5s4.5-9.7,5.4-14.8c.5-2.4.7-5,.5-7.5-.2-2.6-1.2-4.7-3-6.5-1.4-1.4-3.1-2-5-1.8s-3.7.5-5.4,1c-1.6.5-3.2,1.2-4.7,2.1-1.5.9-3,2-4.3,3.3-.9.8-1.8,1.8-2.7,2.8-.9,1-1.6,2.2-2.2,3.4-.7,1-1.2,2.1-1.6,3.2-.1.4-.4.6-.8.8-.4.1-.7.3-.8.4,0,0,.1.1.3.6s.2.9.1,1.1c0,.2-.1.5-.2.9s-.2.9-.4,1.4c-.2.5-.3.9-.5,1.2-.2.4-.4.6-.6.6,0,0,0-.3,0-.8.1-.5,0-.6-.6-.3,0,0-.1,0-.5.4s-.6.6-.9.7c.2.2.4.4.7.6.3.2.3.4,0,.6-.3,0-.5-.1-.8,0,.3.3.4.6.3.9-.2.1-.4,0-.5-.3,0-.3-.2-.6-.4-.6-.3,0-.4,0-.2.2.1.2.3.5.6.8.2.3.5.7.6,1,.2.3.2.6,0,.7-.3,0-.5-.1-.6,0,0,.1,0,.2.1.3,0,.1,0,.2.3.4l-.8.7c0,0,.2.2.5.9.3.7,0,1-.6.8-.3,0-.4-.3-.3-.5,0-.2,0,0-.5.4-.2.4-.3.9-.3,1.3,0,0,.3,0,.6-.3.3-.2.5-.2.6,0-.3.2-.5.4-.7.7-.3.4-.5.6-.4.7l1.1-.6c0,.8,0,1.5.2,2,0,.5.2,1,.2,1.4,0,.4,0,.7,0,.8,0,.2.2.6.5,1.2.3.6.5.9.6.9-.6.3-.8.6-.4.8s.6.9.8,2h0ZM587.2,85c.5-.5.5-.6,0-.2-.5.3-.7.4-.7.3-.8.5-1.6,1.2-2.5,2.2-.1,0-.4.3-.9.8-.5.5-1,1-1.5,1.5-.5.6-1,1.1-1.4,1.5s-.5.8-.5.9c1.5-1.3,2.7-2.3,3.5-3.2s1.7-1.7,2.5-2.4c.8-.7,1.2-1.2,1.4-1.3h0ZM580.1,108.2c-.1,0-.2.2-.3.4.6,0,.9-.1.8-.7l-.6.3h0ZM580,118.4c.2-.1.3-.3,0-.6-.2.1-.3.3,0,.6ZM582.3,113.9c.5.4.4.6-.2.6-.3-.3-.2-.5.2-.6ZM582.7,110c0-.2,0-.5.3-.8.2-.3.4-.3.5,0,0,.1,0,.3-.3.7s-.4.4-.5.2h0ZM583.6,105.9c.5,0,.7-.4.5-1.2-.2-.7-.3-1.1-.3-1-.2.4-.4.8-.5,1.1,0,.3,0,.6,0,.8,0,.2,0,.3.3.3h0ZM584.7,103.6c.2,0,.2-.3,0-.7-.2-.4-.4-.6-.6-.4-.2,0-.2.2,0,.6s.4.6.6.5h0ZM585.3,99.3c.4,0,.5-.1.1-.4-.4.2-.4.3-.1.4ZM596.7,87.2c.2-.1.6-.3,1.1-.6s.8-.5.9-.8c-.7.3-1.3.6-1.8.8-.5.2-1,.5-1.4.6-.4.2-.7.3-.7.4-1,.6-2,1.3-3,2.1-1,.8-1.8,1.6-2.7,2.5-1.3,1.6-2.3,3.3-3.2,5.2-.2.5-.2.8,0,.9.2.2.4,0,.8-.4.2-.1.4-.5.5-1.2,0-.7.2-1.2.6-1.5.3-.4.7-.8,1-1.2.3-.4.6-.8,1-1.2,2.2-2.2,4.5-4.1,7-5.8h0ZM589.5,88.9c-.2.1-.5.4-.8.9-.3.5-.7,1-1,1.5l1.9-1.6c.6-.4,1.5-1.1,2.7-2.1,1.3-.9,2.1-1.8,2.5-2.4-.2.2-.5.6-1.1.9-.5.3-1.1.7-1.6,1.1s-1.1.8-1.6,1.1c-.5.3-.9.6-1,.6ZM610.6,125.1c0,.1-.2.5-.8,1.1s-1.4,1.3-2.2,2.1-1.6,1.5-2.3,2.2c-.7.7-1.1,1.2-1.2,1.3-.4.3-.9.6-1.5,1-.6.4-1.2.8-1.8,1.1-.6.4-1.2.8-1.7,1.2s-.8.9-1,1.2c0,.3,0,.3.5.2s1-.4,1.6-.7c.6-.3,1.4-.8,2.4-1.4l3.4-3c.2-.2.5-.5,1.1-1.1s1.1-1.2,1.7-1.9c.5-.7,1-1.4,1.4-2,.4-.7.5-1.1.5-1.3h0ZM609.1,124.9c-.6.5-1,1-1.3,1.3-.3.3-.6.7-1,1.2,0,0,.3,0,.7-.4s.7-.6,1-1c.3-.4.5-.7.6-1,.1-.3.1-.3,0-.2ZM615.9,129.6c0,0-.3.1-.7.5-.4.3-.7.7-1.1,1.1-.3.4-.7.8-1.1,1.3-.4.4-.6.7-.6.8s.1,0,.5-.4c.4-.3.8-.8,1.3-1.2.5-.5.9-.9,1.2-1.4.4-.4.5-.7.4-.7h0ZM617.7,136.3c-.2.2-.7.7-1.6,1.5-.9.8-1.4,1.5-1.5,2,.2-.2.5-.4.9-.9.5-.4.9-.9,1.5-1.3s1-.9,1.4-1.2c.4-.4.7-.6.9-.8.6-.6,1.2-1.3,1.8-2,.5-.7,1-1.5,1.5-2.4l-4.9,5.1h0ZM625.1,131.9c-1,1.3-2,2.7-3.1,4.1-1.1,1.4-2.2,2.6-3.5,3.8.9-.8,1.9-1.7,3-2.8,1.2-1.1,2.2-2.2,3.3-3.2,1-1.1,1.8-2.1,2.4-3,.6-.9.7-1.5.2-1.9,0,0-.3,0-.5.3s-.5.5-.8.9-.5.7-.8,1.1c-.2.3-.3.6-.4.7h0ZM628.2,127.9c-.4.2-.4.4,0,.6.2-.1.3-.3,0-.6ZM632.5,109.7c-.4.2-.4.3-.1.4.4,0,.5-.1.1-.4ZM632.8,102.2c0-.4-.1-.4-.2,0s-.2.7-.2.8c0,0,0,0,.3-.1.2-.2.3-.4.1-.7h0Z"/>
    <path class="st3" d="M653.1,177.3c-3.6-1.8-6.7-4.1-9.5-7-2.7-2.9-4.9-6.2-6.5-9.8-1.6-3.6-2.6-7.5-2.9-11.7-.4-4.2,0-8.3,1.2-12.4,2.2-7.8,5.9-14.7,11.3-20.5,5.3-5.8,11.9-9.8,19.7-11.9,1.9-.6,3.8-.9,5.9-1s4,0,5.8.4c.8.2,1.6.4,2.3.7s1.5.5,2.3.7c1,.3,2,.4,2.9.5,1,0,2,.2,3.1.6,2.5.8,5.1,2.2,7.6,4.2,2.6,2.1,4.6,4.2,6,6.4,1.5,2.1,2.6,4.2,3.3,6.3.7,2.1,1.5,4.5,2.2,7.1.1.6.2,1.5.2,2.7s0,2.4,0,3.7c0,1.3-.2,2.6-.3,3.9-.1,1.3-.2,2.2-.3,2.9l.6-.2-.3,1.9-.3,1.9c-.1.5-.3.9-.3,1.2,0,.3-.2.5-.3.7s-.1.1-.1,0c0,.6.1.8.2.7s0,.2-.1,1v1.7c-.2,0-.6,0-1.2.2l-.2,2.9c-.2.7-.3,1.3-.4,1.9s-.3.8-.4.7c0-.6,0-.8-.4-.5,0,.5,0,.9.4,1,.3.1.3.5,0,1.2,0,0-.3.3-.7.7s-.7.4-.9,0c-.2-.3,0-.6.3-.8.4-.2.6-.3.8-.4,0,0-.2-.2-.4-.6-.2-.4-.2-.5,0-.5-.2,0-.6.4-1.1,1.2s-.6,1.3-.3,1.6c.4-.1.8-.2,1.1-.2.5,0,.5.2.1.7-.5.6-1,1.2-1.4,1.8-.4.6-.9,1.2-1.4,1.8-.9,1.1-1.9,2.1-3,3.1-1.1,1-2.1,2.1-3,3.1-1,1.3-2.5,2.6-4.4,4s-3.6,2.4-5.1,2.8c-.8.2-1.6.6-2.5,1.1s-1.8.9-2.7,1.2c-1.3.4-2.7.7-4,.9-1.3.2-2.7.2-4.2.3-3.3,0-6.5-.2-9.7-.9-3.2-.6-6.2-1.7-9.1-3h0ZM652,117.1c.5-.2.6-.6.3-1,0,0-.2.1-.4.5s-.2.6,0,.5h0ZM653.9,140.6c.2,0,.5-.1.7-.3.4-.4.5-.8.3-1.3,0,.3-.2.4-.8.4s-1,0-1.1,0c-.3.4-.2.7.2.8s.7.3.6.5h0ZM653,146.5c.3,0,.3-.3.1-.6-.3,0-.3.3-.1.6ZM654.5,153.9c-.1,2.8.3,4.9,1.5,6.2,1.1,1.3,2.5,2.1,4.2,2.4,1.7.3,3.6,0,5.6-.5,2-.6,3.8-1.5,5.4-2.7,4.1-3,7.9-6.6,11.3-10.9,3.4-4.3,5.9-8.9,7.6-13.8.9-2.3,1.4-4.8,1.7-7.4.2-2.6-.4-4.9-2-6.9-1.2-1.6-2.7-2.5-4.6-2.6-1.9,0-3.8,0-5.5.1-1.7.2-3.4.7-5,1.3-1.6.7-3.2,1.5-4.8,2.6-1,.7-2.1,1.5-3.1,2.3-1,.9-1.9,1.9-2.8,3-.8.9-1.5,1.9-2,3-.2.3-.5.6-.9.6-.4,0-.7.2-.9.3,0,0,0,.1.2.7,0,.5,0,.9,0,1.1,0,.2-.2.5-.4.9-.2.4-.4.8-.6,1.3-.2.4-.5.8-.7,1.2-.2.3-.5.5-.7.5,0,0,0-.3.2-.8s0-.6-.6-.4c0,0-.1,0-.5.3-.4.3-.7.5-1,.6.1.2.3.4.5.7s.2.5,0,.6c-.3-.1-.5-.2-.7-.2.3.4.3.7.2.9-.3,0-.4,0-.5-.4,0-.4-.2-.6-.3-.7-.3-.1-.3,0-.2.1.1.2.3.5.5.9.2.4.3.7.5,1.1,0,.3,0,.6-.1.7-.3-.1-.5-.2-.6-.1,0,.1,0,.3,0,.4s0,.3.2.4l-.9.5c0,0,.2.2.3,1,.2.8,0,1-.7.7-.3-.1-.3-.3-.2-.5.1-.2,0-.1-.5.3-.3.4-.5.8-.5,1.3,0,0,.3,0,.6-.2s.5-.1.6.1c-.3.2-.6.4-.8.6-.4.4-.6.6-.5.6l1.2-.4c0,.8-.2,1.5-.1,2,0,.5,0,1,0,1.4,0,.4,0,.7,0,.8,0,.2,0,.6.3,1.2.2.6.3.9.4,1-.7.2-.8.4-.5.7.3.3.5,1,.4,2.1h0ZM664.7,109.9c0,0,.3-.2.8-.4.5-.2,1-.4,1.6-.7.6-.3,1.3-.7,2.3-1.2-.2-.3-.7-.4-1.5-.2-.8.2-1.8.5-2.8.9-1,.4-2,.8-2.8,1.2s-1.3.7-1.5.8c-.9.4-1.8.9-2.6,1.4-.8.5-1.7,1.1-2.5,1.8-.1,0-.5.4-1.2,1.1s-.9,1-.8,1.1c.6,0,1.3-.4,2.2-1.2.9-.8,1.6-1.3,2.1-1.6,1.1-.7,2.2-1.2,3.3-1.7,1.1-.5,2.2-.9,3.3-1.4h0ZM654,138.1c0-.2,0-.4.1-.6-.1,0-.2.2-.3.5,0,.3,0,.3.2,0h0ZM654.7,136.5c-.1,0-.2.2-.3.3.6.2.9,0,.9-.5,0,0-.6.2-.6.2ZM656,142.4c.4.4.3.6-.3.5-.3-.4-.2-.5.3-.5ZM665.2,114.6c.5-.4.5-.5,0-.2-.5.2-.8.3-.7.2-.8.3-1.8.9-2.8,1.8-.1,0-.5.3-1,.7-.5.4-1.1.8-1.8,1.3-.6.5-1.2.9-1.6,1.3-.4.4-.6.7-.6.8,1.7-1,3-1.9,4-2.6,1-.7,1.9-1.4,2.8-2,.9-.6,1.4-1,1.6-1.1h0ZM656.9,138.6c0-.2.1-.5.4-.7.2-.3.4-.3.5,0,0,.1,0,.3-.4.6-.3.3-.5.3-.5,0h0ZM658.5,134.7c.5,0,.8-.3.7-1.1,0-.8-.1-1.1-.2-1-.3.4-.5.7-.6,1,0,.3-.2.5-.2.7,0,.2,0,.3.3.3h0ZM659.9,132.6c.2,0,.3-.2.1-.7-.2-.5-.3-.6-.5-.5-.2,0-.3.2-.1.6s.3.6.5.6ZM661.2,128.4c.4,0,.5,0,.2-.4-.4.1-.5.3-.2.4ZM674.2,118.3c.3,0,.7-.2,1.2-.4.5-.2.9-.4,1-.7-.8.2-1.4.3-1.9.5-.5.2-1,.3-1.5.4-.5,0-.7.2-.7.3-1.1.4-2.2.9-3.3,1.6-1,.6-2,1.3-3,2.1-1.5,1.3-2.8,2.9-3.9,4.7-.2.4-.3.8-.2.9s.4,0,.8-.2c.3,0,.5-.4.7-1.1.2-.6.4-1.1.8-1.3.4-.3.8-.7,1.1-1,.3-.3.7-.7,1.1-1,2.5-1.8,5.1-3.4,7.8-4.7h0ZM666.9,118.8c-.3,0-.6.3-1,.8-.4.4-.8.8-1.2,1.3l2.2-1.2c.6-.3,1.6-.9,3-1.6,1.4-.7,2.3-1.4,2.9-2-.2.2-.6.5-1.2.7-.6.3-1.2.5-1.8.8-.6.3-1.2.6-1.8.8-.6.3-.9.4-1.1.4h0ZM682.2,157.8c0,.1-.3.5-1,1-.7.5-1.5,1.1-2.5,1.7-.9.6-1.8,1.2-2.6,1.8-.8.6-1.3,1-1.3,1.1-.5.2-1,.5-1.6.7-.7.3-1.3.6-2,.8-.7.3-1.3.6-1.8,1-.6.4-1,.7-1.2,1.1-.1.3,0,.3.5.2.5-.1,1-.3,1.7-.5s1.5-.6,2.5-1l3.8-2.4c.2-.1.6-.4,1.2-.9.7-.5,1.3-1.1,2-1.7.7-.6,1.2-1.2,1.7-1.8.5-.6.7-1,.7-1.2h0ZM680.7,157.4c-.7.4-1.2.8-1.5,1.1-.3.3-.7.6-1.2,1.1,0,0,.3,0,.7-.3.4-.2.8-.5,1.1-.9.3-.3.6-.6.8-.9.2-.2.2-.3,0-.2ZM686.7,163c0,0-.3,0-.8.4-.4.3-.8.6-1.2.9-.4.4-.8.7-1.2,1.1s-.7.6-.7.7c0,0,.1,0,.6-.3.4-.3.9-.6,1.5-1s1-.8,1.5-1.2c.4-.4.6-.6.5-.7h0ZM687.5,170c-.2.1-.8.5-1.8,1.2-1,.7-1.6,1.3-1.8,1.8.2-.1.5-.4,1-.7.5-.4,1.1-.7,1.7-1.1.6-.4,1.1-.7,1.6-1,.5-.3.8-.5,1-.6.7-.5,1.4-1.1,2.1-1.7s1.2-1.3,1.8-2.2l-5.6,4.3h0ZM695.5,166.8c-1.2,1.2-2.4,2.4-3.7,3.5s-2.6,2.2-4,3.2c1-.6,2.1-1.4,3.4-2.2s2.5-1.8,3.7-2.7,2.1-1.7,2.8-2.6.9-1.4.5-1.8c0,0-.3,0-.5.2-.3.2-.6.5-.9.8-.3.3-.7.6-.9.9-.3.3-.4.5-.5.6h0ZM699.2,163.3c-.4.1-.5.3-.1.6.3,0,.3-.3.1-.6ZM706.2,146c-.4.1-.5.3-.2.4.4.1.5,0,.2-.4ZM707.6,138.7c0-.4,0-.5-.2,0s-.3.7-.3.8c0,0,0,0,.3-.1.2-.1.3-.4.2-.6h0Z"/>
    <path class="st3" d="M791.8,196.8c-1.2-2-3-3.2-5.5-3.6-2.5-.4-4.7-.6-6.8-.4-1.4,0-2.8,0-4.2.2-1.4.1-2.5.8-3.4,1.8-2.2,2.7-4.4,5.3-6.6,7.9-2.2,2.6-4.5,5.1-6.9,7.7-2.4,2.6-4.9,5.3-7.3,8-2.5,2.7-5.3,4.9-8.5,6.7-.3.2-.8.5-1.7.9s-1.8.8-2.8,1.1-1.8.5-2.7.5c-.8,0-1.2-.2-1.3-.8,0-.2.2-.7.9-1.5.7-.8,1.5-1.6,2.3-2.4.9-.8,1.7-1.5,2.5-2.1s1.2-.9,1.4-.9c-.5-.2-1.2.1-2,.9-.8.8-1.7,1.6-2.6,2.4-.9.8-1.7,1.5-2.6,1.9s-1.5.3-2-.5c0-.7.2-1.2.3-1.5,0-.2-.5,0-1.3.4-.8.4-1.4.4-1.7-.1-.3-.5-.3-.9,0-1.3.2-.4.2-.8-.1-1.1-.1,0-.3.1-.5.4-.8,0-1.2-.6-1-2.1s.5-3.1,1.1-4.9,1.1-3.5,1.7-5c.6-1.6.9-2.4,1.1-2.6,1.4-2.6,2.8-5.1,4.4-7.5,1.6-2.4,3.2-4.7,4.8-7.1,1.9-2.6,3.7-5.1,5.5-7.7s3.8-5,5.9-7.4c.4-.5,1-1.1,1.7-1.9.8-.8,1.4-1.6,2-2.5.6-.9,1-1.8,1.1-2.7.2-.9-.2-1.7-.9-2.3-1.1-.8-2.4-1.1-3.9-.9-1.5.1-2.9.3-4,.4-1.3.1-2.7.2-4.2.3-1.5.1-2.8.4-4,.9-.7.4-1.3.9-1.8,1.8-.5.8-1,1.5-1.5,2.1-.8,1.3-1.6,2.5-2.5,3.6s-1.8,2.3-2.7,3.5c-1.8,2.4-3.7,4.7-5.6,7s-3.9,4.5-6,6.7c-.4.5-1.1,1.2-2,2.3s-2.1,2.1-3.2,3.1c-1.2,1-2.3,1.9-3.5,2.6-1.1.7-2.1.9-2.8.7-.2-.1-.1-.3,0-.4.2-.2.4-.4.7-.7s.5-.6.6-.8c.2-.2.2-.4,0-.5-.3-.2-.8,0-1.4.6s-1,.9-1.2.6c-.3-.4-.4-.8-.3-1.2.1-.4.3-.7.4-.9.1-.2,0-.3-.1-.2-.2,0-.8.4-1.8,1-.2,0-.7.2-1.4.4-.7.2-1.2.2-1.3,0-.2-.2,0-1.1.9-2.8s1.9-3.5,3-5.5,2.3-3.9,3.4-5.6,1.7-2.7,1.9-2.9c1.3-1.9,2.6-3.8,3.8-5.7,1.2-1.9,2.6-3.8,3.9-5.6l4.7-6.4c.3-.4.9-1,1.8-1.9.9-.9,1.3-1.7,1.3-2.3,0,.2-.3.6-.7,1.1-.4.5-.9,1.1-1.5,1.7-.5.6-1,1.1-1.5,1.6-.5.5-.8.8-.9,1-1.2,1.6-2.3,3.2-3.5,4.7-1.1,1.5-2.2,3.1-3.3,4.8-1.6,2.3-3.2,4.6-4.6,6.8s-2.9,4.6-4.2,7c-1,1.5-1.9,3.2-2.7,5.1-.8,1.9-1.9,3.5-3.2,4.9,0,0-.1-.1-.2-.6s0-.7,0-.7c-.3,0-.5.1-.6.4-.1.2-.3.4-.4.6-.2.2-.3.3-.5.4-.2,0-.5,0-.8-.4-.4-.3-.6-.6-.6-.8,0-.2,0-.5,0-.9,0-1.3.5-2.7,1.3-4.2s1.5-2.8,2.2-4c1.7-3.5,3.6-6.7,5.7-9.7.4-.7,1.5-2.3,3.3-4.7,1.8-2.4,3.6-5,5.5-7.7,2.3-3.1,4.8-6.5,7.6-10.2-.2-.1-.9.6-2.3,2.2-1.4,1.6-2.8,3.4-4.4,5.4s-3,3.9-4.4,5.6c-1.4,1.8-2.2,2.8-2.4,3.1-1.3,1.8-2.6,3.5-3.8,5.3s-2.3,3.6-3.2,5.6c-.2.2-.6,1-1.3,2.4s-1.4,2.8-2.2,4.4c-.8,1.5-1.5,2.9-2.2,4.1s-1.1,1.8-1.3,1.7c-1.2-1-1.6-2.6-1.2-4.7.4-2.1,1.1-4.3,2.2-6.6,1.1-2.3,2.2-4.5,3.5-6.6,1.2-2.1,2.2-3.5,2.7-4.3,2-3.2,4.2-6.4,6.6-9.5s4.8-6.2,7.1-9.3c2.2-2.7,4.5-5.4,6.8-8.2,2.3-2.8,4.9-5.2,7.8-7.4,1.1-.7,2.2-1.4,3.5-2.1,1.3-.7,2.5-1.2,3.6-1.3,1,0,1.6,0,1.9.2.3.2.3.5.1.8-.2.3-.5.7-1,1.1-.5.4-.9.8-1.2,1,.1-.1.6-.4,1.4-.8.4-.2.8-.4,1.1-.6,0,.1-.2.4-.6.7-.4.3-.8.7-1.3,1s-.9.7-1.3,1c-.4.3-.5.5-.4.5.3.2.7.2,1.3,0,.5-.3,1.1-.6,1.6-1.1.5-.4,1.1-.8,1.6-1.2.5-.3,1-.4,1.3-.2.6.4.6.9,0,1.7s-1,1.3-1.2,1.6c.5-.3,1-.6,1.6-1.1s1.1-.3,1.5.3c.3.5.5,1.1.7,1.9.2.8.2,1.4,0,2,0,.2-.3.8-.8,1.7-.5.9-1,1.9-1.6,3s-1.3,2.5-2.3,4.3c.3.2.8,0,1.3-.9.6-.9,1.2-1.9,1.7-3s1.1-2.2,1.5-3.3c.5-1,.8-1.6,1.1-1.6.6,0,.9.4,1,1.3.1.9.2,2,0,3.2,0,1.2-.3,2.4-.5,3.5-.3,1.1-.5,1.8-.7,2-.3.4-.3.6,0,.8.3.1.7.1,1.2.1.5,0,1-.1,1.5-.2.5-.1.8-.1.8,0,.9-.2,1.8-.3,2.8-.3s1.9-.1,2.9-.2c1.8,0,3.8.2,5.7.7s3.7,1.4,5.1,2.6c1.1.9,2.1,1.9,3.1,2.9,1,1.1,1.9,2.2,2.6,3.5.2.2.4.6.6,1.1.2.6.4,1.1.7,1.8s.5,1.2.7,1.7.4.8.5.9c.8.4,1.1,1.2.8,2.5-.3,1.3-.3,2.2-.2,2.8,0,.3.2.8.4,1.4.2.6,0,1-.5,1.4-.4.3-.3.6.1.8s.6.5.2.9c.1-.1-.1,0-.8.4-.6.4-.8.7-.4.7.9.1,1.9,0,3-.4s2.1-.7,3-.8c1.9-.4,4-.5,6.3-.4,4.5.3,8.6,1.9,12.4,4.6,3.3,2.4,6,5.4,7.8,9,1.9,3.7,3,7.6,3.3,11.7.2,4-.1,8-.9,11.9-.8,4-2.3,7.7-4.5,11.1-2.1,3.3-4.6,6.4-7.7,9.3s-6,5.6-8.8,8.2c-1.4,1.2-2.9,2.5-4.6,3.8-1.7,1.4-3.5,2.5-5.4,3.4s-3.9,1.4-5.9,1.5-3.9-.4-5.8-1.6c-2.1-1.3-3.1-2.9-3.1-4.8s.6-3.8,1.7-5.7,2.4-3.8,3.9-5.6,2.7-3.3,3.5-4.4c2.4-3.3,4.9-6.5,7.3-9.7s4.6-6.6,6.6-10.3c.6-1.1,1.3-2.2,2.1-3.6.8-1.4,1.5-2.7,2.1-4.2.6-1.4,1-2.9,1.2-4.4.2-1.5,0-2.8-.8-4h0ZM702.3,184.8h0c0,.1-.3.7-.3.7.2.1.3-.1.4-.7h0ZM702.6,184c.3,0,.5-.3.6-.8s.2-.9.4-1.1c-.2.3-.4.7-.5,1.1,0,.4-.2.7-.5.8h0ZM705.5,179.7c0-.2,0-.1-.3.2-.2.4-.4.6-.6.6.4.2.7-.1.9-.8ZM711.8,193.5c.8-1.1,1.8-2.6,2.9-4.3,1.1-1.7,2.4-3.6,3.7-5.6s2.6-3.9,3.7-5.7c1.1-1.7,2.3-3.8,3.6-6.2-.2,0-.7.5-1.5,1.6-.8,1.1-1.8,2.6-2.9,4.3-1.1,1.7-2.3,3.6-3.6,5.6-1.3,2-2.5,3.9-3.5,5.7-1.1,1.8-2.3,3.8-3.8,6,.2.1.6-.4,1.4-1.5h0ZM711.5,197.7c.3-.2,1-1,2-2.3,1-1.3,2.2-2.9,3.5-4.6s2.7-3.7,4.2-5.8c1.5-2.1,2.7-4,3.8-5.8s1.9-3.4,2.5-4.6c.6-1.3.8-2,.6-2.2,0,0-.6.6-1.4,2-.9,1.4-1.9,3-3.1,4.7-1.2,1.7-2.2,3.4-3.2,4.9s-1.5,2.4-1.7,2.7c-.1.1-.6.8-1.5,2.1s-1.8,2.5-2.7,3.9c-.9,1.4-1.8,2.6-2.6,3.8-.8,1.1-1.2,1.7-1.1,1.8h.3c0-.2.2-.3.3-.3h0ZM712.9,179.6c0-.1,0-.1-.3,0-.2.2-.2.4-.2.5,0,0,0,0,.2,0,.2-.1.3-.2.4-.4s.2-.2.2-.3c0-.1,0,0-.2.2h0ZM714.3,167.1c-.3.4-.3.5,0,.4v-.4ZM716.9,164.2c.7-.8,1.3-1.8,2-2.7.6-1,1.3-1.8,2-2.5-.8.8-1.6,1.7-2.4,2.7s-1.5,2-2,2.9c.1,0,.3-.1.5-.4ZM724,155.9c0-.3-.2-.2-.5.3-.3.5-.3.6,0,.4l.6-.7ZM729.4,166.7c-.1,0-.4.2-.7.6s-.4.7-.3.8c.2.1.5-.1.9-.8.5-.6.5-.9,0-.7h0ZM745.4,219.9c.3-.4.5-.7.6-1-.1.3-.6.7-1.5,1.3-.9.6-1.9,1.2-3,1.9-1.2.7-2.3,1.4-3.4,2.1s-2,1.2-2.6,1.6l3.8-1.5c1.2-.7,2.3-1.3,3.3-1.9,1-.6,1.9-1.4,2.8-2.5h0ZM738.8,159c.4-.3.6-.7.5-1.1,0-.4,0-.7.2-.8-.3.2-.7.6-1.3,1.2-.6.6-.8,1.1-.7,1.4.5,0,.9-.2,1.2-.8h0ZM740.8,155.2c-.5.3-.5.5-.1.9.3.2.5.1.5-.3,0-.5,0-.6-.4-.5ZM741.9,165.8c-.3.4-.3.5,0,.4v-.4ZM750.1,215.3c0-.2.2-.4.4-.7,0,0-.3,0-.7.4-.4.3-.8.7-1.3,1.2-.5.5-.9.9-1.3,1.4-.4.4-.6.7-.6.9,0,0,.2-.2.5-.5.3-.3.6-.6,1-1s.8-.7,1.1-1,.6-.5.8-.6h0ZM747.2,158.9c0,.3,0,.4.2.5.2.1.2.1.3,0,0-.1,0-.2,0-.4,0-.2-.1-.3-.2-.4-.1,0-.2,0-.1.3h0ZM753.2,211.8c.1-.1.4-.4.8-.8s.8-.8,1.3-1.2c.4-.4.8-.9,1.1-1.3.3-.4.5-.7.4-.9,0,0-.2.4-.8.9-.6.6-1.2,1.1-1.9,1.7-.7.6-1.3,1.1-1.8,1.7-.5.5-.8.8-.6,1,.6-.3,1.1-.6,1.5-1.1ZM756.4,209c0-.2.1-.4.3-.6-.1,0-.3.1-.4.4-.2.3,0,.3.2.1h0ZM756.9,157.9c.3,0,.4-.2.3-.6-.4,0-.5.2-.3.6ZM757.2,206.8c-.1,0-.1.1,0,.3.2.2.3.3.4.3.1-.3,0-.5-.5-.6h0ZM758.7,205.9c-.1-.5-.3-.6-.7-.4.2.4.4.5.7.4ZM760.8,202.5c-.1,0-.4.2-.8.6-.4.4-.5.7-.2.9.4-.3.7-.6.9-.8s.3-.4.4-.6c0-.1,0-.2-.2,0h0ZM763.8,199.7c0-.1.2-.5.6-1-.5.5-1.1,1-1.8,1.4-.7.5-1.1,1-1.2,1.5.2-.4.7-.8,1.2-.9.6-.2,1-.5,1.1-1ZM767,196.1c.5.4.7.3.8-.2,0-.5,0-.8-.2-.9-.2-.1-.3,0-.5.3-.2.3-.2.6,0,.8h0ZM780.3,231.5c-3.2,3.6-6.2,7.2-9.1,11.1,0,0-.3.4-.6.9-.3.5-.7,1-1,1.5-.3.5-.5,1-.8,1.4-.2.4-.2.6,0,.5,1.6-1,3-2.5,4.4-4.5s2.5-3.7,3.6-5.2c.3-.4.8-.9,1.6-1.7.7-.8,1.5-1.5,2.2-2.3.7-.8,1.4-1.6,1.9-2.5s.8-1.6.8-2.2c0,0-.2.3-.5.6s-.6.6-1,.9c-.4.3-.8.6-1.1.9s-.5.5-.6.6h0ZM780.5,229.7c-.2.2-.7.8-1.4,1.6-.7.8-1,1.4-.9,1.7.7-.8,1.2-1.6,1.6-2.1.4-.6.8-1.1,1.2-1.6s.6-.9.8-1l-1.2,1.5h0ZM787.7,244.4c-.4.3-1,1-1.8,2-.8,1-1.4,1.6-1.7,1.6.8-.1,1.5-.7,2.4-1.6.8-.9,1.6-1.6,2.2-2.1,1.1-1,2.2-2.1,3.3-3.1s2.2-2.1,3.3-3.1c1.4-1.4,2.8-2.9,4-4.3s2.5-3,3.6-4.7c-2.7,2.4-5.3,4.9-7.7,7.6s-4.9,5.2-7.5,7.7h0ZM789.8,230.6c0,.4-.7,1.1-1.7,2-1,.9-1.7,1.6-2,1.9.8-.6,1.6-1.3,2.4-1.9.8-.6,1.2-1.3,1.2-2.1h0ZM791,237.6c-.3.4-.6.7-.8,1-.2.3-.5.6-.9.9.3-.2,1-.8,2-1.7,1-.9,2-1.8,3-2.8,1-1,1.9-1.9,2.6-2.8.8-.9,1.1-1.3.9-1.5-.2-.1-.5.1-1.1.8s-1.3,1.4-2.1,2.2-1.5,1.6-2.2,2.4-1.1,1.2-1.2,1.4h0ZM805.2,226.3c0-.2.1-.4.3-.6-.1,0-.3.1-.4.4-.2.3,0,.3.2.1h0ZM806.6,223.4c-.1.1-.3.5-.6,1.1-.3.6-.3.9-.2,1,.2.1.3-.2.5-1,.2-.8.3-1.1.2-1.1h0Z"/>
  </g>
  <g>
    <path class="st3" d="M190.4,589.9c-.7-.4-1.2-.8-1.4-1.5-.2-.6-.1-1.3.3-2l16.8-33.5c.4-.8.9-1.2,1.4-1.4s1.2-.1,1.9.2c.7.4,1.2.8,1.3,1.4.2.6,0,1.2-.3,2l-16,31.9,17.6,8.8c.6.3,1.1.7,1.2,1.3s.1,1.1-.2,1.7c-.3.6-.7,1-1.2,1.2-.5.2-1.1,0-1.8-.2l-19.7-9.9h0Z"/>
    <path class="st3" d="M230.1,609c-2.8-1.2-5.1-2.8-6.6-4.7s-2.5-4.2-2.8-6.8c-.3-2.5.2-5.2,1.4-8.1,1.2-2.8,2.7-5,4.7-6.7,2-1.6,4.2-2.6,6.6-3,2.4-.4,4.9,0,7.5,1,1.8.8,3.3,1.7,4.5,2.9s2.1,2.6,2.6,4.2c.5,1.6.7,3.3.6,5.1s-.6,3.8-1.5,5.8c-.2.6-.6,1-1,1.1s-1,0-1.6-.2l-19.3-8,1.2-2.9,18.2,7.6-1.2.3c.8-2,1.2-3.8,1.2-5.4s-.4-3-1.2-4.3-2.1-2.2-3.8-2.9c-1.9-.8-3.7-1-5.3-.7s-3.2,1.1-4.5,2.4-2.4,2.9-3.2,4.9v.3c-1.6,3.4-1.8,6.3-.9,8.8.9,2.5,2.9,4.3,5.9,5.6,1.2.5,2.6.9,3.9,1.1,1.4.2,2.8.1,4.3-.2.6-.1,1.2,0,1.6.1s.7.5.9.8c.2.3.2.7.2,1.1s-.2.8-.6,1.1c-.3.3-.8.5-1.4.7-1.6.4-3.3.5-5.2.2s-3.6-.7-5.2-1.3h0Z"/>
    <path class="st3" d="M260.1,620.2c-2.1-.8-3.8-1.8-5-3.1-1.2-1.3-1.9-2.8-2.1-4.5-.2-1.7,0-3.7.8-5.8l5.1-14.4-3.8-1.3c-.6-.2-1.1-.6-1.3-1-.2-.4-.2-.9,0-1.5s.5-.9,1-1.1,1-.2,1.6,0l3.8,1.3,2.3-6.5c.3-.8.7-1.3,1.2-1.5.5-.2,1.2-.2,1.9,0s1.2.6,1.5,1.2c.3.5.2,1.2,0,1.9l-2.3,6.5,7.1,2.5c.6.2,1.1.5,1.3,1s.2.9,0,1.5-.5,1-1,1.2c-.5.2-1,.2-1.6,0l-7.1-2.5-4.9,14c-.8,2.2-.9,3.9-.4,5.4.5,1.4,1.8,2.5,3.8,3.2.7.2,1.4.4,1.9.4.6,0,1,0,1.4.2.4,0,.6.3.7.6.1.3,0,.8-.1,1.5-.2.5-.4.8-.7,1.2-.3.3-.7.5-1.2.5-.5,0-1.1,0-1.9-.2-.8-.1-1.5-.3-2.1-.5h0Z"/>
    <path class="st3" d="M281.5,594.5c-.5.4-1,.5-1.5.5s-.8-.3-1-.6c-.2-.3-.3-.7-.2-1.1.1-.4.4-.8,1-1.2.9-.6,1.5-1.3,2-2,.5-.8.8-1.5,1-2.1v1.2c-1.1-.3-1.8-.8-2.2-1.6s-.5-1.6-.2-2.5c.3-1,.8-1.6,1.5-2,.7-.4,1.6-.5,2.5-.2,1,.3,1.7.9,2,1.7.4.8.4,1.9,0,3.2-.2.8-.6,1.6-1,2.4s-1,1.6-1.6,2.4c-.7.8-1.4,1.4-2.3,2h0Z"/>
    <path class="st3" d="M291.5,629.6c-1.7-.5-3.4-1.1-5.1-2s-3.1-2.1-4.3-3.5c-.3-.4-.5-.8-.6-1.2s0-.8.1-1.1c.2-.3.4-.6.7-.8.3-.2.7-.3,1.1-.2s.8.2,1.2.6c1.3,1.3,2.5,2.4,3.9,3.1,1.3.7,2.7,1.3,4.1,1.7,2.2.6,4,.6,5.3.1s2.2-1.5,2.6-2.9c.3-1.1.1-2-.4-2.9s-1.6-1.6-3.1-2.4l-5-2.6c-2.3-1.2-3.9-2.5-4.7-4s-1-3.3-.5-5.3c.5-1.7,1.3-3.1,2.6-4.1,1.2-1,2.8-1.7,4.6-1.9,1.9-.2,3.9,0,6.1.5,1.7.5,3.3,1.1,4.7,2,1.4.8,2.6,1.9,3.6,3.2.3.4.5.8.5,1.2,0,.4,0,.8-.2,1.1-.2.3-.5.6-.8.8-.3.2-.7.2-1.1.2-.4,0-.8-.3-1.1-.7-1-1.1-2-2-3.1-2.7-1.1-.7-2.2-1.2-3.4-1.5-2.2-.6-3.9-.6-5.3,0-1.4.5-2.2,1.5-2.6,2.9-.3,1.1-.2,2.1.3,3,.5.9,1.5,1.7,2.9,2.4l5,2.5c2.4,1.2,4,2.6,5,4.1.9,1.5,1.1,3.3.6,5.3-.7,2.5-2.2,4.3-4.7,5.3s-5.4,1-8.8,0h0Z"/>
    <path class="st3" d="M338.6,650.7c-2.1-.3-4.1-.9-6-1.7s-3.6-1.9-5-3.2c-.4-.3-.7-.7-.8-1.2s0-.8.1-1.2.4-.7.7-.9c.3-.2.7-.4,1.1-.4.4,0,.8,0,1.1.4,1.6,1.3,3.1,2.3,4.6,3,1.5.7,3,1.1,4.6,1.3,2.8.5,5,0,6.7-1.2,1.7-1.3,2.8-3.3,3.2-6.2l1.1-6.7h.6c-1,2.3-2.5,3.9-4.6,4.9-2.1,1-4.5,1.3-7,.9-2.6-.4-4.8-1.4-6.6-2.9-1.7-1.5-3-3.5-3.6-5.8-.7-2.3-.8-4.9-.3-7.8.4-2.1,1-4,1.8-5.7s2-3,3.3-4.1,2.9-1.8,4.6-2.2,3.5-.5,5.5-.2c2.6.4,4.8,1.5,6.4,3.1s2.6,3.6,2.8,6l-.7.6.9-5.5c.1-.8.4-1.4.9-1.7.5-.3,1.1-.5,1.9-.3.8.1,1.4.4,1.7.9s.4,1.1.3,1.9l-4,24.7c-.7,4.4-2.4,7.5-4.9,9.4s-6,2.5-10.2,1.8h0ZM340.5,634.9c1.9.3,3.5.1,5-.5s2.7-1.7,3.7-3.1c1-1.5,1.6-3.3,2-5.4.5-3.2.1-5.9-1.2-8-1.3-2.1-3.4-3.4-6.1-3.9-1.8-.3-3.5-.1-5,.5s-2.7,1.7-3.7,3.1c-1,1.4-1.6,3.2-2,5.4-.5,3.2-.1,5.9,1.2,8s3.3,3.5,6,3.9h0Z"/>
    <path class="st3" d="M366.4,643.5c-.8,0-1.4-.4-1.8-.8s-.5-1.1-.4-1.9l2.6-24.9c0-.8.4-1.4.8-1.8s1-.5,1.8-.5c.8,0,1.3.3,1.7.8.4.5.5,1.1.4,1.9l-.5,4.8h-.6c.9-2.3,2.3-4,4.2-5.1,1.9-1.1,4.2-1.5,6.8-1.3.6,0,1.1.2,1.4.5.3.3.5.9.4,1.6,0,.7-.2,1.2-.6,1.6s-1,.5-1.8.5h-1c-2.7,0-4.9.6-6.5,2-1.6,1.3-2.5,3.3-2.8,5.9l-1.5,14.4c0,.8-.4,1.4-.8,1.8s-1.1.5-1.9.5h0Z"/>
    <path class="st3" d="M398.5,646.2c-2.8-.1-5.3-.9-7.3-2.2-2-1.3-3.5-3.2-4.6-5.5-1-2.3-1.5-5-1.3-8.1.1-2.3.5-4.4,1.3-6.2.7-1.8,1.8-3.4,3-4.6,1.3-1.3,2.8-2.2,4.6-2.8,1.7-.6,3.7-.9,5.8-.8,2.8.1,5.3.9,7.3,2.2,2,1.3,3.5,3.2,4.6,5.5s1.5,5,1.3,8.1c-.1,2.3-.5,4.4-1.3,6.2-.7,1.8-1.8,3.3-3,4.6-1.3,1.3-2.8,2.2-4.6,2.8-1.7.6-3.7.9-5.8.8h0ZM398.6,642.3c1.8,0,3.4-.3,4.8-1.1s2.5-2,3.3-3.7c.8-1.6,1.3-3.6,1.4-6,.2-3.6-.5-6.5-2-8.5-1.5-2-3.7-3.1-6.4-3.2-1.8,0-3.5.3-4.8,1-1.4.8-2.5,2-3.3,3.6-.8,1.6-1.3,3.7-1.4,6.1-.2,3.6.5,6.4,2,8.4,1.5,2,3.7,3.1,6.4,3.2h0Z"/>
    <path class="st3" d="M431.5,646.8c-.7,0-1.3-.1-1.8-.5s-1-.9-1.3-1.7l-9.7-24c-.3-.7-.4-1.3-.3-1.8,0-.5.3-.9.7-1.2.4-.3.9-.5,1.5-.5.6,0,1.1,0,1.5.4s.7.8,1,1.5l9.2,23.7h-1.4s7.9-24.2,7.9-24.2c.3-.7.6-1.2,1-1.6s1-.5,1.6-.5c.6,0,1.2.1,1.6.4s.8.8,1.1,1.5l9.2,23.7h-1.4s7.7-24.3,7.7-24.3c.3-.7.6-1.2,1-1.5s.9-.4,1.4-.4c.6,0,1.1.1,1.5.4s.5.7.6,1.2,0,1.1-.2,1.7l-8.1,24.6c-.3.8-.6,1.3-1.2,1.8s-1.1.6-1.8.6-1.3-.2-1.8-.5-1-.9-1.2-1.7l-9.7-24.1h2.6c0,0-8,24.5-8,24.5-.2.8-.6,1.3-1.1,1.8-.5.4-1.1.6-1.8.6h0Z"/>
    <path class="st3" d="M499.9,641.6c-1.8.3-3.6.3-5.5.1-1.9-.2-3.6-.7-5.3-1.5-.4-.2-.8-.5-1-.9s-.3-.7-.3-1.1c0-.4.1-.7.3-1,.2-.3.5-.5.9-.6s.8,0,1.3,0c1.7.7,3.3,1.2,4.8,1.3,1.5.2,3,.2,4.4,0,2.3-.3,3.9-1,4.9-2s1.4-2.2,1.2-3.6c-.2-1.1-.7-1.9-1.5-2.5s-2.1-.9-3.8-1l-5.6-.4c-2.6-.2-4.5-.8-5.9-1.9-1.4-1.1-2.2-2.7-2.5-4.7-.3-1.8,0-3.4.7-4.8.8-1.4,1.9-2.6,3.5-3.6,1.6-1,3.5-1.6,5.8-1.9,1.7-.2,3.4-.3,5.1,0s3.1.8,4.6,1.6c.4.2.8.5.9.9s.3.7.2,1.1-.2.7-.4,1c-.2.3-.6.5-1,.6-.4,0-.8,0-1.3-.2-1.3-.6-2.6-1-3.9-1.2-1.3-.2-2.5-.2-3.7,0-2.2.3-3.8,1-4.9,2-1,1-1.4,2.3-1.2,3.7.2,1.1.6,2,1.5,2.6.8.6,2,1,3.5,1.1l5.6.3c2.6.2,4.7.8,6.2,1.8,1.5,1,2.3,2.6,2.6,4.6.4,2.6-.4,4.8-2.2,6.7-1.9,1.8-4.6,3-8,3.5h0Z"/>
    <path class="st3" d="M529.2,636.5c-2,.4-3.8.4-5.5,0s-3.2-1.2-4.3-2.4-1.9-2.5-2.3-4.2c-.4-2.1-.2-3.9.6-5.3.8-1.4,2.4-2.7,4.8-3.7s5.7-2,10-2.9l2.6-.5.7,3.1-2.6.5c-3.2.7-5.6,1.3-7.4,2-1.8.7-2.9,1.4-3.5,2.3-.6.9-.7,1.9-.5,3.2.3,1.6,1.2,2.8,2.5,3.6,1.3.8,3,1,4.9.6,1.6-.3,2.9-1,3.9-2,1-1,1.8-2.2,2.2-3.6s.5-3,0-4.7l-1.4-6.7c-.5-2.4-1.4-4.1-2.6-5s-2.9-1.1-5.2-.6c-1.4.3-2.7.8-4,1.4-1.3.6-2.6,1.5-4,2.6-.5.4-.9.6-1.4.6-.4,0-.8-.2-1.1-.4s-.5-.6-.6-1c-.1-.4-.1-.8,0-1.3s.4-.8.8-1.2c1.5-1.2,3.1-2.2,4.7-2.9s3.2-1.3,4.7-1.6c2.5-.5,4.6-.5,6.4,0,1.8.5,3.2,1.4,4.3,2.9,1.1,1.5,2,3.5,2.5,6l3.3,15.9c.2.8,0,1.4-.2,1.9-.3.5-.8.8-1.5,1-.7.2-1.4,0-1.8-.3-.5-.3-.8-.9-1-1.7l-1-4.6h.5c0,1.4-.3,2.8-1,4.1s-1.6,2.3-2.8,3.1c-1.2.9-2.6,1.5-4.2,1.8h0Z"/>
    <path class="st3" d="M556.5,630c-.7.2-1.4.1-1.9-.2s-.9-.9-1.1-1.6l-6-22.5-3.7,1c-.6.2-1.2.1-1.6,0-.5-.2-.8-.6-.9-1.2s0-1.1.2-1.5c.3-.4.7-.7,1.4-.9l5-1.3-1,1.6-.6-2.2c-1-3.7-.8-6.7.5-9.1,1.3-2.4,3.6-4.2,7-5.5l1.6-.6c.5-.2,1-.2,1.4,0,.4.2.7.4.9.7s.3.7.3,1.1,0,.8-.3,1.1c-.2.3-.5.6-.9.7l-1.3.5c-2.3.8-3.8,2-4.6,3.5-.7,1.5-.8,3.5-.2,5.9l.6,2.4-.9-.7,7-1.8c.7-.2,1.2-.2,1.6,0,.4.2.7.6.9,1.2s0,1.1-.2,1.5c-.3.4-.7.7-1.4.9l-6.3,1.7,6,22.5c.4,1.6-.2,2.7-1.7,3.1h0Z"/>
    <path class="st3" d="M585,621.8c-2.9.9-5.6,1.2-8.1.7s-4.7-1.6-6.5-3.4-3.2-4.1-4.2-7.1c-.9-2.9-1.2-5.6-.7-8.1s1.5-4.7,3.1-6.6,3.7-3.2,6.3-4.1c1.9-.6,3.6-.8,5.3-.7s3.2.7,4.7,1.5c1.4.8,2.7,2,3.8,3.5s2,3.3,2.7,5.4c.2.6.2,1.1,0,1.5s-.7.7-1.3.9l-19.9,6.4-1-3,18.8-6-.7,1c-.7-2.1-1.5-3.7-2.6-4.9-1.1-1.2-2.3-2-3.7-2.4-1.4-.4-3-.3-4.7.3-1.9.6-3.4,1.6-4.5,2.9s-1.7,2.9-1.9,4.7,0,3.8.8,5.8v.3c1.2,3.5,2.9,5.9,5.2,7.2,2.3,1.3,5,1.4,8.1.4,1.3-.4,2.5-1,3.7-1.8,1.2-.8,2.2-1.7,3.2-2.9.4-.5.9-.8,1.3-1s.8,0,1.2,0,.6.4.8.7c.2.3.3.7.3,1.2,0,.5-.2.9-.7,1.4-1,1.3-2.2,2.5-3.8,3.5-1.5,1-3.2,1.8-4.8,2.4h0Z"/>
    <path class="st3" d="M612.4,612c-2.7,1-5.1,1-7.1-.1s-3.7-3.2-4.8-6.2l-10.9-28.6c-.3-.8-.3-1.4,0-1.9.2-.5.7-1,1.5-1.2.7-.3,1.3-.3,1.9,0,.6.2,1,.7,1.3,1.5l10.8,28.2c.8,2,1.8,3.4,2.9,4s2.6.7,4.1.1c.3-.1.6-.3.9-.4s.5-.3.8-.4c.4-.2.7-.2,1,0,.2.2.5.6.8,1.2s.3,1.2.1,1.7-.6.9-1.2,1.2c-.3.2-.6.3-.9.5-.3.2-.6.3-.9.4h0Z"/>
    <path class="st3" d="M631.5,615.7c-.5.2-1,.3-1.5.1-.5-.2-.8-.5-1.1-.9-.3-.5-.4-1-.4-1.6v-10.2s.9,1.9.9,1.9l-21.3-19.8c-.5-.5-.8-.9-.9-1.4s0-1,.2-1.4c.2-.5.7-.8,1.3-1.1.6-.3,1.1-.3,1.5-.2s.9.4,1.5,1l18.8,18.1-1.5.7-.6-26.1c0-.8.1-1.4.3-1.8.2-.4.6-.7,1.3-1,.6-.3,1.1-.3,1.5-.2.4.2.8.5,1,.9s.4,1,.4,1.6l.3,38.7c0,.8-.1,1.4-.3,1.8-.2.4-.7.8-1.3,1h0Z"/>
  </g>
  <g>
    <path class="st2" d="M627.7,313c-7.4-3.4-24.8-2.5-24.8-2.5,13.3-17.8,9.7-26.4,9.7-26.4-33.4-27.8-95.4-8.7-122.3,1.6,25-91.3-45.5-119.1-54.2-114.6-8.8,4.6-21.5,26.8-21.5,26.8-11-20.6-25.7-28.6-25.7-28.6-62.9,16.7-53.1,101.5-50.6,118.2-26.6-12.8-80.1-33.1-111.8-6.6,0,0-5.3,9.1,8.1,26.9,0,0-16.2-3.1-23.6.3s-11.1,79,79.8,103.7c0,0,16.1,3.8,30.7,5.1-3.6,2.6-7.5,5.1-11.6,7.5-12.9,7.3-34.4,33.8-38,47.9-5.3,20.7-7.1,29.9,14.7,55.9,0,0,8.3.5,26.6-12.5,0,0,.8,26.3,4.4,28.2,7.1,3.7,75.3,16,103-61.6,26.3,83.8,93.9,75.1,101.2,71.3,3.6-1.9,4.4-28.2,4.4-28.2,18.3,12.9,26.6,12.5,26.6,12.5,21.8-26,17.7-55.2,12.4-75.8-3.6-14-12.4-27.4-25.3-34.7-5-2.8-9.6-5.8-14-8.9,11.1-1.6,20.7-3.9,20.7-3.9,90.9-24.7,88.4-98.2,81-101.5h0Z"/>
    <path class="st0" d="M631.1,312.2c-7.5-3.4-25.2-2.5-25.2-2.5,13.5-18.1,9.9-26.8,9.9-26.8-33.9-28.2-97-8.8-124.2,1.6,25.4-92.8-46.2-121.1-55-116.4-8.9,4.7-21.9,27.2-21.9,27.2-11.1-20.9-26.1-29-26.1-29-63.9,16.9-54,103.2-51.4,120.1-27-13-81.4-33.6-113.6-6.8,0,0-5.4,9.3,8.2,27.4,0,0-16.5-3.1-24,.3-7.5,3.4-11.3,80.3,81.1,105.4,0,0,16.3,3.8,31.2,5.2-3.7,2.7-7.6,5.2-11.8,7.6-13.1,7.4-35,34.4-38.6,48.6-5.4,21-7.2,30.3,15,56.8,0,0,8.5.5,27-12.7,0,0,.8,26.8,4.4,28.6,7.2,3.7,76.5,16.3,104.6-62.6,26.7,85.1,95.4,76.3,102.8,72.5,3.7-1.9,4.4-28.6,4.4-28.6,18.6,13.1,27,12.7,27,12.7,22.2-26.4,18-56,12.6-77.1-3.6-14.3-12.6-27.9-25.7-35.2-5-2.9-9.7-5.9-14.2-9,11.3-1.7,21.1-4,21.1-4,92.4-25.1,89.8-99.7,82.3-103.2h0Z"/>
    <path class="st3" d="M600.3,322.3c-6.5-2.9-21.2-1.4-21.2-1.4,11.6-15.5,9.8-22.9,9.8-22.9-29-24.2-84.3-7.7-107.7,1.3,21.8-79.5-39.6-103.7-47.1-99.7-7.6,4-18.7,23.3-18.7,23.3-9.5-17.9-22.3-24.8-22.3-24.8-54.8,14.5-46.2,88.3-44,102.8-23.1-11.1-71.7-29.2-99.2-6.2,0,0-2.6,8.4,9,23.9,0,0-16.2-2.3-22.7.6-6.4,2.9-7.6,68.4,71.6,89.9,0,0,14,3.3,26.7,4.5-3.1,2.3-6.5,4.5-10.1,6.5-11.2,6.3-29.9,29.4-33,41.7-4.6,18-8,25.9,10.9,48.5,0,0,9.1.5,25-10.7,0,0,.3,26,3.4,27.6,6.2,3.2,65.9,10.9,90-56.7,22.9,72.9,81.6,67.4,88,64.2,3.1-1.6,3.9-26.7,3.9-26.7,15.9,11.3,24.9,11.2,24.9,11.2,19-22.6,13.6-48.3,9.1-66.3-3.1-12.2-10.8-23.8-22-30.2-4.3-2.4-8.3-5-12.2-7.7,9.7-1.4,18-3.4,18-3.4,79.1-21.5,78.7-85,72.2-88l-2.2-1.1Z"/>
    <path class="st1" d="M597.8,320.8c-7-.7-14.8-.9-14.8-.9,11.9-15.9,8.7-23.5,8.7-23.5-29.8-24.8-85.1-7.8-109,1.4,22.3-81.4-40.6-106.2-48.3-102.1-7.8,4.1-19.2,23.8-19.2,23.8-9.8-18.4-22.9-25.4-22.9-25.4-56.1,14.9-47.4,90.5-45.1,105.3-23.7-11.4-71.4-29.5-99.7-5.9,0,0-4.7,8.1,7.2,24,0,0-14.5-2.7-21.1.3s-9.9,70.4,71.1,92.4c0,0,14.3,3.4,27.4,4.6-2.9,2.1-5.9,5.4-9.2,7.6s-2.2,1.6-3.3,2.5c-12.9,10.5-28.7,27.5-31.7,39.3-4.7,18.4-6.3,26.6,13.1,49.8,0,0,7.4.4,23.7-11.1,0,0,.7,23.5,3.9,25.1,6.3,3.3,67.1,14.3,91.8-54.9,23.4,74.7,83.7,66.9,90.2,63.6,3.2-1.7,3.9-25.1,3.9-25.1,16.3,11.5,23.7,11.1,23.7,11.1,19.4-23.2,15.8-49.2,11.1-67.6-3.2-12.5-11-24.4-22.5-30.9-4.4-2.5-8.5-5.2-12.5-7.9,9.9-1.5,18.5-3.5,18.5-3.5,81-22,78.8-87.5,72.2-90.5l-3.7-.8c-1.2-.2-2.4-.4-3.6-.5Z"/>
    <ellipse class="st2" cx="481.5" cy="390.2" rx="20.9" ry="14.6"/>
    <ellipse class="st2" cx="360.3" cy="390.2" rx="20.9" ry="14.6"/>
    <path class="st5" d="M402.5,380.3s6.9,8.4,16.2,7.9c9.3-.5,16.6-6.2,18.5-7.5s3.5-2.1,5.5-.3,2.2,2.9,1.2,5.4-4.4,6.6-11.2,9.2-15.5,3.6-21.6,1.7c-6.1-1.9-12.6-5.6-15.2-8.5-.7-.8-3.3-5.5-.8-8s5.7-1.5,7.5.2h0Z"/>
    <g>
      <circle class="st5" cx="504.2" cy="371.4" r="3.1"/>
      <circle class="st5" cx="514.2" cy="363.5" r="3.1"/>
      <circle class="st5" cx="516.5" cy="374.1" r="3.1"/>
    </g>
    <g>
      <circle class="st5" cx="334.5" cy="371.4" r="3.1"/>
      <circle class="st5" cx="324.5" cy="363.5" r="3.1"/>
      <circle class="st5" cx="322.2" cy="374.1" r="3.1"/>
    </g>
    <g>
      <path class="st5" d="M472.7,312.1c30.8-4.9,34.7,66.6,0,61.8-25.2-3.5-23.9-58,0-61.8ZM474.8,326.5c-8.2,1.4-9.7,26,4.1,21.6,7.3-2.3,5.9-23.3-4.1-21.6Z"/>
      <path class="st4" d="M474.8,326.5c10-1.6,11.4,19.3,4.1,21.6-13.8,4.4-12.4-20.3-4.1-21.6Z"/>
    </g>
    <g>
      <path class="st5" d="M359.4,312.1c30.8-4.9,34.7,66.6,0,61.8-25.2-3.5-23.9-58,0-61.8ZM361.5,326.5c-8.2,1.4-9.7,26,4.1,21.6,7.3-2.3,5.9-23.3-4.1-21.6Z"/>
      <path class="st4" d="M361.5,326.5c10-1.6,11.4,19.3,4.1,21.6-13.8,4.4-12.4-20.3-4.1-21.6Z"/>
    </g>
  </g>
</svg>