<?xml version="1.0" encoding="UTF-8"?>
<svg id="Ebene_1" xmlns="http://www.w3.org/2000/svg" version="1.1" viewBox="0 0 278.1 254.2">
  <!-- Generator: Adobe Illustrator 30.1.0, SVG Export Plug-In . SVG Version: 2.1.1 Build 136)  -->
  <defs>
    <style>
      .st0 {
        fill: #f091ac;
      }
    </style>
  </defs>
  <path class="st0" d="M276.2,95c-4.8-2.2-18.1-1.5-18.1-1.5,8.6-11.6,8.2-17.3,8.2-17.3-21.6-18-63.7-5.5-81.1,1.2C201.4,18.1,156.5-1.7,150.9,1.2c-5.7,3-14.7,19.1-14.7,19.1C129.1,7,118.9,0,118.9,0c-40.8,10.8-33.7,67.8-32.1,78.6-17.2-8.3-53.8-21.9-74.4-4.8,0,0-1.5,6.4,7.1,17.9,0,0-12.9-1.7-17.7.5-4.8,2.2-4.9,51,54,67,0,0,10.4,2.4,19.9,3.3-2.3,1.7-5,3-7.5,4.9-9.1,6.8-22.3,21.9-24.6,31.1-3.4,13.4-5.4,33.1,8.8,50,0,0,11.4-10.8,18-21.8,0,0-.3,26.4,2,27.6,4.6,2.4,49.6,1.1,67.5-49.3,17,54.3,60.6,50.5,65.3,48.1,2.3-1.2,3.1-20.1,3.1-20.1,11.8,8.4,19,9.1,19,9.1,14.1-16.9,9.7-36.8,6.3-50.2-2.3-9.1-8-17.8-16.4-22.5-3.2-1.8-6.2-3.8-9.1-5.7,7.2-1.1,13.4-2.5,13.4-2.5,58.9-16,59.3-63.8,54.5-66h0,0Z"/>
</svg>