<?xml version="1.0" encoding="UTF-8"?>
<svg id="Ebene_1" data-name="Ebene 1" xmlns="http://www.w3.org/2000/svg" viewBox="0 0 274.84 261.09">
  <defs>
    <style>
      .cls-1 {
        fill: #f091ac;
      }
    </style>
  </defs>
  <path class="cls-1" d="M274.58,95.55c-5.96-1.45-11.46-1.45-17.57-1.87l6.95-15.84c-3.65-3.29-7.9-5.17-12.63-6.61-15.75-4.76-32.33-3.5-47.68,2.78-11.67,4.78-21.67,11.9-29.89,20.78,5.77-13.96,7.94-29.06,5.72-44.54-2.36-16.42-9.67-31.35-21.74-42.52-3.63-3.36-7.4-6.07-12.09-7.55l-10.14,14.01c-3.46-5.06-6.25-9.8-10.51-14.21-6.23,2.81-11.36,6.82-15.81,11.89-18.8,21.42-22.71,50.91-13.85,77.25-7.01-6.27-15.07-11.4-24.14-15.12-15.36-6.28-31.93-7.54-47.68-2.78-4.73,1.43-8.98,3.31-12.63,6.61l6.95,15.84c-6.11.42-11.61.42-17.57,1.87-.73,6.8.13,13.25,2.25,19.66,9.94,30.03,37.74,49.3,68.71,52.47-5.94,4.96-11.25,10.75-15.76,17.42-9.29,13.75-13.9,29.72-12.46,46.11.43,4.93,1.41,9.47,3.89,13.71l16.92-3.57c-.83,6.07-1.96,11.46-1.76,17.59,6.51,2.1,13,2.58,19.7,1.81,33.03-3.78,58.46-29.3,66.73-61.13,3.45-13.27,4.21-26.86,2.54-40.32.06.03.11.05.17.08,15.11,6.39,31.22,9.48,47.68,8.68,32.85-1.6,63.02-21.28,73.47-52.85,2.12-6.41,2.98-12.85,2.25-19.66Z"/>
</svg>