<?xml version="1.0" encoding="UTF-8"?>
<svg id="Ebene_1" xmlns="http://www.w3.org/2000/svg" version="1.1" viewBox="0 0 225.8 126.8">
  <!-- Generator: Adobe Illustrator 30.1.0, SVG Export Plug-In . SVG Version: 2.1.1 Build 136)  -->
  <defs>
    <style>
      .st0 {
        fill: #f091ac;
      }
    </style>
  </defs>
  <path class="st0" d="M183,47.3c0-4.5-1-8.8-3-13-4.1.4-7.6,1.7-11.6,2.8l.9-11.6c-3.1-1.3-6.2-1.5-9.5-1.4-11.1.5-21.3,5.1-29.6,12.5-8.6,7.7-14.3,17.5-17.2,28.3-2.9-10.8-8.6-20.6-17.2-28.3-8.3-7.4-18.6-12-29.7-12.5-3.3-.2-6.4,0-9.5,1.4l.9,11.6c-4-1.1-7.5-2.3-11.6-2.8-2,4.1-2.9,8.4-3,13-.5,22.4,14.3,41.7,34.8,50.1,10.3,4.2,21.2,5.9,32.2,5.2,1.3,0,2.3-.3,3.1-.9.8.6,1.8.9,3.1.9,11,.7,22-1,32.2-5.2,20.5-8.4,35.2-27.7,34.8-50.1h0Z"/>
</svg>