<?xml version="1.0" encoding="UTF-8"?>
<svg id="Ebene_1" data-name="Ebene 1" xmlns="http://www.w3.org/2000/svg" viewBox="0 0 278.08 254.19">
  <defs>
    <style>
      .cls-1 {
        fill: #f091ac;
      }
    </style>
  </defs>
  <path class="cls-1" d="M276.2,94.97c-4.8-2.19-18.07-1.49-18.07-1.49,8.63-11.55,8.17-17.26,8.17-17.26-21.64-18.04-63.7-5.51-81.09,1.16C201.42,18.12,156.49-1.71,150.89,1.24c-5.7,2.99-14.7,19.15-14.7,19.15C129.08,7.01,118.86,0,118.86,0c-40.78,10.82-33.73,67.75-32.07,78.55-17.21-8.32-53.83-21.93-74.37-4.8,0,0-1.5,6.4,7.14,17.95,0,0-12.85-1.7-17.66.48-4.8,2.19-4.86,51.01,54.05,67.01,0,0,10.41,2.45,19.91,3.33-2.33,1.71-5.04,3.01-7.51,4.86-9.07,6.81-22.29,21.95-24.61,31.07-3.41,13.42-7.25,20.32,6.88,37.2,0,0,8.04-.66,19.89-9.06,0,0,.52,19.16,2.85,20.37,4.61,2.38,48.74,8.32,66.71-42.06,17.02,54.35,60.55,50.54,65.26,48.11,2.33-1.21,3.11-20.13,3.11-20.13,11.84,8.4,19.01,9.13,19.01,9.13,14.14-16.88,9.68-36.82,6.27-50.24-2.32-9.12-8.03-17.78-16.37-22.51-3.21-1.82-6.21-3.76-9.06-5.74,7.22-1.07,13.44-2.54,13.44-2.54,58.92-16.01,59.28-63.82,54.47-66.01h-.03Z"/>
</svg>