<?xml version="1.0" encoding="UTF-8"?>
<svg id="tips" xmlns="http://www.w3.org/2000/svg" version="1.1" viewBox="0 0 24 24">
  <!-- Generator: Adobe Illustrator 30.1.0, SVG Export Plug-In . SVG Version: 2.1.1 Build 136)  -->
  <defs>
    <style>
      .st0 {
        fill: #fc0;
      }

      .st1 {
        fill: #fdfb4b;
      }

      .st2 {
        fill: #f091ac;
      }

      .st3 {
        fill: #fdfb85;
      }
    </style>
  </defs>
  <path class="st2" d="M12,0C5.3,0,0,2.2,0,12s5.3,12,12,12c6.7,0,12-2.2,12-12S18.7,0,12,0h0Z"/>
  <path class="st3" d="M12.1,4.7c.1.1.1.4.1.8,0,.7-.2.8-.3.6-.1-.2-.2-.5-.2-.8,0-.4.2-.8.4-.6Z"/>
  <path class="st0" d="M12,6.7c-2.4,0-4.3,1.9-4.3,4.3,0,3.5,1.3,5.1,3,5.6v2.5s.9.3,1.3.3c.4,0,1.3-.3,1.3-.3v-2.5c1.7-.5,3-2.1,3-5.6,0-2.4-1.9-4.3-4.3-4.3h0Z"/>
  <path class="st3" d="M13.4,10.7c-.2.7-.7,1.2-1.4,1.4-1.3.4-1.7-.7-1.4-1.4.4-1,.8-1.7,1.5-1.7.8,0,1.7.5,1.3,1.7ZM14.2,12.3c-.1.4-.3.6-.7.7-.6.2-.8-.3-.7-.7.2-.5.4-.9.8-.9s.8.2.6.9Z"/>
  <path class="st1" d="M10.7,19.1s.1,0,.8-.2c.7-.2,1.3-.9,1.3-.9-.6.3-.9.6-1.5.8s-.6,0-.6,0v.3ZM10.7,17.5s.1,0,.8-.2c.7-.2,1.3-.9,1.3-.9-.6.3-.9.6-1.5.8-.6.2-.6,0-.6,0v.3ZM13.3,17.1s-.1,0-.8.2c-.7.2-1.3.9-1.3.9.6-.3.9-.6,1.5-.8s.6,0,.6,0v-.3Z"/>
  <path class="st3" d="M14.6,4.9c0,.2,0,.4,0,.8-.2.6-.4.7-.5.5,0-.3,0-.5,0-.8.2-.4.4-.7.5-.4h0ZM9.4,4.9c0,.2,0,.4,0,.8.2.6.4.7.5.5,0-.3,0-.5,0-.8-.2-.4-.4-.7-.5-.4h0ZM16.6,6.2c0,.2,0,.4-.3.7-.3.6-.6.6-.6.4,0-.3,0-.5.3-.8.2-.3.6-.6.6-.3h0ZM7.4,6.2c0,.2,0,.4.3.7.3.6.6.6.6.4,0-.3,0-.5-.3-.8-.2-.3-.6-.6-.6-.3h0Z"/>
</svg>